<?xml version="1.0" encoding="utf-8"?>
<!-- Generator: Adobe Illustrator 24.0.1, SVG Export Plug-In . SVG Version: 6.00 Build 0)  -->
<svg version="1.1" id="圖層_1" xmlns="http://www.w3.org/2000/svg" xmlns:xlink="http://www.w3.org/1999/xlink" x="0px" y="0px"
	 viewBox="0 0 60 62" style="enable-background:new 0 0 60 62;" xml:space="preserve">
<style type="text/css">
	.st0{fill:none;stroke:#31A043;stroke-width:3.5;stroke-linecap:round;stroke-linejoin:round;}
	.st1{fill:none;stroke:#D2AC5C;stroke-width:3.5;stroke-linecap:round;stroke-linejoin:round;}
</style>
<title>Interface-Essential / Share / user-signal</title>
<desc>Created with Sketch.</desc>
<path id="Shape" class="st0" d="M44.1,43.9c7.8-7.8,7.8-20.5,0-28.3s-20.5-7.8-28.3,0s-7.8,20.5,0,28.3"/>
<path id="Shape_1_" class="st0" d="M49.4,49.2c7.9-7.9,10.2-19.7,6-30S41.1,2.2,30,2.2S8.8,8.9,4.6,19.2s-1.9,22.1,6,30"/>
<path id="Shape_2_" class="st0" d="M40.4,36.6c3.4-5.2,2.5-12.2-2.2-16.3s-11.7-4.1-16.4,0s-5.7,11.1-2.2,16.3"/>
<circle id="Oval" class="st1" cx="30" cy="28.5" r="5"/>
<path id="Shape_3_" class="st1" d="M30,36c-4.1,0-7.5,3.4-7.5,7.5V51h3.8l0.6,8.8h6.3l0.6-8.8h3.8v-7.5C37.5,39.4,34.1,36,30,36z"/>
</svg>
