<?xml version="1.0" encoding="utf-8"?>
<!-- Generator: Adobe Illustrator 24.0.1, SVG Export Plug-In . SVG Version: 6.00 Build 0)  -->
<svg version="1.1" id="圖層_1" xmlns="http://www.w3.org/2000/svg" xmlns:xlink="http://www.w3.org/1999/xlink" x="0px" y="0px"
	 viewBox="0 0 842 653" style="enable-background:new 0 0 842 653;" xml:space="preserve">
<style type="text/css">
	.st0{opacity:0.486;fill-rule:evenodd;clip-rule:evenodd;fill:url(#Combined-Shape-Copy_1_);enable-background:new    ;}
	.st1{fill:#F5F5F5;}
	.st2{fill:#EBEBEB;}
	.st3{fill:#E0E0E0;}
	.st4{fill:url(#Path_8_);}
	.st5{fill:#FFFFFF;}
	.st6{fill:#808080;}
</style>
<title>3125758</title>
<desc>Created with Sketch.</desc>
<linearGradient id="Combined-Shape-Copy_1_" gradientUnits="userSpaceOnUse" x1="-580.0308" y1="602.3392" x2="-579.617" y2="601.8104" gradientTransform="matrix(842 0 0 -624 488621 376055.6875)">
	<stop  offset="0" style="stop-color:#E4FFD0"/>
	<stop  offset="0.118" style="stop-color:#FFFFFF"/>
	<stop  offset="0.4318" style="stop-color:#FFFFFF"/>
	<stop  offset="0.7233" style="stop-color:#ECFFEF"/>
	<stop  offset="1" style="stop-color:#E4FFD0"/>
</linearGradient>
<path id="Combined-Shape-Copy" class="st0" d="M548.9,36.3c16.9-14.4,40.9-18.8,62.8-15.1c21.9,3.8,42,14.9,59.4,28.7
	C726.8,93.8,758.2,166.5,752,237c-2.5,28.3-10.5,57.3-2.3,84.4c15.4,51.2,77.8,71.4,90,124.5c4.7,20.5,2.1,42.3-12.9,57.8
	c-14.5,15.1-34.3,26.4-48.2,41.6c-16.2,17.7-37,39.9-63,39.7c-26.8-0.2-53-6.1-79.6,0c-26.3,6-45.9,29.5-84.7,19.8
	c-88.6-22.2-94.9,19.1-149.5,19.1c-47.5,0-58.8-33.8-102.8-26.1c-28.2,4.9-43.2-3.2-62.7-21.7c-40-37.7-117.7-22.5-167.6-22.5
	c-103.1,0-71.1-52.3-27.2-72c25.5-11.5,54.9-4.8,73.6-31.7c19.2-27.4-1.1-69.1,15.3-93.5c25.9-38.5,79.4-23.1,78.8-92.2
	c-0.2-25.7-21.6-48.4-20-74.1c1.3-22.2,16.6-41.8,35.6-53.5c19-11.6,41.3-16.5,63.4-19.7c24.8-3.6,50-5.5,75.1-3.6
	c23.7,1.8,47.2,6.9,71,7.2c23.8,0.3,48.9-4.8,66.6-20.7C520.9,82.1,528.6,53.6,548.9,36.3z M765,188.8c-4.7-24.5,22.8-22.7,33.8-8.2
	c1,1.3,1.9,2.7,2.8,4.1c13.8,22,16.5,57.5,14.9,81.7c-1.1,17.3-5.7,45.1-26.4,49.1c-16.1,3.1-29.8-10.4-32.5-25.4
	c-2.6-14.5,2.3-29.2,6.8-43.3s8.8-29.1,5-43.4C768.2,198.5,766,193.8,765,188.8z M249.6,111.8c-22-18.8,26.6-33.9,41.2-23.3
	c1.6,1.1,3.2,2.6,3.9,5c0.9,3,0,6.8-1.7,9s-4,3.2-6.2,3.8C276.3,108.9,259.8,120.5,249.6,111.8z M511.2,35.2
	c5.1-18.7,26.8-39.1,47.3-34.5c2.9,0.6,5.8,2,7.4,4.4c3.9,5.7,1.9,10.9-2.5,15.4c-6.1,6.3-14.5,9.9-21.9,14.2
	c-11.9,6.9-19.4,17-23.9,30c-3.3,9.5-7.1,19.7-15.9,25.4c-3.5,2.3-9,3.1-11.1-0.5c-2.6-4.6,3.4-10.5,6-13.8
	c4.3-5.3,8.4-10.9,10.4-17.5C509.4,50.7,509.1,42.7,511.2,35.2z"/>
<g id="Group" transform="translate(460.000000, 44.000000)">
	<g id="Path">
		<path class="st1" d="M173.4,203.7c1.9,13.1-7.2,25.2-20.3,27.1c-13.1,1.9-25.3-7.2-27.2-20.2c-1.9-13.1,7.2-25.2,20.3-27.1
			C159.3,181.5,171.5,190.6,173.4,203.7z"/>
		<path class="st2" d="M167.7,204.5c1.4,10-5.5,19.2-15.5,20.7s-19.3-5.4-20.7-15.4s5.5-19.2,15.5-20.7S166.3,194.5,167.7,204.5z"/>
		<path class="st3" d="M167.6,203.9c-0.1,0-0.3-0.8-0.8-2.1s-1.3-3.2-2.9-5.2c-0.8-1-1.7-2-2.9-2.9c-1.1-0.9-2.5-1.8-4-2.5
			c-0.8-0.3-1.5-0.6-2.4-0.9c-0.8-0.2-1.7-0.4-2.6-0.5c-0.9-0.1-1.8-0.2-2.7-0.2s-1.9,0.1-2.8,0.3c-0.9,0.2-1.9,0.4-2.7,0.7
			c-0.9,0.3-1.7,0.7-2.5,1.1c-0.8,0.4-1.5,0.9-2.2,1.4s-1.3,1.1-1.9,1.7c-1.2,1.2-2.1,2.4-2.9,3.7c-0.8,1.3-1.3,2.6-1.7,3.8
			c-0.8,2.4-0.9,4.5-0.9,5.9s0.1,2.2,0,2.2s-0.3-0.8-0.5-2.2c-0.2-1.5-0.2-3.6,0.5-6.2c0.3-1.3,0.9-2.7,1.6-4c0.8-1.4,1.8-2.8,3-4
			c0.6-0.6,1.3-1.2,2.1-1.8c0.7-0.6,1.5-1.1,2.4-1.6s1.8-0.9,2.7-1.2s1.9-0.6,2.9-0.8s2-0.3,3-0.3s2,0.1,2.9,0.2
			c1,0.1,1.9,0.4,2.8,0.6c0.9,0.3,1.7,0.6,2.5,1c1.6,0.8,3,1.7,4.2,2.8c1.2,1,2.1,2.1,2.9,3.2c1.5,2.2,2.3,4.2,2.6,5.7
			C167.7,203.1,167.7,203.9,167.6,203.9z"/>
	</g>
	<path id="Shape" class="st3" d="M153.2,217.6l0.5,3.2l-2.8,0.4l-0.5-3.1c-2.8,0.3-5.6-0.2-7.3-1.1l1-3.7c1.6,0.8,3.7,1.2,5.8,1.1
		l-0.8-4.7c-3.2-0.3-6.9-0.7-7.5-4.8c-0.5-3,1.3-5.9,5.6-7.1l-0.5-3.1l2.8-0.5l0.5,3.1c2.1-0.2,4.3,0.1,6,0.8l-0.9,3.7
		c-1.6-0.6-3.1-0.8-4.5-0.8l0.8,4.8c3.2,0.2,6.8,0.7,7.5,4.7C159.3,213.5,157.6,216.4,153.2,217.6z M148.4,205.7l-0.6-4
		c-1.4,0.6-1.9,1.5-1.7,2.4C146.2,205.1,147.1,205.5,148.4,205.7z M154.4,211.7c-0.2-1-1.1-1.4-2.3-1.6l0.6,3.9
		C154,213.4,154.5,212.6,154.4,211.7z"/>
</g>
<g id="Group_1_" transform="translate(350.000000, 33.000000)">
	<g id="Path_1_">
		<path class="st1" d="M208.6,218.9c3.3,22.7-12.5,43.8-35.2,47.1s-43.9-12.4-47.2-35.1c-3.3-22.7,12.5-43.8,35.2-47.1
			S205.3,196.2,208.6,218.9z"/>
		<path class="st2" d="M198.8,220.4c2.5,17.3-9.5,33.4-26.9,35.9c-17.4,2.5-33.4-9.5-36-26.8c-2.5-17.3,9.5-33.4,26.9-35.9
			C180.2,191.1,196.3,203.1,198.8,220.4z"/>
		<path class="st3" d="M198.6,219.4c-0.2,0-0.5-1.3-1.4-3.7c-0.9-2.3-2.3-5.6-5-9.1c-1.4-1.7-3-3.5-5-5.1s-4.3-3.1-6.9-4.3
			c-1.3-0.6-2.7-1.1-4.1-1.5c-1.4-0.4-2.9-0.8-4.5-0.9c-1.6-0.2-3.1-0.3-4.8-0.3c-1.6,0-3.2,0.2-4.9,0.5c-1.6,0.3-3.2,0.7-4.7,1.2
			s-3,1.2-4.4,1.9s-2.7,1.6-3.9,2.4c-1.2,0.9-2.3,1.8-3.4,2.9c-2.1,2-3.7,4.2-5,6.4s-2.2,4.4-2.9,6.5c-1.3,4.2-1.6,7.8-1.6,10.3
			s0.2,3.9,0,3.9c-0.1,0-0.6-1.3-0.9-3.9c-0.3-2.5-0.3-6.3,0.9-10.8c0.6-2.2,1.5-4.6,2.8-7s3-4.8,5.2-7c1.1-1.1,2.2-2.2,3.6-3.1
			c1.3-1,2.7-1.9,4.2-2.7s3-1.5,4.7-2.1c1.6-0.6,3.4-1,5.1-1.3c1.8-0.3,3.5-0.5,5.3-0.5c1.7,0,3.5,0.1,5.1,0.3
			c1.7,0.2,3.3,0.6,4.8,1.1c1.6,0.5,3,1.1,4.4,1.7c2.8,1.3,5.2,3,7.3,4.8s3.7,3.7,5.1,5.6c2.7,3.8,3.9,7.4,4.5,9.8
			C198.8,217.9,198.8,219.4,198.6,219.4z"/>
	</g>
	<path id="Shape_1_" class="st3" d="M173.7,243.1l0.9,5.5l-4.9,0.8l-0.8-5.3c-4.9,0.5-9.7-0.3-12.8-2l1.7-6.4
		c2.7,1.4,6.4,2.2,10,1.9l-1.3-8.1c-5.6-0.5-11.9-1.3-13.1-8.3c-0.8-5.2,2.2-10.2,9.8-12.3l-0.9-5.4l4.9-0.8l0.9,5.3
		c3.7-0.3,7.4,0.1,10.4,1.4l-1.5,6.4c-2.7-1-5.4-1.4-7.9-1.3l1.3,8.3c5.6,0.4,11.9,1.2,12.9,8.1C184.2,236,181.2,241,173.7,243.1z
		 M165.3,222.4l-1.1-6.9c-2.5,1-3.3,2.6-3,4.2C161.5,221.3,163.1,222,165.3,222.4z M175.6,232.8c-0.3-1.7-1.8-2.4-4.1-2.8l1.1,6.7
		C175,235.8,175.9,234.3,175.6,232.8z"/>
</g>
<g id="Group_2_" transform="translate(17.000000, 190.000000)">
	<g id="Path_2_">
		<path class="st1" d="M173.4,203.8c1.9,13.1-7.2,25.2-20.3,27.1c-13.1,1.9-25.3-7.2-27.2-20.2c-1.9-13.1,7.2-25.2,20.3-27.1
			C159.3,181.6,171.5,190.7,173.4,203.8z"/>
		<path class="st2" d="M167.7,204.6c1.4,10-5.5,19.2-15.5,20.7s-19.3-5.4-20.7-15.4s5.5-19.2,15.5-20.7S166.3,194.6,167.7,204.6z"/>
		<path class="st3" d="M167.6,204c-0.1,0-0.3-0.8-0.8-2.1s-1.3-3.2-2.9-5.2c-0.8-1-1.7-2-2.9-2.9s-2.5-1.8-4-2.5
			c-0.8-0.3-1.6-0.6-2.4-0.9c-0.8-0.2-1.7-0.4-2.6-0.6c-0.9-0.1-1.8-0.2-2.7-0.2s-1.9,0.1-2.8,0.3c-0.9,0.2-1.9,0.4-2.7,0.7
			c-0.9,0.3-1.7,0.7-2.5,1.1c-0.8,0.4-1.5,0.9-2.2,1.4s-1.3,1.1-1.9,1.7c-1.2,1.2-2.1,2.4-2.9,3.7c-0.8,1.3-1.3,2.6-1.7,3.8
			c-0.8,2.4-0.9,4.5-0.9,5.9s0.1,2.2,0,2.2s-0.4-0.8-0.5-2.2c-0.2-1.5-0.2-3.6,0.5-6.2c0.4-1.3,0.9-2.7,1.6-4c0.8-1.4,1.8-2.8,3-4
			c0.6-0.6,1.3-1.2,2.1-1.8c0.7-0.6,1.5-1.1,2.4-1.6s1.8-0.9,2.7-1.2c1-0.3,1.9-0.6,2.9-0.8s2-0.3,3-0.3s2,0.1,3,0.2
			c1,0.1,1.9,0.4,2.8,0.6c0.9,0.3,1.7,0.6,2.5,1c1.6,0.8,3,1.7,4.2,2.8c1.2,1,2.2,2.2,2.9,3.2c1.5,2.2,2.3,4.2,2.6,5.7
			C167.7,203.2,167.7,204,167.6,204z"/>
	</g>
	<path id="Shape_2_" class="st3" d="M153.2,217.7l0.5,3.2l-2.8,0.4l-0.5-3.1c-2.8,0.3-5.6-0.2-7.4-1.1l1-3.7
		c1.6,0.8,3.7,1.2,5.8,1.1l-0.8-4.7c-3.2-0.3-6.9-0.7-7.5-4.8c-0.5-3,1.3-5.9,5.6-7.1l-0.5-3.1l2.8-0.4l0.5,3.1
		c2.1-0.2,4.3,0.1,6,0.8l-0.8,3.7c-1.6-0.6-3.1-0.8-4.5-0.8l0.8,4.8c3.2,0.2,6.8,0.7,7.5,4.7C159.3,213.6,157.6,216.5,153.2,217.7z
		 M148.4,205.8l-0.6-4c-1.4,0.6-1.9,1.5-1.7,2.4C146.2,205.1,147.1,205.6,148.4,205.8z M154.4,211.7c-0.2-1-1.1-1.4-2.3-1.6l0.6,3.9
		C154,213.5,154.5,212.6,154.4,211.7z"/>
</g>
<g id="Group_3_" transform="translate(0.000000, 129.000000)">
	<g id="Path_3_">
		<path class="st1" d="M149.3,211.9c-7.3,4.6-16.9,2.4-21.5-4.9c-4.6-7.3-2.4-16.9,4.8-21.5c7.2-4.6,16.9-2.4,21.5,4.9
			C158.7,197.7,156.5,207.4,149.3,211.9z"/>
		<path class="st2" d="M147.3,208.8c-5.5,3.5-12.9,1.8-16.4-3.7c-3.5-5.6-1.9-12.9,3.7-16.4c5.5-3.5,12.9-1.8,16.4,3.7
			C154.5,198,152.8,205.3,147.3,208.8z"/>
		<path class="st3" d="M147.6,208.6c0-0.1,0.4-0.4,1-1c0.7-0.7,1.6-1.7,2.3-3.1c0.4-0.7,0.7-1.6,1-2.5c0.2-0.9,0.4-1.9,0.4-3
			c0-0.5,0-1.1-0.1-1.7c-0.1-0.6-0.2-1.1-0.4-1.7s-0.4-1.1-0.6-1.7c-0.3-0.6-0.6-1.1-0.9-1.6c-0.4-0.5-0.7-1-1.1-1.4
			c-0.4-0.4-0.9-0.8-1.3-1.2c-0.5-0.4-0.9-0.7-1.4-1s-1-0.5-1.5-0.7c-1-0.4-2-0.6-3-0.8c-1-0.1-1.9-0.1-2.7,0
			c-1.6,0.2-2.9,0.7-3.8,1c-0.8,0.4-1.3,0.6-1.3,0.6s0.4-0.4,1.2-0.9s2.1-1.1,3.8-1.4c0.9-0.1,1.8-0.2,2.8-0.1
			c1,0.1,2.1,0.3,3.2,0.7c0.5,0.2,1.1,0.4,1.6,0.7s1.1,0.6,1.6,1s1,0.8,1.4,1.3c0.5,0.5,0.9,1,1.2,1.6c0.4,0.6,0.7,1.1,1,1.7
			c0.3,0.6,0.5,1.2,0.7,1.8s0.3,1.2,0.4,1.8c0.1,0.6,0.1,1.2,0.1,1.8c0,1.2-0.2,2.2-0.5,3.2s-0.7,1.9-1.1,2.6
			c-0.9,1.5-1.9,2.5-2.7,3.1C148.1,208.4,147.6,208.6,147.6,208.6z"/>
	</g>
	<path id="Shape_3_" class="st3" d="M135.6,203.7l-1.7,1.1l-1-1.6l1.7-1.1c-0.9-1.6-1.4-3.4-1.3-4.7l2.4-0.4
		c-0.1,1.2,0.2,2.5,0.9,3.7l2.6-1.7c-0.7-2-1.4-4.3,0.8-5.7c1.6-1.1,3.8-0.8,5.7,1.5l1.7-1.1l1,1.6l-1.7,1.1
		c0.7,1.2,1.1,2.6,1.1,3.8l-2.4,0.5c-0.1-1.1-0.3-2.1-0.7-2.9l-2.6,1.7c0.7,2,1.4,4.2-0.8,5.7C139.7,206.2,137.5,205.9,135.6,203.7z
		 M141.5,197.6l2.2-1.4c-0.7-0.7-1.4-0.7-1.9-0.4C141.2,196.2,141.3,196.8,141.5,197.6z M139.5,202.8c0.5-0.4,0.5-1,0.3-1.8
		l-2.1,1.4C138.4,203,139,203.1,139.5,202.8z"/>
</g>
<g id="Group_4_" transform="translate(419.000000, 0.000000)">
	<g id="Path_4_">
		<path class="st1" d="M149,212.1c-7.3,4.6-16.9,2.4-21.5-4.9c-4.6-7.3-2.4-16.9,4.9-21.5c7.3-4.6,16.9-2.4,21.5,4.9
			C158.4,197.9,156.2,207.6,149,212.1z"/>
		<path class="st2" d="M147,209c-5.5,3.5-12.9,1.8-16.4-3.7c-3.5-5.6-1.9-12.9,3.7-16.4c5.5-3.5,12.9-1.8,16.4,3.7
			C154.2,198.2,152.5,205.5,147,209z"/>
		<path class="st3" d="M147.3,208.8c0-0.1,0.4-0.4,1-1c0.7-0.7,1.6-1.7,2.4-3.1c0.4-0.7,0.7-1.6,1-2.5c0.2-0.9,0.4-1.9,0.4-3
			c0-0.5,0-1.1-0.1-1.6c-0.1-0.6-0.2-1.1-0.4-1.7c-0.2-0.6-0.4-1.1-0.6-1.7c-0.3-0.6-0.6-1.1-0.9-1.6c-0.3-0.5-0.7-1-1.1-1.4
			c-0.4-0.4-0.9-0.8-1.3-1.2c-0.5-0.4-0.9-0.7-1.4-1s-1-0.5-1.5-0.7c-1-0.4-2-0.6-3-0.8c-1-0.1-1.9-0.1-2.7,0
			c-1.6,0.2-2.9,0.6-3.8,1c-0.9,0.4-1.3,0.6-1.3,0.6s0.4-0.4,1.2-0.9s2.1-1.1,3.8-1.4c0.9-0.1,1.8-0.2,2.8-0.1
			c1,0.1,2.1,0.3,3.2,0.7c0.5,0.2,1.1,0.4,1.6,0.7s1.1,0.6,1.5,1c0.5,0.4,1,0.8,1.4,1.3s0.9,1,1.2,1.6c0.4,0.6,0.7,1.1,1,1.7
			c0.3,0.6,0.5,1.2,0.7,1.8s0.3,1.2,0.4,1.8c0.1,0.6,0.1,1.2,0.1,1.8c0,1.2-0.2,2.2-0.5,3.2s-0.7,1.8-1.1,2.6
			c-0.9,1.5-1.9,2.5-2.7,3.1C147.8,208.6,147.3,208.8,147.3,208.8z"/>
	</g>
	<path id="Shape_4_" class="st3" d="M135.4,203.9l-1.7,1.1l-1-1.6l1.7-1.1c-0.9-1.6-1.4-3.4-1.3-4.7l2.4-0.4
		c-0.1,1.2,0.2,2.5,0.9,3.7l2.6-1.7c-0.7-2-1.4-4.3,0.8-5.7c1.6-1.1,3.8-0.8,5.7,1.5l1.7-1.1l1,1.6l-1.7,1.1
		c0.7,1.2,1.1,2.6,1.1,3.8l-2.4,0.5c-0.1-1.1-0.3-2.1-0.7-2.9l-2.6,1.7c0.7,2,1.4,4.2-0.8,5.7C139.4,206.4,137.2,206.1,135.4,203.9z
		 M141.2,197.9l2.2-1.4c-0.7-0.7-1.4-0.7-1.9-0.4C141,196.4,141,197,141.2,197.9z M139.2,202.9c0.5-0.3,0.5-1,0.3-1.8l-2.1,1.4
		C138.1,203.2,138.7,203.3,139.2,202.9z"/>
</g>
<linearGradient id="Path_8_" gradientUnits="userSpaceOnUse" x1="-578.6436" y1="602.5931" x2="-579.6526" y2="601.4819" gradientTransform="matrix(404.48 0 0 -336.28 234726.2969 202918.4062)">
	<stop  offset="0" style="stop-color:#7EE63A"/>
	<stop  offset="0" style="stop-color:#7EE63A"/>
	<stop  offset="0.381" style="stop-color:#6AB511"/>
	<stop  offset="0.8088" style="stop-color:#38A440"/>
	<stop  offset="1" style="stop-color:#007857"/>
</linearGradient>
<path id="Path_5_" class="st4" d="M697,287.6H316.3c-6.6,0-11.9,5.3-11.9,11.9v268.9c0,6.6,5.3,11.9,11.9,11.9h146.1
	c0,0,9.3,28.7-19.5,43.6h136.6c0,0-32.5-11.2-24.2-43.6H697c6.6,0,11.9-5.3,11.9-11.9V299.5C708.9,293,703.6,287.6,697,287.6z"/>
<path id="Path_6_" class="st5" d="M511.7,552c5.2,7.4-2.9,15.5-10.3,10.3c-0.2-0.2-0.5-0.4-0.6-0.6c-5.2-7.4,2.9-15.5,10.3-10.3
	C511.3,551.6,511.5,551.8,511.7,552z"/>
<path id="Path_7_" class="st5" d="M702.3,531.1H311V302.3c0-5.4,4.3-9.7,9.7-9.7h372c5.4,0,9.7,4.3,9.7,9.7v228.8H702.3z"/>
<path id="Path_9_" class="st6" d="M330,499.8c-0.3,0-0.5-40.9-0.5-91.3s0.2-91.3,0.5-91.3s0.5,40.9,0.5,91.3S330.3,499.8,330,499.8z
	"/>
<path id="Path_10_" class="st6" d="M682,499.8c0,0.3-77,0.5-172,0.5s-172-0.2-172-0.5s77-0.5,172-0.5C605,499.2,682,499.5,682,499.8
	z"/>
<path id="Path_11_" class="st6" d="M362.4,511c0,0.3-4.3,0.5-9.5,0.5c-5.3,0-9.5-0.2-9.5-0.5s4.3-0.5,9.5-0.5
	C358.2,510.5,362.4,510.8,362.4,511z"/>
<path id="Path_12_" class="st6" d="M394,511.6c0,0.3-5.1,0.5-11.4,0.5s-11.4-0.2-11.4-0.5s5.1-0.5,11.4-0.5
	C388.9,511.1,394,511.3,394,511.6z"/>
<path id="Path_13_" class="st6" d="M421,511.6c0,0.3-5.1,0.5-11.4,0.5s-11.4-0.2-11.4-0.5s5.1-0.5,11.4-0.5
	C415.9,511.1,421,511.3,421,511.6z"/>
<path id="Path_14_" class="st6" d="M447.9,511.6c0,0.3-5.1,0.5-11.4,0.5s-11.4-0.2-11.4-0.5s5.1-0.5,11.4-0.5
	C442.8,511.1,447.9,511.3,447.9,511.6z"/>
<path id="Path_15_" class="st6" d="M474.9,511.6c0,0.3-5.1,0.5-11.4,0.5s-11.4-0.2-11.4-0.5s5.1-0.5,11.4-0.5
	C469.8,511.1,474.9,511.3,474.9,511.6z"/>
<path id="Path_16_" class="st6" d="M501.8,511.6c0,0.3-5.1,0.5-11.4,0.5s-11.4-0.2-11.4-0.5s5.1-0.5,11.4-0.5
	C496.7,511.1,501.8,511.3,501.8,511.6z"/>
<path id="Path_17_" class="st6" d="M528.8,511.6c0,0.3-5.1,0.5-11.4,0.5c-6.3,0-11.4-0.2-11.4-0.5s5.1-0.5,11.4-0.5
	C523.7,511.1,528.8,511.3,528.8,511.6z"/>
<path id="Path_18_" class="st6" d="M555.7,511.6c0,0.3-5.1,0.5-11.4,0.5c-6.3,0-11.4-0.2-11.4-0.5s5.1-0.5,11.4-0.5
	C550.6,511.1,555.7,511.3,555.7,511.6z"/>
<path id="Path_19_" class="st6" d="M582.7,511.6c0,0.3-5.1,0.5-11.4,0.5c-6.3,0-11.4-0.2-11.4-0.5s5.1-0.5,11.4-0.5
	C577.6,511.1,582.7,511.3,582.7,511.6z"/>
<path id="Path_20_" class="st6" d="M609.6,511.6c0,0.3-5.1,0.5-11.4,0.5c-6.3,0-11.4-0.2-11.4-0.5s5.1-0.5,11.4-0.5
	C604.5,511.1,609.6,511.3,609.6,511.6z"/>
<path id="Path_21_" class="st6" d="M634.7,511.6c0,0.3-5.1,0.5-11.4,0.5c-6.3,0-11.4-0.2-11.4-0.5s5.1-0.5,11.4-0.5
	C629.6,511.1,634.7,511.3,634.7,511.6z"/>
<path id="Path_22_" class="st6" d="M659.8,511.6c0,0.3-5.1,0.5-11.4,0.5c-6.3,0-11.4-0.2-11.4-0.5s5.1-0.5,11.4-0.5
	C654.7,511.1,659.8,511.4,659.8,511.6z"/>
<path id="Path_23_" class="st6" d="M684.8,511.6c0,0.3-5.1,0.5-11.4,0.5c-6.3,0-11.4-0.2-11.4-0.5s5.1-0.5,11.4-0.5
	C679.7,511.1,684.8,511.4,684.8,511.6z"/>
</svg>
