<?xml version="1.0" encoding="utf-8"?>
<!-- Generator: Adobe Illustrator 24.0.1, SVG Export Plug-In . SVG Version: 6.00 Build 0)  -->
<svg version="1.1" id="圖層_1" xmlns="http://www.w3.org/2000/svg" xmlns:xlink="http://www.w3.org/1999/xlink" x="0px" y="0px"
	 viewBox="0 0 278.1 208.8" style="enable-background:new 0 0 278.1 208.8;" xml:space="preserve">
<style type="text/css">
	.st0{fill:#FFFFFF;}
	.st1{fill:#31A043;}
	.st2{fill:#808080;}
	.st3{fill-rule:evenodd;clip-rule:evenodd;fill:url(#Path_1_);}
	.st4{fill:#F1FF00;stroke:#F1FF00;}
	.st5{fill:#848C00;stroke:#848C00;stroke-width:2;}
	.st6{fill:url(#Path_2_);}
</style>
<rect id="Rectangle_14_" x="18.9" y="4" class="st0" width="257.6" height="200.5"/>
<path id="Path_26_" class="st1" d="M276.5,204.5c0-2-0.1-79.5-0.2-200.5l0.2,0.2c-73.3,0-162,0-257.6,0.1l0,0L19.2,4
	c0,72.3,0,140.6,0,200.5l-0.3-0.3C171.8,204.4,274.2,204.5,276.5,204.5c-2.3,0-104.7,0.1-257.6,0.3h-0.3v-0.3
	c0-59.9,0-128.2,0-200.5V3.7h0.3l0,0c95.6,0,184.3,0,257.6,0.1h0.2V4C276.6,125,276.5,202.5,276.5,204.5z"/>
<rect id="Rectangle_16_" x="31.4" y="35.8" class="st2" width="20.6" height="2.3"/>
<rect id="Rectangle_24_" x="55.2" y="146.6" class="st2" width="7.6" height="2.2"/>
<rect id="Rectangle_25_" x="55.2" y="91.9" class="st2" width="7.6" height="2.2"/>
<rect id="Rectangle_26_" x="55.2" y="64.4" class="st2" width="7.6" height="2.2"/>
<rect id="Rectangle_27_" x="55.6" y="119.3" class="st2" width="7.6" height="2.2"/>
<path id="Path_27_" class="st2" d="M249.8,177.9c0,0-0.3,0-0.8,0c-0.6,0-1.3,0-2.4,0c-2.1,0-5.2,0-9.1,0.1c-8,0-19.4,0.1-33.6,0.1
	c-28.4,0-67.6,0.1-110.9,0.1c-9,0-17.8,0-26.3,0h-0.3v-0.3c0-37.1,0.1-69.7,0.1-93.1c0-11.7,0.1-21,0.1-27.5c0-3.2,0-5.7,0-7.4
	c0-0.8,0-1.5,0-1.9s0-0.6,0-0.6s0,0.2,0,0.6c0,0.5,0,1.1,0,1.9c0,1.7,0,4.2,0,7.4c0,6.5,0,15.8,0.1,27.5c0,23.4,0,56,0.1,93.1
	l-0.3-0.3c8.5,0,17.3,0,26.3,0c43.3,0,82.5,0.1,110.9,0.1c14.2,0,25.7,0.1,33.6,0.1c4,0,7,0,9.1,0c1,0,1.8,0,2.4,0
	C249.6,177.8,249.8,177.9,249.8,177.9z"/>
<path id="Path_28_" class="st2" d="M252,120.3c0,0.1-39.8,0.3-89,0.3c-49.1,0-89-0.1-89-0.3c0-0.1,39.8-0.3,89-0.3
	C212.1,120.1,252,120.2,252,120.3z"/>
<path id="Path_29_" class="st2" d="M252,93c0,0.1-39.8,0.3-89,0.3c-49.1,0-89-0.1-89-0.3c0-0.1,39.8-0.3,89-0.3
	C212.1,92.7,252,92.8,252,93z"/>
<path id="Path_30_" class="st2" d="M252,65.5c0,0.1-39.8,0.3-89,0.3c-49.1,0-89-0.1-89-0.3c0-0.1,39.8-0.3,89-0.3
	C212.1,65.2,252,65.3,252,65.5z"/>
<path id="Path_31_" class="st2" d="M252,147.7c0,0.1-39.8,0.3-89,0.3c-49.1,0-89-0.1-89-0.3c0-0.1,39.8-0.3,89-0.3
	C212.1,147.4,252,147.6,252,147.7z"/>
<linearGradient id="Path_1_" gradientUnits="userSpaceOnUse" x1="-862.7107" y1="379.646" x2="-862.7107" y2="377.9565" gradientTransform="matrix(173.98 0 0 -122.68 150257.3125 46596.7578)">
	<stop  offset="0" style="stop-color:#7EE63A"/>
	<stop  offset="0" style="stop-color:#7EE63A"/>
	<stop  offset="0.381" style="stop-color:#6AB511"/>
	<stop  offset="0.8088" style="stop-color:#38A440"/>
	<stop  offset="1" style="stop-color:#007857"/>
</linearGradient>
<path id="Path_32_" class="st3" d="M75.9,172c0-4.6,0-24.3,0-24.3L91,124.2l10.3,7.9l21.1-32.7l12.4,8.8L152.1,78l14,11.4l21.1-40.1
	l22.7,44.8l18.4-22.4l21.6-6.2V172L75.9,172L75.9,172z"/>
<path id="Path_33_" class="st4" d="M252,56.9c0,0-0.1,0-0.4,0s-0.6,0-1.1,0c-1,0-2.5,0-4.4,0c-3.9,0-9.5,0-16.6,0.1l0.1-0.1
	c-4.8,6.3-10.9,14.2-17.8,23.2l-0.1,0.1h-0.1c-12.9,0-28.1,0-44.5,0l0.2-0.1c-5.9,9.8-12.2,20.3-18.7,31.1
	c-6.4,10.6-12.5,20.9-18.4,30.5L130,142l-0.2-0.3c-8.8-12.1-16.9-23.3-24.1-33.1h0.4c-9.1,14.3-16.7,26-22,34.3
	c-2.6,4.1-4.7,7.3-6.1,9.5c-0.7,1.1-1.2,1.9-1.6,2.5s-0.6,0.8-0.6,0.8s0.2-0.3,0.5-0.9c0.4-0.6,0.9-1.4,1.6-2.5
	c1.4-2.2,3.4-5.4,6-9.5c5.2-8.2,12.7-20,21.8-34.4l0.2-0.3l0.2,0.2c7.2,9.9,15.4,21,24.2,33.1h-0.4c5.8-9.7,12-19.9,18.4-30.5
	c6.5-10.9,12.9-21.4,18.7-31.1l0.1-0.1h0.1c16.5,0,31.6,0,44.5,0l-0.2,0.1c7-9,13-16.9,17.9-23.1v-0.1h0.1c7.1,0,12.7,0,16.6,0.1
	c1.9,0,3.4,0,4.4,0c0.5,0,0.9,0,1.1,0C251.8,56.9,252,56.9,252,56.9z"/>
<path id="Path_34_" class="st5" d="M113.2,116.4c0,0.9-0.8,1.6-1.7,1.6c-1,0-1.7-0.7-1.7-1.6s0.8-1.6,1.7-1.6
	C112.5,114.7,113.2,115.5,113.2,116.4z"/>
<path id="Path_35_" class="st5" d="M164.6,87.2c0,0.9-0.8,1.6-1.7,1.6c-0.9,0-1.7-0.7-1.7-1.6s0.8-1.6,1.7-1.6
	S164.6,86.3,164.6,87.2z"/>
<ellipse id="Oval" class="st5" cx="202.8" cy="80.1" rx="1.7" ry="1.6"/>
<g id="Speech_Bubble" transform="translate(209.000000, 304.000000)">
	
		<linearGradient id="Path_2_" gradientUnits="userSpaceOnUse" x1="-1480.1561" y1="74.5184" x2="-1480.1561" y2="73.5175" gradientTransform="matrix(49.4 0 0 -47.86 72936.7266 3351.0547)">
		<stop  offset="0" style="stop-color:#DBBD6F"/>
		<stop  offset="1" style="stop-color:#B4883C"/>
	</linearGradient>
	<path id="Path_54_" class="st6" d="M-158.3-169.9l-5.1-9c2.3-3.6,3.6-7.9,3.6-12.5c0-13.2-10.7-24-23.9-24c-13.2,0-24,10.8-24,24
		s10.7,23.9,23.9,23.9c5.5,0,10.6-1.9,14.6-5l0,0L-158.3-169.9z"/>
	<path id="Shape_5_" class="st0" d="M-192.1-194.3c0-2.2,1.3-3.5,3.1-3.5c1.8,0,3.1,1.4,3.1,3.5c0,2.1-1.2,3.5-3,3.5
		C-190.8-190.8-192.1-192.2-192.1-194.3z M-187.6-194.3c0-1.4-0.5-2-1.3-2c-0.8,0-1.3,0.7-1.3,2c0,1.4,0.5,2,1.3,2
		C-188.1-192.3-187.6-193-187.6-194.3z M-181.4-197.7h2.1l-8.6,12.8h-2.1L-181.4-197.7z M-183.5-188.3c0-2.2,1.3-3.5,3.1-3.5
		s3.2,1.4,3.2,3.5c0,2.2-1.3,3.5-3.2,3.5C-182.2-184.8-183.5-186.1-183.5-188.3z M-179-188.3c0-1.4-0.5-2-1.3-2s-1.3,0.7-1.3,2
		c0,1.4,0.5,2,1.3,2S-179-186.9-179-188.3z"/>
</g>
</svg>
