<svg xmlns="http://www.w3.org/2000/svg" width="485" height="385" viewBox="0 0 485 385">
    <defs>
        <linearGradient id="prefix__a" x1="94.998%" x2="-5.91%" y1="-.035%" y2="111.093%">
            <stop offset="0%" stop-color="#7EE63A"/>
            <stop offset="0%" stop-color="#7EE63A"/>
            <stop offset="38.099%" stop-color="#6AB511"/>
            <stop offset="80.877%" stop-color="#38A440"/>
            <stop offset="100%" stop-color="#007857"/>
        </linearGradient>
    </defs>
    <g fill="none" fill-rule="evenodd">
        <path fill="#F5FFEC" d="M315.775 20.899c9.75-8.274 23.537-10.822 36.15-8.662 12.613 2.16 24.156 8.6 34.2 16.515 32.017 25.234 50.114 67.062 46.566 107.628-1.423 16.263-6.031 32.947-1.33 48.583 8.86 29.455 44.732 41.075 51.803 71.604 2.727 11.773 1.191 24.32-7.406 33.254-8.347 8.676-19.715 15.183-27.721 23.943-9.297 10.172-21.292 22.966-36.255 22.85-15.397-.12-30.499-3.5-45.808 0-15.115 3.455-26.392 16.992-48.751 11.383-50.97-12.787-54.61 10.983-86.027 10.983-27.309 0-33.81-19.419-59.126-15.034-16.212 2.807-24.833-1.855-36.084-12.466-23.004-21.695-67.729-12.967-96.447-12.967-59.31 0-40.898-30.066-15.619-41.414 14.673-6.587 31.567-2.784 42.355-18.226 11.02-15.774-.649-39.735 8.803-53.79 14.906-22.165 45.656-13.266 45.33-53.062-.12-14.807-12.404-27.83-11.51-42.611.775-12.778 9.573-24.055 20.5-30.756 10.927-6.702 23.785-9.484 36.473-11.346 14.286-2.095 28.78-3.163 43.18-2.09 13.657 1.018 27.162 3.956 40.856 4.144 13.694.189 28.13-2.756 38.32-11.892 11.416-10.237 15.855-26.65 27.548-36.571zm124.343 87.719c-2.69-14.08 13.137-13.04 19.442-4.73.573.755 1.117 1.546 1.635 2.37 7.963 12.679 9.498 33.081 8.579 47.002-.658 9.968-3.27 25.937-15.194 28.268-9.262 1.81-17.149-6.002-18.677-14.633-1.48-8.364 1.33-16.819 3.933-24.904 2.604-8.088 5.055-16.747 2.876-24.96-.752-2.838-2.044-5.528-2.594-8.413zM143.606 64.32c-12.646-10.817 15.284-19.53 23.687-13.384.902.66 1.815 1.517 2.215 2.864.52 1.753-.02 3.887-.994 5.164-.975 1.278-2.291 1.848-3.584 2.171-5.996 1.498-15.45 8.21-21.324 3.185zm150.472-44.082c2.955-10.731 15.439-22.476 27.23-19.872 1.654.365 3.317 1.123 4.27 2.528 2.222 3.277 1.081 6.265-1.442 8.871-3.489 3.605-8.342 5.668-12.611 8.153-6.857 3.992-11.172 9.796-13.733 17.286-1.874 5.481-4.07 11.307-9.148 14.597-2.008 1.301-5.194 1.792-6.379-.292-1.515-2.667 1.966-6.065 3.475-7.934 2.456-3.043 4.817-6.258 5.974-10.053 1.321-4.332 1.168-8.94 2.364-13.284z" opacity=".486" transform="translate(0 1)"/>
        <g fill-rule="nonzero">
            <path fill="#FFF671" d="M27.827 11.943c1.093 7.525-4.137 14.515-11.679 15.613C8.606 28.656 1.6 23.437.506 15.912-.587 8.388 4.643 1.398 12.185.3c7.542-1.093 14.549 4.12 15.642 11.644z" transform="translate(0 1) translate(81.69 214.583)"/>
            <path fill="#FFE500" d="M24.576 12.415c.834 5.735-3.152 11.063-8.9 11.897-5.747.834-11.085-3.136-11.92-8.871-.834-5.736 3.153-11.063 8.9-11.897 5.747-.834 11.086 3.135 11.92 8.87z" transform="translate(0 1) translate(81.69 214.583)"/>
            <path fill="#EFD800" d="M24.525 12.093c-.064.011-.173-.438-.455-1.214-.288-.765-.77-1.87-1.663-3.015-.448-.57-.995-1.15-1.65-1.691-.662-.535-1.427-1.03-2.302-1.421-.431-.196-.891-.374-1.369-.506-.477-.138-.978-.253-1.49-.317-.512-.069-1.041-.103-1.57-.092-.535.012-1.076.063-1.617.156-.54.097-1.064.235-1.57.408-.507.173-.99.391-1.445.627-.46.236-.885.518-1.288.811-.403.294-.771.616-1.11.95-.685.667-1.232 1.397-1.669 2.122-.431.73-.748 1.467-.972 2.158-.443 1.386-.518 2.583-.524 3.405 0 .823.052 1.283-.011 1.295-.046.011-.201-.438-.3-1.277-.091-.84-.109-2.095.288-3.579.202-.742.5-1.53.938-2.324.437-.788 1.007-1.588 1.726-2.318.357-.363.748-.72 1.18-1.042.425-.322.885-.627 1.38-.891.495-.265 1.013-.5 1.553-.69.547-.19 1.11-.34 1.692-.444.58-.097 1.167-.155 1.743-.166.575-.012 1.145.034 1.697.109s1.087.207 1.6.362c.511.156 1 .351 1.46.57.927.437 1.732.995 2.417 1.582.678.598 1.236 1.237 1.68 1.864.885 1.26 1.305 2.445 1.507 3.262.184.828.19 1.294.144 1.306z" transform="translate(0 1) translate(81.69 214.583)"/>
            <path fill="#FFF7A3" d="M16.246 19.968l.288 1.812-1.617.26-.282-1.761c-1.616.161-3.227-.098-4.228-.65l.575-2.111c.903.466 2.135.719 3.32.644l-.432-2.698c-1.864-.15-3.964-.426-4.332-2.739-.276-1.714.737-3.382 3.24-4.078l-.288-1.795 1.616-.26.282 1.761c1.225-.098 2.456.035 3.434.46l-.489 2.117c-.897-.333-1.783-.477-2.606-.442l.438 2.744c1.858.132 3.929.414 4.291 2.692.27 1.68-.725 3.33-3.21 4.044zm-2.761-6.88l-.368-2.296c-.823.328-1.088.852-1.001 1.387.092.564.627.794 1.369.909zm3.405 3.446c-.092-.564-.61-.8-1.34-.926l.357 2.232c.776-.311 1.064-.788.983-1.306z" transform="translate(0 1) translate(81.69 214.583)"/>
        </g>
        <g fill-rule="nonzero">
            <path fill="#FFF671" d="M45.605 19.45c1.791 12.255-6.78 23.638-19.14 25.427C14.105 46.667 2.621 38.17.83 25.915-.962 13.66 7.609 2.277 19.97.487c12.36-1.78 23.843 6.708 25.635 18.963z" transform="translate(0 1) translate(274.061 126.244)"/>
            <path fill="#FFE500" d="M40.278 20.218c1.367 9.341-5.167 18.017-14.586 19.375-9.419 1.359-18.168-5.106-19.535-14.447C4.79 15.806 11.323 7.13 20.742 5.771c9.42-1.358 18.169 5.106 19.536 14.447z" transform="translate(0 1) translate(274.061 126.244)"/>
            <path fill="#EFD800" d="M40.193 19.694c-.104.018-.283-.712-.745-1.977-.471-1.246-1.263-3.045-2.725-4.91-.735-.927-1.63-1.873-2.706-2.754-1.084-.871-2.338-1.677-3.77-2.314-.708-.319-1.462-.61-2.245-.825-.782-.225-1.603-.412-2.442-.515-.839-.112-1.706-.169-2.574-.15-.877.019-1.763.103-2.65.253-.885.16-1.743.384-2.573.665-.83.281-1.622.637-2.367 1.021-.754.385-1.451.844-2.111 1.322-.66.477-1.264 1.002-1.82 1.545-1.122 1.087-2.018 2.277-2.734 3.458-.707 1.19-1.226 2.389-1.594 3.513-.726 2.258-.848 4.207-.858 5.546 0 1.34.085 2.09-.019 2.108-.075.02-.33-.712-.49-2.08-.15-1.367-.179-3.41.472-5.827.33-1.209.82-2.492 1.536-3.785.717-1.284 1.65-2.586 2.829-3.776.584-.59 1.226-1.17 1.933-1.696.697-.524 1.452-1.02 2.262-1.452.811-.43 1.66-.815 2.546-1.124.896-.31 1.82-.553 2.772-.721.952-.16 1.914-.253 2.857-.272.943-.019 1.876.056 2.781.178.905.122 1.782.337 2.621.59.84.253 1.64.572 2.395.928 1.518.712 2.838 1.62 3.96 2.576 1.113.974 2.027 2.014 2.753 3.036 1.452 2.051 2.14 3.981 2.47 5.312.302 1.349.311 2.108.236 2.127z" transform="translate(0 1) translate(274.061 126.244)"/>
            <path fill="#FFF7A3" d="M26.626 32.52l.471 2.951-2.65.422-.461-2.867c-2.65.262-5.29-.16-6.93-1.059l.943-3.438c1.48.758 3.498 1.17 5.44 1.049l-.707-4.394c-3.055-.244-6.496-.693-7.1-4.46-.452-2.792 1.207-5.509 5.308-6.642l-.471-2.924 2.65-.421.461 2.867c2.009-.16 4.026.056 5.629.75l-.801 3.447c-1.471-.543-2.923-.778-4.271-.721l.716 4.469c3.045.215 6.44.674 7.034 4.384.443 2.736-1.188 5.425-5.261 6.587zM22.1 21.314l-.603-3.738c-1.349.534-1.782 1.387-1.64 2.258.15.918 1.027 1.293 2.243 1.48zm5.582 5.612c-.151-.918-1-1.302-2.197-1.508l.584 3.635c1.273-.506 1.745-1.283 1.613-2.127z" transform="translate(0 1) translate(274.061 126.244)"/>
        </g>
        <g fill-rule="nonzero">
            <path fill="#FFF671" d="M25.508 10.92c1.002 6.88-3.792 13.27-10.705 14.274C7.889 26.2 1.466 21.428.464 14.55-.538 7.669 4.256 1.279 11.17.274c6.914-1 13.337 3.766 14.339 10.645z" transform="translate(0 1) translate(337.982 130.239)"/>
            <path fill="#FFE500" d="M22.528 11.35c.765 5.245-2.89 10.115-8.158 10.878-5.268.762-10.162-2.867-10.926-8.11-.765-5.245 2.89-10.115 8.158-10.878 5.268-.763 10.162 2.867 10.926 8.11z" transform="translate(0 1) translate(337.982 130.239)"/>
            <path fill="#EFD800" d="M22.48 11.056c-.057.01-.157-.4-.416-1.11-.263-.7-.706-1.71-1.524-2.756-.411-.52-.912-1.052-1.513-1.546-.607-.49-1.308-.942-2.11-1.3-.395-.178-.817-.341-1.255-.462-.437-.127-.896-.232-1.366-.29-.469-.063-.954-.094-1.44-.084-.49.01-.985.058-1.481.142-.496.09-.976.216-1.44.374-.464.158-.907.357-1.323.573-.422.216-.813.473-1.182.742-.369.268-.706.562-1.017.868-.628.61-1.129 1.278-1.53 1.94-.395.668-.685 1.342-.891 1.973-.406 1.267-.475 2.361-.48 3.114 0 .752.048 1.173-.01 1.183-.043.01-.185-.4-.275-1.168-.084-.768-.1-1.914.264-3.271.185-.679.459-1.4.86-2.125.4-.72.922-1.452 1.582-2.12.327-.331.685-.657 1.08-.952.391-.294.813-.573 1.266-.815.454-.242.928-.458 1.424-.631.501-.174 1.018-.31 1.55-.405.533-.09 1.071-.142 1.598-.153.528-.01 1.05.032 1.556.1s.997.19 1.466.331c.47.142.918.321 1.34.521.849.4 1.587.91 2.214 1.447.623.547 1.134 1.13 1.54 1.704.812 1.152 1.197 2.235 1.382 2.982.169.757.174 1.184.132 1.194z" transform="translate(0 1) translate(337.982 130.239)"/>
            <path fill="#FFF7A3" d="M14.892 18.257l.264 1.657-1.482.236-.258-1.61c-1.482.148-2.959-.089-3.876-.594l.527-1.93c.828.426 1.957.657 3.043.59l-.396-2.468c-1.708-.136-3.633-.389-3.97-2.503-.254-1.568.674-3.093 2.968-3.73l-.263-1.64 1.482-.237.258 1.61c1.123-.09 2.252.03 3.148.42l-.448 1.936c-.823-.305-1.635-.437-2.389-.405l.4 2.508c1.704.121 3.603.38 3.935 2.462.248 1.536-.665 3.045-2.943 3.698zm-2.531-6.291l-.337-2.099c-.755.3-.997.779-.918 1.268.084.515.575.726 1.255.831zm3.122 3.15c-.084-.515-.56-.73-1.229-.846l.327 2.04c.712-.283.976-.72.902-1.193z" transform="translate(0 1) translate(337.982 130.239)"/>
        </g>
        <g fill-rule="nonzero">
            <path fill="#FFF671" d="M18.551 7.848c.729 4.945-2.757 9.538-7.785 10.26-5.028.723-9.7-2.706-10.428-7.651C-.392 5.512 3.095.919 8.123.197c5.028-.719 9.7 2.706 10.428 7.651z" transform="translate(0 1) rotate(77 99.498 258.302)"/>
            <path fill="#FFE500" d="M16.384 8.158c.556 3.77-2.102 7.27-5.933 7.818s-7.39-2.06-7.947-5.83c-.556-3.768 2.102-7.27 5.934-7.817 3.831-.548 7.39 2.06 7.946 5.83z" transform="translate(0 1) rotate(77 99.498 258.302)"/>
            <path fill="#EFD800" d="M16.35 7.947c-.042.007-.115-.288-.303-.798-.192-.503-.514-1.229-1.109-1.981-.299-.374-.663-.756-1.1-1.112-.441-.351-.952-.676-1.535-.933-.287-.129-.594-.246-.912-.333-.319-.09-.652-.166-.994-.208-.341-.045-.694-.068-1.047-.06-.356.007-.717.041-1.077.102-.36.064-.71.155-1.047.268-.338.113-.66.257-.963.412-.307.155-.59.34-.86.533-.268.193-.513.405-.74.624-.456.438-.82.919-1.112 1.395-.287.48-.498.964-.648 1.418-.295.91-.345 1.697-.349 2.238 0 .54.035.843-.007.85-.031.008-.135-.287-.2-.839-.061-.552-.073-1.376.192-2.351.134-.488.334-1.006.625-1.528.292-.518.671-1.043 1.15-1.523.238-.238.5-.473.787-.685.284-.211.59-.412.92-.586.33-.173.675-.328 1.036-.453.364-.125.74-.223 1.127-.291.388-.065.779-.102 1.163-.11.383-.007.763.023 1.13.072.37.05.726.136 1.067.238.341.102.667.23.974.374.618.288 1.155.654 1.611 1.04.453.393.825.813 1.12 1.225.59.828.87 1.607 1.005 2.143.123.545.126.851.096.859z" transform="translate(0 1) rotate(77 99.498 258.302)"/>
            <path fill="#FFF7A3" d="M10.83 13.122l.193 1.19-1.078.171-.188-1.157c-1.078.106-2.152-.064-2.819-.427l.384-1.387c.602.306 1.422.472 2.212.423l-.287-1.773c-1.243-.098-2.643-.28-2.888-1.8-.184-1.126.49-2.223 2.16-2.68l-.193-1.18 1.078-.17.188 1.157c.817-.064 1.638.023 2.29.303l-.326 1.39c-.599-.218-1.19-.313-1.738-.29l.292 1.803c1.239.087 2.62.272 2.86 1.77.181 1.103-.482 2.188-2.14 2.657zM8.99 8.601l-.246-1.509c-.548.216-.724.56-.667.911.061.37.418.522.913.598zm2.27 2.264c-.061-.37-.406-.525-.893-.609l.237 1.467c.518-.204.71-.518.656-.858z" transform="translate(0 1) rotate(77 99.498 258.302)"/>
        </g>
        <g fill-rule="nonzero">
            <path fill="#FFF671" d="M17.778 7.507c.699 4.73-2.642 9.123-7.461 9.814-4.819.69-9.295-2.589-9.994-7.319C-.375 5.272 2.966.88 7.785.188c4.818-.687 9.295 2.59 9.993 7.319z" transform="translate(0 1) rotate(58 -117.419 162.823)"/>
            <path fill="#FFE500" d="M15.702 7.804c.532 3.605-2.015 6.953-5.686 7.478-3.672.524-7.083-1.971-7.616-5.576C1.867 6.1 4.414 2.752 8.086 2.228c3.672-.525 7.083 1.97 7.616 5.576z" transform="translate(0 1) rotate(58 -117.419 162.823)"/>
            <path fill="#EFD800" d="M15.668 7.601c-.04.007-.11-.275-.29-.763-.184-.48-.492-1.175-1.062-1.895-.287-.358-.636-.723-1.055-1.063-.423-.336-.911-.647-1.47-.893-.276-.123-.57-.235-.875-.318-.305-.087-.625-.16-.952-.2-.327-.043-.665-.064-1.003-.057-.342.007-.688.04-1.033.098-.346.061-.68.148-1.003.256-.324.109-.633.246-.923.394-.294.149-.566.326-.823.51-.258.185-.493.387-.71.597-.437.42-.786.879-1.066 1.334-.275.46-.477.922-.62 1.356-.284.872-.331 1.624-.335 2.141 0 .517.033.806-.007.814-.03.007-.13-.275-.192-.803-.058-.528-.07-1.316.184-2.25.129-.466.32-.961.6-1.46.279-.496.642-.998 1.102-1.457.228-.228.478-.452.753-.655.272-.202.566-.394.882-.56.317-.167.647-.315.993-.434.349-.12.71-.214 1.08-.279.372-.061.747-.097 1.114-.105.368-.007.731.022 1.084.069.353.047.695.13 1.022.228.327.097.64.22.934.358.591.275 1.106.625 1.543.994.434.376.79.778 1.074 1.172.566.792.834 1.537.963 2.05.117.52.12.814.091.821z" transform="translate(0 1) rotate(58 -117.419 162.823)"/>
            <path fill="#FFF7A3" d="M10.38 12.551l.183 1.14-1.033.162-.18-1.106c-1.032.101-2.062-.062-2.701-.409l.367-1.327c.577.293 1.364.452 2.121.405L8.862 9.72C7.67 9.626 6.329 9.452 6.094 8c-.177-1.078.47-2.126 2.07-2.564l-.185-1.128 1.033-.163.18 1.107c.783-.062 1.57.021 2.195.289l-.313 1.33c-.573-.21-1.14-.3-1.665-.278l.28 1.725c1.187.083 2.51.26 2.741 1.692.173 1.056-.463 2.094-2.05 2.542zM8.614 8.227L8.38 6.784c-.526.206-.695.535-.64.871.06.355.401.5.875.572zm2.176 2.166c-.059-.355-.39-.503-.856-.583l.228 1.404c.496-.196.68-.496.628-.821z" transform="translate(0 1) rotate(58 -117.419 162.823)"/>
        </g>
        <path fill="gray" fill-rule="nonzero" d="M38.97 358.612L424.712 358.612M424.712 358.612c0 .08-86.356.15-192.86.15-106.537 0-192.876-.07-192.876-.15 0-.08 86.34-.15 192.877-.15 106.503 0 192.86.063 192.86.15z" transform="translate(0 1)"/>
        <path fill="url(#prefix__a)" fill-rule="nonzero" d="M400.976 165.476H181.952c-3.774 0-6.834 3.06-6.834 6.834v154.701c0 3.774 3.06 6.835 6.834 6.835h84.061s5.345 16.533-11.23 25.088h78.602s-18.714-6.415-13.904-25.088h81.495c3.774 0 6.834-3.061 6.834-6.835V172.316c.006-3.78-3.06-6.84-6.834-6.84z" transform="translate(0 1)"/>
        <path fill="#FFF" fill-rule="nonzero" d="M294.387 317.582c2.98 4.257-1.686 8.923-5.943 5.943-.138-.098-.27-.224-.368-.368-2.969-4.257 1.685-8.917 5.942-5.943.144.104.27.23.369.368zM404.042 305.553H178.886v-131.66c0-3.084 2.497-5.58 5.58-5.58h213.996c3.083 0 5.58 2.496 5.58 5.58v131.66z" transform="translate(0 1)"/>
    </g>
</svg>
