<?xml version="1.0" encoding="utf-8"?>
<!-- Generator: Adobe Illustrator 24.0.1, SVG Export Plug-In . SVG Version: 6.00 Build 0)  -->
<svg version="1.1" id="圖層_1" xmlns="http://www.w3.org/2000/svg" xmlns:xlink="http://www.w3.org/1999/xlink" x="0px" y="0px"
	 viewBox="0 0 49.7 47.8" style="enable-background:new 0 0 49.7 47.8;" xml:space="preserve">
<style type="text/css">
	.st0{fill:#FFF671;}
	.st1{fill:#FFE500;}
	.st2{fill:#EFD800;}
</style>
<g id="Group_2_" transform="translate(17.000000, 190.000000)">
	<g id="Path_2_">
		<path class="st0" d="M31.4-169.5c1.9,13.1-7.2,25.2-20.3,27.1c-13.1,1.9-25.3-7.2-27.2-20.2c-1.9-13.1,7.2-25.2,20.3-27.1
			S29.5-182.5,31.4-169.5z"/>
		<path class="st1" d="M25.8-168.6c1.5,10-5.5,19.2-15.5,20.7s-19.3-5.4-20.7-15.4s5.5-19.2,15.5-20.7
			C15-185.5,24.3-178.6,25.8-168.6z"/>
		<path class="st2" d="M25.7-169.2c-0.1,0-0.3-0.8-0.8-2.1s-1.3-3.2-2.9-5.2c-0.8-1-1.7-2-2.9-2.9c-1.1-0.9-2.5-1.8-4-2.5
			c-0.8-0.3-1.5-0.6-2.4-0.9c-0.8-0.2-1.7-0.4-2.6-0.5c-0.9-0.1-1.8-0.2-2.7-0.2s-1.9,0.1-2.8,0.3c-0.9,0.2-1.9,0.4-2.7,0.7
			s-1.7,0.7-2.5,1.1c-0.8,0.4-1.5,0.9-2.2,1.4s-1.3,1.1-1.9,1.7c-1.2,1.2-2.1,2.4-2.9,3.7c-0.8,1.3-1.3,2.6-1.7,3.8
			c-0.8,2.4-0.9,4.5-0.9,5.9s0.1,2.2,0,2.2s-0.3-0.8-0.5-2.2c-0.2-1.5-0.2-3.6,0.5-6.2c0.3-1.3,0.9-2.7,1.6-4c0.8-1.4,1.8-2.8,3-4
			c0.6-0.6,1.3-1.2,2-1.8s1.5-1.1,2.4-1.6s1.8-0.9,2.7-1.2c1-0.3,1.9-0.6,2.9-0.8s2-0.3,3-0.3s2,0.1,3,0.2c1,0.1,1.9,0.4,2.8,0.6
			c0.9,0.3,1.7,0.6,2.5,1c1.6,0.8,3,1.7,4.2,2.8c1.2,1,2.2,2.1,2.9,3.2c1.5,2.2,2.3,4.2,2.6,5.7C25.7-170,25.8-169.2,25.7-169.2z"/>
	</g>
	<path id="Shape_2_" class="st0" d="M11.3-155.5l0.5,3.2L9-151.9L8.5-155c-2.8,0.3-5.6-0.2-7.4-1.1l1-3.7c1.6,0.8,3.7,1.2,5.8,1.1
		l-0.8-4.7c-3.2-0.3-6.9-0.7-7.5-4.8c-0.5-3,1.3-5.9,5.6-7.1l-0.5-3.1l2.8-0.4l0.5,3.1c2.1-0.2,4.3,0.1,6,0.8l-0.8,3.7
		c-1.6-0.6-3.1-0.8-4.5-0.8l0.8,4.8c3.2,0.2,6.8,0.7,7.5,4.7C17.3-159.6,15.6-156.7,11.3-155.5z M6.5-167.5l-0.6-4
		c-1.4,0.6-1.9,1.5-1.7,2.4C4.3-168.1,5.2-167.7,6.5-167.5z M12.4-161.5c-0.2-1-1.1-1.4-2.3-1.6l0.6,3.9
		C12-159.7,12.5-160.6,12.4-161.5z"/>
</g>
</svg>
