<?xml version="1.0" encoding="utf-8"?>
<!-- Generator: Adobe Illustrator 24.0.1, SVG Export Plug-In . SVG Version: 6.00 Build 0)  -->
<svg version="1.1" id="圖層_1" xmlns="http://www.w3.org/2000/svg" xmlns:xlink="http://www.w3.org/1999/xlink" x="0px" y="0px"
	 viewBox="0 0 184.1 145.8" style="enable-background:new 0 0 184.1 145.8;" xml:space="preserve">
<style type="text/css">
	.st0{fill:#FFEED4;}
	.st1{fill:#FFD79B;}
</style>
<g id="Money_Box" transform="translate(126.000000, 484.000000)">
	<path id="Path_40_" class="st0" d="M-124.4-405l4.1,14.7c2.3,8.2,10.4,13.4,18.9,12.1c0,0,7.7,11,11,12.8l3,23.5h17.6l1.4-9.5
		c0,0,17.8,8.3,40.1,7.1C-6-345.5-0.7-352-0.7-352L2-341.9h19.9l3.3-25.9c0,0,24.3-21.7,18.1-47c0,0,17.5-12,11.6-29.1l-3.6-1.6
		c0,0-5.6,10.1-11.6,12.2c0,0-16-51.5-76.1-47.3c0,0-20.1-0.9-39.1,8c0,0-21.1-11-36.8-3c0,0-0.3,18.2,8.6,28.6
		c0,0-7.7,17.3-8.3,20.8l-2.3,0.9C-122.4-422-126.7-413.3-124.4-405z"/>
	<path id="Path_41_" class="st1" d="M-82-426.9c0,2.8-2.2,5-5,5c-2.8,0-5-2.2-5-5c0-2.8,2.2-5,5-5C-84.2-431.9-82-429.7-82-426.9z"
		/>
	<path id="Path_42_" class="st1" d="M-59-467.4l2.2,6.5c0,0,27-8.3,44.3,0l2.5-6.5C-10-467.4-31.2-477.6-59-467.4z"/>
	<path id="Path_43_" class="st1" d="M-8-458.5c0,0-0.2-0.1-0.5-0.3c-0.3-0.2-0.8-0.5-1.4-0.8c-1.2-0.7-3.1-1.6-5.5-2.5
		c-2.4-0.8-5.4-1.6-8.7-2c-3.3-0.4-7.1-0.5-10.9-0.4c-3.9,0.1-7.6,0.4-10.9,0.9s-6.3,1.2-8.7,2c-2.4,0.8-4.2,1.8-5.4,2.5
		c-1.3,0.8-2,1.2-2,1.2s0.1-0.1,0.4-0.4c0.3-0.3,0.7-0.6,1.4-0.9c1.2-0.8,3-1.8,5.4-2.7c2.4-0.9,5.4-1.6,8.7-2.1
		c3.4-0.5,7.1-0.7,11-0.9c3.9-0.1,7.6,0,11,0.4s6.3,1.2,8.7,2.1c2.4,0.9,4.3,1.9,5.5,2.6c0.6,0.4,1.1,0.7,1.4,0.9
		C-8.1-458.6-8-458.5-8-458.5z"/>
	<path id="Path_44_" class="st1" d="M-112.9-411.3c-0.3-0.7-0.7-1.5-1.3-2s-1.5-0.8-2.3-0.4l0,0c-0.6,0.4-1,1.1-1.1,1.8
		c-1,4.4-0.2,9.1,2.2,13c0.3,0.5,0.9,1,1.5,1.1c1.3,0.2,2.1-1,2.4-2.1C-110.4-403.7-111.3-407.8-112.9-411.3z"/>
	<path id="Path_45_" class="st1" d="M-102.3-398.9c0,0,0-0.4,0-1.1c0-0.4,0-0.8,0-1.3s0-1.1,0-1.8s-0.1-1.4-0.2-2.1
		c-0.1-0.8-0.2-1.6-0.4-2.4c-0.3-1.7-0.8-3.5-1.5-5.4c-0.7-1.8-1.5-3.5-2.4-5c-0.4-0.7-0.9-1.4-1.3-2c-0.4-0.6-0.9-1.2-1.3-1.7
		s-0.8-0.9-1.1-1.3c-0.3-0.4-0.6-0.7-0.9-1c-0.3-0.6-0.6-0.9-0.6-0.9s0.3,0.2,0.9,0.7c0.3,0.2,0.6,0.5,0.9,0.9
		c0.4,0.4,0.8,0.8,1.2,1.3s0.9,1,1.3,1.7c0.5,0.6,0.9,1.3,1.4,2c0.9,1.5,1.7,3.2,2.4,5.1c0.7,1.9,1.2,3.7,1.5,5.4
		c0.1,0.9,0.3,1.7,0.3,2.4c0.1,0.8,0.1,1.5,0.1,2.2c0,0.7,0,1.3,0,1.8s-0.1,1-0.1,1.3C-102.2-399.3-102.3-398.9-102.3-398.9z"/>
	<path id="Path_46_" class="st1" d="M-97-409.9c-0.1,0-0.4-1.2-1.2-3.2c-0.4-1-1-2.1-1.7-3.2c-0.7-1.2-1.6-2.4-2.7-3.5
		c-1.1-1.1-2.2-2.1-3.3-2.9c-1.1-0.8-2.1-1.4-3.1-1.9c-1.8-0.9-3.1-1.3-3-1.3c0,0,0.3,0.1,0.9,0.2c0.3,0.1,0.6,0.2,1,0.3
		c0.4,0.2,0.8,0.3,1.3,0.5c0.9,0.4,2,1,3.2,1.8c1.1,0.8,2.3,1.8,3.4,2.9c1.1,1.2,2,2.4,2.7,3.6c0.7,1.2,1.3,2.3,1.6,3.3
		c0.2,0.5,0.3,0.9,0.5,1.3c0.1,0.4,0.2,0.7,0.3,1C-97-410.2-97-409.9-97-409.9z"/>
	<path id="Path_47_" class="st1" d="M-118-411.7c0,0-0.2-0.3,0.3-0.8c0.2-0.2,0.5-0.4,1-0.4c0.4-0.1,0.9,0.1,1.3,0.4
		c0.8,0.6,1.3,1.7,1.8,2.8s0.9,2.4,1.2,3.8c0.3,1.4,0.4,2.7,0.4,3.9c0,1.2-0.1,2.3-0.6,3.2c-0.6,0.9-1.5,1.1-2.1,1
		c-0.6-0.1-0.8-0.4-0.8-0.4s0.2,0.2,0.8,0.3c0.5,0,1.4-0.2,1.8-0.9c0.5-0.8,0.5-1.9,0.5-3c0-1.2-0.1-2.5-0.4-3.8
		c-0.3-1.3-0.7-2.6-1.2-3.7c-0.5-1.1-0.9-2.1-1.6-2.7c-0.7-0.6-1.6-0.4-2-0.1C-118-412-117.9-411.7-118-411.7z"/>
	<path id="Path_48_" class="st1" d="M-79.6-408.9c0,0,0.1,0.1,0.2,0.4c0.1,0.3,0.3,0.7,0.3,1.3c0.1,1.1-0.1,2.8-1.2,4.2
		c-1.2,1.4-2.8,1.9-3.9,2c-0.6,0-1,0-1.3-0.1c-0.3-0.1-0.5,0-0.5-0.1c0-0.1,0.7,0.1,1.8,0c1.1-0.1,2.6-0.7,3.6-2
		c1.1-1.3,1.3-2.9,1.3-4C-79.4-408.2-79.7-408.9-79.6-408.9z"/>
	<path id="Path_49_" class="st1" d="M-82-438.9c-0.1,0.1-2.1-1.2-4.9-1.5c-2.8-0.3-5,0.7-5.1,0.5c0-0.1,0.5-0.4,1.4-0.6
		c0.9-0.2,2.2-0.5,3.7-0.3c1.4,0.1,2.7,0.6,3.6,1C-82.5-439.4-82-439-82-438.9z"/>
	<path id="Path_50_" class="st1" d="M1-471.5c0,0-0.1,0-0.2-0.1s-0.3-0.1-0.6-0.2c-0.5-0.2-1.2-0.5-2.1-0.8c-0.5-0.2-1-0.4-1.5-0.6
		c-0.6-0.2-1.2-0.4-1.8-0.6c-1.3-0.4-2.8-1-4.5-1.4c-0.8-0.2-1.7-0.5-2.7-0.7c-0.9-0.2-1.9-0.4-2.9-0.6c-2-0.5-4.2-0.8-6.5-1.1
		c-4.6-0.6-9.7-0.9-15.1-0.7c-5.4,0.2-10.4,0.9-15,1.8c-2.3,0.5-4.4,1-6.4,1.6c-1,0.3-2,0.5-2.9,0.8s-1.8,0.6-2.6,0.9
		c-1.7,0.5-3.1,1.2-4.4,1.7c-0.6,0.3-1.2,0.5-1.8,0.7c-0.5,0.3-1,0.5-1.5,0.7c-0.9,0.4-1.5,0.7-2,1c-0.2,0.1-0.4,0.2-0.5,0.2
		c0.1,0,0,0,0,0s0.1,0,0.2-0.1c0.1-0.1,0.3-0.2,0.5-0.3c0.5-0.2,1.2-0.6,2-1c0.4-0.2,0.9-0.5,1.4-0.7c0.5-0.3,1.1-0.5,1.8-0.8
		c1.3-0.5,2.7-1.2,4.4-1.8c0.8-0.3,1.7-0.6,2.6-0.9c0.9-0.3,1.9-0.6,2.9-0.9c2-0.6,4.1-1.1,6.4-1.6c4.6-0.9,9.6-1.6,15-1.8
		c5.4-0.2,10.5,0.2,15.1,0.8c2.3,0.4,4.5,0.7,6.5,1.2c1,0.2,2,0.4,2.9,0.7s1.8,0.5,2.7,0.7c1.7,0.4,3.2,1,4.5,1.5
		c0.7,0.2,1.3,0.4,1.8,0.6c0.6,0.2,1,0.4,1.5,0.6c0.9,0.4,1.6,0.7,2.1,0.9c0.2,0.1,0.4,0.2,0.5,0.2S1-471.6,1-471.5z"/>
	<path id="Path_51_" class="st1" d="M10-466.9c0,0.1-1.2-0.3-2.6-0.8c-1.4-0.5-2.5-1.1-2.4-1.2c0-0.1,1.2,0.3,2.6,0.8
		C9-467.5,10-467,10-466.9z"/>
	<path id="Path_52_" class="st1" d="M-116-420.9c0,0.1-0.7,0.3-1.7,1c-1,0.6-2.4,1.7-3.5,3.1c-1.1,1.4-1.8,2.9-2.2,4.1
		c-0.4,1.1-0.5,1.8-0.6,1.8c0,0,0-0.2,0-0.5c0-0.3,0.1-0.8,0.3-1.4c0.3-1.2,1-2.8,2.2-4.2c1.2-1.5,2.6-2.5,3.7-3.1
		c0.6-0.3,1-0.5,1.3-0.6C-116.2-420.9-116-420.9-116-420.9z"/>
	<path id="Path_53_" class="st1" d="M-69-345.8c0,0-0.1-0.2-0.4-0.4c-0.3-0.2-0.9-0.5-1.6-0.4s-1.6,0.5-2.1,1.4s-0.8,2.1-0.7,3.4
		h-0.3c0.1-1.1-0.2-2.4-1.1-3.3c-0.8-0.9-2.3-1.3-3.5-0.8c-0.8,0.3-1.3,1.1-1.5,1.9c-0.2,0.8,0,1.7,0.5,2.3l-0.3,0.2
		c-0.5-1.6-1.1-3-2.1-3.9c-0.9-0.9-2.2-1.3-3.1-1c-0.9,0.3-1.4,1-1.6,1.5c-0.2,0.5-0.1,0.8-0.2,0.8c0,0-0.1-0.3,0-0.9
		c0.2-0.5,0.7-1.3,1.7-1.6c1-0.4,2.3,0,3.3,1s1.7,2.5,2.2,4l0.3,0.8l-0.6-0.7c-0.6-0.7-0.8-1.7-0.6-2.6c0.2-0.9,0.8-1.8,1.7-2.2
		c1.4-0.6,3-0.2,3.9,0.9c1,1,1.3,2.4,1.1,3.6h-0.3c0-1.3,0.2-2.6,0.8-3.5c0.3-0.5,0.7-0.8,1.1-1.1c0.4-0.2,0.8-0.3,1.2-0.4
		c0.8-0.1,1.4,0.2,1.7,0.5C-69.1-346.1-69-345.8-69-345.8z"/>
</g>
</svg>
