<?xml version="1.0" encoding="utf-8"?>
<!-- Generator: Adobe Illustrator 24.0.1, SVG Export Plug-In . SVG Version: 6.00 Build 0)  -->
<svg version="1.1" id="圖層_1" xmlns="http://www.w3.org/2000/svg" xmlns:xlink="http://www.w3.org/1999/xlink" x="0px" y="0px"
	 viewBox="0 0 340.1 119.8" style="enable-background:new 0 0 340.1 119.8;" xml:space="preserve">
<style type="text/css">
	.st0{fill:#00573D;}
</style>
<path id="Path_8_" class="st0" d="M337.2,6.9c0,0-0.4,0-1.1-0.2c-0.8-0.2-1.9-0.4-3.3-0.7c-1.4-0.4-3.2-0.6-5.3-0.9
	c-2.1-0.4-4.6-0.5-7.4-0.6c-5.5-0.2-12.4,0.1-20.1,1.7c-7.7,1.6-16.3,4.6-24.9,9.4c-8.6,4.8-17.4,11.5-25.2,20.1
	c-7.9,8.6-14.5,19.3-21.3,30.5c-6.9,11.2-13.8,23.4-23.9,33.8c-5,5.2-10.8,9.9-17.6,13.2c-3.4,1.6-7.1,2.8-10.9,3.3
	c-3.8,0.5-7.7,0.4-11.5-0.4c-7.6-1.7-14.4-5.7-20-10.5c-5.8-4.8-10.5-10.4-14.9-16.2c-8.6-11.6-14.7-24.1-21.3-35.5
	C102,42.5,95.4,31.8,87.2,23.4c-4.1-4.1-8.4-7.7-13.1-10.3c-2.3-1.5-4.8-2.4-7.1-3.5c-2.5-0.8-4.8-1.7-7.2-2.1
	C50.2,5.2,41,6.1,33.4,8.2s-13.6,5.5-18.1,8.7c-4.4,3.3-7.5,6.3-9.5,8.5c-0.9,1-1.7,1.9-2.2,2.5s-0.8,0.8-0.8,0.8s0.2-0.3,0.7-0.9
	s1.2-1.5,2.1-2.6c1.9-2.2,5-5.4,9.4-8.8c4.5-3.3,10.5-6.8,18.2-9c7.6-2.2,17-3.2,26.8-1c9.9,2,19.9,7.6,28.1,16.1
	c8.3,8.4,15.1,19.2,21.6,30.6c6.6,11.4,12.7,23.9,21.3,35.3c4.3,5.7,9,11.3,14.6,15.9c5.6,4.7,12.1,8.6,19.4,10.2
	c3.6,0.7,7.4,0.9,11,0.4s7.2-1.6,10.5-3.2c6.6-3.2,12.3-7.8,17.2-12.9c9.9-10.2,16.9-22.3,23.8-33.5c6.8-11.2,13.5-22,21.5-30.7
	c8-8.7,16.9-15.4,25.6-20.2c8.8-4.9,17.5-7.8,25.3-9.3c7.8-1.6,14.7-1.7,20.3-1.5c2.8,0.2,5.3,0.3,7.4,0.8c2.1,0.3,3.9,0.6,5.3,1
	c1.4,0.3,2.5,0.6,3.2,0.8C336.8,6.8,337.2,6.9,337.2,6.9z"/>
<path id="Path_25_" class="st0" d="M287.2,4.6c0-0.1,0.4-0.2,1.1,0c0.7,0.2,1.6,0.9,2.3,2s1.1,2.8,0.6,4.5s-2,3.5-4.4,3.5
	c-1.2,0-2.2-0.7-2.8-1.5s-1-1.7-1.2-2.5c-0.4-1.7,0-3.4,0.7-4.5c1.6-2.2,3.5-2.1,3.5-2c0.1,0.2-1.5,0.5-2.6,2.5
	c-0.5,1-0.7,2.3-0.3,3.6c0.3,1.3,1.4,2.8,2.7,2.8c1.4,0,2.7-1.2,3.1-2.5c0.5-1.3,0.2-2.6-0.2-3.6C288.8,5,287.2,4.8,287.2,4.6z"/>
</svg>
