<?xml version="1.0" encoding="utf-8"?>
<!-- Generator: Adobe Illustrator 24.0.1, SVG Export Plug-In . SVG Version: 6.00 Build 0)  -->
<svg version="1.1" id="圖層_1" xmlns="http://www.w3.org/2000/svg" xmlns:xlink="http://www.w3.org/1999/xlink" x="0px" y="0px"
	 viewBox="0 0 283 218" style="enable-background:new 0 0 283 218;" xml:space="preserve">
<style type="text/css">
	.st0{fill-rule:evenodd;clip-rule:evenodd;fill:#FFFFFF;}
	.st1{fill-rule:evenodd;clip-rule:evenodd;fill:url(#Fill-5_1_);}
	.st2{fill-rule:evenodd;clip-rule:evenodd;fill:#C1CD00;}
	.st3{fill-rule:evenodd;clip-rule:evenodd;fill:#F1FF00;}
	.st4{fill-rule:evenodd;clip-rule:evenodd;fill:#FFFFFF;stroke:#EEEEEE;}
	.st5{opacity:0.4675;}
	.st6{fill-rule:evenodd;clip-rule:evenodd;fill:#D8D8D8;}
	.st7{fill-rule:evenodd;clip-rule:evenodd;fill:#49A8D6;}
	.st8{fill:#E4FFD0;}
	.st9{fill-rule:evenodd;clip-rule:evenodd;fill:#E49F05;}
</style>
<title>Group 147</title>
<desc>Created with Sketch.</desc>
<path id="Fill-3" class="st0" d="M264.4,186.6c0,3.8-0.4,7.7-1,11.3c-0.9,5.2-2.6,10.4-4.9,15.2H145.1c-2.3-4.8-3.9-10-4.9-15.2
	c-0.7-3.7-1-7.5-1-11.3c0-28.1,18.9-52.9,45.9-60.3c8.4-2.3,14.3-9.4,14.8-17.6c0-0.4,0-0.8,0-1.2c0-0.1,0-0.2,0-0.3
	c0-0.1,0-0.2,0-0.3c0-0.4,0-0.8,0-1.2c-0.5-8.2-6.4-15.3-14.8-17.6c-27-7.5-45.9-32.3-45.9-60.3c0-3.8,0.3-7.7,1-11.3
	c0.1-0.7,0.2-1.3,0.4-2c0,0,0,0,0-0.1c0.1-0.6,0.3-1.3,0.4-1.9v-0.1c0.1-0.5,0.3-1,0.4-1.6c0.1-0.5,0.3-1.1,0.5-1.6
	c0.1-0.3,0.2-0.5,0.2-0.8h119.2c0.1,0.3,0.2,0.5,0.2,0.8c0.1,0.4,0.2,0.8,0.3,1.2c0.1,0.3,0.2,0.5,0.2,0.8c0.1,0.4,0.2,0.8,0.3,1.2
	c0.1,0.3,0.1,0.5,0.2,0.8c0.1,0.4,0.2,0.8,0.3,1.2c0,0.2,0.1,0.4,0.1,0.6c0.1,0.5,0.2,0.9,0.3,1.4c0.7,3.7,1,7.5,1,11.3
	c0,28.1-18.9,52.9-45.9,60.3c-8.4,2.3-14.3,9.4-14.8,17.6c0,0.4,0,0.8,0,1.2c0,0.1,0,0.2,0,0.3c0,0.1,0,0.2,0,0.3c0,0.4,0,0.8,0,1.2
	c0.5,8.2,6.4,15.3,14.8,17.6C245.6,133.8,264.4,158.6,264.4,186.6"/>
<linearGradient id="Fill-5_1_" gradientUnits="userSpaceOnUse" x1="-1072.9314" y1="2.7168" x2="-1072.7769" y2="3.6794" gradientTransform="matrix(125.225 0 0 204.7908 134550.6719 -539.5781)">
	<stop  offset="0" style="stop-color:#E4FFD0"/>
	<stop  offset="0.118" style="stop-color:#FFFFFF"/>
	<stop  offset="0.4318" style="stop-color:#FFFFFF"/>
	<stop  offset="0.7233" style="stop-color:#ECFFEF"/>
	<stop  offset="1" style="stop-color:#E4FFD0"/>
</linearGradient>
<path id="Fill-5" class="st1" d="M264.4,186.6c0,3.8-0.4,7.7-1,11.3c-0.9,5.2-2.6,10.4-4.9,15.2H145.1c-2.3-4.8-3.9-10-4.9-15.2
	c-0.7-3.7-1-7.5-1-11.3c0-28.1,18.9-52.9,45.9-60.3c8.4-2.3,14.3-9.4,14.8-17.6c0-0.4,0-0.8,0-1.2c0-0.1,0-0.2,0-0.3
	c0-0.1,0-0.2,0-0.3c0-0.4,0-0.8,0-1.2c-0.5-8.2-6.4-15.3-14.8-17.6c-27-7.5-45.9-32.3-45.9-60.3c0-3.8,0.3-7.7,1-11.3
	c0.1-0.7,0.2-1.3,0.4-2c0,0,0,0,0-0.1c0.1-0.6,0.3-1.3,0.4-1.9v-0.1c0.1-0.5,0.3-1,0.4-1.6c0.1-0.5,0.3-1.1,0.5-1.6
	c0.1-0.3,0.2-0.5,0.2-0.8h119.2c0.1,0.3,0.2,0.5,0.2,0.8c0.1,0.4,0.2,0.8,0.3,1.2c0.1,0.3,0.2,0.5,0.2,0.8c0.1,0.4,0.2,0.8,0.3,1.2
	c0.1,0.3,0.1,0.5,0.2,0.8c0.1,0.4,0.2,0.8,0.3,1.2c0,0.2,0.1,0.4,0.1,0.6c0.1,0.5,0.2,0.9,0.3,1.4c0.7,3.7,1,7.5,1,11.3
	c0,28.1-18.9,52.9-45.9,60.3c-8.4,2.3-14.3,9.4-14.8,17.6c0,0.4,0,0.8,0,1.2c0,0.1,0,0.2,0,0.3c0,0.1,0,0.2,0,0.3c0,0.4,0,0.8,0,1.2
	c0.5,8.2,6.4,15.3,14.8,17.6C245.6,133.8,264.4,158.6,264.4,186.6"/>
<path id="Fill-7" class="st2" d="M150.2,64.6c0,0,9.9,16.2,33.6,23.6c6.1,1.8,8.1,3.1,11.6,6.3c3.5,3.2,4.7,8.9,4.5,13.3
	c0,3.5,1.9,54.2,1.9,60.5c0,6,0.8,1.5,0.6,0.3c0.6-35.9,1.3-62.3,1.3-62.3s2.1-11.3,5.5-12.8c3.3-1.6,15.4-7.2,20.3-8.5
	c4.9-1.4,16.8-12.2,16.8-12.2s15.1-21.6,16.1-24.3c0.9-2.8-6.8-3-6.8-3L150.2,64.6z"/>
<path id="Fill-9" class="st3" d="M262.9,44.8c1,6.6-23.9,15.9-55.6,20.9S149,69.4,148,62.8s23.9-15.9,55.6-20.9
	C235.3,37,261.8,38.3,262.9,44.8"/>
<g id="Group-20" transform="translate(146.166667, 132.848333)">
	<path id="Fill-16" class="st0" d="M38.6,0.7c-0.7,0-1.4,0.1-2.1,0.3C32,2.6,27.8,4.5,24,6.9c-3,1.9-3.8,5.8-2,8.7
		c1.9,3,5.8,3.8,8.7,2s6.2-3.4,9.8-4.6c3.3-1.1,5.1-4.7,3.9-8C43.7,2.3,41.3,0.7,38.6,0.7"/>
	<path id="Fill-18" class="st0" d="M13.9,19.3c-2.1,0-4.1,1-5.3,2.9C-2.4,39.6,0.4,59,0.5,59.8c0.5,3.4,3.8,5.8,7.2,5.3
		s5.8-3.7,5.3-7.2c0-0.3-2.2-15.7,6.2-28.9c1.9-2.9,1-6.8-1.9-8.7C16.3,19.6,15.1,19.3,13.9,19.3"/>
</g>
<g id="Group-26" transform="translate(43.000000, 89.000000)">
	<path id="Rectangle" class="st4" d="M10,0h118c5.5,0,10,4.5,10,10v75c0,5.5-4.5,10-10,10H10C4.5,95,0,90.5,0,85V10
		C0,4.5,4.5,0,10,0z"/>
	<path id="Rectangle_1_" class="st2" d="M8.5,0h121c4.7,0,8.5,3.8,8.5,8.5l0,0c0,4.7-3.8,8.5-8.5,8.5H8.5C3.8,17,0,13.2,0,8.5l0,0
		C0,3.8,3.8,0,8.5,0z"/>
	<g id="Group-25" transform="translate(15.000000, 25.000000)" class="st5">
		<rect id="Rectangle_2_" class="st6" width="12" height="9"/>
		<rect id="Rectangle-Copy-5" x="16" class="st6" width="12" height="9"/>
		<rect id="Rectangle-Copy-6" x="32" class="st6" width="12" height="9"/>
		<rect id="Rectangle-Copy-7" x="47" class="st6" width="12" height="9"/>
		<rect id="Rectangle-Copy-8" x="63" class="st6" width="12" height="9"/>
		<rect id="Rectangle-Copy-9" x="79" class="st6" width="12" height="9"/>
		<rect id="Rectangle-Copy-10" x="95" class="st6" width="12" height="9"/>
	</g>
	<g id="Group-24" transform="translate(15.000000, 42.000000)" class="st5">
		<rect id="Rectangle-Copy-11" class="st6" width="12" height="9"/>
		<rect id="Rectangle-Copy-12" x="16" class="st6" width="12" height="9"/>
		<rect id="Rectangle-Copy-13" x="32" class="st6" width="12" height="9"/>
		<rect id="Rectangle-Copy-14" x="47" class="st6" width="12" height="9"/>
		<rect id="Rectangle-Copy-15" x="63" class="st2" width="12" height="9"/>
		<rect id="Rectangle-Copy-16" x="79" class="st6" width="12" height="9"/>
		<rect id="Rectangle-Copy-17" x="95" class="st6" width="12" height="9"/>
	</g>
	<g id="Group-23" transform="translate(15.000000, 59.000000)" class="st5">
		<rect id="Rectangle-Copy-18" class="st6" width="12" height="9"/>
		<rect id="Rectangle-Copy-19" x="16" class="st6" width="12" height="9"/>
		<rect id="Rectangle-Copy-20" x="32" class="st6" width="12" height="9"/>
		<rect id="Rectangle-Copy-21" x="47" class="st6" width="12" height="9"/>
		<rect id="Rectangle-Copy-22" x="63" class="st6" width="12" height="9"/>
		<rect id="Rectangle-Copy-23" x="79" class="st6" width="12" height="9"/>
		<rect id="Rectangle-Copy-24" x="95" class="st6" width="12" height="9"/>
	</g>
	<g id="Group-22" transform="translate(15.000000, 76.000000)" class="st5">
		<rect id="Rectangle-Copy-25" class="st6" width="12" height="9"/>
		<rect id="Rectangle-Copy-26" x="16" class="st6" width="12" height="9"/>
		<rect id="Rectangle-Copy-27" x="32" class="st6" width="12" height="9"/>
		<rect id="Rectangle-Copy-28" x="47" class="st6" width="12" height="9"/>
		<rect id="Rectangle-Copy-29" x="63" class="st6" width="12" height="9"/>
		<rect id="Rectangle-Copy-30" x="79" class="st6" width="12" height="9"/>
		<rect id="Rectangle-Copy-31" x="95" class="st6" width="12" height="9"/>
	</g>
</g>
<g id="Group-15" transform="translate(146.166667, 15.348333)">
	<path id="Fill-11" class="st0" d="M38.6,64.8c-0.7,0-1.4-0.1-2.1-0.3C32,62.9,27.8,61,24,58.6c-3-1.9-3.8-5.8-2-8.7
		c1.9-3,5.8-3.8,8.7-2s6.2,3.4,9.8,4.6c3.3,1.1,5.1,4.7,3.9,8C43.7,63.1,41.3,64.8,38.6,64.8"/>
	<path id="Fill-13" class="st0" d="M13.9,46.1c-2.1,0-4.1-1-5.3-2.9C-2.4,25.9,0.4,6.5,0.5,5.6C1,2.2,4.3-0.2,7.7,0.3S13.5,4,13,7.5
		c0,0.3-2.2,15.7,6.2,28.9c1.9,2.9,1,6.8-1.9,8.7C16.3,45.8,15.1,46.1,13.9,46.1"/>
</g>
<path id="Fill-23" class="st7" d="M282.5,211.9L282.5,211.9c0,3.4-2.7,6.1-6.1,6.1H127.3c-3.4,0-6.1-2.7-6.1-6.1s2.7-6.1,6.1-6.1
	h149.1C279.8,205.7,282.5,208.5,282.5,211.9"/>
<path id="Fill-39" class="st2" d="M202.5,161.9l-0.4-0.2l-0.4,0.2c0,0-3.7,29.1-43.7,43.8h44.4h14h29.9
	C206.3,191.1,202.5,161.9,202.5,161.9"/>
<path id="Fill-41" class="st8" d="M263.8,9.1c0,3.3-27.8,5.9-62,5.9s-62-2.6-62-5.9s27.8-5.9,62-5.9C236.1,3.2,263.8,5.8,263.8,9.1"
	/>
<path id="Fill-43" class="st7" d="M276.4,0H127.3c-1.7,0-3.2,0.7-4.3,1.8c-1.1,1.1-1.8,2.6-1.8,4.3c0,3.4,2.7,6.1,6.1,6.1H140h2.2
	h119.2h2.2h12.8c3.4,0,6.1-2.7,6.1-6.1S279.8,0,276.4,0"/>
<path id="Fill-93" class="st9" d="M113.2,102c0,0.8,0.7,1.5,1.5,1.5s1.5-0.7,1.5-1.5s-0.7-1.5-1.5-1.5
	C113.9,100.5,113.2,101.2,113.2,102"/>
<path id="Fill-95" class="st2" d="M113.4,102c0,0.7,0.6,1.3,1.3,1.3c0.7,0,1.3-0.6,1.3-1.3c0-0.7-0.6-1.3-1.3-1.3
	S113.4,101.3,113.4,102"/>
</svg>
