<?xml version="1.0" encoding="utf-8"?>
<!-- Generator: Adobe Illustrator 24.0.1, SVG Export Plug-In . SVG Version: 6.00 Build 0)  -->
<svg version="1.1" id="圖層_1" xmlns="http://www.w3.org/2000/svg" xmlns:xlink="http://www.w3.org/1999/xlink" x="0px" y="0px"
	 viewBox="0 0 208 232" style="enable-background:new 0 0 208 232;" xml:space="preserve">
<style type="text/css">
	.st0{fill:#0278AE;}
	.st1{fill:#49A8D6;}
	.st2{fill:#FFFFFF;}
	.st3{fill:#31A043;}
	.st4{fill:none;stroke:#056CAE;stroke-width:1.3391;}
</style>
<title>target</title>
<desc>Created with Sketch.</desc>
<path id="Path" class="st0" d="M0.2,148.5v24c0,32.7,46.5,59.3,103.8,59.3c57.3,0,103.8-26.5,103.8-59.3v-24H0.2L0.2,148.5z"/>
<path id="Path_1_" class="st1" d="M104.1,207.7c-57.3,0-103.8-26.5-103.8-59.3c0-32.7,46.5-59.3,103.8-59.3
	c57.3,0,103.8,26.5,103.8,59.3C207.9,181.2,161.4,207.7,104.1,207.7z"/>
<path id="Path_2_" class="st2" d="M104.1,195.2c-45.2,0-81.8-20.9-81.8-46.7c0-25.8,36.6-46.7,81.8-46.7c45.2,0,81.8,20.9,81.8,46.7
	C185.9,174.3,149.2,195.2,104.1,195.2z"/>
<ellipse id="Oval" class="st1" cx="104.1" cy="148.5" rx="61.9" ry="35.3"/>
<path id="Path_3_" class="st2" d="M104.1,171.7c-22.4,0-40.6-10.4-40.6-23.2c0-12.8,18.2-23.2,40.6-23.2s40.6,10.4,40.6,23.2
	C144.7,161.3,126.5,171.7,104.1,171.7z"/>
<path id="Path_4_" class="st1" d="M104.1,160.2c-11.3,0-20.5-5.2-20.5-11.7c0-6.5,9.2-11.7,20.5-11.7s20.5,5.2,20.5,11.7
	C124.6,155,115.4,160.2,104.1,160.2z"/>
<path id="Path_5_" class="st0" d="M104.1,152.4c-3.8,0-6.9-1.8-6.9-4c0-2.2,3.1-4,6.9-4c3.8,0,6.9,1.8,6.9,4
	C111,150.7,107.9,152.4,104.1,152.4z"/>
<polygon id="Path_6_" class="st3" points="104.1,56.1 104.1,11 124.9,0 124.9,43 "/>
<polygon id="Path_7_" class="st3" points="104.1,56.1 104.1,11 83.2,0 83.2,43 "/>
<line id="Path_8_" class="st4" x1="104.1" y1="8.7" x2="104.1" y2="149.9"/>
</svg>
