<?xml version="1.0" encoding="utf-8"?>
<!-- Generator: Adobe Illustrator 24.0.1, SVG Export Plug-In . SVG Version: 6.00 Build 0)  -->
<svg version="1.1" id="圖層_1" xmlns="http://www.w3.org/2000/svg" xmlns:xlink="http://www.w3.org/1999/xlink" x="0px" y="0px"
	 viewBox="0 0 394 364" style="enable-background:new 0 0 394 364;" xml:space="preserve">
<style type="text/css">
	.st0{fill:none;}
	.st1{fill:none;stroke:#808080;stroke-miterlimit:10;}
	.st2{fill:#F5B64C;}
	.st3{fill:#FBE9C9;}
	.st4{fill:#F0C9AE;}
	.st5{fill:#EE8381;}
	.st6{fill:#4B1E0E;}
	.st7{opacity:0.1;}
	.st8{fill:#E0E2E1;}
	.st9{fill:#FFFFFF;}
	.st10{clip-path:url(#SVGID_2_);}
	.st11{fill:#EAEFEC;}
	.st12{fill:#CCCCCC;}
	.st13{fill:#005B42;}
	.st14{fill:url(#SVGID_3_);stroke:#E6E6E6;stroke-width:0.8077;stroke-miterlimit:10;}
	.st15{fill:#E6E6E6;}
	.st16{fill:url(#SVGID_4_);stroke:#E6E6E6;stroke-width:0.8077;stroke-miterlimit:10;}
	.st17{fill:none;stroke:#333333;stroke-width:13;stroke-linecap:round;stroke-miterlimit:10;}
	.st18{fill:#13AE67;}
	.st19{opacity:0.67;}
	.st20{fill:#A8A8A8;}
	.st21{fill:none;stroke:#808080;stroke-width:0.4667;stroke-linecap:round;stroke-miterlimit:10;}
	.st22{fill:none;stroke:#43C867;stroke-width:8;stroke-linecap:round;stroke-miterlimit:10;}
</style>
<pattern  x="-487" y="-202" width="6" height="6" patternUnits="userSpaceOnUse" id="新增圖樣" viewBox="42.1 -48.1 6 6" style="overflow:visible;">
	<g>
		<rect x="42.1" y="-48.1" class="st0" width="6" height="6"/>
		<g>
			<line class="st1" x1="89.9" y1="-41.9" x2="48.4" y2="-0.4"/>
			<line class="st1" x1="89.9" y1="-0.4" x2="48.4" y2="-41.9"/>
		</g>
		<g>
			<line class="st1" x1="83.9" y1="-41.9" x2="42.4" y2="-0.4"/>
			<line class="st1" x1="83.9" y1="-0.4" x2="42.4" y2="-41.9"/>
		</g>
		<g>
			<line class="st1" x1="77.9" y1="-41.9" x2="36.4" y2="-0.4"/>
			<line class="st1" x1="77.9" y1="-0.4" x2="36.4" y2="-41.9"/>
		</g>
		<g>
			<line class="st1" x1="71.9" y1="-41.9" x2="30.4" y2="-0.4"/>
			<line class="st1" x1="71.9" y1="-0.4" x2="30.4" y2="-41.9"/>
		</g>
		<g>
			<line class="st1" x1="65.9" y1="-41.9" x2="24.4" y2="-0.4"/>
			<line class="st1" x1="65.9" y1="-0.4" x2="24.4" y2="-41.9"/>
		</g>
		<g>
			<line class="st1" x1="59.9" y1="-41.9" x2="18.4" y2="-0.4"/>
			<line class="st1" x1="59.9" y1="-0.4" x2="18.4" y2="-41.9"/>
		</g>
		<g>
			<line class="st1" x1="53.9" y1="-41.9" x2="12.4" y2="-0.4"/>
			<line class="st1" x1="53.9" y1="-0.4" x2="12.4" y2="-41.9"/>
		</g>
		<g>
			<line class="st1" x1="47.9" y1="-41.9" x2="6.4" y2="-0.4"/>
			<line class="st1" x1="47.9" y1="-0.4" x2="6.4" y2="-41.9"/>
		</g>
		<g>
			<line class="st1" x1="41.9" y1="-41.9" x2="0.4" y2="-0.4"/>
			<line class="st1" x1="41.9" y1="-0.4" x2="0.4" y2="-41.9"/>
		</g>
		<g>
			<line class="st1" x1="89.9" y1="-47.9" x2="48.4" y2="-6.4"/>
			<line class="st1" x1="89.9" y1="-6.4" x2="48.4" y2="-47.9"/>
		</g>
		<g>
			<line class="st1" x1="83.9" y1="-47.9" x2="42.4" y2="-6.4"/>
			<line class="st1" x1="83.9" y1="-6.4" x2="42.4" y2="-47.9"/>
		</g>
		<g>
			<line class="st1" x1="77.9" y1="-47.9" x2="36.4" y2="-6.4"/>
			<line class="st1" x1="77.9" y1="-6.4" x2="36.4" y2="-47.9"/>
		</g>
		<g>
			<line class="st1" x1="71.9" y1="-47.9" x2="30.4" y2="-6.4"/>
			<line class="st1" x1="71.9" y1="-6.4" x2="30.4" y2="-47.9"/>
		</g>
		<g>
			<line class="st1" x1="65.9" y1="-47.9" x2="24.4" y2="-6.4"/>
			<line class="st1" x1="65.9" y1="-6.4" x2="24.4" y2="-47.9"/>
		</g>
		<g>
			<line class="st1" x1="59.9" y1="-47.9" x2="18.4" y2="-6.4"/>
			<line class="st1" x1="59.9" y1="-6.4" x2="18.4" y2="-47.9"/>
		</g>
		<g>
			<line class="st1" x1="53.9" y1="-47.9" x2="12.4" y2="-6.4"/>
			<line class="st1" x1="53.9" y1="-6.4" x2="12.4" y2="-47.9"/>
		</g>
		<g>
			<line class="st1" x1="47.9" y1="-47.9" x2="6.4" y2="-6.4"/>
			<line class="st1" x1="47.9" y1="-6.4" x2="6.4" y2="-47.9"/>
		</g>
		<g>
			<line class="st1" x1="41.9" y1="-47.9" x2="0.4" y2="-6.4"/>
			<line class="st1" x1="41.9" y1="-6.4" x2="0.4" y2="-47.9"/>
		</g>
		<g>
			<line class="st1" x1="89.9" y1="-53.9" x2="48.4" y2="-12.4"/>
			<line class="st1" x1="89.9" y1="-12.4" x2="48.4" y2="-53.9"/>
		</g>
		<g>
			<line class="st1" x1="83.9" y1="-53.9" x2="42.4" y2="-12.4"/>
			<line class="st1" x1="83.9" y1="-12.4" x2="42.4" y2="-53.9"/>
		</g>
		<g>
			<line class="st1" x1="77.9" y1="-53.9" x2="36.4" y2="-12.4"/>
			<line class="st1" x1="77.9" y1="-12.4" x2="36.4" y2="-53.9"/>
		</g>
		<g>
			<line class="st1" x1="71.9" y1="-53.9" x2="30.4" y2="-12.4"/>
			<line class="st1" x1="71.9" y1="-12.4" x2="30.4" y2="-53.9"/>
		</g>
		<g>
			<line class="st1" x1="65.9" y1="-53.9" x2="24.4" y2="-12.4"/>
			<line class="st1" x1="65.9" y1="-12.4" x2="24.4" y2="-53.9"/>
		</g>
		<g>
			<line class="st1" x1="59.9" y1="-53.9" x2="18.4" y2="-12.4"/>
			<line class="st1" x1="59.9" y1="-12.4" x2="18.4" y2="-53.9"/>
		</g>
		<g>
			<line class="st1" x1="53.9" y1="-53.9" x2="12.4" y2="-12.4"/>
			<line class="st1" x1="53.9" y1="-12.4" x2="12.4" y2="-53.9"/>
		</g>
		<g>
			<line class="st1" x1="47.9" y1="-53.9" x2="6.4" y2="-12.4"/>
			<line class="st1" x1="47.9" y1="-12.4" x2="6.4" y2="-53.9"/>
		</g>
		<g>
			<line class="st1" x1="41.9" y1="-53.9" x2="0.4" y2="-12.4"/>
			<line class="st1" x1="41.9" y1="-12.4" x2="0.4" y2="-53.9"/>
		</g>
		<g>
			<line class="st1" x1="89.9" y1="-59.9" x2="48.4" y2="-18.4"/>
			<line class="st1" x1="89.9" y1="-18.4" x2="48.4" y2="-59.9"/>
		</g>
		<g>
			<line class="st1" x1="83.9" y1="-59.9" x2="42.4" y2="-18.4"/>
			<line class="st1" x1="83.9" y1="-18.4" x2="42.4" y2="-59.9"/>
		</g>
		<g>
			<line class="st1" x1="77.9" y1="-59.9" x2="36.4" y2="-18.4"/>
			<line class="st1" x1="77.9" y1="-18.4" x2="36.4" y2="-59.9"/>
		</g>
		<g>
			<line class="st1" x1="71.9" y1="-59.9" x2="30.4" y2="-18.4"/>
			<line class="st1" x1="71.9" y1="-18.4" x2="30.4" y2="-59.9"/>
		</g>
		<g>
			<line class="st1" x1="65.9" y1="-59.9" x2="24.4" y2="-18.4"/>
			<line class="st1" x1="65.9" y1="-18.4" x2="24.4" y2="-59.9"/>
		</g>
		<g>
			<line class="st1" x1="59.9" y1="-59.9" x2="18.4" y2="-18.4"/>
			<line class="st1" x1="59.9" y1="-18.4" x2="18.4" y2="-59.9"/>
		</g>
		<g>
			<line class="st1" x1="53.9" y1="-59.9" x2="12.4" y2="-18.4"/>
			<line class="st1" x1="53.9" y1="-18.4" x2="12.4" y2="-59.9"/>
		</g>
		<g>
			<line class="st1" x1="47.9" y1="-59.9" x2="6.4" y2="-18.4"/>
			<line class="st1" x1="47.9" y1="-18.4" x2="6.4" y2="-59.9"/>
		</g>
		<g>
			<line class="st1" x1="41.9" y1="-59.9" x2="0.4" y2="-18.4"/>
			<line class="st1" x1="41.9" y1="-18.4" x2="0.4" y2="-59.9"/>
		</g>
		<g>
			<line class="st1" x1="89.9" y1="-65.9" x2="48.4" y2="-24.4"/>
			<line class="st1" x1="89.9" y1="-24.4" x2="48.4" y2="-65.9"/>
		</g>
		<g>
			<line class="st1" x1="83.9" y1="-65.9" x2="42.4" y2="-24.4"/>
			<line class="st1" x1="83.9" y1="-24.4" x2="42.4" y2="-65.9"/>
		</g>
		<g>
			<line class="st1" x1="77.9" y1="-65.9" x2="36.4" y2="-24.4"/>
			<line class="st1" x1="77.9" y1="-24.4" x2="36.4" y2="-65.9"/>
		</g>
		<g>
			<line class="st1" x1="71.9" y1="-65.9" x2="30.4" y2="-24.4"/>
			<line class="st1" x1="71.9" y1="-24.4" x2="30.4" y2="-65.9"/>
		</g>
		<g>
			<line class="st1" x1="65.9" y1="-65.9" x2="24.4" y2="-24.4"/>
			<line class="st1" x1="65.9" y1="-24.4" x2="24.4" y2="-65.9"/>
		</g>
		<g>
			<line class="st1" x1="59.9" y1="-65.9" x2="18.4" y2="-24.4"/>
			<line class="st1" x1="59.9" y1="-24.4" x2="18.4" y2="-65.9"/>
		</g>
		<g>
			<line class="st1" x1="53.9" y1="-65.9" x2="12.4" y2="-24.4"/>
			<line class="st1" x1="53.9" y1="-24.4" x2="12.4" y2="-65.9"/>
		</g>
		<g>
			<line class="st1" x1="47.9" y1="-65.9" x2="6.4" y2="-24.4"/>
			<line class="st1" x1="47.9" y1="-24.4" x2="6.4" y2="-65.9"/>
		</g>
		<g>
			<line class="st1" x1="41.9" y1="-65.9" x2="0.4" y2="-24.4"/>
			<line class="st1" x1="41.9" y1="-24.4" x2="0.4" y2="-65.9"/>
		</g>
		<g>
			<line class="st1" x1="89.9" y1="-71.9" x2="48.4" y2="-30.4"/>
			<line class="st1" x1="89.9" y1="-30.4" x2="48.4" y2="-71.9"/>
		</g>
		<g>
			<line class="st1" x1="83.9" y1="-71.9" x2="42.4" y2="-30.4"/>
			<line class="st1" x1="83.9" y1="-30.4" x2="42.4" y2="-71.9"/>
		</g>
		<g>
			<line class="st1" x1="77.9" y1="-71.9" x2="36.4" y2="-30.4"/>
			<line class="st1" x1="77.9" y1="-30.4" x2="36.4" y2="-71.9"/>
		</g>
		<g>
			<line class="st1" x1="71.9" y1="-71.9" x2="30.4" y2="-30.4"/>
			<line class="st1" x1="71.9" y1="-30.4" x2="30.4" y2="-71.9"/>
		</g>
		<g>
			<line class="st1" x1="65.9" y1="-71.9" x2="24.4" y2="-30.4"/>
			<line class="st1" x1="65.9" y1="-30.4" x2="24.4" y2="-71.9"/>
		</g>
		<g>
			<line class="st1" x1="59.9" y1="-71.9" x2="18.4" y2="-30.4"/>
			<line class="st1" x1="59.9" y1="-30.4" x2="18.4" y2="-71.9"/>
		</g>
		<g>
			<line class="st1" x1="53.9" y1="-71.9" x2="12.4" y2="-30.4"/>
			<line class="st1" x1="53.9" y1="-30.4" x2="12.4" y2="-71.9"/>
		</g>
		<g>
			<line class="st1" x1="47.9" y1="-71.9" x2="6.4" y2="-30.4"/>
			<line class="st1" x1="47.9" y1="-30.4" x2="6.4" y2="-71.9"/>
		</g>
		<g>
			<line class="st1" x1="41.9" y1="-71.9" x2="0.4" y2="-30.4"/>
			<line class="st1" x1="41.9" y1="-30.4" x2="0.4" y2="-71.9"/>
		</g>
		<g>
			<line class="st1" x1="89.9" y1="-77.9" x2="48.4" y2="-36.4"/>
			<line class="st1" x1="89.9" y1="-36.4" x2="48.4" y2="-77.9"/>
		</g>
		<g>
			<line class="st1" x1="83.9" y1="-77.9" x2="42.4" y2="-36.4"/>
			<line class="st1" x1="83.9" y1="-36.4" x2="42.4" y2="-77.9"/>
		</g>
		<g>
			<line class="st1" x1="77.9" y1="-77.9" x2="36.4" y2="-36.4"/>
			<line class="st1" x1="77.9" y1="-36.4" x2="36.4" y2="-77.9"/>
		</g>
		<g>
			<line class="st1" x1="71.9" y1="-77.9" x2="30.4" y2="-36.4"/>
			<line class="st1" x1="71.9" y1="-36.4" x2="30.4" y2="-77.9"/>
		</g>
		<g>
			<line class="st1" x1="65.9" y1="-77.9" x2="24.4" y2="-36.4"/>
			<line class="st1" x1="65.9" y1="-36.4" x2="24.4" y2="-77.9"/>
		</g>
		<g>
			<line class="st1" x1="59.9" y1="-77.9" x2="18.4" y2="-36.4"/>
			<line class="st1" x1="59.9" y1="-36.4" x2="18.4" y2="-77.9"/>
		</g>
		<g>
			<line class="st1" x1="53.9" y1="-77.9" x2="12.4" y2="-36.4"/>
			<line class="st1" x1="53.9" y1="-36.4" x2="12.4" y2="-77.9"/>
		</g>
		<g>
			<line class="st1" x1="47.9" y1="-77.9" x2="6.4" y2="-36.4"/>
			<line class="st1" x1="47.9" y1="-36.4" x2="6.4" y2="-77.9"/>
		</g>
		<g>
			<line class="st1" x1="41.9" y1="-77.9" x2="0.4" y2="-36.4"/>
			<line class="st1" x1="41.9" y1="-36.4" x2="0.4" y2="-77.9"/>
		</g>
		<g>
			<line class="st1" x1="89.9" y1="-83.9" x2="48.4" y2="-42.4"/>
			<line class="st1" x1="89.9" y1="-42.4" x2="48.4" y2="-83.9"/>
		</g>
		<g>
			<line class="st1" x1="83.9" y1="-83.9" x2="42.4" y2="-42.4"/>
			<line class="st1" x1="83.9" y1="-42.4" x2="42.4" y2="-83.9"/>
		</g>
		<g>
			<line class="st1" x1="77.9" y1="-83.9" x2="36.4" y2="-42.4"/>
			<line class="st1" x1="77.9" y1="-42.4" x2="36.4" y2="-83.9"/>
		</g>
		<g>
			<line class="st1" x1="71.9" y1="-83.9" x2="30.4" y2="-42.4"/>
			<line class="st1" x1="71.9" y1="-42.4" x2="30.4" y2="-83.9"/>
		</g>
		<g>
			<line class="st1" x1="65.9" y1="-83.9" x2="24.4" y2="-42.4"/>
			<line class="st1" x1="65.9" y1="-42.4" x2="24.4" y2="-83.9"/>
		</g>
		<g>
			<line class="st1" x1="59.9" y1="-83.9" x2="18.4" y2="-42.4"/>
			<line class="st1" x1="59.9" y1="-42.4" x2="18.4" y2="-83.9"/>
		</g>
		<g>
			<line class="st1" x1="53.9" y1="-83.9" x2="12.4" y2="-42.4"/>
			<line class="st1" x1="53.9" y1="-42.4" x2="12.4" y2="-83.9"/>
		</g>
		<g>
			<line class="st1" x1="47.9" y1="-83.9" x2="6.4" y2="-42.4"/>
			<line class="st1" x1="47.9" y1="-42.4" x2="6.4" y2="-83.9"/>
		</g>
		<g>
			<line class="st1" x1="41.9" y1="-83.9" x2="0.4" y2="-42.4"/>
			<line class="st1" x1="41.9" y1="-42.4" x2="0.4" y2="-83.9"/>
		</g>
		<g>
			<line class="st1" x1="89.9" y1="-89.9" x2="48.4" y2="-48.4"/>
			<line class="st1" x1="89.9" y1="-48.4" x2="48.4" y2="-89.9"/>
		</g>
		<g>
			<line class="st1" x1="83.9" y1="-89.9" x2="42.4" y2="-48.4"/>
			<line class="st1" x1="83.9" y1="-48.4" x2="42.4" y2="-89.9"/>
		</g>
		<g>
			<line class="st1" x1="77.9" y1="-89.9" x2="36.4" y2="-48.4"/>
			<line class="st1" x1="77.9" y1="-48.4" x2="36.4" y2="-89.9"/>
		</g>
		<g>
			<line class="st1" x1="71.9" y1="-89.9" x2="30.4" y2="-48.4"/>
			<line class="st1" x1="71.9" y1="-48.4" x2="30.4" y2="-89.9"/>
		</g>
		<g>
			<line class="st1" x1="65.9" y1="-89.9" x2="24.4" y2="-48.4"/>
			<line class="st1" x1="65.9" y1="-48.4" x2="24.4" y2="-89.9"/>
		</g>
		<g>
			<line class="st1" x1="59.9" y1="-89.9" x2="18.4" y2="-48.4"/>
			<line class="st1" x1="59.9" y1="-48.4" x2="18.4" y2="-89.9"/>
		</g>
		<g>
			<line class="st1" x1="53.9" y1="-89.9" x2="12.4" y2="-48.4"/>
			<line class="st1" x1="53.9" y1="-48.4" x2="12.4" y2="-89.9"/>
		</g>
		<g>
			<line class="st1" x1="47.9" y1="-89.9" x2="6.4" y2="-48.4"/>
			<line class="st1" x1="47.9" y1="-48.4" x2="6.4" y2="-89.9"/>
		</g>
		<g>
			<line class="st1" x1="41.9" y1="-89.9" x2="0.4" y2="-48.4"/>
			<line class="st1" x1="41.9" y1="-48.4" x2="0.4" y2="-89.9"/>
		</g>
	</g>
</pattern>
<circle class="st2" cx="193.6" cy="210.7" r="151.5"/>
<g>
	<path class="st3" d="M283.4,157.4c-18-35.9-62.4-49.2-93.5-52.4c0,0-32.1-4.5-27.2,10.2c0,0,10.2,16.7-19.7,11.1
		c-38.1-7.2-64.9,63.1-57,104.9c7.6,40.6,54.2,70,131.7,59c7.9-1.1,38.3-8.3,51.4-17.1C323.8,236.1,298.4,187.3,283.4,157.4z"/>
	<g>
		<path class="st4" d="M257.4,184.1c-1.6-1-3.7-0.6-4.8,1l-5.4,8.3c-1,1.6-0.6,3.7,1,4.8c0.8,0.5,1.7,0.7,2.6,0.5
			c0.9-0.2,1.7-0.7,2.2-1.5l5.4-8.3C259.5,187.3,259,185.2,257.4,184.1z"/>
	</g>
	<g>
		<path class="st4" d="M267.4,186.7c-1.6-1-3.7-0.6-4.8,1l-5.4,8.3c-1,1.6-0.6,3.7,1,4.8c0.8,0.5,1.7,0.7,2.6,0.5
			c0.9-0.2,1.7-0.7,2.2-1.5l5.4-8.3C269.5,189.9,269,187.7,267.4,186.7z"/>
	</g>
	<g>
		<path class="st4" d="M130.5,190.3c-1.6-1-3.7-0.6-4.8,1l-5.4,8.3c-1,1.6-0.6,3.7,1,4.8c0.8,0.5,1.7,0.7,2.6,0.5
			c0.9-0.2,1.7-0.7,2.2-1.5l5.4-8.3C132.5,193.5,132.1,191.3,130.5,190.3z"/>
	</g>
	<g>
		<path class="st4" d="M140.5,192.9c-1.6-1-3.7-0.6-4.8,1l-5.4,8.3c-1,1.6-0.6,3.7,1,4.8c0.8,0.5,1.7,0.7,2.6,0.5
			c0.9-0.2,1.7-0.7,2.2-1.5l5.4-8.3C142.5,196,142.1,193.9,140.5,192.9z"/>
	</g>
	<path class="st5" d="M185.8,235.3c0,0,2.2,23,18,20.4c15.9-2.6,12.7-22.2,12.7-27.4s-15.7-12.4-15.7-12.4L185.8,235.3z"/>
	<g>
		<path class="st4" d="M249,207c-4.2-4.6-10.7-6.6-16.7-7.3c-9.9-1.1-20.3,2.2-27.8,8.9c-2.2,2-3.4,4.5-3.7,7.3
			c-0.6-1.4-1.5-2.7-2.4-3.9c-7.3-9.1-20.1-12.7-31.4-11.9c-8.5,0.6-18.5,2.4-25.2,8.3c-0.1,0.1-0.2,0.1-0.2,0.2
			c-5.5,5-7.9,13.9-3.2,20.3c3.3,4.4,9.5,6.7,14.6,8.1c11.9,3.4,26.9,4.8,38.2-1.2c3.7-1.9,6.9-4.8,8.9-8.4c0.9-1.6,1.5-3.3,1.7-5
			c1.6,3.4,5,5.2,8.6,6.2c8.5,2.5,18.1,3.4,26.8,1.2C246.7,227.3,257.9,216.6,249,207z"/>
	</g>
	<g>
		<path class="st6" d="M204.5,221.1c4.3-1.4,10.5-5.2,10.2-12.1c-0.4-11.1-15.8-13.7-23.6-12.7c-9,1.2-16.7,10.1-15,18.5
			c1.5,7.1,11.3,8.1,18.5,8.1C194.7,222.8,200.2,222.5,204.5,221.1z"/>
	</g>
	<g>
		<path class="st6" d="M159.3,197L159.3,197c-6.1-0.5-10.6-5.9-10.1-11.9v0c0.5-6.1,5.9-10.6,11.9-10.1h0
			c6.1,0.5,10.6,5.9,10.1,11.9v0C170.8,192.9,165.4,197.5,159.3,197z"/>
	</g>
	<g>
		<path class="st6" d="M227.4,195.7L227.4,195.7c-6.1-0.5-10.6-5.9-10.1-11.9v0c0.5-6.1,5.9-10.6,11.9-10.1l0,0
			c6.1,0.5,10.6,5.9,10.1,11.9v0C238.8,191.7,233.5,196.2,227.4,195.7z"/>
	</g>
	
		<ellipse transform="matrix(8.219282e-02 -0.9966 0.9966 8.219282e-02 39.5829 361.3546)" class="st6" cx="216" cy="159.2" rx="4.9" ry="7.5"/>
	
		<ellipse transform="matrix(8.219282e-02 -0.9966 0.9966 8.219282e-02 -7.9654 311.2393)" class="st6" cx="165" cy="159.9" rx="4.9" ry="7.5"/>
	<g>
		<path class="st4" d="M217.8,256.8c-1.7-0.2-3.2,1.1-3.4,2.8c-0.2,2.1-5.1,4.5-8.3,5.3c-6.5,1.5-11.9-0.3-13.4-1.1
			c-0.6-0.8-1.5-1.3-2.5-1.2c-1.7,0-3.1,1.5-3,3.2c0,0.8,0.3,1.9,1.6,2.8c2.7,2.1,10.6,4.3,18.9,2.4c0.2,0,0.6-0.2,1.2-0.4
			c3.2-1,11.2-4.1,11.8-10.4C220.7,258.5,219.5,257,217.8,256.8z M193.4,265.6C193.4,265.6,193.4,265.6,193.4,265.6
			C193.4,265.6,193.4,265.6,193.4,265.6z"/>
	</g>
</g>
<path class="st7" d="M63.2,182.2c13-11,24-57,124-58s140,56,140,56l13-24l-58-72l-130,11l-81.2,31.3l-18.8,42.7L63.2,182.2z"/>
<g>
	<path class="st8" d="M184.1,364.2c-31.8,0-63.8-18.1-90.3-34.8c-24.5-15.5-42-55.9-48-76l30.2-5.1c9,30.5,56.2,64.1,109.4,63.4
		c30.1-0.3,60.5-7.3,83.4-19.1c17.7-9.1,39.3-25.6,41.1-52.2l31,1.2c-2,28.7-25.6,65.9-54.6,90.4c-25.1,21.2-64.4,31.8-100.4,32.2
		C185.3,364.2,184.7,364.2,184.1,364.2z"/>
</g>
<path class="st9" d="M61.2,172.5c0,0,9.3-58.7,134-58.7S322,167.4,322,167.4s-33,106.1,11.3,104.1c44.3-2.1,40.2-70.1,26.8-105.1
	S314.8,37.5,193.2,38.6c-121.6,1-163.9,93.8-169,138.1S20,282.8,52,282.8S88,226.1,61.2,172.5z"/>
<g>
	<defs>
		<path id="SVGID_1_" d="M61.2,172.5c0,0,9.3-58.7,134-58.7S322,167.4,322,167.4s-33,106.1,11.3,104.1
			c44.3-2.1,40.2-70.1,26.8-105.1S314.8,37.5,193.2,38.6c-121.6,1-163.9,93.8-169,138.1S20,282.8,52,282.8S88,226.1,61.2,172.5z"/>
	</defs>
	<clipPath id="SVGID_2_">
		<use xlink:href="#SVGID_1_"  style="overflow:visible;"/>
	</clipPath>
	<g class="st10">
		<g>
			<g>
				<path class="st11" d="M92.3,46.7c-3.3,16.1,0.2,32.7,7.6,47.1c7.7,14.8,19.5,27,32.5,37.1c7.4,5.8,15.3,11,23.3,15.9
					c1.7,1,3.2-1.6,1.5-2.6c-13.8-8.5-27.2-17.8-38.4-29.5c-11-11.5-19.6-25.4-23.2-41.1c-2-8.6-2.3-17.6-0.5-26.2
					C95.6,45.6,92.7,44.8,92.3,46.7L92.3,46.7z"/>
			</g>
		</g>
		<g>
			<g>
				<path class="st11" d="M295.9,47.5c3.2,15.5-0.4,31.7-7.7,45.6c-7.5,14.3-19,26-31.7,35.8c-7.2,5.6-14.9,10.6-22.7,15.4
					c-1.6,1-0.1,3.6,1.5,2.6c14.2-8.7,28.1-18.4,39.6-30.6c11.3-11.9,20.1-26.4,23.6-42.6c1.9-8.9,2.1-18.1,0.3-27
					C298.4,44.8,295.5,45.6,295.9,47.5L295.9,47.5z"/>
			</g>
		</g>
	</g>
</g>
<g>
	<path class="st12" d="M376.4,180.5c-5.4-2.9-5.2-7-20.3-7.6c-10.2-0.4-19.2,18.5-20.2,42.3c-0.9,23.7,6.6,43.3,16.8,43.7
		c12.3,0.5,13-2.3,19.5-4.9S381.9,183.4,376.4,180.5z"/>
	
		<ellipse transform="matrix(3.849379e-02 -0.9993 0.9993 3.849379e-02 140.4653 579.0665)" class="st13" cx="371.1" cy="216.5" rx="37.3" ry="16.1"/>
	
		<pattern  id="SVGID_3_" xlink:href="#啣璅" patternTransform="matrix(1.0761 4.145353e-02 -4.145353e-02 1.0761 226.9149 866.527)">
	</pattern>
	<path class="st14" d="M387.2,217.2c-0.8,20.6-8.6,37-17.5,36.7c-8.9-0.3-15.4-17.3-14.6-37.9s8.6-37,17.5-36.7
		C381.4,179.6,388,196.6,387.2,217.2z"/>
	<g>
		<path class="st15" d="M372.3,179.2l0,6.5c0.8,0,3.1,1.8,5.2,7.2c2.4,6.3,3.6,15,3.3,24c-0.8,21-8.5,30.5-10.8,30.5
			c-2.5-0.1-9.2-11-8.4-31.2c0.8-21,8.5-30.5,10.8-30.5L372.3,179.2 M372.3,179.2c-8.8,0-16.4,16.3-17.2,36.7
			c-0.8,20.6,5.8,37.6,14.6,37.9c0.1,0,0.2,0,0.3,0c8.8,0,16.4-16.3,17.2-36.7c0.8-20.6-5.8-37.6-14.6-37.9
			C372.5,179.2,372.4,179.2,372.3,179.2L372.3,179.2z"/>
	</g>
</g>
<g>
	<path class="st12" d="M22.4,263.9c5.8,2,6.2,6.1,21.2,4.2c10.1-1.3,16-21.4,13.1-45s-13.5-41.7-23.6-40.4
		c-12.2,1.5-12.4,4.4-18.5,8C8.5,194.3,16.6,261.9,22.4,263.9z"/>
	
		<ellipse transform="matrix(0.9925 -0.1225 0.1225 0.9925 -27.7003 4.3874)" class="st13" cx="21.8" cy="227.4" rx="16.1" ry="37.3"/>
	<pattern  id="SVGID_4_" xlink:href="#啣璅" patternTransform="matrix(1.0688 -0.1319 0.1319 1.0688 1414.241 -395.1366)">
	</pattern>
	<path class="st16" d="M5.9,229.4c-2.5-20.5,2.6-37.9,11.4-39c8.8-1.1,18,14.6,20.5,35.1s-2.6,37.9-11.4,39
		C17.6,265.6,8.4,249.9,5.9,229.4z"/>
	<g>
		<path class="st15" d="M18.1,196.8L18.1,196.8c0.7,0,3.3,1.3,6.5,6.9c3.3,5.9,5.7,13.9,6.8,22.6c2.5,20.1-3.3,31.5-5.8,31.8
			c0,0,0,0-0.1,0c-0.7,0-3.3-1.3-6.5-6.9c-3.3-5.9-5.7-13.9-6.8-22.6C9.8,208.5,15.6,197.1,18.1,196.8
			C18.1,196.8,18.1,196.8,18.1,196.8 M18.1,190.3c-0.3,0-0.6,0-0.9,0.1c-8.8,1.1-13.9,18.6-11.4,39c2.4,19.8,11.1,35.2,19.7,35.2
			c0.3,0,0.6,0,0.9-0.1c8.8-1.1,13.9-18.6,11.4-39C35.3,205.7,26.7,190.3,18.1,190.3L18.1,190.3z"/>
	</g>
</g>
<g>
	<line class="st17" x1="194" y1="42.8" x2="194" y2="20.8"/>
	<circle class="st18" cx="193.5" cy="16.8" r="17"/>
	<g>
		<g>
			<path class="st9" d="M195.5,7.8c0.7,0.1,1.5,0.4,2.2,0.7c-0.2-0.1-0.5-0.2-0.7-0.3c0.8,0.4,1.6,0.8,2.4,1.4
				c-0.2-0.2-0.4-0.3-0.6-0.5c0.8,0.6,1.4,1.3,2,2c-0.2-0.2-0.3-0.4-0.5-0.6c0.4,0.6,0.8,1.2,1.1,1.8c0.3,0.6,1.1,1.2,1.8,1.4
				c0.7,0.2,1.7,0.1,2.3-0.3c0.6-0.4,1.2-1,1.4-1.8c0.2-0.8,0.1-1.6-0.3-2.3c-1.8-3.7-5.5-6.5-9.5-7.3c-0.8-0.2-1.6-0.1-2.3,0.3
				c-0.6,0.4-1.2,1.1-1.4,1.8c-0.2,0.8-0.1,1.6,0.3,2.3C194.1,7,194.7,7.6,195.5,7.8L195.5,7.8z"/>
		</g>
	</g>
	<g>
		<g>
			<path class="st9" d="M202.3,20.7c0,0.1,0.1,0.1,0.1,0.2c-0.1-0.2-0.2-0.5-0.3-0.7c0.1,0.3,0.2,0.6,0.3,1c0-0.3-0.1-0.5-0.1-0.8
				c0,0.4,0,0.7,0,1.1C202.3,21.1,202.3,20.9,202.3,20.7c0,0.3-0.1,0.6-0.2,0.9c0.1-0.2,0.2-0.5,0.3-0.7c-0.1,0.2-0.2,0.3-0.2,0.5
				c-0.2,0.3-0.3,0.7-0.4,1.1c-0.1,0.4-0.1,0.8,0.1,1.2c0.1,0.4,0.3,0.7,0.5,1c0.2,0.3,0.5,0.6,0.8,0.8c0.7,0.4,1.5,0.6,2.3,0.3
				c0.7-0.2,1.4-0.7,1.8-1.4c0.1-0.1,0.2-0.3,0.2-0.4c0.2-0.4,0.3-0.7,0.5-1.1c0-0.2,0.1-0.3,0.1-0.5c0.1-0.4,0.1-0.8,0.2-1.3
				c0-0.2,0-0.3,0-0.5c0-0.4-0.1-0.8-0.2-1.2c-0.1-0.6-0.4-1.1-0.6-1.6c-0.2-0.3-0.4-0.6-0.8-0.8c-0.3-0.3-0.6-0.4-1-0.5
				c-0.4-0.1-0.8-0.1-1.2-0.1c-0.4,0-0.8,0.1-1.1,0.4c-0.6,0.4-1.2,1-1.4,1.8c0,0.3-0.1,0.5-0.1,0.8C201.9,19.7,202,20.2,202.3,20.7
				L202.3,20.7z"/>
		</g>
	</g>
</g>
<g class="st19">
	<path class="st9" d="M281.8,210.3c-4.5-24.1-16.7-46.6-34.6-63.4l19.9-21c22.2,21,37.6,49.1,43.1,79.2L281.8,210.3z"/>
</g>
<g>
	<circle class="st20" cx="37.2" cy="188.2" r="2"/>
	<line class="st21" x1="38.9" y1="188.1" x2="35.6" y2="188.2"/>
	<line class="st21" x1="37.2" y1="186.7" x2="37.3" y2="189.7"/>
</g>
<g>
	<circle class="st20" cx="52.2" cy="219.2" r="2"/>
	<line class="st21" x1="53.9" y1="219.1" x2="50.6" y2="219.2"/>
	<line class="st21" x1="52.2" y1="217.7" x2="52.3" y2="220.7"/>
</g>
<g>
	<circle class="st20" cx="49.2" cy="258.2" r="2"/>
	<line class="st21" x1="50.9" y1="258.1" x2="47.6" y2="258.2"/>
	<line class="st21" x1="49.2" y1="256.7" x2="49.3" y2="259.7"/>
</g>
<g>
	<circle class="st20" cx="355.2" cy="177.2" r="2"/>
	<line class="st21" x1="356.9" y1="177.1" x2="353.6" y2="177.2"/>
	<line class="st21" x1="355.2" y1="175.7" x2="355.3" y2="178.7"/>
</g>
<g>
	<circle class="st20" cx="340.2" cy="212.2" r="2"/>
	<line class="st21" x1="341.9" y1="212.1" x2="338.6" y2="212.2"/>
	<line class="st21" x1="340.2" y1="210.7" x2="340.3" y2="213.7"/>
</g>
<g>
	<circle class="st20" cx="350.2" cy="254.2" r="2"/>
	<line class="st21" x1="351.9" y1="254.1" x2="348.6" y2="254.2"/>
	<line class="st21" x1="350.2" y1="252.7" x2="350.3" y2="255.7"/>
</g>
<path class="st22" d="M61.7,171.7c6-14,27.8-56.9,128-58c100.2-1.1,126.9,40.4,132,53"/>
</svg>
