<?xml version="1.0" encoding="UTF-8"?>
<svg width="36px" height="36px" viewBox="0 0 36 36" version="1.1" xmlns="http://www.w3.org/2000/svg" xmlns:xlink="http://www.w3.org/1999/xlink">
    <!-- Generator: Sketch 61.2 (89653) - https://sketch.com -->
    <title>Interface-Essential / Navigate / navigation-right-circle-1_1</title>
    <desc>Created with Sketch.</desc>
    <g id="新建投組" stroke="none" stroke-width="1" fill="none" fill-rule="evenodd">
        <g id="LandingPage-新建投組-PC" transform="translate(-1785.000000, -2667.000000)" fill="#31A043" fill-rule="nonzero">
            <g id="Group-13" transform="translate(100.000000, 2667.000000)">
                <g id="Interface-Essential-/-Navigate-/-navigation-right-circle-1_1" transform="translate(1685.000000, 0.000000)">
                    <g id="Group">
                        <g id="navigation-right-circle-1_1">
                            <path d="M-2.00073291e-15,18 C-2.00073291e-15,27.9411255 8.0588745,36 18,36 C27.9411255,36 36,27.9411255 36,18 C36,8.0588745 27.9411255,0 18,0 C8.06367179,0.0115721434 0.0115721434,8.06367179 -2.00073291e-15,18 Z M20.5605,10.1865 L27.3105,16.9365 C27.8960729,17.5222498 27.8960729,18.4717502 27.3105,19.0575 L20.5605,25.8075 C19.9719317,26.3759583 19.0363728,26.3678286 18.4577721,25.7892279 C17.8791714,25.2106272 17.8710417,24.2750683 18.4395,23.6865 L21.9885,20.136 C22.0928615,20.0283485 22.1230692,19.8688806 22.0653097,19.7305187 C22.0075501,19.5921569 21.8729264,19.5014983 21.723,19.5 L9,19.5 C8.17157288,19.5 7.5,18.8284271 7.5,18 C7.5,17.1715729 8.17157288,16.5 9,16.5 L21.723,16.5 C21.8748817,16.5002717 22.0119289,16.4089028 22.0700882,16.2685975 C22.1282476,16.1282921 22.0960326,15.9667606 21.9885,15.8595 L18.4395,12.3075 C17.8710417,11.7189317 17.8791714,10.7833728 18.4577721,10.2047721 C19.0363728,9.62617144 19.9719317,9.61804169 20.5605,10.1865 Z" id="Shape"></path>
                        </g>
                    </g>
                </g>
            </g>
        </g>
    </g>
</svg>