<?xml version="1.0" encoding="utf-8"?>
<!-- Generator: Adobe Illustrator 24.0.1, SVG Export Plug-In . SVG Version: 6.00 Build 0)  -->
<svg version="1.1" id="圖層_1" xmlns="http://www.w3.org/2000/svg" xmlns:xlink="http://www.w3.org/1999/xlink" x="0px" y="0px"
	 viewBox="0 0 293 268" style="enable-background:new 0 0 293 268;" xml:space="preserve">
<style type="text/css">
	.st0{fill:none;stroke:#C1CD00;stroke-width:3;stroke-linejoin:round;}
	.st1{fill:#C1CD00;}
</style>
<title>talk</title>
<desc>Created with Sketch.</desc>
<path id="Path" class="st0" d="M133.6,248c-0.9-3-1.3-6.1-1-9.2c0.9-9.6,3.7-18.5,8.8-26.8c4-6.5,9.5-10.6,16.8-12.5
	c9.5-2.5,18.9-5.1,28.4-7.6c14-3.8,28.2-6.8,42.2-11c8.4-2.6,16.9-5,25.2-8c7.3-2.7,13.9-6.5,20.1-11.1c3.7-2.8,6.7-6.1,9.4-9.9
	c4.7-6.8,7-14.3,7.3-22.5c0.3-8.5-0.4-17-1.8-25.4c-1.1-6.3-2.2-12.6-3.3-18.8c-2.4-13-22.9-46-28-53.1
	c-4.7-6.5-10.6-10.9-18.7-12.3c-7-1.2-14-1.4-20.9-0.3c-2.9,0.4-5.8,0.8-8.7,1.2c-8.5,1.4-17.1,2.7-25.6,4.2
	c-8.5,1.5-17,3.2-25.5,4.9c-7.2,1.4-14.4,2.7-21.6,4.4c-12.4,2.9-24.6,6.7-36.6,10.9c-9.2,3.3-18.5,6.4-27.8,9.6
	c-1.4,0.5-2.8,1-4.1,1.6c-8,3.7-16,7.3-23.9,11.3c-8.2,4.1-16.1,8.7-22.7,15.2c-4.2,4.1-7.6,8.6-9.4,14.1
	c-1.9,5.6-2.7,11.6-2.2,17.4c0.8,8.8,3.1,21.8,6.2,34.9c1.6,6.8,4.3,13.3,6.6,20c1.3,3.7,3.1,7.3,4,11c0.7,3.1,2,5.9,3.5,8.5
	c2.4,4.1,4.6,8.3,7.9,11.8c2.4,2.6,4.8,5.3,7.2,8c2.1,2.4,6.8,5.2,9.8,6.1c10.3,3,20.7,2.7,31.1,1c7.2-1.2,14.4-2.7,21.7-4.1
	c7.4-1.6,7.2,6.4,7.5,7.7c1.4,5.2,2.6,10.5,4.7,15.5c2.2,5,4.6,10.1,8.3,14.3c1.9,2.1,3.8,4.3,7,5.4C134.8,252,134.3,250,133.6,248z
	"/>
<path id="Path_1_" class="st1" d="M236.5,0.7c0,0,22.1,6.2,26.6,22.3C263.1,23,262.2,0.6,236.5,0.7z"/>
<path id="Path_2_" class="st1" d="M0.5,86.3c0,0,1.7-27,44.4-39C44.9,47.3-3.2,46.3,0.5,86.3z"/>
<path id="Path_3_" class="st1" d="M109.2,228.6c0,0,0.8,20.9,25.3,38.9C134.6,267.5,104.2,260.6,109.2,228.6z"/>
</svg>
