<?xml version="1.0" encoding="utf-8"?>
<!-- Generator: Adobe Illustrator 24.0.1, SVG Export Plug-In . SVG Version: 6.00 Build 0)  -->
<svg version="1.1" id="圖層_1" xmlns="http://www.w3.org/2000/svg" xmlns:xlink="http://www.w3.org/1999/xlink" x="0px" y="0px"
	 viewBox="0 0 800 240" style="enable-background:new 0 0 800 240;" xml:space="preserve">
<style type="text/css">
	.st0{fill:#FFFFFF;}
	.st1{fill-rule:evenodd;clip-rule:evenodd;fill:#C1C090;}
</style>
<title>e-first</title>
<desc>Created with Sketch.</desc>
<path class="st0" d="M133.4,146.4c6.4,0,10.6-1,12.6-2.9c2-1.8,3.1-6,3.1-12.5c0-8-1.6-15.9-4.7-23.6c-3.1-7.7-7.7-14.5-13.8-20.5
	c-6.1-6-13.5-10.8-22.3-14.5C99.5,68.8,89.5,67,78.2,67c-11.7,0-22.1,1.8-31.3,5.5c-9.1,3.7-16.8,8.9-23.2,15.5
	c-6.3,6.7-11.2,14.7-14.6,24C5.7,121.4,4,131.9,4,143.4c0,8.6,1.3,17.2,4,25.6c2.7,8.4,7,16,13.1,22.8c6.1,6.8,13.8,12.3,23.3,16.5
	c9.5,4.2,21.2,6.3,35.1,6.3c5.9,0,12.5-0.7,19.8-2.2c7.2-1.4,13.9-3.6,20.1-6.4c6.1-2.8,11.2-6.3,15.4-10.6c4-4.1,5.9-8.9,5.9-14.5
	c0-3.1-1.4-6.2-4.2-9.3c-2.7-3-6.2-4.5-10.4-4.5c-3.6,0-6.5,0.9-8.7,2.7c-2.5,2.1-5.2,4.4-8.1,6.9c-3,2.6-6.7,5-11.2,7.1
	c-4.6,2.2-10.8,3.2-18.7,3.2c-12.3,0-22-3.7-28.9-11c-6.8-7.2-10.2-16.2-10.3-27.1l0-0.6v-2H133.4z M54.7,101.7
	c6.1-5.7,14.2-8.6,24.3-8.6c9,0,16.6,3,22.9,9c6.3,6,9.9,13.7,11,23.1H42.3C44.5,115.3,48.6,107.4,54.7,101.7z"/>
<path id="Fill-1" class="st1" d="M400,12.5c-4.2-3.1-9.4-5-15-5v26L400,12.5z"/>
<path id="Path" class="st0" d="M382.8,13.5l-0.2,0c-4.9,0.3-9.4,1.9-13.3,4.7c-4.3,3.1-7.5,7.5-9.1,12.5c-0.8,2.5-1.2,5.1-1.2,7.7
	c0,2.7,0.4,5.3,1.2,7.7c1.6,5,4.8,9.4,9.1,12.5c4.2,3.1,9.3,4.8,14.7,4.8c5.4,0,10.5-1.7,14.7-4.8c4.3-3.1,7.5-7.5,9.1-12.5
	c0.8-2.5,1.2-5.1,1.2-7.7c0-2.5-0.4-4.9-1.1-7.2l-0.2-0.5l-0.1-0.4c-1.5-4.4-4.3-8.3-7.9-11.3l-0.1-0.1l-14.6,20.1l0,0
	c-0.2,0.3-0.5,0.6-0.9,0.6l-0.1,0l-0.1,0l-0.1,0l-0.1,0c-0.3,0-0.5-0.2-0.7-0.4l-0.1-0.1l-0.1-0.1l0-0.1l0-0.1l0-0.1l0,0
	c0-0.1,0-0.2,0-0.2L382.8,13.5z"/>
<path id="Path_1_" class="st0" d="M327.2,35l-65.9,0c-7.9,0-14.2,1.7-19,5.1l-0.4,0.3l-0.5,0.3c-4.9,3.4-7.3,8-7.4,14.3l0,0.4
	l0.1,145.1c0,4.4,1.3,7.4,4,9.5c3.6,2.8,7.9,4.2,13,4.2c5.4,0,9.9-1.2,13.4-3.6l0.6-0.4l0.4-0.3c3.4-2.2,5-5,5.1-9.1l0-0.4l0-58.4
	l46.4,0c5.1,0,9.2-1.5,12.7-4.8l0.7-0.6c3.2-3.1,4.8-7.1,4.8-12.4c0-4.7-1.5-8.4-4.8-11.6l-0.6-0.6c-3.4-3.1-7.3-4.7-12.2-4.8
	l-0.5,0l-46.4,0l0-29.4c0-6.5,4.5-10.9,11-11l0.3,0l44,0c5,0,9-1.5,12.4-4.7l0.6-0.6c3.1-3.1,4.6-7,4.6-12.2c0-4.6-1.3-7.9-4-10.3
	c-3.3-2.8-7.1-4.2-11.8-4.3L327.2,35z"/>
<path id="Path_2_" class="st0" d="M607,68l-0.4,0c-4.5,0.1-8.2,1.6-11.3,4.7c-3.3,3.3-5.1,7.7-5.4,13.2l0,0.5l-0.2,5l-4.8,1.4
	c-6.3,1.9-12,4.7-17.3,8.7c-10.3,7.3-15.2,16.4-15.2,27.7c0,9.5,3.8,15.9,11.8,20.3l0.4,0.2l0.2,0.1c5.5,3.1,14.7,5.8,27.3,7.8
	l1.2,0.2c5.2,0.8,9.1,1.7,12,2.8c5.7,2,8.6,4.9,8.7,9.6c0,7.8-5.5,12.7-13.7,12.7c-7.2,0-14.1-2.2-20.5-6.6l-0.5-0.4l-0.2-0.1
	c-4-3-9.4-4.5-16.6-4.5l-0.7,0c-9.9,0.2-13.6,4.1-13.6,14c0,5.5,4.5,11.1,13.9,16.8l0.5,0.3l0.9,0.5l0.8,0.4
	c5.8,3,11.9,5.3,18.2,6.9l1,0.2l0.9,0.2l5.6,1.2l-0.1,5.7l0,0.7c0,6.2,1.8,10.9,5.4,14.3l0.2,0.2l0.2,0.2c3.1,2.6,6.9,4,11.5,4.2
	l0.5,0l0.5,0c4.8,0,8.6-1.4,11.7-4.3c3.6-3.5,5.4-8.3,5.4-14.8c0-0.6,0-1.3-0.1-1.9l0-0.6l-0.4-5.5l5.2-1.7
	c4.5-1.5,8.6-3.4,12.3-5.7c11-7.2,16.3-16.9,16.3-30c0-10-3.9-16.8-12.2-21.3c-5.3-2.8-14.6-5.2-27.5-7.1l-1.2-0.2
	c-5.2-0.8-9.2-1.8-12.1-2.9c-5.6-2.1-8.5-5.1-8.6-9.8c0-7.2,5.3-11.6,13.2-11.6c5.7,0,11.4,2,17.3,6l0.5,0.4l0.5,0.4
	c3.2,2.3,6.6,3.4,10.6,3.4c5.7,0,10.4-1.3,14.1-4l0.7-0.5c3-2.2,4.4-5,4.4-8.9c0-7.2-5.4-13.5-17-19c-3.2-1.5-6.4-2.7-9.8-3.8
	l-1.1-0.3l-4.9-1.5l-0.1-5.1c-0.1-6-1.8-10.5-5.2-14l-0.3-0.3l-0.2-0.2l-0.3-0.3c-3.1-2.8-6.8-4.2-11.2-4.3l-0.5,0L607,68z"/>
<path id="Path_3_" class="st0" d="M384.6,91l-0.6,0c-5.8,0.1-10.5,1.5-14.3,4.3c-3.9,2.9-5.7,6.4-5.8,11l0,0.4l0,90.2
	c0,5.8,1.8,9.9,5.7,12.9c3.7,3,8.5,4.4,14.4,4.4c5.6,0,10.3-1.6,14.5-4.9l0.8-0.6c3.3-2.7,5-6.3,5.1-11.4l0-0.4l0-89.9
	c0-11-5.5-15.8-19-15.9L384.6,91z"/>
<path id="Path_4_" class="st0" d="M508.9,92c-13.4,0-24.2,3.5-32.7,10.6l-0.4,0.4l-7.6,6.5l-3.5-9.4c-0.6-1.5-2.6-3.3-6-5.2
	l-0.2-0.1l-0.4-0.2c-3.6-1.6-7.5-2.4-11.7-2.6l-0.7,0l-0.6,0c-12.7,0-17.9,4.8-18,16.6l0,0.4l0,89.7c0,5.1,1.8,8.7,5.7,11.5
	c3.8,2.7,8.8,4.1,15.1,4.1c6.1,0,11.4-1.6,15.9-4.6c3.6-2.6,5.3-5.8,5.4-10.3l0-0.4l0-56.3c0-7.1,3.7-12.8,10.4-16.1
	c5.4-2.8,12.9-4.1,22.8-4.1c1.8,0,3.8,0,6.1,0.1l1.3,0.1l1.2,0.1l5.5,0c6,0,10.6-1.4,14.1-4.1l0.2-0.2l0.2-0.1
	c2.6-2.4,3.9-5.4,4.1-9.3l0-0.4l0-0.4C534.8,97.1,527.1,92,508.9,92z"/>
<path id="Path_5_" class="st0" d="M731,48l-0.6,0c-5.5,0.1-10,1.5-13.6,4.2l-0.4,0.3l-0.2,0.1c-4,2.9-5.9,6.6-6,11.7l0,0.4l0,29.3
	l-17.8,0c-5,0-8.5,1.7-11.4,5.5l-0.5,0.7c-2.5,3.5-3.7,7.6-3.7,12.4c0,3.7,1.3,6.6,4,9.2c2.7,2.6,6.2,3.9,10.8,4l0.5,0l17.2,0l0,52
	c0,14.2,3.3,23.7,9.4,28.7c6.4,5,18,7.9,34.4,8.2l1.5,0l1.5,0c10.1,0,19.2-2.6,27.7-8l0.6-0.4l0.5-0.3c8.4-5.3,12.4-11.4,12.4-18.5
	c0-3.3-1.4-6-4.5-8.7l-0.6-0.5c-3.3-2.7-7.3-4-12.1-4c-3.9,0-7.8,1.2-11.9,3.8l-4.1,2.5l-0.6,0.4l-1.6,0.9l-0.7,0.4l-0.7,0.4
	l-0.4,0.2l-0.3,0.2l-0.2,0.1c-0.1,0.1-0.3,0.1-0.4,0.2c-0.9,0.4-1.5,0.5-2.4,0.5l-0.3,0l-7.1,0.1l0-58.2l29.1,0
	c5.7,0,9.9-1.4,12.8-4.2l0.2-0.2l0.2-0.2c2.3-2.6,3.5-5.5,3.7-9.1l0-0.4l0-0.4c0-4.2-1.5-7.9-4.6-11.3l-0.5-0.5l-0.3-0.4
	c-2.8-3.3-6.4-4.9-11.2-5l-0.4,0l-28,0l0-29.3c0-5.3-1.7-9-5.2-11.8c-4-3.2-8.6-4.8-13.9-4.9L731,48z"/>
<path id="Path_6_" class="st0" d="M191.5,118l-0.6,0c-6.5,0.1-11.8,1.8-16.1,5.2c-4.6,3.7-6.8,8.4-6.8,14.6c0,5.9,2.2,10.4,6.8,13.9
	l0.3,0.2l0.3,0.2c4.4,2.9,9.8,4.5,16.2,4.7l0.6,0l0.6,0c6.8,0,12.3-1.6,16.5-4.8c4.6-3.5,6.7-8.1,6.7-14.2c0-6.3-2.3-11-7.1-14.7
	c-4.6-3.3-10.2-5-16.9-5.1L191.5,118z"/>
</svg>
