<?xml version="1.0" encoding="utf-8"?>
<!-- Generator: Adobe Illustrator 23.0.4, SVG Export Plug-In . SVG Version: 6.00 Build 0)  -->
<svg version="1.1" id="Layer_1" xmlns="http://www.w3.org/2000/svg" xmlns:xlink="http://www.w3.org/1999/xlink" x="0px" y="0px"
	 viewBox="0 0 24 14" style="enable-background:new 0 0 24 14;" xml:space="preserve">
<path d="M12,11c-2.2,0-4-1.8-4-4c0-2.2,1.8-4,4-4c2.2,0,4,1.8,4,4C16,9.2,14.2,11,12,11z M12,4c-1.7,0-3,1.3-3,3s1.3,3,3,3
	s3-1.3,3-3S13.7,4,12,4z"/>
<path d="M12,14C6.3,14,1.6,9.1,0.2,7.7c-0.3-0.4-0.3-0.9,0-1.3C1.6,4.9,6.3,0,12,0c5.7,0,10.4,4.9,11.8,6.3c0,0,0,0,0,0
	c0.3,0.4,0.3,0.9,0,1.3C22.4,9.1,17.7,14,12,14z M12,1C6.7,1,2.2,5.6,1,7c1.2,1.4,5.7,6,11,6c5.3,0,9.8-4.6,11-6
	C21.8,5.6,17.3,1,12,1z"/>
</svg>
