<?xml version="1.0" encoding="UTF-8"?>
<svg version="1.1" id="圖層_1" xmlns="http://www.w3.org/2000/svg" xmlns:xlink="http://www.w3.org/1999/xlink" x="0px" y="0px"
	 viewBox="0 0 95 101" style="enable-background:new 0 0 95 101;" xml:space="preserve">
<style type="text/css">
	.st0{opacity:0.7;fill-rule:evenodd;clip-rule:evenodd;fill:url(#Path-13_1_);}
	.st1{fill:#DEE5EC;}
	.st2{fill:#FFFFFF;}
	.st3{fill:#A1ADB9;}
</style>
<linearGradient id="Path-13_1_" gradientUnits="userSpaceOnUse" x1="-643.6395" y1="431.2283" x2="-642.252" y2="431.6714" gradientTransform="matrix(-79.4037 -9.7495 9.7234 -79.1904 -55182.625 27931.832)">
	<stop  offset="0" style="stop-color:#FFFFFF"/>
	<stop  offset="1" style="stop-color:#DCE6F0"/>
</linearGradient>
<polygon id="Path-13" class="st0" points="94.4,6.9 23,6.2 93.7,87.2 "/>
<path id="Shape" class="st1" d="M52.1,0.5H6.9C3.1,0.5,0,3.5,0,7.3v86.5c0,3.7,3.1,6.8,6.9,6.8h45.3c3.8,0,6.9-3,6.9-6.8V7.3
	C59,3.5,55.9,0.5,52.1,0.5z M22.3,5.4h14.5c0.5,0,0.8,0.4,0.8,0.8c0,0.5-0.4,0.8-0.8,0.8H22.3c-0.5,0-0.8-0.4-0.8-0.8
	C21.4,5.7,21.8,5.4,22.3,5.4z"/>
<polygon id="Path" class="st2" points="54.2,88 4.8,88 4.8,11.2 54.2,11.2 "/>
<path id="Path_1_" class="st3" d="M32.2,43.6c0.3,0,0.5-0.2,0.5-0.5s-0.2-0.5-0.5-0.5s-0.5,0.2-0.5,0.5S31.9,43.6,32.2,43.6z"/>
<path id="Path_2_" class="st3" d="M20.2,43.6c0.3,0,0.5-0.2,0.5-0.5s-0.2-0.5-0.5-0.5s-0.5,0.2-0.5,0.5S19.9,43.6,20.2,43.6z"/>
<path id="Path_3_" class="st3" d="M16.5,34.9c0.3,0,0.5-0.2,0.5-0.5v-5.2h5.2c0.3,0,0.5-0.2,0.5-0.5S22.6,28,22.3,28h-5.8
	c-0.3,0-0.5,0.2-0.5,0.5v5.8C16,34.6,16.2,34.9,16.5,34.9z"/>
<path id="Path_4_" class="st3" d="M22.9,55.5c0-0.3-0.2-0.5-0.5-0.5h-5.2v-5.2c0-0.3-0.2-0.5-0.5-0.5S16,49.4,16,49.7v5.8
	c0,0.3,0.2,0.5,0.5,0.5h5.8C22.6,56,22.9,55.8,22.9,55.5z"/>
<path id="Path_5_" class="st3" d="M43.5,49.1c-0.3,0-0.5,0.2-0.5,0.5v5.2h-5.2c-0.3,0-0.5,0.2-0.5,0.5s0.2,0.5,0.5,0.5h5.8
	c0.3,0,0.5-0.2,0.5-0.5v-5.8C44,49.4,43.8,49.1,43.5,49.1z"/>
<path id="Path_6_" class="st3" d="M43.5,28h-5.8c-0.3,0-0.5,0.2-0.5,0.5s0.2,0.5,0.5,0.5h5.2v5.2c0,0.3,0.2,0.5,0.5,0.5
	s0.5-0.2,0.5-0.5v-5.8C44,28.2,43.8,28,43.5,28z"/>
<path id="Shape_1_" class="st3" d="M19.6,51.8c0,0.3,0.2,0.5,0.5,0.5h5.5c0.3,0,0.5-0.2,0.5-0.5v-5.5c0-0.3-0.2-0.5-0.5-0.5h-5.5
	c-0.3,0-0.5,0.2-0.5,0.5V51.8z M20.7,46.9h4.4v4.4h-4.4V46.9z"/>
<path id="Shape_2_" class="st3" d="M25.6,31.6h-5.5c-0.3,0-0.5,0.2-0.5,0.5v5.5c0,0.3,0.2,0.5,0.5,0.5h5.5c0.3,0,0.5-0.2,0.5-0.5
	v-5.5C26.2,31.9,25.9,31.6,25.6,31.6z M25.1,37.1h-4.4v-4.4h4.4V37.1z"/>
<path id="Shape_3_" class="st3" d="M40.4,32.2c0-0.3-0.2-0.5-0.5-0.5h-5.5c-0.3,0-0.5,0.2-0.5,0.5v5.5c0,0.3,0.2,0.5,0.5,0.5h5.5
	c0.3,0,0.5-0.2,0.5-0.5V32.2z M39.3,37.1h-4.4v-4.4h4.4V37.1z"/>
<path id="Shape_4_" class="st3" d="M40.4,51.8v-5.5c0-0.3-0.2-0.5-0.5-0.5h-5.5c-0.3,0-0.5,0.2-0.5,0.5v5.5c0,0.3,0.2,0.5,0.5,0.5
	h5.5C40.1,52.4,40.4,52.1,40.4,51.8z M39.3,51.3h-4.4v-4.4h4.4V51.3z"/>
<path id="Path_7_" class="st3" d="M23.4,48h-1.1c-0.3,0-0.5,0.2-0.5,0.5v1.1c0,0.3,0.2,0.5,0.5,0.5h1.1c0.3,0,0.5-0.2,0.5-0.5v-1.1
	C24,48.3,23.7,48,23.4,48z"/>
<path id="Path_8_" class="st3" d="M22.3,36h1.1c0.3,0,0.5-0.2,0.5-0.5v-1.1c0-0.3-0.2-0.5-0.5-0.5h-1.1c-0.3,0-0.5,0.2-0.5,0.5v1.1
	C21.8,35.7,22,36,22.3,36z"/>
<path id="Path_9_" class="st3" d="M36.6,36h1.1c0.3,0,0.5-0.2,0.5-0.5v-1.1c0-0.3-0.2-0.5-0.5-0.5h-1.1c-0.3,0-0.5,0.2-0.5,0.5v1.1
	C36,35.7,36.3,36,36.6,36z"/>
<path id="Path_10_" class="st3" d="M36.6,50.2h1.1c0.3,0,0.5-0.2,0.5-0.5v-1.1c0-0.3-0.2-0.5-0.5-0.5h-1.1c-0.3,0-0.5,0.2-0.5,0.5
	v1.1C36,50,36.3,50.2,36.6,50.2z"/>
<path id="Path_11_" class="st3" d="M21.8,43.1c0,0.3,0.2,0.5,0.5,0.5h7.1v2.7c0,0.3,0.2,0.5,0.5,0.5s0.5-0.2,0.5-0.5v-3.3
	c0-0.3-0.2-0.5-0.5-0.5h-7.7C22,42.5,21.8,42.8,21.8,43.1z"/>
<path id="Path_12_" class="st3" d="M25.6,41.5c0.3,0,0.5-0.2,0.5-0.5s-0.2-0.5-0.5-0.5h-5.5c-0.3,0-0.5,0.2-0.5,0.5s0.2,0.5,0.5,0.5
	H25.6z"/>
<path id="Path_13_" class="st3" d="M27.8,41.5H30c0.3,0,0.5-0.2,0.5-0.5s-0.2-0.5-0.5-0.5h-2.2c-0.3,0-0.5,0.2-0.5,0.5
	S27.5,41.5,27.8,41.5z"/>
<path id="Path_14_" class="st3" d="M27.8,31.6c-0.3,0-0.5,0.2-0.5,0.5v5.5c0,0.3,0.2,0.5,0.5,0.5h3.8v2.7c0,0.3,0.2,0.5,0.5,0.5h2.2
	c0.3,0,0.5-0.2,0.5-0.5s-0.2-0.5-0.5-0.5h-1.6v-2.7c0-0.3-0.2-0.5-0.5-0.5h-3.8v-4.9C28.4,31.9,28.1,31.6,27.8,31.6z"/>
<path id="Path_15_" class="st3" d="M39.8,40.4h-3.3c-0.3,0-0.5,0.2-0.5,0.5s0.2,0.5,0.5,0.5h3.3c0.3,0,0.5-0.2,0.5-0.5
	S40.1,40.4,39.8,40.4z"/>
<path id="Path_16_" class="st3" d="M39.8,42.5h-5.5c-0.3,0-0.5,0.2-0.5,0.5s0.2,0.5,0.5,0.5h5.5c0.3,0,0.5-0.2,0.5-0.5
	S40.1,42.5,39.8,42.5z"/>
<path id="Path_17_" class="st3" d="M30,48h-2.2c-0.3,0-0.5,0.2-0.5,0.5v3.3c0,0.3,0.2,0.5,0.5,0.5s0.5-0.2,0.5-0.5v-2.7H30
	c0.3,0,0.5-0.2,0.5-0.5S30.3,48,30,48z"/>
<path id="Path_18_" class="st3" d="M31.6,51.3H30c-0.3,0-0.5,0.2-0.5,0.5s0.2,0.5,0.5,0.5h2.2c0.3,0,0.5-0.2,0.5-0.5v-6.6
	c0-0.3-0.2-0.5-0.5-0.5s-0.5,0.2-0.5,0.5V51.3z"/>
<path id="Path_19_" class="st3" d="M32.2,36c0.3,0,0.5-0.2,0.5-0.5v-3.3c0-0.3-0.2-0.5-0.5-0.5s-0.5,0.2-0.5,0.5v2.7H30
	c-0.3,0-0.5,0.2-0.5,0.5S29.7,36,30,36H32.2z"/>
</svg>