<?xml version="1.0" encoding="utf-8"?>
<!-- Generator: Adobe Illustrator 23.0.4, SVG Export Plug-In . SVG Version: 6.00 Build 0)  -->
<svg version="1.1" id="Layer_1" xmlns="http://www.w3.org/2000/svg" xmlns:xlink="http://www.w3.org/1999/xlink" x="0px" y="0px"
	 viewBox="0 0 16 16" style="enable-background:new 0 0 16 16;" xml:space="preserve">
<style type="text/css">
	.st0{fill:#FFFFFF;}
</style>
<path class="st0" d="M3.6,15.7c-0.4,0-0.9-0.2-1.2-0.5c-0.6-0.5-0.8-1.4-0.5-2.1l1.3-3.1L0.9,7.9c-0.6-0.5-0.8-1.3-0.5-2
	c0.3-0.7,1-1.2,1.8-1.1l2.7,0l1.5-3.4c0.4-0.7,1-1.1,1.7-1.1c0.7,0,1.4,0.4,1.7,1c0,0,0,0,0,0.1l1.5,3.4h2.7c0.7,0,1.4,0.4,1.7,1.1
	c0.3,0.7,0.1,1.5-0.5,2l-2.4,2.1l1.3,3.1c0.3,0.8,0.1,1.6-0.5,2.2c-0.6,0.5-1.5,0.6-2.2,0.2L8,13.6l-3.4,1.9
	C4.3,15.7,4,15.7,3.6,15.7z M3.6,13.8C3.6,13.8,3.6,13.8,3.6,13.8L3.6,13.8z M12.4,13.8L12.4,13.8C12.4,13.8,12.4,13.8,12.4,13.8z
	 M2.1,6.7C2.1,6.7,2.1,6.7,2.1,6.7L2.1,6.7z M13.9,6.7C13.9,6.7,13.9,6.7,13.9,6.7L13.9,6.7z M2.2,6.4L2.2,6.4L2.2,6.4z"/>
</svg>
