<?xml version="1.0" encoding="utf-8"?>
<!-- Generator: Adobe Illustrator 23.0.4, SVG Export Plug-In . SVG Version: 6.00 Build 0)  -->
<svg version="1.1" id="Layer_1" xmlns="http://www.w3.org/2000/svg" xmlns:xlink="http://www.w3.org/1999/xlink" x="0px" y="0px"
	 viewBox="0 0 24 24" style="enable-background:new 0 0 24 24;" xml:space="preserve">
<style type="text/css">
	.st0{fill:#1F2532;}
</style>
<title>icon/ Magnifier - simple-line-icons Copy</title>
<desc>Created with Sketch.</desc>
<path class="st0" d="M20.3,19.1l-3.4-3.4c1.1-1.3,1.6-3,1.6-4.7c0-4.1-3.4-7.5-7.5-7.5S3.5,6.9,3.5,11s3.4,7.5,7.5,7.5
	c1.7,0,3.4-0.6,4.7-1.6l3.4,3.4c0.2,0.2,0.4,0.2,0.6,0.2c0.2,0,0.4-0.1,0.6-0.2C20.6,19.9,20.6,19.4,20.3,19.1z M11,16.8
	c-3.2,0-5.8-2.6-5.8-5.8S7.8,5.2,11,5.2s5.8,2.6,5.8,5.8S14.2,16.8,11,16.8z"/>
</svg>
