<?xml version="1.0" encoding="utf-8"?>
<!-- Generator: Adobe Illustrator 23.0.4, SVG Export Plug-In . SVG Version: 6.00 Build 0)  -->
<svg version="1.1" id="Layer_1" xmlns="http://www.w3.org/2000/svg" xmlns:xlink="http://www.w3.org/1999/xlink" x="0px" y="0px"
	 viewBox="0 0 32 32" style="enable-background:new 0 0 32 32;" xml:space="preserve">
<style type="text/css">
	.st0{fill:#FFFFFF;}
	.st1{fill:none;}
</style>
<title>face-24px</title>
<desc>Created with Sketch.</desc>
<path id="Shape" class="st0" d="M12,15.7c-0.9,0-1.7,0.7-1.7,1.7S11.1,19,12,19s1.7-0.7,1.7-1.7S12.9,15.7,12,15.7z M20,15.7
	c-0.9,0-1.7,0.7-1.7,1.7S19.1,19,20,19s1.7-0.7,1.7-1.7S20.9,15.7,20,15.7z M16,2.7C8.6,2.7,2.7,8.6,2.7,16s6,13.3,13.3,13.3
	s13.3-6,13.3-13.3S23.4,2.7,16,2.7z M16,26.7c-5.9,0-10.7-4.8-10.7-10.7c0-0.4,0-0.8,0.1-1.1c3.1-1.4,5.6-4,6.9-7.2
	c2.4,3.4,6.4,5.6,10.9,5.6c1,0,2-0.1,3-0.3c0.3,0.9,0.4,2,0.4,3C26.7,21.9,21.9,26.7,16,26.7z"/>
<polygon id="Path" class="st1" points="0,0 32,0 32,32 0,32 "/>
</svg>
