<?xml version="1.0" encoding="utf-8"?>
<!-- Generator: Adobe Illustrator 24.0.1, SVG Export Plug-In . SVG Version: 6.00 Build 0)  -->
<svg version="1.1" id="圖層_1" xmlns="http://www.w3.org/2000/svg" xmlns:xlink="http://www.w3.org/1999/xlink" x="0px" y="0px"
	 viewBox="0 0 390 507" style="enable-background:new 0 0 390 507;" xml:space="preserve">
<style type="text/css">
	.st0{fill:none;}
	.st1{clip-path:url(#SVGID_2_);}
	.st2{fill:#FFFFFF;}
	.st3{fill:#F7F7F7;}
	.st4{fill:#4D4D4D;}
	.st5{fill:#EAEFEC;stroke:#CCCCCC;stroke-miterlimit:10;}
	.st6{fill:#666666;}
	.st7{fill:#CCCCCC;}
	.st8{fill:none;stroke:#808080;stroke-width:0.9333;stroke-linecap:round;stroke-miterlimit:10;}
	.st9{clip-path:url(#SVGID_4_);}
	.st10{fill:none;stroke:#808080;stroke-width:0.4667;stroke-linecap:round;stroke-miterlimit:10;}
	.st11{clip-path:url(#SVGID_8_);}
	.st12{clip-path:url(#SVGID_10_);}
	.st13{fill:#EAEFEC;}
	.st14{clip-path:url(#SVGID_12_);}
	.st15{clip-path:url(#SVGID_16_);}
	.st16{clip-path:url(#SVGID_18_);}
	.st17{clip-path:url(#SVGID_20_);}
	.st18{clip-path:url(#SVGID_22_);}
	.st19{clip-path:url(#SVGID_24_);}
	.st20{fill:url(#SVGID_25_);}
	.st21{fill:url(#SVGID_26_);}
	.st22{clip-path:url(#SVGID_28_);fill:#10894F;}
	.st23{clip-path:url(#SVGID_30_);}
	.st24{clip-path:url(#SVGID_32_);}
	.st25{fill:none;stroke:#43C867;stroke-width:3;stroke-miterlimit:10;}
	.st26{fill:#43C867;}
	.st27{fill:none;stroke:#43C867;stroke-width:2.8571;stroke-miterlimit:10;}
	.st28{fill:none;stroke:#43C867;stroke-width:2.7143;stroke-miterlimit:10;}
	.st29{fill:none;stroke:#43C867;stroke-width:2.5714;stroke-miterlimit:10;}
	.st30{fill:none;stroke:#43C867;stroke-width:2.4286;stroke-miterlimit:10;}
	.st31{fill:none;stroke:#43C867;stroke-width:2.2857;stroke-miterlimit:10;}
	.st32{fill:none;stroke:#43C867;stroke-width:2.1429;stroke-miterlimit:10;}
	.st33{fill:none;stroke:#43C867;stroke-width:2;stroke-miterlimit:10;}
	.st34{fill:none;stroke:#43C867;stroke-width:1.8571;stroke-miterlimit:10;}
	.st35{fill:none;stroke:#43C867;stroke-width:1.7143;stroke-miterlimit:10;}
	.st36{fill:none;stroke:#43C867;stroke-width:1.5714;stroke-miterlimit:10;}
	.st37{fill:none;stroke:#43C867;stroke-width:1.4286;stroke-miterlimit:10;}
	.st38{fill:none;stroke:#43C867;stroke-width:1.2857;stroke-miterlimit:10;}
	.st39{fill:none;stroke:#43C867;stroke-width:1.1429;stroke-miterlimit:10;}
	.st40{fill:none;stroke:#43C867;stroke-miterlimit:10;}
	.st41{fill:none;stroke:#43C867;stroke-width:0.8571;stroke-miterlimit:10;}
	.st42{fill:none;stroke:#43C867;stroke-width:0.7143;stroke-miterlimit:10;}
	.st43{fill:none;stroke:#43C867;stroke-width:0.5714;stroke-miterlimit:10;}
	.st44{fill:none;stroke:#43C867;stroke-width:0.4286;stroke-miterlimit:10;}
	.st45{fill:none;stroke:#43C867;stroke-width:0.2857;stroke-miterlimit:10;}
	.st46{fill:none;stroke:#43C867;stroke-width:0.1429;stroke-miterlimit:10;}
	.st47{fill:#B18749;}
	.st48{fill:#005B42;}
	.st49{fill:#AA803A;}
	.st50{fill:#808080;}
	.st51{fill:none;stroke:#7D7D7D;stroke-width:0.4667;stroke-linecap:round;stroke-miterlimit:10;}
	.st52{fill:#F5B64C;}
	.st53{fill:#FBE9C9;}
	.st54{fill:#F0C9AE;}
	.st55{fill:#EE8381;}
	.st56{fill:#4B1E0E;}
	.st57{opacity:0.1;enable-background:new    ;}
	.st58{fill:#E0E2E1;}
	.st59{clip-path:url(#SVGID_34_);}
	.st60{fill:url(#SVGID_35_);stroke:#E6E6E6;stroke-width:0.8077;stroke-miterlimit:10;}
	.st61{fill:#E6E6E6;}
	.st62{fill:url(#SVGID_36_);stroke:#E6E6E6;stroke-width:0.8077;stroke-miterlimit:10;}
	.st63{fill:none;stroke:#333333;stroke-width:13;stroke-linecap:round;stroke-miterlimit:10;}
	.st64{fill:#13AE67;}
	.st65{opacity:0.67;}
	.st66{fill:#A8A8A8;}
	.st67{clip-path:url(#SVGID_38_);}
	.st68{clip-path:url(#SVGID_40_);}
	.st69{clip-path:url(#SVGID_42_);}
	.st70{clip-path:url(#SVGID_44_);}
	.st71{clip-path:url(#SVGID_46_);}
	.st72{clip-path:url(#SVGID_48_);}
	.st73{clip-path:url(#SVGID_50_);fill:#EAEFEC;stroke:#CCCCCC;stroke-miterlimit:10;}
	.st74{clip-path:url(#SVGID_52_);fill:#666666;}
	.st75{clip-path:url(#SVGID_54_);}
	.st76{fill:none;stroke:#808080;stroke-width:1.1333;stroke-linecap:round;stroke-miterlimit:10;}
	.st77{clip-path:url(#SVGID_56_);}
	.st78{clip-path:url(#SVGID_58_);}
	.st79{clip-path:url(#SVGID_60_);}
	.st80{clip-path:url(#SVGID_62_);}
	.st81{clip-path:url(#SVGID_64_);}
	.st82{clip-path:url(#SVGID_66_);}
	.st83{clip-path:url(#SVGID_68_);fill:#EAEFEC;stroke:#CCCCCC;stroke-miterlimit:10;}
	.st84{clip-path:url(#SVGID_70_);fill:#666666;}
	.st85{clip-path:url(#SVGID_72_);}
	.st86{fill:none;stroke:#43C867;stroke-width:8;stroke-linecap:round;stroke-miterlimit:10;}
	.st87{clip-path:url(#SVGID_74_);}
	.st88{clip-path:url(#SVGID_76_);}
</style>
<pattern  y="507" width="390" height="507" patternUnits="userSpaceOnUse" id="SVGID_13_" viewBox="0 -507 390 507" style="overflow:visible;">
	<g>
		<rect y="-507" class="st0" width="390" height="507"/>
	</g>
</pattern>
<pattern  y="507" width="390" height="507" patternUnits="userSpaceOnUse" id="SVGID_14_" viewBox="0 -507 390 507" style="overflow:visible;">
	<g>
		<rect y="-507" class="st0" width="390" height="507"/>
	</g>
</pattern>
<pattern  y="507" width="390" height="507" patternUnits="userSpaceOnUse" id="SVGID_5_" viewBox="0 -507 390 507" style="overflow:visible;">
	<g>
		<rect y="-507" class="st0" width="390" height="507"/>
	</g>
</pattern>
<pattern  y="507" width="390" height="507" patternUnits="userSpaceOnUse" id="SVGID_6_" viewBox="0 -507 390 507" style="overflow:visible;">
	<g>
		<rect y="-507" class="st0" width="390" height="507"/>
	</g>
</pattern>
<g>
	<g>
		<defs>
			<path id="SVGID_1_" d="M271.5,350.6c1,17.5,19,28,35.2,21.4c40.5-16.6,52.5-52,52.5-52c3.8-8.5-1.2-11.7-1.2-11.7
				c-2.4-8.1-8.3-3.5-8.3-3.5c-3.5,0.2-5.7,5.9-5.7,5.9c-6.1,2.8-31,8.1-49.8,11.8C279.7,325.3,270.6,335.9,271.5,350.6L271.5,350.6
				z"/>
		</defs>
		<clipPath id="SVGID_2_">
			<use xlink:href="#SVGID_1_"  style="overflow:visible;"/>
		</clipPath>
		<g class="st1">
			<g>
				<path class="st2" d="M271.5,350.6c1,17.5,19,28,35.2,21.4c40.5-16.6,52.5-52,52.5-52c3.8-8.5-1.2-11.7-1.2-11.7
					c-2.4-8.1-8.3-3.5-8.3-3.5c-3.5,0.2-5.7,5.9-5.7,5.9c-6.1,2.8-31,8.1-49.8,11.8C279.7,325.3,270.6,335.9,271.5,350.6
					L271.5,350.6z"/>
				<path class="st3" d="M296.7,374.5c-4.9,0-9.8-1.4-14-4c-6.9-4.4-11.2-11.6-11.6-19.8l0,0c-0.9-14.7,8-25.7,23.1-28.6
					c12.6-2.5,42.3-8.5,49.5-11.7c0.4-1,2.6-5.7,5.9-6c0.6-0.4,2.8-1.8,5.1-1.1c1.7,0.5,3,2.2,3.8,4.8c0.9,0.7,4.8,4.3,1.2,12.2
					c-0.1,0.3-12.5,35.8-52.8,52.3C303.6,373.8,300.1,374.5,296.7,374.5z M353.3,304c-1.7,0-3.3,1.2-3.3,1.2l-0.1,0.1l-0.2,0
					c-3.1,0.2-5.2,5.5-5.3,5.6l-0.1,0.2l-0.2,0.1c-6.9,3.2-37.2,9.3-49.9,11.8c-14.6,2.8-23.2,13.4-22.3,27.6v0
					c0.5,7.9,4.5,14.8,11.2,19c6.9,4.4,15.6,5.1,23.3,1.9c39.8-16.3,52.1-51.3,52.2-51.7c3.6-8-0.8-11-1-11.1l-0.2-0.1l-0.1-0.2
					c-0.7-2.4-1.8-3.8-3.2-4.3C354,304,353.6,304,353.3,304z"/>
			</g>
			<circle class="st4" cx="291.2" cy="350.4" r="15.5"/>
			<path class="st5" d="M291.2,337.4c7.2,0,13,5.8,13,13s-5.8,13-13,13s-13-5.8-13-13S284.1,337.4,291.2,337.4 M291.2,332.4
				c-9.9,0-18,8.1-18,18s8.1,18,18,18s18-8.1,18-18S301.2,332.4,291.2,332.4L291.2,332.4z"/>
			<circle class="st6" cx="291.2" cy="350.4" r="7"/>
			<g>
				<circle class="st7" cx="291.2" cy="350.4" r="4"/>
				<line class="st8" x1="288.9" y1="348.1" x2="293.6" y2="352.8"/>
				<line class="st8" x1="293.3" y1="348.3" x2="289.1" y2="352.5"/>
			</g>
		</g>
	</g>
	<g>
		<defs>
			<path id="SVGID_3_" d="M271.5,350.6c1,17.5,19,28,35.2,21.4c40.5-16.6,52.5-52,52.5-52c3.8-8.5-1.2-11.7-1.2-11.7
				c-2.4-8.1-8.3-3.5-8.3-3.5c-3.5,0.2-5.7,5.9-5.7,5.9c-6.1,2.8-31,8.1-49.8,11.8C279.7,325.3,270.6,335.9,271.5,350.6L271.5,350.6
				z"/>
		</defs>
		<clipPath id="SVGID_4_">
			<use xlink:href="#SVGID_3_"  style="overflow:visible;"/>
		</clipPath>
		<g class="st9">
			<circle class="st7" cx="344.2" cy="314.4" r="2"/>
			<line class="st10" x1="345.4" y1="313.3" x2="343.1" y2="315.6"/>
			<line class="st10" x1="343.2" y1="313.4" x2="345.3" y2="315.5"/>
		</g>
	</g>
	<g>
		<defs>
			<path id="SVGID_7_" d="M271.5,350.6c1,17.5,19,28,35.2,21.4c40.5-16.6,52.5-52,52.5-52c3.8-8.5-1.2-11.7-1.2-11.7
				c-2.4-8.1-8.3-3.5-8.3-3.5c-3.5,0.2-5.7,5.9-5.7,5.9c-6.1,2.8-31,8.1-49.8,11.8C279.7,325.3,270.6,335.9,271.5,350.6L271.5,350.6
				z"/>
		</defs>
		<clipPath id="SVGID_8_">
			<use xlink:href="#SVGID_7_"  style="overflow:visible;"/>
		</clipPath>
		<g class="st11">
			<circle class="st7" cx="339.2" cy="316.4" r="2"/>
			<line class="st10" x1="340.4" y1="315.3" x2="338.1" y2="317.6"/>
			<line class="st10" x1="338.2" y1="315.4" x2="340.3" y2="317.5"/>
		</g>
	</g>
	<g>
		<defs>
			<path id="SVGID_9_" d="M271.5,350.6c1,17.5,19,28,35.2,21.4c40.5-16.6,52.5-52,52.5-52c3.8-8.5-1.2-11.7-1.2-11.7
				c-2.4-8.1-8.3-3.5-8.3-3.5c-3.5,0.2-5.7,5.9-5.7,5.9c-6.1,2.8-31,8.1-49.8,11.8C279.7,325.3,270.6,335.9,271.5,350.6L271.5,350.6
				z"/>
		</defs>
		<clipPath id="SVGID_10_">
			<use xlink:href="#SVGID_9_"  style="overflow:visible;"/>
		</clipPath>
		<g class="st12">
			<g>
				<path class="st13" d="M295.2,323.5c4.3,1.2,8.3,3,11.3,6.4c2.8,3.2,4.6,7.1,6.4,10.8c0.3,0.6,1.1,0.8,1.7,0.7
					c4.4-1.1,9.1-0.8,13.5-2.1c4.1-1.2,8.1-2.8,12-4.4c7.9-3.2,15.6-6.9,22.4-11.9c1.5-1.1,0-3.7-1.5-2.6c-6.8,5-14.3,8.7-22.1,11.8
					c-3.9,1.6-7.9,3.2-12,4.3c-4.3,1.1-8.7,0.9-13,2c0.6,0.2,1.1,0.5,1.7,0.7c-2-4.1-4-8.3-7.1-11.7c-3.3-3.6-7.7-5.6-12.3-6.9
					C294.2,320.1,293.4,323,295.2,323.5L295.2,323.5z"/>
			</g>
		</g>
	</g>
	<g>
		<defs>
			<path id="SVGID_11_" d="M271.5,350.6c1,17.5,19,28,35.2,21.4c40.5-16.6,52.5-52,52.5-52c3.8-8.5-1.2-11.7-1.2-11.7
				c-2.4-8.1-8.3-3.5-8.3-3.5c-3.5,0.2-5.7,5.9-5.7,5.9c-6.1,2.8-31,8.1-49.8,11.8C279.7,325.3,270.6,335.9,271.5,350.6L271.5,350.6
				z"/>
		</defs>
		<clipPath id="SVGID_12_">
			<use xlink:href="#SVGID_11_"  style="overflow:visible;"/>
		</clipPath>
		<g class="st14">
			<g>
				<path class="st13" d="M347.5,349.8c-2.1-2.3-5.1-3.3-8.1-3.5c-3.1-0.2-6.7,0.4-9.7,1.5c-2.8,1.1-4.8,3.3-5.7,6.2
					c-1,3.2-0.4,6.7,0.1,9.9c0.3,1.9,3.2,1.1,2.9-0.8c-0.8-4.6-1.4-11,4.1-12.7c4.4-1.4,10.7-2.3,14.2,1.5
					C346.7,353.4,348.8,351.3,347.5,349.8L347.5,349.8z"/>
			</g>
		</g>
	</g>
</g>
<g>
	<g>
		<defs>
			<path id="SVGID_15_" d="M102.9,350.6c-1,17.5-19,28-35.2,21.4c-40.5-16.6-52.5-52-52.5-52c-3.8-8.5,1.2-11.7,1.2-11.7
				c2.4-8.1,8.3-3.5,8.3-3.5c3.5,0.2,5.7,5.9,5.7,5.9c6.1,2.8,31,8.1,49.8,11.8C94.7,325.3,103.8,335.9,102.9,350.6L102.9,350.6z"/>
		</defs>
		<clipPath id="SVGID_16_">
			<use xlink:href="#SVGID_15_"  style="overflow:visible;"/>
		</clipPath>
		<g class="st15">
			<g>
				<path class="st2" d="M102.9,350.6c-1,17.5-19,28-35.2,21.4c-40.5-16.6-52.5-52-52.5-52c-3.8-8.5,1.2-11.7,1.2-11.7
					c2.4-8.1,8.3-3.5,8.3-3.5c3.5,0.2,5.7,5.9,5.7,5.9c6.1,2.8,31,8.1,49.8,11.8C94.7,325.3,103.8,335.9,102.9,350.6L102.9,350.6z"
					/>
				<path class="st3" d="M77.7,374.5c-3.5,0-6.9-0.7-10.2-2c-40.2-16.5-52.7-51.9-52.8-52.3c-3.5-7.9,0.4-11.5,1.2-12.2
					c0.8-2.6,2.1-4.2,3.8-4.8c2.3-0.7,4.6,0.7,5.1,1.1c3.3,0.3,5.5,5,5.9,6c7.2,3.2,37,9.2,49.5,11.7c15.2,2.9,24,13.9,23.1,28.6
					c-0.5,8.2-4.7,15.4-11.6,19.8C87.6,373.1,82.7,374.5,77.7,374.5z M21.1,304c-0.3,0-0.7,0-1,0.2c-1.4,0.5-2.5,1.9-3.2,4.3
					l-0.1,0.2l-0.2,0.1c-0.2,0.1-4.6,3.1-1,11.1c0.1,0.4,12.4,35.4,52.2,51.7c7.7,3.1,16.5,2.4,23.3-1.9c6.6-4.2,10.7-11.1,11.2-19
					v0c0.9-14.2-7.7-24.8-22.3-27.6c-12.7-2.5-43-8.7-49.9-11.8l-0.2-0.1l-0.1-0.2c0-0.1-2.1-5.4-5.3-5.6l-0.2,0l-0.1-0.1
					C24.4,305.2,22.8,304,21.1,304z"/>
			</g>
			<circle class="st4" cx="83.2" cy="350.4" r="15.5"/>
			<path class="st5" d="M83.2,337.4c7.2,0,13,5.8,13,13s-5.8,13-13,13s-13-5.8-13-13S76.1,337.4,83.2,337.4 M83.2,332.4
				c-9.9,0-18,8.1-18,18s8.1,18,18,18s18-8.1,18-18S93.2,332.4,83.2,332.4L83.2,332.4z"/>
			<circle class="st6" cx="83.2" cy="350.4" r="7"/>
			<g>
				<circle class="st7" cx="83.2" cy="350.4" r="4"/>
				<line class="st8" x1="85.6" y1="348.1" x2="80.9" y2="352.8"/>
				<line class="st8" x1="81.1" y1="348.3" x2="85.3" y2="352.5"/>
			</g>
		</g>
	</g>
	<g>
		<defs>
			<path id="SVGID_17_" d="M102.9,350.6c-1,17.5-19,28-35.2,21.4c-40.5-16.6-52.5-52-52.5-52c-3.8-8.5,1.2-11.7,1.2-11.7
				c2.4-8.1,8.3-3.5,8.3-3.5c3.5,0.2,5.7,5.9,5.7,5.9c6.1,2.8,31,8.1,49.8,11.8C94.7,325.3,103.8,335.9,102.9,350.6L102.9,350.6z"/>
		</defs>
		<clipPath id="SVGID_18_">
			<use xlink:href="#SVGID_17_"  style="overflow:visible;"/>
		</clipPath>
		<g class="st16">
			<circle class="st7" cx="30.2" cy="314.4" r="2"/>
			<line class="st10" x1="29.1" y1="313.3" x2="31.4" y2="315.6"/>
			<line class="st10" x1="31.3" y1="313.4" x2="29.2" y2="315.5"/>
		</g>
	</g>
	<g>
		<defs>
			<path id="SVGID_19_" d="M102.9,350.6c-1,17.5-19,28-35.2,21.4c-40.5-16.6-52.5-52-52.5-52c-3.8-8.5,1.2-11.7,1.2-11.7
				c2.4-8.1,8.3-3.5,8.3-3.5c3.5,0.2,5.7,5.9,5.7,5.9c6.1,2.8,31,8.1,49.8,11.8C94.7,325.3,103.8,335.9,102.9,350.6L102.9,350.6z"/>
		</defs>
		<clipPath id="SVGID_20_">
			<use xlink:href="#SVGID_19_"  style="overflow:visible;"/>
		</clipPath>
		<g class="st17">
			<circle class="st7" cx="35.2" cy="316.4" r="2"/>
			<line class="st10" x1="34.1" y1="315.3" x2="36.4" y2="317.6"/>
			<line class="st10" x1="36.3" y1="315.4" x2="34.2" y2="317.5"/>
		</g>
	</g>
	<g>
		<defs>
			<path id="SVGID_21_" d="M102.9,350.6c-1,17.5-19,28-35.2,21.4c-40.5-16.6-52.5-52-52.5-52c-3.8-8.5,1.2-11.7,1.2-11.7
				c2.4-8.1,8.3-3.5,8.3-3.5c3.5,0.2,5.7,5.9,5.7,5.9c6.1,2.8,31,8.1,49.8,11.8C94.7,325.3,103.8,335.9,102.9,350.6L102.9,350.6z"/>
		</defs>
		<clipPath id="SVGID_22_">
			<use xlink:href="#SVGID_21_"  style="overflow:visible;"/>
		</clipPath>
		<g class="st18">
			<g>
				<path class="st13" d="M78.4,320.6c-4.7,1.3-9,3.2-12.3,6.9c-3.1,3.4-5.2,7.6-7.1,11.7c0.6-0.2,1.1-0.5,1.7-0.7
					c-4.3-1.1-8.8-0.8-13-2c-4.1-1.1-8.1-2.8-12-4.3c-7.8-3.1-15.4-6.8-22.1-11.8c-1.6-1.1-3.1,1.5-1.5,2.6
					c6.9,5.1,14.5,8.8,22.4,11.9c3.9,1.6,7.9,3.2,12,4.4c4.4,1.3,9,1,13.5,2.1c0.6,0.1,1.4-0.1,1.7-0.7c1.8-3.8,3.6-7.7,6.4-10.8
					c3-3.4,6.9-5.2,11.3-6.4C81.1,323,80.3,320.1,78.4,320.6L78.4,320.6z"/>
			</g>
		</g>
	</g>
	<g>
		<defs>
			<path id="SVGID_23_" d="M102.9,350.6c-1,17.5-19,28-35.2,21.4c-40.5-16.6-52.5-52-52.5-52c-3.8-8.5,1.2-11.7,1.2-11.7
				c2.4-8.1,8.3-3.5,8.3-3.5c3.5,0.2,5.7,5.9,5.7,5.9c6.1,2.8,31,8.1,49.8,11.8C94.7,325.3,103.8,335.9,102.9,350.6L102.9,350.6z"/>
		</defs>
		<clipPath id="SVGID_24_">
			<use xlink:href="#SVGID_23_"  style="overflow:visible;"/>
		</clipPath>
		<g class="st19">
			<g>
				<path class="st13" d="M29,352c3.5-3.8,9.8-2.9,14.2-1.5c5.5,1.8,4.9,8.2,4.1,12.7c-0.1,0.8,0.2,1.6,1,1.8c0.7,0.2,1.7-0.2,1.8-1
					c0.5-3.3,1.1-6.7,0.1-9.9c-0.9-2.9-2.8-5.1-5.7-6.2c-1.4-0.6-3-0.8-4.5-1.1c-1.7-0.3-3.4-0.5-5.1-0.4c-3,0.2-6,1.2-8.1,3.5
					C25.6,351.3,27.7,353.4,29,352L29,352z"/>
			</g>
		</g>
	</g>
</g>
<g>
	<path class="st4" d="M89.2,383.4c-4,6-3,12-3,12s50,57,54,58s9-1,10-5s-18-38-18-38L89.2,383.4z"/>
	<pattern  id="SVGID_25_" xlink:href="#SVGID_5_" patternTransform="matrix(1 0 0 -1 175.3117 -17386.8438)">
	</pattern>
	<path class="st20" d="M89.2,383.4c-4,6-3,12-3,12s50,57,54,58s9-1,10-5s-18-38-18-38L89.2,383.4z"/>
</g>
<g>
	<path class="st4" d="M290.4,384.4c3.7,5.7,2.8,11.4,2.8,11.4s-46,54.4-49.7,55.3s-8.3-1-9.2-4.8s16.6-36.2,16.6-36.2L290.4,384.4z"
		/>
	<pattern  id="SVGID_26_" xlink:href="#SVGID_6_" patternTransform="matrix(1 0 0 -1 325.4892 -17384.8438)">
	</pattern>
	<path class="st21" d="M290.4,384.4c3.7,5.7,2.8,11.4,2.8,11.4s-46,54.4-49.7,55.3s-8.3-1-9.2-4.8s16.6-36.2,16.6-36.2L290.4,384.4z
		"/>
</g>
<g>
	<path class="st2" d="M84.6,395.1c-1.9-0.4-3.6,1.3-3.4,3.2c1.7,14.6,4.5,30.6,9,47.7c0,0,10,33.7,26.5,57.8c0,0,5.2,6.2,15.7,1.2
		c0,0,4.3-2.5-3.6-7.6c0,0,11.5-27.6,15.3-36.6c0.8-1.8,0.8-3.9-0.1-5.7C132.7,430.1,109.1,399.8,84.6,395.1z"/>
	<path class="st3" d="M124.6,507.4c-1.7,0-3.1-0.3-4.2-0.7c-2.7-1-4.1-2.6-4.1-2.6c-16.4-23.9-26.5-57.6-26.6-58
		c-4.1-15.6-7.1-31.7-9-47.8c-0.1-1.1,0.3-2.2,1.1-3c0.8-0.7,1.8-1,2.9-0.8c11.3,2.2,23.4,10,34.9,22.5
		c9.7,10.6,18.8,24.3,24.8,37.7c0.9,1.9,1,4.1,0.1,6.1c-3.5,8.3-13.7,32.8-15.1,36.2c3.1,2.1,4.7,4,4.6,5.8c0,1.6-1.4,2.4-1.4,2.4
		C129.5,506.9,126.8,507.4,124.6,507.4z M84,395.5c-0.6,0-1.1,0.2-1.5,0.6c-0.6,0.5-0.9,1.3-0.8,2.1c1.9,16,4.9,32.1,9,47.6
		c0.1,0.3,10.2,33.9,26.4,57.6c0.2,0.2,5.1,5.8,15.1,1c0,0,0.9-0.5,0.9-1.6c0-1-0.8-2.7-4.5-5.2l-0.4-0.2l0.2-0.4
		c0.1-0.3,11.5-27.7,15.3-36.6c0.8-1.7,0.7-3.6-0.1-5.3c-16.5-36.4-42.1-56.5-59-59.7l0,0C84.3,395.6,84.2,395.5,84,395.5z"/>
</g>
<g>
	<path class="st2" d="M240.7,459.1c3.8,8.9,14,32.7,18.5,38.5c0,0-7.5,0.9-3.9,5.5c0,0,8,5,15.1,0.6c0,0,16.3-29.1,21.4-63.2
		c0,0,2.7-8.6,4.1-42.3c0.1-2-1.9-3.5-3.8-2.9c-21.3,7.4-41.2,34.4-51.5,57.3C239.9,454.7,239.9,457.1,240.7,459.1z"/>
	<path class="st3" d="M263.9,506c-4.9,0-8.8-2.4-8.9-2.5l-0.1-0.1c-1-1.3-1.3-2.5-0.9-3.5c0.7-1.6,3-2.3,4.3-2.6
		c-4.8-6.9-14.7-30.1-18.1-37.9l0,0c-0.8-2.1-0.9-4.6-0.1-6.8c10.5-23.4,30.6-50.2,51.8-57.6c1.1-0.3,2.2-0.1,3.1,0.6
		c0.9,0.7,1.4,1.7,1.3,2.8c-1.4,33.4-4,42.1-4.1,42.4c-5,33.7-21.3,63-21.4,63.3l-0.1,0.1l-0.1,0.1C268.4,505.5,266.1,506,263.9,506
		z M255.6,502.7c0.8,0.5,8,4.5,14.4,0.6c1.1-2,16.4-30.4,21.3-62.9c0-0.2,2.7-9.1,4.1-42.2c0-0.8-0.3-1.5-0.9-2
		c-0.6-0.5-1.5-0.6-2.2-0.4c-20.9,7.3-40.8,33.9-51.2,57c-0.7,2-0.6,4.2,0.1,6.1c3.4,8.1,13.9,32.5,18.4,38.4l0.5,0.7l-0.9,0.1
		c-1,0.1-3.7,0.7-4.3,2.2C254.7,500.9,254.9,501.7,255.6,502.7z"/>
</g>
<g>
	<path class="st2" d="M291.9,346.4c0,13.5,0.8,32,0.5,41.7c-0.1,2.3-1.6,4.4-3.8,5.1c-21.4,7.2-41.4,34.4-51.8,57.5
		c-0.9,1.9-2.8,3.1-4.9,3.1c-13.9-0.2-65.2-0.6-79.1,0.6c-2.1,0.2-4-1-4.9-2.9c-11.3-24.5-34.2-54-58.2-59.3c-3-0.7-5.2-3.2-5.4-6.2
		c-1-12,0.7-29.9,0.9-39.6L291.9,346.4z"/>
	<path class="st3" d="M152.3,454.9c-2.1,0-4-1.2-4.9-3.2c-11.4-24.8-34.4-53.9-57.9-59c-3.3-0.8-5.6-3.4-5.8-6.7
		c-0.7-8.3-0.1-19.7,0.4-28.8c0.2-4,0.4-7.9,0.5-10.8l0-0.5h207.7v0.5c0,5.8,0.1,12.6,0.3,19.2c0.2,8.7,0.4,17,0.2,22.5
		c-0.1,2.6-1.8,4.8-4.1,5.6c-20.9,7-41,33.8-51.5,57.2c-1,2.1-3,3.4-5.4,3.4c-12.3-0.2-64.9-0.6-79.1,0.6
		C152.7,454.9,152.5,454.9,152.3,454.9z M85.7,346.9c-0.1,2.9-0.3,6.5-0.5,10.4c-0.5,9.1-1.1,20.4-0.4,28.7c0.2,2.8,2.2,5.1,5,5.8
		c23.8,5.2,47,34.6,58.5,59.6c0.8,1.8,2.6,2.8,4.4,2.6c14.2-1.2,66.9-0.8,79.2-0.6c1.9,0,3.6-1.1,4.4-2.8
		c10.6-23.6,30.9-50.6,52.1-57.8c2-0.6,3.4-2.5,3.5-4.6c0.2-5.5,0-13.7-0.2-22.5c-0.1-6.4-0.3-13-0.3-18.7H85.7z"/>
</g>
<g>
	<g>
		<defs>
			<path id="SVGID_27_" d="M291.9,346.4c0,13.5,0.8,32,0.5,41.7c-0.1,2.3-1.6,4.4-3.8,5.1c-21.4,7.2-41.4,34.4-51.8,57.5
				c-0.9,1.9-2.8,3.1-4.9,3.1c-13.9-0.2-65.2-0.6-79.1,0.6c-2.1,0.2-4-1-4.9-2.9c-11.3-24.5-34.2-54-58.2-59.3
				c-3-0.7-5.2-3.2-5.4-6.2c-1-12,0.7-29.9,0.9-39.6L291.9,346.4z"/>
		</defs>
		<clipPath id="SVGID_28_">
			<use xlink:href="#SVGID_27_"  style="overflow:visible;"/>
		</clipPath>
		<path class="st22" d="M300.6,359.8c-4.7,9.4-27.3,33.6-112.3,33.6s-103-24-110.9-32l3.9-23.7l214-2.3L300.6,359.8z"/>
	</g>
	<g>
		<defs>
			<path id="SVGID_29_" d="M291.9,346.4c0,13.5,0.8,32,0.5,41.7c-0.1,2.3-1.6,4.4-3.8,5.1c-21.4,7.2-41.4,34.4-51.8,57.5
				c-0.9,1.9-2.8,3.1-4.9,3.1c-13.9-0.2-65.2-0.6-79.1,0.6c-2.1,0.2-4-1-4.9-2.9c-11.3-24.5-34.2-54-58.2-59.3
				c-3-0.7-5.2-3.2-5.4-6.2c-1-12,0.7-29.9,0.9-39.6L291.9,346.4z"/>
		</defs>
		<clipPath id="SVGID_30_">
			<use xlink:href="#SVGID_29_"  style="overflow:visible;"/>
		</clipPath>
		<g class="st23">
			<g>
				<defs>
					<path id="SVGID_31_" d="M300.6,359.8c-4.7,9.4-27.3,33.6-112.3,33.6s-103-24-110.9-32l3.9-23.7l214-2.3L300.6,359.8z"/>
				</defs>
				<clipPath id="SVGID_32_">
					<use xlink:href="#SVGID_31_"  style="overflow:visible;"/>
				</clipPath>
				<g class="st24">
					<path class="st25" d="M93.7,343.4c-1.7,2.8-1.9,6.3-2.1,9.5c-0.7,13.8,0.3,27.7,2.8,41.3"/>
					<g>
						<g>
							<path class="st26" d="M101.5,342.9c-1.9,3.6-2.1,7.7-2.2,11.7c-0.1,4.4-0.1,8.8,0,13.2c0.3,9,1.3,17.9,2.8,26.7
								c0.3,1.9,3.2,1.1,2.9-0.8c-1.5-8.4-2.3-16.9-2.7-25.4c-0.2-4.2-0.2-8.5-0.1-12.8c0.1-3.7,0-7.8,1.8-11.2
								C104.9,342.7,102.4,341.2,101.5,342.9L101.5,342.9z"/>
						</g>
						<path class="st27" d="M102.8,343.7c-1.6,2.8-1.8,6.2-1.9,9.5c-0.6,13.7,0.3,27.5,2.7,41"/>
					</g>
					<g>
						<g>
							<path class="st26" d="M110.5,343.2c-1.8,3.6-1.9,7.7-2,11.7c-0.1,4.5-0.1,8.9,0.1,13.4c0.3,8.8,1.2,17.6,2.6,26.3
								c0.3,1.9,3.2,1.1,2.9-0.8c-1.3-8.3-2.2-16.6-2.5-25c-0.2-4.1-0.2-8.3-0.1-12.4c0.1-3.8-0.1-8.1,1.7-11.6
								C113.9,343,111.3,341.5,110.5,343.2L110.5,343.2z"/>
						</g>
						<path class="st28" d="M111.8,344c-1.5,2.8-1.7,6.2-1.8,9.4c-0.5,13.6,0.4,27.3,2.6,40.8"/>
					</g>
					<g>
						<g>
							<path class="st26" d="M119.5,343.5c-1.7,3.7-1.8,7.6-1.9,11.6c-0.1,4.4-0.1,8.8,0.1,13.2c0.3,8.8,1.1,17.5,2.4,26.2
								c0.3,1.9,3.2,1.1,2.9-0.8c-1.2-8.3-2-16.6-2.3-24.9c-0.2-4.1-0.2-8.2-0.1-12.2c0.1-3.8-0.1-8,1.5-11.6
								C122.8,343.3,120.3,341.8,119.5,343.5L119.5,343.5z"/>
						</g>
						<path class="st29" d="M120.8,344.3c-1.4,2.8-1.5,6.2-1.6,9.4c-0.4,13.5,0.4,27.2,2.4,40.5"/>
					</g>
					<g>
						<g>
							<path class="st26" d="M128.5,343.8c-1.6,3.7-1.7,7.6-1.7,11.6c-0.1,4.4,0,8.7,0.1,13.1c0.3,8.7,1.1,17.4,2.2,26.1
								c0.1,0.8,1.1,1.2,1.8,1c0.9-0.2,1.2-1,1-1.8c-1.1-8.2-1.8-16.5-2.1-24.8c-0.2-4.1-0.2-8.2-0.2-12.3c0-3.7-0.2-7.8,1.3-11.3
								c0.3-0.8,0.2-1.6-0.5-2.1C129.9,342.9,128.8,343.1,128.5,343.8L128.5,343.8z"/>
						</g>
						<path class="st30" d="M129.8,344.6c-1.3,2.8-1.4,6.1-1.5,9.3c-0.3,13.4,0.5,27,2.3,40.2"/>
					</g>
					<g>
						<g>
							<path class="st26" d="M137.3,344.5c-1.4,3.7-1.4,7.7-1.4,11.6c0,4.2,0,8.5,0.2,12.7c0.3,8.5,1,16.9,2,25.3
								c0.2,1.9,3.2,1.9,3,0c-1-8.2-1.7-16.5-2-24.8c-0.2-4.1-0.2-8.2-0.2-12.2s-0.1-8.1,1.3-11.8
								C140.9,343.5,138,342.7,137.3,344.5L137.3,344.5z"/>
						</g>
						<path class="st31" d="M138.8,344.9c-1.2,2.8-1.3,6.1-1.3,9.3c-0.2,13.4,0.5,26.8,2.2,40"/>
					</g>
					<g>
						<g>
							<path class="st26" d="M146.3,344.8c-1.3,3.7-1.2,7.7-1.2,11.6c0,4.2,0.1,8.4,0.2,12.5c0.3,8.4,0.9,16.8,1.8,25.2
								c0.2,1.9,3.2,1.9,3,0c-0.9-8.2-1.5-16.5-1.8-24.7c-0.1-4.1-0.2-8.2-0.2-12.3c0-3.9-0.2-7.8,1.1-11.5
								C149.8,343.7,146.9,343,146.3,344.8L146.3,344.8z"/>
						</g>
						<path class="st32" d="M147.8,345.2c-1.1,2.8-1.2,6.1-1.2,9.2c-0.1,13.3,0.6,26.6,2,39.7"/>
					</g>
					<g>
						<g>
							<path class="st26" d="M155.3,345.1c-1.2,3.6-1.1,7.5-1.1,11.3c0,4.2,0.1,8.4,0.2,12.6c0.3,8.4,0.8,16.8,1.6,25.1
								c0.2,1.9,3.2,1.9,3,0c-0.8-8.2-1.3-16.4-1.6-24.6c-0.1-4.1-0.2-8.2-0.3-12.4c0-3.8-0.2-7.6,1-11.2
								C158.8,344,155.9,343.2,155.3,345.1L155.3,345.1z"/>
						</g>
						<path class="st33" d="M156.8,345.5c-1,2.8-1,6-1,9.2c0,13.2,0.6,26.4,1.9,39.5"/>
					</g>
					<g>
						<g>
							<path class="st26" d="M164.3,345.4c-1.1,3.7-0.9,7.6-0.9,11.5c0,4.2,0.1,8.4,0.3,12.5c0.3,8.2,0.8,16.5,1.4,24.7
								c0.2,1.9,3.2,1.9,3,0c-0.7-8.1-1.1-16.1-1.4-24.2c-0.1-4-0.2-8-0.3-12c0-3.9-0.3-7.9,0.8-11.7
								C167.7,344.3,164.8,343.5,164.3,345.4L164.3,345.4z"/>
						</g>
						<path class="st34" d="M165.8,345.8c-0.9,2.8-0.9,6-0.9,9.1c0.1,13.1,0.7,26.3,1.7,39.2"/>
					</g>
					<g>
						<g>
							<path class="st26" d="M173.3,345.7c-0.9,3.7-0.8,7.6-0.7,11.4c0.1,4.1,0.2,8.2,0.3,12.4c0.3,8.2,0.7,16.4,1.3,24.6
								c0.1,1.9,3.1,1.9,3,0c-0.6-8-1-16.1-1.3-24.1c-0.1-4-0.2-7.9-0.3-11.9c-0.1-3.9-0.3-7.9,0.6-11.6
								C176.7,344.6,173.8,343.8,173.3,345.7L173.3,345.7z"/>
						</g>
						<path class="st35" d="M174.8,346.1c-0.8,2.8-0.8,6-0.7,9.1c0.2,13,0.7,26.1,1.6,38.9"/>
					</g>
					<g>
						<g>
							<path class="st26" d="M182.3,346c-0.8,3.7-0.7,7.6-0.6,11.4c0.1,4.1,0.2,8.2,0.3,12.3c0.3,8.2,0.6,16.3,1.1,24.4
								c0.1,1.9,3.1,1.9,3,0c-0.4-8-0.8-16-1.1-24c-0.1-3.9-0.2-7.9-0.3-11.8c-0.1-3.8-0.4-7.8,0.4-11.6
								C185.6,344.9,182.7,344.1,182.3,346L182.3,346z"/>
						</g>
						<path class="st36" d="M183.8,346.4c-0.7,2.8-0.6,6-0.6,9c0.3,12.9,0.8,25.9,1.5,38.7"/>
					</g>
					<g>
						<g>
							<path class="st26" d="M191.3,346.2c-0.7,3.8-0.5,7.7-0.4,11.6c0.1,4,0.2,8.1,0.4,12.1c0.3,8,0.6,16.1,0.9,24.1
								c0.1,1.9,3.1,1.9,3,0c-0.3-7.9-0.6-15.7-0.9-23.6c-0.1-3.9-0.3-7.9-0.4-11.8c-0.1-3.8-0.4-7.7,0.3-11.5
								C194.5,345.2,191.7,344.4,191.3,346.2L191.3,346.2z"/>
						</g>
						<path class="st37" d="M192.8,346.6c-0.6,2.8-0.5,5.9-0.4,9c0.4,12.8,0.8,25.7,1.3,38.4"/>
					</g>
					<g>
						<g>
							<path class="st26" d="M200.3,346.5c-0.6,3.8-0.4,7.5-0.2,11.3c0.1,4.1,0.3,8.1,0.4,12.2c0.3,8,0.5,16,0.7,24
								c0.1,1.9,3.1,1.9,3,0c-0.2-7.8-0.4-15.7-0.7-23.5c-0.1-3.9-0.3-7.8-0.4-11.7c-0.1-3.8-0.5-7.7,0.1-11.5
								C203.5,345.5,200.6,344.6,200.3,346.5L200.3,346.5z"/>
						</g>
						<path class="st38" d="M201.8,346.9c-0.5,2.8-0.4,5.9-0.2,8.9c0.5,12.7,0.9,25.5,1.2,38.1"/>
					</g>
					<g>
						<g>
							<path class="st26" d="M209.3,347.2c-0.4,3.8-0.1,7.6,0,11.3c0.2,3.9,0.3,7.9,0.4,11.8c0.3,7.9,0.4,15.7,0.5,23.6
								c0,1.9,3,1.9,3,0c-0.1-7.9-0.3-15.7-0.5-23.6c-0.1-3.9-0.3-7.9-0.4-11.8c-0.2-3.8-0.4-7.6,0-11.3
								C212.5,345.3,209.5,345.3,209.3,347.2L209.3,347.2z"/>
						</g>
						<path class="st39" d="M210.8,347.2c-0.4,2.8-0.2,5.9-0.1,8.9c0.5,12.6,0.9,25.4,1.1,37.9"/>
					</g>
					<g>
						<g>
							<path class="st26" d="M218.3,347.5c-0.3,3.8,0,7.5,0.2,11.3c0.2,3.9,0.3,7.8,0.5,11.7c0.2,7.8,0.4,15.7,0.4,23.5
								c0,1.9,3,1.9,3,0c0-7.8-0.1-15.7-0.4-23.5c-0.1-3.9-0.3-7.8-0.5-11.7c-0.2-3.8-0.5-7.5-0.2-11.3
								C221.4,345.6,218.4,345.6,218.3,347.5L218.3,347.5z"/>
						</g>
						<path class="st40" d="M219.8,347.5c-0.2,2.8-0.1,5.8,0.1,8.8c0.6,12.5,1,25.2,0.9,37.6"/>
					</g>
					<g>
						<g>
							<path class="st26" d="M227.3,347.8c-0.2,3.8,0.2,7.6,0.4,11.5s0.4,7.7,0.5,11.6c0.2,7.7,0.3,15.4,0.2,23.1c0,1.9,3,1.9,3,0
								c0.1-7.7,0.1-15.4-0.2-23.1c-0.1-3.8-0.3-7.6-0.5-11.3c-0.2-3.9-0.6-7.8-0.4-11.7C230.3,345.9,227.3,345.9,227.3,347.8
								L227.3,347.8z"/>
						</g>
						<path class="st41" d="M228.8,347.8c-0.1,2.8,0,5.8,0.2,8.8c0.7,12.4,1,25,0.8,37.4"/>
					</g>
					<g>
						<g>
							<path class="st26" d="M236.3,348.1c0,3.7,0.3,7.5,0.5,11.2c0.2,3.9,0.4,7.8,0.5,11.6c0.2,7.7,0.2,15.3,0,23
								c-0.1,1.9,2.9,1.9,3,0c0.2-7.7,0.2-15.3,0-23c-0.1-3.8-0.3-7.6-0.5-11.4s-0.6-7.6-0.5-11.4
								C239.3,346.2,236.3,346.2,236.3,348.1L236.3,348.1z"/>
						</g>
						<path class="st42" d="M237.8,348.1c0,2.8,0.2,5.8,0.4,8.7c0.8,12.3,1.1,24.8,0.7,37.1"/>
					</g>
					<g>
						<g>
							<path class="st26" d="M245.3,348.4c0.2,7.6,1,15.1,1.3,22.7c0.2,7.6,0.2,15.2-0.2,22.8c-0.1,1.9,2.9,1.9,3,0
								c0.3-7.6,0.4-15.2,0.2-22.8c-0.2-7.6-1.1-15.1-1.3-22.7C248.2,346.5,245.2,346.5,245.3,348.4L245.3,348.4z"/>
						</g>
						<path class="st43" d="M246.8,348.4c0.1,2.8,0.3,5.7,0.5,8.7c0.9,12.3,1.1,24.6,0.5,36.8"/>
					</g>
					<g>
						<g>
							<path class="st26" d="M254.3,348.7c0.4,7.5,1.2,14.9,1.5,22.5c0.2,7.6,0.1,15.2-0.4,22.7c-0.1,1.9,2.9,1.9,3,0
								c0.5-7.6,0.6-15.2,0.4-22.7s-1-15-1.5-22.5C257.2,346.8,254.2,346.8,254.3,348.7L254.3,348.7z"/>
						</g>
						<path class="st44" d="M255.8,348.7c0.2,2.8,0.4,5.7,0.7,8.6c1,12.2,1.2,24.5,0.4,36.6"/>
					</g>
					<g>
						<g>
							<path class="st26" d="M263.3,349c0.7,7.4,1.4,14.8,1.7,22.3c0.2,7.5,0,15.1-0.6,22.6c-0.1,1.9,2.9,1.9,3,0
								c0.6-7.5,0.8-15,0.6-22.6c-0.2-7.5-1-14.9-1.7-22.3C266.1,347.1,263.1,347.1,263.3,349L263.3,349z"/>
						</g>
						<path class="st45" d="M264.8,349c0.3,2.8,0.6,5.7,0.8,8.6c1.1,12.1,1.2,24.3,0.3,36.3"/>
					</g>
					<g>
						<g>
							<path class="st26" d="M272.3,349.3c1.9,14.8,2.5,29.6,1.1,44.6c-0.2,1.9,2.8,1.9,3,0c1.4-14.9,0.8-29.7-1.1-44.6
								C275,347.4,272,347.4,272.3,349.3L272.3,349.3z"/>
						</g>
						<path class="st46" d="M273.8,349.3c0.4,2.8,0.7,5.7,1,8.5c1.2,12,1.2,24.1,0.1,36.1"/>
					</g>
					<g>
						<g>
							<path class="st26" d="M281.3,350c2.3,14.5,2.7,29.3,1.1,43.8c-0.2,1.9,2.8,1.9,3,0c1.6-14.9,1.2-29.9-1.2-44.6
								C283.9,347.3,281,348.1,281.3,350L281.3,350z"/>
						</g>
					</g>
				</g>
			</g>
		</g>
	</g>
</g>
<g>
	<path class="st2" d="M187.7,423.7c-6-3.8-30.2-18.9-35.1-21.5c-0.3-0.2-0.9-0.5-1.1-0.7c-0.2-0.2-0.2-1-0.2-1.5l-0.7-15.3l-1.8-0.4
		c-10.9-2.6-22.1-5.2-32.1-10.4c-10.7-5.6-19.7-13.7-30-24.1c-0.9-0.9-1.4-2.2-1.4-3.5c0.1-4.1,0.3-8.2,0.6-12.2
		c1.2-16.3,14.9-29.1,31.3-29.1c0.3,0,0.7,0,1,0l152.2,4.8c10.9,0.3,19.4,9.1,19.6,20c0.1,5.7,0.1,11.3,0.1,16.6
		c0,1.3-0.5,2.4-1.4,3.3l-0.1,0.2c-10.2,10.5-19.2,18.6-30,24.1c-10,5.2-21.2,7.8-32.1,10.4l-1.8,0.4L224,400c0,0.5-0.1,1.2-0.2,1.5
		c-0.1,0.1-0.4,0.3-0.6,0.4c-0.3,0.2-0.5,0.3-0.8,0.5C221.2,403.3,201.5,415.3,187.7,423.7z"/>
	<path class="st26" d="M117.3,307.3c0.3,0,0.6,0,0.9,0l152.2,4.8c9.5,0.3,17,8,17.1,17.5c0.1,5.7,0.1,11.2,0.1,16.5
		c0,0.6-0.2,1.2-0.6,1.6l-0.1,0.1c-10,10.3-18.9,18.2-29.3,23.6c-9.7,5-20.8,7.7-31.5,10.2l-3.7,0.9l-0.2,3.8l-0.3,6.9l-0.3,6.6
		c0,0,0,0,0,0.1c-0.2,0.1-0.4,0.2-0.5,0.4c-1.5,1-20.2,12.5-33.3,20.5c-7.6-4.8-29.2-18.3-33.9-20.8v-0.1l-0.3-6.6l-0.3-6.9
		l-0.2-3.8l-3.7-0.9c-10.7-2.5-21.8-5.2-31.5-10.2c-10.4-5.4-19.3-13.4-29.3-23.7c-0.4-0.4-0.7-1.1-0.6-1.7
		c0.1-4.1,0.3-8.2,0.6-12.1C89.6,319.1,102.2,307.3,117.3,307.3 M117.3,302.3c-17.7,0-32.5,13.7-33.8,31.4
		c-0.3,3.8-0.5,7.9-0.6,12.3c-0.1,2,0.7,3.9,2.1,5.3l0,0c9.2,9.4,18.9,18.5,30.6,24.6c10.2,5.3,21.5,8,32.7,10.6
		c0.2,4.5,0.4,9,0.6,13.4c0,0.9,0.1,1.9,0.6,2.7c0.5,0.7,1.2,1.1,2,1.5c5.4,2.9,36.2,22.3,36.2,22.3s34.5-21,36.2-22.3
		c0.7-0.5,1.5-0.8,2-1.5c0.5-0.8,0.6-1.8,0.6-2.7c0.2-4.5,0.4-9,0.6-13.4c11.2-2.7,22.5-5.4,32.7-10.6c11.7-6,21.4-15.2,30.6-24.6
		l0.1-0.2c1.3-1.4,2.1-3.2,2.1-5.1c0-5.2,0-10.8-0.1-16.6c-0.1-12.2-9.8-22.1-22-22.4l-152.2-4.8C118,302.4,117.6,302.3,117.3,302.3
		L117.3,302.3z"/>
</g>
<g>
	<g>
		<path class="st47" d="M178.7,404.4c1.9,0.9,3.9,1.4,5.9,1.4c1.4,0.1,2.8-0.2,4.1-0.4c2.6-0.5,4.9-1.7,6.8-3.6
			c0.2-0.2,0.2-0.4,0.4-0.7c-0.3,0-0.3,0-0.4,0c-2.7,2.1-5.7,2.8-9.1,2.3c-3-0.5-5.5-1.9-7.5-4.2c-2.4-2.8-3.3-6-2.9-9.6
			c0.3-3.1,1.4-5.9,3.4-8.3c1.7-2.1,3.9-3.5,6.5-4.3c3-1,6.1-1.1,9.2-0.5c2,0.4,3.8,1.3,5.5,2.5c0.1,0.1,0.3,0.1,0.5,0.1
			c0-0.1,0-0.3-0.1-0.4c-2.1-2-4.4-3.6-7.2-4.4c-1.3-0.4-2.7-0.6-4-0.9l-2.1-0.1c-0.1,0-0.1,0.1-0.2,0.1c-3,0.1-5.7,0.9-8.3,2.4
			c-2.8,1.6-5.1,3.8-6.7,6.5c-2,3.4-2.8,7.1-2.2,11c0.2,1.6,0.8,3.2,1.6,4.6c1.1,1.9,2.7,3.9,4.2,4.8
			C177.7,403.9,178.1,404.1,178.7,404.4"/>
	</g>
	<g>
		<path class="st48" d="M206.9,392.1c0.1-4.3-1.6-8-4.8-10.8c-3.5-3.1-7.7-4.2-12.3-3.6c-3.2,0.4-6,1.6-8.3,3.9
			c-0.2,0.1-0.3,0.3-0.4,0.5c0,0.1,0.1,0.1,0.1,0.2c0.2-0.1,0.3-0.1,0.5-0.2c2.6-1.8,5.5-2.5,8.7-2.1c3.9,0.5,6.8,2.5,8.9,5.8
			c2,3.2,2.2,6.6,1.3,10.2c-1.2,4.8-4.1,8.3-8.7,10.1c-2.9,1.2-5.9,1.5-9,1c-2.1-0.4-4.1-1.1-5.8-2.3c-0.2-0.1-0.8-0.7-1-0.6
			c-0.1,0-0.2,0.1-0.4,0.2c0.1,0.1,0.2,0.3,0.3,0.3c2.9,2.7,6.3,4.5,10.3,5s7.8-0.1,11.3-2.1C203.5,404.1,206.8,399,206.9,392.1"/>
	</g>
	<g>
		<path class="st49" d="M194.6,391.6c-2,1.9-3.9,3.6-5.9,5.4c-0.1,0.1-0.6,0-0.7-0.1c-1.3-1.4-2.6-2.8-3.9-4.1
			c-0.4-0.5-0.9-0.9-1.4-1.5c0.2-0.2,0.4-0.4,0.6-0.6c1.7-1.6,3.4-3.2,5-4.8c0.3-0.3,0.5-0.3,0.7,0c1.3,1.4,2.6,2.8,4,4.2
			C193.5,390.6,194,391.1,194.6,391.6"/>
	</g>
</g>
<g>
	<circle class="st50" cx="281.2" cy="393.4" r="2"/>
	<line class="st51" x1="282.4" y1="392.3" x2="280.1" y2="394.6"/>
	<line class="st51" x1="280.2" y1="392.4" x2="282.3" y2="394.5"/>
</g>
<g>
	<ellipse transform="matrix(0.1602 -0.9871 0.9871 0.1602 -196.5544 599.7781)" class="st50" cx="254.2" cy="415.4" rx="2" ry="2"/>
	<line class="st51" x1="255.4" y1="414.3" x2="253.1" y2="416.6"/>
	<line class="st51" x1="253.2" y1="414.4" x2="255.3" y2="416.5"/>
</g>
<g>
	<circle class="st50" cx="226.2" cy="449.4" r="2"/>
	<line class="st51" x1="227.4" y1="448.3" x2="225.1" y2="450.6"/>
	<line class="st51" x1="225.2" y1="448.4" x2="227.3" y2="450.5"/>
</g>
<g>
	<circle class="st50" cx="98.2" cy="390.4" r="2"/>
	<line class="st51" x1="97.1" y1="389.3" x2="99.4" y2="391.6"/>
	<line class="st51" x1="99.3" y1="389.4" x2="97.2" y2="391.5"/>
</g>
<g>
	<circle class="st50" cx="127.2" cy="414.4" r="2"/>
	<line class="st51" x1="126.1" y1="413.3" x2="128.4" y2="415.6"/>
	<line class="st51" x1="128.3" y1="413.4" x2="126.2" y2="415.5"/>
</g>
<g>
	<circle class="st50" cx="158.2" cy="450.4" r="2"/>
	<line class="st51" x1="157.1" y1="449.3" x2="159.4" y2="451.6"/>
	<line class="st51" x1="159.3" y1="449.4" x2="157.2" y2="451.5"/>
</g>
<circle class="st52" cx="191.6" cy="216.9" r="151.5"/>
<g>
	<path class="st53" d="M281.4,163.6c-18-35.9-62.4-49.2-93.5-52.4c0,0-32.1-4.5-27.2,10.2c0,0,10.2,16.7-19.7,11.1
		c-38.1-7.2-64.9,63.1-57,104.9c7.6,40.6,54.2,70,131.7,59c7.9-1.1,38.3-8.3,51.4-17.1C321.8,242.3,296.4,193.6,281.4,163.6z"/>
	<g>
		<path class="st54" d="M255.4,190.4c-1.6-1-3.7-0.6-4.8,1l-5.4,8.3c-1,1.6-0.6,3.7,1,4.8c0.8,0.5,1.7,0.7,2.6,0.5
			c0.9-0.2,1.7-0.7,2.2-1.5l5.4-8.3C257.5,193.6,257,191.4,255.4,190.4z"/>
	</g>
	<g>
		<path class="st54" d="M265.4,193c-1.6-1-3.7-0.6-4.8,1l-5.4,8.3c-1,1.6-0.6,3.7,1,4.8c0.8,0.5,1.7,0.7,2.6,0.5s1.7-0.7,2.2-1.5
			l5.4-8.3C267.5,196.1,267,194,265.4,193z"/>
	</g>
	<g>
		<path class="st54" d="M128.5,196.6c-1.6-1-3.7-0.6-4.8,1l-5.4,8.3c-1,1.6-0.6,3.7,1,4.8c0.8,0.5,1.7,0.7,2.6,0.5s1.7-0.7,2.2-1.5
			l5.4-8.3C130.5,199.7,130.1,197.6,128.5,196.6z"/>
	</g>
	<g>
		<path class="st54" d="M138.5,199.1c-1.6-1-3.7-0.6-4.8,1l-5.4,8.3c-1,1.6-0.6,3.7,1,4.8c0.8,0.5,1.7,0.7,2.6,0.5
			c0.9-0.2,1.7-0.7,2.2-1.5l5.4-8.3C140.5,202.3,140.1,200.2,138.5,199.1z"/>
	</g>
	<path class="st55" d="M183.8,241.5c0,0,2.2,23,18,20.4c15.9-2.6,12.7-22.2,12.7-27.4s-15.7-12.4-15.7-12.4L183.8,241.5z"/>
	<g>
		<path class="st54" d="M247,213.2c-4.2-4.6-10.7-6.6-16.7-7.3c-9.9-1.1-20.3,2.2-27.8,8.9c-2.2,2-3.4,4.5-3.7,7.3
			c-0.6-1.4-1.5-2.7-2.4-3.9c-7.3-9.1-20.1-12.7-31.4-11.9c-8.5,0.6-18.5,2.4-25.2,8.3c-0.1,0.1-0.2,0.1-0.2,0.2
			c-5.5,5-7.9,13.9-3.2,20.3c3.3,4.4,9.5,6.7,14.6,8.1c11.9,3.4,26.9,4.8,38.2-1.2c3.7-1.9,6.9-4.8,8.9-8.4c0.9-1.6,1.5-3.3,1.7-5
			c1.6,3.4,5,5.2,8.6,6.2c8.5,2.5,18.1,3.4,26.8,1.2C244.7,233.6,255.9,222.9,247,213.2z"/>
	</g>
	<g>
		<path class="st56" d="M202.5,227.3c4.3-1.4,10.5-5.2,10.2-12.1c-0.4-11.1-15.8-13.7-23.6-12.7c-9,1.2-16.7,10.1-15,18.5
			c1.5,7.1,11.3,8.1,18.5,8.1C192.7,229.1,198.2,228.8,202.5,227.3z"/>
	</g>
	<g>
		<path class="st56" d="M157.3,203.2L157.3,203.2c-6.1-0.5-10.6-5.9-10.1-11.9l0,0c0.5-6.1,5.9-10.6,11.9-10.1l0,0
			c6.1,0.5,10.6,5.9,10.1,11.9l0,0C168.8,199.2,163.4,203.7,157.3,203.2z"/>
	</g>
	<g>
		<path class="st56" d="M225.4,202L225.4,202c-6.1-0.5-10.6-5.9-10.1-11.9l0,0c0.5-6.1,5.9-10.6,11.9-10.1l0,0
			c6.1,0.5,10.6,5.9,10.1,11.9l0,0C236.8,197.9,231.5,202.5,225.4,202z"/>
	</g>
	
		<ellipse transform="matrix(8.219417e-02 -0.9966 0.9966 8.219417e-02 31.5558 365.1495)" class="st56" cx="214" cy="165.4" rx="4.9" ry="7.5"/>
	
		<ellipse transform="matrix(8.219417e-02 -0.9966 0.9966 8.219417e-02 -16.0576 314.9852)" class="st56" cx="163" cy="166.2" rx="4.9" ry="7.5"/>
	<g>
		<path class="st54" d="M215.8,263.1c-1.7-0.2-3.2,1.1-3.4,2.8c-0.2,2.1-5.1,4.5-8.3,5.3c-6.5,1.5-11.9-0.3-13.4-1.1
			c-0.6-0.8-1.5-1.3-2.5-1.2c-1.7,0-3.1,1.5-3,3.2c0,0.8,0.3,1.9,1.6,2.8c2.7,2.1,10.6,4.3,18.9,2.4c0.2,0,0.6-0.2,1.2-0.4
			c3.2-1,11.2-4.1,11.8-10.4C218.7,264.7,217.5,263.2,215.8,263.1z M191.4,271.9L191.4,271.9L191.4,271.9z"/>
	</g>
</g>
<path class="st57" d="M61.2,188.4c13-11,24-57,124-58s140,56,140,56l13-24l-58-72l-130,11L69,132.7l-18.8,42.7L61.2,188.4z"/>
<g>
	<path class="st58" d="M182.1,370.4c-31.8,0-63.8-18.1-90.3-34.8c-24.5-15.5-42-55.9-48-76l30.2-5.1c9,30.5,56.2,64.1,109.4,63.4
		c30.1-0.3,60.5-7.3,83.4-19.1c17.7-9.1,39.3-25.6,41.1-52.2l31,1.2c-2,28.7-25.6,65.9-54.6,90.4c-25.1,21.2-64.4,31.8-100.4,32.2
		C183.3,370.4,182.7,370.4,182.1,370.4z"/>
</g>
<g>
	<path class="st2" d="M59.2,178.8c0,0,9.3-58.7,134-58.7S320,173.6,320,173.6s-33,106.1,11.3,104.1c44.3-2.1,40.2-70.1,26.8-105.1
		S312.8,43.8,191.2,44.8s-163.9,93.8-169,138.1S18,289.1,50,289.1S86,232.4,59.2,178.8z"/>
	<path class="st3" d="M50,289.6c-6.5,0-12.1-2.6-16.6-7.6c-7.3-8.1-11.7-22.7-13.3-43.2c-1.6-20.4,0-41.7,1.7-55.9
		c2.6-22.6,14.7-56.9,40.9-85.6c31.3-34.2,75.8-52.5,128.6-53c118.4-1,151.8,87.2,166.1,124.9l1.2,3.2c9,23.6,14.9,67.3-0.2,90.6
		c-6.2,9.5-15.3,14.6-27,15.2c-7.1,0.3-12.7-2.1-16.6-7.2c-7.6-9.8-9.1-29.2-4.4-57.7c3.3-20.4,8.8-38.4,9.2-39.8
		c-0.1-1.1-1.4-13.8-16.5-26.4c-14.6-12.1-45.6-26.6-109.8-26.6c-35.5,0-84,5.1-113.4,29.2c-16.6,13.6-19.7,27.3-20,28.9
		c18.6,37.3,23.1,79,10.7,99.1C65.6,285.5,58.6,289.6,50,289.6z M193.1,45.3c-0.6,0-1.3,0-1.9,0C138.7,45.7,94.5,63.9,63.4,98
		c-26.1,28.5-38.1,62.6-40.7,85c-2,17.8-7.3,77.4,11.4,98.4c4.3,4.8,9.7,7.3,15.9,7.3c8.3,0,14.9-3.8,19.5-11.3
		c12.3-19.9,7.8-61.2-10.8-98.3l-0.1-0.1l0-0.2c0-0.1,2.6-15,20.4-29.7c16.4-13.4,49.5-29.5,114.1-29.5c35.6,0,83.7,4.7,110.5,26.9
		c16.1,13.4,16.8,26.6,16.8,27.1l0,0.1l0,0.1c-0.2,0.7-22.7,73.8-5,96.7c3.7,4.8,9,7.1,15.8,6.8c11.3-0.5,20.2-5.5,26.2-14.7
		c9-13.8,15-50.8,0.1-89.7l-1.2-3.2C342.3,132.3,309.2,45.3,193.1,45.3z"/>
</g>
<g>
	<g>
		<defs>
			<path id="SVGID_33_" d="M59.2,178.8c0,0,9.3-58.7,134-58.7S320,173.6,320,173.6s-33,106.1,11.3,104.1
				c44.3-2.1,40.2-70.1,26.8-105.1S312.8,43.8,191.2,44.8s-163.9,93.8-169,138.1S18,289.1,50,289.1S86,232.4,59.2,178.8z"/>
		</defs>
		<clipPath id="SVGID_34_">
			<use xlink:href="#SVGID_33_"  style="overflow:visible;"/>
		</clipPath>
		<g class="st59">
			<g>
				<g>
					<path class="st13" d="M90.3,53c-3.3,16.1,0.2,32.7,7.6,47.1c7.7,14.8,19.5,27,32.5,37.1c7.4,5.8,15.3,11,23.3,15.9
						c1.7,1,3.2-1.6,1.5-2.6c-13.8-8.5-27.2-17.8-38.4-29.5c-11-11.5-19.6-25.4-23.2-41.1c-2-8.6-2.3-17.6-0.5-26.2
						C93.6,51.9,90.7,51.1,90.3,53L90.3,53z"/>
				</g>
			</g>
			<g>
				<g>
					<path class="st13" d="M293.9,53.8c3.2,15.5-0.4,31.7-7.7,45.6c-7.5,14.3-19,26-31.7,35.8c-7.2,5.6-14.9,10.6-22.7,15.4
						c-1.6,1-0.1,3.6,1.5,2.6c14.2-8.7,28.1-18.4,39.6-30.6c11.3-11.9,20.1-26.4,23.6-42.6c1.9-8.9,2.1-18.1,0.3-27
						C296.4,51.1,293.5,51.9,293.9,53.8L293.9,53.8z"/>
				</g>
			</g>
		</g>
	</g>
</g>
<g>
	<path class="st7" d="M374.4,186.8c-5.4-2.9-5.2-7-20.3-7.6c-10.2-0.4-19.2,18.5-20.2,42.3c-0.9,23.7,6.6,43.3,16.8,43.7
		c12.3,0.5,13-2.3,19.5-4.9C377,257.6,379.9,189.6,374.4,186.8z"/>
	
		<ellipse transform="matrix(3.849221e-02 -0.9993 0.9993 3.849221e-02 132.2637 583.11)" class="st48" cx="369.1" cy="222.8" rx="37.3" ry="16.1"/>
	
		<pattern  id="SVGID_35_" xlink:href="#SVGID_13_" patternTransform="matrix(1.0761 4.145353e-02 4.145353e-02 -1.0761 1626.9949 -18413.625)">
	</pattern>
	<path class="st60" d="M385.2,223.4c-0.8,20.6-8.6,37-17.5,36.7s-15.4-17.3-14.6-37.9s8.6-37,17.5-36.7
		C379.4,185.8,386,202.8,385.2,223.4z"/>
	<g>
		<path class="st61" d="M370.3,185.5v6.5c0.8,0,3.1,1.8,5.2,7.2c2.4,6.3,3.6,15,3.3,24c-0.8,21-8.5,30.5-10.8,30.5
			c-2.5-0.1-9.2-11-8.4-31.2c0.8-21,8.5-30.5,10.8-30.5L370.3,185.5 M370.3,185.5c-8.8,0-16.4,16.3-17.2,36.7
			c-0.8,20.6,5.8,37.6,14.6,37.9c0.1,0,0.2,0,0.3,0c8.8,0,16.4-16.3,17.2-36.7c0.8-20.6-5.8-37.6-14.6-37.9
			C370.5,185.5,370.4,185.5,370.3,185.5L370.3,185.5z"/>
	</g>
</g>
<g>
	<path class="st7" d="M20.4,270.1c5.8,2,6.2,6.1,21.2,4.2c10.1-1.3,16-21.4,13.1-45s-13.5-41.7-23.6-40.4c-12.2,1.5-12.4,4.4-18.5,8
		C6.5,200.6,14.6,268.2,20.4,270.1z"/>
	
		<ellipse transform="matrix(0.9925 -0.1225 0.1225 0.9925 -28.4797 4.1851)" class="st48" cx="19.8" cy="233.7" rx="16.1" ry="37.3"/>
	
		<pattern  id="SVGID_36_" xlink:href="#SVGID_14_" patternTransform="matrix(1.0688 -0.1319 -0.1319 -1.0688 849.5557 -18417.4766)">
	</pattern>
	<path class="st62" d="M3.9,235.7c-2.5-20.5,2.6-37.9,11.4-39c8.8-1.1,18,14.6,20.5,35.1s-2.6,37.9-11.4,39
		C15.6,271.8,6.4,256.1,3.9,235.7z"/>
	<g>
		<path class="st61" d="M16.1,203L16.1,203c0.7,0,3.3,1.3,6.5,6.9c3.3,5.9,5.7,13.9,6.8,22.6c2.5,20.1-3.3,31.5-5.8,31.8
			c0,0,0,0-0.1,0c-0.7,0-3.3-1.3-6.5-6.9c-3.3-5.9-5.7-13.9-6.8-22.6C7.8,214.8,13.6,203.3,16.1,203L16.1,203 M16.1,196.6
			c-0.3,0-0.6,0-0.9,0.1c-8.8,1.1-13.9,18.6-11.4,39c2.4,19.8,11.1,35.2,19.7,35.2c0.3,0,0.6,0,0.9-0.1c8.8-1.1,13.9-18.6,11.4-39
			C33.3,211.9,24.7,196.6,16.1,196.6L16.1,196.6z"/>
	</g>
</g>
<g>
	<line class="st63" x1="192" y1="49.1" x2="192" y2="27.1"/>
	<circle class="st64" cx="191.5" cy="23.1" r="17"/>
	<g>
		<g>
			<path class="st2" d="M193.5,14.1c0.7,0.1,1.5,0.4,2.2,0.7c-0.2-0.1-0.5-0.2-0.7-0.3c0.8,0.4,1.6,0.8,2.4,1.4
				c-0.2-0.2-0.4-0.3-0.6-0.5c0.8,0.6,1.4,1.3,2,2c-0.2-0.2-0.3-0.4-0.5-0.6c0.4,0.6,0.8,1.2,1.1,1.8c0.3,0.6,1.1,1.2,1.8,1.4
				c0.7,0.2,1.7,0.1,2.3-0.3s1.2-1,1.4-1.8s0.1-1.6-0.3-2.3c-1.8-3.7-5.5-6.5-9.5-7.3c-0.8-0.2-1.6-0.1-2.3,0.3
				c-0.6,0.4-1.2,1.1-1.4,1.8c-0.2,0.8-0.1,1.6,0.3,2.3C192.1,13.3,192.7,13.9,193.5,14.1L193.5,14.1z"/>
		</g>
	</g>
	<g>
		<g>
			<path class="st2" d="M200.3,26.9c0,0.1,0.1,0.1,0.1,0.2c-0.1-0.2-0.2-0.5-0.3-0.7c0.1,0.3,0.2,0.6,0.3,1c0-0.3-0.1-0.5-0.1-0.8
				c0,0.4,0,0.7,0,1.1C200.3,27.4,200.3,27.1,200.3,26.9c0,0.3-0.1,0.6-0.2,0.9c0.1-0.2,0.2-0.5,0.3-0.7c-0.1,0.2-0.2,0.3-0.2,0.5
				c-0.2,0.3-0.3,0.7-0.4,1.1c-0.1,0.4-0.1,0.8,0.1,1.2c0.1,0.4,0.3,0.7,0.5,1s0.5,0.6,0.8,0.8c0.7,0.4,1.5,0.6,2.3,0.3
				c0.7-0.2,1.4-0.7,1.8-1.4c0.1-0.1,0.2-0.3,0.2-0.4c0.2-0.4,0.3-0.7,0.5-1.1c0-0.2,0.1-0.3,0.1-0.5c0.1-0.4,0.1-0.8,0.2-1.3
				c0-0.2,0-0.3,0-0.5c0-0.4-0.1-0.8-0.2-1.2c-0.1-0.6-0.4-1.1-0.6-1.6c-0.2-0.3-0.4-0.6-0.8-0.8c-0.3-0.3-0.6-0.4-1-0.5
				s-0.8-0.1-1.2-0.1s-0.8,0.1-1.1,0.4c-0.6,0.4-1.2,1-1.4,1.8c0,0.3-0.1,0.5-0.1,0.8C199.9,25.9,200,26.5,200.3,26.9L200.3,26.9z"
				/>
		</g>
	</g>
</g>
<g class="st65">
	<path class="st2" d="M279.8,216.6c-4.5-24.1-16.7-46.6-34.6-63.4l19.9-21c22.2,21,37.6,49.1,43.1,79.2L279.8,216.6z"/>
</g>
<g>
	<circle class="st66" cx="35.2" cy="194.4" r="2"/>
	<line class="st10" x1="36.9" y1="194.4" x2="33.6" y2="194.5"/>
	<line class="st10" x1="35.2" y1="193" x2="35.3" y2="195.9"/>
</g>
<g>
	<circle class="st66" cx="50.2" cy="225.4" r="2"/>
	<line class="st10" x1="51.9" y1="225.4" x2="48.6" y2="225.5"/>
	<line class="st10" x1="50.2" y1="224" x2="50.3" y2="226.9"/>
</g>
<g>
	<circle class="st66" cx="47.2" cy="264.4" r="2"/>
	<line class="st10" x1="48.9" y1="264.4" x2="45.6" y2="264.5"/>
	<line class="st10" x1="47.2" y1="263" x2="47.3" y2="265.9"/>
</g>
<g>
	<circle class="st66" cx="353.2" cy="183.4" r="2"/>
	<line class="st10" x1="354.9" y1="183.4" x2="351.6" y2="183.5"/>
	<line class="st10" x1="353.2" y1="182" x2="353.3" y2="184.9"/>
</g>
<g>
	<circle class="st66" cx="338.2" cy="218.4" r="2"/>
	<line class="st10" x1="339.9" y1="218.4" x2="336.6" y2="218.5"/>
	<line class="st10" x1="338.2" y1="217" x2="338.3" y2="219.9"/>
</g>
<g>
	<circle class="st66" cx="348.2" cy="260.4" r="2"/>
	<line class="st10" x1="349.9" y1="260.4" x2="346.6" y2="260.5"/>
	<line class="st10" x1="348.2" y1="259" x2="348.3" y2="261.9"/>
</g>
<g>
	<g>
		<defs>
			<path id="SVGID_37_" d="M84.6,395.1c-1.9-0.4-3.6,1.3-3.4,3.2c1.7,14.6,4.5,30.6,9,47.7c0,0,10,33.7,26.5,57.8
				c0,0,5.2,6.2,15.7,1.2c0,0,4.3-2.5-3.6-7.6c0,0,11.5-27.6,15.3-36.6c0.8-1.8,0.8-3.9-0.1-5.7C132.7,430.1,109.1,399.8,84.6,395.1
				z"/>
		</defs>
		<clipPath id="SVGID_38_">
			<use xlink:href="#SVGID_37_"  style="overflow:visible;"/>
		</clipPath>
		<g class="st67">
			<circle class="st7" cx="88.2" cy="400.4" r="2"/>
			<line class="st10" x1="87.1" y1="399.3" x2="89.4" y2="401.6"/>
			<line class="st10" x1="89.3" y1="399.4" x2="87.2" y2="401.5"/>
		</g>
	</g>
	<g>
		<defs>
			<path id="SVGID_39_" d="M84.6,395.1c-1.9-0.4-3.6,1.3-3.4,3.2c1.7,14.6,4.5,30.6,9,47.7c0,0,10,33.7,26.5,57.8
				c0,0,5.2,6.2,15.7,1.2c0,0,4.3-2.5-3.6-7.6c0,0,11.5-27.6,15.3-36.6c0.8-1.8,0.8-3.9-0.1-5.7C132.7,430.1,109.1,399.8,84.6,395.1
				z"/>
		</defs>
		<clipPath id="SVGID_40_">
			<use xlink:href="#SVGID_39_"  style="overflow:visible;"/>
		</clipPath>
		<g class="st68">
			<circle class="st7" cx="118.2" cy="422.4" r="2"/>
			<line class="st10" x1="117.1" y1="421.3" x2="119.4" y2="423.6"/>
			<line class="st10" x1="119.3" y1="421.4" x2="117.2" y2="423.5"/>
		</g>
	</g>
	<g>
		<defs>
			<path id="SVGID_41_" d="M84.6,395.1c-1.9-0.4-3.6,1.3-3.4,3.2c1.7,14.6,4.5,30.6,9,47.7c0,0,10,33.7,26.5,57.8
				c0,0,5.2,6.2,15.7,1.2c0,0,4.3-2.5-3.6-7.6c0,0,11.5-27.6,15.3-36.6c0.8-1.8,0.8-3.9-0.1-5.7C132.7,430.1,109.1,399.8,84.6,395.1
				z"/>
		</defs>
		<clipPath id="SVGID_42_">
			<use xlink:href="#SVGID_41_"  style="overflow:visible;"/>
		</clipPath>
		<g class="st69">
			<circle class="st7" cx="140.2" cy="456.4" r="2"/>
			<line class="st10" x1="139.1" y1="455.3" x2="141.4" y2="457.6"/>
			<line class="st10" x1="141.3" y1="455.4" x2="139.2" y2="457.5"/>
		</g>
	</g>
	<g>
		<defs>
			<path id="SVGID_43_" d="M84.6,395.1c-1.9-0.4-3.6,1.3-3.4,3.2c1.7,14.6,4.5,30.6,9,47.7c0,0,10,33.7,26.5,57.8
				c0,0,5.2,6.2,15.7,1.2c0,0,4.3-2.5-3.6-7.6c0,0,11.5-27.6,15.3-36.6c0.8-1.8,0.8-3.9-0.1-5.7C132.7,430.1,109.1,399.8,84.6,395.1
				z"/>
		</defs>
		<clipPath id="SVGID_44_">
			<use xlink:href="#SVGID_43_"  style="overflow:visible;"/>
		</clipPath>
		<g class="st70">
			<g>
				<path class="st13" d="M91.8,393.9c-0.9,14.6,0.9,29.3,5.4,43.2c0.6,1.8,3.5,1,2.9-0.8c-4.4-13.7-6.2-28.1-5.3-42.4
					C94.9,392,91.9,392,91.8,393.9L91.8,393.9z"/>
			</g>
		</g>
	</g>
	<g>
		<defs>
			<path id="SVGID_45_" d="M84.6,395.1c-1.9-0.4-3.6,1.3-3.4,3.2c1.7,14.6,4.5,30.6,9,47.7c0,0,10,33.7,26.5,57.8
				c0,0,5.2,6.2,15.7,1.2c0,0,4.3-2.5-3.6-7.6c0,0,11.5-27.6,15.3-36.6c0.8-1.8,0.8-3.9-0.1-5.7C132.7,430.1,109.1,399.8,84.6,395.1
				z"/>
		</defs>
		<clipPath id="SVGID_46_">
			<use xlink:href="#SVGID_45_"  style="overflow:visible;"/>
		</clipPath>
		<g class="st71">
			<g>
				<path class="st13" d="M98.9,438.8c2.7-0.8,5.7,0.6,7.2,2.9c1.7,2.5,2,5.9,1.2,8.8c-0.9,3.3-4.1,4.6-7.2,5.2
					c-3.3,0.7-6.7,0.3-9.8-1c-0.7-0.3-1.6,0.3-1.8,1c-0.2,0.9,0.3,1.5,1,1.8c3,1.2,6.3,1.7,9.6,1.3c3.1-0.4,6.5-1.4,8.8-3.5
					c2.3-2.2,3-5.7,2.8-8.7s-1.2-6.1-3.4-8.2c-2.4-2.3-5.9-3.5-9.1-2.5C96.3,436.4,97,439.3,98.9,438.8L98.9,438.8z"/>
			</g>
		</g>
	</g>
	<g>
		<defs>
			<path id="SVGID_47_" d="M84.6,395.1c-1.9-0.4-3.6,1.3-3.4,3.2c1.7,14.6,4.5,30.6,9,47.7c0,0,10,33.7,26.5,57.8
				c0,0,5.2,6.2,15.7,1.2c0,0,4.3-2.5-3.6-7.6c0,0,11.5-27.6,15.3-36.6c0.8-1.8,0.8-3.9-0.1-5.7C132.7,430.1,109.1,399.8,84.6,395.1
				z"/>
		</defs>
		<clipPath id="SVGID_48_">
			<use xlink:href="#SVGID_47_"  style="overflow:visible;"/>
		</clipPath>
		<g class="st72">
			<g>
				<path class="st13" d="M108,452c13.9,6.6,25.7,17.2,33.8,30.4c1,1.6,3.6,0.1,2.6-1.5c-8.3-13.6-20.5-24.6-34.9-31.5
					C107.7,448.6,106.2,451.2,108,452L108,452z"/>
			</g>
		</g>
	</g>
	<g>
		<defs>
			<path id="SVGID_49_" d="M84.6,395.1c-1.9-0.4-3.6,1.3-3.4,3.2c1.7,14.6,4.5,30.6,9,47.7c0,0,10,33.7,26.5,57.8
				c0,0,5.2,6.2,15.7,1.2c0,0,4.3-2.5-3.6-7.6c0,0,11.5-27.6,15.3-36.6c0.8-1.8,0.8-3.9-0.1-5.7C132.7,430.1,109.1,399.8,84.6,395.1
				z"/>
		</defs>
		<clipPath id="SVGID_50_">
			<use xlink:href="#SVGID_49_"  style="overflow:visible;"/>
		</clipPath>
		<circle class="st73" cx="97.8" cy="447.8" r="12.5"/>
	</g>
	<g>
		<defs>
			<path id="SVGID_51_" d="M84.6,395.1c-1.9-0.4-3.6,1.3-3.4,3.2c1.7,14.6,4.5,30.6,9,47.7c0,0,10,33.7,26.5,57.8
				c0,0,5.2,6.2,15.7,1.2c0,0,4.3-2.5-3.6-7.6c0,0,11.5-27.6,15.3-36.6c0.8-1.8,0.8-3.9-0.1-5.7C132.7,430.1,109.1,399.8,84.6,395.1
				z"/>
		</defs>
		<clipPath id="SVGID_52_">
			<use xlink:href="#SVGID_51_"  style="overflow:visible;"/>
		</clipPath>
		<circle class="st74" cx="97.8" cy="447.8" r="8.5"/>
	</g>
	<g>
		<defs>
			<path id="SVGID_53_" d="M84.6,395.1c-1.9-0.4-3.6,1.3-3.4,3.2c1.7,14.6,4.5,30.6,9,47.7c0,0,10,33.7,26.5,57.8
				c0,0,5.2,6.2,15.7,1.2c0,0,4.3-2.5-3.6-7.6c0,0,11.5-27.6,15.3-36.6c0.8-1.8,0.8-3.9-0.1-5.7C132.7,430.1,109.1,399.8,84.6,395.1
				z"/>
		</defs>
		<clipPath id="SVGID_54_">
			<use xlink:href="#SVGID_53_"  style="overflow:visible;"/>
		</clipPath>
		<g class="st75">
			<circle class="st7" cx="97.8" cy="447.8" r="4.9"/>
			<line class="st76" x1="95" y1="445" x2="100.6" y2="450.7"/>
			<line class="st76" x1="100.4" y1="445.3" x2="95.3" y2="450.4"/>
		</g>
	</g>
</g>
<g>
	<g>
		<defs>
			<path id="SVGID_55_" d="M240.7,459.1c3.8,8.9,14,32.7,18.5,38.5c0,0-7.5,0.9-3.9,5.5c0,0,8,5,15.1,0.6c0,0,16.3-29.1,21.4-63.2
				c0,0,2.7-8.6,4.1-42.3c0.1-2-1.9-3.5-3.8-2.9c-21.3,7.4-41.2,34.4-51.5,57.3C239.9,454.7,239.9,457.1,240.7,459.1z"/>
		</defs>
		<clipPath id="SVGID_56_">
			<use xlink:href="#SVGID_55_"  style="overflow:visible;"/>
		</clipPath>
		<g class="st77">
			<circle class="st7" cx="292.8" cy="398.4" r="2"/>
			<line class="st10" x1="293.9" y1="397.1" x2="291.7" y2="399.6"/>
			<line class="st10" x1="291.7" y1="397.4" x2="293.9" y2="399.4"/>
		</g>
	</g>
	<g>
		<defs>
			<path id="SVGID_57_" d="M240.7,459.1c3.8,8.9,14,32.7,18.5,38.5c0,0-7.5,0.9-3.9,5.5c0,0,8,5,15.1,0.6c0,0,16.3-29.1,21.4-63.2
				c0,0,2.7-8.6,4.1-42.3c0.1-2-1.9-3.5-3.8-2.9c-21.3,7.4-41.2,34.4-51.5,57.3C239.9,454.7,239.9,457.1,240.7,459.1z"/>
		</defs>
		<clipPath id="SVGID_58_">
			<use xlink:href="#SVGID_57_"  style="overflow:visible;"/>
		</clipPath>
		<g class="st78">
			<circle class="st7" cx="263.9" cy="421.8" r="2"/>
			<line class="st10" x1="265" y1="420.5" x2="262.8" y2="423"/>
			<line class="st10" x1="262.8" y1="420.8" x2="265" y2="422.8"/>
		</g>
	</g>
	<g>
		<defs>
			<path id="SVGID_59_" d="M240.7,459.1c3.8,8.9,14,32.7,18.5,38.5c0,0-7.5,0.9-3.9,5.5c0,0,8,5,15.1,0.6c0,0,16.3-29.1,21.4-63.2
				c0,0,2.7-8.6,4.1-42.3c0.1-2-1.9-3.5-3.8-2.9c-21.3,7.4-41.2,34.4-51.5,57.3C239.9,454.7,239.9,457.1,240.7,459.1z"/>
		</defs>
		<clipPath id="SVGID_60_">
			<use xlink:href="#SVGID_59_"  style="overflow:visible;"/>
		</clipPath>
		<g class="st79">
			<circle class="st7" cx="243.5" cy="456.8" r="2"/>
			<line class="st10" x1="244.6" y1="455.5" x2="242.4" y2="458"/>
			<line class="st10" x1="242.4" y1="455.8" x2="244.6" y2="457.8"/>
		</g>
	</g>
	<g>
		<defs>
			<path id="SVGID_61_" d="M240.7,459.1c3.8,8.9,14,32.7,18.5,38.5c0,0-7.5,0.9-3.9,5.5c0,0,8,5,15.1,0.6c0,0,16.3-29.1,21.4-63.2
				c0,0,2.7-8.6,4.1-42.3c0.1-2-1.9-3.5-3.8-2.9c-21.3,7.4-41.2,34.4-51.5,57.3C239.9,454.7,239.9,457.1,240.7,459.1z"/>
		</defs>
		<clipPath id="SVGID_62_">
			<use xlink:href="#SVGID_61_"  style="overflow:visible;"/>
		</clipPath>
		<g class="st80">
			<g>
				<path class="st13" d="M285.9,392.1c1.6,14.3,0.5,28.7-3.2,42.6c-0.5,1.9,2.4,2.7,2.9,0.8c3.8-14.1,4.9-28.9,3.3-43.4
					C288.7,390.2,285.7,390.2,285.9,392.1L285.9,392.1z"/>
			</g>
		</g>
	</g>
	<g>
		<defs>
			<path id="SVGID_63_" d="M240.7,459.1c3.8,8.9,14,32.7,18.5,38.5c0,0-7.5,0.9-3.9,5.5c0,0,8,5,15.1,0.6c0,0,16.3-29.1,21.4-63.2
				c0,0,2.7-8.6,4.1-42.3c0.1-2-1.9-3.5-3.8-2.9c-21.3,7.4-41.2,34.4-51.5,57.3C239.9,454.7,239.9,457.1,240.7,459.1z"/>
		</defs>
		<clipPath id="SVGID_64_">
			<use xlink:href="#SVGID_63_"  style="overflow:visible;"/>
		</clipPath>
		<g class="st81">
			<g>
				<path class="st13" d="M284.7,434.2c-3-0.7-5.9,0.2-8.2,2.1c-2.4,2-3.6,5.1-3.9,8.1c-0.3,3.1,0.4,6.6,2.5,9s5.6,3.3,8.6,3.7
					c3.7,0.5,7.5-0.2,10.8-1.8c1.7-0.8,0.2-3.4-1.5-2.6c-3,1.4-6.5,1.9-9.7,1.3c-3-0.5-6.1-1.7-7.1-4.8c-0.9-2.8-0.8-6.2,0.7-8.8
					c1.4-2.4,4.2-4,7-3.4C285.7,437.6,286.5,434.7,284.7,434.2L284.7,434.2z"/>
			</g>
		</g>
	</g>
	<g>
		<defs>
			<path id="SVGID_65_" d="M240.7,459.1c3.8,8.9,14,32.7,18.5,38.5c0,0-7.5,0.9-3.9,5.5c0,0,8,5,15.1,0.6c0,0,16.3-29.1,21.4-63.2
				c0,0,2.7-8.6,4.1-42.3c0.1-2-1.9-3.5-3.8-2.9c-21.3,7.4-41.2,34.4-51.5,57.3C239.9,454.7,239.9,457.1,240.7,459.1z"/>
		</defs>
		<clipPath id="SVGID_66_">
			<use xlink:href="#SVGID_65_"  style="overflow:visible;"/>
		</clipPath>
		<g class="st82">
			<g>
				<path class="st13" d="M273.9,448.3c-14,7.5-25.7,19.1-33.4,33.1c-0.9,1.7,1.7,3.2,2.6,1.5c7.4-13.5,18.7-24.7,32.3-32
					C277.2,449.9,275.6,447.4,273.9,448.3L273.9,448.3z"/>
			</g>
		</g>
	</g>
	<g>
		<defs>
			<path id="SVGID_67_" d="M240.7,459.1c3.8,8.9,14,32.7,18.5,38.5c0,0-7.5,0.9-3.9,5.5c0,0,8,5,15.1,0.6c0,0,16.3-29.1,21.4-63.2
				c0,0,2.7-8.6,4.1-42.3c0.1-2-1.9-3.5-3.8-2.9c-21.3,7.4-41.2,34.4-51.5,57.3C239.9,454.7,239.9,457.1,240.7,459.1z"/>
		</defs>
		<clipPath id="SVGID_68_">
			<use xlink:href="#SVGID_67_"  style="overflow:visible;"/>
		</clipPath>
		<circle class="st83" cx="285.5" cy="444.9" r="12.5"/>
	</g>
	<g>
		<defs>
			<path id="SVGID_69_" d="M240.7,459.1c3.8,8.9,14,32.7,18.5,38.5c0,0-7.5,0.9-3.9,5.5c0,0,8,5,15.1,0.6c0,0,16.3-29.1,21.4-63.2
				c0,0,2.7-8.6,4.1-42.3c0.1-2-1.9-3.5-3.8-2.9c-21.3,7.4-41.2,34.4-51.5,57.3C239.9,454.7,239.9,457.1,240.7,459.1z"/>
		</defs>
		<clipPath id="SVGID_70_">
			<use xlink:href="#SVGID_69_"  style="overflow:visible;"/>
		</clipPath>
		<circle class="st84" cx="285.5" cy="444.9" r="8.5"/>
	</g>
	<g>
		<defs>
			<path id="SVGID_71_" d="M240.7,459.1c3.8,8.9,14,32.7,18.5,38.5c0,0-7.5,0.9-3.9,5.5c0,0,8,5,15.1,0.6c0,0,16.3-29.1,21.4-63.2
				c0,0,2.7-8.6,4.1-42.3c0.1-2-1.9-3.5-3.8-2.9c-21.3,7.4-41.2,34.4-51.5,57.3C239.9,454.7,239.9,457.1,240.7,459.1z"/>
		</defs>
		<clipPath id="SVGID_72_">
			<use xlink:href="#SVGID_71_"  style="overflow:visible;"/>
		</clipPath>
		<g class="st85">
			<circle class="st7" cx="285.5" cy="444.9" r="4.9"/>
			<line class="st76" x1="282.6" y1="442.1" x2="288.3" y2="447.8"/>
			<line class="st76" x1="288" y1="442.4" x2="282.9" y2="447.5"/>
		</g>
	</g>
</g>
<path class="st86" d="M59.7,177.9c6-14,27.8-56.9,128-58s126.9,40.4,132,53"/>
<g>
	<g>
		<defs>
			<path id="SVGID_73_" d="M188.2,393.4c-67.2,0-92.5-15-104.1-25.2c-0.2,6.3-0.3,12.7,0.1,17.9c0.3,3,2.5,5.5,5.4,6.2
				c24,5.3,46.9,34.8,58.2,59.3c0.9,1.9,2.8,3,4.9,2.9c13.9-1.2,65.2-0.8,79.1-0.6c2.1,0,4-1.2,4.9-3.1
				c10.4-23.1,30.4-50.3,51.8-57.5c2.2-0.7,3.7-2.8,3.8-5.1c0.1-4.7,0-11.3-0.1-18.5C279.6,380.3,250.8,393.4,188.2,393.4z"/>
		</defs>
		<clipPath id="SVGID_74_">
			<use xlink:href="#SVGID_73_"  style="overflow:visible;"/>
		</clipPath>
		<g class="st87">
			<g>
				<path class="st13" d="M289.2,397.3c0.5-8.2-0.4-16.4-2.6-24.2c-0.5-1.9-3.4-1.1-2.9,0.8c2.1,7.6,3,15.5,2.5,23.4
					C286.1,399.2,289.1,399.2,289.2,397.3L289.2,397.3z"/>
			</g>
		</g>
	</g>
	<g>
		<defs>
			<path id="SVGID_75_" d="M188.2,393.4c-67.2,0-92.5-15-104.1-25.2c-0.2,6.3-0.3,12.7,0.1,17.9c0.3,3,2.5,5.5,5.4,6.2
				c24,5.3,46.9,34.8,58.2,59.3c0.9,1.9,2.8,3,4.9,2.9c13.9-1.2,65.2-0.8,79.1-0.6c2.1,0,4-1.2,4.9-3.1
				c10.4-23.1,30.4-50.3,51.8-57.5c2.2-0.7,3.7-2.8,3.8-5.1c0.1-4.7,0-11.3-0.1-18.5C279.6,380.3,250.8,393.4,188.2,393.4z"/>
		</defs>
		<clipPath id="SVGID_76_">
			<use xlink:href="#SVGID_75_"  style="overflow:visible;"/>
		</clipPath>
		<g class="st88">
			<g>
				<path class="st13" d="M94.6,394.6c-0.5-7.6,0-15.3,1.5-22.8c0.4-1.9-2.5-2.7-2.9-0.8c-1.5,7.8-2.1,15.7-1.6,23.6
					C91.7,396.5,94.7,396.5,94.6,394.6L94.6,394.6z"/>
			</g>
		</g>
	</g>
</g>
</svg>
