<svg xmlns="http://www.w3.org/2000/svg" width="19" height="23" viewBox="0 0 19 23">
    <path fill="#FFF" fill-rule="evenodd" d="M14.43 3.316c-.98.399-.978 1.009-.5 2.305-.061.044-.126.066-.193.059-.5-.63-.847-3.144-2.68-2.48-1.061.385-1.162 1.079-.902 2.127l.373 1.196-.17.058c-.4-.772-.926-3.6-2.833-2.812-1.802.743.047 3.351-.11 3.866l-.122.045-.344-.801-1.88-4.9C4.735 1.11 3.91.534 2.854.94c-1.058.406-.985 1.744-.546 2.888l3.427 8.928s-4.183-1.703-4.818.379c-.635 2.082 3.433 2.622 4.987 3.654 1.554 1.031 2.654 2.028 4.135 6.03l8.844-3.396s-1.186-2.801-.712-4.296c.474-1.496.969-3.367-.037-6.132-1.007-2.766-1.684-6.499-3.704-5.678"/>
</svg>
