<?xml version="1.0" encoding="utf-8"?>
<!-- Generator: Adobe Illustrator 24.0.1, SVG Export Plug-In . SVG Version: 6.00 Build 0)  -->
<svg version="1.1" id="圖層_1" xmlns="http://www.w3.org/2000/svg" xmlns:xlink="http://www.w3.org/1999/xlink" x="0px" y="0px"
	 viewBox="0 0 50 34" style="enable-background:new 0 0 50 34;" xml:space="preserve">
<style type="text/css">
	.st0{fill:#31a043;}
</style>
<title>Travel / Tickets/Check-in/Schedule / plane-boarding-pass-1</title>
<desc>Created with Sketch.</desc>
<path id="Shape" class="st0" d="M48.3,13.9c1-0.2,1.7-1.1,1.7-2V3.5c0-1.7-1.4-3.1-3.1-3.1H3.1C1.4,0.3,0,1.7,0,3.5v8.4
	c0,1,0.7,1.8,1.7,2c1.5,0.3,2.5,1.6,2.5,3.1s-1,2.8-2.5,3.1c-1,0.2-1.7,1.1-1.7,2v8.4c0,0.8,0.3,1.6,0.9,2.2
	c0.6,0.6,1.4,0.9,2.2,0.9h43.8c1.7,0,3.1-1.4,3.1-3.1v-8.4c0-1-0.7-1.8-1.7-2c-1.5-0.3-2.5-1.6-2.5-3.1S46.9,14.2,48.3,13.9z
	 M10.9,30c-0.9,0-1.6-0.7-1.6-1.6s0.7-1.6,1.6-1.6s1.6,0.7,1.6,1.6S11.8,30,10.9,30z M10.9,22.4c-0.9,0-1.6-0.7-1.6-1.6
	c0-0.9,0.7-1.6,1.6-1.6s1.6,0.7,1.6,1.6C12.5,21.7,11.8,22.4,10.9,22.4L10.9,22.4z M10.9,14.7c-0.9,0-1.6-0.7-1.6-1.6
	c0-0.9,0.7-1.6,1.6-1.6s1.6,0.7,1.6,1.6C12.5,14,11.8,14.7,10.9,14.7z M10.9,7.1c-0.9,0-1.6-0.7-1.6-1.6c0-0.9,0.7-1.6,1.6-1.6
	s1.6,0.7,1.6,1.6C12.5,6.4,11.8,7.1,10.9,7.1z M39.5,15.4l-14.1,8.8c-0.3,0.2-0.7,0.2-1,0l-5.2-3.6c-0.1-0.1-0.2-0.2-0.2-0.3
	c0-0.1,0-0.3,0.1-0.4c0,0,0.1-0.1,0.1-0.1l2.2-1.9c0.1-0.1,0.3-0.1,0.5-0.1L24,19c0.4,0.2,0.8,0.2,1.1,0l2.2-1.6
	c0.1-0.1,0.2-0.3,0.2-0.4c0-0.2-0.1-0.3-0.2-0.4l-5.9-3.6c-0.2-0.2-0.3-0.6-0.1-0.8c0,0,0.1-0.1,0.1-0.1l1.6-1.2
	c0.2-0.1,0.4-0.2,0.6-0.1l8.5,3.2c0.3,0.1,0.7,0.1,1-0.1l3.7-2.5c0.5-0.4,1.2-0.5,1.8-0.3c0.8,0.2,1.5,0.8,1.8,1.6
	c0.1,0.3,0.1,0.5,0.1,0.8C40.6,14.2,40.2,15,39.5,15.4L39.5,15.4z"/>
</svg>
