<?xml version="1.0" encoding="utf-8"?>
<!-- Generator: Adobe Illustrator 24.0.1, SVG Export Plug-In . SVG Version: 6.00 Build 0)  -->
<svg version="1.1" id="圖層_1" xmlns="http://www.w3.org/2000/svg" xmlns:xlink="http://www.w3.org/1999/xlink" x="0px" y="0px"
	 viewBox="0 0 50 50" style="enable-background:new 0 0 50 50;" xml:space="preserve">
<style type="text/css">
	.st0{fill:#ffffff;}
</style>
<title>Real-Estate / Actions-Houses / real-estate-action-house-dollar</title>
<desc>Created with Sketch.</desc>
<path id="Shape" class="st0" d="M19.8,36.5c0-6.5,3.7-12.4,9.6-15.1s12.8-1.8,17.8,2.4c0.2,0.2,0.4,0.2,0.7,0.2H49
	c0.4,0,0.8-0.3,1-0.7s0.1-0.8-0.3-1.1L27.1,0.9l0,0c-1.2-1.1-3.1-1.1-4.3,0l0,0L0.3,22.2c-0.3,0.3-0.4,0.7-0.3,1.1S0.6,24,1,24h4.2
	c0.6,0,1,0.5,1,1v20.8c0,1.2,0.9,2.1,2.1,2.1h13.8c0.4,0,0.7-0.2,0.9-0.6s0.1-0.8-0.1-1.1C20.9,43.4,19.8,40,19.8,36.5z"/>
<path id="Shape_1_" class="st0" d="M36.5,22.9c-7.5,0-13.5,6.1-13.5,13.5S29,50,36.5,50S50,43.9,50,36.5C50,29,43.9,22.9,36.5,22.9z
	 M38.8,44.1c-0.4,0.1-0.8,0.5-0.8,1v0.2c0,0.9-0.7,1.6-1.6,1.6s-1.6-0.7-1.6-1.6c0-0.6-0.5-1-1-1h-0.5c-0.9,0-1.6-0.7-1.6-1.6
	s0.7-1.6,1.6-1.6h4.2c0.6,0,1.1-0.4,1.2-1c0.1-0.6-0.2-1.2-0.7-1.4L33.7,37c-1.7-0.7-2.8-2.4-2.7-4.3c0.1-1.9,1.4-3.4,3.1-4
	c0.4-0.1,0.8-0.5,0.8-1v-0.2c0-0.9,0.7-1.6,1.6-1.6c0.9,0,1.6,0.7,1.6,1.6c0,0.6,0.5,1,1,1h0.5c0.9,0,1.6,0.7,1.6,1.6
	c0,0.9-0.7,1.6-1.6,1.6h-4.2c-0.6,0-1.1,0.4-1.2,1s0.2,1.2,0.8,1.4l4.3,1.7c1.7,0.7,2.8,2.4,2.7,4.3S40.6,43.6,38.8,44.1L38.8,44.1z
	"/>
</svg>
