<?xml version="1.0" encoding="utf-8"?>
<!-- Generator: Adobe Illustrator 24.0.1, SVG Export Plug-In . SVG Version: 6.00 Build 0)  -->
<svg version="1.1" id="圖層_1" xmlns="http://www.w3.org/2000/svg" xmlns:xlink="http://www.w3.org/1999/xlink" x="0px" y="0px"
	 viewBox="0 0 50 50" style="enable-background:new 0 0 50 50;" xml:space="preserve">
<style type="text/css">
	.st0{fill:#31a043;}
	.st1{fill:#d2ac5c;}
</style>
<title>Sports / Climbing-Speleology / climbing-mountain</title>
<desc>Created with Sketch.</desc>
<path id="Shape" class="st0" d="M50,1c0-0.6-0.5-1-1-1h-1c-0.3,0-0.7,0.2-0.9,0.5l-3.5,5.2c-0.6,0.9-0.9,1.9-0.9,2.9v6.4
	c0,0.8-0.3,1.6-0.9,2.2l-1.7,1.7c-1,1-1.5,2.3-1.5,3.7v9.7c0,1.9-2.7,5.6-5.4,7.4l-2.8,1C30.1,40.8,30,41,30,41.3l0.1,0.3
	c0.5,2.6-1,5.2-3.5,6c-2.5,0.8-5.3-0.4-6.3-2.8c-0.1-0.3-0.4-0.4-0.7-0.3l-1.2,0.4c-0.1,0.1-0.3,0.1-0.4,0.2l-3.1,3.1
	c-0.3,0.3-0.4,0.7-0.2,1.1c0.2,0.4,0.5,0.6,1,0.6H49c0.6,0,1-0.5,1-1V1z"/>
<path id="Shape_1_" class="st1" d="M25.7,45.8c1.7-0.4,2.7-2,2.4-3.7l-1.2-5.3c-0.8-3.7-3.8-6.5-7.5-7.2L17,29.1
	c-0.2,0-0.3-0.1-0.4-0.3c-0.1-0.2-0.1-0.3,0-0.5l2.5-4.6c0.1-0.2,0.2-0.3,0.4-0.3c0.2,0,0.3,0,0.5,0.2c1.8,2.2,4.4,3.4,7.3,3.4h5.1
	c1.7,0,3.1-1.4,3.1-3.1c0-1.7-1.4-3.1-3.1-3.1h-5.1c-1,0-2-0.5-2.5-1.3c-0.2-0.2,0,0-3.6-3.9c-0.7-0.7-1.7-1.1-2.7-1
	s-1.9,0.7-2.4,1.6L8.7,29.7c-0.3,0.5-0.4,1-0.4,1.5v6.6l-3.8,7.7c-0.8,1.5-0.1,3.4,1.4,4.2s3.4,0.1,4.2-1.4l4.2-8.3
	c0.2-0.4,0.3-0.9,0.3-1.4V35l3.7,0.7c1.2,0.2,2.2,1.2,2.5,2.4l1.2,5.3C22.3,45.1,24,46.1,25.7,45.8z"/>
<path id="Shape_2_" class="st1" d="M7.6,23.6l5.8-9.9c0.9-1.5,0.4-3.4-1.1-4.3l-1.8-1C9.8,8,8.9,7.8,8.1,8.1
	C7.3,8.3,6.6,8.8,6.2,9.5l-5.8,9.9c-0.9,1.5-0.4,3.4,1.1,4.3l1.8,1.1C4.8,25.6,6.8,25.1,7.6,23.6z"/>
<circle id="Oval" class="st1" cx="24" cy="7.3" r="5.2"/>
</svg>
