<?xml version="1.0" encoding="UTF-8"?>
<svg width="46px" height="50px" viewBox="0 0 46 50" version="1.1" xmlns="http://www.w3.org/2000/svg" xmlns:xlink="http://www.w3.org/1999/xlink">
    <!-- Generator: Sketch 61 (89581) - https://sketch.com -->
    <title>Sports / Golf / golf-player</title>
    <desc>Created with Sketch.</desc>
    <style type="text/css">
        .st0{fill:#31a043;}
        .st1{fill:#d2ac5c;}
    </style>
    <g id="landing-page" stroke="none" stroke-width="1" fill="none" fill-rule="evenodd">
        <g id="LandingPage-立即體驗第一步-PC" transform="translate(-616.000000, -234.000000)" fill="#DCE6F0" fill-rule="nonzero">
            <g id="Sports-/-Golf-/-golf-player" transform="translate(615.000000, 234.000000)">
                <g id="Group">
                    <g id="Bold">
                        <path class="st0" d="M28.8770833,1.39791667 C27.6841614,0.473558253 26.0961076,0.236770914 24.6854167,0.772916667 C22.4583333,1.49166667 21.125,3.35208333 21.6583333,5.02083333 C21.88054,5.70110223 22.3702449,6.2615172 23.0145833,6.57291667 C23.604326,6.86673291 24.2557644,7.01530657 24.9145833,7.00625 C25.480474,7.00471838 26.0427065,6.91546396 26.58125,6.74166667 C26.9114329,6.63414089 27.2303111,6.49458806 27.5333333,6.325 C27.7373461,6.20875948 27.9940858,6.24470304 28.1583333,6.4125 L37.28125,15.5625 C37.8102157,16.0828788 38.5781329,16.278638 39.2916667,16.075 L39.40625,16.0416667 C40.0962894,15.8419259 40.6288572,15.2915544 40.8058073,14.5953221 C40.9827574,13.8990898 40.7776004,13.1612227 40.2666667,12.65625 L29.2708333,1.66666667 C29.1506227,1.56189254 29.0184571,1.47168425 28.8770833,1.39791667 L28.8770833,1.39791667 Z" id="Shape"></path>
                        <circle class="st1" id="Oval" cx="24.6666667" cy="15.10625" r="4.6875"></circle>
                        <path class="st1" d="M25.8708333,23.4833333 C25.7044351,23.9847619 25.6678796,24.520192 25.7645833,25.0395833 C25.7645833,25.0583333 25.7645833,25.0708333 25.7645833,25.0916667 L27.4895833,33.71875 C27.5465239,34.0040477 27.4815609,34.3001579 27.3104167,34.5354167 L20.05625,44.5166667 C19.0408515,45.9123363 19.3491221,47.8668931 20.7447917,48.8822917 C22.1404613,49.8976902 24.0950181,49.5894196 25.1104167,48.19375 L32.375,38.2104167 C32.6951575,37.7648172 32.9602751,37.2821493 33.1645833,36.7729167 C33.2344024,36.5985225 33.3930473,36.4754998 33.5793326,36.4512957 C33.7656179,36.4270916 33.9504333,36.5054883 34.0625,36.65625 L34.4583333,37.1833333 C34.6548532,37.4473162 34.7165243,37.7880491 34.625,38.1041667 L32.89375,43.99375 C32.5384124,45.0767733 32.8009276,46.2673611 33.5787697,47.1005273 C34.3566119,47.9336934 35.526386,48.2772662 36.6312345,47.9970628 C37.7360831,47.7168593 38.6007354,46.8573305 38.8875,45.7541667 L40.6208333,39.8666667 C41.2648479,37.6586406 40.834367,35.2763377 39.4583333,33.4333333 L34.5166667,26.84375 C34.4125352,26.7069356 34.3836136,26.5271532 34.4395833,26.3645833 C34.4942483,26.2021862 34.6250081,26.0768748 34.7895833,26.0291667 L44.2791667,23.3208333 C45.9388974,22.8467889 46.9000861,21.1170224 46.4260417,19.4572917 C45.9519973,17.7975609 44.2222307,16.8363723 42.5625,17.3104167 L27.9791667,21.4770833 C26.9888661,21.7577982 26.2003116,22.5081718 25.8708333,23.4833333 Z" id="Shape"></path>
                        <circle class="st0" id="Oval" cx="4.56666667" cy="45.86875" r="3.57708333"></circle>
                    </g>
                </g>
            </g>
        </g>
    </g>
</svg>