<?xml version="1.0" encoding="utf-8"?>
<!-- Generator: Adobe Illustrator 24.0.1, SVG Export Plug-In . SVG Version: 6.00 Build 0)  -->
<svg version="1.1" id="圖層_1" xmlns="http://www.w3.org/2000/svg" xmlns:xlink="http://www.w3.org/1999/xlink" x="0px" y="0px"
	 viewBox="0 0 50 50" style="enable-background:new 0 0 50 50;" xml:space="preserve">
<style type="text/css">
	.st0{fill:#FFFFFF;}
</style>
<title>Money-Payments-Finance / Finance/Savings / saving-piggy-dollars</title>
<desc>Created with Sketch.</desc>
<path id="Shape" class="st0" d="M36.2,29.9C28,29.8,21,23.7,20,15.6c0-0.3-0.3-0.5-0.6-0.5c-0.7,0-1.5,0.1-2.2,0.3
	c-1.7-2.3-4.6-3.4-7.4-2.7c-0.6,0.2-1.2,0.7-1.3,1.3c-0.2,0.7,0,1.3,0.5,1.8c0.5,0.5,1,1.1,1.2,1.8c0.1,0.2,0,0.5-0.2,0.6
	c-2.9,1.9-4.9,4.8-5.9,8.1c-0.1,0.2-0.3,0.4-0.5,0.4H3.2c-1.5,0-2.7,1.2-2.7,2.7v3.4c0,1.5,1.2,2.7,2.7,2.7h1.9
	c0.2,0,0.4,0.1,0.5,0.3c1.3,2.1,3,4,5.2,5.3l-1.6,5.4c-0.2,0.6-0.1,1.3,0.2,1.9s0.9,1,1.5,1.2c0.2,0.1,0.5,0.1,0.7,0.1
	c1.1,0,2.1-0.8,2.4-1.8l1.2-4.2c0.1-0.3,0.4-0.4,0.6-0.4c3.3,0.9,6.7,0.9,9.9,0c0.3-0.1,0.5,0.1,0.6,0.4l1.2,4.2
	c0.3,1.1,1.3,1.8,2.4,1.8c0.2,0,0.5,0,0.7-0.1c0.7-0.2,1.2-0.6,1.5-1.2c0.3-0.6,0.4-1.3,0.2-1.9l-1.5-5c-0.1-0.2,0-0.5,0.2-0.6
	c3.7-2.3,6.1-6.2,6.5-10.6c0-0.2,0-0.3-0.2-0.4c-0.1-0.1-0.3-0.2-0.4-0.2C37,29.8,36.6,29.9,36.2,29.9z M8.9,27c0-1,0.8-1.9,1.9-1.9
	c1,0,1.9,0.8,1.9,1.9c0,1-0.8,1.9-1.9,1.9C9.8,28.9,8.9,28,8.9,27L8.9,27z"/>
<path id="Shape_1_" class="st0" d="M36.2,26.8c7.3,0,13.3-5.9,13.3-13.3S43.5,0.2,36.2,0.2S22.9,6.2,22.9,13.5
	C22.9,20.8,28.9,26.8,36.2,26.8z M37.7,5.3c0,0.3,0.2,0.5,0.5,0.5h1c0.8,0,1.5,0.7,1.5,1.5s-0.7,1.5-1.5,1.5h-4.2
	c-0.6,0-1.1,0.4-1.2,1c-0.1,0.6,0.2,1.1,0.8,1.4l4.2,1.7c1.7,0.7,2.8,2.5,2.7,4.3s-1.5,3.4-3.4,3.8c-0.2,0.1-0.4,0.3-0.4,0.5v0.6
	c0,0.8-0.7,1.5-1.5,1.5c-0.8,0-1.5-0.7-1.5-1.5v-0.5c0-0.3-0.2-0.5-0.5-0.5h-1c-0.8,0-1.5-0.7-1.5-1.5c0-0.8,0.7-1.5,1.5-1.5h4.1
	c0.6,0,1.1-0.4,1.2-1c0.1-0.6-0.2-1.1-0.7-1.4l-4.2-1.7c-1.7-0.7-2.8-2.5-2.7-4.3C31,7.9,32.4,6.3,34.3,6c0.2,0,0.4-0.3,0.4-0.5V4.8
	c0-0.6,0.3-1.1,0.7-1.4s1.1-0.3,1.6,0s0.8,0.8,0.7,1.4L37.7,5.3z"/>
</svg>
