<?xml version="1.0" encoding="utf-8"?>
<!-- Generator: Adobe Illustrator 24.0.1, SVG Export Plug-In . SVG Version: 6.00 Build 0)  -->
<svg version="1.1" id="圖層_1" xmlns="http://www.w3.org/2000/svg" xmlns:xlink="http://www.w3.org/1999/xlink" x="0px" y="0px"
	 viewBox="0 0 50 50" style="enable-background:new 0 0 50 50;" xml:space="preserve">
<style type="text/css">
	.st0{fill:#31a043;}
	.st1{fill:#d2ac5c;}
</style>
<title>Family-Babies-Kids / Babies / baby-trolley</title>
<desc>Created with Sketch.</desc>
<path id="Shape" class="st1" d="M39.7,19.9c-0.6-0.1-1.1,0.1-1.5,0.5c-0.4,0.4-0.7,1-0.7,1.6v7.2c0,0.6-0.5,1-1,1h-9.3
	c-0.6,0-1.2,0.3-1.5,0.7c-0.4,0.5-0.6,1.1-0.5,1.7c0.7,5.8,5.6,10.1,11.4,10.1H38c6,0.1,11.1-4.3,11.9-10.3
	C50.6,26.1,46,20.5,39.7,19.9z"/>
<circle id="Oval" class="st1" cx="30.2" cy="46.9" r="3.1"/>
<circle id="Oval_1_" class="st1" cx="44.8" cy="46.9" r="3.1"/>
<path id="Shape_1_" class="st0" d="M16.4,18.8c-0.2-0.2-0.5-0.2-0.8-0.2c-0.3,0-0.5,0.2-0.7,0.4l-3.1,4.3c-0.1,0.1-0.3,0.2-0.4,0.2
	c-0.2,0-0.3-0.1-0.4-0.2L8,19c-0.2-0.2-0.4-0.4-0.7-0.4c-0.3,0-0.6,0-0.8,0.2c-1.6,1.2-2.7,2.9-3.2,4.9L0,38.3
	c-0.1,0.3,0,0.6,0.2,0.9s0.5,0.4,0.8,0.4h3.3c0.5,0,1,0.4,1,0.9l0.8,8.5c0.1,0.5,0.5,0.9,1,0.9h8.3c0.5,0,1-0.4,1-0.9l0.9-8.5
	c0.1-0.5,0.5-0.9,1-0.9h3.3c0.3,0,0.6-0.1,0.8-0.4s0.3-0.6,0.2-0.9l-3.3-14.6C19.2,21.7,18,20,16.4,18.8z"/>
<path id="Shape_2_" class="st0" d="M4.2,18c0.5-0.6,0.9-1.2,1.2-1.8c0.1-0.1,0.2-0.2,0.3-0.3c0.1,0,0.3,0,0.4,0.1
	c3.1,2.3,7.4,2.3,10.5,0c0.1-0.1,0.3-0.1,0.4-0.1c0.1,0,0.3,0.1,0.3,0.3c0.4,0.6,0.8,1.3,1.2,1.8c0.7,0.9,2,1,2.9,0.3
	c0.9-0.7,1-2,0.3-2.9c-1-1.1-1.6-2.6-1.6-4.1V8.9c0-4.9-4-8.9-8.9-8.9S2.6,4,2.6,8.9v2.4c0,1.5-0.6,3-1.6,4.1
	c-0.5,0.6-0.6,1.4-0.3,2.1c0.3,0.7,0.9,1.2,1.6,1.3S3.7,18.6,4.2,18z M7.2,8.9c0.7-0.1,1.3-0.3,1.9-0.6c0.8-0.4,1.4-0.9,1.9-1.5
	c0.1-0.1,0.3-0.2,0.4-0.2s0.3,0.1,0.4,0.2c0.5,0.7,1.2,1.2,1.9,1.5c0.6,0.3,1.2,0.5,1.9,0.6c0.3,0.1,0.5,0.3,0.4,0.6
	c-0.3,2.3-2.3,4.1-4.6,4.1s-4.4-1.8-4.6-4.1C6.8,9.2,7,8.9,7.2,8.9z"/>
</svg>
