<?xml version="1.0" encoding="utf-8"?>
<!-- Generator: Adobe Illustrator 23.0.4, SVG Export Plug-In . SVG Version: 6.00 Build 0)  -->
<svg version="1.1" id="Layer_1" xmlns="http://www.w3.org/2000/svg" xmlns:xlink="http://www.w3.org/1999/xlink" x="0px" y="0px"
	 viewBox="0 0 52 54" style="enable-background:new 0 0 52 54;" xml:space="preserve">
<style type="text/css">
	.st0{fill:#00B85A;}
	.st1{fill:#2F3BF5;}
</style>
<path class="st0" d="M24.5,44.3H13c-0.3,0-0.5-0.2-0.5-0.5s0.2-0.5,0.5-0.5h11.4c0.3,0,0.5,0.2,0.5,0.5S24.7,44.3,24.5,44.3z"/>
<path class="st1" d="M18.3,26h-3.1c-0.3,0-0.5-0.2-0.5-0.5S15,25,15.3,25h3.1c0.3,0,0.5,0.2,0.5,0.5S18.6,26,18.3,26z"/>
<path class="st1" d="M17.9,35.2H9.1c-0.3,0-0.5-0.2-0.5-0.5s0.2-0.5,0.5-0.5h8.8c0.3,0,0.5,0.2,0.5,0.5S18.2,35.2,17.9,35.2z"/>
<path class="st1" d="M17.9,30.6H9.1c-0.3,0-0.5-0.2-0.5-0.5s0.2-0.5,0.5-0.5h8.8c0.3,0,0.5,0.2,0.5,0.5S18.2,30.6,17.9,30.6z"/>
<path class="st1" d="M19.1,39.8H9.9c-0.3,0-0.5-0.2-0.5-0.5s0.2-0.5,0.5-0.5h9.2c0.3,0,0.5,0.2,0.5,0.5S19.4,39.8,19.1,39.8z"/>
<path class="st0" d="M35.9,52.5c-0.7,0-1.2-0.2-1.6-0.5c-0.8-0.8-0.8-2.5-0.8-4.1c0-1.6,0-3.2-0.8-4c-0.4-0.4-0.8-0.5-1.4-0.5h-6.5
	c-1.1-5.7-1.4-13.7-1.4-18c0-0.3-0.2-0.5-0.5-0.5c-0.3,0-0.5,0.2-0.5,0.5c0.1,4.4,0.4,12.8,1.5,18.6c0,0.2,0.3,0.4,0.5,0.4h6.9
	c0.4,0,0.6,0.1,0.7,0.2c0.5,0.5,0.5,1.9,0.5,3.3c0,1.7,0,3.5,0.9,4.7H17.6c-0.7,0-1.2-0.2-1.6-0.5c-0.8-0.8-0.8-2.5-0.8-4.1
	c0-1.6,0-3.2-0.8-4c-0.4-0.4-0.8-0.5-1.4-0.5c-0.7,0-1.2,0.2-1.6,0.6c-0.6,0.6-0.6,1.6-0.6,2.6c0,0.9,0,1.9-0.5,2.4
	c-0.4,0.4-1,0.5-1.9,0.5c-0.3,0-0.6-0.1-0.9-0.4c-3.8-3.9-3.2-27.1-3.2-27.4c0-0.5-0.1-1.2-0.5-1.8H19c0.3,0,0.5-0.2,0.5-0.5
	s-0.2-0.5-0.5-0.5H2.2c-1,0-1.7,1.1-1.9,3.3c-0.1,0.6,0.1,1.2,0.5,1.6c0.4,0.4,0.9,0.7,1.5,0.7c0,0,0,0,0,0h0.9
	c0,6.5,0.2,21.9,3.5,25.3c0.5,0.5,1,0.7,1.6,0.7h5.9c0.1,0.9,0.4,1.7,1,2.2c0.5,0.6,1.3,0.8,2.3,0.8h18.3c0.3,0,0.5-0.2,0.5-0.5
	S36.2,52.5,35.9,52.5z M3.3,23.4H2.3c0,0,0,0,0,0c-0.3,0-0.6-0.1-0.8-0.3c-0.2-0.2-0.3-0.5-0.3-0.8c0.2-1.9,0.7-2.4,0.9-2.4
	c1,0,1.1,1.8,1.1,1.8C3.3,21.8,3.3,22.4,3.3,23.4z M11.1,49.5c0.7-0.8,0.7-1.9,0.7-3c0-0.8,0-1.6,0.3-1.9c0.2-0.2,0.5-0.3,0.9-0.3
	c0.4,0,0.6,0.1,0.7,0.2c0.5,0.5,0.5,1.9,0.5,3.3c0,0.5,0,1.1,0,1.6H11.1z"/>
<path class="st1" d="M22.3,22.7c-0.2,0-0.5-0.1-0.7-0.2c-0.4-0.3-0.6-0.8-0.4-1.3l1.2-3.6l-2.6-1.9c-0.4-0.3-0.6-0.8-0.4-1.3
	c0.2-0.5,0.6-0.8,1.1-0.8h3.5l1.2-4.1c0,0,0,0,0,0c0.1-0.5,0.6-0.8,1.1-0.8c0.5,0,1,0.3,1.1,0.8l1.2,4.1h3.5c0.5,0,0.9,0.3,1.1,0.8
	c0.2,0.5,0,1-0.4,1.3l-2.6,1.9l1.2,3.6c0.2,0.5,0,1-0.4,1.3c-0.4,0.3-1,0.3-1.4,0L26.2,20L23,22.4C22.8,22.6,22.5,22.7,22.3,22.7z
	 M20.4,14.6c-0.1,0-0.1,0-0.1,0.1c0,0.1,0,0.1,0.1,0.2l2.9,2.1c0.2,0.1,0.3,0.4,0.2,0.6l-1.3,3.9c0,0.1,0,0.1,0.1,0.2
	c0.1,0,0.1,0,0.2,0l3.6-2.7c0.2-0.1,0.4-0.1,0.6,0l3.6,2.7c0.1,0,0.1,0,0.2,0c0.1,0,0.1-0.1,0.1-0.2l-1.3-3.9
	c-0.1-0.2,0-0.4,0.2-0.6l2.9-2.1c0.1,0,0.1-0.1,0.1-0.2c0-0.1-0.1-0.1-0.1-0.1h-3.9c-0.2,0-0.4-0.1-0.5-0.4l-1.3-4.5
	c0-0.1-0.3-0.1-0.3,0l-1.3,4.5c-0.1,0.2-0.3,0.4-0.5,0.4H20.4z"/>
<path class="st1" d="M11.2,16.6c-0.3,0-0.5-0.2-0.5-0.5c0-8.6,7-15.6,15.6-15.6c5.1,0,9.9,2.5,12.8,6.7c0.2,0.2,0.1,0.5-0.1,0.7
	C38.7,8,38.4,8,38.2,7.7c-2.7-3.9-7.2-6.3-12-6.3c-8,0-14.6,6.5-14.6,14.6C11.7,16.3,11.4,16.6,11.2,16.6z"/>
<path class="st1" d="M26.2,31.7c-0.3,0-0.5-0.2-0.5-0.5s0.2-0.5,0.5-0.5c1.5,0,2.9-0.2,4.4-0.7c0.3-0.1,0.5,0.1,0.6,0.3
	c0.1,0.3-0.1,0.5-0.3,0.6C29.4,31.4,27.8,31.7,26.2,31.7z"/>
<path class="st0" d="M26.2,27.7c-0.3,0-0.5-0.2-0.5-0.5s0.2-0.5,0.5-0.5c3.8,0,7.4-2.1,9.3-5.4c0.1-0.2,0.4-0.3,0.7-0.2
	c0.2,0.1,0.3,0.4,0.2,0.7C34.3,25.4,30.5,27.7,26.2,27.7z"/>
<path class="st0" d="M15.1,16.6c-0.3,0-0.5-0.2-0.5-0.5c0-6.4,5.2-11.7,11.7-11.7c3.7,0,7.2,1.8,9.4,4.7c0.2,0.2,0.1,0.5-0.1,0.7
	C35.3,10,35,10,34.8,9.7c-2-2.7-5.2-4.3-8.6-4.3c-5.9,0-10.7,4.8-10.7,10.7C15.6,16.3,15.4,16.6,15.1,16.6z"/>
<path class="st1" d="M42,33.2c-0.3,0-0.5-0.2-0.5-0.5v-5.2c0-0.3,0.2-0.5,0.5-0.5s0.5,0.2,0.5,0.5v5.2C42.5,33,42.3,33.2,42,33.2z"
	/>
<path class="st0" d="M45.5,49.8h-7c-0.3,0-0.5-0.2-0.5-0.5l-0.8-10h-3.9c-0.3,0-0.5-0.2-0.5-0.5v-6.1c0-5.1,4.1-9.2,9.2-9.2
	s9.2,4.1,9.2,9.2v6.1c0,0.3-0.2,0.5-0.5,0.5h-3.9l-0.8,10C46,49.6,45.8,49.8,45.5,49.8z M39,48.8H45l0.8-10c0-0.3,0.2-0.5,0.5-0.5
	h3.9v-5.6c0-4.5-3.7-8.2-8.2-8.2s-8.2,3.7-8.2,8.2v5.6h3.9c0.3,0,0.5,0.2,0.5,0.5L39,48.8z"/>
<path class="st1" d="M46.9,10.7c0,0-0.1-0.1-0.1-0.1c-0.2-0.2-0.4-0.4-0.6-0.6C46.1,10,46,9.9,45.9,9.9c-0.2-0.1-0.3-0.2-0.5-0.3
	c-0.1-0.1-0.2-0.1-0.3-0.2c-0.2-0.1-0.5-0.2-0.7-0.3c-0.1,0-0.2-0.1-0.3-0.1c-0.2-0.1-0.4-0.1-0.7-0.2c-0.1,0-0.1,0-0.2,0
	c-0.1,0-0.1,0-0.2,0c-0.2,0-0.4-0.1-0.6-0.1c-0.1,0-0.3,0-0.4,0c0,0-0.1,0-0.1,0c-0.2,0-0.4,0-0.6,0c-0.1,0-0.3,0-0.4,0.1
	c-0.2,0-0.4,0.1-0.6,0.1c-0.1,0-0.2,0-0.3,0.1c-0.3,0.1-0.5,0.2-0.8,0.3c-0.1,0-0.1,0.1-0.2,0.1c-0.2,0.1-0.5,0.2-0.7,0.4
	c0,0-0.1,0-0.1,0.1c-0.3,0.2-0.5,0.4-0.7,0.6c0,0,0,0,0,0c-1.4,1.2-2.2,3-2.2,4.9c0,3.7,3,6.6,6.6,6.6s6.6-3,6.6-6.6
	C48.6,13.5,48,11.9,46.9,10.7z M46.5,11.8c0.5,0.6,0.8,1.4,1,2.2c-1.1,0.4-2.3,0.6-3.4,0.6c-2.5,0-4.9-1-6.7-2.7
	c0.5-0.7,1-1.2,1.7-1.6c0,0,0.1,0,0.1-0.1c0.2-0.1,0.4-0.2,0.6-0.3c0,0,0.1,0,0.1,0c0.2-0.1,0.3-0.1,0.5-0.2c0.1,0,0.2,0,0.3-0.1
	c0.2,0,0.3-0.1,0.5-0.1c0.1,0,0.3,0,0.4,0c0.1,0,0.3,0,0.4,0c0.1,0,0.2,0,0.4,0c0.1,0,0.3,0,0.4,0.1c0.1,0,0.3,0.1,0.4,0.1
	c0.2,0,0.3,0.1,0.5,0.1c0.1,0,0.2,0.1,0.3,0.1c0.1,0.1,0.3,0.1,0.4,0.2c0.1,0.1,0.2,0.1,0.4,0.2c0.1,0.1,0.3,0.2,0.4,0.3
	c0.1,0.1,0.2,0.1,0.2,0.2c0.2,0.1,0.3,0.3,0.5,0.4c0,0,0,0,0.1,0C46.2,11.4,46.3,11.6,46.5,11.8C46.5,11.8,46.5,11.8,46.5,11.8z
	 M42,20.8c-3.1,0-5.6-2.5-5.6-5.6c0-0.8,0.2-1.6,0.5-2.3c2,1.8,4.5,2.8,7.2,2.8c1.2,0,2.4-0.2,3.6-0.6c0,0,0,0.1,0,0.1
	C47.6,18.3,45.1,20.8,42,20.8z"/>
<path class="st0" d="M7.9,27.1c-0.1,0-0.3,0-0.4-0.1L6.6,26c-0.2-0.2-0.2-0.5,0-0.7s0.5-0.2,0.7,0l0.5,0.5l3.1-3.1
	c0.2-0.2,0.5-0.2,0.7,0s0.2,0.5,0,0.7l-3.5,3.5C8.1,27,8,27.1,7.9,27.1z"/>
</svg>
