<?xml version="1.0" encoding="UTF-8"?>
<svg width="360px" height="46px" viewBox="0 0 360 46" version="1.1" xmlns="http://www.w3.org/2000/svg" xmlns:xlink="http://www.w3.org/1999/xlink">
    <!-- Generator: Sketch 61.2 (89653) - https://sketch.com -->
    <title>logo+e-first copy 2</title>
    <desc>Created with Sketch.</desc>
    <defs>
        <linearGradient x1="15.8499281%" y1="88.6076076%" x2="89.3975212%" y2="9.32799466%" id="linearGradient-1">
            <stop stop-color="#B3863B" offset="0%"></stop>
            <stop stop-color="#B4883E" offset="12.12%"></stop>
            <stop stop-color="#B98E48" offset="21.86%"></stop>
            <stop stop-color="#C09959" offset="30.76%"></stop>
            <stop stop-color="#CAA871" offset="39.18%"></stop>
            <stop stop-color="#D7BB8F" offset="47.17%"></stop>
            <stop stop-color="#DDC39C" offset="50%"></stop>
            <stop stop-color="#D7BB8F" offset="52.83%"></stop>
            <stop stop-color="#CAA871" offset="60.82%"></stop>
            <stop stop-color="#C09959" offset="69.24%"></stop>
            <stop stop-color="#B98E48" offset="78.14%"></stop>
            <stop stop-color="#B4883E" offset="87.88%"></stop>
            <stop stop-color="#B3863B" offset="100%"></stop>
        </linearGradient>
        <linearGradient x1="83.2014324%" y1="11.620287%" x2="11.3639243%" y2="90.7000334%" id="linearGradient-2">
            <stop stop-color="#00573D" offset="0%"></stop>
            <stop stop-color="#03593F" offset="11.73%"></stop>
            <stop stop-color="#0D6046" offset="21.15%"></stop>
            <stop stop-color="#1E6C53" offset="29.77%"></stop>
            <stop stop-color="#367C64" offset="37.91%"></stop>
            <stop stop-color="#549279" offset="45.65%"></stop>
            <stop stop-color="#69A088" offset="50%"></stop>
            <stop stop-color="#549279" offset="54.35%"></stop>
            <stop stop-color="#367C64" offset="62.09%"></stop>
            <stop stop-color="#1E6C53" offset="70.23%"></stop>
            <stop stop-color="#0D6046" offset="78.85%"></stop>
            <stop stop-color="#03593F" offset="88.27%"></stop>
            <stop stop-color="#00573D" offset="100%"></stop>
        </linearGradient>
        <linearGradient x1="55.3073702%" y1="4.59301471%" x2="40.5535251%" y2="81.1242647%" id="linearGradient-3">
            <stop stop-color="#804C2E" offset="0.549451%"></stop>
            <stop stop-color="#B3863B" offset="30%"></stop>
            <stop stop-color="#804C2E" offset="100%"></stop>
        </linearGradient>
        <linearGradient x1="54.4951523%" y1="5.88436123%" x2="41.2128182%" y2="82.3061674%" id="linearGradient-4">
            <stop stop-color="#C89E4E" offset="0%"></stop>
            <stop stop-color="#F4E8D0" offset="30%"></stop>
            <stop stop-color="#C89E4E" offset="100%"></stop>
        </linearGradient>
        <linearGradient x1="59.4823609%" y1="19.1705882%" x2="44.2430096%" y2="95.4338235%" id="linearGradient-5">
            <stop stop-color="#004730" offset="0.549451%"></stop>
            <stop stop-color="#00573D" offset="70%"></stop>
            <stop stop-color="#004730" offset="100%"></stop>
        </linearGradient>
        <linearGradient x1="45.019591%" y1="95.2272394%" x2="59.2853244%" y2="19.071953%" id="linearGradient-6">
            <stop stop-color="#007559" offset="0%"></stop>
            <stop stop-color="#EAF5F5" offset="30%"></stop>
            <stop stop-color="#007559" offset="100%"></stop>
        </linearGradient>
    </defs>
    <g id="logo+e-first-copy-2" stroke="none" stroke-width="1" fill="none" fill-rule="evenodd">
        <g id="logo">
            <g id="Group">
                <g transform="translate(55.450820, 9.470588)" fill="#00573D" fill-rule="nonzero">
                    <g transform="translate(55.450820, 1.352941)" id="Shape">
                        <path d="M38.3286885,1.04176471 L34.7852459,0.0405882353 C34.7852459,0.0405882353 33.8385246,3.32823529 29.5647541,7.44117647 L30.7954918,8.41533984 C30.7684426,8.42882353 35.5967213,5.43882353 38.3286885,1.04176471 Z M35.3127049,5.68235294 C35.3127049,5.68235294 33.4733607,10.2417647 29.1995902,14.3547059 L30.4303279,15.3288235 C30.4303279,15.3288235 31.5258197,14.5170588 32.9864754,13.2182353 L32.9864754,23.7576471 L36.0295082,23.7576471 L36.0295082,10.2823529 C37.0844262,9.14588235 38.0987705,7.91470588 38.8696721,6.67 L35.3127049,5.68235294 Z M39.8028689,1.81294118 L39.8028689,3.54470588 L52.9352459,3.54470588 L52.9352459,1.81294118 L39.8028689,1.81294118 Z M38.5991803,9.90352941 L47.7418033,9.90352941 L47.7418033,22.0394118 L44.0495902,22.0394118 L44.0495902,23.7711765 L49.0401639,23.7711765 C50.2032787,23.7711765 50.7848361,23.5682353 50.7848361,21.1464706 L50.7848361,9.90352941 L52.9352459,9.90352941 L52.9352459,8.17176471 L38.5991803,8.17176471 L38.5991803,9.90352941 L38.5991803,9.90352941 Z"></path>
                        <path d="M8.3852459,12.7717647 L11.2118852,12.7717647 L11.2118852,11.04 L8.3852459,11.04 L8.3852459,8.82117647 L10.3868852,8.82117647 L10.3868852,7.08941176 L3.89508197,7.08941176 C4.82827869,6.16941176 5.92377049,4.95176471 6.85696721,3.57176471 C8.75040984,6.11529412 11.1307377,7.44117647 11.1307377,7.44117647 L11.8881148,6.26411765 C9.06147541,3.23352941 8.75040984,0.487058824 8.75040984,0.487058824 L5.12581967,0.487058824 C5.12581967,0.487058824 4.40901639,4.22117647 1.02786885,7.80647059 L1.85286885,8.94294118 C1.85286885,8.94294118 2.475,8.45588235 3.35409836,7.61705882 L3.35409836,8.80764706 L5.3557377,8.80764706 L5.3557377,11.0264706 L1.83934426,11.0264706 L1.83934426,12.7582353 L5.3557377,12.7582353 L5.3557377,18.0888235 C4.8147541,17.2364706 3.38114754,14.7470588 2.75901639,14.0976471 L1.54180328,14.7605882 C1.54180328,14.7605882 2.77254098,17.9264706 3.0295082,19.9423529 L5.3557377,18.5082353 L5.3557377,20.5647059 L1.14959016,21.4711765 L1.93401639,24.0823529 L11.0631148,20.9705882 L11.2118852,19.2794118 L8.3852459,19.8882353 L8.3852459,12.7717647 L8.3852459,12.7717647 Z M8.41229508,18.17 L9.80532787,18.6029412 C10.4004098,17.6694118 12.0098361,14.7470588 12.0098361,14.7470588 L9.67008197,13.9082353 C9.27786885,16.6276471 8.41229508,18.17 8.41229508,18.17 Z M21.0307377,16.8982353 C23.9790984,15.9105882 24.9122951,15.0852941 24.9122951,15.0852941 L23.397541,12.9341176 C22.6131148,13.9217647 21.4635246,14.7605882 20.625,15.3017647 C20.4491803,14.3411765 20.3545082,13.2858824 20.3680328,12.1223529 L22.0180328,12.1223529 C23.1811475,12.1223529 23.7627049,11.9194118 23.7627049,9.48411765 L23.7627049,1.24470588 L12.3209016,1.24470588 L12.3209016,21.1329412 C12.3209016,23.5547059 12.902459,23.9741176 14.0520492,23.7441176 C14.3090164,23.69 14.5118852,23.6494118 14.6741803,23.6088235 L19.1508197,22.6347059 L19.1508197,20.9029412 L15.3639344,21.7282353 L15.3639344,12.1088235 L17.5143443,12.1088235 C17.5143443,13.7864706 17.8930328,20.8488235 24.1413934,23.7576471 L25.047541,22.7158824 C25.047541,22.7158824 22.3290984,20.9435294 21.0307377,16.8982353 Z M15.3639344,2.99 L20.7196721,2.99 L20.7196721,5.85823529 L15.3639344,5.85823529 L15.3639344,2.99 Z M15.3639344,10.3905882 L15.3639344,7.57647059 L20.7196721,7.57647059 L20.7196721,10.3770588 L15.3639344,10.3770588 L15.3639344,10.3905882 Z"></path>
                    </g>
                    <g>
                        <path d="M15.0122951,16.4382353 L15.0122951,14.1111765 L21.5987705,14.1111765 C22.7618852,14.1111765 23.3434426,13.9082353 23.3434426,11.4729412 L23.3434426,8.30705882 L3.50286885,8.30705882 L3.50286885,10.0388235 L11.9692623,10.0388235 L11.9692623,12.3658824 L2.04221311,12.3658824 L2.04221311,15.18 C2.04221311,17.6152941 2.6102459,18.1564706 3.78688525,18.1564706 L9.25081967,18.1564706 C8.81803279,19.0358824 6.97868852,21.4305882 1.50122951,23.9741176 L2.2045082,25.3270588 C2.2045082,25.3270588 8.03360656,23.9470588 11.9692623,19.5229412 L11.9692623,25.4488235 L15.0122951,25.4488235 L15.0122951,18.17 L21.4635246,18.17 L21.4635246,22.2017647 L17.5684426,22.2017647 L17.5684426,23.9335294 L22.7754098,23.9335294 C23.9385246,23.9335294 24.520082,23.7305882 24.520082,21.2952941 L24.520082,16.4247059 L15.0122951,16.4247059 L15.0122951,16.4382353 Z M15.0122951,10.0388235 L20.3004098,10.0388235 L20.3004098,12.3658824 L15.0122951,12.3658824 L15.0122951,10.0388235 Z M11.9692623,16.4382353 L5.07172131,16.4382353 L5.07172131,14.1111765 L11.9692623,14.1111765 L11.9692623,16.4382353 Z M5.70737705,5.16823529 L6.92459016,5.16823529 C7.24918033,5.58764706 8.1147541,6.44 8.57459016,7.76588235 L11.0495902,6.98117647 C11.0495902,6.98117647 10.3327869,6.11529412 9.27786885,5.16823529 L13.1729508,5.16823529 L13.1729508,3.43647059 L7.22213115,3.43647059 C7.5602459,3.00352941 7.91188525,2.54352941 8.25,2.05647059 L4.92295082,1.05529412 C4.92295082,1.05529412 4.32786885,4.04529412 1.2442623,7.18411765 L2.46147541,7.98235294 C2.48852459,7.96882353 3.7057377,7.34647059 5.70737705,5.16823529 Z M14.1196721,7.96882353 C14.1196721,7.96882353 15.3504098,7.34647059 17.3385246,5.16823529 L18.5557377,5.16823529 C18.8803279,5.58764706 19.7459016,6.44 20.2192623,7.76588235 L22.6942623,6.98117647 C22.6942623,6.98117647 21.977459,6.11529412 20.922541,5.16823529 L24.6553279,5.16823529 L24.6553279,3.43647059 L18.8803279,3.43647059 C19.2184426,3.00352941 19.570082,2.54352941 19.9081967,2.05647059 L16.5811475,1.05529412 C16.5811475,1.05529412 15.9860656,4.04529412 12.902459,7.18411765 L14.1196721,7.96882353 Z" id="Shape"></path>
                        <polygon id="Path" points="51.7180328 12.2982353 51.7180328 14.6388235 28.5909836 14.6388235 28.5909836 12.2982353"></polygon>
                    </g>
                </g>
                <g>
                    <g transform="translate(16.229508, 14.882353)" fill-rule="nonzero">
                        <polygon id="Rectangle" fill="#B3863B" transform="translate(8.044495, 8.120124) rotate(-45.008103) translate(-8.044495, -8.120124) " points="2.84433984 2.91996946 13.2465045 2.91811557 13.2446506 13.3202791 2.84248596 13.322133"></polygon>
                        <polygon id="Path" fill="#C89E4E" points="8.04713115 0.757647059 15.3909836 8.11764706 14.6606557 8.11764706 14.6606557 8.11764706 8.04713115 1.50176471"></polygon>
                        <polygon id="Path" fill="#DDC39C" points="8.04713115 1.50176471 1.42008197 8.11764706 1.42008197 8.11764706 0.689754098 8.11764706 8.04713115 0.757647059"></polygon>
                        <polygon id="Path" fill="#C89E4E" points="8.04713115 15.4776471 0.689754098 8.11764706 1.42008197 8.11764706 1.42008197 8.11764706 8.04713115 14.7335294"></polygon>
                        <polygon id="Path" fill="#804C2E" points="8.04713115 14.7335294 14.6606557 8.11764706 14.6606557 8.11764706 15.3909836 8.11764706 8.04713115 15.4776471"></polygon>
                    </g>
                    <path d="M5.69385246,22.6076471 C5.69385246,11.3782353 14.9040984,2.28647059 26.2647541,2.28647059 C31.3770492,2.28647059 36.0430328,4.12647059 39.6405738,7.17058824 L39.8163934,6.99470588 C35.7319672,3.05764706 30.1463115,0.622352941 23.9790984,0.622352941 C11.4553279,0.622352941 1.31188525,10.6476471 1.31188525,23.0135294 C1.31188525,33.2147059 9.68360656,41.17 20.0028689,41.17 C25.575,41.17 30.592623,39.0458824 34.0143443,35.2170588 L33.9061475,35.1088235 C30.9172131,37.6794118 26.9815574,39.0729412 22.6672131,39.0729412 C13.2811475,39.0864706 5.69385246,31.8617647 5.69385246,22.6076471 Z" id="Path" fill="url(#linearGradient-1)" fill-rule="nonzero"></path>
                    <path d="M42.8459016,23.3923529 C42.8459016,34.6217647 33.6356557,43.7135294 22.275,43.7135294 C17.1627049,43.7135294 12.4967213,41.8735294 8.91270492,38.8294118 L8.73688525,39.0052941 C12.8213115,42.9423529 18.4069672,45.3776471 24.5741803,45.3776471 C37.0979508,45.3776471 47.2413934,35.3523529 47.2413934,22.9864706 C47.2413934,12.7852941 38.8696721,4.83 28.5504098,4.83 C22.9782787,4.83 17.9741803,6.95411765 14.552459,10.7694118 L14.6606557,10.8776471 C17.6495902,8.32058824 21.5852459,6.91352941 25.8995902,6.91352941 C35.2586066,6.91352941 42.8459016,14.1382353 42.8459016,23.3923529 Z" id="Path" fill="url(#linearGradient-2)" fill-rule="nonzero"></path>
                    <path d="M24.0602459,38.3423529 C15.6209016,38.3423529 8.46639344,31.4829412 8.46639344,23.0541176 C8.46639344,10.7423529 17.4467213,3.62588235 28.1581967,3.62588235 C32.3913934,3.62588235 36.3135246,4.99235294 39.4918033,7.29235294 L39.6270492,7.17058824 C36.0295082,4.12647059 31.3635246,2.28647059 26.2512295,2.28647059 C14.8905738,2.28647059 5.68032787,11.3782353 5.68032787,22.6076471 C5.68032787,31.8752941 13.267623,39.0864706 22.6401639,39.0864706 C26.9545082,39.0864706 30.8901639,37.6929412 33.8790984,35.1223529 L33.6897541,34.9329412 C31.0659836,37.0570588 27.7118852,38.3423529 24.0602459,38.3423529 Z" id="Path" fill="url(#linearGradient-3)" fill-rule="nonzero"></path>
                    <path d="M26.2782787,2.28647059 C14.8635246,2.28647059 5.59918033,11.3917647 5.59918033,22.6347059 C5.59918033,31.9023529 13.2270492,39.1405882 22.6401639,39.1405882 C26.9680328,39.1405882 30.9172131,37.7470588 33.9331967,35.1764706 L33.8790984,35.1223529 C30.9172131,37.5711765 27.0491803,38.9105882 22.8159836,38.9105882 C13.4704918,38.9105882 5.88319672,31.7670588 5.88319672,22.5941176 C5.88319672,11.4729412 15.079918,2.47588235 26.4270492,2.47588235 C31.4446721,2.47588235 36.0565574,4.24823529 39.6135246,7.17058824 L39.6540984,7.13 C36.0565574,4.11294118 31.3905738,2.28647059 26.2782787,2.28647059 Z" id="Path" fill="url(#linearGradient-4)" fill-rule="nonzero"></path>
                    <path d="M28.5504098,4.83 C22.9782787,4.83 17.9741803,6.95411765 14.5389344,10.7694118 L14.8364754,11.0670588 C17.4737705,8.92941176 20.8143443,7.65764706 24.4659836,7.65764706 C32.9188525,7.65764706 40.0598361,14.5035294 40.0598361,22.9458824 C40.0598361,35.2576471 31.0795082,42.3605882 20.3680328,42.3605882 C16.1348361,42.3605882 12.2127049,41.0076471 9.03442623,38.6941176 L8.72336066,38.9917647 C12.8077869,42.9288235 18.3934426,45.3641176 24.5606557,45.3641176 C37.0844262,45.3641176 47.2278852,35.3388235 47.2278852,22.9729412 C47.2413934,12.7852941 38.8696721,4.83 28.5504098,4.83 Z" id="Path"></path>
                    <path d="M24.4795082,7.65764706 C32.932377,7.65764706 40.0733607,14.5035294 40.0733607,22.9458824 C40.0733607,35.2576471 31.0930328,42.3605882 20.3815574,42.3605882 C16.1483607,42.3605882 12.2262295,41.0076471 9.04795082,38.6941176 L8.92622951,38.8158824 C12.5237705,41.86 17.1897541,43.7 22.2885246,43.7 C33.6491803,43.7 42.8594262,34.6082353 42.8594262,23.3788235 C42.8594262,14.1247059 35.2721311,6.9 25.8995902,6.9 C21.5852459,6.9 17.6495902,8.29352941 14.6606557,10.8641176 L14.85,11.0535294 C17.4737705,8.94294118 20.8278689,7.65764706 24.4795082,7.65764706 Z" id="Path" fill="url(#linearGradient-5)" fill-rule="nonzero"></path>
                    <path d="M22.2614754,43.7135294 C33.6762295,43.7135294 42.9270492,34.6082353 42.9270492,23.3652941 C42.9270492,14.0841176 35.2991803,6.85941176 25.8860656,6.85941176 C21.5581967,6.85941176 17.6090164,8.25294118 14.5930328,10.8235294 L14.6471311,10.8776471 C17.6090164,8.42882353 21.4770492,7.08941176 25.7102459,7.08941176 C35.0692623,7.08941176 42.6430328,14.2329412 42.6430328,23.4058824 C42.6430328,34.5270588 33.4463115,43.5376471 22.0991803,43.5376471 C17.0815574,43.5376471 12.4696721,41.7652941 8.91270492,38.8294118 L8.87213115,38.87 C12.4831967,41.8870588 17.1491803,43.7135294 22.2614754,43.7135294 Z" id="Path" fill="url(#linearGradient-6)" fill-rule="nonzero"></path>
                </g>
            </g>
        </g>
        <path d="M182.668361,32.4268943 C184.056628,32.4268943 185.382501,32.0747065 186.64598,31.3703308 C186.848761,31.2607613 186.981348,31.0924938 187.043742,30.8655283 C187.106136,30.6385628 187.074939,30.4233369 186.950151,30.2198506 L186.950151,30.2198506 L186.552389,29.5154749 C186.458798,29.3119886 186.298913,29.1789399 186.072735,29.1163287 C185.846557,29.0537175 185.632077,29.0771967 185.429297,29.1867663 C184.680568,29.5467805 183.916242,29.7267876 183.136316,29.7267876 C182.138012,29.7267876 181.311291,29.4450374 180.656154,28.8815368 C180.001017,28.3180363 179.595456,27.5119175 179.43947,26.4631804 C179.423872,26.3849164 179.455069,26.3457844 179.533062,26.3457844 L179.533062,26.3457844 L186.85656,26.3457844 C187.106136,26.3457844 187.324515,26.2675205 187.511697,26.1109925 C187.698879,25.9544646 187.800269,25.7588047 187.815868,25.5240128 C187.847065,25.2735681 187.862663,25.015297 187.862663,24.7491996 C187.862663,22.8239061 187.37521,21.2664532 186.400304,20.076841 C185.425397,18.8872287 184.04103,18.2924226 182.247201,18.2924226 C181.451678,18.2924226 180.679552,18.4606901 179.930823,18.7972252 C179.182095,19.1337602 178.515259,19.5994308 177.930315,20.1942369 C177.345371,20.789043 176.877416,21.5403771 176.52645,22.4482391 C176.175483,23.356101 176,24.3344006 176,25.3831377 C176,27.5432231 176.62784,29.2572038 177.88352,30.52508 C179.139199,31.7929562 180.734146,32.4268943 182.668361,32.4268943 Z M184.727364,24.0213447 L179.486266,24.0213447 C179.423872,24.0213447 179.392675,23.9978655 179.392675,23.9509072 C179.392675,23.1369619 179.735842,22.4169335 180.422176,21.7908218 C180.952526,21.2899324 181.576466,21.0394877 182.293997,21.0394877 C183.120718,21.0394877 183.748558,21.2899324 184.177517,21.7908218 C184.606475,22.2917111 184.828754,22.9960868 184.844353,23.9039488 L184.844353,23.9039488 L184.844353,23.927428 C184.844353,23.9900391 184.805356,24.0213447 184.727364,24.0213447 L184.727364,24.0213447 Z M196.722615,26.4631804 C196.956592,26.4631804 197.155473,26.3849164 197.319257,26.2283885 C197.483042,26.0718605 197.564934,25.8762006 197.564934,25.6414088 L197.564934,25.6414088 L197.564934,24.7726788 C197.564934,24.5535397 197.483042,24.361793 197.319257,24.1974386 C197.155473,24.0330843 196.956592,23.9509072 196.722615,23.9509072 L196.722615,23.9509072 L191.855881,23.9509072 C191.621903,23.9509072 191.423022,24.0330843 191.259238,24.1974386 C191.095454,24.361793 191.013562,24.5535397 191.013562,24.7726788 L191.013562,24.7726788 L191.013562,25.6414088 C191.013562,25.8762006 191.095454,26.0718605 191.259238,26.2283885 C191.423022,26.3849164 191.621903,26.4631804 191.855881,26.4631804 L191.855881,26.4631804 L196.722615,26.4631804 Z M204.576462,32.0981857 C204.81044,32.0981857 205.009321,32.0160085 205.173105,31.8516542 C205.336889,31.6872999 205.418781,31.4877268 205.418781,31.2529349 L205.418781,31.2529349 L205.418781,24.9839915 C205.418781,24.9213803 205.449978,24.8900747 205.512372,24.8900747 L205.512372,24.8900747 L210.893857,24.8900747 C211.112236,24.8900747 211.303318,24.8078975 211.467102,24.6435432 C211.630886,24.4791889 211.712778,24.2796158 211.712778,24.0448239 L211.712778,24.0448239 L211.712778,22.7299893 C211.712778,22.5108502 211.630886,22.3191035 211.467102,22.1547492 C211.303318,21.9903949 211.112236,21.9082177 210.893857,21.9082177 L210.893857,21.9082177 L205.512372,21.9082177 C205.449978,21.9082177 205.418781,21.8690857 205.418781,21.7908218 L205.418781,21.7908218 L205.418781,17.3767343 C205.418781,17.2984703 205.449978,17.2593383 205.512372,17.2593383 L205.512372,17.2593383 L211.970154,17.2593383 C212.188533,17.2593383 212.379615,17.1771612 212.543399,17.0128068 C212.707183,16.8484525 212.789075,16.6567058 212.789075,16.4375667 L212.789075,16.4375667 L212.789075,15.1462113 C212.789075,14.9114194 212.707183,14.7118463 212.543399,14.547492 C212.379615,14.3831377 212.188533,14.3009605 211.970154,14.3009605 L211.970154,14.3009605 L202.704641,14.3009605 C202.470664,14.3009605 202.271783,14.3831377 202.107999,14.547492 C201.944214,14.7118463 201.862322,14.9114194 201.862322,15.1462113 L201.862322,15.1462113 L201.862322,31.2529349 C201.862322,31.4877268 201.944214,31.6872999 202.107999,31.8516542 C202.271783,32.0160085 202.470664,32.0981857 202.704641,32.0981857 L202.704641,32.0981857 L204.576462,32.0981857 Z M218.37334,16.4610459 C218.966083,16.4610459 219.461336,16.2810388 219.859098,15.9210245 C220.25686,15.5610103 220.455741,15.0992529 220.455741,14.5357524 C220.455741,13.9722519 220.25686,13.5144077 219.859098,13.1622199 C219.461336,12.810032 218.966083,12.6339381 218.37334,12.6339381 C217.7494,12.6339381 217.242449,12.810032 216.852486,13.1622199 C216.462523,13.5144077 216.267542,13.9722519 216.267542,14.5357524 C216.267542,15.0992529 216.466423,15.5610103 216.864185,15.9210245 C217.261947,16.2810388 217.764999,16.4610459 218.37334,16.4610459 Z M219.262455,32.0981857 C219.496433,32.0981857 219.691414,32.0160085 219.847399,31.8516542 C220.003384,31.6872999 220.081377,31.4877268 220.081377,31.2529349 L220.081377,31.2529349 L220.081377,19.4663821 C220.081377,19.2315902 220.003384,19.0359303 219.847399,18.8794023 C219.691414,18.7228744 219.496433,18.6446105 219.262455,18.6446105 L219.262455,18.6446105 L217.414032,18.6446105 C217.195653,18.6446105 217.004571,18.7228744 216.840787,18.8794023 C216.677003,19.0359303 216.595111,19.2315902 216.595111,19.4663821 L216.595111,19.4663821 L216.595111,31.2529349 C216.595111,31.4877268 216.677003,31.6872999 216.840787,31.8516542 C217.004571,32.0160085 217.195653,32.0981857 217.414032,32.0981857 L217.414032,32.0981857 L219.262455,32.0981857 Z M227.537462,32.0981857 C227.77144,32.0981857 227.966421,32.0160085 228.122406,31.8516542 C228.278391,31.6872999 228.356384,31.4877268 228.356384,31.2529349 L228.356384,31.2529349 L228.356384,24.1622199 C228.356384,24.0996087 228.371982,24.0369975 228.403179,23.9743863 C228.761945,23.09783 229.218201,22.4521523 229.771948,22.0373533 C230.325695,21.6225543 230.883342,21.4151547 231.444888,21.4151547 C231.663267,21.4151547 231.858248,21.4308075 232.029832,21.4621131 C232.263809,21.4934187 232.474389,21.4464603 232.661571,21.321238 C232.848753,21.1960157 232.965742,21.0316613 233.012538,20.828175 L233.012538,20.828175 L233.293311,19.3959445 C233.308909,19.3333333 233.316709,19.2628958 233.316709,19.1846318 C233.316709,19.0281039 233.277712,18.871576 233.19972,18.715048 C233.074932,18.5115617 232.899449,18.3902526 232.67327,18.3511206 C232.447092,18.3119886 232.185817,18.2924226 231.889445,18.2924226 C231.187513,18.2924226 230.501178,18.5272145 229.830443,18.9967983 C229.159707,19.4663821 228.582562,20.1237994 228.099008,20.9690502 C228.08341,21.0003557 228.060012,21.0160085 228.028815,21.0160085 C227.997618,21.0160085 227.98202,21.0003557 227.98202,20.9690502 L227.98202,20.9690502 L227.818235,19.4663821 C227.802637,19.2315902 227.705146,19.0359303 227.525763,18.8794023 C227.346381,18.7228744 227.1397,18.6446105 226.905723,18.6446105 L226.905723,18.6446105 L225.689039,18.6446105 C225.47066,18.6446105 225.279579,18.7228744 225.115794,18.8794023 C224.95201,19.0359303 224.870118,19.2315902 224.870118,19.4663821 L224.870118,19.4663821 L224.870118,31.2529349 C224.870118,31.4877268 224.95201,31.6872999 225.115794,31.8516542 C225.279579,32.0160085 225.47066,32.0981857 225.689039,32.0981857 L225.689039,32.0981857 L227.537462,32.0981857 Z M239.907077,32.4268943 C241.591716,32.4268943 242.90199,32.0277481 243.837901,31.2294557 C244.773811,30.4311633 245.241766,29.4137318 245.241766,28.1771612 C245.241766,27.6919246 245.163774,27.2497332 245.007788,26.850587 C244.851803,26.4514408 244.664621,26.1227321 244.446242,25.864461 C244.227863,25.60619 243.935391,25.3557453 243.568826,25.113127 C243.202261,24.8705087 242.874693,24.6865884 242.58612,24.5613661 C242.297548,24.4361437 241.934883,24.2874422 241.498125,24.1152615 C241.404534,24.0839559 241.252448,24.0291711 241.041868,23.9509072 C240.831289,23.8726432 240.679203,23.8139452 240.585612,23.7748132 C240.492021,23.7356813 240.355534,23.6808965 240.176151,23.6104589 C239.996769,23.5400213 239.864181,23.4813234 239.778389,23.434365 C239.692598,23.3874066 239.583408,23.3287086 239.450821,23.2582711 C239.318234,23.1878335 239.220743,23.1173959 239.158349,23.0469584 C239.095955,22.9765208 239.029661,22.8982568 238.959468,22.8121665 C238.889275,22.7260761 238.842479,22.6360726 238.819081,22.5421558 C238.795684,22.4482391 238.783985,22.3464959 238.783985,22.2369264 C238.783985,21.8456065 238.932171,21.5325507 239.228542,21.2977588 C239.524914,21.0629669 239.961672,20.945571 240.538817,20.945571 C241.225151,20.945571 241.96608,21.1803629 242.761604,21.6499466 C242.948786,21.7595162 243.159366,21.794735 243.393343,21.755603 C243.627321,21.716471 243.806704,21.6108147 243.931492,21.4386339 L243.931492,21.4386339 L244.539833,20.6168623 C244.68022,20.4446816 244.730915,20.2451085 244.691919,20.018143 C244.652922,19.7911775 244.539833,19.6150836 244.352651,19.4898613 C243.104771,18.6915688 241.802296,18.2924226 240.445226,18.2924226 C238.947769,18.2924226 237.742785,18.675916 236.830272,19.4429029 C235.917759,20.2098897 235.461503,21.203842 235.461503,22.4247599 C235.461503,22.9569548 235.566793,23.4421914 235.777373,23.8804696 C235.987953,24.3187478 236.288224,24.6944148 236.678187,25.0074707 C237.068149,25.3205265 237.450313,25.5748844 237.824677,25.7705443 C238.199041,25.9662042 238.635799,26.1579509 239.134951,26.3457844 C239.197345,26.37709 239.298735,26.416222 239.439122,26.4631804 C239.782289,26.6040555 240.039664,26.7097118 240.211248,26.7801494 C240.382832,26.850587 240.601211,26.9523301 240.866385,27.0853789 C241.13156,27.2184276 241.326541,27.3397367 241.451329,27.4493063 C241.576117,27.5588758 241.689206,27.6958378 241.790597,27.8601921 C241.891987,28.0245464 241.942682,28.1928139 241.942682,28.3649947 C241.942682,28.8032729 241.778898,29.1515475 241.451329,29.4098186 C241.123761,29.6680896 240.640207,29.7972252 240.000668,29.7972252 C239.049159,29.7972252 238.074253,29.4685165 237.075948,28.8110993 C236.888766,28.6858769 236.682086,28.6389185 236.455908,28.6702241 C236.229729,28.7015297 236.046447,28.8110993 235.90606,28.9989328 L235.90606,28.9989328 L235.297719,29.8676628 C235.172931,30.0085379 235.110537,30.1728922 235.110537,30.3607257 C235.110537,30.4076841 235.118336,30.4546425 235.133934,30.5016009 C235.165131,30.72074 235.274321,30.9007471 235.461503,31.0416222 C236.880967,31.965137 238.362825,32.4268943 239.907077,32.4268943 Z M253.820944,32.4268943 C254.49168,32.4268943 255.170215,32.340804 255.856549,32.1686233 C256.074928,32.1060121 256.246512,31.9729634 256.3713,31.7694771 C256.449292,31.6286019 256.488289,31.4799004 256.488289,31.3233725 C256.488289,31.2607613 256.480489,31.1903237 256.464891,31.1120598 L256.464891,31.1120598 L256.254311,30.1728922 C256.207515,29.9537531 256.086627,29.7893988 255.891646,29.6798292 C255.696664,29.5702597 255.489984,29.5389541 255.271605,29.5859125 C255.084423,29.6328709 254.912839,29.6563501 254.756854,29.6563501 C253.540171,29.6563501 252.931829,28.8971896 252.931829,27.3788687 L252.931829,27.3788687 L252.931829,21.5325507 C252.931829,21.4542867 252.963026,21.4151547 253.02542,21.4151547 L253.02542,21.4151547 L255.411992,21.4151547 C255.630371,21.4151547 255.821452,21.3368908 255.985237,21.1803629 C256.149021,21.0238349 256.230913,20.828175 256.230913,20.5933831 L256.230913,20.5933831 L256.230913,19.4663821 C256.230913,19.2315902 256.149021,19.0359303 255.985237,18.8794023 C255.821452,18.7228744 255.630371,18.6446105 255.411992,18.6446105 L255.411992,18.6446105 L253.02542,18.6446105 C252.963026,18.6446105 252.931829,18.6054785 252.931829,18.5272145 L252.931829,18.5272145 L252.931829,15.850587 C252.931829,15.6314479 252.849937,15.4397012 252.686153,15.2753469 C252.522369,15.1109925 252.323488,15.0288154 252.08951,15.0288154 L252.08951,15.0288154 L250.802633,15.0288154 C250.568656,15.0288154 250.365875,15.1070793 250.194292,15.2636073 C250.022708,15.4201352 249.921318,15.6157951 249.890121,15.850587 L249.890121,15.850587 L249.58595,18.5272145 C249.58595,18.6054785 249.546954,18.6446105 249.468961,18.6446105 L249.468961,18.6446105 L248.345869,18.7385272 C248.111891,18.75418 247.91691,18.8480968 247.760925,19.0202775 C247.60494,19.1924582 247.526947,19.3959445 247.526947,19.6307364 L247.526947,19.6307364 L247.526947,20.5933831 C247.526947,20.828175 247.60494,21.0238349 247.760925,21.1803629 C247.91691,21.3368908 248.111891,21.4151547 248.345869,21.4151547 L248.345869,21.4151547 L249.305177,21.4151547 C249.367571,21.4151547 249.398768,21.4542867 249.398768,21.5325507 L249.398768,21.5325507 L249.398768,27.3788687 C249.398768,30.7442191 250.872827,32.4268943 253.820944,32.4268943 Z M329.293663,33.2251868 C329.512042,33.2251868 329.703124,33.1430096 329.866908,32.9786553 C330.030692,32.814301 330.112584,32.6225543 330.112584,32.4034152 L330.112584,32.4034152 L330.112584,32.0277481 C330.112584,31.7929562 330.030692,31.5933831 329.866908,31.4290288 C329.703124,31.2646745 329.512042,31.1824973 329.293663,31.1824973 L329.293663,31.1824973 L324.146156,31.1824973 C324.068164,31.1824973 324.029167,31.1511917 324.029167,31.0885806 L324.029167,31.0885806 L324.029167,28.4354322 C324.029167,28.3571683 324.068164,28.3180363 324.146156,28.3180363 L324.146156,28.3180363 L328.521537,28.3180363 C328.755514,28.3180363 328.950496,28.2358591 329.106481,28.0715048 C329.262466,27.9071505 329.340458,27.7154038 329.340458,27.4962647 L329.340458,27.4962647 L329.340458,27.1440768 C329.340458,26.909285 329.262466,26.7097118 329.106481,26.5453575 C328.950496,26.3810032 328.755514,26.298826 328.521537,26.298826 L328.521537,26.298826 L324.146156,26.298826 C324.068164,26.298826 324.029167,26.2675205 324.029167,26.2049093 L324.029167,26.2049093 L324.029167,23.927428 C324.029167,23.8648168 324.068164,23.8335112 324.146156,23.8335112 L324.146156,23.8335112 L328.217366,23.8335112 C328.435745,23.8335112 328.626827,23.751334 328.790611,23.5869797 C328.954395,23.4226254 329.036288,23.2230523 329.036288,22.9882604 L329.036288,22.9882604 L329.036288,13.8313767 C329.036288,13.6122376 328.954395,13.4204909 328.790611,13.2561366 C328.626827,13.0917823 328.435745,13.0096051 328.217366,13.0096051 L328.217366,13.0096051 L317.594784,13.0096051 C317.376405,13.0096051 317.185323,13.0917823 317.021539,13.2561366 C316.857754,13.4204909 316.775862,13.6122376 316.775862,13.8313767 L316.775862,13.8313767 L316.775862,22.9882604 C316.775862,23.2230523 316.857754,23.4226254 317.021539,23.5869797 C317.185323,23.751334 317.376405,23.8335112 317.594784,23.8335112 L317.594784,23.8335112 L321.642596,23.8335112 C321.720588,23.8335112 321.759585,23.8648168 321.759585,23.927428 L321.759585,23.927428 L321.759585,26.2049093 C321.759585,26.2675205 321.720588,26.298826 321.642596,26.298826 L321.642596,26.298826 L317.384204,26.298826 C317.150226,26.298826 316.955245,26.3810032 316.79926,26.5453575 C316.643275,26.7097118 316.565282,26.909285 316.565282,27.1440768 L316.565282,27.1440768 L316.565282,27.4962647 C316.565282,27.7154038 316.643275,27.9071505 316.79926,28.0715048 C316.955245,28.2358591 317.150226,28.3180363 317.384204,28.3180363 L317.384204,28.3180363 L321.642596,28.3180363 C321.720588,28.3180363 321.759585,28.3571683 321.759585,28.4354322 L321.759585,28.4354322 L321.759585,31.0885806 C321.759585,31.1511917 321.720588,31.1824973 321.642596,31.1824973 L321.642596,31.1824973 L315.629372,31.1824973 C315.410993,31.1824973 315.219911,31.2646745 315.056127,31.4290288 C314.892343,31.5933831 314.81045,31.7929562 314.81045,32.0277481 L314.81045,32.0277481 L314.81045,32.4034152 C314.81045,32.6225543 314.892343,32.814301 315.056127,32.9786553 C315.219911,33.1430096 315.410993,33.2251868 315.629372,33.2251868 L315.629372,33.2251868 L329.293663,33.2251868 Z M308.598346,31.3233725 C308.793327,31.432942 308.992208,31.4564212 309.194989,31.39381 C311.066809,30.7676983 313.055619,30.0946282 315.161417,29.3745998 C315.395394,29.2963358 315.570878,29.1515475 315.687866,28.9402348 C315.804855,28.7289221 315.847751,28.5058698 315.816554,28.2710779 L315.816554,28.2710779 L315.722963,27.8014941 C315.676168,27.582355 315.559179,27.4180007 315.371997,27.3084312 C315.184815,27.1988616 314.989833,27.1792956 314.787053,27.2497332 C314.584272,27.3201708 314.287901,27.4180007 313.897938,27.5432231 C313.507975,27.6684454 313.266198,27.738883 313.172607,27.7545358 C313.110213,27.7858413 313.079016,27.7623621 313.079016,27.6840982 L313.079016,27.6840982 L313.079016,22.4717182 C313.079016,22.3934543 313.118013,22.3543223 313.196005,22.3543223 L313.196005,22.3543223 L314.529677,22.3543223 C314.763655,22.3543223 314.958636,22.2721451 315.114621,22.1077908 C315.270606,21.9434365 315.348599,21.7516898 315.348599,21.5325507 L315.348599,21.5325507 L315.348599,21.1334045 C315.348599,20.8986126 315.270606,20.6990395 315.114621,20.5346852 C314.958636,20.3703308 314.763655,20.2881537 314.529677,20.2881537 L314.529677,20.2881537 L313.196005,20.2881537 C313.118013,20.2881537 313.079016,20.2568481 313.079016,20.1942369 L313.079016,20.1942369 L313.079016,15.6157951 C313.079016,15.5375311 313.118013,15.4983991 313.196005,15.4983991 L313.196005,15.4983991 L314.904042,15.4983991 C315.138019,15.4983991 315.3369,15.4201352 315.500684,15.2636073 C315.664469,15.1070793 315.746361,14.9114194 315.746361,14.6766275 L315.746361,14.6766275 L315.746361,14.2774813 C315.746361,14.0426894 315.664469,13.8431163 315.500684,13.678762 C315.3369,13.5144077 315.138019,13.4322305 314.904042,13.4322305 L314.904042,13.4322305 L308.961011,13.4322305 C308.727033,13.4322305 308.528152,13.5144077 308.364368,13.678762 C308.200584,13.8431163 308.118692,14.0426894 308.118692,14.2774813 L308.118692,14.2774813 L308.118692,14.6766275 C308.118692,14.9114194 308.200584,15.1070793 308.364368,15.2636073 C308.528152,15.4201352 308.727033,15.4983991 308.961011,15.4983991 L308.961011,15.4983991 L310.832832,15.4983991 C310.910824,15.4983991 310.94982,15.5375311 310.94982,15.6157951 L310.94982,15.6157951 L310.94982,20.1942369 C310.94982,20.2568481 310.910824,20.2881537 310.832832,20.2881537 L310.832832,20.2881537 L309.194989,20.2881537 C308.961011,20.2881537 308.76213,20.3703308 308.598346,20.5346852 C308.434561,20.6990395 308.352669,20.8986126 308.352669,21.1334045 L308.352669,21.1334045 L308.352669,21.5325507 C308.352669,21.7516898 308.434561,21.9434365 308.598346,22.1077908 C308.76213,22.2721451 308.961011,22.3543223 309.194989,22.3543223 L309.194989,22.3543223 L310.832832,22.3543223 C310.910824,22.3543223 310.94982,22.3934543 310.94982,22.4717182 L310.94982,22.4717182 L310.94982,28.3649947 C310.94982,28.4276058 310.918623,28.4745642 310.856229,28.5058698 C310.247888,28.6937033 309.522557,28.905016 308.680238,29.1398079 C308.461859,29.2024191 308.290275,29.3354678 308.165487,29.5389541 C308.087495,29.6641764 308.048498,29.8050516 308.048498,29.9615795 C308.048498,30.0241907 308.056298,30.0946282 308.071896,30.1728922 L308.071896,30.1728922 L308.212283,30.8303095 C308.274677,31.0494486 308.403364,31.2138029 308.598346,31.3233725 Z M321.829778,17.4941302 L318.905058,17.4941302 C318.842664,17.4941302 318.811467,17.4628246 318.811467,17.4002134 L318.811467,17.4002134 L318.811467,15.0053362 C318.811467,14.942725 318.842664,14.9114194 318.905058,14.9114194 L318.905058,14.9114194 L321.829778,14.9114194 C321.907771,14.9114194 321.946767,14.942725 321.946767,15.0053362 L321.946767,15.0053362 L321.946767,17.4002134 C321.946767,17.4628246 321.907771,17.4941302 321.829778,17.4941302 L321.829778,17.4941302 Z M326.790103,17.4941302 L323.935576,17.4941302 C323.873182,17.4941302 323.841985,17.4628246 323.841985,17.4002134 L323.841985,17.4002134 L323.841985,15.0053362 C323.841985,14.942725 323.873182,14.9114194 323.935576,14.9114194 L323.935576,14.9114194 L326.790103,14.9114194 C326.868095,14.9114194 326.907092,14.942725 326.907092,15.0053362 L326.907092,15.0053362 L326.907092,17.4002134 C326.907092,17.4628246 326.868095,17.4941302 326.790103,17.4941302 L326.790103,17.4941302 Z M321.829778,21.9316969 L318.905058,21.9316969 C318.842664,21.9316969 318.811467,21.8925649 318.811467,21.814301 L318.811467,21.814301 L318.811467,19.3959445 C318.811467,19.3176805 318.842664,19.2785486 318.905058,19.2785486 L318.905058,19.2785486 L321.829778,19.2785486 C321.907771,19.2785486 321.946767,19.3176805 321.946767,19.3959445 L321.946767,19.3959445 L321.946767,21.814301 C321.946767,21.8925649 321.907771,21.9316969 321.829778,21.9316969 L321.829778,21.9316969 Z M326.790103,21.9316969 L323.935576,21.9316969 C323.873182,21.9316969 323.841985,21.8925649 323.841985,21.814301 L323.841985,21.814301 L323.841985,19.3959445 C323.841985,19.3176805 323.873182,19.2785486 323.935576,19.2785486 L323.935576,19.2785486 L326.790103,19.2785486 C326.868095,19.2785486 326.907092,19.3176805 326.907092,19.3959445 L326.907092,19.3959445 L326.907092,21.814301 C326.907092,21.8925649 326.868095,21.9316969 326.790103,21.9316969 L326.790103,21.9316969 Z M348.331639,34 C349.657512,33.9686944 350.593422,33.8199929 351.13937,33.5538954 C351.498136,33.3660619 351.755511,33.0999644 351.911496,32.755603 C352.067481,32.4112416 352.145473,31.9338314 352.145473,31.3233725 L352.145473,31.3233725 L352.145473,19.7481323 C352.145473,19.6855212 352.18447,19.6542156 352.262462,19.6542156 L352.262462,19.6542156 L354.181078,19.6542156 C354.399458,19.6542156 354.590539,19.5720384 354.754324,19.4076841 C354.918108,19.2433298 355,19.0437567 355,18.8089648 L355,18.8089648 L355,18.3863394 C355,18.1515475 354.918108,17.9519744 354.754324,17.7876201 C354.590539,17.6232657 354.399458,17.5410886 354.181078,17.5410886 L354.181078,17.5410886 L352.262462,17.5410886 C352.18447,17.5410886 352.145473,17.509783 352.145473,17.4471718 L352.145473,17.4471718 L352.145473,12.8217716 C352.145473,12.6026325 352.063581,12.4108858 351.899797,12.2465315 C351.736013,12.0821772 351.544931,12 351.326552,12 L351.326552,12 L350.788404,12 C350.554426,12 350.355545,12.0821772 350.191761,12.2465315 C350.027976,12.4108858 349.946084,12.6026325 349.946084,12.8217716 L349.946084,12.8217716 L349.946084,17.4471718 C349.946084,17.509783 349.914887,17.5410886 349.852493,17.5410886 L349.852493,17.5410886 L344.190236,17.5410886 C343.956258,17.5410886 343.757377,17.6232657 343.593593,17.7876201 C343.429809,17.9519744 343.347916,18.1515475 343.347916,18.3863394 L343.347916,18.3863394 L343.347916,18.8089648 C343.347916,19.0437567 343.429809,19.2433298 343.593593,19.4076841 C343.757377,19.5720384 343.956258,19.6542156 344.190236,19.6542156 L344.190236,19.6542156 L349.033572,19.6542156 C349.095966,19.6542156 349.119363,19.6855212 349.103765,19.7481323 C348.417431,21.4073284 347.571212,22.9765208 346.565108,24.4557097 C345.559005,25.9348986 344.502206,27.1440768 343.394712,28.0832444 C343.223128,28.2241195 343.137337,28.4041266 343.137337,28.6232657 C343.137337,28.826752 343.20753,28.9989328 343.347916,29.1398079 C343.472704,29.280683 343.605292,29.4215582 343.745678,29.5624333 C343.901663,29.734614 344.088845,29.832444 344.307224,29.8559232 C344.525604,29.8794023 344.720585,29.812878 344.892168,29.6563501 C346.748391,27.9501957 348.417431,25.6022768 349.899289,22.6125934 C349.899289,22.5969406 349.907088,22.5891142 349.922686,22.5891142 C349.938285,22.5891142 349.946084,22.5969406 349.946084,22.6125934 L349.946084,22.6125934 L349.946084,31.3233725 C349.946084,31.511206 349.907088,31.6442547 349.829095,31.7225187 C349.751103,31.8007826 349.610716,31.8399146 349.407936,31.8399146 L349.407936,31.8399146 L347.536115,31.8399146 C347.348933,31.8399146 347.204647,31.9181786 347.103257,32.0747065 C347.001866,32.2312344 346.990167,32.3955888 347.06816,32.5677695 C347.146152,32.7712558 347.224145,32.9825685 347.302138,33.2017076 C347.38013,33.4364995 347.512717,33.624333 347.699899,33.7652081 C347.887081,33.921736 348.089862,34 348.308241,34 L348.308241,34 L348.331639,34 Z M341.85046,27.9658485 C342.084437,27.9658485 342.283318,27.8836713 342.447103,27.719317 C342.610887,27.5549626 342.692779,27.3553895 342.692779,27.1205977 L342.692779,27.1205977 L342.692779,13.6670224 C342.692779,13.4478833 342.610887,13.2561366 342.447103,13.0917823 C342.283318,12.927428 342.084437,12.8452508 341.85046,12.8452508 L341.85046,12.8452508 L334.971519,12.8452508 C334.737541,12.8452508 334.53866,12.927428 334.374876,13.0917823 C334.211092,13.2561366 334.1292,13.4478833 334.1292,13.6670224 L334.1292,13.6670224 L334.1292,27.1205977 C334.1292,27.3553895 334.211092,27.5549626 334.374876,27.719317 C334.53866,27.8836713 334.737541,27.9658485 334.971519,27.9658485 L334.971519,27.9658485 L341.85046,27.9658485 Z M340.399799,17.3062967 L336.351987,17.3062967 C336.273994,17.3062967 336.234998,17.2749911 336.234998,17.2123799 L336.234998,17.2123799 L336.234998,14.7705443 C336.234998,14.7079331 336.273994,14.6766275 336.351987,14.6766275 L336.351987,14.6766275 L340.399799,14.6766275 C340.477791,14.6766275 340.516788,14.7079331 340.516788,14.7705443 L340.516788,14.7705443 L340.516788,17.2123799 C340.516788,17.2749911 340.477791,17.3062967 340.399799,17.3062967 L340.399799,17.3062967 Z M340.399799,21.7438634 L336.351987,21.7438634 C336.273994,21.7438634 336.234998,21.7047314 336.234998,21.6264674 L336.234998,21.6264674 L336.234998,19.1376734 C336.234998,19.0750623 336.273994,19.0437567 336.351987,19.0437567 L336.351987,19.0437567 L340.399799,19.0437567 C340.477791,19.0437567 340.516788,19.0750623 340.516788,19.1376734 L340.516788,19.1376734 L340.516788,21.6264674 C340.516788,21.7047314 340.477791,21.7438634 340.399799,21.7438634 L340.399799,21.7438634 Z M340.399799,26.1579509 L336.351987,26.1579509 C336.273994,26.1579509 336.234998,26.1266453 336.234998,26.0640342 L336.234998,26.0640342 L336.234998,23.5282818 C336.234998,23.4500178 336.273994,23.4108858 336.351987,23.4108858 L336.351987,23.4108858 L340.399799,23.4108858 C340.477791,23.4108858 340.516788,23.4500178 340.516788,23.5282818 L340.516788,23.5282818 L340.516788,26.0640342 C340.516788,26.1266453 340.477791,26.1579509 340.399799,26.1579509 L340.399799,26.1579509 Z M334.550359,33.6947705 C334.784337,33.6791178 334.979318,33.585201 335.135303,33.4130203 C336.071214,32.3486304 336.858938,31.096407 337.498477,29.6563501 C337.592068,29.4528637 337.588168,29.2532906 337.486778,29.0576307 C337.385388,28.8619708 337.225503,28.7328353 337.007124,28.6702241 L337.007124,28.6702241 L336.492373,28.5528282 C336.273994,28.490217 336.059515,28.5136962 335.848935,28.6232657 C335.638355,28.7328353 335.48627,28.8971896 335.392679,29.1163287 C334.877928,30.2589826 334.214991,31.2607613 333.403869,32.1216649 C333.263483,32.26254 333.193289,32.4268943 333.193289,32.6147279 C333.193289,32.8495197 333.28688,33.0373533 333.474062,33.1782284 C333.630047,33.2877979 333.778233,33.3973675 333.91862,33.506937 C334.105802,33.6478122 334.316382,33.7104233 334.550359,33.6947705 Z M341.628181,32.7908218 C341.838761,32.8612593 342.045441,32.8495197 342.248222,32.755603 L342.248222,32.755603 L342.669381,32.5208111 C342.872162,32.4112416 343.008649,32.2468872 343.078842,32.0277481 C343.149035,31.808609 343.129537,31.5972963 343.020348,31.39381 C342.58359,30.6268232 342.029843,29.812878 341.359107,28.9519744 C341.203122,28.7641409 341.004241,28.6428317 340.762464,28.588047 C340.520687,28.5332622 340.28281,28.5606546 340.048832,28.6702241 L340.048832,28.6702241 L339.744662,28.8110993 C339.55748,28.8893632 339.440491,29.0302383 339.393695,29.2337247 C339.378097,29.2963358 339.370297,29.3511206 339.370297,29.398079 C339.370297,29.5389541 339.417093,29.6720028 339.510684,29.7972252 C340.150223,30.6581288 340.69617,31.5190324 341.148527,32.379936 C341.257717,32.5834223 341.417601,32.7203842 341.628181,32.7908218 Z" id="e-First理財" fill="#00573D" fill-rule="nonzero"></path>
        <path d="M265.648,34.52 L265.648,33.584 L276.976,33.584 L276.976,34.52 L279.28,34.52 L279.28,24.32 L270.112,24.32 L271.528,22.88 C270.28,21.968 268.792,21.056 267.016,20.144 C267.04,20.048 267.064,19.928 267.112,19.808 L271.888,19.808 L271.888,17.72 L267.592,17.72 C267.688,17.144 267.736,16.544 267.784,15.896 L271.216,15.896 L271.216,13.88 L264.64,13.88 C264.832,13.448 265.024,13.016 265.192,12.536 L263.152,12.104 C262.336,13.928 261.352,15.32 260.248,16.304 L261.376,17.72 L260.296,17.72 L260.296,19.808 L264.76,19.808 L264.712,19.904 C263.944,21.488 262.336,22.808 259.84,23.912 L261.376,25.76 C262.096,25.424 262.744,25.04 263.368,24.656 L263.368,34.52 L265.648,34.52 Z M281.032,22.976 L281.032,13.904 L272.632,13.904 L272.632,22.976 L281.032,22.976 Z M265.384,17.72 L261.928,17.72 C262.48,17.216 263.008,16.616 263.512,15.896 L265.6,15.896 C265.552,16.52 265.48,17.12 265.384,17.72 Z M278.8,20.984 L274.864,20.984 L274.864,15.92 L278.8,15.92 L278.8,20.984 Z M269.704,24.32 L263.848,24.32 C264.88,23.552 265.696,22.712 266.272,21.8 C267.664,22.664 268.792,23.504 269.704,24.32 Z M276.976,28.016 L265.648,28.016 L265.648,26.336 L276.976,26.336 L276.976,28.016 Z M276.976,31.568 L265.648,31.568 L265.648,29.984 L276.976,29.984 L276.976,31.568 Z M294.448,20.264 L296.272,18.992 C295.528,17.6 294.448,15.944 293.056,14.024 L291.304,15.152 C291.784,15.824 292.216,16.496 292.648,17.144 C290.728,17.384 288.928,17.552 287.224,17.648 C288.472,16.448 289.6,14.888 290.608,12.944 L288.424,12.296 C287.632,13.928 286.504,15.56 285.064,17.216 C284.776,17.456 284.44,17.648 284.032,17.768 L284.656,19.688 C288.16,19.472 291.16,19.184 293.656,18.8 C293.944,19.28 294.208,19.784 294.448,20.264 Z M305.344,23 L305.344,20.912 L299.632,20.912 C299.08,20.912 298.816,20.648 298.816,20.12 L298.816,17.336 L304.84,16.88 L304.84,14.816 L298.816,15.248 L298.816,12.68 L296.56,12.68 L296.56,20.696 C296.56,22.232 297.352,23 298.96,23 L305.344,23 Z M285.664,34.52 C286.672,32.936 287.272,30.968 287.488,28.616 L287.944,30.416 C289.528,30.176 291.064,29.888 292.528,29.552 L292.528,31.808 C292.528,32.192 292.312,32.384 291.928,32.384 C291.28,32.384 290.584,32.336 289.864,32.264 L290.44,34.376 L292.576,34.376 C293.992,34.376 294.712,33.776 294.712,32.576 L294.712,20.744 L285.4,20.744 L285.4,26.864 C285.376,29.312 284.896,31.352 283.936,32.96 L285.664,34.52 Z M287.512,28.472 C287.56,27.896 287.608,27.32 287.608,26.696 L287.608,26.024 L288.76,26.216 C289.6,26.36 290.416,26.504 291.232,26.696 L291.928,25.016 C291.016,24.824 290.272,24.704 289.696,24.608 C289.192,24.512 288.496,24.416 287.608,24.32 L287.608,22.712 L292.528,22.712 L292.528,27.728 C290.92,28.064 289.24,28.304 287.512,28.472 Z M302.968,34.112 C303.856,34.112 304.504,33.92 304.912,33.56 C305.344,33.176 305.656,31.976 305.848,29.96 L303.784,29.288 C303.712,30.632 303.568,31.448 303.376,31.736 C303.208,31.952 302.944,32.072 302.56,32.072 L299.608,32.072 C299.056,32.072 298.792,31.856 298.792,31.424 L298.792,28.16 L304.96,27.728 L304.96,25.64 L298.792,26.072 L298.792,23.816 L296.536,23.816 L296.536,31.904 C296.536,33.368 297.352,34.112 298.984,34.112 L302.968,34.112 Z" id="智能" fill="#00573D" fill-rule="nonzero"></path>
    </g>
</svg>