<?xml version="1.0" encoding="utf-8"?>
<!-- Generator: Adobe Illustrator 24.0.1, SVG Export Plug-In . SVG Version: 6.00 Build 0)  -->
<svg version="1.1" id="圖層_1" xmlns="http://www.w3.org/2000/svg" xmlns:xlink="http://www.w3.org/1999/xlink" x="0px" y="0px"
	 viewBox="0 0 163.8 46" style="enable-background:new 0 0 163.8 46;" xml:space="preserve">
<style type="text/css">
	.st0{fill:#00573D;}
	.st1{fill:#B3863B;}
	.st2{fill:#C89E4E;}
	.st3{fill:#DDC39C;}
	.st4{fill:#804C2E;}
	.st5{fill:url(#Path_1_);}
	.st6{fill:url(#Path_2_);}
	.st7{fill:url(#Path_3_);}
	.st8{fill:url(#Path_4_);}
	.st9{fill:none;}
	.st10{fill:url(#Path_5_);}
	.st11{fill:url(#Path_6_);}
</style>
<title>logo+e-first copy</title>
<desc>Created with Sketch.</desc>
<path class="st0" d="M149.2,11.8l-3.5-1c0,0-0.9,3.3-5.2,7.4l1.2,1C141.7,19.2,146.5,16.2,149.2,11.8z M146.2,16.5
	c0,0-1.8,4.6-6.1,8.7l1.2,1c0,0,1.1-0.8,2.6-2.1v10.5h3V21.1c1.1-1.1,2.1-2.4,2.8-3.6L146.2,16.5z M150.7,12.6v1.7h13.1v-1.7H150.7z
	 M149.5,20.7h9.1v12.1h-3.7v1.7h5c1.2,0,1.7-0.2,1.7-2.6V20.7h2.2V19h-14.3V20.7L149.5,20.7z"/>
<path class="st0" d="M119.3,23.6h2.8v-1.8h-2.8v-2.2h2v-1.7h-6.5c0.9-0.9,2-2.1,3-3.5c1.9,2.5,4.3,3.9,4.3,3.9l0.8-1.2
	c-2.8-3-3.1-5.8-3.1-5.8H116c0,0-0.7,3.7-4.1,7.3l0.8,1.1c0,0,0.6-0.5,1.5-1.3v1.2h2v2.2h-3.5v1.7h3.5v5.3c-0.5-0.9-2-3.3-2.6-4
	l-1.2,0.7c0,0,1.2,3.2,1.5,5.2l2.3-1.4v2.1l-4.2,0.9l0.8,2.6l9.1-3.1l0.1-1.7l-2.8,0.6L119.3,23.6L119.3,23.6z M119.3,29l1.4,0.4
	c0.6-0.9,2.2-3.9,2.2-3.9l-2.3-0.8C120.2,27.4,119.3,29,119.3,29z M131.9,27.7c2.9-1,3.9-1.8,3.9-1.8l-1.5-2.2
	c-0.8,1-1.9,1.8-2.8,2.4c-0.2-1-0.3-2-0.3-3.2h1.7c1.2,0,1.7-0.2,1.7-2.6V12h-11.4v19.9c0,2.4,0.6,2.8,1.7,2.6
	c0.3-0.1,0.5-0.1,0.6-0.1l4.5-1v-1.7l-3.8,0.8v-9.6h2.2c0,1.7,0.4,8.7,6.6,11.6l0.9-1C135.9,33.5,133.2,31.7,131.9,27.7z
	 M126.3,13.8h5.4v2.9h-5.4V13.8z M126.3,21.2v-2.8h5.4v2.8H126.3L126.3,21.2z"/>
<path id="Shape_1_" class="st0" d="M70.5,25.9v-2.3h6.6c1.2,0,1.7-0.2,1.7-2.6v-3.2H59v1.7h8.5v2.3h-10v2.8c0,2.4,0.6,3,1.7,3h5.5
	c-0.4,0.9-2.2,3.3-7.7,5.9l0.7,1.4c0,0,5.8-1.4,9.8-5.8V35h3v-7.3H77v4h-3.9v1.7h5.2c1.2,0,1.7-0.2,1.7-2.6v-4.9H70.5L70.5,25.9z
	 M70.5,19.5h5.3v2.3h-5.3V19.5z M67.5,25.9h-6.9v-2.3h6.9V25.9z M61.2,14.7h1.2c0.3,0.4,1.2,1.3,1.6,2.6l2.5-0.8
	c0,0-0.7-0.9-1.8-1.8h3.9v-1.8h-6c0.3-0.4,0.7-0.9,1-1.4l-3.3-1c0,0-0.6,3-3.7,6.1l1.4,0.9C58,17.5,59.2,16.8,61.2,14.7z M69.6,17.5
	c0,0,1.2-0.6,3.2-2.8H74c0.3,0.4,1.2,1.3,1.7,2.6l2.5-0.8c0,0-0.7-0.9-1.8-1.8h3.7v-1.8h-5.8c0.3-0.4,0.7-0.9,1-1.4l-3.3-1
	c0,0-0.6,3-3.7,6.1L69.6,17.5z"/>
<polygon id="Path_7_" class="st0" points="107.2,21.8 107.2,24.1 84.1,24.1 84.1,21.8 "/>
<g>
	<g transform="translate(16.229508, 14.882353)">
		<polygon id="Rectangle" class="st1" points="0.7,8.1 8,0.8 15.4,8.1 8,15.5 		"/>
		<polygon id="Path_8_" class="st2" points="8,0.8 15.4,8.1 14.7,8.1 14.7,8.1 8,1.5 		"/>
		<polygon id="Path_9_" class="st3" points="8,1.5 1.4,8.1 1.4,8.1 0.7,8.1 8,0.8 		"/>
		<polygon id="Path_10_" class="st2" points="8,15.5 0.7,8.1 1.4,8.1 1.4,8.1 8,14.7 		"/>
		<polygon id="Path_11_" class="st4" points="8,14.7 14.7,8.1 14.7,8.1 15.4,8.1 8,15.5 		"/>
	</g>
	
		<linearGradient id="Path_1_" gradientUnits="userSpaceOnUse" x1="-1092.7023" y1="18.6421" x2="-1091.9668" y2="17.8493" gradientTransform="matrix(38.5045 0 0 40.5476 42081.3672 -719.3592)">
		<stop  offset="0" style="stop-color:#B3863B"/>
		<stop  offset="0.1212" style="stop-color:#B4883E"/>
		<stop  offset="0.2186" style="stop-color:#B98E48"/>
		<stop  offset="0.3076" style="stop-color:#C09959"/>
		<stop  offset="0.3918" style="stop-color:#CAA871"/>
		<stop  offset="0.4717" style="stop-color:#D7BB8F"/>
		<stop  offset="0.5" style="stop-color:#DDC39C"/>
		<stop  offset="0.5283" style="stop-color:#D7BB8F"/>
		<stop  offset="0.6082" style="stop-color:#CAA871"/>
		<stop  offset="0.6924" style="stop-color:#C09959"/>
		<stop  offset="0.7814" style="stop-color:#B98E48"/>
		<stop  offset="0.8788" style="stop-color:#B4883E"/>
		<stop  offset="1" style="stop-color:#B3863B"/>
	</linearGradient>
	<path id="Path_12_" class="st5" d="M5.7,22.6c0-11.2,9.2-20.3,20.6-20.3c5.1,0,9.8,1.8,13.4,4.9L39.8,7C35.7,3.1,30.1,0.6,24,0.6
		C11.5,0.6,1.3,10.6,1.3,23c0,10.2,8.4,18.2,18.7,18.2c5.6,0,10.6-2.1,14-6l-0.1-0.1c-3,2.6-6.9,4-11.2,4
		C13.3,39.1,5.7,31.9,5.7,22.6z"/>
	
		<linearGradient id="Path_2_" gradientUnits="userSpaceOnUse" x1="-1092.0284" y1="17.8733" x2="-1092.7468" y2="18.6641" gradientTransform="matrix(38.5045 0 0 40.5476 42088.7891 -715.1512)">
		<stop  offset="0" style="stop-color:#00573D"/>
		<stop  offset="0.1173" style="stop-color:#03593F"/>
		<stop  offset="0.2115" style="stop-color:#0D6046"/>
		<stop  offset="0.2977" style="stop-color:#1E6C53"/>
		<stop  offset="0.3791" style="stop-color:#367C64"/>
		<stop  offset="0.4565" style="stop-color:#549279"/>
		<stop  offset="0.5" style="stop-color:#69A088"/>
		<stop  offset="0.5435" style="stop-color:#549279"/>
		<stop  offset="0.6209" style="stop-color:#367C64"/>
		<stop  offset="0.7023" style="stop-color:#1E6C53"/>
		<stop  offset="0.7885" style="stop-color:#0D6046"/>
		<stop  offset="0.8827" style="stop-color:#03593F"/>
		<stop  offset="1" style="stop-color:#00573D"/>
	</linearGradient>
	<path id="Path_13_" class="st6" d="M42.8,23.4c0,11.2-9.2,20.3-20.6,20.3c-5.1,0-9.8-1.8-13.4-4.9L8.7,39c4.1,3.9,9.7,6.4,15.8,6.4
		c12.5,0,22.7-10,22.7-22.4c0-10.2-8.4-18.2-18.7-18.2C23,4.8,18,7,14.6,10.8l0.1,0.1c3-2.6,6.9-4,11.2-4
		C35.3,6.9,42.8,14.1,42.8,23.4z"/>
	
		<linearGradient id="Path_3_" gradientUnits="userSpaceOnUse" x1="-1088.3975" y1="19.6107" x2="-1088.5449" y2="20.3761" gradientTransform="matrix(33.9467 0 0 36.8 36971.8906 -717.7131)">
		<stop  offset="5.494510e-03" style="stop-color:#804C2E"/>
		<stop  offset="0.3" style="stop-color:#B3863B"/>
		<stop  offset="1" style="stop-color:#804C2E"/>
	</linearGradient>
	<path id="Path_14_" class="st7" d="M24.1,38.3c-8.4,0-15.6-6.9-15.6-15.3c0-12.3,9-19.4,19.7-19.4c4.2,0,8.2,1.4,11.3,3.7l0.1-0.1
		c-3.6-3-8.3-4.9-13.4-4.9c-11.4,0-20.6,9.1-20.6,20.3c0,9.3,7.6,16.5,17,16.5c4.3,0,8.2-1.4,11.2-4l-0.2-0.2
		C31.1,37.1,27.7,38.3,24.1,38.3z"/>
	
		<linearGradient id="Path_4_" gradientUnits="userSpaceOnUse" x1="-1088.5104" y1="19.5949" x2="-1088.6432" y2="20.3592" gradientTransform="matrix(34.0549 0 0 36.8541 37093.207 -717.7069)">
		<stop  offset="0" style="stop-color:#C89E4E"/>
		<stop  offset="0.3" style="stop-color:#F4E8D0"/>
		<stop  offset="1" style="stop-color:#C89E4E"/>
	</linearGradient>
	<path id="Path_15_" class="st8" d="M26.3,2.3c-11.4,0-20.7,9.1-20.7,20.3c0,9.3,7.6,16.5,17,16.5c4.3,0,8.3-1.4,11.3-4L33.8,35
		c-3,2.4-6.8,3.8-11.1,3.8c-9.3,0-16.9-7.1-16.9-16.3C5.8,11.4,15,2.4,26.3,2.3c5,0.1,9.6,1.9,13.2,4.8l0,0
		C36.1,4.1,31.4,2.3,26.3,2.3z"/>
	<path id="Path_16_" class="st9" d="M28.6,4.8C23,4.8,18,7,14.5,10.8l0.3,0.3c2.6-2.1,6-3.4,9.6-3.4C32.9,7.7,40,14.5,40,23
		c0,12.3-9,19.4-19.7,19.4c-4.2,0-8.2-1.4-11.3-3.7L8.7,39c4.1,3.9,9.7,6.4,15.8,6.4c12.5,0,22.7-10,22.7-22.4
		C47.2,12.8,38.9,4.8,28.6,4.8z"/>
	
		<linearGradient id="Path_5_" gradientUnits="userSpaceOnUse" x1="-1088.334" y1="19.7581" x2="-1088.4863" y2="20.5208" gradientTransform="matrix(33.9332 0 0 36.8 36959.9766 -713.0999)">
		<stop  offset="5.494510e-03" style="stop-color:#004730"/>
		<stop  offset="0.7" style="stop-color:#00573D"/>
		<stop  offset="1" style="stop-color:#004730"/>
	</linearGradient>
	<path id="Path_17_" class="st10" d="M24.5,7.7c8.5,0,15.6,6.8,15.6,15.3c0,12.3-9,19.4-19.7,19.4c-4.2,0-8.2-1.4-11.3-3.7L9,38.8
		c3.6,3,8.3,4.9,13.4,4.9c11.4,0,20.6-9.1,20.6-20.3c0-9.3-7.6-16.5-17-16.5c-4.3,0-8.2,1.4-11.2,4l0.2,0.2
		C17.5,8.9,20.8,7.7,24.5,7.7z"/>
	
		<linearGradient id="Path_6_" gradientUnits="userSpaceOnUse" x1="-1088.5997" y1="20.4894" x2="-1088.4572" y2="19.7278" gradientTransform="matrix(34.0549 0 0 36.8541 37096.4805 -713.1346)">
		<stop  offset="0" style="stop-color:#007559"/>
		<stop  offset="0.3" style="stop-color:#EAF5F5"/>
		<stop  offset="1" style="stop-color:#007559"/>
	</linearGradient>
	<path id="Path_18_" class="st11" d="M22.3,43.7c11.4,0,20.7-9.1,20.7-20.3c0-9.3-7.6-16.5-17-16.5c-4.3,0-8.3,1.4-11.3,4l0.1,0.1
		c3-2.4,6.8-3.8,11.1-3.8c9.4,0,16.9,7.1,16.9,16.3c0,11.1-9.2,20.1-20.5,20.1c-5,0-9.6-1.8-13.2-4.7l0,0
		C12.5,41.9,17.1,43.7,22.3,43.7z"/>
</g>
</svg>
