<?xml version="1.0" encoding="utf-8"?>
<!-- Generator: Adobe Illustrator 24.0.2, SVG Export Plug-In . SVG Version: 6.00 Build 0)  -->
<svg version="1.1" id="圖層_1" xmlns="http://www.w3.org/2000/svg" xmlns:xlink="http://www.w3.org/1999/xlink" x="0px" y="0px"
	 viewBox="0 0 791.39 1106.39" style="enable-background:new 0 0 791.39 1106.39;" xml:space="preserve">
<style type="text/css">
	.st0{fill:none;}
	.st1{fill-rule:evenodd;clip-rule:evenodd;fill:#FFFFFF;}
	.st2{fill-rule:evenodd;clip-rule:evenodd;fill:url(#SVGID_1_);}
	.st3{fill-rule:evenodd;clip-rule:evenodd;fill:url(#SVGID_2_);}
	.st4{fill-rule:evenodd;clip-rule:evenodd;fill:#C2BFC0;}
	.st5{fill-rule:evenodd;clip-rule:evenodd;fill:none;stroke:#E5E0DF;stroke-width:5;stroke-miterlimit:10;}
	.st6{clip-path:url(#SVGID_4_);}
	.st7{fill:#FFFFFF;}
	.st8{fill:#F7F7F7;}
	.st9{fill:#4E4D4D;}
	.st10{fill:#E9EEEB;stroke:#CCCCCC;stroke-miterlimit:10;}
	.st11{fill:#666767;}
	.st12{fill:#CCCCCC;}
	.st13{fill:none;stroke:#7F8080;stroke-width:0.9333;stroke-linecap:round;stroke-miterlimit:10;}
	.st14{clip-path:url(#SVGID_6_);}
	.st15{fill:none;stroke:#7F8080;stroke-width:0.4667;stroke-linecap:round;stroke-miterlimit:10;}
	.st16{clip-path:url(#SVGID_8_);}
	.st17{clip-path:url(#SVGID_10_);}
	.st18{fill:#E9EEEB;}
	.st19{clip-path:url(#SVGID_12_);}
	.st20{clip-path:url(#SVGID_14_);}
	.st21{clip-path:url(#SVGID_16_);}
	.st22{clip-path:url(#SVGID_18_);}
	.st23{clip-path:url(#SVGID_20_);}
	.st24{clip-path:url(#SVGID_24_);}
	.st25{fill:url(#SVGID_25_);}
	.st26{fill:url(#SVGID_26_);}
	.st27{clip-path:url(#SVGID_28_);fill:#1B844D;}
	.st28{clip-path:url(#SVGID_30_);}
	.st29{clip-path:url(#SVGID_32_);}
	.st30{fill:none;stroke:#52B665;stroke-width:3;stroke-miterlimit:10;}
	.st31{fill:#52B665;}
	.st32{fill:none;stroke:#52B665;stroke-width:2.8571;stroke-miterlimit:10;}
	.st33{fill:none;stroke:#52B665;stroke-width:2.7143;stroke-miterlimit:10;}
	.st34{fill:none;stroke:#52B665;stroke-width:2.5714;stroke-miterlimit:10;}
	.st35{fill:none;stroke:#52B665;stroke-width:2.4286;stroke-miterlimit:10;}
	.st36{fill:none;stroke:#52B665;stroke-width:2.2857;stroke-miterlimit:10;}
	.st37{fill:none;stroke:#52B665;stroke-width:2.1429;stroke-miterlimit:10;}
	.st38{fill:none;stroke:#52B665;stroke-width:2;stroke-miterlimit:10;}
	.st39{fill:none;stroke:#52B665;stroke-width:1.8571;stroke-miterlimit:10;}
	.st40{fill:none;stroke:#52B665;stroke-width:1.7143;stroke-miterlimit:10;}
	.st41{fill:none;stroke:#52B665;stroke-width:1.5714;stroke-miterlimit:10;}
	.st42{fill:none;stroke:#52B665;stroke-width:1.4286;stroke-miterlimit:10;}
	.st43{fill:none;stroke:#52B665;stroke-width:1.2857;stroke-miterlimit:10;}
	.st44{fill:none;stroke:#52B665;stroke-width:1.1429;stroke-miterlimit:10;}
	.st45{fill:none;stroke:#52B665;stroke-miterlimit:10;}
	.st46{fill:none;stroke:#52B665;stroke-width:0.8571;stroke-miterlimit:10;}
	.st47{fill:none;stroke:#52B665;stroke-width:0.7143;stroke-miterlimit:10;}
	.st48{fill:none;stroke:#52B665;stroke-width:0.5714;stroke-miterlimit:10;}
	.st49{fill:none;stroke:#52B665;stroke-width:0.4286;stroke-miterlimit:10;}
	.st50{fill:none;stroke:#52B665;stroke-width:0.2857;stroke-miterlimit:10;}
	.st51{fill:none;stroke:#52B665;stroke-width:0.1429;stroke-miterlimit:10;}
	.st52{fill:#AD8549;}
	.st53{fill:#005A41;}
	.st54{fill:#A67E3A;}
	.st55{fill:#ACABAB;}
	.st56{fill:none;stroke:#7D7D7D;stroke-width:0.4667;stroke-linecap:round;stroke-miterlimit:10;}
	.st57{clip-path:url(#SVGID_34_);}
	.st58{clip-path:url(#SVGID_36_);}
	.st59{clip-path:url(#SVGID_38_);}
	.st60{clip-path:url(#SVGID_40_);}
	.st61{clip-path:url(#SVGID_42_);}
	.st62{clip-path:url(#SVGID_44_);}
	.st63{clip-path:url(#SVGID_46_);fill:#E9EEEB;stroke:#CCCCCC;stroke-miterlimit:10;}
	.st64{clip-path:url(#SVGID_48_);fill:#666767;}
	.st65{clip-path:url(#SVGID_50_);}
	.st66{fill:none;stroke:#7F8080;stroke-width:1.1333;stroke-linecap:round;stroke-miterlimit:10;}
	.st67{clip-path:url(#SVGID_52_);}
	.st68{clip-path:url(#SVGID_54_);}
	.st69{clip-path:url(#SVGID_56_);}
	.st70{clip-path:url(#SVGID_58_);}
	.st71{clip-path:url(#SVGID_60_);}
	.st72{clip-path:url(#SVGID_62_);}
	.st73{clip-path:url(#SVGID_64_);fill:#E9EEEB;stroke:#CCCCCC;stroke-miterlimit:10;}
	.st74{clip-path:url(#SVGID_66_);fill:#666767;}
	.st75{clip-path:url(#SVGID_68_);}
	.st76{clip-path:url(#SVGID_70_);}
	.st77{clip-path:url(#SVGID_72_);}
	.st78{fill-rule:evenodd;clip-rule:evenodd;fill:#E5E0DF;}
	.st79{fill:#F6D05F;}
	.st80{fill:#ECB14E;}
	.st81{fill:#F8E6C7;}
	.st82{fill:#ECC6AD;}
	.st83{fill:#E37F7D;}
	.st84{fill:#4A1E0E;}
	.st85{opacity:0.1;fill:#040000;enable-background:new    ;}
	.st86{fill:#E0E2E0;}
	.st87{clip-path:url(#SVGID_74_);}
	.st88{fill:url(#SVGID_77_);stroke:#E6E6E5;stroke-width:0.8077;stroke-miterlimit:10;}
	.st89{fill:#E6E6E5;}
	.st90{fill:url(#SVGID_78_);stroke:#E6E6E5;stroke-width:0.8077;stroke-miterlimit:10;}
	.st91{fill:none;stroke:#333333;stroke-width:13;stroke-linecap:round;stroke-miterlimit:10;}
	.st92{fill:#23A664;}
	.st93{opacity:0.67;}
	.st94{fill:#A9A9A8;}
	.st95{fill:none;stroke:#52B665;stroke-width:8;stroke-linecap:round;stroke-miterlimit:10;}
	.st96{fill:none;stroke:#E5E0DF;stroke-width:5;stroke-miterlimit:10;}
</style>
<pattern  y="1106.39" width="390" height="507" patternUnits="userSpaceOnUse" id="SVGID_21_" viewBox="0 -507 390 507" style="overflow:visible;">
	<g>
		<rect y="-507" class="st0" width="390" height="507"/>
		<g>
			<rect y="-507" class="st0" width="390" height="507"/>
			<g>
				<rect y="-507" class="st0" width="390" height="507"/>
				<g>
					<rect y="-507" class="st0" width="390" height="507"/>
				</g>
			</g>
		</g>
	</g>
</pattern>
<pattern  y="1106.39" width="390" height="507" patternUnits="userSpaceOnUse" id="SVGID_22_" viewBox="0 -507 390 507" style="overflow:visible;">
	<g>
		<rect y="-507" class="st0" width="390" height="507"/>
		<g>
			<rect y="-507" class="st0" width="390" height="507"/>
			<g>
				<rect y="-507" class="st0" width="390" height="507"/>
				<g>
					<rect y="-507" class="st0" width="390" height="507"/>
				</g>
			</g>
		</g>
	</g>
</pattern>
<pattern  y="1106.39" width="390" height="507" patternUnits="userSpaceOnUse" id="SVGID_75_" viewBox="0 -507 390 507" style="overflow:visible;">
	<g>
		<rect y="-507" class="st0" width="390" height="507"/>
		<g>
			<rect y="-507" class="st0" width="390" height="507"/>
			<g>
				<rect y="-507" class="st0" width="390" height="507"/>
				<g>
					<rect y="-507" class="st0" width="390" height="507"/>
				</g>
			</g>
		</g>
	</g>
</pattern>
<pattern  y="1106.39" width="390" height="507" patternUnits="userSpaceOnUse" id="SVGID_76_" viewBox="0 -507 390 507" style="overflow:visible;">
	<g>
		<rect y="-507" class="st0" width="390" height="507"/>
		<g>
			<rect y="-507" class="st0" width="390" height="507"/>
			<g>
				<rect y="-507" class="st0" width="390" height="507"/>
				<g>
					<rect y="-507" class="st0" width="390" height="507"/>
				</g>
			</g>
		</g>
	</g>
</pattern>
<path class="st1" d="M783.85,414.86C784.92,186.39,612.11,0.35,397.86-0.66C183.6-1.67,9.04,182.73,7.96,411.2L783.85,414.86z"/>
<linearGradient id="SVGID_1_" gradientUnits="userSpaceOnUse" x1="8.46" y1="154.5572" x2="784.3428" y2="154.5572">
	<stop  offset="0.6933" style="stop-color:#E5E0DF"/>
	<stop  offset="1" style="stop-color:#B2B8B4"/>
</linearGradient>
<path class="st2" d="M784.34,309.78C785.14,139.34,612.11,0.35,397.86-0.66C183.6-1.67,9.26,135.68,8.46,306.12L784.34,309.78z"/>
<path class="st1" d="M663.75,232.36l-533.97-2.52c0.6-128,120.62-231.2,268.08-230.5C545.31,0.04,664.35,104.36,663.75,232.36z"/>
<linearGradient id="SVGID_2_" gradientUnits="userSpaceOnUse" x1="304.91" y1="100.7198" x2="488.8853" y2="100.7198">
	<stop  offset="0.6933" style="stop-color:#E5E0DF"/>
	<stop  offset="1" style="stop-color:#B2B8B4"/>
</linearGradient>
<path class="st3" d="M304.91,201.23l183.97,0.87C489.42,90.36,448.66-0.42,397.86-0.66C347.05-0.9,305.44,89.49,304.91,201.23z"/>
<path class="st4" d="M691.62,465.29c-0.77,0-1.54-0.01-2.3-0.03h-0.07h-0.04h-0.04c-0.76-0.01-1.52-0.04-2.28-0.06l0,0h-0.09
	c-0.73-0.02-1.47-0.06-2.2-0.09h-0.06l-0.13-0.01c-1.48-0.07-2.95-0.17-4.41-0.29l-0.1-0.01l-0.21-0.02l-1.87-0.16l-0.21-0.02
	l-0.07-0.01c-0.68-0.07-1.37-0.13-2.04-0.21l-0.17-0.02l-0.29-0.03l-1.79-0.21h-0.05l-0.12-0.02l-0.13-0.01
	c-0.64-0.08-1.29-0.17-1.93-0.26l-0.09-0.01l-0.08-0.01l-0.17-0.03c-0.62-0.08-1.24-0.18-1.86-0.27l-0.15-0.02l-0.04-0.01
	l-0.41-0.06l-1.34-0.22l-0.44-0.08l0,0l-0.44-0.08l-1.42-0.26l-0.61-0.12c-0.56-0.11-1.12-0.21-1.67-0.33l-0.25-0.05l0.02,0.1
	l0.02,0.1l0.02,0.1l0.13,0.77l0.02,0.1l0.01,0.1l0.07,0.48l0.01,0.1l0.06,0.48l0,0l0.01,0.1c0.03,0.29,0.06,0.58,0.09,0.88l0.01,0.1
	l0.01,0.16c0.04,0.41,0.06,0.83,0.07,1.24l0.01,0.12c0.02,0.44,0.02,0.89,0.02,1.33c-0.14,29.84-41.44,53.84-92.24,53.6
	c-0.69,0-1.38-0.01-2.06-0.02l-0.77-0.02l-1.54-0.04l-0.54-0.02c-0.66-0.02-1.31-0.05-1.97-0.08l-0.7-0.04l-1.58-0.09l-0.53-0.03
	c-0.55-0.04-1.1-0.08-1.66-0.12l-0.52-0.04c-0.67-0.05-1.34-0.11-2.01-0.18l-0.43-0.04l-1.7-0.17l-0.57-0.06l-1.5-0.17l-0.58-0.07
	c-0.64-0.08-1.28-0.17-1.92-0.26l-0.6-0.09l-1.44-0.21l-0.63-0.1l-1.48-0.24l-0.83-0.14l-1.46-0.26l-0.81-0.15l-1.28-0.25
	l-0.55-0.11c-0.63-0.13-1.26-0.26-1.89-0.4l-0.06-0.01l-0.17-0.04c-0.56-0.12-1.12-0.25-1.68-0.38l-0.56-0.13l-1.56-0.38l-0.29-0.08
	c-0.61-0.15-1.23-0.31-1.83-0.48l-0.51-0.14c-0.45-0.12-0.91-0.25-1.36-0.38l-0.58-0.17c-0.49-0.14-0.98-0.29-1.46-0.43l-0.31-0.09
	c-0.58-0.18-1.16-0.36-1.74-0.55l-0.58-0.19l-1.19-0.4l-0.56-0.19l-1.46-0.52l-0.21-0.07l-0.12-0.05c-0.51-0.18-1.01-0.37-1.51-0.56
	l-0.73-0.28l-0.97-0.38l-0.63-0.25c-0.53-0.22-1.06-0.43-1.59-0.65h-0.01c-0.52-0.22-1.03-0.44-1.54-0.67l-0.59-0.27l-1.02-0.47
	l-0.56-0.26c-0.48-0.23-0.96-0.45-1.43-0.69l-0.09-0.05l-0.28-0.14l-1.14-0.57l-0.58-0.3l-0.95-0.5l-0.53-0.28
	c-0.45-0.25-0.91-0.5-1.35-0.75l-0.38-0.22l-1.07-0.62l-0.5-0.3l-0.99-0.6l-0.34-0.21c-0.43-0.26-0.85-0.53-1.26-0.8l-0.54-0.35
	l-0.79-0.53l-0.56-0.38l-0.8-0.56L499.3,502c-0.34-0.25-0.68-0.5-1.02-0.75l-0.42-0.32l-0.81-0.63l-0.44-0.34l-0.83-0.67l-0.65-0.54
	l-0.71-0.61l-0.44-0.39l-0.66-0.59l-0.46-0.42c-0.33-0.31-0.65-0.61-0.97-0.92l-0.23-0.23c-0.26-0.25-0.51-0.51-0.76-0.76
	l-0.41-0.42l-0.54-0.57l-0.42-0.46l-0.02-0.03c-0.26-0.28-0.51-0.57-0.76-0.86l-0.02-0.02l-0.42-0.48l-0.48-0.58l-0.41-0.5
	l-0.44-0.55l-0.37-0.48c0.58,2.48,0.88,5.01,0.87,7.59c-0.14,29.85-41.44,53.84-92.24,53.6s-91.87-24.63-91.73-54.47
	c0.01-2.58,0.34-5.11,0.94-7.58l-0.38,0.47l-0.44,0.55l-0.41,0.5l-0.49,0.57l-0.42,0.48l-0.02,0.02c-0.25,0.28-0.51,0.56-0.77,0.85
	l-0.02,0.02l-0.43,0.45l-0.55,0.57l-0.41,0.41c-0.25,0.25-0.51,0.51-0.77,0.76l-0.23,0.23c-0.32,0.3-0.65,0.61-0.98,0.91l-0.46,0.42
	l-0.66,0.58l-0.45,0.39l-0.72,0.6l-0.65,0.54l-0.84,0.67l-0.44,0.34l-0.81,0.62l-0.43,0.32c-0.34,0.25-0.68,0.5-1.02,0.74
	l-0.59,0.41l-0.81,0.55l-0.56,0.37l-0.79,0.52l-0.54,0.35c-0.41,0.27-0.84,0.53-1.27,0.79l-0.34,0.21l-1,0.59l-0.5,0.29l-1.07,0.61
	l-0.39,0.22c-0.45,0.25-0.9,0.49-1.36,0.74l-0.53,0.28l-0.96,0.49l-0.58,0.29l-1.15,0.56l-0.28,0.14l-0.09,0.04
	c-0.48,0.23-0.96,0.45-1.45,0.67l-0.56,0.26l-1.03,0.46l-0.59,0.26c-0.51,0.22-1.02,0.44-1.55,0.65h-0.01
	c-0.53,0.22-1.06,0.43-1.59,0.64l-0.64,0.24l-0.97,0.37l-0.73,0.27c-0.5,0.19-1.01,0.37-1.52,0.55l-0.12,0.04l-0.21,0.07l-1.47,0.5
	l-0.56,0.19l-1.19,0.39l-0.59,0.19c-0.58,0.18-1.16,0.36-1.74,0.53l-0.31,0.09c-0.48,0.14-0.98,0.28-1.47,0.42l-0.58,0.17
	c-0.45,0.13-0.9,0.24-1.36,0.36l-0.51,0.14c-0.61,0.16-1.22,0.31-1.84,0.46l-0.29,0.07l-1.56,0.37l-0.56,0.13
	c-0.56,0.13-1.12,0.25-1.68,0.37l-0.17,0.04l-0.06,0.02c-0.63,0.13-1.26,0.26-1.89,0.38l-0.55,0.11l-1.28,0.24l-0.82,0.15
	l-1.46,0.25l-0.83,0.13l-1.48,0.23l-0.63,0.09l-1.44,0.2l-0.6,0.08c-0.64,0.08-1.28,0.16-1.92,0.24l-0.58,0.06l-1.5,0.16l-0.57,0.06
	l-1.7,0.16l-0.43,0.04c-0.67,0.05-1.34,0.11-2.02,0.16l-0.52,0.04c-0.55,0.04-1.11,0.07-1.66,0.1l-0.53,0.03l-1.58,0.08l-0.7,0.03
	c-0.66,0.03-1.31,0.05-1.97,0.07l-0.54,0.01l-1.54,0.03l-0.77,0.01c-0.69,0.01-1.37,0.01-2.06,0.01
	c-50.8-0.24-91.87-24.63-91.73-54.47c0.01-2.12,0.23-4.2,0.64-6.24l-0.25,0.05c-0.56,0.11-1.12,0.21-1.67,0.31l-0.62,0.11
	l-1.42,0.24l-0.44,0.07l0,0l-0.45,0.07l-1.34,0.21l-0.41,0.06h-0.04l-0.15,0.02c-0.62,0.09-1.24,0.17-1.86,0.26l-0.17,0.02
	l-0.08,0.01l-0.09,0.01c-0.64,0.08-1.28,0.16-1.93,0.24l-0.14,0.02l-0.12,0.01h-0.05l-1.79,0.2l-0.29,0.03l-0.17,0.02
	c-0.68,0.07-1.36,0.13-2.04,0.19l-0.07,0.01l-0.21,0.02l-1.87,0.14l-0.21,0.02l-0.1,0.01c-1.46,0.1-2.93,0.18-4.41,0.24l-0.13,0.01
	h-0.06c-0.73,0.03-1.46,0.05-2.19,0.07h-0.09l0,0c-0.76,0.02-1.52,0.03-2.28,0.04h-0.03h-0.05h-0.07c-0.76,0.01-1.53,0.01-2.3,0.01
	c-50.8-0.24-91.87-24.63-91.73-54.47c0-0.42,0.01-0.83,0.03-1.24l0.03-0.44c0.02-0.29,0.04-0.57,0.06-0.86l0.03-0.42
	c0.03-0.31,0.07-0.63,0.11-0.94l0.04-0.33c0.05-0.41,0.12-0.81,0.19-1.22l0.06-0.33c0.06-0.3,0.12-0.6,0.18-0.91l0.09-0.42
	c0.07-0.29,0.13-0.57,0.2-0.85l0.11-0.4c0.1-0.35,0.19-0.7,0.3-1.04l0.05-0.15v-0.01l0.03-0.09c0.12-0.38,0.24-0.75,0.37-1.12
	l0.12-0.34c0.1-0.29,0.21-0.58,0.33-0.88l0.15-0.38c0.12-0.3,0.25-0.59,0.38-0.89l0.13-0.3c0.18-0.39,0.36-0.79,0.55-1.17l0.09-0.19
	c0.16-0.33,0.33-0.66,0.51-0.99l0.18-0.33c0.14-0.27,0.29-0.53,0.44-0.79l0.25-0.43c0.19-0.32,0.38-0.64,0.58-0.96l0.08-0.13
	l0.01-0.02c0.24-0.38,0.48-0.75,0.73-1.12l0.22-0.32l0.54-0.77l0.29-0.4l0.56-0.74l0.29-0.38c0.27-0.34,0.54-0.68,0.81-1.01
	l0.31-0.37l0.57-0.67l0.43-0.48l0.52-0.57l0.43-0.47c0.25-0.27,0.51-0.53,0.77-0.8l0.17-0.17l0.03-0.03
	c0.33-0.33,0.67-0.67,1.01-0.99l0.33-0.31l0.73-0.69l0.42-0.38l0.81-0.72l0.27-0.24c0.38-0.32,0.76-0.64,1.15-0.96l0.29-0.23
	l0.88-0.71l0.48-0.37l0.72-0.55l0.51-0.38l0.85-0.62l0.67-0.47l0.95-0.65l0.55-0.36l0.81-0.53l0.54-0.34l0.83-0.52l0.58-0.36
	l0.06-0.04c0.4-0.24,0.8-0.48,1.2-0.72l0.02-0.01l0.54-0.31l0.89-0.5l0.65-0.36l0.81-0.44l0.63-0.34l1.01-0.52l0.77-0.39l1.11-0.55
	l0.74-0.35l0.81-0.38l0.82-0.37l0.7-0.31l0.86-0.38l0.05-0.02c0.46-0.2,0.93-0.39,1.39-0.59l0.84-0.34l0.74-0.3l0.94-0.36l0.68-0.26
	l0.98-0.36l0.64-0.23l0.95-0.34l1.49-0.51l0.07-0.02l1.06-0.35l0.57-0.18l1.04-0.33l0.86-0.26l0.91-0.27l0.05-0.02l1.56-0.45
	l1.1-0.3l0.6-0.16l1.12-0.29l0.72-0.18l1.09-0.27l0.58-0.14c0.8-0.19,1.6-0.37,2.41-0.54l0.41-0.09c-35-7.8-59.87-27.72-59.76-50.96
	c0.14-29.85,41.44-53.84,92.24-53.6c0.75,0,1.5,0.01,2.23,0.03H103l0.18,0.01c0.64,0.01,1.27,0.03,1.9,0.05l0.27,0.01l0.13,0.01
	c0.69,0.02,1.38,0.05,2.07,0.08l0.33,0.02c1.44,0.07,2.88,0.16,4.3,0.28l0.16,0.01h0.05l0.1,0.01c0.69,0.06,1.37,0.11,2.06,0.18
	l0.08,0.01c0.75,0.07,1.5,0.15,2.25,0.23l0.05,0.01c0.7,0.08,1.39,0.16,2.08,0.24l0.26,0.03c0.67,0.08,1.33,0.17,1.99,0.26
	l0.13,0.02l0.23,0.03c0.62,0.09,1.24,0.18,1.85,0.27l0.13,0.02l0.1,0.02c0.66,0.11,1.32,0.21,1.98,0.33l0.09,0.02h0.02l0.15,0.03
	c0.59,0.1,1.17,0.21,1.75,0.31l0.58,0.11c0.55,0.11,1.1,0.22,1.65,0.33l0.36,0.07c0.62,0.13,1.24,0.26,1.86,0.39l0.16,0.04
	c0.61,0.13,1.22,0.27,1.82,0.42l0.33,0.08c0.61,0.14,1.21,0.29,1.81,0.45l0.13,0.03l0.03,0.01l0.07,0.02
	c0.62,0.16,1.24,0.32,1.85,0.48h0.01l0.1,0.02l0.14,0.04c0.56,0.15,1.12,0.31,1.67,0.47l0.21,0.06l0.14,0.04
	c0.58,0.16,1.15,0.34,1.72,0.51l0.23,0.07c0.55,0.17,1.09,0.34,1.63,0.51l0.41,0.13c-9.48-8.55-14.97-18.76-14.92-29.7
	c0.14-29.84,41.44-53.84,92.24-53.6c37.36,0.18,69.46,13.41,83.77,32.28c-0.58-2.48-0.88-5.01-0.87-7.59
	c0.14-29.84,41.44-53.84,92.24-53.6c50.8,0.24,91.87,24.63,91.73,54.48c-0.01,2.57-0.34,5.1-0.94,7.58
	c14.49-18.73,46.71-31.66,84.07-31.48c50.8,0.24,91.87,24.63,91.73,54.47c-0.05,10.94-5.64,21.1-15.2,29.56l0.41-0.13
	c0.54-0.17,1.09-0.34,1.64-0.5l0.23-0.07c0.57-0.17,1.14-0.33,1.72-0.49l0.14-0.04l0.22-0.06c0.55-0.15,1.11-0.3,1.67-0.45
	l0.14-0.04l0.1-0.03l0,0c0.61-0.16,1.23-0.32,1.85-0.47l0.08-0.02l0.02-0.01l0.14-0.03c0.6-0.15,1.21-0.29,1.81-0.43l0.34-0.08
	c0.6-0.14,1.21-0.27,1.82-0.4l0.17-0.04c0.62-0.12,1.24-0.25,1.86-0.37l0.36-0.07c0.55-0.11,1.1-0.21,1.66-0.31l0.57-0.1
	c0.58-0.1,1.17-0.2,1.76-0.3l0.15-0.03h0.03l0.09-0.01c0.66-0.1,1.32-0.21,1.98-0.3l0.1-0.02l0.11-0.02
	c0.62-0.09,1.25-0.18,1.87-0.26l0.23-0.03l0.13-0.02c0.66-0.08,1.32-0.17,1.99-0.24l0.26-0.03c0.69-0.08,1.39-0.15,2.08-0.22h0.05
	c0.75-0.08,1.5-0.15,2.26-0.21h0.08c0.68-0.06,1.37-0.11,2.06-0.16l0.1-0.01l0.05-0.01l0.16-0.01c1.43-0.1,2.86-0.18,4.3-0.24
	l0.33-0.01c0.69-0.03,1.38-0.05,2.07-0.07h0.13l0.28-0.01c0.63-0.01,1.27-0.02,1.9-0.03h0.18h0.14c0.74-0.01,1.49-0.01,2.24,0
	c50.8,0.24,91.87,24.63,91.73,54.47c0,0.42-0.01,0.83-0.03,1.24l-0.03,0.44l-0.06,0.86l-0.04,0.42c-0.03,0.31-0.06,0.62-0.1,0.94
	l-0.04,0.32c-0.05,0.41-0.12,0.82-0.19,1.22l-0.06,0.33c-0.06,0.3-0.12,0.6-0.18,0.91l-0.09,0.42c-0.07,0.28-0.13,0.57-0.21,0.85
	l-0.1,0.4c-0.1,0.35-0.19,0.7-0.3,1.05l-0.04,0.15V320l-0.03,0.09c-0.12,0.38-0.24,0.75-0.37,1.12l-0.12,0.34
	c-0.1,0.29-0.22,0.58-0.33,0.87l-0.15,0.38c-0.12,0.3-0.25,0.6-0.37,0.89l-0.13,0.3c-0.18,0.39-0.36,0.78-0.55,1.18l-0.09,0.19
	c-0.17,0.33-0.33,0.66-0.51,0.99l-0.18,0.33l-0.44,0.79l-0.25,0.43c-0.19,0.32-0.38,0.64-0.58,0.96l-0.08,0.13l-0.01,0.02
	c-0.23,0.37-0.47,0.73-0.72,1.1l-0.25,0.37l-0.52,0.74l-0.29,0.4l-0.56,0.74l-0.29,0.38c-0.27,0.34-0.54,0.68-0.81,1.01l-0.31,0.37
	l-0.57,0.67l-0.43,0.48l-0.52,0.57l-0.43,0.47c-0.21,0.23-0.43,0.45-0.64,0.67l-0.48,0.49c-0.27,0.27-0.56,0.55-0.84,0.83
	l-0.37,0.36l-0.64,0.6l-0.52,0.47l-0.65,0.57l-0.43,0.38c-0.35,0.3-0.71,0.61-1.08,0.9l-0.42,0.34l-0.79,0.63l-0.48,0.37l-0.69,0.53
	l-0.59,0.44l-0.59,0.42c-0.44,0.32-0.88,0.63-1.32,0.93l-0.46,0.31l-0.72,0.48l-0.61,0.4l-0.7,0.45l-0.61,0.38l-0.79,0.48
	c-0.39,0.24-0.8,0.48-1.21,0.71l-0.8,0.46l-0.58,0.33l-0.76,0.42l-0.74,0.4l-0.74,0.4l-0.65,0.33c-0.49,0.25-0.98,0.5-1.48,0.75
	l-0.7,0.34l-0.87,0.41l-0.58,0.27l-1.03,0.47l-0.37,0.17l-1.13,0.5l-1.39,0.59l-1.1,0.45l-0.38,0.15l-1.19,0.46l-0.37,0.14
	l-1.24,0.46l-0.13,0.05c-1.39,0.51-2.81,1-4.26,1.46l-0.16,0.05l-1.3,0.41l-0.5,0.15c-1.42,0.43-2.87,0.84-4.33,1.23h-0.01
	l-1.42,0.37l-0.36,0.09l-1.41,0.35l-0.05,0.01c-1.06,0.25-2.14,0.5-3.22,0.73l0.6,0.14c0.71,0.16,1.41,0.33,2.11,0.5l0.71,0.17
	l1.01,0.26l0.82,0.21l1.04,0.28l0.76,0.21l0.96,0.27l1.55,0.46l0.08,0.03l0.8,0.25l0.97,0.31l0.96,0.31l0.68,0.23l1,0.34l0.07,0.03
	l1.48,0.52l0.8,0.29l0.82,0.31l0.93,0.35l0.71,0.28l0.89,0.35l0.92,0.38l0.69,0.29c0.5,0.21,0.99,0.42,1.48,0.64l0.72,0.33
	l0.84,0.39l0.71,0.33l0.9,0.43l0.69,0.33c0.47,0.23,0.94,0.47,1.4,0.71l0.06,0.03l0.26,0.14c0.41,0.21,0.81,0.42,1.2,0.64l0.52,0.28
	l0.95,0.53l0.54,0.31l1.06,0.61l0.37,0.22c0.45,0.27,0.89,0.54,1.34,0.81l0.45,0.28l0.95,0.61l0.49,0.32l0.86,0.58l0.48,0.32
	c0.42,0.29,0.83,0.58,1.24,0.87l0.04,0.03l0.23,0.17l0.97,0.72l0.46,0.35l0.8,0.62l0.42,0.33l0.89,0.72l0.29,0.24
	c0.39,0.32,0.77,0.65,1.14,0.97l0.27,0.24l0.81,0.73l0.41,0.38l0.73,0.69l0.32,0.31c0.34,0.33,0.68,0.67,1,1.01l0.02,0.02
	c0.33,0.34,0.65,0.68,0.96,1.02l0.33,0.37l0.62,0.7l0.34,0.39c0.24,0.28,0.48,0.56,0.7,0.84l0.18,0.21
	c0.29,0.36,0.57,0.72,0.85,1.08l0.22,0.3c0.2,0.27,0.4,0.53,0.59,0.8l0.29,0.4c0.18,0.26,0.36,0.52,0.53,0.77l0.22,0.32
	c0.25,0.37,0.49,0.75,0.72,1.13l0.01,0.02l0.06,0.1c0.21,0.34,0.41,0.68,0.61,1.03l0.21,0.37l0.45,0.83l0.18,0.33
	c0.17,0.33,0.34,0.66,0.5,0.99l0.09,0.19c0.19,0.39,0.37,0.79,0.54,1.18l0.13,0.3c0.13,0.3,0.25,0.59,0.37,0.89l0.15,0.38
	c0.11,0.29,0.22,0.58,0.32,0.88l0.12,0.34c0.13,0.37,0.25,0.75,0.36,1.12l0.03,0.09l0.01,0.01l0.04,0.15c0.1,0.35,0.2,0.7,0.29,1.04
	l0.1,0.4c0.07,0.29,0.13,0.57,0.2,0.86l0.09,0.42c0.06,0.3,0.12,0.61,0.17,0.91l0.06,0.33c0.07,0.41,0.13,0.82,0.18,1.22l0.04,0.32
	c0.03,0.32,0.07,0.63,0.09,0.94l0.03,0.42c0.02,0.29,0.04,0.57,0.05,0.86l0.02,0.44c0.01,0.41,0.02,0.83,0.02,1.25
	C783.72,441.54,742.42,465.54,691.62,465.29z"/>
<g>
	<path class="st4" d="M65.46,356.99c-33.54-8.21-57.11-27.69-57-50.31c0.14-29.85,41.44-53.84,92.24-53.6c0.75,0,1.5,0.01,2.23,0.03
		h0.14l0.18,0.01l0.58,0.01C89.38,285.44,76.51,320.19,65.46,356.99z"/>
	<path class="st4" d="M689.48,255.88l0.57-0.01h0.18h0.14c0.74-0.01,1.49-0.01,2.24,0c50.8,0.24,91.87,24.63,91.73,54.47
		c0,0.42-0.01,0.83-0.03,1.24l-0.03,0.44l-0.06,0.86l-0.04,0.42c-0.03,0.31-0.06,0.62-0.1,0.94l-0.04,0.32
		c-0.05,0.41-0.12,0.82-0.19,1.22l-0.06,0.33c-0.06,0.3-0.12,0.6-0.18,0.91l-0.09,0.42c-0.07,0.28-0.13,0.57-0.21,0.85l-0.1,0.4
		c-0.1,0.35-0.19,0.7-0.3,1.05l-0.04,0.15v0.01l-0.03,0.09c-0.12,0.38-0.24,0.75-0.37,1.12l-0.12,0.34
		c-0.1,0.29-0.22,0.58-0.33,0.87l-0.15,0.38c-0.12,0.3-0.25,0.6-0.37,0.89l-0.13,0.3c-0.18,0.39-0.36,0.78-0.55,1.18l-0.09,0.19
		c-0.17,0.33-0.33,0.66-0.51,0.99l-0.18,0.33l-0.44,0.79l-0.25,0.43c-0.19,0.32-0.38,0.64-0.58,0.96l-0.08,0.13l-0.01,0.02
		c-0.23,0.37-0.47,0.73-0.72,1.1l-0.25,0.37l-0.52,0.74l-0.29,0.4l-0.56,0.74l-0.29,0.38c-0.27,0.34-0.54,0.68-0.81,1.01l-0.31,0.37
		l-0.57,0.67l-0.43,0.48l-0.52,0.57l-0.43,0.47c-0.21,0.23-0.43,0.45-0.64,0.67l-0.48,0.49c-0.27,0.27-0.56,0.55-0.84,0.83
		l-0.37,0.36l-0.64,0.6l-0.52,0.47l-0.65,0.57l-0.43,0.38c-0.35,0.3-0.71,0.61-1.08,0.9l-0.42,0.34l-0.79,0.63l-0.48,0.37
		l-0.69,0.53l-0.59,0.44l-0.59,0.42c-0.44,0.32-0.88,0.63-1.32,0.93l-0.46,0.31l-0.72,0.48l-0.61,0.4l-0.7,0.45l-0.61,0.38
		l-0.79,0.48c-0.39,0.24-0.8,0.48-1.21,0.71l-0.8,0.46l-0.58,0.33l-0.76,0.42l-0.74,0.4l-0.74,0.4l-0.65,0.33
		c-0.49,0.25-0.98,0.5-1.48,0.75l-0.7,0.34l-0.87,0.41l-0.58,0.27l-1.03,0.47l-0.37,0.17l-1.13,0.5l-1.39,0.59l-1.1,0.45l-0.38,0.15
		l-1.19,0.46l-0.37,0.14l-1.24,0.46l-0.13,0.05c-1.39,0.51-2.81,1-4.26,1.46l-0.16,0.05l-1.3,0.41l-0.5,0.15
		c-1.42,0.43-2.87,0.84-4.33,1.23h-0.01l-1.42,0.37l-0.36,0.09l-1.41,0.35l-0.05,0.01l-0.45,0.11
		C716.16,323.21,703.63,288.34,689.48,255.88z"/>
</g>
<path class="st4" d="M664.05,462.69c-16.07-110.01-42.83-207.15-77.2-283.72c-4.83-0.48-9.78-0.75-14.83-0.77
	c-37.36-0.18-69.58,12.76-84.07,31.48c0.61-2.47,0.93-5,0.94-7.58c0.14-29.85-40.93-54.23-91.73-54.48
	c-50.8-0.24-92.1,23.76-92.24,53.6c-0.01,2.58,0.29,5.11,0.87,7.59c-14.31-18.86-46.41-32.1-83.77-32.28
	c-5.05-0.02-10,0.2-14.84,0.64c-35.09,76.24-62.76,173.12-79.87,282.98l0.08-0.01c0.56-0.1,1.12-0.21,1.67-0.31l0.25-0.05
	c-0.41,2.05-0.63,4.13-0.64,6.24c-0.14,29.85,40.93,54.23,91.73,54.47c0.69,0,1.37,0,2.06-0.01l0.77-0.01l1.54-0.03l0.54-0.01
	c0.66-0.02,1.31-0.04,1.97-0.07l0.7-0.03l1.58-0.08l0.53-0.03c0.55-0.03,1.11-0.07,1.66-0.1l0.52-0.04c0.67-0.05,1.34-0.1,2.02-0.16
	l0.43-0.04l1.7-0.16l0.57-0.06l1.5-0.16l0.58-0.06c0.64-0.08,1.28-0.16,1.92-0.24l0.6-0.08l1.44-0.2l0.63-0.09l1.48-0.23l0.83-0.13
	l1.46-0.25l0.82-0.15l1.28-0.24l0.55-0.11c0.63-0.13,1.26-0.25,1.89-0.38l0.06-0.02l0.17-0.04c0.56-0.12,1.12-0.24,1.68-0.37
	l0.56-0.13l1.56-0.37l0.29-0.07c0.62-0.15,1.23-0.3,1.84-0.46l0.51-0.14c0.46-0.12,0.91-0.24,1.36-0.36l0.58-0.17
	c0.49-0.14,0.98-0.28,1.47-0.42l0.31-0.09c0.59-0.17,1.16-0.35,1.74-0.53l0.59-0.19l1.19-0.39l0.56-0.19l1.47-0.5l0.21-0.07
	l0.12-0.04c0.51-0.18,1.01-0.36,1.52-0.55l0.73-0.27l0.97-0.37l0.64-0.24c0.53-0.21,1.07-0.43,1.59-0.64h0.01
	c0.52-0.21,1.04-0.43,1.55-0.65l0.59-0.26l1.03-0.46l0.56-0.26c0.49-0.22,0.96-0.45,1.45-0.67l0.09-0.04l0.28-0.14l1.15-0.56
	l0.58-0.29l0.96-0.49l0.53-0.28c0.45-0.24,0.91-0.49,1.36-0.74l0.39-0.22l1.07-0.61l0.5-0.29l1-0.59l0.34-0.21
	c0.43-0.26,0.86-0.53,1.27-0.79l0.54-0.35l0.79-0.52l0.56-0.37l0.81-0.55l0.59-0.41c0.34-0.24,0.68-0.49,1.02-0.74l0.43-0.32
	l0.81-0.62l0.44-0.34l0.84-0.67l0.65-0.54l0.72-0.6l0.45-0.39l0.66-0.58l0.46-0.42c0.33-0.3,0.66-0.61,0.98-0.91l0.23-0.23
	c0.26-0.25,0.51-0.5,0.77-0.76l0.41-0.41l0.55-0.57l0.43-0.45l0.02-0.02c0.26-0.28,0.52-0.56,0.77-0.85l0.02-0.02l0.42-0.48
	l0.49-0.57l0.41-0.5l0.44-0.55l0.38-0.47c-0.6,2.47-0.93,5-0.94,7.58c-0.14,29.84,40.93,54.23,91.73,54.47
	c50.8,0.24,92.1-23.76,92.24-53.6c0.01-2.58-0.29-5.11-0.87-7.59l0.37,0.48l0.44,0.55l0.41,0.5l0.48,0.58l0.42,0.48l0.02,0.02
	c0.25,0.29,0.5,0.57,0.76,0.86l0.02,0.03l0.42,0.46l0.54,0.57l0.41,0.42c0.25,0.25,0.5,0.51,0.76,0.76l0.23,0.23
	c0.32,0.31,0.64,0.62,0.97,0.92l0.46,0.42l0.66,0.59l0.44,0.39l0.71,0.61l0.65,0.54l0.83,0.67l0.44,0.34l0.81,0.63l0.42,0.32
	c0.33,0.25,0.67,0.5,1.02,0.75l0.59,0.41l0.8,0.56l0.56,0.38l0.79,0.53l0.54,0.35c0.41,0.27,0.84,0.54,1.26,0.8l0.34,0.21l0.99,0.6
	l0.5,0.3l1.07,0.62l0.38,0.22c0.45,0.25,0.9,0.5,1.35,0.75l0.53,0.28l0.95,0.5l0.58,0.3l1.14,0.57l0.28,0.14l0.09,0.05
	c0.47,0.23,0.95,0.46,1.43,0.69l0.56,0.26l1.02,0.47l0.59,0.27c0.51,0.22,1.03,0.45,1.54,0.67h0.01c0.53,0.22,1.06,0.44,1.59,0.65
	l0.63,0.25l0.97,0.38l0.73,0.28c0.5,0.19,1.01,0.38,1.51,0.56l0.12,0.05l0.21,0.07l1.46,0.52l0.56,0.19l1.19,0.4l0.58,0.19
	c0.58,0.19,1.16,0.37,1.74,0.55l0.31,0.09c0.48,0.15,0.97,0.29,1.46,0.43l0.58,0.17c0.45,0.13,0.9,0.26,1.36,0.38l0.51,0.14
	c0.61,0.16,1.22,0.32,1.83,0.48l0.29,0.08l1.56,0.38l0.56,0.13c0.56,0.13,1.11,0.26,1.68,0.38l0.17,0.04l0.06,0.01
	c0.63,0.14,1.26,0.27,1.89,0.4l0.55,0.11l1.28,0.25l0.81,0.15l1.46,0.26l0.83,0.14l1.48,0.24l0.63,0.1l1.44,0.21l0.6,0.09
	c0.64,0.09,1.28,0.17,1.92,0.26l0.58,0.07l1.5,0.17l0.57,0.06l1.7,0.17l0.43,0.04c0.67,0.06,1.34,0.12,2.01,0.18l0.52,0.04
	c0.55,0.04,1.1,0.08,1.66,0.12l0.53,0.03l1.58,0.09l0.7,0.04c0.65,0.03,1.31,0.06,1.97,0.08l0.54,0.02l1.54,0.04l0.77,0.02
	c0.68,0.01,1.37,0.02,2.06,0.02c50.8,0.24,92.1-23.76,92.24-53.6c0-0.44,0-0.89-0.02-1.33l-0.01-0.12
	c-0.02-0.42-0.04-0.83-0.07-1.24l-0.01-0.16l-0.01-0.1c-0.03-0.29-0.06-0.59-0.09-0.88l-0.01-0.1l0,0l-0.06-0.48l-0.01-0.1
	l-0.07-0.48l-0.01-0.1l-0.02-0.1l-0.13-0.77l-0.02-0.1l-0.02-0.1l-0.02-0.1l0.25,0.05c0.55,0.11,1.11,0.22,1.67,0.33L664.05,462.69z
	"/>
<path class="st4" d="M461.43,163.36c-16.55-9.62-39.23-15.61-64.27-15.73c-25.05-0.12-47.78,5.66-64.42,15.12
	c-14.51,85.69-24.85,199.34-28.71,326.81l0.05-0.07l0.38-0.47c-0.19,0.78-0.35,1.56-0.49,2.35c-0.09,2.97-0.17,5.95-0.25,8.94
	c3.11,28.13,42.85,50.53,91.53,50.76c48.68,0.23,88.62-21.8,92-49.9c-0.05-2.98-0.11-5.97-0.17-8.94c-0.13-0.79-0.28-1.58-0.46-2.36
	l0.37,0.48l0.06,0.07C484.39,362.92,475.13,249.19,461.43,163.36z"/>
<line class="st5" x1="140.61" y1="258.73" x2="356.55" y2="967.01"/>
<line class="st5" x1="305.79" y1="208.81" x2="368.08" y2="936.95"/>
<line class="st5" x1="648.45" y1="262.35" x2="464.86" y2="919.61"/>
<line class="st5" x1="487.95" y1="209.68" x2="433.61" y2="936.95"/>
<g>
	<g>
		<g>
			<g>
				<g>
					<defs>
						<path id="SVGID_3_" d="M491.95,948.81c1,17.5,19,28,35.2,21.4c40.5-16.6,52.5-52,52.5-52c3.8-8.5-1.2-11.7-1.2-11.7
							c-2.4-8.1-8.3-3.5-8.3-3.5c-3.5,0.2-5.7,5.9-5.7,5.9c-6.1,2.8-31,8.1-49.8,11.8C500.15,923.51,491.05,934.11,491.95,948.81
							L491.95,948.81z"/>
					</defs>
					<clipPath id="SVGID_4_">
						<use xlink:href="#SVGID_3_"  style="overflow:visible;"/>
					</clipPath>
					<g class="st6">
						<g>
							<path class="st7" d="M491.95,948.81c1,17.5,19,28,35.2,21.4c40.5-16.6,52.5-52,52.5-52c3.8-8.5-1.2-11.7-1.2-11.7
								c-2.4-8.1-8.3-3.5-8.3-3.5c-3.5,0.2-5.7,5.9-5.7,5.9c-6.1,2.8-31,8.1-49.8,11.8C500.15,923.51,491.05,934.11,491.95,948.81
								L491.95,948.81z"/>
							<path class="st8" d="M517.15,972.71c-4.9,0-9.8-1.4-14-4c-6.9-4.4-11.2-11.6-11.6-19.8l0,0c-0.9-14.7,8-25.7,23.1-28.6
								c12.6-2.5,42.3-8.5,49.5-11.7c0.4-1,2.6-5.7,5.9-6c0.6-0.4,2.8-1.8,5.1-1.1c1.7,0.5,3,2.2,3.8,4.8c0.9,0.7,4.8,4.3,1.2,12.2
								c-0.1,0.3-12.5,35.8-52.8,52.3C524.05,972.01,520.55,972.71,517.15,972.71z M573.75,902.21c-1.7,0-3.3,1.2-3.3,1.2l-0.1,0.1
								h-0.2c-3.1,0.2-5.2,5.5-5.3,5.6l-0.1,0.2l-0.2,0.1c-6.9,3.2-37.2,9.3-49.9,11.8c-14.6,2.8-23.2,13.4-22.3,27.6l0,0
								c0.5,7.9,4.5,14.8,11.2,19c6.9,4.4,15.6,5.1,23.3,1.9c39.8-16.3,52.1-51.3,52.2-51.7c3.6-8-0.8-11-1-11.1l-0.2-0.1l-0.1-0.2
								c-0.7-2.4-1.8-3.8-3.2-4.3C574.45,902.21,574.05,902.21,573.75,902.21z"/>
						</g>
						
							<ellipse transform="matrix(0.1602 -0.9871 0.9871 0.1602 -506.6682 1301.7029)" class="st9" cx="511.65" cy="948.61" rx="15.5" ry="15.5"/>
						<path class="st10" d="M511.65,935.61c7.2,0,13,5.8,13,13s-5.8,13-13,13s-13-5.8-13-13S504.55,935.61,511.65,935.61
							 M511.65,930.61c-9.9,0-18,8.1-18,18s8.1,18,18,18s18-8.1,18-18C529.65,938.71,521.65,930.61,511.65,930.61L511.65,930.61z"/>
						
							<ellipse transform="matrix(0.1602 -0.9871 0.9871 0.1602 -506.6682 1301.703)" class="st11" cx="511.65" cy="948.61" rx="7" ry="7"/>
						<g>
							
								<ellipse transform="matrix(0.1602 -0.9871 0.9871 0.1602 -506.6682 1301.7031)" class="st12" cx="511.65" cy="948.61" rx="4" ry="4"/>
							<line class="st13" x1="509.35" y1="946.31" x2="514.05" y2="951.01"/>
							<line class="st13" x1="513.75" y1="946.51" x2="509.55" y2="950.71"/>
						</g>
					</g>
				</g>
			</g>
		</g>
	</g>
	<g>
		<g>
			<g>
				<g>
					<defs>
						<path id="SVGID_5_" d="M491.95,948.81c1,17.5,19,28,35.2,21.4c40.5-16.6,52.5-52,52.5-52c3.8-8.5-1.2-11.7-1.2-11.7
							c-2.4-8.1-8.3-3.5-8.3-3.5c-3.5,0.2-5.7,5.9-5.7,5.9c-6.1,2.8-31,8.1-49.8,11.8C500.15,923.51,491.05,934.11,491.95,948.81
							L491.95,948.81z"/>
					</defs>
					<clipPath id="SVGID_6_">
						<use xlink:href="#SVGID_5_"  style="overflow:visible;"/>
					</clipPath>
					<g class="st14">
						<circle class="st12" cx="564.65" cy="912.61" r="2"/>
						<line class="st15" x1="565.85" y1="911.51" x2="563.55" y2="913.81"/>
						<line class="st15" x1="563.65" y1="911.61" x2="565.75" y2="913.71"/>
					</g>
				</g>
			</g>
		</g>
	</g>
	<g>
		<g>
			<g>
				<g>
					<defs>
						<path id="SVGID_7_" d="M491.95,948.81c1,17.5,19,28,35.2,21.4c40.5-16.6,52.5-52,52.5-52c3.8-8.5-1.2-11.7-1.2-11.7
							c-2.4-8.1-8.3-3.5-8.3-3.5c-3.5,0.2-5.7,5.9-5.7,5.9c-6.1,2.8-31,8.1-49.8,11.8C500.15,923.51,491.05,934.11,491.95,948.81
							L491.95,948.81z"/>
					</defs>
					<clipPath id="SVGID_8_">
						<use xlink:href="#SVGID_7_"  style="overflow:visible;"/>
					</clipPath>
					<g class="st16">
						<circle class="st12" cx="559.65" cy="914.61" r="2"/>
						<line class="st15" x1="560.85" y1="913.51" x2="558.55" y2="915.81"/>
						<line class="st15" x1="558.65" y1="913.61" x2="560.75" y2="915.71"/>
					</g>
				</g>
			</g>
		</g>
	</g>
	<g>
		<g>
			<g>
				<g>
					<defs>
						<path id="SVGID_9_" d="M491.95,948.81c1,17.5,19,28,35.2,21.4c40.5-16.6,52.5-52,52.5-52c3.8-8.5-1.2-11.7-1.2-11.7
							c-2.4-8.1-8.3-3.5-8.3-3.5c-3.5,0.2-5.7,5.9-5.7,5.9c-6.1,2.8-31,8.1-49.8,11.8C500.15,923.51,491.05,934.11,491.95,948.81
							L491.95,948.81z"/>
					</defs>
					<clipPath id="SVGID_10_">
						<use xlink:href="#SVGID_9_"  style="overflow:visible;"/>
					</clipPath>
					<g class="st17">
						<g>
							<path class="st18" d="M515.65,921.71c4.3,1.2,8.3,3,11.3,6.4c2.8,3.2,4.6,7.1,6.4,10.8c0.3,0.6,1.1,0.8,1.7,0.7
								c4.4-1.1,9.1-0.8,13.5-2.1c4.1-1.2,8.1-2.8,12-4.4c7.9-3.2,15.6-6.9,22.4-11.9c1.5-1.1,0-3.7-1.5-2.6
								c-6.8,5-14.3,8.7-22.1,11.8c-3.9,1.6-7.9,3.2-12,4.3c-4.3,1.1-8.7,0.9-13,2c0.6,0.2,1.1,0.5,1.7,0.7c-2-4.1-4-8.3-7.1-11.7
								c-3.3-3.6-7.7-5.6-12.3-6.9C514.65,918.31,513.85,921.21,515.65,921.71L515.65,921.71z"/>
						</g>
					</g>
				</g>
			</g>
		</g>
	</g>
	<g>
		<g>
			<g>
				<g>
					<defs>
						<path id="SVGID_11_" d="M491.95,948.81c1,17.5,19,28,35.2,21.4c40.5-16.6,52.5-52,52.5-52c3.8-8.5-1.2-11.7-1.2-11.7
							c-2.4-8.1-8.3-3.5-8.3-3.5c-3.5,0.2-5.7,5.9-5.7,5.9c-6.1,2.8-31,8.1-49.8,11.8C500.15,923.51,491.05,934.11,491.95,948.81
							L491.95,948.81z"/>
					</defs>
					<clipPath id="SVGID_12_">
						<use xlink:href="#SVGID_11_"  style="overflow:visible;"/>
					</clipPath>
					<g class="st19">
						<g>
							<path class="st18" d="M567.95,948.01c-2.1-2.3-5.1-3.3-8.1-3.5c-3.1-0.2-6.7,0.4-9.7,1.5c-2.8,1.1-4.8,3.3-5.7,6.2
								c-1,3.2-0.4,6.7,0.1,9.9c0.3,1.9,3.2,1.1,2.9-0.8c-0.8-4.6-1.4-11,4.1-12.7c4.4-1.4,10.7-2.3,14.2,1.5
								C567.15,951.61,569.25,949.51,567.95,948.01L567.95,948.01z"/>
						</g>
					</g>
				</g>
			</g>
		</g>
	</g>
</g>
<g>
	<g>
		<g>
			<g>
				<g>
					<defs>
						<path id="SVGID_13_" d="M323.35,948.81c-1,17.5-19,28-35.2,21.4c-40.5-16.6-52.5-52-52.5-52c-3.8-8.5,1.2-11.7,1.2-11.7
							c2.4-8.1,8.3-3.5,8.3-3.5c3.5,0.2,5.7,5.9,5.7,5.9c6.1,2.8,31,8.1,49.8,11.8C315.15,923.51,324.25,934.11,323.35,948.81
							L323.35,948.81z"/>
					</defs>
					<clipPath id="SVGID_14_">
						<use xlink:href="#SVGID_13_"  style="overflow:visible;"/>
					</clipPath>
					<g class="st20">
						<g>
							<path class="st7" d="M323.35,948.81c-1,17.5-19,28-35.2,21.4c-40.5-16.6-52.5-52-52.5-52c-3.8-8.5,1.2-11.7,1.2-11.7
								c2.4-8.1,8.3-3.5,8.3-3.5c3.5,0.2,5.7,5.9,5.7,5.9c6.1,2.8,31,8.1,49.8,11.8C315.15,923.51,324.25,934.11,323.35,948.81
								L323.35,948.81z"/>
							<path class="st8" d="M298.15,972.71c-3.5,0-6.9-0.7-10.2-2c-40.2-16.5-52.7-51.9-52.8-52.3c-3.5-7.9,0.4-11.5,1.2-12.2
								c0.8-2.6,2.1-4.2,3.8-4.8c2.3-0.7,4.6,0.7,5.1,1.1c3.3,0.3,5.5,5,5.9,6c7.2,3.2,37,9.2,49.5,11.7c15.2,2.9,24,13.9,23.1,28.6
								c-0.5,8.2-4.7,15.4-11.6,19.8C308.05,971.31,303.15,972.71,298.15,972.71z M241.55,902.21c-0.3,0-0.7,0-1,0.2
								c-1.4,0.5-2.5,1.9-3.2,4.3l-0.1,0.2l-0.2,0.1c-0.2,0.1-4.6,3.1-1,11.1c0.1,0.4,12.4,35.4,52.2,51.7
								c7.7,3.1,16.5,2.4,23.3-1.9c6.6-4.2,10.7-11.1,11.2-19l0,0c0.9-14.2-7.7-24.8-22.3-27.6c-12.7-2.5-43-8.7-49.9-11.8l-0.2-0.1
								l-0.1-0.2c0-0.1-2.1-5.4-5.3-5.6h-0.2l-0.1-0.1C244.85,903.41,243.25,902.21,241.55,902.21z"/>
						</g>
						<circle class="st9" cx="303.65" cy="948.61" r="15.5"/>
						<path class="st10" d="M303.65,935.61c7.2,0,13,5.8,13,13s-5.8,13-13,13s-13-5.8-13-13S296.55,935.61,303.65,935.61
							 M303.65,930.61c-9.9,0-18,8.1-18,18s8.1,18,18,18s18-8.1,18-18C321.65,938.71,313.65,930.61,303.65,930.61L303.65,930.61z"/>
						<circle class="st11" cx="303.65" cy="948.61" r="7"/>
						<g>
							<circle class="st12" cx="303.65" cy="948.61" r="4"/>
							<line class="st13" x1="306.05" y1="946.31" x2="301.35" y2="951.01"/>
							<line class="st13" x1="301.55" y1="946.51" x2="305.75" y2="950.71"/>
						</g>
					</g>
				</g>
			</g>
		</g>
	</g>
	<g>
		<g>
			<g>
				<g>
					<defs>
						<path id="SVGID_15_" d="M323.35,948.81c-1,17.5-19,28-35.2,21.4c-40.5-16.6-52.5-52-52.5-52c-3.8-8.5,1.2-11.7,1.2-11.7
							c2.4-8.1,8.3-3.5,8.3-3.5c3.5,0.2,5.7,5.9,5.7,5.9c6.1,2.8,31,8.1,49.8,11.8C315.15,923.51,324.25,934.11,323.35,948.81
							L323.35,948.81z"/>
					</defs>
					<clipPath id="SVGID_16_">
						<use xlink:href="#SVGID_15_"  style="overflow:visible;"/>
					</clipPath>
					<g class="st21">
						<circle class="st12" cx="250.65" cy="912.61" r="2"/>
						<line class="st15" x1="249.55" y1="911.51" x2="251.85" y2="913.81"/>
						<line class="st15" x1="251.75" y1="911.61" x2="249.65" y2="913.71"/>
					</g>
				</g>
			</g>
		</g>
	</g>
	<g>
		<g>
			<g>
				<g>
					<defs>
						<path id="SVGID_17_" d="M323.35,948.81c-1,17.5-19,28-35.2,21.4c-40.5-16.6-52.5-52-52.5-52c-3.8-8.5,1.2-11.7,1.2-11.7
							c2.4-8.1,8.3-3.5,8.3-3.5c3.5,0.2,5.7,5.9,5.7,5.9c6.1,2.8,31,8.1,49.8,11.8C315.15,923.51,324.25,934.11,323.35,948.81
							L323.35,948.81z"/>
					</defs>
					<clipPath id="SVGID_18_">
						<use xlink:href="#SVGID_17_"  style="overflow:visible;"/>
					</clipPath>
					<g class="st22">
						<circle class="st12" cx="255.65" cy="914.61" r="2"/>
						<line class="st15" x1="254.55" y1="913.51" x2="256.85" y2="915.81"/>
						<line class="st15" x1="256.75" y1="913.61" x2="254.65" y2="915.71"/>
					</g>
				</g>
			</g>
		</g>
	</g>
	<g>
		<g>
			<g>
				<g>
					<defs>
						<path id="SVGID_19_" d="M323.35,948.81c-1,17.5-19,28-35.2,21.4c-40.5-16.6-52.5-52-52.5-52c-3.8-8.5,1.2-11.7,1.2-11.7
							c2.4-8.1,8.3-3.5,8.3-3.5c3.5,0.2,5.7,5.9,5.7,5.9c6.1,2.8,31,8.1,49.8,11.8C315.15,923.51,324.25,934.11,323.35,948.81
							L323.35,948.81z"/>
					</defs>
					<clipPath id="SVGID_20_">
						<use xlink:href="#SVGID_19_"  style="overflow:visible;"/>
					</clipPath>
					<g class="st23">
						<g>
							<path class="st18" d="M298.85,918.81c-4.7,1.3-9,3.2-12.3,6.9c-3.1,3.4-5.2,7.6-7.1,11.7c0.6-0.2,1.1-0.5,1.7-0.7
								c-4.3-1.1-8.8-0.8-13-2c-4.1-1.1-8.1-2.8-12-4.3c-7.8-3.1-15.4-6.8-22.1-11.8c-1.6-1.1-3.1,1.5-1.5,2.6
								c6.9,5.1,14.5,8.8,22.4,11.9c3.9,1.6,7.9,3.2,12,4.4c4.4,1.3,9,1,13.5,2.1c0.6,0.1,1.4-0.1,1.7-0.7c1.8-3.8,3.6-7.7,6.4-10.8
								c3-3.4,6.9-5.2,11.3-6.4C301.55,921.21,300.75,918.31,298.85,918.81L298.85,918.81z"/>
						</g>
					</g>
				</g>
			</g>
		</g>
	</g>
	<g>
		<g>
			<g>
				<g>
					<defs>
						<path id="SVGID_23_" d="M323.35,948.81c-1,17.5-19,28-35.2,21.4c-40.5-16.6-52.5-52-52.5-52c-3.8-8.5,1.2-11.7,1.2-11.7
							c2.4-8.1,8.3-3.5,8.3-3.5c3.5,0.2,5.7,5.9,5.7,5.9c6.1,2.8,31,8.1,49.8,11.8C315.15,923.51,324.25,934.11,323.35,948.81
							L323.35,948.81z"/>
					</defs>
					<clipPath id="SVGID_24_">
						<use xlink:href="#SVGID_23_"  style="overflow:visible;"/>
					</clipPath>
					<g class="st24">
						<g>
							<path class="st18" d="M249.45,950.21c3.5-3.8,9.8-2.9,14.2-1.5c5.5,1.8,4.9,8.2,4.1,12.7c-0.1,0.8,0.2,1.6,1,1.8
								c0.7,0.2,1.7-0.2,1.8-1c0.5-3.3,1.1-6.7,0.1-9.9c-0.9-2.9-2.8-5.1-5.7-6.2c-1.4-0.6-3-0.8-4.5-1.1c-1.7-0.3-3.4-0.5-5.1-0.4
								c-3,0.2-6,1.2-8.1,3.5C246.05,949.51,248.15,951.61,249.45,950.21L249.45,950.21z"/>
						</g>
					</g>
				</g>
			</g>
		</g>
	</g>
</g>
<g>
	<path class="st9" d="M309.65,981.61c-4,6-3,12-3,12s50,57,54,58s9-1,10-5s-18-38-18-38L309.65,981.61z"/>
	<pattern  id="SVGID_25_" xlink:href="#SVGID_21_" patternTransform="matrix(1 0 0 1 488.7817 32187.377)">
	</pattern>
	<path class="st25" d="M309.65,981.61c-4,6-3,12-3,12s50,57,54,58s9-1,10-5s-18-38-18-38L309.65,981.61z"/>
</g>
<g>
	<path class="st9" d="M510.85,982.61c3.7,5.7,2.8,11.4,2.8,11.4s-46,54.4-49.7,55.3s-8.3-1-9.2-4.8c-0.9-3.8,16.6-36.2,16.6-36.2
		L510.85,982.61z"/>
	<pattern  id="SVGID_26_" xlink:href="#SVGID_22_" patternTransform="matrix(1 0 0 1 638.9592 32185.377)">
	</pattern>
	<path class="st26" d="M510.85,982.61c3.7,5.7,2.8,11.4,2.8,11.4s-46,54.4-49.7,55.3s-8.3-1-9.2-4.8c-0.9-3.8,16.6-36.2,16.6-36.2
		L510.85,982.61z"/>
</g>
<g>
	<path class="st7" d="M512.35,944.61c0,13.5,0.8,32,0.5,41.7c-0.1,2.3-1.6,4.4-3.8,5.1c-21.4,7.2-41.4,34.4-51.8,57.5
		c-0.9,1.9-2.8,3.1-4.9,3.1c-13.9-0.2-65.2-0.6-79.1,0.6c-2.1,0.2-4-1-4.9-2.9c-11.3-24.5-34.2-54-58.2-59.3c-3-0.7-5.2-3.2-5.4-6.2
		c-1-12,0.7-29.9,0.9-39.6L512.35,944.61L512.35,944.61z"/>
	<path class="st8" d="M372.75,1053.11c-2.1,0-4-1.2-4.9-3.2c-11.4-24.8-34.4-53.9-57.9-59c-3.3-0.8-5.6-3.4-5.8-6.7
		c-0.7-8.3-0.1-19.7,0.4-28.8c0.2-4,0.4-7.9,0.5-10.8v-0.5h207.7v0.5c0,5.8,0.1,12.6,0.3,19.2c0.2,8.7,0.4,17,0.2,22.5
		c-0.1,2.6-1.8,4.8-4.1,5.6c-20.9,7-41,33.8-51.5,57.2c-1,2.1-3,3.4-5.4,3.4c-12.3-0.2-64.9-0.6-79.1,0.6
		C373.15,1053.11,372.95,1053.11,372.75,1053.11z M306.15,945.11c-0.1,2.9-0.3,6.5-0.5,10.4c-0.5,9.1-1.1,20.4-0.4,28.7
		c0.2,2.8,2.2,5.1,5,5.8c23.8,5.2,47,34.6,58.5,59.6c0.8,1.8,2.6,2.8,4.4,2.6c14.2-1.2,66.9-0.8,79.2-0.6c1.9,0,3.6-1.1,4.4-2.8
		c10.6-23.6,30.9-50.6,52.1-57.8c2-0.6,3.4-2.5,3.5-4.6c0.2-5.5,0-13.7-0.2-22.5c-0.1-6.4-0.3-13-0.3-18.7h-205.7L306.15,945.11
		L306.15,945.11z"/>
</g>
<g>
	<g>
		<g>
			<g>
				<g>
					<defs>
						<path id="SVGID_27_" d="M512.35,944.61c0,13.5,0.8,32,0.5,41.7c-0.1,2.3-1.6,4.4-3.8,5.1c-21.4,7.2-41.4,34.4-51.8,57.5
							c-0.9,1.9-2.8,3.1-4.9,3.1c-13.9-0.2-65.2-0.6-79.1,0.6c-2.1,0.2-4-1-4.9-2.9c-11.3-24.5-34.2-54-58.2-59.3
							c-3-0.7-5.2-3.2-5.4-6.2c-1-12,0.7-29.9,0.9-39.6L512.35,944.61L512.35,944.61z"/>
					</defs>
					<clipPath id="SVGID_28_">
						<use xlink:href="#SVGID_27_"  style="overflow:visible;"/>
					</clipPath>
					<path class="st27" d="M521.05,958.01c-4.7,9.4-27.3,33.6-112.3,33.6s-103-24-110.9-32l3.9-23.7l214-2.3L521.05,958.01z"/>
				</g>
			</g>
		</g>
	</g>
	<g>
		<g>
			<g>
				<g>
					<defs>
						<path id="SVGID_29_" d="M512.35,944.61c0,13.5,0.8,32,0.5,41.7c-0.1,2.3-1.6,4.4-3.8,5.1c-21.4,7.2-41.4,34.4-51.8,57.5
							c-0.9,1.9-2.8,3.1-4.9,3.1c-13.9-0.2-65.2-0.6-79.1,0.6c-2.1,0.2-4-1-4.9-2.9c-11.3-24.5-34.2-54-58.2-59.3
							c-3-0.7-5.2-3.2-5.4-6.2c-1-12,0.7-29.9,0.9-39.6L512.35,944.61L512.35,944.61z"/>
					</defs>
					<clipPath id="SVGID_30_">
						<use xlink:href="#SVGID_29_"  style="overflow:visible;"/>
					</clipPath>
					<g class="st28">
						<g>
							<g>
								<g>
									<g>
										<defs>
											<path id="SVGID_31_" d="M521.05,958.01c-4.7,9.4-27.3,33.6-112.3,33.6s-103-24-110.9-32l3.9-23.7l214-2.3L521.05,958.01z
												"/>
										</defs>
										<clipPath id="SVGID_32_">
											<use xlink:href="#SVGID_31_"  style="overflow:visible;"/>
										</clipPath>
										<g class="st29">
											<path class="st30" d="M314.15,941.61c-1.7,2.8-1.9,6.3-2.1,9.5c-0.7,13.8,0.3,27.7,2.8,41.3"/>
											<g>
												<g>
													<path class="st31" d="M321.95,941.11c-1.9,3.6-2.1,7.7-2.2,11.7c-0.1,4.4-0.1,8.8,0,13.2c0.3,9,1.3,17.9,2.8,26.7
														c0.3,1.9,3.2,1.1,2.9-0.8c-1.5-8.4-2.3-16.9-2.7-25.4c-0.2-4.2-0.2-8.5-0.1-12.8c0.1-3.7,0-7.8,1.8-11.2
														C325.35,940.91,322.85,939.41,321.95,941.11L321.95,941.11z"/>
												</g>
												<path class="st32" d="M323.25,941.91c-1.6,2.8-1.8,6.2-1.9,9.5c-0.6,13.7,0.3,27.5,2.7,41"/>
											</g>
											<g>
												<g>
													<path class="st31" d="M330.95,941.41c-1.8,3.6-1.9,7.7-2,11.7c-0.1,4.5-0.1,8.9,0.1,13.4c0.3,8.8,1.2,17.6,2.6,26.3
														c0.3,1.9,3.2,1.1,2.9-0.8c-1.3-8.3-2.2-16.6-2.5-25c-0.2-4.1-0.2-8.3-0.1-12.4c0.1-3.8-0.1-8.1,1.7-11.6
														C334.35,941.21,331.75,939.71,330.95,941.41L330.95,941.41z"/>
												</g>
												<path class="st33" d="M332.25,942.21c-1.5,2.8-1.7,6.2-1.8,9.4c-0.5,13.6,0.4,27.3,2.6,40.8"/>
											</g>
											<g>
												<g>
													<path class="st31" d="M339.95,941.71c-1.7,3.7-1.8,7.6-1.9,11.6c-0.1,4.4-0.1,8.8,0.1,13.2c0.3,8.8,1.1,17.5,2.4,26.2
														c0.3,1.9,3.2,1.1,2.9-0.8c-1.2-8.3-2-16.6-2.3-24.9c-0.2-4.1-0.2-8.2-0.1-12.2c0.1-3.8-0.1-8,1.5-11.6
														C343.25,941.51,340.75,940.01,339.95,941.71L339.95,941.71z"/>
												</g>
												<path class="st34" d="M341.25,942.51c-1.4,2.8-1.5,6.2-1.6,9.4c-0.4,13.5,0.4,27.2,2.4,40.5"/>
											</g>
											<g>
												<g>
													<path class="st31" d="M348.95,942.01c-1.6,3.7-1.7,7.6-1.7,11.6c-0.1,4.4,0,8.7,0.1,13.1c0.3,8.7,1.1,17.4,2.2,26.1
														c0.1,0.8,1.1,1.2,1.8,1c0.9-0.2,1.2-1,1-1.8c-1.1-8.2-1.8-16.5-2.1-24.8c-0.2-4.1-0.2-8.2-0.2-12.3
														c0-3.7-0.2-7.8,1.3-11.3c0.3-0.8,0.2-1.6-0.5-2.1C350.35,941.11,349.25,941.31,348.95,942.01L348.95,942.01z"/>
												</g>
												<path class="st35" d="M350.25,942.81c-1.3,2.8-1.4,6.1-1.5,9.3c-0.3,13.4,0.5,27,2.3,40.2"/>
											</g>
											<g>
												<g>
													<path class="st31" d="M357.75,942.71c-1.4,3.7-1.4,7.7-1.4,11.6c0,4.2,0,8.5,0.2,12.7c0.3,8.5,1,16.9,2,25.3
														c0.2,1.9,3.2,1.9,3,0c-1-8.2-1.7-16.5-2-24.8c-0.2-4.1-0.2-8.2-0.2-12.2s-0.1-8.1,1.3-11.8
														C361.35,941.71,358.45,940.91,357.75,942.71L357.75,942.71z"/>
												</g>
												<path class="st36" d="M359.25,943.11c-1.2,2.8-1.3,6.1-1.3,9.3c-0.2,13.4,0.5,26.8,2.2,40"/>
											</g>
											<g>
												<g>
													<path class="st31" d="M366.75,943.01c-1.3,3.7-1.2,7.7-1.2,11.6c0,4.2,0.1,8.4,0.2,12.5c0.3,8.4,0.9,16.8,1.8,25.2
														c0.2,1.9,3.2,1.9,3,0c-0.9-8.2-1.5-16.5-1.8-24.7c-0.1-4.1-0.2-8.2-0.2-12.3c0-3.9-0.2-7.8,1.1-11.5
														C370.25,941.91,367.35,941.21,366.75,943.01L366.75,943.01z"/>
												</g>
												<path class="st37" d="M368.25,943.41c-1.1,2.8-1.2,6.1-1.2,9.2c-0.1,13.3,0.6,26.6,2,39.7"/>
											</g>
											<g>
												<g>
													<path class="st31" d="M375.75,943.31c-1.2,3.6-1.1,7.5-1.1,11.3c0,4.2,0.1,8.4,0.2,12.6c0.3,8.4,0.8,16.8,1.6,25.1
														c0.2,1.9,3.2,1.9,3,0c-0.8-8.2-1.3-16.4-1.6-24.6c-0.1-4.1-0.2-8.2-0.3-12.4c0-3.8-0.2-7.6,1-11.2
														C379.25,942.21,376.35,941.41,375.75,943.31L375.75,943.31z"/>
												</g>
												<path class="st38" d="M377.25,943.71c-1,2.8-1,6-1,9.2c0,13.2,0.6,26.4,1.9,39.5"/>
											</g>
											<g>
												<g>
													<path class="st31" d="M384.75,943.61c-1.1,3.7-0.9,7.6-0.9,11.5c0,4.2,0.1,8.4,0.3,12.5c0.3,8.2,0.8,16.5,1.4,24.7
														c0.2,1.9,3.2,1.9,3,0c-0.7-8.1-1.1-16.1-1.4-24.2c-0.1-4-0.2-8-0.3-12c0-3.9-0.3-7.9,0.8-11.7
														C388.15,942.51,385.25,941.71,384.75,943.61L384.75,943.61z"/>
												</g>
												<path class="st39" d="M386.25,944.01c-0.9,2.8-0.9,6-0.9,9.1c0.1,13.1,0.7,26.3,1.7,39.2"/>
											</g>
											<g>
												<g>
													<path class="st31" d="M393.75,943.91c-0.9,3.7-0.8,7.6-0.7,11.4c0.1,4.1,0.2,8.2,0.3,12.4c0.3,8.2,0.7,16.4,1.3,24.6
														c0.1,1.9,3.1,1.9,3,0c-0.6-8-1-16.1-1.3-24.1c-0.1-4-0.2-7.9-0.3-11.9c-0.1-3.9-0.3-7.9,0.6-11.6
														C397.15,942.81,394.25,942.01,393.75,943.91L393.75,943.91z"/>
												</g>
												<path class="st40" d="M395.25,944.31c-0.8,2.8-0.8,6-0.7,9.1c0.2,13,0.7,26.1,1.6,38.9"/>
											</g>
											<g>
												<g>
													<path class="st31" d="M402.75,944.21c-0.8,3.7-0.7,7.6-0.6,11.4c0.1,4.1,0.2,8.2,0.3,12.3c0.3,8.2,0.6,16.3,1.1,24.4
														c0.1,1.9,3.1,1.9,3,0c-0.4-8-0.8-16-1.1-24c-0.1-3.9-0.2-7.9-0.3-11.8c-0.1-3.8-0.4-7.8,0.4-11.6
														C406.05,943.11,403.15,942.31,402.75,944.21L402.75,944.21z"/>
												</g>
												<path class="st41" d="M404.25,944.61c-0.7,2.8-0.6,6-0.6,9c0.3,12.9,0.8,25.9,1.5,38.7"/>
											</g>
											<g>
												<g>
													<path class="st31" d="M411.75,944.41c-0.7,3.8-0.5,7.7-0.4,11.6c0.1,4,0.2,8.1,0.4,12.1c0.3,8,0.6,16.1,0.9,24.1
														c0.1,1.9,3.1,1.9,3,0c-0.3-7.9-0.6-15.7-0.9-23.6c-0.1-3.9-0.3-7.9-0.4-11.8c-0.1-3.8-0.4-7.7,0.3-11.5
														C414.95,943.41,412.15,942.61,411.75,944.41L411.75,944.41z"/>
												</g>
												<path class="st42" d="M413.25,944.81c-0.6,2.8-0.5,5.9-0.4,9c0.4,12.8,0.8,25.7,1.3,38.4"/>
											</g>
											<g>
												<g>
													<path class="st31" d="M420.75,944.71c-0.6,3.8-0.4,7.5-0.2,11.3c0.1,4.1,0.3,8.1,0.4,12.2c0.3,8,0.5,16,0.7,24
														c0.1,1.9,3.1,1.9,3,0c-0.2-7.8-0.4-15.7-0.7-23.5c-0.1-3.9-0.3-7.8-0.4-11.7c-0.1-3.8-0.5-7.7,0.1-11.5
														C423.95,943.71,421.05,942.81,420.75,944.71L420.75,944.71z"/>
												</g>
												<path class="st43" d="M422.25,945.11c-0.5,2.8-0.4,5.9-0.2,8.9c0.5,12.7,0.9,25.5,1.2,38.1"/>
											</g>
											<g>
												<g>
													<path class="st31" d="M429.75,945.41c-0.4,3.8-0.1,7.6,0,11.3c0.2,3.9,0.3,7.9,0.4,11.8c0.3,7.9,0.4,15.7,0.5,23.6
														c0,1.9,3,1.9,3,0c-0.1-7.9-0.3-15.7-0.5-23.6c-0.1-3.9-0.3-7.9-0.4-11.8c-0.2-3.8-0.4-7.6,0-11.3
														C432.95,943.51,429.95,943.51,429.75,945.41L429.75,945.41z"/>
												</g>
												<path class="st44" d="M431.25,945.41c-0.4,2.8-0.2,5.9-0.1,8.9c0.5,12.6,0.9,25.4,1.1,37.9"/>
											</g>
											<g>
												<g>
													<path class="st31" d="M438.75,945.71c-0.3,3.8,0,7.5,0.2,11.3c0.2,3.9,0.3,7.8,0.5,11.7c0.2,7.8,0.4,15.7,0.4,23.5
														c0,1.9,3,1.9,3,0c0-7.8-0.1-15.7-0.4-23.5c-0.1-3.9-0.3-7.8-0.5-11.7c-0.2-3.8-0.5-7.5-0.2-11.3
														C441.85,943.81,438.85,943.81,438.75,945.71L438.75,945.71z"/>
												</g>
												<path class="st45" d="M440.25,945.71c-0.2,2.8-0.1,5.8,0.1,8.8c0.6,12.5,1,25.2,0.9,37.6"/>
											</g>
											<g>
												<g>
													<path class="st31" d="M447.75,946.01c-0.2,3.8,0.2,7.6,0.4,11.5c0.2,3.9,0.4,7.7,0.5,11.6c0.2,7.7,0.3,15.4,0.2,23.1
														c0,1.9,3,1.9,3,0c0.1-7.7,0.1-15.4-0.2-23.1c-0.1-3.8-0.3-7.6-0.5-11.3c-0.2-3.9-0.6-7.8-0.4-11.7
														C450.75,944.11,447.75,944.11,447.75,946.01L447.75,946.01z"/>
												</g>
												<path class="st46" d="M449.25,946.01c-0.1,2.8,0,5.8,0.2,8.8c0.7,12.4,1,25,0.8,37.4"/>
											</g>
											<g>
												<g>
													<path class="st31" d="M456.75,946.31c0,3.7,0.3,7.5,0.5,11.2c0.2,3.9,0.4,7.8,0.5,11.6c0.2,7.7,0.2,15.3,0,23
														c-0.1,1.9,2.9,1.9,3,0c0.2-7.7,0.2-15.3,0-23c-0.1-3.8-0.3-7.6-0.5-11.4c-0.2-3.8-0.6-7.6-0.5-11.4
														C459.75,944.41,456.75,944.41,456.75,946.31L456.75,946.31z"/>
												</g>
												<path class="st47" d="M458.25,946.31c0,2.8,0.2,5.8,0.4,8.7c0.8,12.3,1.1,24.8,0.7,37.1"/>
											</g>
											<g>
												<g>
													<path class="st31" d="M465.75,946.61c0.2,7.6,1,15.1,1.3,22.7c0.2,7.6,0.2,15.2-0.2,22.8c-0.1,1.9,2.9,1.9,3,0
														c0.3-7.6,0.4-15.2,0.2-22.8c-0.2-7.6-1.1-15.1-1.3-22.7C468.65,944.71,465.65,944.71,465.75,946.61L465.75,946.61z"/>
												</g>
												<path class="st48" d="M467.25,946.61c0.1,2.8,0.3,5.7,0.5,8.7c0.9,12.3,1.1,24.6,0.5,36.8"/>
											</g>
											<g>
												<g>
													<path class="st31" d="M474.75,946.91c0.4,7.5,1.2,14.9,1.5,22.5c0.2,7.6,0.1,15.2-0.4,22.7c-0.1,1.9,2.9,1.9,3,0
														c0.5-7.6,0.6-15.2,0.4-22.7s-1-15-1.5-22.5C477.65,945.01,474.65,945.01,474.75,946.91L474.75,946.91z"/>
												</g>
												<path class="st49" d="M476.25,946.91c0.2,2.8,0.4,5.7,0.7,8.6c1,12.2,1.2,24.5,0.4,36.6"/>
											</g>
											<g>
												<g>
													<path class="st31" d="M483.75,947.21c0.7,7.4,1.4,14.8,1.7,22.3c0.2,7.5,0,15.1-0.6,22.6c-0.1,1.9,2.9,1.9,3,0
														c0.6-7.5,0.8-15,0.6-22.6c-0.2-7.5-1-14.9-1.7-22.3C486.55,945.31,483.55,945.31,483.75,947.21L483.75,947.21z"/>
												</g>
												<path class="st50" d="M485.25,947.21c0.3,2.8,0.6,5.7,0.8,8.6c1.1,12.1,1.2,24.3,0.3,36.3"/>
											</g>
											<g>
												<g>
													<path class="st31" d="M492.75,947.51c1.9,14.8,2.5,29.6,1.1,44.6c-0.2,1.9,2.8,1.9,3,0c1.4-14.9,0.8-29.7-1.1-44.6
														C495.45,945.61,492.45,945.61,492.75,947.51L492.75,947.51z"/>
												</g>
												<path class="st51" d="M494.25,947.51c0.4,2.8,0.7,5.7,1,8.5c1.2,12,1.2,24.1,0.1,36.1"/>
											</g>
											<g>
												<g>
													<path class="st31" d="M501.75,948.21c2.3,14.5,2.7,29.3,1.1,43.8c-0.2,1.9,2.8,1.9,3,0c1.6-14.9,1.2-29.9-1.2-44.6
														C504.35,945.51,501.45,946.31,501.75,948.21L501.75,948.21z"/>
												</g>
											</g>
										</g>
									</g>
								</g>
							</g>
						</g>
					</g>
				</g>
			</g>
		</g>
	</g>
</g>
<g>
	<path class="st7" d="M408.15,1021.91c-6-3.8-30.2-18.9-35.1-21.5c-0.3-0.2-0.9-0.5-1.1-0.7s-0.2-1-0.2-1.5l-0.7-15.3l-1.8-0.4
		c-10.9-2.6-22.1-5.2-32.1-10.4c-10.7-5.6-19.7-13.7-30-24.1c-0.9-0.9-1.4-2.2-1.4-3.5c0.1-4.1,0.3-8.2,0.6-12.2
		c1.2-16.3,14.9-29.1,31.3-29.1c0.3,0,0.7,0,1,0l152.2,4.8c10.9,0.3,19.4,9.1,19.6,20c0.1,5.7,0.1,11.3,0.1,16.6
		c0,1.3-0.5,2.4-1.4,3.3l-0.1,0.2c-10.2,10.5-19.2,18.6-30,24.1c-10,5.2-21.2,7.8-32.1,10.4l-1.8,0.4l-0.7,15.2
		c0,0.5-0.1,1.2-0.2,1.5c-0.1,0.1-0.4,0.3-0.6,0.4c-0.3,0.2-0.5,0.3-0.8,0.5C441.65,1001.51,421.95,1013.51,408.15,1021.91z"/>
	<path class="st31" d="M337.75,905.51c0.3,0,0.6,0,0.9,0l152.2,4.8c9.5,0.3,17,8,17.1,17.5c0.1,5.7,0.1,11.2,0.1,16.5
		c0,0.6-0.2,1.2-0.6,1.6l-0.1,0.1c-10,10.3-18.9,18.2-29.3,23.6c-9.7,5-20.8,7.7-31.5,10.2l-3.7,0.9l-0.2,3.8l-0.3,6.9l-0.3,6.6
		c0,0,0,0,0,0.1c-0.2,0.1-0.4,0.2-0.5,0.4c-1.5,1-20.2,12.5-33.3,20.5c-7.6-4.8-29.2-18.3-33.9-20.8v-0.1l-0.3-6.6l-0.3-6.9
		l-0.2-3.8l-3.7-0.9c-10.7-2.5-21.8-5.2-31.5-10.2c-10.4-5.4-19.3-13.4-29.3-23.7c-0.4-0.4-0.7-1.1-0.6-1.7
		c0.1-4.1,0.3-8.2,0.6-12.1C310.05,917.31,322.65,905.51,337.75,905.51 M337.75,900.51c-17.7,0-32.5,13.7-33.8,31.4
		c-0.3,3.8-0.5,7.9-0.6,12.3c-0.1,2,0.7,3.9,2.1,5.3l0,0c9.2,9.4,18.9,18.5,30.6,24.6c10.2,5.3,21.5,8,32.7,10.6
		c0.2,4.5,0.4,9,0.6,13.4c0,0.9,0.1,1.9,0.6,2.7c0.5,0.7,1.2,1.1,2,1.5c5.4,2.9,36.2,22.3,36.2,22.3s34.5-21,36.2-22.3
		c0.7-0.5,1.5-0.8,2-1.5c0.5-0.8,0.6-1.8,0.6-2.7c0.2-4.5,0.4-9,0.6-13.4c11.2-2.7,22.5-5.4,32.7-10.6c11.7-6,21.4-15.2,30.6-24.6
		l0.1-0.2c1.3-1.4,2.1-3.2,2.1-5.1c0-5.2,0-10.8-0.1-16.6c-0.1-12.2-9.8-22.1-22-22.4l-152.2-4.8
		C338.45,900.61,338.05,900.51,337.75,900.51L337.75,900.51z"/>
</g>
<g>
	<g>
		<path class="st52" d="M399.15,1002.61c1.9,0.9,3.9,1.4,5.9,1.4c1.4,0.1,2.8-0.2,4.1-0.4c2.6-0.5,4.9-1.7,6.8-3.6
			c0.2-0.2,0.2-0.4,0.4-0.7c-0.3,0-0.3,0-0.4,0c-2.7,2.1-5.7,2.8-9.1,2.3c-3-0.5-5.5-1.9-7.5-4.2c-2.4-2.8-3.3-6-2.9-9.6
			c0.3-3.1,1.4-5.9,3.4-8.3c1.7-2.1,3.9-3.5,6.5-4.3c3-1,6.1-1.1,9.2-0.5c2,0.4,3.8,1.3,5.5,2.5c0.1,0.1,0.3,0.1,0.5,0.1
			c0-0.1,0-0.3-0.1-0.4c-2.1-2-4.4-3.6-7.2-4.4c-1.3-0.4-2.7-0.6-4-0.9l-2.1-0.1c-0.1,0-0.1,0.1-0.2,0.1c-3,0.1-5.7,0.9-8.3,2.4
			c-2.8,1.6-5.1,3.8-6.7,6.5c-2,3.4-2.8,7.1-2.2,11c0.2,1.6,0.8,3.2,1.6,4.6c1.1,1.9,2.7,3.9,4.2,4.8
			C398.15,1002.11,398.55,1002.31,399.15,1002.61"/>
	</g>
	<g>
		<path class="st53" d="M427.35,990.31c0.1-4.3-1.6-8-4.8-10.8c-3.5-3.1-7.7-4.2-12.3-3.6c-3.2,0.4-6,1.6-8.3,3.9
			c-0.2,0.1-0.3,0.3-0.4,0.5c0,0.1,0.1,0.1,0.1,0.2c0.2-0.1,0.3-0.1,0.5-0.2c2.6-1.8,5.5-2.5,8.7-2.1c3.9,0.5,6.8,2.5,8.9,5.8
			c2,3.2,2.2,6.6,1.3,10.2c-1.2,4.8-4.1,8.3-8.7,10.1c-2.9,1.2-5.9,1.5-9,1c-2.1-0.4-4.1-1.1-5.8-2.3c-0.2-0.1-0.8-0.7-1-0.6
			c-0.1,0-0.2,0.1-0.4,0.2c0.1,0.1,0.2,0.3,0.3,0.3c2.9,2.7,6.3,4.5,10.3,5s7.8-0.1,11.3-2.1
			C423.95,1002.31,427.25,997.21,427.35,990.31"/>
	</g>
	<g>
		<path class="st54" d="M415.05,989.81c-2,1.9-3.9,3.6-5.9,5.4c-0.1,0.1-0.6,0-0.7-0.1c-1.3-1.4-2.6-2.8-3.9-4.1
			c-0.4-0.5-0.9-0.9-1.4-1.5c0.2-0.2,0.4-0.4,0.6-0.6c1.7-1.6,3.4-3.2,5-4.8c0.3-0.3,0.5-0.3,0.7,0c1.3,1.4,2.6,2.8,4,4.2
			C413.95,988.81,414.45,989.31,415.05,989.81"/>
	</g>
</g>
<g>
	<circle class="st55" cx="501.65" cy="991.61" r="2"/>
	<line class="st56" x1="502.85" y1="990.51" x2="500.55" y2="992.81"/>
	<line class="st56" x1="500.65" y1="990.61" x2="502.75" y2="992.71"/>
</g>
<g>
	<ellipse class="st55" cx="474.68" cy="1013.61" rx="2" ry="2"/>
	<line class="st56" x1="475.85" y1="1012.51" x2="473.55" y2="1014.81"/>
	<line class="st56" x1="473.65" y1="1012.61" x2="475.75" y2="1014.71"/>
</g>
<g>
	<circle class="st55" cx="446.65" cy="1047.61" r="2"/>
	<line class="st56" x1="447.85" y1="1046.51" x2="445.55" y2="1048.81"/>
	<line class="st56" x1="445.65" y1="1046.61" x2="447.75" y2="1048.71"/>
</g>
<g>
	<circle class="st55" cx="318.65" cy="988.61" r="2"/>
	<line class="st56" x1="317.55" y1="987.51" x2="319.85" y2="989.81"/>
	<line class="st56" x1="319.75" y1="987.61" x2="317.65" y2="989.71"/>
</g>
<g>
	<circle class="st55" cx="347.65" cy="1012.61" r="2"/>
	<line class="st56" x1="346.55" y1="1011.51" x2="348.85" y2="1013.81"/>
	<line class="st56" x1="348.75" y1="1011.61" x2="346.65" y2="1013.71"/>
</g>
<g>
	<circle class="st55" cx="378.65" cy="1048.61" r="2"/>
	<line class="st56" x1="377.55" y1="1047.51" x2="379.85" y2="1049.81"/>
	<line class="st56" x1="379.75" y1="1047.61" x2="377.65" y2="1049.71"/>
</g>
<g>
	<g>
		<path class="st7" d="M305.05,993.31c-1.9-0.4-3.6,1.3-3.4,3.2c1.7,14.6,4.5,30.6,9,47.7c0,0,10,33.7,26.5,57.8
			c0,0,5.2,6.2,15.7,1.2c0,0,4.3-2.5-3.6-7.6c0,0,11.5-27.6,15.3-36.6c0.8-1.8,0.8-3.9-0.1-5.7
			C353.15,1028.31,329.55,998.01,305.05,993.31z"/>
		<path class="st8" d="M345.05,1105.61c-1.7,0-3.1-0.3-4.2-0.7c-2.7-1-4.1-2.6-4.1-2.6c-16.4-23.9-26.5-57.6-26.6-58
			c-4.1-15.6-7.1-31.7-9-47.8c-0.1-1.1,0.3-2.2,1.1-3c0.8-0.7,1.8-1,2.9-0.8c11.3,2.2,23.4,10,34.9,22.5
			c9.7,10.6,18.8,24.3,24.8,37.7c0.9,1.9,1,4.1,0.1,6.1c-3.5,8.3-13.7,32.8-15.1,36.2c3.1,2.1,4.7,4,4.6,5.8c0,1.6-1.4,2.4-1.4,2.4
			C349.95,1105.11,347.25,1105.61,345.05,1105.61z M304.45,993.71c-0.6,0-1.1,0.2-1.5,0.6c-0.6,0.5-0.9,1.3-0.8,2.1
			c1.9,16,4.9,32.1,9,47.6c0.1,0.3,10.2,33.9,26.4,57.6c0.2,0.2,5.1,5.8,15.1,1c0,0,0.9-0.5,0.9-1.6c0-1-0.8-2.7-4.5-5.2l-0.4-0.2
			l0.2-0.4c0.1-0.3,11.5-27.7,15.3-36.6c0.8-1.7,0.7-3.6-0.1-5.3c-16.5-36.4-42.1-56.5-59-59.7l0,0
			C304.75,993.81,304.65,993.71,304.45,993.71z"/>
	</g>
	<g>
		<g>
			<g>
				<g>
					<g>
						<defs>
							<path id="SVGID_33_" d="M305.05,993.31c-1.9-0.4-3.6,1.3-3.4,3.2c1.7,14.6,4.5,30.6,9,47.7c0,0,10,33.7,26.5,57.8
								c0,0,5.2,6.2,15.7,1.2c0,0,4.3-2.5-3.6-7.6c0,0,11.5-27.6,15.3-36.6c0.8-1.8,0.8-3.9-0.1-5.7
								C353.15,1028.31,329.55,998.01,305.05,993.31z"/>
						</defs>
						<clipPath id="SVGID_34_">
							<use xlink:href="#SVGID_33_"  style="overflow:visible;"/>
						</clipPath>
						<g class="st57">
							<circle class="st12" cx="308.65" cy="998.61" r="2"/>
							<line class="st15" x1="307.55" y1="997.51" x2="309.85" y2="999.81"/>
							<line class="st15" x1="309.75" y1="997.61" x2="307.65" y2="999.71"/>
						</g>
					</g>
				</g>
			</g>
		</g>
		<g>
			<g>
				<g>
					<g>
						<defs>
							<path id="SVGID_35_" d="M305.05,993.31c-1.9-0.4-3.6,1.3-3.4,3.2c1.7,14.6,4.5,30.6,9,47.7c0,0,10,33.7,26.5,57.8
								c0,0,5.2,6.2,15.7,1.2c0,0,4.3-2.5-3.6-7.6c0,0,11.5-27.6,15.3-36.6c0.8-1.8,0.8-3.9-0.1-5.7
								C353.15,1028.31,329.55,998.01,305.05,993.31z"/>
						</defs>
						<clipPath id="SVGID_36_">
							<use xlink:href="#SVGID_35_"  style="overflow:visible;"/>
						</clipPath>
						<g class="st58">
							<circle class="st12" cx="338.65" cy="1020.61" r="2"/>
							<line class="st15" x1="337.55" y1="1019.51" x2="339.85" y2="1021.81"/>
							<line class="st15" x1="339.75" y1="1019.61" x2="337.65" y2="1021.71"/>
						</g>
					</g>
				</g>
			</g>
		</g>
		<g>
			<g>
				<g>
					<g>
						<defs>
							<path id="SVGID_37_" d="M305.05,993.31c-1.9-0.4-3.6,1.3-3.4,3.2c1.7,14.6,4.5,30.6,9,47.7c0,0,10,33.7,26.5,57.8
								c0,0,5.2,6.2,15.7,1.2c0,0,4.3-2.5-3.6-7.6c0,0,11.5-27.6,15.3-36.6c0.8-1.8,0.8-3.9-0.1-5.7
								C353.15,1028.31,329.55,998.01,305.05,993.31z"/>
						</defs>
						<clipPath id="SVGID_38_">
							<use xlink:href="#SVGID_37_"  style="overflow:visible;"/>
						</clipPath>
						<g class="st59">
							<circle class="st12" cx="360.65" cy="1054.61" r="2"/>
							<line class="st15" x1="359.55" y1="1053.51" x2="361.85" y2="1055.81"/>
							<line class="st15" x1="361.75" y1="1053.61" x2="359.65" y2="1055.71"/>
						</g>
					</g>
				</g>
			</g>
		</g>
		<g>
			<g>
				<g>
					<g>
						<defs>
							<path id="SVGID_39_" d="M305.05,993.31c-1.9-0.4-3.6,1.3-3.4,3.2c1.7,14.6,4.5,30.6,9,47.7c0,0,10,33.7,26.5,57.8
								c0,0,5.2,6.2,15.7,1.2c0,0,4.3-2.5-3.6-7.6c0,0,11.5-27.6,15.3-36.6c0.8-1.8,0.8-3.9-0.1-5.7
								C353.15,1028.31,329.55,998.01,305.05,993.31z"/>
						</defs>
						<clipPath id="SVGID_40_">
							<use xlink:href="#SVGID_39_"  style="overflow:visible;"/>
						</clipPath>
						<g class="st60">
							<g>
								<path class="st18" d="M312.25,992.11c-0.9,14.6,0.9,29.3,5.4,43.2c0.6,1.8,3.5,1,2.9-0.8c-4.4-13.7-6.2-28.1-5.3-42.4
									C315.35,990.21,312.35,990.21,312.25,992.11L312.25,992.11z"/>
							</g>
						</g>
					</g>
				</g>
			</g>
		</g>
		<g>
			<g>
				<g>
					<g>
						<defs>
							<path id="SVGID_41_" d="M305.05,993.31c-1.9-0.4-3.6,1.3-3.4,3.2c1.7,14.6,4.5,30.6,9,47.7c0,0,10,33.7,26.5,57.8
								c0,0,5.2,6.2,15.7,1.2c0,0,4.3-2.5-3.6-7.6c0,0,11.5-27.6,15.3-36.6c0.8-1.8,0.8-3.9-0.1-5.7
								C353.15,1028.31,329.55,998.01,305.05,993.31z"/>
						</defs>
						<clipPath id="SVGID_42_">
							<use xlink:href="#SVGID_41_"  style="overflow:visible;"/>
						</clipPath>
						<g class="st61">
							<g>
								<path class="st18" d="M319.35,1037.01c2.7-0.8,5.7,0.6,7.2,2.9c1.7,2.5,2,5.9,1.2,8.8c-0.9,3.3-4.1,4.6-7.2,5.2
									c-3.3,0.7-6.7,0.3-9.8-1c-0.7-0.3-1.6,0.3-1.8,1c-0.2,0.9,0.3,1.5,1,1.8c3,1.2,6.3,1.7,9.6,1.3c3.1-0.4,6.5-1.4,8.8-3.5
									c2.3-2.2,3-5.7,2.8-8.7s-1.2-6.1-3.4-8.2c-2.4-2.3-5.9-3.5-9.1-2.5C316.75,1034.61,317.45,1037.51,319.35,1037.01
									L319.35,1037.01z"/>
							</g>
						</g>
					</g>
				</g>
			</g>
		</g>
		<g>
			<g>
				<g>
					<g>
						<defs>
							<path id="SVGID_43_" d="M305.05,993.31c-1.9-0.4-3.6,1.3-3.4,3.2c1.7,14.6,4.5,30.6,9,47.7c0,0,10,33.7,26.5,57.8
								c0,0,5.2,6.2,15.7,1.2c0,0,4.3-2.5-3.6-7.6c0,0,11.5-27.6,15.3-36.6c0.8-1.8,0.8-3.9-0.1-5.7
								C353.15,1028.31,329.55,998.01,305.05,993.31z"/>
						</defs>
						<clipPath id="SVGID_44_">
							<use xlink:href="#SVGID_43_"  style="overflow:visible;"/>
						</clipPath>
						<g class="st62">
							<g>
								<path class="st18" d="M328.45,1050.21c13.9,6.6,25.7,17.2,33.8,30.4c1,1.6,3.6,0.1,2.6-1.5c-8.3-13.6-20.5-24.6-34.9-31.5
									C328.15,1046.81,326.65,1049.41,328.45,1050.21L328.45,1050.21z"/>
							</g>
						</g>
					</g>
				</g>
			</g>
		</g>
		<g>
			<g>
				<g>
					<g>
						<defs>
							<path id="SVGID_45_" d="M305.05,993.31c-1.9-0.4-3.6,1.3-3.4,3.2c1.7,14.6,4.5,30.6,9,47.7c0,0,10,33.7,26.5,57.8
								c0,0,5.2,6.2,15.7,1.2c0,0,4.3-2.5-3.6-7.6c0,0,11.5-27.6,15.3-36.6c0.8-1.8,0.8-3.9-0.1-5.7
								C353.15,1028.31,329.55,998.01,305.05,993.31z"/>
						</defs>
						<clipPath id="SVGID_46_">
							<use xlink:href="#SVGID_45_"  style="overflow:visible;"/>
						</clipPath>
						<circle class="st63" cx="318.25" cy="1046.01" r="12.5"/>
					</g>
				</g>
			</g>
		</g>
		<g>
			<g>
				<g>
					<g>
						<defs>
							<path id="SVGID_47_" d="M305.05,993.31c-1.9-0.4-3.6,1.3-3.4,3.2c1.7,14.6,4.5,30.6,9,47.7c0,0,10,33.7,26.5,57.8
								c0,0,5.2,6.2,15.7,1.2c0,0,4.3-2.5-3.6-7.6c0,0,11.5-27.6,15.3-36.6c0.8-1.8,0.8-3.9-0.1-5.7
								C353.15,1028.31,329.55,998.01,305.05,993.31z"/>
						</defs>
						<clipPath id="SVGID_48_">
							<use xlink:href="#SVGID_47_"  style="overflow:visible;"/>
						</clipPath>
						<circle class="st64" cx="318.25" cy="1046.01" r="8.5"/>
					</g>
				</g>
			</g>
		</g>
		<g>
			<g>
				<g>
					<g>
						<defs>
							<path id="SVGID_49_" d="M305.05,993.31c-1.9-0.4-3.6,1.3-3.4,3.2c1.7,14.6,4.5,30.6,9,47.7c0,0,10,33.7,26.5,57.8
								c0,0,5.2,6.2,15.7,1.2c0,0,4.3-2.5-3.6-7.6c0,0,11.5-27.6,15.3-36.6c0.8-1.8,0.8-3.9-0.1-5.7
								C353.15,1028.31,329.55,998.01,305.05,993.31z"/>
						</defs>
						<clipPath id="SVGID_50_">
							<use xlink:href="#SVGID_49_"  style="overflow:visible;"/>
						</clipPath>
						<g class="st65">
							<circle class="st12" cx="318.25" cy="1046.01" r="4.9"/>
							<line class="st66" x1="315.45" y1="1043.21" x2="321.05" y2="1048.91"/>
							<line class="st66" x1="320.85" y1="1043.51" x2="315.75" y2="1048.61"/>
						</g>
					</g>
				</g>
			</g>
		</g>
	</g>
</g>
<g>
	<g>
		<path class="st7" d="M461.15,1057.31c3.8,8.9,14,32.7,18.5,38.5c0,0-7.5,0.9-3.9,5.5c0,0,8,5,15.1,0.6c0,0,16.3-29.1,21.4-63.2
			c0,0,2.7-8.6,4.1-42.3c0.1-2-1.9-3.5-3.8-2.9c-21.3,7.4-41.2,34.4-51.5,57.3C460.35,1052.91,460.35,1055.31,461.15,1057.31z"/>
		<path class="st8" d="M484.35,1104.21c-4.9,0-8.8-2.4-8.9-2.5l-0.1-0.1c-1-1.3-1.3-2.5-0.9-3.5c0.7-1.6,3-2.3,4.3-2.6
			c-4.8-6.9-14.7-30.1-18.1-37.9l0,0c-0.8-2.1-0.9-4.6-0.1-6.8c10.5-23.4,30.6-50.2,51.8-57.6c1.1-0.3,2.2-0.1,3.1,0.6
			c0.9,0.7,1.4,1.7,1.3,2.8c-1.4,33.4-4,42.1-4.1,42.4c-5,33.7-21.3,63-21.4,63.3l-0.1,0.1l-0.1,0.1
			C488.85,1103.71,486.55,1104.21,484.35,1104.21z M476.05,1100.91c0.8,0.5,8,4.5,14.4,0.6c1.1-2,16.4-30.4,21.3-62.9
			c0-0.2,2.7-9.1,4.1-42.2c0-0.8-0.3-1.5-0.9-2c-0.6-0.5-1.5-0.6-2.2-0.4c-20.9,7.3-40.8,33.9-51.2,57c-0.7,2-0.6,4.2,0.1,6.1
			c3.4,8.1,13.9,32.5,18.4,38.4l0.5,0.7l-0.9,0.1c-1,0.1-3.7,0.7-4.3,2.2C475.15,1099.11,475.35,1099.91,476.05,1100.91z"/>
	</g>
	<g>
		<g>
			<g>
				<g>
					<g>
						<defs>
							<path id="SVGID_51_" d="M461.15,1057.31c3.8,8.9,14,32.7,18.5,38.5c0,0-7.5,0.9-3.9,5.5c0,0,8,5,15.1,0.6
								c0,0,16.3-29.1,21.4-63.2c0,0,2.7-8.6,4.1-42.3c0.1-2-1.9-3.5-3.8-2.9c-21.3,7.4-41.2,34.4-51.5,57.3
								C460.35,1052.91,460.35,1055.31,461.15,1057.31z"/>
						</defs>
						<clipPath id="SVGID_52_">
							<use xlink:href="#SVGID_51_"  style="overflow:visible;"/>
						</clipPath>
						<g class="st67">
							<circle class="st12" cx="513.25" cy="996.61" r="2"/>
							<line class="st15" x1="514.35" y1="995.31" x2="512.15" y2="997.81"/>
							<line class="st15" x1="512.15" y1="995.61" x2="514.35" y2="997.61"/>
						</g>
					</g>
				</g>
			</g>
		</g>
		<g>
			<g>
				<g>
					<g>
						<defs>
							<path id="SVGID_53_" d="M461.15,1057.31c3.8,8.9,14,32.7,18.5,38.5c0,0-7.5,0.9-3.9,5.5c0,0,8,5,15.1,0.6
								c0,0,16.3-29.1,21.4-63.2c0,0,2.7-8.6,4.1-42.3c0.1-2-1.9-3.5-3.8-2.9c-21.3,7.4-41.2,34.4-51.5,57.3
								C460.35,1052.91,460.35,1055.31,461.15,1057.31z"/>
						</defs>
						<clipPath id="SVGID_54_">
							<use xlink:href="#SVGID_53_"  style="overflow:visible;"/>
						</clipPath>
						<g class="st68">
							<circle class="st12" cx="484.35" cy="1020.01" r="2"/>
							<line class="st15" x1="485.45" y1="1018.71" x2="483.25" y2="1021.21"/>
							<line class="st15" x1="483.25" y1="1019.01" x2="485.45" y2="1021.01"/>
						</g>
					</g>
				</g>
			</g>
		</g>
		<g>
			<g>
				<g>
					<g>
						<defs>
							<path id="SVGID_55_" d="M461.15,1057.31c3.8,8.9,14,32.7,18.5,38.5c0,0-7.5,0.9-3.9,5.5c0,0,8,5,15.1,0.6
								c0,0,16.3-29.1,21.4-63.2c0,0,2.7-8.6,4.1-42.3c0.1-2-1.9-3.5-3.8-2.9c-21.3,7.4-41.2,34.4-51.5,57.3
								C460.35,1052.91,460.35,1055.31,461.15,1057.31z"/>
						</defs>
						<clipPath id="SVGID_56_">
							<use xlink:href="#SVGID_55_"  style="overflow:visible;"/>
						</clipPath>
						<g class="st69">
							<circle class="st12" cx="463.95" cy="1055.01" r="2"/>
							<line class="st15" x1="465.05" y1="1053.71" x2="462.85" y2="1056.21"/>
							<line class="st15" x1="462.85" y1="1054.01" x2="465.05" y2="1056.01"/>
						</g>
					</g>
				</g>
			</g>
		</g>
		<g>
			<g>
				<g>
					<g>
						<defs>
							<path id="SVGID_57_" d="M461.15,1057.31c3.8,8.9,14,32.7,18.5,38.5c0,0-7.5,0.9-3.9,5.5c0,0,8,5,15.1,0.6
								c0,0,16.3-29.1,21.4-63.2c0,0,2.7-8.6,4.1-42.3c0.1-2-1.9-3.5-3.8-2.9c-21.3,7.4-41.2,34.4-51.5,57.3
								C460.35,1052.91,460.35,1055.31,461.15,1057.31z"/>
						</defs>
						<clipPath id="SVGID_58_">
							<use xlink:href="#SVGID_57_"  style="overflow:visible;"/>
						</clipPath>
						<g class="st70">
							<g>
								<path class="st18" d="M506.35,990.31c1.6,14.3,0.5,28.7-3.2,42.6c-0.5,1.9,2.4,2.7,2.9,0.8c3.8-14.1,4.9-28.9,3.3-43.4
									C509.15,988.41,506.15,988.41,506.35,990.31L506.35,990.31z"/>
							</g>
						</g>
					</g>
				</g>
			</g>
		</g>
		<g>
			<g>
				<g>
					<g>
						<defs>
							<path id="SVGID_59_" d="M461.15,1057.31c3.8,8.9,14,32.7,18.5,38.5c0,0-7.5,0.9-3.9,5.5c0,0,8,5,15.1,0.6
								c0,0,16.3-29.1,21.4-63.2c0,0,2.7-8.6,4.1-42.3c0.1-2-1.9-3.5-3.8-2.9c-21.3,7.4-41.2,34.4-51.5,57.3
								C460.35,1052.91,460.35,1055.31,461.15,1057.31z"/>
						</defs>
						<clipPath id="SVGID_60_">
							<use xlink:href="#SVGID_59_"  style="overflow:visible;"/>
						</clipPath>
						<g class="st71">
							<g>
								<path class="st18" d="M505.15,1032.41c-3-0.7-5.9,0.2-8.2,2.1c-2.4,2-3.6,5.1-3.9,8.1c-0.3,3.1,0.4,6.6,2.5,9
									s5.6,3.3,8.6,3.7c3.7,0.5,7.5-0.2,10.8-1.8c1.7-0.8,0.2-3.4-1.5-2.6c-3,1.4-6.5,1.9-9.7,1.3c-3-0.5-6.1-1.7-7.1-4.8
									c-0.9-2.8-0.8-6.2,0.7-8.8c1.4-2.4,4.2-4,7-3.4C506.15,1035.81,506.95,1032.91,505.15,1032.41L505.15,1032.41z"/>
							</g>
						</g>
					</g>
				</g>
			</g>
		</g>
		<g>
			<g>
				<g>
					<g>
						<defs>
							<path id="SVGID_61_" d="M461.15,1057.31c3.8,8.9,14,32.7,18.5,38.5c0,0-7.5,0.9-3.9,5.5c0,0,8,5,15.1,0.6
								c0,0,16.3-29.1,21.4-63.2c0,0,2.7-8.6,4.1-42.3c0.1-2-1.9-3.5-3.8-2.9c-21.3,7.4-41.2,34.4-51.5,57.3
								C460.35,1052.91,460.35,1055.31,461.15,1057.31z"/>
						</defs>
						<clipPath id="SVGID_62_">
							<use xlink:href="#SVGID_61_"  style="overflow:visible;"/>
						</clipPath>
						<g class="st72">
							<g>
								<path class="st18" d="M494.35,1046.51c-14,7.5-25.7,19.1-33.4,33.1c-0.9,1.7,1.7,3.2,2.6,1.5c7.4-13.5,18.7-24.7,32.3-32
									C497.65,1048.11,496.05,1045.61,494.35,1046.51L494.35,1046.51z"/>
							</g>
						</g>
					</g>
				</g>
			</g>
		</g>
		<g>
			<g>
				<g>
					<g>
						<defs>
							<path id="SVGID_63_" d="M461.15,1057.31c3.8,8.9,14,32.7,18.5,38.5c0,0-7.5,0.9-3.9,5.5c0,0,8,5,15.1,0.6
								c0,0,16.3-29.1,21.4-63.2c0,0,2.7-8.6,4.1-42.3c0.1-2-1.9-3.5-3.8-2.9c-21.3,7.4-41.2,34.4-51.5,57.3
								C460.35,1052.91,460.35,1055.31,461.15,1057.31z"/>
						</defs>
						<clipPath id="SVGID_64_">
							<use xlink:href="#SVGID_63_"  style="overflow:visible;"/>
						</clipPath>
						<circle class="st73" cx="505.95" cy="1043.11" r="12.5"/>
					</g>
				</g>
			</g>
		</g>
		<g>
			<g>
				<g>
					<g>
						<defs>
							<path id="SVGID_65_" d="M461.15,1057.31c3.8,8.9,14,32.7,18.5,38.5c0,0-7.5,0.9-3.9,5.5c0,0,8,5,15.1,0.6
								c0,0,16.3-29.1,21.4-63.2c0,0,2.7-8.6,4.1-42.3c0.1-2-1.9-3.5-3.8-2.9c-21.3,7.4-41.2,34.4-51.5,57.3
								C460.35,1052.91,460.35,1055.31,461.15,1057.31z"/>
						</defs>
						<clipPath id="SVGID_66_">
							<use xlink:href="#SVGID_65_"  style="overflow:visible;"/>
						</clipPath>
						<circle class="st74" cx="505.95" cy="1043.11" r="8.5"/>
					</g>
				</g>
			</g>
		</g>
		<g>
			<g>
				<g>
					<g>
						<defs>
							<path id="SVGID_67_" d="M461.15,1057.31c3.8,8.9,14,32.7,18.5,38.5c0,0-7.5,0.9-3.9,5.5c0,0,8,5,15.1,0.6
								c0,0,16.3-29.1,21.4-63.2c0,0,2.7-8.6,4.1-42.3c0.1-2-1.9-3.5-3.8-2.9c-21.3,7.4-41.2,34.4-51.5,57.3
								C460.35,1052.91,460.35,1055.31,461.15,1057.31z"/>
						</defs>
						<clipPath id="SVGID_68_">
							<use xlink:href="#SVGID_67_"  style="overflow:visible;"/>
						</clipPath>
						<g class="st75">
							<circle class="st12" cx="505.95" cy="1043.11" r="4.9"/>
							<line class="st66" x1="503.05" y1="1040.31" x2="508.75" y2="1046.01"/>
							<line class="st66" x1="508.45" y1="1040.61" x2="503.35" y2="1045.71"/>
						</g>
					</g>
				</g>
			</g>
		</g>
	</g>
</g>
<g>
	<g>
		<g>
			<g>
				<g>
					<defs>
						<path id="SVGID_69_" d="M408.65,991.61c-67.2,0-92.5-15-104.1-25.2c-0.2,6.3-0.3,12.7,0.1,17.9c0.3,3,2.5,5.5,5.4,6.2
							c24,5.3,46.9,34.8,58.2,59.3c0.9,1.9,2.8,3,4.9,2.9c13.9-1.2,65.2-0.8,79.1-0.6c2.1,0,4-1.2,4.9-3.1
							c10.4-23.1,30.4-50.3,51.8-57.5c2.2-0.7,3.7-2.8,3.8-5.1c0.1-4.7,0-11.3-0.1-18.5C500.05,978.51,471.25,991.61,408.65,991.61z
							"/>
					</defs>
					<clipPath id="SVGID_70_">
						<use xlink:href="#SVGID_69_"  style="overflow:visible;"/>
					</clipPath>
					<g class="st76">
						<g>
							<path class="st18" d="M509.65,995.51c0.5-8.2-0.4-16.4-2.6-24.2c-0.5-1.9-3.4-1.1-2.9,0.8c2.1,7.6,3,15.5,2.5,23.4
								C506.55,997.41,509.55,997.41,509.65,995.51L509.65,995.51z"/>
						</g>
					</g>
				</g>
			</g>
		</g>
	</g>
	<g>
		<g>
			<g>
				<g>
					<defs>
						<path id="SVGID_71_" d="M408.65,991.61c-67.2,0-92.5-15-104.1-25.2c-0.2,6.3-0.3,12.7,0.1,17.9c0.3,3,2.5,5.5,5.4,6.2
							c24,5.3,46.9,34.8,58.2,59.3c0.9,1.9,2.8,3,4.9,2.9c13.9-1.2,65.2-0.8,79.1-0.6c2.1,0,4-1.2,4.9-3.1
							c10.4-23.1,30.4-50.3,51.8-57.5c2.2-0.7,3.7-2.8,3.8-5.1c0.1-4.7,0-11.3-0.1-18.5C500.05,978.51,471.25,991.61,408.65,991.61z
							"/>
					</defs>
					<clipPath id="SVGID_72_">
						<use xlink:href="#SVGID_71_"  style="overflow:visible;"/>
					</clipPath>
					<g class="st77">
						<g>
							<path class="st18" d="M315.05,992.81c-0.5-7.6,0-15.3,1.5-22.8c0.4-1.9-2.5-2.7-2.9-0.8c-1.5,7.8-2.1,15.7-1.6,23.6
								C312.15,994.71,315.15,994.71,315.05,992.81L315.05,992.81z"/>
						</g>
					</g>
				</g>
			</g>
		</g>
	</g>
</g>
<g>
	
		<rect x="268.19" y="879.11" transform="matrix(4.737323e-03 -1 1 4.737323e-03 -568.7206 1203.1654)" class="st78" width="103.77" height="16.37"/>
	
		<rect x="448.92" y="879.96" transform="matrix(4.670676e-03 -1 1 4.670676e-03 -389.6672 1384.801)" class="st78" width="103.77" height="16.37"/>
	
		<rect x="402.06" y="832.86" transform="matrix(4.737165e-03 -1 1 4.737165e-03 -523.1078 1337.2456)" class="st78" width="16.37" height="197.11"/>
	
		<rect x="401.5" y="899.14" transform="matrix(4.745591e-03 -1 1 4.745591e-03 -589.9456 1402.6449)" class="st78" width="16.37" height="197.11"/>
	<polygon class="st78" points="311.08,1005.42 337.38,1005.54 385.18,1055.09 358.88,1054.97 	"/>
	<polygon class="st78" points="508.18,1006.35 481.88,1006.23 433.61,1055.32 459.91,1055.45 	"/>
	<polygon class="st78" points="470.36,920.4 454.11,919.61 458.27,996.39 474.52,997.18 	"/>
	<polygon class="st78" points="355.98,914.83 339.73,914.04 343.89,990.83 360.14,991.62 	"/>
	<path class="st79" d="M355.59,914.13l7.28,0.03c2.89,0.01,5.22,2.37,5.21,5.26l-0.11,24.26c-0.01,2.89-2.37,5.22-5.26,5.21
		l-13.09-0.06l1.8-10.46l6.11,0.03l0.06-13.8l-3.79-0.02L355.59,914.13z M342.5,914.06l13.09,0.06l-1.8,10.46l-6.11-0.03
		l-0.07,13.79l3.8,0.02l-1.8,10.46l-7.28-0.03c-2.89-0.01-5.22-2.37-5.21-5.26l0.11-24.26C337.26,916.38,339.61,914.05,342.5,914.06
		z"/>
	<path class="st79" d="M470.84,914.67l7.28,0.03c2.89,0.01,5.22,2.37,5.21,5.26l-0.12,24.26c-0.01,2.89-2.37,5.23-5.26,5.21
		l-13.09-0.06l1.8-10.46l6.11,0.03l0.06-13.79l-3.8-0.02L470.84,914.67z M457.75,914.61l13.09,0.06l-1.8,10.46l-6.1-0.03l-0.06,13.8
		l3.79,0.02l-1.8,10.46l-7.28-0.04c-2.89-0.01-5.22-2.36-5.21-5.26l0.12-24.27C452.5,916.93,454.86,914.59,457.75,914.61z"/>
	<path class="st79" d="M355.04,979.74l7.28,0.03c2.89,0.01,5.22,2.37,5.21,5.26l-0.12,24.26c-0.01,2.89-2.37,5.22-5.26,5.21
		l-13.09-0.06l1.8-10.46l6.11,0.03l0.07-13.8l-3.8-0.02L355.04,979.74z M341.95,979.68l13.09,0.06l-1.8,10.46l-6.11-0.03l-0.06,13.8
		l3.79,0.02l-1.8,10.46l-7.28-0.03c-2.89-0.02-5.22-2.37-5.21-5.26l0.11-24.26C336.7,982,339.06,979.67,341.95,979.68z"/>
	<path class="st79" d="M470.28,980.29l7.28,0.03c2.89,0.01,5.22,2.37,5.21,5.26l-0.12,24.26c-0.01,2.89-2.37,5.22-5.26,5.21
		l-13.09-0.06l1.8-10.46l6.1,0.03l0.07-13.8l-3.8-0.02L470.28,980.29z M457.19,980.23l13.09,0.06l-1.8,10.46l-6.11-0.03l-0.07,13.79
		l3.79,0.02l-1.8,10.46l-7.28-0.03c-2.89-0.01-5.22-2.37-5.21-5.26l0.12-24.26C451.95,982.54,454.3,980.21,457.19,980.23z"/>
</g>
<g>
	<circle class="st80" cx="412.05" cy="815.11" r="151.5"/>
	<g>
		<path class="st81" d="M501.85,761.81c-18-35.9-62.4-49.2-93.5-52.4c0,0-32.1-4.5-27.2,10.2c0,0,10.2,16.7-19.7,11.1
			c-38.1-7.2-64.9,63.1-57,104.9c7.6,40.6,54.2,70,131.7,59c7.9-1.1,38.3-8.3,51.4-17.1C542.25,840.51,516.85,791.81,501.85,761.81z
			"/>
		<g>
			<path class="st82" d="M475.85,788.61c-1.6-1-3.7-0.6-4.8,1l-5.4,8.3c-1,1.6-0.6,3.7,1,4.8c0.8,0.5,1.7,0.7,2.6,0.5
				s1.7-0.7,2.2-1.5l5.4-8.3C477.95,791.81,477.45,789.61,475.85,788.61z"/>
		</g>
		<g>
			<path class="st82" d="M485.85,791.21c-1.6-1-3.7-0.6-4.8,1l-5.4,8.3c-1,1.6-0.6,3.7,1,4.8c0.8,0.5,1.7,0.7,2.6,0.5
				s1.7-0.7,2.2-1.5l5.4-8.3C487.95,794.31,487.45,792.21,485.85,791.21z"/>
		</g>
		<g>
			<path class="st82" d="M348.95,794.81c-1.6-1-3.7-0.6-4.8,1l-5.4,8.3c-1,1.6-0.6,3.7,1,4.8c0.8,0.5,1.7,0.7,2.6,0.5
				s1.7-0.7,2.2-1.5l5.4-8.3C350.95,797.91,350.55,795.81,348.95,794.81z"/>
		</g>
		<g>
			<path class="st82" d="M358.95,797.31c-1.6-1-3.7-0.6-4.8,1l-5.4,8.3c-1,1.6-0.6,3.7,1,4.8c0.8,0.5,1.7,0.7,2.6,0.5
				s1.7-0.7,2.2-1.5l5.4-8.3C360.95,800.51,360.55,798.41,358.95,797.31z"/>
		</g>
		<path class="st83" d="M404.25,839.71c0,0,2.2,23,18,20.4c15.9-2.6,12.7-22.2,12.7-27.4s-15.7-12.4-15.7-12.4L404.25,839.71z"/>
		<g>
			<path class="st82" d="M467.45,811.41c-4.2-4.6-10.7-6.6-16.7-7.3c-9.9-1.1-20.3,2.2-27.8,8.9c-2.2,2-3.4,4.5-3.7,7.3
				c-0.6-1.4-1.5-2.7-2.4-3.9c-7.3-9.1-20.1-12.7-31.4-11.9c-8.5,0.6-18.5,2.4-25.2,8.3c-0.1,0.1-0.2,0.1-0.2,0.2
				c-5.5,5-7.9,13.9-3.2,20.3c3.3,4.4,9.5,6.7,14.6,8.1c11.9,3.4,26.9,4.8,38.2-1.2c3.7-1.9,6.9-4.8,8.9-8.4c0.9-1.6,1.5-3.3,1.7-5
				c1.6,3.4,5,5.2,8.6,6.2c8.5,2.5,18.1,3.4,26.8,1.2C465.15,831.81,476.35,821.11,467.45,811.41z"/>
		</g>
		<g>
			<path class="st84" d="M422.95,825.51c4.3-1.4,10.5-5.2,10.2-12.1c-0.4-11.1-15.8-13.7-23.6-12.7c-9,1.2-16.7,10.1-15,18.5
				c1.5,7.1,11.3,8.1,18.5,8.1C413.15,827.31,418.65,827.01,422.95,825.51z"/>
		</g>
		<g>
			<path class="st84" d="M377.75,801.41L377.75,801.41c-6.1-0.5-10.6-5.9-10.1-11.9l0,0c0.5-6.1,5.9-10.6,11.9-10.1l0,0
				c6.1,0.5,10.6,5.9,10.1,11.9l0,0C389.25,797.41,383.85,801.91,377.75,801.41z"/>
		</g>
		<g>
			<path class="st84" d="M445.85,800.21L445.85,800.21c-6.1-0.5-10.6-5.9-10.1-11.9l0,0c0.5-6.1,5.9-10.6,11.9-10.1l0,0
				c6.1,0.5,10.6,5.9,10.1,11.9l0,0C457.25,796.11,451.95,800.71,445.85,800.21z"/>
		</g>
		
			<ellipse transform="matrix(0.0822 -0.9966 0.9966 0.0822 -362.3564 1133.89)" class="st84" cx="434.45" cy="763.68" rx="4.9" ry="7.5"/>
		
			<ellipse transform="matrix(0.0822 -0.9966 0.9966 0.0822 -409.902 1083.6835)" class="st84" cx="383.42" cy="764.39" rx="4.9" ry="7.5"/>
		<g>
			<path class="st82" d="M436.25,861.31c-1.7-0.2-3.2,1.1-3.4,2.8c-0.2,2.1-5.1,4.5-8.3,5.3c-6.5,1.5-11.9-0.3-13.4-1.1
				c-0.6-0.8-1.5-1.3-2.5-1.2c-1.7,0-3.1,1.5-3,3.2c0,0.8,0.3,1.9,1.6,2.8c2.7,2.1,10.6,4.3,18.9,2.4c0.2,0,0.6-0.2,1.2-0.4
				c3.2-1,11.2-4.1,11.8-10.4C439.15,862.91,437.95,861.41,436.25,861.31z M411.85,870.11L411.85,870.11L411.85,870.11z"/>
		</g>
	</g>
	<path class="st85" d="M281.65,786.61c13-11,24-57,124-58s140,56,140,56l13-24l-58-72l-130,11l-81.2,31.3l-18.8,42.7L281.65,786.61z
		"/>
	<g>
		<path class="st86" d="M402.55,968.61c-31.8,0-63.8-18.1-90.3-34.8c-24.5-15.5-42-55.9-48-76l30.2-5.1c9,30.5,56.2,64.1,109.4,63.4
			c30.1-0.3,60.5-7.3,83.4-19.1c17.7-9.1,39.3-25.6,41.1-52.2l31,1.2c-2,28.7-25.6,65.9-54.6,90.4c-25.1,21.2-64.4,31.8-100.4,32.2
			C403.75,968.61,403.15,968.61,402.55,968.61z"/>
	</g>
	<g>
		<path class="st7" d="M279.65,777.01c0,0,9.3-58.7,134-58.7s126.8,53.5,126.8,53.5s-33,106.1,11.3,104.1
			c44.3-2.1,40.2-70.1,26.8-105.1s-45.3-128.8-166.9-127.8s-163.9,93.8-169,138.1s-4.2,106.2,27.8,106.2
			S306.45,830.61,279.65,777.01z"/>
		<path class="st8" d="M270.45,887.81c-6.5,0-12.1-2.6-16.6-7.6c-7.3-8.1-11.7-22.7-13.3-43.2c-1.6-20.4,0-41.7,1.7-55.9
			c2.6-22.6,14.7-56.9,40.9-85.6c31.3-34.2,75.8-52.5,128.6-53c118.4-1,151.8,87.2,166.1,124.9l1.2,3.2c9,23.6,14.9,67.3-0.2,90.6
			c-6.2,9.5-15.3,14.6-27,15.2c-7.1,0.3-12.7-2.1-16.6-7.2c-7.6-9.8-9.1-29.2-4.4-57.7c3.3-20.4,8.8-38.4,9.2-39.8
			c-0.1-1.1-1.4-13.8-16.5-26.4c-14.6-12.1-45.6-26.6-109.8-26.6c-35.5,0-84,5.1-113.4,29.2c-16.6,13.6-19.7,27.3-20,28.9
			c18.6,37.3,23.1,79,10.7,99.1C286.05,883.71,279.05,887.81,270.45,887.81z M413.55,643.51c-0.6,0-1.3,0-1.9,0
			c-52.5,0.4-96.7,18.6-127.8,52.7c-26.1,28.5-38.1,62.6-40.7,85c-2,17.8-7.3,77.4,11.4,98.4c4.3,4.8,9.7,7.3,15.9,7.3
			c8.3,0,14.9-3.8,19.5-11.3c12.3-19.9,7.8-61.2-10.8-98.3l-0.1-0.1v-0.2c0-0.1,2.6-15,20.4-29.7c16.4-13.4,49.5-29.5,114.1-29.5
			c35.6,0,83.7,4.7,110.5,26.9c16.1,13.4,16.8,26.6,16.8,27.1v0.1v0.1c-0.2,0.7-22.7,73.8-5,96.7c3.7,4.8,9,7.1,15.8,6.8
			c11.3-0.5,20.2-5.5,26.2-14.7c9-13.8,15-50.8,0.1-89.7l-1.2-3.2C562.75,730.51,529.65,643.51,413.55,643.51z"/>
	</g>
	<g>
		<g>
			<g>
				<g>
					<g>
						<defs>
							<path id="SVGID_73_" d="M279.65,777.01c0,0,9.3-58.7,134-58.7s126.8,53.5,126.8,53.5s-33,106.1,11.3,104.1
								c44.3-2.1,40.2-70.1,26.8-105.1s-45.3-128.8-166.9-127.8s-163.9,93.8-169,138.1s-4.2,106.2,27.8,106.2
								S306.45,830.61,279.65,777.01z"/>
						</defs>
						<clipPath id="SVGID_74_">
							<use xlink:href="#SVGID_73_"  style="overflow:visible;"/>
						</clipPath>
						<g class="st87">
							<g>
								<g>
									<path class="st18" d="M310.75,651.21c-3.3,16.1,0.2,32.7,7.6,47.1c7.7,14.8,19.5,27,32.5,37.1c7.4,5.8,15.3,11,23.3,15.9
										c1.7,1,3.2-1.6,1.5-2.6c-13.8-8.5-27.2-17.8-38.4-29.5c-11-11.5-19.6-25.4-23.2-41.1c-2-8.6-2.3-17.6-0.5-26.2
										C314.05,650.11,311.15,649.31,310.75,651.21L310.75,651.21z"/>
								</g>
							</g>
							<g>
								<g>
									<path class="st18" d="M514.35,652.01c3.2,15.5-0.4,31.7-7.7,45.6c-7.5,14.3-19,26-31.7,35.8c-7.2,5.6-14.9,10.6-22.7,15.4
										c-1.6,1-0.1,3.6,1.5,2.6c14.2-8.7,28.1-18.4,39.6-30.6c11.3-11.9,20.1-26.4,23.6-42.6c1.9-8.9,2.1-18.1,0.3-27
										C516.85,649.31,513.95,650.11,514.35,652.01L514.35,652.01z"/>
								</g>
							</g>
						</g>
					</g>
				</g>
			</g>
		</g>
	</g>
	<g>
		<path class="st12" d="M594.85,785.01c-5.4-2.9-5.2-7-20.3-7.6c-10.2-0.4-19.2,18.5-20.2,42.3c-0.9,23.7,6.6,43.3,16.8,43.7
			c12.3,0.5,13-2.3,19.5-4.9C597.45,855.81,600.35,787.81,594.85,785.01z"/>
		
			<ellipse transform="matrix(0.0385 -0.9993 0.9993 0.0385 -253.5549 1378.5665)" class="st53" cx="589.57" cy="821.04" rx="37.3" ry="16.1"/>
		<pattern  id="SVGID_77_" xlink:href="#SVGID_75_" patternTransform="matrix(1.0761 0.0415 -0.0415 1.0761 3283.9272 35475.0703)">
		</pattern>
		<path class="st88" d="M605.65,821.61c-0.8,20.6-8.6,37-17.5,36.7s-15.4-17.3-14.6-37.9s8.6-37,17.5-36.7
			C599.85,784.01,606.45,801.01,605.65,821.61z"/>
		<g>
			<path class="st89" d="M590.75,783.71v6.5c0.8,0,3.1,1.8,5.2,7.2c2.4,6.3,3.6,15,3.3,24c-0.8,21-8.5,30.5-10.8,30.5
				c-2.5-0.1-9.2-11-8.4-31.2c0.8-21,8.5-30.5,10.8-30.5L590.75,783.71 M590.75,783.71c-8.8,0-16.4,16.3-17.2,36.7
				c-0.8,20.6,5.8,37.6,14.6,37.9c0.1,0,0.2,0,0.3,0c8.8,0,16.4-16.3,17.2-36.7c0.8-20.6-5.8-37.6-14.6-37.9
				C590.95,783.71,590.85,783.71,590.75,783.71L590.75,783.71z"/>
		</g>
	</g>
	<g>
		<path class="st12" d="M240.85,868.31c5.8,2,6.2,6.1,21.2,4.2c10.1-1.3,16-21.4,13.1-45s-13.5-41.7-23.6-40.4
			c-12.2,1.5-12.4,4.4-18.5,8C226.95,798.81,235.05,866.41,240.85,868.31z"/>
		
			<ellipse transform="matrix(0.9925 -0.1225 0.1225 0.9925 -100.1007 35.6965)" class="st53" cx="240.26" cy="831.95" rx="16.1" ry="37.3"/>
		<pattern  id="SVGID_78_" xlink:href="#SVGID_76_" patternTransform="matrix(1.0688 -0.1319 0.1319 1.0688 4188.8921 34021.7852)">
		</pattern>
		<path class="st90" d="M224.35,833.91c-2.5-20.5,2.6-37.9,11.4-39c8.8-1.1,18,14.6,20.5,35.1s-2.6,37.9-11.4,39
			C236.05,870.01,226.85,854.31,224.35,833.91z"/>
		<g>
			<path class="st89" d="M236.55,801.21L236.55,801.21c0.7,0,3.3,1.3,6.5,6.9c3.3,5.9,5.7,13.9,6.8,22.6c2.5,20.1-3.3,31.5-5.8,31.8
				c0,0,0,0-0.1,0c-0.7,0-3.3-1.3-6.5-6.9c-3.3-5.9-5.7-13.9-6.8-22.6C228.25,813.01,234.05,801.51,236.55,801.21L236.55,801.21
				 M236.55,794.81c-0.3,0-0.6,0-0.9,0.1c-8.8,1.1-13.9,18.6-11.4,39c2.4,19.8,11.1,35.2,19.7,35.2c0.3,0,0.6,0,0.9-0.1
				c8.8-1.1,13.9-18.6,11.4-39C253.75,810.11,245.15,794.81,236.55,794.81L236.55,794.81z"/>
		</g>
	</g>
	<g>
		<line class="st91" x1="412.45" y1="647.31" x2="412.45" y2="625.31"/>
		<circle class="st92" cx="411.95" cy="621.31" r="17"/>
		<g>
			<g>
				<path class="st7" d="M413.95,612.31c0.7,0.1,1.5,0.4,2.2,0.7c-0.2-0.1-0.5-0.2-0.7-0.3c0.8,0.4,1.6,0.8,2.4,1.4
					c-0.2-0.2-0.4-0.3-0.6-0.5c0.8,0.6,1.4,1.3,2,2c-0.2-0.2-0.3-0.4-0.5-0.6c0.4,0.6,0.8,1.2,1.1,1.8c0.3,0.6,1.1,1.2,1.8,1.4
					c0.7,0.2,1.7,0.1,2.3-0.3s1.2-1,1.4-1.8c0.2-0.8,0.1-1.6-0.3-2.3c-1.8-3.7-5.5-6.5-9.5-7.3c-0.8-0.2-1.6-0.1-2.3,0.3
					c-0.6,0.4-1.2,1.1-1.4,1.8c-0.2,0.8-0.1,1.6,0.3,2.3C412.55,611.51,413.15,612.11,413.95,612.31L413.95,612.31z"/>
			</g>
		</g>
		<g>
			<g>
				<path class="st7" d="M420.75,625.11c0,0.1,0.1,0.1,0.1,0.2c-0.1-0.2-0.2-0.5-0.3-0.7c0.1,0.3,0.2,0.6,0.3,1
					c0-0.3-0.1-0.5-0.1-0.8c0,0.4,0,0.7,0,1.1C420.75,625.61,420.75,625.31,420.75,625.11c0,0.3-0.1,0.6-0.2,0.9
					c0.1-0.2,0.2-0.5,0.3-0.7c-0.1,0.2-0.2,0.3-0.2,0.5c-0.2,0.3-0.3,0.7-0.4,1.1s-0.1,0.8,0.1,1.2c0.1,0.4,0.3,0.7,0.5,1
					s0.5,0.6,0.8,0.8c0.7,0.4,1.5,0.6,2.3,0.3c0.7-0.2,1.4-0.7,1.8-1.4c0.1-0.1,0.2-0.3,0.2-0.4c0.2-0.4,0.3-0.7,0.5-1.1
					c0-0.2,0.1-0.3,0.1-0.5c0.1-0.4,0.1-0.8,0.2-1.3c0-0.2,0-0.3,0-0.5c0-0.4-0.1-0.8-0.2-1.2c-0.1-0.6-0.4-1.1-0.6-1.6
					c-0.2-0.3-0.4-0.6-0.8-0.8c-0.3-0.3-0.6-0.4-1-0.5s-0.8-0.1-1.2-0.1s-0.8,0.1-1.1,0.4c-0.6,0.4-1.2,1-1.4,1.8
					c0,0.3-0.1,0.5-0.1,0.8C420.35,624.11,420.45,624.71,420.75,625.11L420.75,625.11z"/>
			</g>
		</g>
	</g>
	<g class="st93">
		<path class="st7" d="M500.25,814.81c-4.5-24.1-16.7-46.6-34.6-63.4l19.9-21c22.2,21,37.6,49.1,43.1,79.2L500.25,814.81z"/>
	</g>
	<g>
		<circle class="st94" cx="255.65" cy="792.61" r="2"/>
		<line class="st15" x1="257.35" y1="792.61" x2="254.05" y2="792.71"/>
		<line class="st15" x1="255.65" y1="791.21" x2="255.75" y2="794.11"/>
	</g>
	<g>
		<circle class="st94" cx="270.65" cy="823.61" r="2"/>
		<line class="st15" x1="272.35" y1="823.61" x2="269.05" y2="823.71"/>
		<line class="st15" x1="270.65" y1="822.21" x2="270.75" y2="825.11"/>
	</g>
	<g>
		<circle class="st94" cx="267.65" cy="862.61" r="2"/>
		<line class="st15" x1="269.35" y1="862.61" x2="266.05" y2="862.71"/>
		<line class="st15" x1="267.65" y1="861.21" x2="267.75" y2="864.11"/>
	</g>
	<g>
		<circle class="st94" cx="573.65" cy="781.61" r="2"/>
		<line class="st15" x1="575.35" y1="781.61" x2="572.05" y2="781.71"/>
		<line class="st15" x1="573.65" y1="780.21" x2="573.75" y2="783.11"/>
	</g>
	<g>
		<circle class="st94" cx="558.65" cy="816.61" r="2"/>
		<line class="st15" x1="560.35" y1="816.61" x2="557.05" y2="816.71"/>
		<line class="st15" x1="558.65" y1="815.21" x2="558.75" y2="818.11"/>
	</g>
	<g>
		<circle class="st94" cx="568.65" cy="858.61" r="2"/>
		<line class="st15" x1="570.35" y1="858.61" x2="567.05" y2="858.71"/>
		<line class="st15" x1="568.65" y1="857.21" x2="568.75" y2="860.11"/>
	</g>
	<path class="st95" d="M280.15,776.11c6-14,27.8-56.9,128-58s126.9,40.4,132,53"/>
</g>
<line class="st96" x1="65.46" y1="356.99" x2="350.06" y2="958.4"/>
<line class="st96" x1="464.3" y1="962.51" x2="724" y2="360.85"/>
</svg>
