<?xml version="1.0" encoding="utf-8"?>
<!-- Generator: Adobe Illustrator 24.0.2, SVG Export Plug-In . SVG Version: 6.00 Build 0)  -->
<svg version="1.1" id="圖層_1" xmlns="http://www.w3.org/2000/svg" xmlns:xlink="http://www.w3.org/1999/xlink" x="0px" y="0px"
	 viewBox="0 0 791.39 1152.65" style="enable-background:new 0 0 791.39 1152.65;" xml:space="preserve">
<style type="text/css">
	.st0{fill:none;}
	.st1{fill-rule:evenodd;clip-rule:evenodd;fill:#FFFFFF;}
	.st2{fill-rule:evenodd;clip-rule:evenodd;fill:url(#SVGID_1_);}
	.st3{fill-rule:evenodd;clip-rule:evenodd;fill:url(#SVGID_2_);}
	.st4{fill-rule:evenodd;clip-rule:evenodd;fill:#C2BFC0;}
	.st5{fill-rule:evenodd;clip-rule:evenodd;fill:none;stroke:#E5E0DF;stroke-width:5;stroke-miterlimit:10;}
	.st6{clip-path:url(#SVGID_4_);}
	.st7{fill:#FFFFFF;}
	.st8{fill:#F7F7F7;}
	.st9{fill:#4E4D4D;}
	.st10{fill:#E9EEEB;stroke:#CCCCCC;stroke-miterlimit:10;}
	.st11{fill:#666767;}
	.st12{fill:#CCCCCC;}
	.st13{fill:none;stroke:#7F8080;stroke-width:0.93;stroke-linecap:round;stroke-miterlimit:10;}
	.st14{clip-path:url(#SVGID_6_);}
	.st15{fill:none;stroke:#7F8080;stroke-width:0.47;stroke-linecap:round;stroke-miterlimit:10;}
	.st16{clip-path:url(#SVGID_8_);}
	.st17{clip-path:url(#SVGID_10_);}
	.st18{fill:#E9EEEB;}
	.st19{clip-path:url(#SVGID_12_);}
	.st20{clip-path:url(#SVGID_14_);}
	.st21{clip-path:url(#SVGID_16_);}
	.st22{clip-path:url(#SVGID_18_);}
	.st23{clip-path:url(#SVGID_20_);}
	.st24{clip-path:url(#SVGID_22_);}
	.st25{clip-path:url(#SVGID_24_);}
	.st26{fill:url(#SVGID_25_);}
	.st27{fill:url(#SVGID_26_);}
	.st28{clip-path:url(#SVGID_28_);}
	.st29{fill:#1B844D;}
	.st30{clip-path:url(#SVGID_30_);}
	.st31{clip-path:url(#SVGID_32_);}
	.st32{fill:none;stroke:#52B665;stroke-width:3;stroke-miterlimit:10;}
	.st33{fill:#52B665;}
	.st34{fill:none;stroke:#52B665;stroke-width:2.86;stroke-miterlimit:10;}
	.st35{fill:none;stroke:#52B665;stroke-width:2.71;stroke-miterlimit:10;}
	.st36{fill:none;stroke:#52B665;stroke-width:2.57;stroke-miterlimit:10;}
	.st37{fill:none;stroke:#52B665;stroke-width:2.43;stroke-miterlimit:10;}
	.st38{fill:none;stroke:#52B665;stroke-width:2.29;stroke-miterlimit:10;}
	.st39{fill:none;stroke:#52B665;stroke-width:2.14;stroke-miterlimit:10;}
	.st40{fill:none;stroke:#52B665;stroke-width:2;stroke-miterlimit:10;}
	.st41{fill:none;stroke:#52B665;stroke-width:1.86;stroke-miterlimit:10;}
	.st42{fill:none;stroke:#52B665;stroke-width:1.71;stroke-miterlimit:10;}
	.st43{fill:none;stroke:#52B665;stroke-width:1.57;stroke-miterlimit:10;}
	.st44{fill:none;stroke:#52B665;stroke-width:1.43;stroke-miterlimit:10;}
	.st45{fill:none;stroke:#52B665;stroke-width:1.29;stroke-miterlimit:10;}
	.st46{fill:none;stroke:#52B665;stroke-width:1.14;stroke-miterlimit:10;}
	.st47{fill:none;stroke:#52B665;stroke-miterlimit:10;}
	.st48{fill:none;stroke:#52B665;stroke-width:0.86;stroke-miterlimit:10;}
	.st49{fill:none;stroke:#52B665;stroke-width:0.71;stroke-miterlimit:10;}
	.st50{fill:none;stroke:#52B665;stroke-width:0.57;stroke-miterlimit:10;}
	.st51{fill:none;stroke:#52B665;stroke-width:0.43;stroke-miterlimit:10;}
	.st52{fill:none;stroke:#52B665;stroke-width:0.29;stroke-miterlimit:10;}
	.st53{fill:none;stroke:#52B665;stroke-width:0.14;stroke-miterlimit:10;}
	.st54{fill:#AD8549;}
	.st55{fill:#005A41;}
	.st56{fill:#A67E3A;}
	.st57{fill:#ACABAB;}
	.st58{fill:none;stroke:#7D7D7D;stroke-width:0.47;stroke-linecap:round;stroke-miterlimit:10;}
	.st59{clip-path:url(#SVGID_34_);}
	.st60{clip-path:url(#SVGID_36_);}
	.st61{fill-rule:evenodd;clip-rule:evenodd;fill:#E5E0DF;}
	.st62{clip-path:url(#SVGID_38_);}
	.st63{clip-path:url(#SVGID_40_);}
	.st64{clip-path:url(#SVGID_42_);}
	.st65{clip-path:url(#SVGID_44_);}
	.st66{clip-path:url(#SVGID_46_);}
	.st67{clip-path:url(#SVGID_48_);}
	.st68{clip-path:url(#SVGID_50_);}
	.st69{clip-path:url(#SVGID_52_);}
	.st70{clip-path:url(#SVGID_54_);}
	.st71{fill:none;stroke:#7F8080;stroke-width:1.13;stroke-linecap:round;stroke-miterlimit:10;}
	.st72{clip-path:url(#SVGID_56_);}
	.st73{clip-path:url(#SVGID_58_);}
	.st74{clip-path:url(#SVGID_60_);}
	.st75{clip-path:url(#SVGID_62_);}
	.st76{clip-path:url(#SVGID_64_);}
	.st77{clip-path:url(#SVGID_66_);}
	.st78{clip-path:url(#SVGID_68_);}
	.st79{clip-path:url(#SVGID_70_);}
	.st80{clip-path:url(#SVGID_72_);}
	.st81{fill:#ECB14E;}
	.st82{fill:#F8E6C7;}
	.st83{fill:#ECC6AD;}
	.st84{fill:#E37F7D;}
	.st85{fill:#4A1E0E;}
	.st86{opacity:0.1;fill:#040000;enable-background:new    ;}
	.st87{fill:#E0E2E0;}
	.st88{clip-path:url(#SVGID_74_);}
	.st89{fill:url(#SVGID_75_);stroke:#E6E6E5;stroke-width:0.81;stroke-miterlimit:10;}
	.st90{fill:#E6E6E5;}
	.st91{fill:url(#SVGID_76_);stroke:#E6E6E5;stroke-width:0.81;stroke-miterlimit:10;}
	.st92{fill:none;stroke:#333333;stroke-width:13;stroke-linecap:round;stroke-miterlimit:10;}
	.st93{fill:#23A664;}
	.st94{opacity:0.67;}
	.st95{fill:#A9A9A8;}
	.st96{fill:none;stroke:#52B665;stroke-width:8;stroke-linecap:round;stroke-miterlimit:10;}
	.st97{fill:#F6D05F;}
	.st98{fill:none;stroke:#E5E0DF;stroke-width:5;stroke-miterlimit:10;}
</style>
<pattern  y="1152.65" width="390" height="507" patternUnits="userSpaceOnUse" id="SVGID_101_" viewBox="0 -507 390 507" style="overflow:visible;">
	<g>
		<rect y="-507" class="st0" width="390" height="507"/>
		<rect y="-507" class="st0" width="390" height="507"/>
		<rect y="-507" class="st0" width="390" height="507"/>
		<rect y="-507" class="st0" width="390" height="507"/>
	</g>
</pattern>
<pattern  y="1152.65" width="390" height="507" patternUnits="userSpaceOnUse" id="SVGID_102_" viewBox="0 -507 390 507" style="overflow:visible;">
	<g>
		<rect y="-507" class="st0" width="390" height="507"/>
		<rect y="-507" class="st0" width="390" height="507"/>
		<rect y="-507" class="st0" width="390" height="507"/>
		<rect y="-507" class="st0" width="390" height="507"/>
	</g>
</pattern>
<pattern  y="1152.65" width="390" height="507" patternUnits="userSpaceOnUse" id="SVGID_111_" viewBox="0 -507 390 507" style="overflow:visible;">
	<g>
		<rect y="-507" class="st0" width="390" height="507"/>
		<rect y="-507" class="st0" width="390" height="507"/>
		<rect y="-507" class="st0" width="390" height="507"/>
		<rect y="-507" class="st0" width="390" height="507"/>
	</g>
</pattern>
<pattern  y="1152.65" width="390" height="507" patternUnits="userSpaceOnUse" id="SVGID_112_" viewBox="0 -507 390 507" style="overflow:visible;">
	<g>
		<rect y="-507" class="st0" width="390" height="507"/>
		<rect y="-507" class="st0" width="390" height="507"/>
		<rect y="-507" class="st0" width="390" height="507"/>
		<rect y="-507" class="st0" width="390" height="507"/>
	</g>
</pattern>
<path class="st1" d="M782.08,417.84C783.15,189.37,610.34,3.33,396.09,2.32C181.83,1.31,7.27,185.71,6.19,414.18L782.08,417.84z"/>
<linearGradient id="SVGID_1_" gradientUnits="userSpaceOnUse" x1="6.6928" y1="157.5387" x2="782.5756" y2="157.5387">
	<stop  offset="0.6933" style="stop-color:#E5E0DF"/>
	<stop  offset="1" style="stop-color:#B2B8B4"/>
</linearGradient>
<path class="st2" d="M782.57,312.76C783.37,142.32,610.34,3.33,396.09,2.32C181.83,1.31,7.49,138.66,6.69,309.1L782.57,312.76z"/>
<path class="st1" d="M661.98,235.34l-533.97-2.52c0.6-128,120.62-231.2,268.08-230.5C543.54,3.02,662.58,107.34,661.98,235.34z"/>
<linearGradient id="SVGID_2_" gradientUnits="userSpaceOnUse" x1="303.1428" y1="103.7013" x2="487.1181" y2="103.7013">
	<stop  offset="0.6933" style="stop-color:#E5E0DF"/>
	<stop  offset="1" style="stop-color:#B2B8B4"/>
</linearGradient>
<path class="st3" d="M303.14,204.21l183.97,0.87C487.65,93.34,446.89,2.56,396.09,2.32C345.28,2.08,303.67,92.47,303.14,204.21z"/>
<path class="st4" d="M689.85,468.27c-0.77,0-1.54-0.01-2.3-0.03h-0.07h-0.04h-0.04c-0.76-0.01-1.52-0.04-2.28-0.06l0,0h-0.09
	c-0.73-0.02-1.47-0.06-2.2-0.09h-0.06l-0.13-0.01c-1.48-0.07-2.95-0.17-4.41-0.29l-0.1-0.01l-0.21-0.02l-1.87-0.16l-0.21-0.02
	l-0.07-0.01c-0.68-0.07-1.37-0.13-2.04-0.21l-0.17-0.02l-0.29-0.03l-1.79-0.21h-0.05l-0.12-0.02l-0.13-0.01
	c-0.64-0.08-1.29-0.17-1.93-0.26l-0.09-0.01l-0.08-0.01l-0.17-0.03c-0.62-0.08-1.24-0.18-1.86-0.27l-0.15-0.02l-0.04-0.01
	l-0.41-0.06l-1.34-0.22l-0.44-0.08l0,0l-0.44-0.08l-1.42-0.26l-0.61-0.12c-0.56-0.11-1.12-0.21-1.67-0.33l-0.25-0.05l0.02,0.1
	l0.02,0.1l0.02,0.1l0.13,0.77l0.02,0.1l0.01,0.1l0.07,0.48l0.01,0.1l0.06,0.48l0,0l0.01,0.1c0.03,0.29,0.06,0.58,0.09,0.88l0.01,0.1
	l0.01,0.16c0.04,0.41,0.06,0.83,0.07,1.24l0.01,0.12c0.02,0.44,0.02,0.89,0.02,1.33c-0.14,29.84-41.44,53.84-92.24,53.6
	c-0.69,0-1.38-0.01-2.06-0.02l-0.77-0.02l-1.54-0.04l-0.54-0.02c-0.66-0.02-1.31-0.05-1.97-0.08l-0.7-0.04l-1.58-0.09l-0.53-0.03
	c-0.55-0.04-1.1-0.08-1.66-0.12l-0.52-0.04c-0.67-0.05-1.34-0.11-2.01-0.18l-0.43-0.04l-1.7-0.17l-0.57-0.06l-1.5-0.17l-0.58-0.07
	c-0.64-0.08-1.28-0.17-1.92-0.26l-0.6-0.09l-1.44-0.21l-0.63-0.1l-1.48-0.24l-0.83-0.14l-1.46-0.26l-0.81-0.15l-1.28-0.25
	l-0.55-0.11c-0.63-0.13-1.26-0.26-1.89-0.4l-0.06-0.01l-0.17-0.04c-0.56-0.12-1.12-0.25-1.68-0.38l-0.56-0.13l-1.56-0.38l-0.29-0.08
	c-0.61-0.15-1.23-0.31-1.83-0.48l-0.51-0.14c-0.45-0.12-0.91-0.25-1.36-0.38l-0.58-0.17c-0.49-0.14-0.98-0.29-1.46-0.43l-0.31-0.09
	c-0.58-0.18-1.16-0.36-1.74-0.55l-0.58-0.19l-1.19-0.4l-0.56-0.19l-1.46-0.52l-0.21-0.07l-0.12-0.05c-0.51-0.18-1.01-0.37-1.51-0.56
	l-0.73-0.28l-0.97-0.38l-0.63-0.25c-0.53-0.22-1.06-0.43-1.59-0.65h-0.01c-0.52-0.22-1.03-0.44-1.54-0.67l-0.59-0.27l-1.02-0.47
	l-0.56-0.26c-0.48-0.23-0.96-0.45-1.43-0.69l-0.09-0.05l-0.28-0.14l-1.14-0.57l-0.58-0.3l-0.95-0.5l-0.53-0.28
	c-0.45-0.25-0.91-0.5-1.35-0.75l-0.38-0.22l-1.07-0.62l-0.5-0.3l-0.99-0.6l-0.34-0.21c-0.43-0.26-0.85-0.53-1.26-0.8l-0.54-0.35
	l-0.79-0.53l-0.56-0.38l-0.8-0.56l-0.58-0.42c-0.34-0.25-0.68-0.5-1.02-0.75l-0.42-0.32l-0.81-0.63l-0.44-0.34l-0.83-0.67
	l-0.65-0.54l-0.71-0.61l-0.44-0.39l-0.66-0.59l-0.46-0.42c-0.33-0.31-0.65-0.61-0.97-0.92l-0.23-0.23
	c-0.26-0.25-0.51-0.51-0.76-0.76l-0.41-0.42l-0.54-0.57l-0.42-0.46l-0.02-0.03c-0.26-0.28-0.51-0.57-0.76-0.86l-0.02-0.02
	l-0.42-0.48l-0.48-0.58l-0.41-0.5l-0.44-0.55l-0.37-0.48c0.58,2.48,0.88,5.01,0.87,7.59c-0.14,29.85-41.44,53.84-92.24,53.6
	s-91.87-24.63-91.73-54.47c0.01-2.58,0.34-5.11,0.94-7.58l-0.38,0.47l-0.44,0.55l-0.41,0.5l-0.49,0.57l-0.42,0.48l-0.02,0.02
	c-0.25,0.28-0.51,0.56-0.77,0.85l-0.02,0.02l-0.43,0.45l-0.55,0.57l-0.41,0.41c-0.25,0.25-0.51,0.51-0.77,0.76l-0.23,0.23
	c-0.32,0.3-0.65,0.61-0.98,0.91l-0.46,0.42l-0.66,0.58l-0.45,0.39l-0.72,0.6l-0.65,0.54l-0.84,0.67l-0.44,0.34l-0.81,0.62
	l-0.43,0.32c-0.34,0.25-0.68,0.5-1.02,0.74l-0.59,0.41l-0.81,0.55l-0.56,0.37l-0.79,0.52l-0.54,0.35c-0.41,0.27-0.84,0.53-1.27,0.79
	l-0.34,0.21l-1,0.59l-0.5,0.29l-1.07,0.61l-0.39,0.22c-0.45,0.25-0.9,0.49-1.36,0.74l-0.53,0.28l-0.96,0.49l-0.58,0.29l-1.15,0.56
	l-0.28,0.14l-0.09,0.04c-0.48,0.23-0.96,0.45-1.45,0.67l-0.56,0.26l-1.03,0.46l-0.59,0.26c-0.51,0.22-1.02,0.44-1.55,0.65h-0.01
	c-0.53,0.22-1.06,0.43-1.59,0.64l-0.64,0.24l-0.97,0.37l-0.73,0.27c-0.5,0.19-1.01,0.37-1.52,0.55l-0.12,0.04l-0.21,0.07l-1.47,0.5
	l-0.56,0.19l-1.19,0.39l-0.59,0.19c-0.58,0.18-1.16,0.36-1.74,0.53l-0.31,0.09c-0.48,0.14-0.98,0.28-1.47,0.42l-0.58,0.17
	c-0.45,0.13-0.9,0.24-1.36,0.36l-0.51,0.14c-0.61,0.16-1.22,0.31-1.84,0.46l-0.29,0.07l-1.56,0.37l-0.56,0.13
	c-0.56,0.13-1.12,0.25-1.68,0.37l-0.17,0.04l-0.06,0.02c-0.63,0.13-1.26,0.26-1.89,0.38l-0.55,0.11l-1.28,0.24l-0.82,0.15
	l-1.46,0.25l-0.83,0.13l-1.48,0.23l-0.63,0.09l-1.44,0.2l-0.6,0.08c-0.64,0.08-1.28,0.16-1.92,0.24l-0.58,0.06l-1.5,0.16l-0.57,0.06
	l-1.7,0.16l-0.43,0.04c-0.67,0.05-1.34,0.11-2.02,0.16l-0.52,0.04c-0.55,0.04-1.11,0.07-1.66,0.1l-0.53,0.03l-1.58,0.08l-0.7,0.03
	c-0.66,0.03-1.31,0.05-1.97,0.07l-0.54,0.01l-1.54,0.03l-0.77,0.01c-0.69,0.01-1.37,0.01-2.06,0.01
	c-50.8-0.24-91.87-24.63-91.73-54.47c0.01-2.12,0.23-4.2,0.64-6.24l-0.25,0.05c-0.56,0.11-1.12,0.21-1.67,0.31l-0.62,0.11
	l-1.42,0.24l-0.44,0.07l0,0l-0.45,0.07l-1.34,0.21l-0.41,0.06h-0.04l-0.15,0.02c-0.62,0.09-1.24,0.17-1.86,0.26l-0.17,0.02
	l-0.08,0.01l-0.09,0.01c-0.64,0.08-1.28,0.16-1.93,0.24l-0.14,0.02l-0.12,0.01h-0.05l-1.79,0.2l-0.29,0.03l-0.17,0.02
	c-0.68,0.07-1.36,0.13-2.04,0.19l-0.07,0.01L111.7,465l-1.87,0.14l-0.21,0.02l-0.1,0.01c-1.46,0.1-2.93,0.18-4.41,0.24l-0.13,0.01
	h-0.06c-0.73,0.03-1.46,0.05-2.19,0.07h-0.09l0,0c-0.76,0.02-1.52,0.03-2.28,0.04h-0.03h-0.05h-0.07c-0.76,0.01-1.53,0.01-2.3,0.01
	c-50.8-0.24-91.87-24.63-91.73-54.47c0-0.42,0.01-0.83,0.03-1.24l0.03-0.44c0.02-0.29,0.04-0.57,0.06-0.86l0.03-0.42
	c0.03-0.31,0.07-0.63,0.11-0.94l0.04-0.33c0.05-0.41,0.12-0.81,0.19-1.22l0.06-0.33c0.06-0.3,0.12-0.6,0.18-0.91L7,403.96
	c0.07-0.29,0.13-0.57,0.2-0.85l0.11-0.4c0.1-0.35,0.19-0.7,0.3-1.04l0.05-0.15v-0.01l0.03-0.09c0.12-0.38,0.24-0.75,0.37-1.12
	l0.12-0.34c0.1-0.29,0.21-0.58,0.33-0.88l0.15-0.38c0.12-0.3,0.25-0.59,0.38-0.89l0.13-0.3c0.18-0.39,0.36-0.79,0.55-1.17l0.09-0.19
	c0.16-0.33,0.33-0.66,0.51-0.99l0.18-0.33c0.14-0.27,0.29-0.53,0.44-0.79l0.25-0.43c0.19-0.32,0.38-0.64,0.58-0.96l0.08-0.13
	l0.01-0.02c0.24-0.38,0.48-0.75,0.73-1.12l0.22-0.32l0.54-0.77l0.29-0.4l0.56-0.74l0.29-0.38c0.27-0.34,0.54-0.68,0.81-1.01
	l0.31-0.37l0.57-0.67l0.43-0.48l0.52-0.57l0.43-0.47c0.25-0.27,0.51-0.53,0.77-0.8l0.17-0.17l0.03-0.03
	c0.33-0.33,0.67-0.67,1.01-0.99l0.33-0.31l0.73-0.69l0.42-0.38l0.81-0.72l0.27-0.24c0.38-0.32,0.76-0.64,1.15-0.96l0.29-0.23
	l0.88-0.71l0.48-0.37l0.72-0.55l0.51-0.38l0.85-0.62l0.67-0.47l0.95-0.65l0.55-0.36l0.81-0.53l0.54-0.34l0.83-0.52l0.58-0.36
	l0.06-0.04c0.4-0.24,0.8-0.48,1.2-0.72l0.02-0.01l0.54-0.31l0.89-0.5l0.65-0.36l0.81-0.44l0.63-0.34l1.01-0.52l0.77-0.39l1.11-0.55
	l0.74-0.35l0.81-0.38l0.82-0.37l0.7-0.31l0.86-0.38l0.05-0.02c0.46-0.2,0.93-0.39,1.39-0.59l0.84-0.34l0.74-0.3l0.94-0.36l0.68-0.26
	l0.98-0.36l0.64-0.23l0.95-0.34l1.49-0.51l0.07-0.02l1.06-0.35l0.57-0.18l1.04-0.33l0.86-0.26l0.91-0.27l0.05-0.02l1.56-0.45
	l1.1-0.3l0.6-0.16l1.12-0.29l0.72-0.18l1.09-0.27l0.58-0.14c0.8-0.19,1.6-0.37,2.41-0.54l0.41-0.09c-35-7.8-59.87-27.72-59.76-50.96
	c0.14-29.85,41.44-53.84,92.24-53.6c0.75,0,1.5,0.01,2.23,0.03h0.14l0.18,0.01c0.64,0.01,1.27,0.03,1.9,0.05l0.27,0.01l0.13,0.01
	c0.69,0.02,1.38,0.05,2.07,0.08l0.33,0.02c1.44,0.07,2.88,0.16,4.3,0.28l0.16,0.01h0.05l0.1,0.01c0.69,0.06,1.37,0.11,2.06,0.18
	l0.08,0.01c0.75,0.07,1.5,0.15,2.25,0.23l0.05,0.01c0.7,0.08,1.39,0.16,2.08,0.24l0.26,0.03c0.67,0.08,1.33,0.17,1.99,0.26
	l0.13,0.02l0.23,0.03c0.62,0.09,1.24,0.18,1.85,0.27l0.13,0.02l0.1,0.02c0.66,0.11,1.32,0.21,1.98,0.33l0.09,0.02h0.02l0.15,0.03
	c0.59,0.1,1.17,0.21,1.75,0.31l0.58,0.11c0.55,0.11,1.1,0.22,1.65,0.33l0.36,0.07c0.62,0.13,1.24,0.26,1.86,0.39l0.16,0.04
	c0.61,0.13,1.22,0.27,1.82,0.42l0.33,0.08c0.61,0.14,1.21,0.29,1.81,0.45l0.13,0.03l0.03,0.01l0.07,0.02
	c0.62,0.16,1.24,0.32,1.85,0.48h0.01l0.1,0.02l0.14,0.04c0.56,0.15,1.12,0.31,1.67,0.47l0.21,0.06l0.14,0.04
	c0.58,0.16,1.15,0.34,1.72,0.51l0.23,0.07c0.55,0.17,1.09,0.34,1.63,0.51l0.41,0.13c-9.48-8.55-14.97-18.76-14.92-29.7
	c0.14-29.84,41.44-53.84,92.24-53.6c37.36,0.18,69.46,13.41,83.77,32.28c-0.58-2.48-0.88-5.01-0.87-7.59
	c0.14-29.84,41.44-53.84,92.24-53.6c50.8,0.24,91.87,24.63,91.73,54.48c-0.01,2.57-0.34,5.1-0.94,7.58
	c14.49-18.73,46.71-31.66,84.07-31.48c50.8,0.24,91.87,24.63,91.73,54.47c-0.05,10.94-5.64,21.1-15.2,29.56l0.41-0.13
	c0.54-0.17,1.09-0.34,1.64-0.5l0.23-0.07c0.57-0.17,1.14-0.33,1.72-0.49l0.14-0.04l0.22-0.06c0.55-0.15,1.11-0.3,1.67-0.45
	l0.14-0.04l0.1-0.03l0,0c0.61-0.16,1.23-0.32,1.85-0.47l0.08-0.02l0.02-0.01l0.14-0.03c0.6-0.15,1.21-0.29,1.81-0.43l0.34-0.08
	c0.6-0.14,1.21-0.27,1.82-0.4l0.17-0.04c0.62-0.12,1.24-0.25,1.86-0.37l0.36-0.07c0.55-0.11,1.1-0.21,1.66-0.31l0.57-0.1
	c0.58-0.1,1.17-0.2,1.76-0.3l0.15-0.03h0.03l0.09-0.01c0.66-0.1,1.32-0.21,1.98-0.3l0.1-0.02l0.11-0.02
	c0.62-0.09,1.25-0.18,1.87-0.26l0.23-0.03l0.13-0.02c0.66-0.08,1.32-0.17,1.99-0.24l0.26-0.03c0.69-0.08,1.39-0.15,2.08-0.22h0.05
	c0.75-0.08,1.5-0.15,2.26-0.21h0.08c0.68-0.06,1.37-0.11,2.06-0.16l0.1-0.01l0.05-0.01l0.16-0.01c1.43-0.1,2.86-0.18,4.3-0.24
	l0.33-0.01c0.69-0.03,1.38-0.05,2.07-0.07H686l0.28-0.01c0.63-0.01,1.27-0.02,1.9-0.03h0.18h0.14c0.74-0.01,1.49-0.01,2.24,0
	c50.8,0.24,91.87,24.63,91.73,54.47c0,0.42-0.01,0.83-0.03,1.24l-0.03,0.44l-0.06,0.86l-0.04,0.42c-0.03,0.31-0.06,0.62-0.1,0.94
	l-0.04,0.32c-0.05,0.41-0.12,0.82-0.19,1.22l-0.06,0.33c-0.06,0.3-0.12,0.6-0.18,0.91l-0.09,0.42c-0.07,0.28-0.13,0.57-0.21,0.85
	l-0.1,0.4c-0.1,0.35-0.19,0.7-0.3,1.05l-0.04,0.15v0.01l-0.03,0.09c-0.12,0.38-0.24,0.75-0.37,1.12l-0.12,0.34
	c-0.1,0.29-0.22,0.58-0.33,0.87l-0.15,0.38c-0.12,0.3-0.25,0.6-0.37,0.89l-0.13,0.3c-0.18,0.39-0.36,0.78-0.55,1.18l-0.09,0.19
	c-0.17,0.33-0.33,0.66-0.51,0.99l-0.18,0.33l-0.44,0.79l-0.25,0.43c-0.19,0.32-0.38,0.64-0.58,0.96l-0.08,0.13l-0.01,0.02
	c-0.23,0.37-0.47,0.73-0.72,1.1l-0.25,0.37l-0.52,0.74l-0.29,0.4l-0.56,0.74l-0.29,0.38c-0.27,0.34-0.54,0.68-0.81,1.01l-0.31,0.37
	l-0.57,0.67l-0.43,0.48l-0.52,0.57l-0.43,0.47c-0.21,0.23-0.43,0.45-0.64,0.67l-0.48,0.49c-0.27,0.27-0.56,0.55-0.84,0.83
	l-0.37,0.36l-0.64,0.6l-0.52,0.47l-0.65,0.57l-0.43,0.38c-0.35,0.3-0.71,0.61-1.08,0.9l-0.42,0.34l-0.79,0.63l-0.48,0.37l-0.69,0.53
	l-0.59,0.44l-0.59,0.42c-0.44,0.32-0.88,0.63-1.32,0.93l-0.46,0.31l-0.72,0.48l-0.61,0.4l-0.7,0.45l-0.61,0.38l-0.79,0.48
	c-0.39,0.24-0.8,0.48-1.21,0.71l-0.8,0.46l-0.58,0.33l-0.76,0.42l-0.74,0.4l-0.74,0.4l-0.65,0.33c-0.49,0.25-0.98,0.5-1.48,0.75
	l-0.7,0.34l-0.87,0.41l-0.58,0.27l-1.03,0.47l-0.37,0.17l-1.13,0.5l-1.39,0.59l-1.1,0.45l-0.38,0.15l-1.19,0.46l-0.37,0.14
	l-1.24,0.46l-0.13,0.05c-1.39,0.51-2.81,1-4.26,1.46l-0.16,0.05l-1.3,0.41l-0.5,0.15c-1.42,0.43-2.87,0.84-4.33,1.23h-0.01
	l-1.42,0.37l-0.36,0.09l-1.41,0.35l-0.05,0.01c-1.06,0.25-2.14,0.5-3.22,0.73l0.6,0.14c0.71,0.16,1.41,0.33,2.11,0.5l0.71,0.17
	l1.01,0.26l0.82,0.21l1.04,0.28l0.76,0.21l0.96,0.27l1.55,0.46l0.08,0.03l0.8,0.25l0.97,0.31l0.96,0.31l0.68,0.23l1,0.34l0.07,0.03
	l1.48,0.52l0.8,0.29l0.82,0.31l0.93,0.35l0.71,0.28l0.89,0.35l0.92,0.38l0.69,0.29c0.5,0.21,0.99,0.42,1.48,0.64l0.72,0.33
	l0.84,0.39l0.71,0.33l0.9,0.43l0.69,0.33c0.47,0.23,0.94,0.47,1.4,0.71l0.06,0.03l0.26,0.14c0.41,0.21,0.81,0.42,1.2,0.64l0.52,0.28
	l0.95,0.53l0.54,0.31l1.06,0.61l0.37,0.22c0.45,0.27,0.89,0.54,1.34,0.81l0.45,0.28l0.95,0.61l0.49,0.32l0.86,0.58l0.48,0.32
	c0.42,0.29,0.83,0.58,1.24,0.87l0.04,0.03l0.23,0.17l0.97,0.72l0.46,0.35l0.8,0.62l0.42,0.33l0.89,0.72l0.29,0.24
	c0.39,0.32,0.77,0.65,1.14,0.97l0.27,0.24l0.81,0.73l0.41,0.38l0.73,0.69l0.32,0.31c0.34,0.33,0.68,0.67,1,1.01l0.02,0.02
	c0.33,0.34,0.65,0.68,0.96,1.02l0.33,0.37l0.62,0.7l0.34,0.39c0.24,0.28,0.48,0.56,0.7,0.84l0.18,0.21
	c0.29,0.36,0.57,0.72,0.85,1.08l0.22,0.3c0.2,0.27,0.4,0.53,0.59,0.8l0.29,0.4c0.18,0.26,0.36,0.52,0.53,0.77l0.22,0.32
	c0.25,0.37,0.49,0.75,0.72,1.13l0.01,0.02l0.06,0.1c0.21,0.34,0.41,0.68,0.61,1.03l0.21,0.37l0.45,0.83l0.18,0.33
	c0.17,0.33,0.34,0.66,0.5,0.99l0.09,0.19c0.19,0.39,0.37,0.79,0.54,1.18l0.13,0.3c0.13,0.3,0.25,0.59,0.37,0.89l0.15,0.38
	c0.11,0.29,0.22,0.58,0.32,0.88l0.12,0.34c0.13,0.37,0.25,0.75,0.36,1.12l0.03,0.09l0.01,0.01l0.04,0.15c0.1,0.35,0.2,0.7,0.29,1.04
	l0.1,0.4c0.07,0.29,0.13,0.57,0.2,0.86l0.09,0.42c0.06,0.3,0.12,0.61,0.17,0.91l0.06,0.33c0.07,0.41,0.13,0.82,0.18,1.22l0.04,0.32
	c0.03,0.32,0.07,0.63,0.09,0.94l0.03,0.42c0.02,0.29,0.04,0.57,0.05,0.86l0.02,0.44c0.01,0.41,0.02,0.83,0.02,1.25
	C781.95,444.52,740.65,468.52,689.85,468.27z"/>
<g>
	<path class="st4" d="M63.69,359.97c-33.54-8.21-57.11-27.69-57-50.31c0.14-29.85,41.44-53.84,92.24-53.6c0.75,0,1.5,0.01,2.23,0.03
		h0.14l0.18,0.01l0.58,0.01C87.61,288.42,74.74,323.17,63.69,359.97z"/>
	<path class="st4" d="M687.71,258.86l0.57-0.01h0.18h0.14c0.74-0.01,1.49-0.01,2.24,0c50.8,0.24,91.87,24.63,91.73,54.47
		c0,0.42-0.01,0.83-0.03,1.24l-0.03,0.44l-0.06,0.86l-0.04,0.42c-0.03,0.31-0.06,0.62-0.1,0.94l-0.04,0.32
		c-0.05,0.41-0.12,0.82-0.19,1.22l-0.06,0.33c-0.06,0.3-0.12,0.6-0.18,0.91l-0.09,0.42c-0.07,0.28-0.13,0.57-0.21,0.85l-0.1,0.4
		c-0.1,0.35-0.19,0.7-0.3,1.05l-0.04,0.15v0.01l-0.03,0.09c-0.12,0.38-0.24,0.75-0.37,1.12l-0.12,0.34
		c-0.1,0.29-0.22,0.58-0.33,0.87l-0.15,0.38c-0.12,0.3-0.25,0.6-0.37,0.89l-0.13,0.3c-0.18,0.39-0.36,0.78-0.55,1.18l-0.09,0.19
		c-0.17,0.33-0.33,0.66-0.51,0.99l-0.18,0.33l-0.44,0.79l-0.25,0.43c-0.19,0.32-0.38,0.64-0.58,0.96l-0.08,0.13l-0.01,0.02
		c-0.23,0.37-0.47,0.73-0.72,1.1l-0.25,0.37l-0.52,0.74l-0.29,0.4l-0.56,0.74l-0.29,0.38c-0.27,0.34-0.54,0.68-0.81,1.01l-0.31,0.37
		l-0.57,0.67l-0.43,0.48l-0.52,0.57l-0.43,0.47c-0.21,0.23-0.43,0.45-0.64,0.67l-0.48,0.49c-0.27,0.27-0.56,0.55-0.84,0.83
		l-0.37,0.36l-0.64,0.6l-0.52,0.47l-0.65,0.57l-0.43,0.38c-0.35,0.3-0.71,0.61-1.08,0.9l-0.42,0.34l-0.79,0.63l-0.48,0.37
		l-0.69,0.53l-0.59,0.44l-0.59,0.42c-0.44,0.32-0.88,0.63-1.32,0.93l-0.46,0.31l-0.72,0.48l-0.61,0.4l-0.7,0.45l-0.61,0.38
		l-0.79,0.48c-0.39,0.24-0.8,0.48-1.21,0.71l-0.8,0.46l-0.58,0.33l-0.76,0.42l-0.74,0.4l-0.74,0.4l-0.65,0.33
		c-0.49,0.25-0.98,0.5-1.48,0.75l-0.7,0.34l-0.87,0.41l-0.58,0.27l-1.03,0.47l-0.37,0.17l-1.13,0.5l-1.39,0.59l-1.1,0.45l-0.38,0.15
		l-1.19,0.46l-0.37,0.14l-1.24,0.46l-0.13,0.05c-1.39,0.51-2.81,1-4.26,1.46l-0.16,0.05l-1.3,0.41l-0.5,0.15
		c-1.42,0.43-2.87,0.84-4.33,1.23h-0.01l-1.42,0.37l-0.36,0.09l-1.41,0.35l-0.05,0.01l-0.45,0.11
		C714.39,326.19,701.86,291.32,687.71,258.86z"/>
</g>
<path class="st4" d="M662.28,465.67c-16.07-110.01-42.83-207.15-77.2-283.72c-4.83-0.48-9.78-0.75-14.83-0.77
	c-37.36-0.18-69.58,12.76-84.07,31.48c0.61-2.47,0.93-5,0.94-7.58c0.14-29.85-40.93-54.23-91.73-54.48
	c-50.8-0.24-92.1,23.76-92.24,53.6c-0.01,2.58,0.29,5.11,0.87,7.59c-14.31-18.86-46.41-32.1-83.77-32.28
	c-5.05-0.02-10,0.2-14.84,0.64c-35.09,76.24-62.76,173.12-79.87,282.98l0.08-0.01c0.56-0.1,1.12-0.21,1.67-0.31l0.25-0.05
	c-0.41,2.05-0.63,4.13-0.64,6.24c-0.14,29.85,40.93,54.23,91.73,54.47c0.69,0,1.37,0,2.06-0.01l0.77-0.01l1.54-0.03l0.54-0.01
	c0.66-0.02,1.31-0.04,1.97-0.07l0.7-0.03l1.58-0.08l0.53-0.03c0.55-0.03,1.11-0.07,1.66-0.1l0.52-0.04c0.67-0.05,1.34-0.1,2.02-0.16
	l0.43-0.04l1.7-0.16l0.57-0.06l1.5-0.16l0.58-0.06c0.64-0.08,1.28-0.16,1.92-0.24l0.6-0.08l1.44-0.2l0.63-0.09l1.48-0.23l0.83-0.13
	l1.46-0.25l0.82-0.15l1.28-0.24l0.55-0.11c0.63-0.13,1.26-0.25,1.89-0.38l0.06-0.02l0.17-0.04c0.56-0.12,1.12-0.24,1.68-0.37
	l0.56-0.13l1.56-0.37l0.29-0.07c0.62-0.15,1.23-0.3,1.84-0.46l0.51-0.14c0.46-0.12,0.91-0.24,1.36-0.36l0.58-0.17
	c0.49-0.14,0.98-0.28,1.47-0.42l0.31-0.09c0.59-0.17,1.16-0.35,1.74-0.53l0.59-0.19l1.19-0.39l0.56-0.19l1.47-0.5l0.21-0.07
	l0.12-0.04c0.51-0.18,1.01-0.36,1.52-0.55l0.73-0.27l0.97-0.37l0.64-0.24c0.53-0.21,1.07-0.43,1.59-0.64h0.01
	c0.52-0.21,1.04-0.43,1.55-0.65l0.59-0.26l1.03-0.46l0.56-0.26c0.49-0.22,0.96-0.45,1.45-0.67l0.09-0.04l0.28-0.14l1.15-0.56
	l0.58-0.29l0.96-0.49l0.53-0.28c0.45-0.24,0.91-0.49,1.36-0.74l0.39-0.22l1.07-0.61l0.5-0.29l1-0.59l0.34-0.21
	c0.43-0.26,0.86-0.53,1.27-0.79l0.54-0.35l0.79-0.52l0.56-0.37l0.81-0.55l0.59-0.41c0.34-0.24,0.68-0.49,1.02-0.74l0.43-0.32
	l0.81-0.62l0.44-0.34l0.84-0.67l0.65-0.54l0.72-0.6l0.45-0.39l0.66-0.58l0.46-0.42c0.33-0.3,0.66-0.61,0.98-0.91l0.23-0.23
	c0.26-0.25,0.51-0.5,0.77-0.76l0.41-0.41l0.55-0.57l0.43-0.45l0.02-0.02c0.26-0.28,0.52-0.56,0.77-0.85l0.02-0.02l0.42-0.48
	l0.49-0.57l0.41-0.5l0.44-0.55l0.38-0.47c-0.6,2.47-0.93,5-0.94,7.58c-0.14,29.84,40.93,54.23,91.73,54.47
	c50.8,0.24,92.1-23.76,92.24-53.6c0.01-2.58-0.29-5.11-0.87-7.59l0.37,0.48l0.44,0.55l0.41,0.5l0.48,0.58l0.42,0.48l0.02,0.02
	c0.25,0.29,0.5,0.57,0.76,0.86l0.02,0.03l0.42,0.46l0.54,0.57l0.41,0.42c0.25,0.25,0.5,0.51,0.76,0.76l0.23,0.23
	c0.32,0.31,0.64,0.62,0.97,0.92l0.46,0.42l0.66,0.59l0.44,0.39l0.71,0.61l0.65,0.54l0.83,0.67l0.44,0.34l0.81,0.63l0.42,0.32
	c0.33,0.25,0.67,0.5,1.02,0.75l0.59,0.41l0.8,0.56l0.56,0.38l0.79,0.53l0.54,0.35c0.41,0.27,0.84,0.54,1.26,0.8l0.34,0.21l0.99,0.6
	l0.5,0.3l1.07,0.62l0.38,0.22c0.45,0.25,0.9,0.5,1.35,0.75l0.53,0.28l0.95,0.5l0.58,0.3l1.14,0.57l0.28,0.14l0.09,0.05
	c0.47,0.23,0.95,0.46,1.43,0.69l0.56,0.26l1.02,0.47l0.59,0.27c0.51,0.22,1.03,0.45,1.54,0.67h0.01c0.53,0.22,1.06,0.44,1.59,0.65
	l0.63,0.25l0.97,0.38l0.73,0.28c0.5,0.19,1.01,0.38,1.51,0.56l0.12,0.05l0.21,0.07l1.46,0.52l0.56,0.19l1.19,0.4l0.58,0.19
	c0.58,0.19,1.16,0.37,1.74,0.55l0.31,0.09c0.48,0.15,0.97,0.29,1.46,0.43l0.58,0.17c0.45,0.13,0.9,0.26,1.36,0.38l0.51,0.14
	c0.61,0.16,1.22,0.32,1.83,0.48l0.29,0.08l1.56,0.38l0.56,0.13c0.56,0.13,1.11,0.26,1.68,0.38l0.17,0.04l0.06,0.01
	c0.63,0.14,1.26,0.27,1.89,0.4l0.55,0.11l1.28,0.25l0.81,0.15l1.46,0.26l0.83,0.14l1.48,0.24l0.63,0.1l1.44,0.21l0.6,0.09
	c0.64,0.09,1.28,0.17,1.92,0.26l0.58,0.07l1.5,0.17l0.57,0.06l1.7,0.17l0.43,0.04c0.67,0.06,1.34,0.12,2.01,0.18l0.52,0.04
	c0.55,0.04,1.1,0.08,1.66,0.12l0.53,0.03l1.58,0.09l0.7,0.04c0.65,0.03,1.31,0.06,1.97,0.08l0.54,0.02l1.54,0.04l0.77,0.02
	c0.68,0.01,1.37,0.02,2.06,0.02c50.8,0.24,92.1-23.76,92.24-53.6c0-0.44,0-0.89-0.02-1.33l-0.01-0.12
	c-0.02-0.42-0.04-0.83-0.07-1.24l-0.01-0.16l-0.01-0.1c-0.03-0.29-0.06-0.59-0.09-0.88l-0.01-0.1l0,0l-0.06-0.48l-0.01-0.1
	l-0.07-0.48l-0.01-0.1l-0.02-0.1l-0.13-0.77l-0.02-0.1l-0.02-0.1l-0.02-0.1l0.25,0.05c0.55,0.11,1.11,0.22,1.67,0.33L662.28,465.67z
	"/>
<path class="st4" d="M459.66,166.34c-16.55-9.62-39.23-15.61-64.27-15.73c-25.05-0.12-47.78,5.66-64.42,15.12
	c-14.51,85.69-24.85,199.34-28.71,326.81l0.05-0.07l0.38-0.47c-0.19,0.78-0.35,1.56-0.49,2.35c-0.09,2.97-0.17,5.95-0.25,8.94
	c3.11,28.13,42.85,50.53,91.53,50.76c48.68,0.23,88.62-21.8,92-49.9c-0.05-2.98-0.11-5.97-0.17-8.94c-0.13-0.79-0.28-1.58-0.46-2.36
	l0.37,0.48l0.06,0.07C482.62,365.9,473.36,252.17,459.66,166.34z"/>
<line class="st5" x1="138.84" y1="261.71" x2="354.78" y2="969.99"/>
<line class="st5" x1="304.02" y1="211.79" x2="366.31" y2="939.94"/>
<line class="st5" x1="646.68" y1="265.33" x2="463.09" y2="922.59"/>
<line class="st5" x1="486.18" y1="212.66" x2="431.84" y2="939.94"/>
<title>parachuteiLeo1</title>
<g>
	<defs>
		<path id="SVGID_3_" d="M511.16,1051.61c-1.08,17.72,15.77,30.37,32.9,25.62c42.67-11.83,59-46,59-46
			c4.82-8.09,0.13-11.9,0.13-11.9c-1.43-8.35-7.94-4.48-7.94-4.48c-3.52-0.25-6.39,5.24-6.39,5.24c-6.5,2.09-32.16,4.48-51.55,5.94
			C522.39,1027.15,512.04,1036.73,511.16,1051.61L511.16,1051.61z"/>
	</defs>
	<clipPath id="SVGID_4_">
		<use xlink:href="#SVGID_3_"  style="overflow:visible;"/>
	</clipPath>
	<g class="st6">
		<path class="st7" d="M511.16,1051.61c-1.08,17.72,15.77,30.37,32.9,25.62c42.67-11.83,59-46,59-46c4.82-8.09,0.13-11.9,0.13-11.9
			c-1.43-8.35-7.94-4.48-7.94-4.48c-3.52-0.25-6.39,5.24-6.39,5.24c-6.5,2.09-32.16,4.48-51.55,5.94
			C522.39,1027.15,512.04,1036.73,511.16,1051.61L511.16,1051.61z"/>
		<path class="st8" d="M533.59,1078.44c-4.97-0.63-9.68-2.59-13.62-5.68c-6.38-5.18-9.85-13.13-9.3-21.33l0,0
			c0.89-14.88,11.14-24.89,26.64-26c13-1,43.52-3.48,51.13-5.84c0.58-1,3.32-5.45,6.68-5.31c0.66-0.31,3-1.47,5.26-0.47
			c1.67,0.78,2.78,2.65,3.28,5.33c0.8,0.83,4.37,4.91-0.22,12.43c-0.07,0.31-16.76,34.51-59.3,46.31
			C540.7,1078.77,537.11,1078.96,533.59,1078.44z M599,1014.38c-1.21-0.04-2.42,0.25-3.48,0.84v0.09h-0.23c-3.12-0.13-6,4.91-6,5
			l-0.1,0.17l-0.2,0.12c-7.38,2.38-38.54,4.86-51.63,5.89c-15,1.06-24.95,10.78-25.75,25.12l0,0c-0.52,7.87,2.84,15.51,9,20.44
			c6.53,5.23,15.19,6.98,23.24,4.68c42-11.66,58.5-45.37,58.62-45.77c4.64-7.61,0.53-11.18,0.36-11.29l-0.18-0.1l-0.12-0.2
			c-0.38-2.48-1.34-4-2.69-4.72C599.74,1014.49,599.28,1014.45,599,1014.38z"/>
		<circle class="st9" cx="530.98" cy="1053.72" r="15.7"/>
		<path class="st10" d="M532.53,1040.67c7.21,0.85,12.37,7.39,11.52,14.6c-0.85,7.21-7.39,12.37-14.6,11.52
			c-7.21-0.85-12.37-7.39-11.52-14.6c0-0.01,0-0.01,0-0.02c0.81-7.17,7.27-12.33,14.44-11.52
			C532.42,1040.66,532.48,1040.66,532.53,1040.67 M533.14,1035.58c-10.02-1.18-19.1,5.98-20.29,16c-1.18,10.02,5.98,19.1,16,20.29
			c10.02,1.18,19.09-5.97,20.28-15.99C550.27,1045.87,543.14,1036.82,533.14,1035.58z"/>
		<circle class="st11" cx="530.98" cy="1053.72" r="7.09"/>
		<circle class="st12" cx="530.98" cy="1053.72" r="4.05"/>
		<line class="st13" x1="528.93" y1="1051.05" x2="533.12" y2="1056.45"/>
		<line class="st13" x1="533.32" y1="1051.83" x2="528.64" y2="1055.62"/>
	</g>
</g>
<g>
	<defs>
		<path id="SVGID_5_" d="M511.16,1051.61c-1.08,17.72,15.77,30.37,32.9,25.62c42.67-11.83,59-46,59-46
			c4.82-8.09,0.13-11.9,0.13-11.9c-1.43-8.35-7.94-4.48-7.94-4.48c-3.52-0.25-6.39,5.24-6.39,5.24c-6.5,2.09-32.16,4.48-51.55,5.94
			C522.39,1027.15,512.04,1036.73,511.16,1051.61L511.16,1051.61z"/>
	</defs>
	<clipPath id="SVGID_6_">
		<use xlink:href="#SVGID_5_"  style="overflow:visible;"/>
	</clipPath>
	<g class="st14">
		<path class="st12" d="M588.59,1021.8c1.12,0,2.03,0.91,2.03,2.03s-0.91,2.03-2.03,2.03s-2.03-0.91-2.03-2.03
			S587.47,1021.8,588.59,1021.8z"/>
		<line class="st15" x1="589.9" y1="1022.84" x2="587.36" y2="1024.86"/>
		<line class="st15" x1="587.73" y1="1022.71" x2="589.62" y2="1025.05"/>
	</g>
</g>
<g>
	<defs>
		<path id="SVGID_7_" d="M511.16,1051.61c-1.08,17.72,15.77,30.37,32.9,25.62c42.67-11.83,59-46,59-46
			c4.82-8.09,0.13-11.9,0.13-11.9c-1.43-8.35-7.94-4.48-7.94-4.48c-3.52-0.25-6.39,5.24-6.39,5.24c-6.5,2.09-32.16,4.48-51.55,5.94
			C522.39,1027.15,512.04,1036.73,511.16,1051.61L511.16,1051.61z"/>
	</defs>
	<clipPath id="SVGID_8_">
		<use xlink:href="#SVGID_7_"  style="overflow:visible;"/>
	</clipPath>
	<g class="st16">
		<circle class="st12" cx="583.33" cy="1025.25" r="2.03"/>
		<line class="st15" x1="584.64" y1="1024.27" x2="582.11" y2="1026.28"/>
		<line class="st15" x1="582.47" y1="1024.13" x2="584.28" y2="1026.42"/>
	</g>
</g>
<g>
	<defs>
		<path id="SVGID_9_" d="M511.16,1051.61c-1.08,17.72,15.77,30.37,32.9,25.62c42.67-11.83,59-46,59-46
			c4.82-8.09,0.13-11.9,0.13-11.9c-1.43-8.35-7.94-4.48-7.94-4.48c-3.52-0.25-6.39,5.24-6.39,5.24c-6.5,2.09-32.16,4.48-51.55,5.94
			C522.39,1027.15,512.04,1036.73,511.16,1051.61L511.16,1051.61z"/>
	</defs>
	<clipPath id="SVGID_10_">
		<use xlink:href="#SVGID_9_"  style="overflow:visible;"/>
	</clipPath>
	<g class="st17">
		<path class="st18" d="M538.22,1027.05c4.12,1.81,8,4,10.66,7.81c2.43,3.61,3.72,7.72,5.12,11.66c0.32,0.58,0.95,0.91,1.61,0.86
			c4.5-0.58,9.2,0.27,13.81-0.48c4.26-0.78,8.47-1.79,12.62-3c8.28-2.3,16.47-5,23.91-9.26c1.71-0.86,0.45-3.65-1.18-2.74
			c-7.46,4.03-15.4,7.13-23.63,9.2c-4.12,1.25-8.32,2.21-12.57,2.9c-4.5,0.58-8.8-0.15-13.31,0.43c0.57,0.23,1,0.63,1.61,0.86
			c-1.5-4.35-3-8.84-5.71-12.61c-2.89-4-7.13-6.6-11.57-8.47C537.65,1023.5,536.5,1026.36,538.22,1027.05L538.22,1027.05z"/>
	</g>
</g>
<g>
	<defs>
		<path id="SVGID_11_" d="M511.16,1051.61c-1.08,17.72,15.77,30.37,32.9,25.62c42.67-11.83,59-46,59-46
			c4.82-8.09,0.13-11.9,0.13-11.9c-1.43-8.35-7.94-4.48-7.94-4.48c-3.52-0.25-6.39,5.24-6.39,5.24c-6.5,2.09-32.16,4.48-51.55,5.94
			C522.39,1027.15,512.04,1036.73,511.16,1051.61L511.16,1051.61z"/>
	</defs>
	<clipPath id="SVGID_12_">
		<use xlink:href="#SVGID_11_"  style="overflow:visible;"/>
	</clipPath>
	<g class="st19">
		<path class="st18" d="M587.66,1059.8c-1.86-2.41-4.57-4.02-7.58-4.5c-3.31-0.52-6.68-0.4-9.94,0.35c-2.9,0.74-5.29,2.79-6.46,5.54
			c-1.45,3.16-1.25,6.72-1.12,10c0.11,2,3.1,1.54,3-0.43c-0.28-4.79-0.1-11.33,5.62-12.35c4.58-0.88,11-1,14.05,3.23
			C586.45,1063.33,588.79,1061.44,587.66,1059.8L587.66,1059.8z"/>
	</g>
</g>
<g>
	<defs>
		<path id="SVGID_13_" d="M343.65,1044.15c6.11,16.67-6.39,33.68-24.11,34.07c-44.32,0.87-69.73-27.2-69.73-27.2
			c-6.95-6.37-3.6-11.36-3.6-11.36c-1-8.5,6.31-6.59,6.31-6.59c3.33-1.23,7.67,3.18,7.67,3.18c6.8,0.15,32.08-5,51-9.08
			c14.61-3.23,27.34,3,32.42,17L343.65,1044.15z"/>
	</defs>
	<clipPath id="SVGID_14_">
		<use xlink:href="#SVGID_13_"  style="overflow:visible;"/>
	</clipPath>
	<g class="st20">
		<path class="st7" d="M343.65,1044.15c6.11,16.67-6.39,33.68-24.11,34.07c-44.32,0.87-69.73-27.2-69.73-27.2
			c-6.95-6.37-3.6-11.36-3.6-11.36c-1-8.5,6.31-6.59,6.31-6.59c3.33-1.23,7.67,3.18,7.67,3.18c6.8,0.15,32.08-5,51-9.08
			c14.61-3.23,27.34,3,32.42,17L343.65,1044.15z"/>
		<path class="st8" d="M329.85,1076.51c-3.26,1.39-6.75,2.16-10.29,2.25c-44,0.85-69.88-27-70.13-27.35
			c-6.44-5.94-4.26-10.85-3.8-11.83c-0.3-2.74,0.26-4.75,1.6-6c1.5-1.08,3.39-1.44,5.18-1c3.19-1,7.13,2.43,7.9,3.2
			c8,0.08,38.1-6.34,50.72-9c15.3-3.42,27.91,3.26,33,17.28c2.86,7.69,1.81,16.3-2.81,23.08
			C338.42,1071.3,334.47,1074.56,329.85,1076.51z M248.85,1033.77c-0.33,0.11-0.63,0.31-0.85,0.59c-1.1,1-1.56,2.77-1.24,5.28v0.23
			l-0.15,0.17c-0.14,0.18-3,4.74,3.54,10.72c0.26,0.34,25.78,27.92,69.34,27c8.34-0.17,16.1-4.31,20.89-11.14
			c4.45-6.51,5.48-14.77,2.76-22.17l0,0c-4.88-13.56-17.14-20-31.84-16.68c-12.81,2.79-43.47,9.23-51.13,9.12h-0.23l-0.17-0.15
			c0-0.09-4.13-4.17-7.18-3.07l-0.19,0.08h-0.13C252.4,1033.56,250.43,1033.09,248.85,1033.77z"/>
		<circle class="st9" cx="325.26" cy="1051.9" r="15.7"/>
		<path class="st10" d="M320,1039.82c6.67-2.89,14.43,0.17,17.32,6.84c2.89,6.67-0.17,14.43-6.84,17.32
			c-6.67,2.89-14.43-0.17-17.32-6.84c0,0,0-0.01-0.01-0.01c-2.9-6.65,0.15-14.4,6.81-17.29
			C319.97,1039.83,319.99,1039.83,320,1039.82 M318,1035.17c-9.23,4.01-13.46,14.75-9.45,23.99c4.01,9.23,14.75,13.46,23.99,9.45
			c9.22-4.01,13.46-14.73,9.46-23.96C337.97,1035.42,327.25,1031.19,318,1035.17z"/>
		<circle class="st11" cx="325.26" cy="1051.9" r="7.09"/>
		<circle class="st12" cx="325.26" cy="1051.9" r="4.05"/>
		<line class="st13" x1="326.56" y1="1048.8" x2="324.08" y2="1055.06"/>
		<line class="st13" x1="322.46" y1="1050.79" x2="328.05" y2="1053.01"/>
	</g>
</g>
<g>
	<defs>
		<path id="SVGID_15_" d="M343.65,1044.15c6.11,16.67-6.39,33.68-24.11,34.07c-44.32,0.87-69.73-27.2-69.73-27.2
			c-6.95-6.37-3.6-11.36-3.6-11.36c-1-8.5,6.31-6.59,6.31-6.59c3.33-1.23,7.67,3.18,7.67,3.18c6.8,0.15,32.08-5,51-9.08
			c14.61-3.23,27.34,3,32.42,17L343.65,1044.15z"/>
	</defs>
	<clipPath id="SVGID_16_">
		<use xlink:href="#SVGID_15_"  style="overflow:visible;"/>
	</clipPath>
	<g class="st21">
		<circle class="st12" cx="261.5" cy="1039.77" r="2.03"/>
		<line class="st15" x1="260.03" y1="1039.19" x2="263.1" y2="1040.41"/>
		<line class="st15" x1="262.12" y1="1038.4" x2="261.01" y2="1041.2"/>
	</g>
</g>
<g>
	<defs>
		<path id="SVGID_17_" d="M343.65,1044.15c6.11,16.67-6.39,33.68-24.11,34.07c-44.32,0.87-69.73-27.2-69.73-27.2
			c-6.95-6.37-3.6-11.36-3.6-11.36c-1-8.5,6.31-6.59,6.31-6.59c3.33-1.23,7.67,3.18,7.67,3.18c6.8,0.15,32.08-5,51-9.08
			c14.61-3.23,27.34,3,32.42,17L343.65,1044.15z"/>
	</defs>
	<clipPath id="SVGID_18_">
		<use xlink:href="#SVGID_17_"  style="overflow:visible;"/>
	</clipPath>
	<g class="st22">
		<circle class="st12" cx="266.95" cy="1039.62" r="2.03"/>
		<line class="st15" x1="265.49" y1="1039.04" x2="268.55" y2="1040.25"/>
		<line class="st15" x1="267.57" y1="1038.25" x2="266.46" y2="1041.05"/>
	</g>
</g>
<g>
	<defs>
		<path id="SVGID_19_" d="M343.65,1044.15c6.11,16.67-6.39,33.68-24.11,34.07c-44.32,0.87-69.73-27.2-69.73-27.2
			c-6.95-6.37-3.6-11.36-3.6-11.36c-1-8.5,6.31-6.59,6.31-6.59c3.33-1.23,7.67,3.18,7.67,3.18c6.8,0.15,32.08-5,51-9.08
			c14.61-3.23,27.34,3,32.42,17L343.65,1044.15z"/>
	</defs>
	<clipPath id="SVGID_20_">
		<use xlink:href="#SVGID_19_"  style="overflow:visible;"/>
	</clipPath>
	<g class="st23">
		<path class="st18" d="M308.8,1026.13c-3.85,3.1-7.08,6.6-8.66,11.37c-1.51,4.41-1.77,9.16-1.89,13.73
			c0.48-0.43,0.82-0.91,1.3-1.33c-4.44,0.71-8.5,2.8-12.89,3.37c-4.28,0.5-8.58,0.78-12.88,0.84c-8.49,0.41-16.99-0.29-25.3-2.08
			c-1.93-0.37-2.27,2.65-0.34,3c8.41,1.8,17.02,2.47,25.61,2c4.32-0.02,8.63-0.27,12.92-0.74c4.62-0.57,8.77-2.7,13.4-3.49
			c0.67-0.13,1.19-0.66,1.3-1.33c0.14-4.26,0.24-8.61,1.6-12.62c1.42-4.36,4.32-7.61,7.92-10.49c1.38-1.15-0.53-3.53-2.09-2.3
			L308.8,1026.13z"/>
	</g>
</g>
<g>
	<defs>
		<path id="SVGID_21_" d="M343.65,1044.15c6.11,16.67-6.39,33.68-24.11,34.07c-44.32,0.87-69.73-27.2-69.73-27.2
			c-6.95-6.37-3.6-11.36-3.6-11.36c-1-8.5,6.31-6.59,6.31-6.59c3.33-1.23,7.67,3.18,7.67,3.18c6.8,0.15,32.08-5,51-9.08
			c14.61-3.23,27.34,3,32.42,17L343.65,1044.15z"/>
	</defs>
	<clipPath id="SVGID_22_">
		<use xlink:href="#SVGID_21_"  style="overflow:visible;"/>
	</clipPath>
	<g class="st24">
		<path class="st18" d="M275.52,1075.21c1.72-4.94,7.94-6.64,12.6-7.11c5.83-0.55,7.85,5.65,8.92,10.15
			c0.13,0.79,0.85,1.34,1.65,1.27c0.8-0.09,1.37-0.81,1.28-1.61c0-0.01,0-0.03-0.01-0.04c-0.86-3.27-1.67-6.67-3.89-9.25
			c-1.89-2.33-4.79-3.62-7.79-3.46c-1.57,0.1-3.12,0.36-4.63,0.78c-1.69,0.37-3.34,0.94-4.9,1.69c-2.81,1.3-5,3.63-6.12,6.51
			C272.08,1075.92,274.88,1077.03,275.52,1075.21z"/>
	</g>
</g>
<g>
	<defs>
		<ellipse id="SVGID_23_" cx="423.24" cy="818" rx="226.84" ry="285.8"/>
	</defs>
	<clipPath id="SVGID_24_">
		<use xlink:href="#SVGID_23_"  style="overflow:visible;"/>
	</clipPath>
	<g class="st25">
		<path class="st9" d="M327.42,1082.55c-2.39,3.57-3.46,7.87-3,12.15c0,0,50.65,57.74,54.7,58.75s9.12-1,10.13-5.06
			s-18.23-38.5-18.23-38.5L327.42,1082.55z"/>
		<pattern  id="SVGID_25_" xlink:href="#SVGID_101_" patternTransform="matrix(1 0 0 1 239.53 18105.8398)">
		</pattern>
		<path class="st26" d="M327.42,1082.55c-2.39,3.57-3.46,7.87-3,12.15c0,0,50.65,57.74,54.7,58.75s9.12-1,10.13-5.06
			s-18.23-38.5-18.23-38.5L327.42,1082.55z"/>
		<path class="st9" d="M531.22,1083.56c2.23,3.41,3.24,7.49,2.84,11.55c0,0-46.6,55.1-50.34,56s-8.41-1-9.32-4.86
			s16.81-36.67,16.81-36.67L531.22,1083.56z"/>
		<pattern  id="SVGID_26_" xlink:href="#SVGID_102_" patternTransform="matrix(1 0 0 1 389.71 18103.8398)">
		</pattern>
		<path class="st27" d="M531.22,1083.56c2.23,3.41,3.24,7.49,2.84,11.55c0,0-46.6,55.1-50.34,56s-8.41-1-9.32-4.86
			s16.81-36.67,16.81-36.67L531.22,1083.56z"/>
		<path class="st7" d="M532.74,1045.07c0,13.67,0.81,32.41,0.51,42.24c-0.08,2.35-1.62,4.41-3.85,5.16
			c-21.68,7.3-41.94,34.85-52.47,58.25c-0.91,1.93-2.86,3.15-5,3.14c-14.08-0.21-66.05-0.61-80.13,0.6c-2.12,0.19-4.13-0.99-5-2.93
			c-11.45-24.82-34.64-54.7-58.95-60.07c-3.01-0.66-5.23-3.21-5.47-6.28c-1-12.16,0.7-30.29,0.91-40.11H532.74z"/>
		<path class="st8" d="M391.34,1154.97c-2.17,0.02-4.13-1.26-5-3.24c-11.55-25.12-34.84-54.6-58.65-59.76
			c-3.26-0.69-5.66-3.47-5.87-6.79c-0.71-8.41-0.1-20,0.4-29.17c0.21-4.06,0.41-8,0.51-10.94v-0.51h210.42v0.51
			c0,5.87,0.1,12.76,0.3,19.44c0.2,8.82,0.41,17.22,0.2,22.8c-0.09,2.56-1.74,4.81-4.15,5.67c-21.17,7.09-41.53,34.24-52.17,57.94
			c-0.98,2.13-3.13,3.48-5.47,3.44c-12.45-0.2-65.74-0.6-80.12,0.61L391.34,1154.97z M323.87,1045.57c-0.1,2.94-0.3,6.59-0.5,10.54
			c-0.51,9.22-1.12,20.66-0.41,29.07c0.22,2.86,2.28,5.23,5.07,5.87c24.1,5.27,47.6,35,59.25,60.38c0.76,1.75,2.56,2.82,4.46,2.63
			c14.38-1.22,67.77-0.81,80.23-0.61c1.91,0,3.64-1.1,4.45-2.83c10.74-23.91,31.3-51.26,52.78-58.55c2.04-0.66,3.45-2.52,3.54-4.66
			c0.21-5.57,0-13.88-0.2-22.79c-0.1-6.49-0.3-13.17-0.3-19H323.87V1045.57z"/>
		<g>
			<defs>
				<path id="SVGID_27_" d="M532.74,1045.07c0,13.67,0.81,32.41,0.51,42.24c-0.08,2.35-1.62,4.41-3.85,5.16
					c-21.68,7.3-41.94,34.85-52.47,58.25c-0.91,1.93-2.86,3.15-5,3.14c-14.08-0.21-66.05-0.61-80.13,0.6
					c-2.12,0.19-4.13-0.99-5-2.93c-11.45-24.82-34.64-54.7-58.95-60.07c-3.01-0.66-5.23-3.21-5.47-6.28
					c-1-12.16,0.7-30.29,0.91-40.11H532.74z"/>
			</defs>
			<clipPath id="SVGID_28_">
				<use xlink:href="#SVGID_27_"  style="overflow:visible;"/>
			</clipPath>
			<g class="st28">
				<path class="st29" d="M541.56,1058.64c-4.77,9.52-27.66,34-113.76,34s-104.33-24.32-112.33-32.38l3.95-24l216.77-2.33
					L541.56,1058.64z"/>
			</g>
		</g>
		<g>
			<defs>
				<path id="SVGID_29_" d="M532.74,1045.07c0,13.67,0.81,32.41,0.51,42.24c-0.08,2.35-1.62,4.41-3.85,5.16
					c-21.68,7.3-41.94,34.85-52.47,58.25c-0.91,1.93-2.86,3.15-5,3.14c-14.08-0.21-66.05-0.61-80.13,0.6
					c-2.12,0.19-4.13-0.99-5-2.93c-11.45-24.82-34.64-54.7-58.95-60.07c-3.01-0.66-5.23-3.21-5.47-6.28
					c-1-12.16,0.7-30.29,0.91-40.11H532.74z"/>
			</defs>
			<clipPath id="SVGID_30_">
				<use xlink:href="#SVGID_29_"  style="overflow:visible;"/>
			</clipPath>
			<g class="st30">
				<g>
					<defs>
						<path id="SVGID_31_" d="M541.56,1058.64c-4.77,9.52-27.66,34-113.76,34s-104.33-24.32-112.33-32.38l3.95-24l216.77-2.33
							L541.56,1058.64z"/>
					</defs>
					<clipPath id="SVGID_32_">
						<use xlink:href="#SVGID_31_"  style="overflow:visible;"/>
					</clipPath>
					<g class="st31">
						<path class="st32" d="M331.98,1042.03c-1.73,2.83-1.93,6.38-2.13,9.62c-0.68,14.01,0.27,28.05,2.84,41.84"/>
						<path class="st33" d="M339.88,1041.52c-1.93,3.65-2.13,7.8-2.23,11.85c-0.1,4.46-0.1,8.92,0,13.37
							c0.33,9.05,1.28,18.07,2.84,27c0.3,1.92,3.24,1.11,2.93-0.81c-1.47-8.51-2.38-17.1-2.73-25.73c-0.2-4.25-0.2-8.61-0.1-13
							c0.1-3.74,0-7.9,1.82-11.34c0.91-1.62-1.62-3.14-2.53-1.42L339.88,1041.52z"/>
						<path class="st34" d="M341.19,1042.32c-1.62,2.84-1.82,6.28-1.92,9.62c-0.61,13.91,0.3,27.84,2.74,41.54"/>
						<path class="st33" d="M348.99,1041.82c-1.82,3.65-1.92,7.8-2,11.86c-0.1,4.55-0.1,9,0.1,13.57c0.32,8.93,1.2,17.82,2.63,26.64
							c0.31,1.92,3.24,1.11,2.94-0.81c-1.35-8.38-2.2-16.84-2.53-25.32c-0.2-4.16-0.2-8.41-0.1-12.56c0.1-3.85-0.1-8.21,1.72-11.75
							c0.71-1.83-1.93-3.35-2.74-1.63L348.99,1041.82z"/>
						<path class="st35" d="M350.31,1042.64c-1.52,2.83-1.72,6.28-1.82,9.52c-0.49,13.83,0.39,27.67,2.63,41.33"/>
						<path class="st33" d="M358.11,1042.13c-1.72,3.75-1.82,7.7-1.92,11.75c-0.1,4.46-0.1,8.91,0.1,13.37
							c0.3,8.89,1.11,17.75,2.43,26.54c0.3,1.92,3.24,1.11,2.94-0.81c-1.23-8.36-2.01-16.78-2.33-25.22
							c-0.21-4.16-0.21-8.31-0.1-12.36c0.1-3.85-0.11-8.11,1.51-11.75C361.45,1041.93,358.92,1040.41,358.11,1042.13z"/>
						<path class="st36" d="M359.43,1042.94c-1.42,2.84-1.52,6.28-1.62,9.52c-0.41,13.71,0.4,27.43,2.43,41"/>
						<path class="st33" d="M367.23,1042.43c-1.62,3.75-1.72,7.7-1.72,11.75c-0.11,4.46,0,8.82,0.1,13.27
							c0.3,8.82,1.11,17.63,2.23,26.44c0.21,0.77,1,1.22,1.76,1.02c0.02,0,0.04-0.01,0.06-0.02c0.74-0.16,1.21-0.9,1.05-1.64
							c-0.01-0.06-0.03-0.12-0.05-0.18c-1.11-8.31-1.82-16.71-2.13-25.12c-0.2-4.15-0.2-8.31-0.2-12.46c0-3.75-0.2-7.9,1.32-11.45
							c0.37-0.74,0.15-1.63-0.51-2.12c-0.64-0.4-1.49-0.2-1.89,0.44c-0.01,0.02-0.02,0.04-0.03,0.06L367.23,1042.43z"/>
						<path class="st37" d="M368.54,1043.24c-1.31,2.84-1.41,6.18-1.52,9.42c-0.29,13.61,0.49,27.23,2.33,40.72"/>
						<path class="st33" d="M376.14,1043.14c-1.42,3.75-1.42,7.8-1.42,11.75c0,4.26,0,8.61,0.21,12.87c0.3,8.61,1,17.12,2,25.62
							c0.2,1.93,3.24,1.93,3,0c-1-8.3-1.72-16.71-2-25.12c-0.2-4.15-0.2-8.3-0.2-12.36s-0.1-8.2,1.32-11.95
							c0.71-1.82-2.23-2.63-2.94-0.81H376.14z"/>
						<path class="st38" d="M377.68,1043.55c-1.21,2.83-1.32,6.18-1.32,9.42c-0.22,13.54,0.53,27.08,2.23,40.52"/>
						<path class="st33" d="M385.26,1043.45c-1.32,3.74-1.22,7.8-1.22,11.75c0,4.25,0.1,8.5,0.2,12.66
							c0.31,8.51,0.92,17.01,1.83,25.52c0.2,1.93,3.24,1.93,3,0c-0.91-8.3-1.52-16.71-1.83-25c-0.1-4.15-0.2-8.3-0.2-12.46
							c0-3.95-0.2-7.9,1.12-11.64c0.6-1.93-2.33-2.64-2.94-0.81L385.26,1043.45z"/>
						<path class="st39" d="M386.78,1043.85c-1.12,2.84-1.22,6.18-1.22,9.32c-0.1,13.43,0.57,26.86,2,40.21"/>
						<path class="st33" d="M394.37,1043.75c-1.21,3.65-1.11,7.6-1.11,11.45c0,4.25,0.1,8.5,0.2,12.76c0.31,8.51,0.81,17,1.62,25.42
							c0.21,1.93,3.24,1.93,3,0c-0.81-8.3-1.31-16.61-1.62-24.91c-0.1-4.16-0.2-8.31-0.3-12.57c0-3.84-0.2-7.69,1-11.34
							c0.71-1.92-2.23-2.74-2.84-0.81H394.37z"/>
						<path class="st40" d="M395.89,1044.15c-1,2.84-1,6.08-1,9.32c0,13.37,0.61,26.75,1.93,40"/>
						<path class="st33" d="M403.49,1044.05c-1.11,3.75-0.91,7.7-0.91,11.65c0,4.26,0.1,8.51,0.3,12.66
							c0.31,8.31,0.81,16.72,1.42,25c0.2,1.93,3.24,1.93,3,0c-0.71-8.2-1.11-16.3-1.42-24.51l-0.3-12.15c0-4-0.31-8,0.81-11.86
							c0.16-0.83-0.39-1.63-1.22-1.79c-0.73-0.14-1.46,0.27-1.72,0.98L403.49,1044.05z"/>
						<path class="st41" d="M405.01,1044.46c-0.91,2.83-0.91,6.08-0.91,9.22c0.1,13.27,0.71,26.64,1.72,39.7"/>
						<path class="st33" d="M412.61,1044.32c-0.91,3.75-0.81,7.7-0.71,11.54c0.1,4.16,0.2,8.31,0.3,12.57
							c0.31,8.3,0.71,16.61,1.32,24.91c0.1,1.93,3.14,1.93,3,0c-0.61-8.1-1-16.3-1.32-24.41c-0.1-4.05-0.2-8-0.3-12.05
							s-0.31-8,0.61-11.75c0.16-0.83-0.39-1.63-1.22-1.79c-0.73-0.14-1.46,0.27-1.72,0.98L412.61,1044.32z"/>
						<path class="st42" d="M414.13,1044.76c-0.7,3.02-0.94,6.13-0.71,9.22c0.2,13.17,0.71,26.44,1.62,39.4"/>
						<path class="st33" d="M421.68,1044.66c-0.66,3.81-0.86,7.69-0.6,11.55l0.3,12.46c0.3,8.3,0.61,16.51,1.11,24.71
							c0.11,1.93,3.14,1.93,3,0c-0.4-8.1-0.81-16.2-1.11-24.31c-0.1-4-0.2-8-0.3-12s-0.41-7.9,0.4-11.75
							c0.51-1.82-2.43-2.63-2.84-0.71L421.68,1044.66z"/>
						<path class="st43" d="M423.24,1045.07c-0.71,2.83-0.6,6.07-0.6,9.11c0.3,13.07,0.81,26.24,1.52,39.2"/>
						<path class="st33" d="M430.84,1044.86c-0.54,3.89-0.68,7.83-0.4,11.75c0.1,4.06,0.2,8.21,0.4,12.26
							c0.3,8.1,0.61,16.31,0.91,24.41c0.1,1.93,3.14,1.93,3,0c-0.3-8-0.61-15.9-0.91-23.9c-0.1-4-0.3-8-0.41-12s-0.4-7.8,0.31-11.64
							c0.3-1.93-2.53-2.74-2.94-0.92L430.84,1044.86z"/>
						<path class="st44" d="M432.36,1045.32c-0.5,3.01-0.64,6.07-0.41,9.12c0.41,13,0.82,26,1.32,38.89"/>
						<path class="st33" d="M439.96,1045.17c-0.47,3.8-0.55,7.63-0.21,11.44c0.11,4.16,0.31,8.21,0.41,12.36
							c0.3,8.11,0.51,16.21,0.71,24.31c0.1,1.93,3.14,1.93,3,0c-0.2-7.9-0.41-15.9-0.71-23.8c-0.1-4-0.31-7.9-0.41-11.85
							s-0.5-7.8,0.1-11.65c0.31-1.83-2.63-2.74-2.93-0.81L439.96,1045.17z"/>
						<path class="st45" d="M441.48,1045.57c-0.43,2.98-0.5,6-0.21,9c0.51,12.86,0.92,25.83,1.22,38.59"/>
						<path class="st33" d="M449.07,1045.88c-0.25,3.81-0.25,7.63,0,11.44c0.21,4,0.31,8,0.41,12c0.3,8,0.4,15.9,0.51,23.9
							c0.14,0.83,0.92,1.39,1.75,1.25c0.64-0.11,1.15-0.61,1.25-1.25c-0.1-8-0.3-15.9-0.5-23.9c-0.1-4-0.31-8-0.41-12
							c-0.3-3.81-0.3-7.63,0-11.44c0.21-1.93-2.83-1.93-3,0H449.07z"/>
						<path class="st46" d="M450.59,1045.88c-0.28,2.99-0.32,6-0.1,9c0.51,12.76,0.91,25.73,1.12,38.39"/>
						<path class="st33" d="M458.19,1046.18c-0.18,3.82-0.12,7.64,0.2,11.45c0.21,4,0.31,7.9,0.51,11.85c0.2,7.9,0.4,15.9,0.4,23.8
							c0.14,0.83,0.92,1.39,1.75,1.25c0.64-0.11,1.15-0.61,1.25-1.25c0-7.9-0.1-15.9-0.4-23.8c-0.1-4-0.31-7.9-0.51-11.85
							c-0.32-3.81-0.38-7.63-0.2-11.45C461.29,1044.26,458.25,1044.26,458.19,1046.18z"/>
						<path class="st47" d="M459.68,1046.18c-0.17,2.97-0.13,5.95,0.1,8.91c0.61,12.67,1,25.53,0.91,38.09"/>
						<path class="st33" d="M467.31,1046.48c-0.07,3.89,0.06,7.78,0.4,11.65c0.2,4,0.41,7.8,0.51,11.75c0.2,7.8,0.3,15.6,0.2,23.4
							c0.14,0.83,0.92,1.39,1.75,1.25c0.64-0.11,1.15-0.61,1.25-1.25c0.1-7.8,0.1-15.6-0.2-23.4c-0.1-3.85-0.31-7.69-0.51-11.44
							c-0.34-3.94-0.47-7.9-0.4-11.85C470.31,1044.59,467.31,1044.59,467.31,1046.48L467.31,1046.48z"/>
						<path class="st48" d="M468.83,1046.48c-0.09,2.97-0.02,5.95,0.2,8.92c0.71,12.56,1,25.32,0.81,37.88"/>
						<path class="st33" d="M476.42,1046.79c0,3.75,0.31,7.6,0.51,11.34c0.2,4,0.4,7.9,0.51,11.75c0.2,7.8,0.2,15.5,0,23.3
							c-0.11,1.93,2.93,1.93,3,0c0.2-7.8,0.2-15.5,0-23.3c-0.11-3.85-0.31-7.69-0.51-11.54s-0.61-7.7-0.51-11.55
							c-0.14-0.83-0.92-1.39-1.75-1.25C477.03,1045.64,476.53,1046.14,476.42,1046.79L476.42,1046.79z"/>
						<path class="st49" d="M477.94,1046.79c0,2.83,0.21,5.87,0.41,8.81c0.81,12.46,1.11,25.12,0.71,37.58"/>
						<path class="st33" d="M485.54,1047.09c0.2,7.7,1,15.3,1.32,23s0.2,15.39-0.21,23.09c-0.1,1.93,2.94,1.93,3,0
							c0.31-7.7,0.41-15.4,0.21-23.09s-1.12-15.3-1.32-23C488.44,1045.17,485.4,1045.17,485.54,1047.09z"/>
						<path class="st50" d="M487.06,1047.09c0.1,2.84,0.3,5.78,0.51,8.81c0.93,12.4,1.09,24.85,0.5,37.28"/>
						<path class="st33" d="M494.68,1047.4c0.4,7.59,1.21,15.09,1.52,22.79s0.1,15.39-0.41,23c-0.1,1.93,2.94,1.93,3,0
							c0.51-7.7,0.61-15.4,0.4-23s-1-15.2-1.51-22.79C497.57,1045.47,494.54,1045.47,494.68,1047.4L494.68,1047.4z"/>
						<path class="st51" d="M496.18,1047.4c0.2,2.83,0.4,5.77,0.7,8.71c1.05,12.33,1.19,24.72,0.41,37.07"/>
						<path class="st33" d="M503.77,1047.7c0.71,7.5,1.42,15,1.72,22.59c0.2,7.64,0,15.28-0.6,22.89c-0.1,1.93,2.93,1.93,3,0
							c0.61-7.61,0.81-15.25,0.6-22.89c-0.2-7.6-1-15.09-1.72-22.59C506.57,1045.78,503.53,1045.78,503.77,1047.7z"/>
						<path class="st52" d="M505.29,1047.7c0.31,2.84,0.61,5.77,0.81,8.71c1.12,12.23,1.22,24.53,0.31,36.77"/>
						<path class="st33" d="M512.89,1048c2.04,14.97,2.41,30.13,1.11,45.18c-0.2,1.93,2.84,1.93,3,0
							c1.3-15.05,0.93-30.21-1.11-45.18C515.58,1046.08,512.55,1046.08,512.89,1048z"/>
						<path class="st53" d="M514.41,1048c0.4,2.84,0.71,5.78,1,8.61c1.2,12.16,1.24,24.4,0.1,36.57"/>
						<path class="st33" d="M522.01,1048.71c2.34,14.67,2.72,29.6,1.11,44.37c-0.2,1.92,2.84,1.92,3,0
							c1.62-15.05,1.21-30.24-1.22-45.18c-0.3-1.92-3.24-1.11-2.93,0.81H522.01z"/>
					</g>
				</g>
			</g>
		</g>
		<path class="st7" d="M427.19,1123.37c-6.07-3.85-30.59-19.15-35.55-21.78c-0.38-0.21-0.75-0.45-1.11-0.71
			c-0.21-0.2-0.21-1-0.21-1.52l-0.71-15.5l-1.82-0.4c-11-2.64-22.39-5.27-32.52-10.54c-10.83-5.67-19.95-13.88-30.38-24.41
			c-0.92-0.95-1.44-2.23-1.42-3.55c0.1-4.15,0.3-8.3,0.61-12.35c1.26-16.59,15.06-29.42,31.7-29.48h1l154.17,4.86
			c10.99,0.31,19.77,9.26,19.86,20.26c0.1,5.78,0.1,11.45,0.1,16.82c0,1.26-0.51,2.47-1.42,3.34l-0.1,0.2
			c-10.33,10.64-19.45,18.84-30.39,24.41c-10.13,5.27-21.47,7.9-32.51,10.54l-1.83,0.4l-0.71,15.4c0,0.51-0.07,1.02-0.2,1.52
			c-0.19,0.16-0.39,0.29-0.61,0.4c-0.3,0.21-0.5,0.31-0.81,0.51C461.13,1102.7,441.17,1114.86,427.19,1123.37z"/>
		<path class="st33" d="M355.88,1005.46h0.91l154.17,4.86c9.6,0.3,17.25,8.12,17.33,17.73c0.1,5.77,0.1,11.34,0.1,16.71
			c0.01,0.6-0.2,1.18-0.61,1.62l-0.1,0.1c-10.13,10.44-19.15,18.44-29.68,23.91c-9.83,5.06-21.07,7.8-31.91,10.33l-3.75,0.91
			l-0.2,3.85l-0.3,7l-0.31,6.69v0.1c-0.21,0.07-0.38,0.22-0.5,0.4c-1.52,1-20.47,12.67-33.73,20.77
			c-7.7-4.86-29.58-18.54-34.34-21.07v-0.1l-0.31-6.69l-0.3-7l-0.2-3.85l-3.75-0.91c-10.84-2.53-22.08-5.26-31.91-10.33
			c-10.53-5.47-19.55-13.57-29.68-24c-0.45-0.45-0.67-1.08-0.61-1.72c0.1-4.15,0.31-8.3,0.61-12.25
			c1.12-15.23,13.8-27.03,29.07-27.05 M355.88,1000.41c-17.97,0.01-32.9,13.88-34.24,31.8c-0.3,3.85-0.5,8-0.6,12.46
			c-0.08,2.01,0.69,3.96,2.12,5.37l0,0c9.32,9.52,19.15,18.74,31,24.92c10.33,5.37,21.78,8.1,33.12,10.74
			c0.21,4.55,0.41,9.11,0.61,13.57c-0.05,0.95,0.16,1.89,0.61,2.73c0.53,0.67,1.21,1.19,2,1.52c5.47,2.94,36.66,22.59,36.66,22.59
			s34.95-21.27,36.67-22.59c0.75-0.39,1.42-0.9,2-1.52c0.45-0.84,0.66-1.78,0.61-2.73c0.2-4.56,0.4-9.12,0.6-13.57
			c11.35-2.74,22.8-5.47,33.13-10.74c11.85-6.08,21.67-15.4,31-24.92l0.1-0.2c1.34-1.39,2.1-3.24,2.13-5.17
			c0-5.27,0-10.94-0.1-16.81c-0.07-12.34-9.94-22.39-22.28-22.69l-154.12-4.85c-0.31,0.14-0.66,0.17-1,0.11L355.88,1000.41z"/>
		<path class="st54" d="M418.08,1103.82c1.87,0.91,3.92,1.4,6,1.42c1.4,0.02,2.79-0.12,4.16-0.41c2.61-0.48,5.01-1.76,6.88-3.65
			c0.21-0.2,0.21-0.4,0.41-0.71h-0.41c-2.59,2.07-5.95,2.91-9.21,2.33c-2.96-0.46-5.66-1.97-7.6-4.25
			c-2.34-2.66-3.41-6.21-2.94-9.72c0.26-3.09,1.47-6.03,3.45-8.41c1.7-2.09,3.99-3.61,6.58-4.36c3.01-0.97,6.22-1.15,9.32-0.5
			c2.02,0.44,3.92,1.3,5.57,2.53c0.15,0.09,0.33,0.13,0.51,0.1c0.01-0.14-0.02-0.29-0.1-0.41c-2.03-2.06-4.54-3.59-7.3-4.45
			c-1.31-0.41-2.73-0.61-4.05-0.91l-2.13-0.11c-0.1,0-0.1,0.11-0.2,0.11c-2.96,0.09-5.86,0.92-8.41,2.43
			c-2.79,1.57-5.13,3.84-6.78,6.58c-2.04,3.33-2.83,7.28-2.23,11.14c0.23,1.64,0.78,3.23,1.62,4.66c1.03,1.92,2.48,3.59,4.25,4.87
			c0.82,0.67,1.7,1.24,2.64,1.72"/>
		<path class="st55" d="M446.68,1091.32c0.14-4.2-1.65-8.23-4.86-10.94c-3.39-3.03-7.97-4.37-12.46-3.65
			c-3.18,0.33-6.15,1.74-8.41,4c-0.19,0.12-0.33,0.3-0.4,0.51c0,0.1,0.1,0.1,0.1,0.2c0.2-0.1,0.3-0.1,0.51-0.2
			c2.56-1.8,5.71-2.56,8.81-2.13c3.76,0.44,7.09,2.62,9,5.88c1.89,3.1,2.37,6.86,1.32,10.33c-1,4.69-4.32,8.54-8.81,10.23
			c-2.88,1.19-6.05,1.53-9.12,1c-2.1-0.34-4.1-1.14-5.87-2.33c-0.21-0.1-0.81-0.71-1-0.61s-0.2,0.11-0.4,0.21
			c0.1,0.1,0.2,0.3,0.3,0.3c2.84,2.77,6.51,4.55,10.44,5.07c3.94,0.58,7.97-0.17,11.44-2.13c6-3.55,9.32-8.71,9.42-15.7"/>
		<path class="st56" d="M434.18,1090.85c-2,1.93-3.95,3.65-6,5.47c-0.1,0.1-0.61,0-0.71-0.1c-1.32-1.42-2.64-2.84-3.95-4.15
			c-0.41-0.51-0.91-0.91-1.42-1.52l0.61-0.61c1.72-1.62,3.44-3.24,5.06-4.86c0.31-0.31,0.51-0.31,0.71,0
			c1.32,1.42,2.63,2.83,4.05,4.25c0.51,0.51,1,1,1.62,1.52"/>
		<circle class="st57" cx="494.61" cy="1114.99" r="2.03"/>
		<line class="st58" x1="495.77" y1="1113.85" x2="493.44" y2="1116.18"/>
		<line class="st58" x1="493.54" y1="1113.95" x2="495.67" y2="1116.07"/>
		<circle class="st57" cx="466.19" cy="1149.4" r="2.03"/>
		<line class="st58" x1="467.41" y1="1148.29" x2="465.08" y2="1150.62"/>
		<line class="st58" x1="465.18" y1="1148.39" x2="467.31" y2="1150.51"/>
		<circle class="st57" cx="365.91" cy="1113.95" r="2.03"/>
		<line class="st58" x1="364.8" y1="1112.83" x2="367.13" y2="1115.16"/>
		<line class="st58" x1="367.02" y1="1112.93" x2="364.9" y2="1115.06"/>
		<circle class="st57" cx="397.31" cy="1150.41" r="2.03"/>
		<line class="st58" x1="396.2" y1="1149.3" x2="398.53" y2="1151.63"/>
		<line class="st58" x1="398.43" y1="1149.4" x2="396.3" y2="1151.53"/>
		<g>
			<defs>
				<path id="SVGID_33_" d="M427.68,1092.67c-68.07,0-93.7-15.19-105.45-25.52c-0.27,6.04-0.24,12.09,0.1,18.13
					c0.32,3.04,2.51,5.55,5.47,6.28c24.31,5.37,47.51,35.25,59,60.07c0.9,1.92,2.89,3.08,5,2.94c14.08-1.22,66.05-0.81,80.13-0.61
					c2.14,0.01,4.09-1.21,5-3.14c10.53-23.4,30.79-51,52.47-58.25c2.23-0.75,3.77-2.81,3.85-5.16c0.1-4.76,0-11.45-0.1-18.74
					C520.28,1079.41,491.11,1092.67,427.68,1092.67z"/>
			</defs>
			<clipPath id="SVGID_34_">
				<use xlink:href="#SVGID_33_"  style="overflow:visible;"/>
			</clipPath>
			<g class="st59">
				<path class="st18" d="M530.01,1096.63c0.5-8.26-0.39-16.55-2.64-24.52c-0.23-0.81-1.07-1.28-1.88-1.05
					c-0.8,0.23-1.27,1.05-1.05,1.86c2.15,7.71,3.01,15.72,2.53,23.71c-0.1,1.92,2.94,1.92,3,0H530.01z"/>
			</g>
		</g>
		<g>
			<defs>
				<path id="SVGID_35_" d="M427.68,1092.67c-68.07,0-93.7-15.19-105.45-25.52c-0.27,6.04-0.24,12.09,0.1,18.13
					c0.32,3.04,2.51,5.55,5.47,6.28c24.31,5.37,47.51,35.25,59,60.07c0.9,1.92,2.89,3.08,5,2.94c14.08-1.22,66.05-0.81,80.13-0.61
					c2.14,0.01,4.09-1.21,5-3.14c10.53-23.4,30.79-51,52.47-58.25c2.23-0.75,3.77-2.81,3.85-5.16c0.1-4.76,0-11.45-0.1-18.74
					C520.28,1079.41,491.11,1092.67,427.68,1092.67z"/>
			</defs>
			<clipPath id="SVGID_36_">
				<use xlink:href="#SVGID_35_"  style="overflow:visible;"/>
			</clipPath>
			<g class="st60">
				<path class="st18" d="M332.89,1093.89c-0.51-7.73,0-15.49,1.52-23.09c0.4-1.93-2.53-2.74-2.94-0.82
					c-1.55,7.87-2.1,15.9-1.62,23.91c0.1,1.92,3.14,1.92,3,0L332.89,1093.89z"/>
			</g>
		</g>
		<circle class="st57" cx="521.9" cy="1092.67" r="2.03"/>
		<line class="st58" x1="523.12" y1="1091.56" x2="520.79" y2="1093.89"/>
		<line class="st58" x1="520.89" y1="1091.66" x2="523.02" y2="1093.79"/>
		<circle class="st57" cx="336.54" cy="1089.64" r="2.03"/>
		<line class="st58" x1="335.42" y1="1088.52" x2="337.75" y2="1090.85"/>
		<line class="st58" x1="337.65" y1="1088.62" x2="335.52" y2="1090.75"/>
		<polygon class="st61" points="328.86,1019.75 345.39,1018.91 353.05,1105.88 336.52,1106.72 		"/>
		<polygon class="st61" points="496.45,1009.1 513.03,1008.9 514.44,1101.36 497.86,1101.56 		"/>
		<polygon class="st61" points="514.44,1083.89 514.36,1100.43 336.51,1106.45 336.59,1089.92 		"/>
	</g>
</g>
<path class="st7" d="M558.48,992.95c0.38,1.61,1.99,2.62,3.6,2.24c0.23-0.05,0.46-0.14,0.67-0.24c14.5-7.69,28.43-16.4,41.7-26.06
	c0,0,28.12-21.85,44.78-46.29c0,0,3.94-7.19-4.65-15.26c0,0-3.94-3.14-5.84,6.19c0,0-30.28-0.68-40.17-1
	c-2.02-0.1-3.98,0.7-5.35,2.19C573.79,934.67,553.89,968.1,558.48,992.95z"/>
<path class="st8" d="M649.68,913.85c0.54,1.34,0.84,2.77,0.89,4.22c0.06,1.66-0.27,3.31-0.95,4.82
	c-16.51,24.28-44.59,46.22-44.93,46.46c-13.31,9.66-27.27,18.38-41.79,26.1c-1.02,0.5-2.2,0.53-3.24,0.07
	c-0.95-0.48-1.63-1.39-1.82-2.44c-2.09-11.48,0.82-25.77,8.38-41.22c6.85-13.72,15.78-26.29,26.46-37.29
	c1.47-1.59,3.56-2.44,5.72-2.34c9.12,0.25,36,0.85,39.72,0.92c0.84-3.7,2-5.91,3.78-6.48c0.94-0.32,1.98-0.16,2.78,0.44
	C646.9,908.89,648.62,911.21,649.68,913.85z M559.08,993.37c0.19,0.53,0.6,0.97,1.12,1.19c0.71,0.38,1.57,0.38,2.28,0
	c14.45-7.69,28.36-16.38,41.6-26c0.24-0.2,28.23-22.11,44.63-46.12c0.11-0.27,3.59-7-4.62-14.62c-0.53-0.4-1.22-0.5-1.84-0.26
	c-1,0.37-2.25,1.75-3.25,6.16v0.45h-0.45c-0.32,0-30.38-0.65-40.18-1c-1.89-0.11-3.73,0.64-5,2.05c-28.27,29-37.81,60.53-34.6,77.66
	l0,0C559.06,993.05,559.01,993.18,559.08,993.37z"/>
<g>
	<defs>
		<path id="SVGID_37_" d="M558.48,992.95c0.38,1.61,1.99,2.62,3.6,2.24c0.23-0.05,0.46-0.14,0.67-0.24
			c14.5-7.69,28.43-16.4,41.7-26.06c0,0,28.12-21.85,44.78-46.29c0,0,3.94-7.19-4.65-15.26c0,0-3.94-3.14-5.84,6.19
			c0,0-30.28-0.68-40.17-1c-2.02-0.1-3.98,0.7-5.35,2.19C573.79,934.67,553.89,968.1,558.48,992.95z"/>
	</defs>
	<clipPath id="SVGID_38_">
		<use xlink:href="#SVGID_37_"  style="overflow:visible;"/>
	</clipPath>
	<g class="st62">
		<circle class="st12" cx="562.16" cy="987.6" r="2.03"/>
		<line class="st15" x1="561.52" y1="989.04" x2="562.85" y2="986.03"/>
		<line class="st15" x1="560.81" y1="986.93" x2="563.56" y2="988.14"/>
	</g>
</g>
<g>
	<defs>
		<path id="SVGID_39_" d="M558.48,992.95c0.38,1.61,1.99,2.62,3.6,2.24c0.23-0.05,0.46-0.14,0.67-0.24
			c14.5-7.69,28.43-16.4,41.7-26.06c0,0,28.12-21.85,44.78-46.29c0,0,3.94-7.19-4.65-15.26c0,0-3.94-3.14-5.84,6.19
			c0,0-30.28-0.68-40.17-1c-2.02-0.1-3.98,0.7-5.35,2.19C573.79,934.67,553.89,968.1,558.48,992.95z"/>
	</defs>
	<clipPath id="SVGID_40_">
		<use xlink:href="#SVGID_39_"  style="overflow:visible;"/>
	</clipPath>
	<g class="st63">
		<circle class="st12" cx="571.87" cy="951.19" r="2.03"/>
		<line class="st15" x1="571.24" y1="952.63" x2="572.56" y2="949.61"/>
		<line class="st15" x1="570.52" y1="950.52" x2="573.27" y2="951.73"/>
	</g>
</g>
<g>
	<defs>
		<path id="SVGID_41_" d="M558.48,992.95c0.38,1.61,1.99,2.62,3.6,2.24c0.23-0.05,0.46-0.14,0.67-0.24
			c14.5-7.69,28.43-16.4,41.7-26.06c0,0,28.12-21.85,44.78-46.29c0,0,3.94-7.19-4.65-15.26c0,0-3.94-3.14-5.84,6.19
			c0,0-30.28-0.68-40.17-1c-2.02-0.1-3.98,0.7-5.35,2.19C573.79,934.67,553.89,968.1,558.48,992.95z"/>
	</defs>
	<clipPath id="SVGID_42_">
		<use xlink:href="#SVGID_41_"  style="overflow:visible;"/>
	</clipPath>
	<g class="st64">
		<circle class="st12" cx="595.85" cy="917.91" r="2.03"/>
		<line class="st15" x1="595.22" y1="919.35" x2="596.54" y2="916.33"/>
		<line class="st15" x1="594.5" y1="917.24" x2="597.26" y2="918.45"/>
	</g>
</g>
<g>
	<defs>
		<path id="SVGID_43_" d="M558.48,992.95c0.38,1.61,1.99,2.62,3.6,2.24c0.23-0.05,0.46-0.14,0.67-0.24
			c14.5-7.69,28.43-16.4,41.7-26.06c0,0,28.12-21.85,44.78-46.29c0,0,3.94-7.19-4.65-15.26c0,0-3.94-3.14-5.84,6.19
			c0,0-30.28-0.68-40.17-1c-2.02-0.1-3.98,0.7-5.35,2.19C573.79,934.67,553.89,968.1,558.48,992.95z"/>
	</defs>
	<clipPath id="SVGID_44_">
		<use xlink:href="#SVGID_43_"  style="overflow:visible;"/>
	</clipPath>
	<g class="st65">
		<path class="st18" d="M554.68,986.6c14.12-4.51,27.27-11.64,38.77-21c1.48-1.23-0.34-3.67-1.82-2.44
			c-11.29,9.19-24.2,16.18-38.06,20.62c-1.83,0.6-0.72,3.43,1.11,2.83V986.6z"/>
	</g>
</g>
<g>
	<defs>
		<path id="SVGID_45_" d="M558.48,992.95c0.38,1.61,1.99,2.62,3.6,2.24c0.23-0.05,0.46-0.14,0.67-0.24
			c14.5-7.69,28.43-16.4,41.7-26.06c0,0,28.12-21.85,44.78-46.29c0,0,3.94-7.19-4.65-15.26c0,0-3.94-3.14-5.84,6.19
			c0,0-30.28-0.68-40.17-1c-2.02-0.1-3.98,0.7-5.35,2.19C573.79,934.67,553.89,968.1,558.48,992.95z"/>
	</defs>
	<clipPath id="SVGID_46_">
		<use xlink:href="#SVGID_45_"  style="overflow:visible;"/>
	</clipPath>
	<g class="st66">
		<path class="st18" d="M594.45,963.32c-1.66-2.37-1.62-5.53,0.09-7.86c1.88-2.51,4.74-4.1,7.86-4.37c3.44-0.37,5.85,2.17,7.56,4.87
			c1.85,2.86,2.77,6.22,2.66,9.62c0.09,0.81,0.8,1.39,1.61,1.33c0.8-0.1,1.38-0.81,1.33-1.61c0.04-3.32-0.75-6.6-2.31-9.53
			c-1.52-2.78-3.71-5.62-6.54-7s-6.49-0.73-9.24,0.56c-2.86,1.2-5.17,3.42-6.49,6.23c-1.4,3.12-1.02,6.75,1,9.51
			c0.48,0.68,1.42,0.85,2.1,0.38s0.85-1.42,0.38-2.1L594.45,963.32z"/>
	</g>
</g>
<g>
	<defs>
		<path id="SVGID_47_" d="M558.48,992.95c0.38,1.61,1.99,2.62,3.6,2.24c0.23-0.05,0.46-0.14,0.67-0.24
			c14.5-7.69,28.43-16.4,41.7-26.06c0,0,28.12-21.85,44.78-46.29c0,0,3.94-7.19-4.65-15.26c0,0-3.94-3.14-5.84,6.19
			c0,0-30.28-0.68-40.17-1c-2.02-0.1-3.98,0.7-5.35,2.19C573.79,934.67,553.89,968.1,558.48,992.95z"/>
	</defs>
	<clipPath id="SVGID_48_">
		<use xlink:href="#SVGID_47_"  style="overflow:visible;"/>
	</clipPath>
	<g class="st67">
		<path class="st18" d="M603.56,949.91c1.14-15.63,6.77-30.59,16.23-43.09c1.15-1.53-1.23-3.43-2.37-1.9
			c-9.8,12.91-15.65,28.37-16.87,44.53c-0.09,2,2.91,2.46,3,0.46H603.56z"/>
	</g>
</g>
<g>
	<defs>
		<path id="SVGID_49_" d="M558.48,992.95c0.38,1.61,1.99,2.62,3.6,2.24c0.23-0.05,0.46-0.14,0.67-0.24
			c14.5-7.69,28.43-16.4,41.7-26.06c0,0,28.12-21.85,44.78-46.29c0,0,3.94-7.19-4.65-15.26c0,0-3.94-3.14-5.84,6.19
			c0,0-30.28-0.68-40.17-1c-2.02-0.1-3.98,0.7-5.35,2.19C573.79,934.67,553.89,968.1,558.48,992.95z"/>
	</defs>
	<clipPath id="SVGID_50_">
		<use xlink:href="#SVGID_49_"  style="overflow:visible;"/>
	</clipPath>
	<g class="st68">
		<circle class="st10" cx="603.35" cy="961.08" r="12.66"/>
	</g>
</g>
<g>
	<defs>
		<path id="SVGID_51_" d="M558.48,992.95c0.38,1.61,1.99,2.62,3.6,2.24c0.23-0.05,0.46-0.14,0.67-0.24
			c14.5-7.69,28.43-16.4,41.7-26.06c0,0,28.12-21.85,44.78-46.29c0,0,3.94-7.19-4.65-15.26c0,0-3.94-3.14-5.84,6.19
			c0,0-30.28-0.68-40.17-1c-2.02-0.1-3.98,0.7-5.35,2.19C573.79,934.67,553.89,968.1,558.48,992.95z"/>
	</defs>
	<clipPath id="SVGID_52_">
		<use xlink:href="#SVGID_51_"  style="overflow:visible;"/>
	</clipPath>
	<g class="st69">
		<circle class="st11" cx="603.35" cy="961.08" r="8.61"/>
	</g>
</g>
<g>
	<defs>
		<path id="SVGID_53_" d="M558.48,992.95c0.38,1.61,1.99,2.62,3.6,2.24c0.23-0.05,0.46-0.14,0.67-0.24
			c14.5-7.69,28.43-16.4,41.7-26.06c0,0,28.12-21.85,44.78-46.29c0,0,3.94-7.19-4.65-15.26c0,0-3.94-3.14-5.84,6.19
			c0,0-30.28-0.68-40.17-1c-2.02-0.1-3.98,0.7-5.35,2.19C573.79,934.67,553.89,968.1,558.48,992.95z"/>
	</defs>
	<clipPath id="SVGID_54_">
		<use xlink:href="#SVGID_53_"  style="overflow:visible;"/>
	</clipPath>
	<g class="st70">
		<circle class="st12" cx="603.35" cy="961.08" r="4.96"/>
		<line class="st71" x1="601.74" y1="964.76" x2="605.06" y2="957.37"/>
		<line class="st71" x1="600.03" y1="959.55" x2="606.72" y2="962.49"/>
	</g>
</g>
<path class="st7" d="M269.82,919.44c-9.69-1.5-35.61-5.5-43-4.74c0,0,3.25-6.93-2.64-6.3c0,0-8.58,4.2-8.61,12.66
	c0,0,16.27,29.61,42.85,52.27c0,0,5.94,6.93,34.16,26.2c1.39,0.9,3.25,0.5,4.15-0.89c0.16-0.25,0.29-0.53,0.37-0.82
	c5.06-22.27-7.47-53.85-21.63-75C274.04,921.07,272.04,919.88,269.82,919.44z"/>
<path class="st8" d="M217.07,914.24c1.72-2.67,4.1-4.85,6.92-6.31h0.14c1.65-0.17,2.85,0.22,3.49,1.1c1,1.46,0.37,3.81-0.07,5.09
	c8.5-0.43,33.75,3.5,42.28,4.76l0,0c2.32,0.45,4.41,1.71,5.89,3.56c14.49,21.57,26.75,53.21,21.74,75.4
	c-0.31,1.09-1.12,1.96-2.18,2.34c-1.03,0.42-2.2,0.28-3.1-0.38c-28-19.11-34-26-34.24-26.26c-26.29-22.36-42.73-52.08-42.94-52.32
	v-0.14v-0.14C215.12,918.56,215.83,916.26,217.07,914.24z M224.36,908.87c-0.86,0.42-8.16,4.47-8.24,12.06
	c1.13,2,17.34,30.39,42.64,52c0.17,0.11,6.38,7.2,34.07,26.15c1.09,0.77,2.59,0.51,3.36-0.57c0.17-0.24,0.3-0.52,0.37-0.81
	c4.93-21.87-7.27-53.24-21.54-74.56c-1.35-1.64-3.22-2.76-5.3-3.18c-8.78-1.42-35.38-5.48-42.87-4.77l-0.87,0.05l0.4-0.83
	c0.45-0.91,1.38-3.55,0.41-4.87C226.13,908.94,225.23,908.7,224.36,908.87z"/>
<g>
	<defs>
		<path id="SVGID_55_" d="M269.82,919.44c-9.69-1.5-35.61-5.5-43-4.74c0,0,3.25-6.93-2.64-6.3c0,0-8.58,4.2-8.61,12.66
			c0,0,16.27,29.61,42.85,52.27c0,0,5.94,6.93,34.16,26.2c1.39,0.9,3.25,0.5,4.15-0.89c0.16-0.25,0.29-0.53,0.37-0.82
			c5.06-22.27-7.47-53.85-21.63-75C274.04,921.07,272.04,919.88,269.82,919.44z"/>
	</defs>
	<clipPath id="SVGID_56_">
		<use xlink:href="#SVGID_55_"  style="overflow:visible;"/>
	</clipPath>
	<g class="st72">
		<circle class="st12" cx="294.06" cy="996.76" r="2.03"/>
		<line class="st15" x1="294.58" y1="998.4" x2="293.61" y2="995.17"/>
		<line class="st15" x1="295.5" y1="996.35" x2="292.61" y2="997.17"/>
	</g>
</g>
<g>
	<defs>
		<path id="SVGID_57_" d="M269.82,919.44c-9.69-1.5-35.61-5.5-43-4.74c0,0,3.25-6.93-2.64-6.3c0,0-8.58,4.2-8.61,12.66
			c0,0,16.27,29.61,42.85,52.27c0,0,5.94,6.93,34.16,26.2c1.39,0.9,3.25,0.5,4.15-0.89c0.16-0.25,0.29-0.53,0.37-0.82
			c5.06-22.27-7.47-53.85-21.63-75C274.04,921.07,272.04,919.88,269.82,919.44z"/>
	</defs>
	<clipPath id="SVGID_58_">
		<use xlink:href="#SVGID_57_"  style="overflow:visible;"/>
	</clipPath>
	<g class="st73">
		<circle class="st12" cx="289.44" cy="959.38" r="2.03"/>
		<line class="st15" x1="289.96" y1="961.02" x2="289" y2="957.79"/>
		<line class="st15" x1="290.89" y1="958.97" x2="287.99" y2="959.79"/>
	</g>
</g>
<g>
	<defs>
		<path id="SVGID_59_" d="M269.82,919.44c-9.69-1.5-35.61-5.5-43-4.74c0,0,3.25-6.93-2.64-6.3c0,0-8.58,4.2-8.61,12.66
			c0,0,16.27,29.61,42.85,52.27c0,0,5.94,6.93,34.16,26.2c1.39,0.9,3.25,0.5,4.15-0.89c0.16-0.25,0.29-0.53,0.37-0.82
			c5.06-22.27-7.47-53.85-21.63-75C274.04,921.07,272.04,919.88,269.82,919.44z"/>
	</defs>
	<clipPath id="SVGID_60_">
		<use xlink:href="#SVGID_59_"  style="overflow:visible;"/>
	</clipPath>
	<g class="st74">
		<circle class="st12" cx="270.29" cy="923.08" r="2.03"/>
		<line class="st15" x1="270.82" y1="924.72" x2="269.85" y2="921.49"/>
		<line class="st15" x1="271.74" y1="922.67" x2="268.84" y2="923.49"/>
	</g>
</g>
<g>
	<defs>
		<path id="SVGID_61_" d="M269.82,919.44c-9.69-1.5-35.61-5.5-43-4.74c0,0,3.25-6.93-2.64-6.3c0,0-8.58,4.2-8.61,12.66
			c0,0,16.27,29.61,42.85,52.27c0,0,5.94,6.93,34.16,26.2c1.39,0.9,3.25,0.5,4.15-0.89c0.16-0.25,0.29-0.53,0.37-0.82
			c5.06-22.27-7.47-53.85-21.63-75C274.04,921.07,272.04,919.88,269.82,919.44z"/>
	</defs>
	<clipPath id="SVGID_62_">
		<use xlink:href="#SVGID_61_"  style="overflow:visible;"/>
	</clipPath>
	<g class="st75">
		<path class="st18" d="M303.17,994.21c-13.12-6.28-24.96-14.96-34.9-25.59c-0.57-0.62-1.53-0.66-2.15-0.09
			c-0.62,0.57-0.66,1.53-0.09,2.15l0,0c10.11,10.84,22.16,19.69,35.53,26.1C303.3,997.63,304.91,995.05,303.17,994.21L303.17,994.21
			z"/>
	</g>
</g>
<g>
	<defs>
		<path id="SVGID_63_" d="M269.82,919.44c-9.69-1.5-35.61-5.5-43-4.74c0,0,3.25-6.93-2.64-6.3c0,0-8.58,4.2-8.61,12.66
			c0,0,16.27,29.61,42.85,52.27c0,0,5.94,6.93,34.16,26.2c1.39,0.9,3.25,0.5,4.15-0.89c0.16-0.25,0.29-0.53,0.37-0.82
			c5.06-22.27-7.47-53.85-21.63-75C274.04,921.07,272.04,919.88,269.82,919.44z"/>
	</defs>
	<clipPath id="SVGID_64_">
		<use xlink:href="#SVGID_63_"  style="overflow:visible;"/>
	</clipPath>
	<g class="st76">
		<path class="st18" d="M267.68,970.61c2.11-2.16,3.08-5.2,2.59-8.18c-1.39-6.49-7.39-10.93-14-10.37c-3.18,0.52-5.83,3-7.79,5.41
			c-2.38,2.93-3.86,6.49-4.24,10.25c-0.22,1.89,2.82,2,3,0.1c0.4-3.35,1.83-6.49,4.08-9c2-2.31,4.73-4.33,7.93-3.53
			c3.02,0.72,5.62,2.64,7.19,5.32c1.42,2.52,1.09,5.67-0.83,7.84c-1.48,1.22,0.58,3.46,2,2.19L267.68,970.61z"/>
	</g>
</g>
<g>
	<defs>
		<path id="SVGID_65_" d="M269.82,919.44c-9.69-1.5-35.61-5.5-43-4.74c0,0,3.25-6.93-2.64-6.3c0,0-8.58,4.2-8.61,12.66
			c0,0,16.27,29.61,42.85,52.27c0,0,5.94,6.93,34.16,26.2c1.39,0.9,3.25,0.5,4.15-0.89c0.16-0.25,0.29-0.53,0.37-0.82
			c5.06-22.27-7.47-53.85-21.63-75C274.04,921.07,272.04,919.88,269.82,919.44z"/>
	</defs>
	<clipPath id="SVGID_66_">
		<use xlink:href="#SVGID_65_"  style="overflow:visible;"/>
	</clipPath>
	<g class="st77">
		<path class="st18" d="M261.3,953.76c1.03-16.17-2.63-32.3-10.54-46.44c-1-1.68-3.66-0.25-2.69,1.43
			c7.66,13.68,11.2,29.28,10.19,44.92c-0.1,2.08,2.9,2,3,0.1L261.3,953.76z"/>
	</g>
</g>
<g>
	<defs>
		<path id="SVGID_67_" d="M269.82,919.44c-9.69-1.5-35.61-5.5-43-4.74c0,0,3.25-6.93-2.64-6.3c0,0-8.58,4.2-8.61,12.66
			c0,0,16.27,29.61,42.85,52.27c0,0,5.94,6.93,34.16,26.2c1.39,0.9,3.25,0.5,4.15-0.89c0.16-0.25,0.29-0.53,0.37-0.82
			c5.06-22.27-7.47-53.85-21.63-75C274.04,921.07,272.04,919.88,269.82,919.44z"/>
	</defs>
	<clipPath id="SVGID_68_">
		<use xlink:href="#SVGID_67_"  style="overflow:visible;"/>
	</clipPath>
	<g class="st78">
		<circle class="st10" cx="258" cy="965.56" r="12.66"/>
	</g>
</g>
<g>
	<defs>
		<path id="SVGID_69_" d="M269.82,919.44c-9.69-1.5-35.61-5.5-43-4.74c0,0,3.25-6.93-2.64-6.3c0,0-8.58,4.2-8.61,12.66
			c0,0,16.27,29.61,42.85,52.27c0,0,5.94,6.93,34.16,26.2c1.39,0.9,3.25,0.5,4.15-0.89c0.16-0.25,0.29-0.53,0.37-0.82
			c5.06-22.27-7.47-53.85-21.63-75C274.04,921.07,272.04,919.88,269.82,919.44z"/>
	</defs>
	<clipPath id="SVGID_70_">
		<use xlink:href="#SVGID_69_"  style="overflow:visible;"/>
	</clipPath>
	<g class="st79">
		<circle class="st11" cx="258" cy="965.56" r="8.61"/>
	</g>
</g>
<g>
	<defs>
		<path id="SVGID_71_" d="M269.82,919.44c-9.69-1.5-35.61-5.5-43-4.74c0,0,3.25-6.93-2.64-6.3c0,0-8.58,4.2-8.61,12.66
			c0,0,16.27,29.61,42.85,52.27c0,0,5.94,6.93,34.16,26.2c1.39,0.9,3.25,0.5,4.15-0.89c0.16-0.25,0.29-0.53,0.37-0.82
			c5.06-22.27-7.47-53.85-21.63-75C274.04,921.07,272.04,919.88,269.82,919.44z"/>
	</defs>
	<clipPath id="SVGID_72_">
		<use xlink:href="#SVGID_71_"  style="overflow:visible;"/>
	</clipPath>
	<g class="st80">
		
			<ellipse transform="matrix(0.588 -0.8089 0.8089 0.588 -674.6453 606.4972)" class="st12" cx="258.03" cy="965.5" rx="4.96" ry="4.96"/>
		<line class="st71" x1="261.96" y1="964.57" x2="254.01" y2="966.41"/>
		<line class="st71" x1="258.81" y1="969.05" x2="257.16" y2="961.93"/>
	</g>
</g>
<circle class="st81" cx="431.14" cy="913.89" r="153.46"/>
<path class="st82" d="M522.11,859.9c-18.24-36.37-63.21-49.84-94.71-53.08c0,0-32.52-4.56-27.56,10.33c0,0,10.34,16.92-20,11.25
	c-38.59-7.3-65.74,63.91-57.74,106.25c7.7,41.13,54.9,70.91,133.41,59.77c8-1.12,38.79-8.41,52.06-17.32
	C563.03,939.62,537.3,890.32,522.11,859.9z"/>
<path class="st83" d="M495.77,887.05c-1.62-1.04-3.78-0.59-4.86,1l-5.47,8.41c-1.03,1.62-0.59,3.77,1,4.86
	c1.6,1.07,3.77,0.64,4.84-0.97c0.01-0.01,0.01-0.02,0.02-0.03l5.47-8.41c1.08-1.57,0.67-3.72-0.9-4.8
	C495.84,887.09,495.81,887.07,495.77,887.05z"/>
<path class="st83" d="M505.9,889.68c-1.62-1.03-3.77-0.59-4.86,1l-5.47,8.41c-1.04,1.62-0.59,3.78,1,4.86
	c0.77,0.52,1.72,0.7,2.63,0.51c0.92-0.18,1.73-0.73,2.23-1.52l5.47-8.41c1.07-1.56,0.68-3.7-0.88-4.77
	C505.99,889.73,505.94,889.7,505.9,889.68z"/>
<path class="st83" d="M367.23,893.32c-1.62-1.04-3.78-0.59-4.86,1l-5.47,8.41c-1.04,1.62-0.59,3.78,1,4.86
	c1.6,1.07,3.77,0.64,4.84-0.97c0.01-0.01,0.01-0.02,0.02-0.03l5.47-8.41C369.29,896.56,368.84,894.39,367.23,893.32z"/>
<path class="st83" d="M377.36,895.86c-1.63-1.03-3.78-0.59-4.87,1l-5.47,8.46c-1.03,1.62-0.59,3.77,1,4.86
	c1.6,1.07,3.77,0.64,4.84-0.97c0.01-0.01,0.01-0.02,0.02-0.03l5.47-8.41C379.42,899.13,378.98,896.95,377.36,895.86z"/>
<path class="st84" d="M423.24,938.81c0,0,2.23,23.3,18.24,20.66s12.86-22.49,12.86-27.75s-15.9-12.56-15.9-12.56L423.24,938.81z"/>
<path class="st83" d="M487.26,910.14c-4.25-4.66-10.84-6.68-16.91-7.39c-10.23-1.07-20.44,2.19-28.16,9
	c-2.14,1.91-3.48,4.55-3.75,7.4c-0.65-1.43-1.46-2.77-2.43-4c-7.4-9.22-20.36-12.87-31.81-12.06c-8.61,0.61-18.74,2.43-25.53,8.41
	c-0.1,0.1-0.2,0.1-0.2,0.2c-5.57,5.07-8,14.08-3.24,20.57c3.34,4.45,9.62,6.78,14.79,8.2c12.05,3.44,27.25,4.86,38.69-1.22
	c3.77-1.89,6.9-4.85,9-8.5c0.9-1.56,1.49-3.28,1.72-5.07c1.62,3.45,5.07,5.27,8.71,6.28c8.61,2.53,18.34,3.45,27.15,1.22
	C484.93,930.81,496.28,919.97,487.26,910.14z"/>
<path class="st85" d="M442.19,924.42c4.35-1.41,10.63-5.26,10.33-12.25c-0.41-11.25-16-13.88-23.91-12.87
	c-9.11,1.22-16.91,10.23-15.19,18.74c1.52,7.19,11.44,8.21,18.74,8.21C435.57,926.04,438.94,925.43,442.19,924.42z"/>
<path class="st85" d="M396.4,900.01L396.4,900.01c-6.15-0.51-10.73-5.9-10.23-12.05l0,0c0.52-6.14,5.9-10.71,12.05-10.23l0,0
	c6.15,0.51,10.73,5.9,10.23,12.05l0,0c-0.44,6.1-5.75,10.69-11.86,10.25C396.53,900.02,396.47,900.01,396.4,900.01z"/>
<path class="st85" d="M465.38,898.8L465.38,898.8c-6.15-0.52-10.72-5.91-10.23-12.06l0,0c0.53-6.15,5.91-10.71,12.06-10.23l0,0
	c6.15,0.53,10.71,5.91,10.23,12.06l0,0C476.91,894.71,471.53,899.27,465.38,898.8z"/>
<ellipse transform="matrix(0.0821 -0.9966 0.9966 0.0821 -442.2344 1243.2637)" class="st85" cx="453.84" cy="861.72" rx="4.96" ry="7.6"/>
<ellipse transform="matrix(0.0821 -0.9966 0.9966 0.0821 -490.3901 1192.4081)" class="st85" cx="402.15" cy="862.43" rx="4.96" ry="7.6"/>
<path class="st83" d="M455.68,960.69c-1.73-0.16-3.27,1.1-3.45,2.83c-0.2,2.13-5.16,4.56-8.4,5.37c-4.53,1.11-9.29,0.72-13.58-1.11
	c-0.57-0.83-1.53-1.29-2.53-1.22c-1.71,0.05-3.06,1.48-3,3.2c0,0.01,0,0.03,0,0.04c0.02,1.16,0.63,2.23,1.62,2.84
	c2.74,2.13,10.74,4.36,19.15,2.43c0.41-0.1,0.82-0.24,1.21-0.4c3.24-1,11.35-4.16,12-10.54
	C458.8,962.35,457.46,960.82,455.68,960.69z"/>
<path class="st86" d="M299.06,885.02c13.16-11.14,24.31-57.7,125.62-58.7s141.81,56.72,141.81,56.72l13.19-24.36l-58.75-72.93
	l-131.72,11.14l-82.25,31.71l-19,43.25L299.06,885.02z"/>
<path class="st87" d="M421.52,1069.38c-32.21,0-64.62-18.34-91.47-35.25c-24.81-15.7-42.54-56.63-48.62-77l30.59-5.16
	c9.12,30.89,56.93,64.93,110.82,64.22c30.49-0.31,61.28-7.4,84.48-19.35c17.93-9.22,39.81-25.93,41.63-52.88l31.4,1.22
	c-2,29.07-25.93,66.75-55.31,91.57c-25.42,21.47-65.23,32.21-101.7,32.62L421.52,1069.38z"/>
<path class="st7" d="M297.03,875.32c0,0,9.42-59.46,135.74-59.46s128.44,54.19,128.44,54.19s-33.43,107.45,11.47,105.43
	s40.72-71,27.15-106.46s-45.92-130.47-169.09-129.46s-166,95-171.19,139.89s-4.25,107.57,28.13,107.57S324.18,929.59,297.03,875.32z
	"/>
<path class="st8" d="M287.68,987.53c-6.46,0.04-12.62-2.78-16.81-7.7c-7.4-8.2-11.86-23-13.48-43.76s0-42.24,1.73-56.62
	c2.63-22.89,14.89-57.64,41.43-86.71c31.7-34.64,76.78-53.18,130.26-53.69c119.93-1,153.77,88.33,168.25,126.52l1.22,3.24
	c9.11,23.91,15.09,68.17-0.21,91.78c-6.28,9.62-15.49,14.79-27.35,15.39c-7.19,0.31-12.86-2.12-16.81-7.29
	c-7.7-9.93-9.22-29.58-4.46-58.45c2.29-13.61,5.4-27.07,9.32-40.31c-0.1-1.12-1.42-14-16.71-26.74c-14.79-12.26-46.19-27-111.22-27
	c-36,0-85.09,5.17-114.87,29.58c-16.82,13.78-20,27.65-20.26,29.27c18.84,37.79,23.4,80,10.84,100.39
	C303.51,983.38,296.42,987.53,287.68,987.53z M432.68,740.07h-1.92c-53.18,0.4-97.95,18.84-129.46,53.38
	c-26.45,28.87-38.62,63.41-41.24,86.1c-2,18-7.4,78.4,11.55,99.67c4.01,4.72,9.9,7.43,16.1,7.4c8.41,0,15.09-3.85,19.75-11.45
	c12.46-20.15,7.9-62-10.94-99.57l-0.1-0.1v-0.18c0-0.11,2.64-15.2,20.67-30.09c16.59-13.59,50.14-29.91,115.59-29.91
	c36.06,0,84.79,4.76,111.93,27.25c16.31,13.57,17,26.94,17,27.45v0.2c-0.2,0.71-23,74.76-5.06,98c3.75,4.87,9.11,7.2,16,6.89
	c11.45-0.5,20.46-5.57,26.54-14.89c9.12-14,15.2-51.46,0.1-90.86l-1.21-3.24C583.8,828.19,550.27,740.07,432.68,740.07z"/>
<g>
	<defs>
		<path id="SVGID_73_" d="M297.03,875.32c0,0,9.42-59.46,135.74-59.46s128.44,54.19,128.44,54.19s-33.43,107.45,11.47,105.43
			s40.72-71,27.15-106.46s-45.92-130.47-169.09-129.46s-166,95-171.19,139.89s-4.25,107.57,28.13,107.57
			S324.18,929.59,297.03,875.32z"/>
	</defs>
	<clipPath id="SVGID_74_">
		<use xlink:href="#SVGID_73_"  style="overflow:visible;"/>
	</clipPath>
	<g class="st88">
		<path class="st18" d="M328.53,747.87c-3.34,16.31,0.21,33.12,7.7,47.71c7.8,15,19.75,27.35,32.92,37.58
			c7.55,5.81,15.43,11.19,23.6,16.1c0.74,0.39,1.66,0.11,2.05-0.64c0.37-0.7,0.14-1.57-0.53-1.99c-14-8.61-27.55-18-38.89-29.88
			c-11.15-11.65-19.86-25.73-23.5-41.63c-2.09-8.71-2.27-17.76-0.51-26.54C331.88,746.75,328.94,745.94,328.53,747.87z"/>
		<path class="st18" d="M534.77,748.68c3.24,15.7-0.41,32.11-7.8,46.19c-7.6,14.48-19.25,26.33-32.11,36.26
			c-7.38,5.62-15.05,10.83-23,15.6c-1.62,1-0.1,3.65,1.52,2.63c14.39-8.81,28.47-18.63,40.12-31c11.44-12.06,20.36-26.74,23.9-43.15
			c1.98-9,2.08-18.31,0.31-27.35c-0.41-1.93-3.35-1.12-2.94,0.81L534.77,748.68z"/>
	</g>
</g>
<path class="st12" d="M616.31,883.4c-5.47-2.94-5.27-7.09-20.56-7.7c-10.33-0.4-19.45,18.74-20.46,42.85s6.68,43.86,17,44.26
	c12.46,0.51,13.17-2.32,19.76-5C618.94,955.12,621.88,886.24,616.31,883.4z"/>
<ellipse transform="matrix(0.0386 -0.9993 0.9993 0.0386 -331.9232 1495.0964)" class="st55" cx="610.99" cy="920.04" rx="37.78" ry="16.31"/>
<pattern  id="SVGID_75_" xlink:href="#SVGID_111_" patternTransform="matrix(1.08 0.04 -0.04 1.08 2225.3242 21221.6719)">
</pattern>
<path class="st89" d="M627.25,920.47c-0.81,20.87-8.71,37.48-17.73,37.18s-15.59-17.53-14.78-38.39s8.71-37.48,17.72-37.18
	S628.06,899.61,627.25,920.47z"/>
<path class="st90" d="M612.16,882.08v6.59c0.81,0,3.14,1.82,5.27,7.29c2.43,6.38,3.64,15.19,3.34,24.31
	c-0.81,21.27-8.61,30.9-10.94,30.9c-2.53-0.11-9.32-11.15-8.51-31.61c0.81-21.27,8.61-30.89,10.94-30.89L612.16,882.08
	 M612.16,882.08c-8.92,0-16.61,16.51-17.42,37.18c-0.81,20.86,5.87,38.08,14.78,38.39h0.31c8.91,0,16.61-16.51,17.42-37.18
	c0.81-20.86-5.87-38.08-14.79-38.39H612.16z"/>
<path class="st12" d="M257.73,967.78c5.87,2,6.28,6.18,21.47,4.25c10.23-1.31,16.21-21.67,13.27-45.58s-13.67-42.24-23.9-40.92
	c-12.36,1.52-12.56,4.45-18.74,8.1S251.85,965.85,257.73,967.78z"/>
<ellipse transform="matrix(0.9925 -0.1226 0.1226 0.9925 -112.1537 38.5359)" class="st55" cx="257.16" cy="930.89" rx="16.31" ry="37.78"/>
<pattern  id="SVGID_76_" xlink:href="#SVGID_112_" patternTransform="matrix(1.07 -0.13 0.13 1.07 4411.835 18306.5566)">
</pattern>
<path class="st91" d="M241.01,932.93c-2.53-20.76,2.64-38.39,11.55-39.5s18.23,14.79,20.77,35.55s-2.65,38.39-11.55,39.51
	S243.55,953.6,241.01,932.93z"/>
<path class="st90" d="M253.37,899.81L253.37,899.81c0.71,0,3.34,1.32,6.59,7c3.34,6,5.77,14.08,6.88,22.89
	c2.54,20.36-3.34,31.91-5.87,32.21h-0.1c-0.71,0-3.34-1.31-6.59-7c-3.34-6-5.77-14.08-6.88-22.89c-2.44-20.26,3.44-31.91,6-32.21
	l0,0 M253.4,893.33c-0.31-0.02-0.61,0.02-0.91,0.1c-8.91,1.11-14.08,18.84-11.55,39.5c2.43,20.06,11.25,35.66,20,35.66
	c0.31,0.02,0.61-0.02,0.91-0.1c8.91-1.12,14.08-18.84,11.55-39.51C270.86,908.82,262.15,893.33,253.4,893.33L253.4,893.33z"/>
<line class="st92" x1="431.55" y1="743.92" x2="431.55" y2="721.63"/>
<circle class="st93" cx="431.04" cy="717.58" r="17.22"/>
<path class="st7" d="M433.07,708.46c0.77,0.15,1.52,0.39,2.23,0.71c-0.21-0.1-0.51-0.2-0.71-0.3c0.85,0.39,1.67,0.87,2.43,1.42
	c-0.2-0.21-0.41-0.31-0.61-0.51c0.74,0.59,1.41,1.26,2,2c-0.2-0.21-0.31-0.41-0.51-0.61c0.41,0.58,0.78,1.19,1.12,1.82
	c0.41,0.68,1.06,1.19,1.82,1.42c0.79,0.21,1.62,0.1,2.33-0.3c0.68-0.42,1.18-1.07,1.42-1.83c0.21-0.79,0.1-1.62-0.31-2.33
	c-1.92-3.8-5.46-6.52-9.62-7.39c-0.79-0.21-1.62-0.1-2.33,0.3c-0.66,0.44-1.16,1.08-1.42,1.83c-0.21,0.79-0.1,1.62,0.31,2.33
	c0.41,0.68,1.06,1.18,1.82,1.41L433.07,708.46z"/>
<path class="st7" d="M439.96,721.43c0,0.1,0.1,0.1,0.1,0.2c-0.1-0.2-0.2-0.5-0.31-0.71c0.12,0.33,0.22,0.66,0.31,1
	c0-0.31-0.1-0.51-0.1-0.81v0.3c-0.02,0.31-0.09,0.62-0.21,0.91c0.11-0.2,0.21-0.51,0.31-0.71c-0.11,0.15-0.18,0.33-0.2,0.51
	c-0.2,0.34-0.34,0.72-0.41,1.11c-0.12,0.41-0.08,0.84,0.1,1.22c0.11,0.36,0.28,0.7,0.51,1c0.21,0.32,0.49,0.6,0.81,0.81
	c0.69,0.45,1.55,0.57,2.33,0.31c0.76-0.23,1.41-0.73,1.82-1.42c0.11-0.11,0.18-0.26,0.2-0.41c0.21-0.4,0.31-0.71,0.51-1.11
	c0-0.2,0.1-0.31,0.1-0.51c0.1-0.4,0.1-0.81,0.2-1.32v-0.48c-0.02-0.41-0.08-0.82-0.2-1.22c-0.14-0.56-0.34-1.11-0.61-1.62
	c-0.19-0.34-0.47-0.62-0.81-0.81c-0.28-0.26-0.62-0.44-1-0.5c-0.4-0.09-0.8-0.13-1.21-0.11c-0.41-0.02-0.82,0.13-1.12,0.41
	c-0.68,0.42-1.18,1.08-1.4,1.85c0,0.31-0.1,0.51-0.1,0.81c0.01,0.47,0.15,0.93,0.41,1.32L439.96,721.43z"/>
<g class="st94">
	<path class="st7" d="M520.49,913.59c-4.59-24.57-16.84-47.05-35-64.23l20.16-21.27c22.63,21.48,37.89,49.56,43.6,80.23
		L520.49,913.59z"/>
</g>
<circle class="st95" cx="272.72" cy="891.1" r="2.03"/>
<line class="st15" x1="274.44" y1="891.1" x2="271.1" y2="891.2"/>
<line class="st15" x1="272.72" y1="889.68" x2="272.82" y2="892.62"/>
<circle class="st95" cx="287.91" cy="922.5" r="2.03"/>
<line class="st15" x1="289.64" y1="922.5" x2="286.29" y2="922.6"/>
<line class="st15" x1="287.91" y1="921.08" x2="288.01" y2="924.02"/>
<circle class="st95" cx="284.87" cy="962" r="2.03"/>
<line class="st15" x1="286.6" y1="962" x2="283.25" y2="962.11"/>
<line class="st15" x1="284.87" y1="960.59" x2="284.98" y2="963.52"/>
<circle class="st95" cx="594.84" cy="879.96" r="2.03"/>
<line class="st15" x1="596.56" y1="879.96" x2="593.22" y2="880.06"/>
<line class="st15" x1="594.84" y1="878.54" x2="594.94" y2="881.48"/>
<circle class="st95" cx="579.64" cy="915.41" r="2.03"/>
<line class="st15" x1="581.36" y1="915.41" x2="578.02" y2="915.51"/>
<line class="st15" x1="579.64" y1="913.99" x2="579.74" y2="916.93"/>
<circle class="st95" cx="589.77" cy="957.95" r="2.03"/>
<line class="st15" x1="591.49" y1="957.95" x2="588.15" y2="958.05"/>
<line class="st15" x1="589.77" y1="956.53" x2="589.87" y2="959.47"/>
<path class="st96" d="M297.54,874.38c6.07-14.18,28.16-57.63,129.65-58.75s128.55,40.93,133.71,53.69"/>
<line class="st0" x1="558.63" y1="902.22" x2="550.5" y2="933.49"/>
<line class="st0" x1="581.51" y1="882.98" x2="570.77" y2="913.45"/>
<path class="st97" d="M370.47,1070.92l7.37-0.1c2.93-0.04,5.33,2.3,5.37,5.23c0,0,0,0,0,0l0.33,24.57c0.04,2.93-2.3,5.33-5.23,5.37
	c0,0,0,0,0,0l-13.26,0.18l1.63-10.62l6.19-0.09l-0.19-14h-3.85L370.47,1070.92z M357.2,1071.09l13.27-0.17l-1.64,10.62l-6.18,0.09
	l0.19,14h3.84l-1.63,10.62l-7.37,0.1c-2.93,0.04-5.34-2.3-5.38-5.23l-0.33-24.57c-0.08-2.94,2.24-5.38,5.18-5.46
	C357.16,1071.09,357.18,1071.09,357.2,1071.09L357.2,1071.09z"/>
<path class="st97" d="M486.1,1069.69l7.37-0.1c2.93-0.04,5.34,2.3,5.38,5.23l0.32,24.57c0.04,2.93-2.29,5.34-5.22,5.38c0,0,0,0,0,0
	l-13.26,0.17l1.63-10.62l6.18-0.08l-0.18-14h-3.85L486.1,1069.69z M472.85,1069.86l13.25-0.17l-1.63,10.62l-6.18,0.09l0.19,14h3.84
	l-1.63,10.62l-7.37,0.1c-2.93,0.04-5.33-2.3-5.38-5.22l-0.33-24.58c-0.07-2.94,2.25-5.39,5.2-5.46
	C472.82,1069.86,472.84,1069.86,472.85,1069.86z"/>
<line class="st98" x1="63.69" y1="359.97" x2="339.27" y2="1051.94"/>
<line class="st98" x1="506.1" y1="1056.41" x2="722.23" y2="363.83"/>
</svg>
