<?xml version="1.0" encoding="utf-8"?>
<!-- Generator: Adobe Illustrator 24.0.3, SVG Export Plug-In . SVG Version: 6.00 Build 0)  -->
<svg version="1.1" id="圖層_1" xmlns="http://www.w3.org/2000/svg" xmlns:xlink="http://www.w3.org/1999/xlink" x="0px" y="0px"
	 viewBox="0 0 155.4 36.6" style="enable-background:new 0 0 155.4 36.6;" xml:space="preserve">
<style type="text/css">
	.st0{fill:#DE2726;}
	.st1{opacity:0.6;fill:#E7D927;enable-background:new    ;}
	.st2{opacity:0.6;fill:#E9DA3F;enable-background:new    ;}
	.st3{fill:#E4BB75;}
	.st4{fill:#E6F4FB;}
	.st5{fill:#626467;}
	.st6{fill:url(#SVGID_1_);}
	.st7{fill:#3B3C3F;}
	.st8{opacity:0.9;fill:#B4B5B7;enable-background:new    ;}
	.st9{fill:url(#SVGID_2_);}
	.st10{fill:#C2BFC0;}
	.st11{fill:url(#SVGID_3_);}
	.st12{fill:#FFFFFF;}
	.st13{fill:url(#SVGID_4_);}
	.st14{fill:#C1CD00;}
	.st15{fill:#FFDA56;}
	.st16{opacity:0.7;fill:#C7E5E7;enable-background:new    ;}
	.st17{opacity:0.7;fill:#FFFFFF;enable-background:new    ;}
	.st18{opacity:0.5;fill:#FFFFFF;enable-background:new    ;}
</style>
<g>
	<path class="st0" d="M136.3,33.1c-5.7-1.3-11.2-3-16.8-4.5c-0.1,0,9.4,1.9,14.1,2.9c-4.6-1.5-9.2-2.9-13.9-4.3
		c-3.1-1-6.1-2-9.2-2.9c-2.5-0.7-4.9-1.4-7.4-2.1c-0.7-0.2-1.4-0.4-2.1-0.6c-0.1,0,9,1.9,12.4,2.6c-1.2-0.5-2.5-0.9-3.8-1.4
		c-1.4-0.5-2.8-1-4.2-1.5c-1.5-0.6-3-1.1-4.5-1.7c-1.3-0.4-2.7-0.9-3.9-1.5c-0.1,0,6.2,1.8,9.4,2.7c-2.8-1.4-5.7-2.5-8.7-3.7
		c-0.9-0.3-1.8-0.6-2.8-0.9c-2.3-0.8-8-2.9-10.4-3.5c-2.8-0.8-8.8-1.7-11.7-1.7c-8.7,0-13.8,7.4-11,13.6c1,2.4,3.4,4.2,6.7,5.3
		c3.2,1.1,6.7,1.4,10.1,1.6c4.1,0.3,8.2,0.4,12.4,0.7c2.2,0.2,4.4,0.3,6.6,0.4c-2.5-0.5-5.1-0.9-7.6-1.3c-0.1,0,2.7,0.1,4,0.3
		c1.4,0.2,2.8,0.3,4.1,0.4c-1.7-0.4-5.1-1.2-4.9-1.2c7.1,0.6,14.2,2,21.3,2.4c0.3,0,0.7,0,1,0c-2.5-0.5-5.1-0.6-7.5-1.5
		c-0.1,0,6.7,0.4,8.2,0.5c3.5,0.3,6.9,0.5,10.4,0.9c2.7,0.3,11.6,1.1,13.4,1.3c1,0.1,2.1,0.1,3.2,0.2c0.6,0.1,1.1,0.2,1.7,0.2
		C142,34.3,139.1,33.7,136.3,33.1z"/>
	<path class="st1" d="M62.9,18.5c-0.3,1.1-0.8,2.3-0.4,3.5c0.3,1.2,0.7,2.3,1.7,3.4c1,1.2,2.6,2.3,4.3,3.1c0.9,0.4,1.7,0.7,2.7,1
		c0.7,0.2,1.5,0.3,2.2,0.6l0,0c-0.8-0.2-1.7-0.3-2.5-0.5c-0.9-0.2-1.8-0.6-2.6-1c-1.8-0.8-3.2-1.9-4.4-3.1
		C61.5,23.4,61.8,20.7,62.9,18.5C62.9,18.5,63,18.5,62.9,18.5z"/>
	<path class="st1" d="M68.9,12.3c0.7-0.2,1.4-0.3,2.1-0.4c2.8-0.4,5.9-0.4,8.9,0.1c0.1,0,0,0,0,0c-2.9-0.4-5.8-0.3-8.5,0.2
		c-1.3,0.2-2.7,0.5-3.8,0.9c-0.6,0.2-1.2,0.5-1.8,0.7C66.7,13.2,67.8,12.7,68.9,12.3z"/>
	<path class="st1" d="M80.8,33.7c-1.1,0-2.3,0-3.4,0s-2.3-0.2-3.4-0.3c-2.2-0.3-4.5-0.8-6.5-1.6c-2.1-0.8-4-1.7-5.4-3.1
		c-1.4-1.3-2.5-2.8-3-4.3h0.1c1.3,2.9,4.9,5.6,8.8,7c1.9,0.7,4.1,1.3,6.1,1.6c2.2,0.4,4.4,0.4,6.6,0.6
		C80.9,33.7,80.9,33.7,80.8,33.7z"/>
	<path class="st1" d="M62.2,14.2c-0.6,0.7-1,1.5-1.4,2.4c-0.4,0.7-0.6,1.4-0.8,2.1c-0.1,0.3-0.1,0.6-0.2,0.9
		c-0.1,0.6-0.2,1.1-0.1,1.7c0.1,0.4,0.1,0.8,0.2,1.1c-0.6-1.3-1-2.6-0.8-4s1-2.8,1.9-4c1-1.3,2.6-2.3,4.3-3c0.4-0.2,0.8-0.4,1.3-0.5
		C64.8,11.8,63.3,12.9,62.2,14.2z"/>
	<path class="st1" d="M84.7,11.3c-0.6-0.2-1.1-0.2-1.7-0.4c-0.6-0.1-1.3-0.3-1.9-0.4c-1.3-0.2-2.5-0.4-3.8-0.5
		c-2.5-0.3-4.9-0.4-7.3-0.3c-0.1,0-0.2-0.1-0.1-0.1c1.1-0.2,2.3-0.4,3.5-0.4c1.3,0,2.6,0.1,3.9,0.3c1.4,0.2,2.7,0.4,4.1,0.7
		c0.6,0.1,1.2,0.4,1.9,0.6c0.5,0.2,1.1,0.3,1.6,0.5C85,11.2,84.8,11.3,84.7,11.3z"/>
	<path class="st1" d="M91.6,32.8c-1.2-0.1-2.5,0-3.7,0c-1.5,0-2.9,0-4.4,0c-2.9,0-5.8-0.1-8.7-0.6c-0.2,0-0.1-0.1,0-0.1
		c1.4,0,2.9,0.1,4.3,0.2c1.5,0.1,2.9,0.1,4.4,0.2c1.5,0,2.9,0.1,4.4,0.1C89.1,32.6,90.4,32.6,91.6,32.8
		C91.7,32.8,91.7,32.8,91.6,32.8z"/>
	<path class="st1" d="M98.3,16.8c-4.5-1.6-9.2-2.9-13.7-4.6c-0.2-0.1,0.1-0.2,0.2-0.1c2.3,0.4,4.6,1.3,6.8,2
		C93.9,14.9,96.2,15.7,98.3,16.8C98.4,16.7,98.3,16.8,98.3,16.8z"/>
	<path class="st1" d="M122,26.4c-1.9-0.7-3.9-1.3-5.8-2s-3.7-1.5-5.6-2.3c-1.1-0.5-2.2-1-3.3-1.5c1.8,0.6,3.5,1.2,5.3,1.9
		c1.3,0.6,2.5,1.1,3.8,1.6C118.3,24.9,120.2,25.6,122,26.4C122.2,26.4,122.1,26.4,122,26.4z"/>
	<path class="st1" d="M144.8,33c-3.9-1-7.9-1.9-11.8-3.1c-1.9-0.6-3.8-1.2-5.6-1.8c-1.8-0.6-3.6-1.3-5.1-2.1
		c-0.2-0.1,0.1-0.1,0.2-0.1C129.8,28.5,137.4,30.8,144.8,33C145,33,144.9,33,144.8,33z"/>
	<path class="st1" d="M131.7,34.6c1.4,0.2,2.7,0.3,4.1,0.5c0.8,0.1,1.7,0.2,2.5,0.3c1.5,0.2,3.1,0.5,4.6,0.8c-0.4,0-0.8,0-1.1,0
		c-1.8-0.1-3.7-0.3-5.5-0.5s-3.6-0.4-5.3-0.6c-1.3-0.2-2.6-0.4-3.9-0.6C128.6,34.4,130.2,34.4,131.7,34.6z"/>
	<path class="st1" d="M128.4,35.5c-1-0.1-2-0.1-3-0.1c-1.1,0-2.3-0.1-3.4-0.2c-2.4-0.2-4.7-0.3-7.1-0.4c-2.3-0.2-4.7-0.4-7-0.6
		c-2.3-0.2-4.6-0.6-7-1c-0.1,0-0.1-0.1,0-0.1c2.3,0.2,4.7,0.3,7,0.5c2.4,0.2,4.8,0.4,7.2,0.6c2.3,0.2,4.6,0.3,7,0.6
		c1.1,0.1,2.3,0.2,3.4,0.3C126.5,35.2,127.5,35.2,128.4,35.5C128.6,35.4,128.5,35.5,128.4,35.5z"/>
	<path class="st1" d="M111.7,34.9c-0.5-0.1-1.1,0-1.6-0.1c-0.5,0-1.1,0-1.6,0c-1.2,0-2.3,0-3.5,0c-2.5,0-5-0.1-7.5-0.2
		c-4.8-0.1-9.7-0.2-14.5-0.7c-0.2,0-0.1-0.1,0-0.1c4.9,0.1,9.8,0.3,14.7,0.4c2.5,0.1,5,0.2,7.5,0.2c1.2,0,2.5,0.1,3.7,0.1
		C109.8,34.6,110.9,34.6,111.7,34.9C111.8,34.9,111.8,34.9,111.7,34.9z"/>
	<path class="st1" d="M155.3,35.9c-1-0.3-1.9-0.7-2.8-1c-1.1-0.4-2.1-0.8-3.2-1.1c-2.2-0.7-4.5-1.5-6.7-2.2s-4.4-1.4-6.7-2.1
		c-2.2-0.7-4.5-1.2-6.8-1.7c-0.1,0-0.1,0,0,0.1c2.2,0.7,4.4,1.5,6.6,2.2c2.3,0.7,4.6,1.4,6.8,2.1c2.2,0.7,4.4,1.4,6.7,2.1
		c1.1,0.3,2.2,0.6,3.3,1C153.4,35.4,154.3,35.7,155.3,35.9C155.4,35.9,155.4,35.9,155.3,35.9z"/>
	<path class="st1" d="M123.4,25.5c-0.5-0.1-1-0.4-1.5-0.6s-1-0.4-1.4-0.6c-1.1-0.5-2.1-0.9-3.2-1.4c-2.3-0.9-4.6-1.8-6.9-2.7
		c-4.5-1.7-8.9-3.5-13.6-5c-0.2-0.1-0.2,0.1,0,0.1c4.5,1.8,9.1,3.5,13.6,5.3c2.3,0.9,4.6,1.8,6.9,2.7c0.9,0.4,2,0.8,3.5,1.3
		C121.6,25,122.6,25.4,123.4,25.5C123.6,25.6,123.5,25.5,123.4,25.5z"/>
	<path class="st1" d="M60.8,11.3c1.8-1.2,3.8-2.2,6.2-2.9c2.6-0.7,5.7-0.8,8.6-0.6c3.1,0.2,6.5,1.3,9.5,2.3c3.2,1,6.3,2.3,9.5,3.2
		c0.1,0,0,0.1-0.1,0.1c-2.5-0.7-5-1.6-7.4-2.4c-3.1-1-6.4-1.8-9.7-2.2c-6.3-0.9-11.9,0.1-16.5,2.6C60.8,11.4,60.7,11.4,60.8,11.3z"
		/>
	<path class="st1" d="M63.2,31.4L63.2,31.4c-3.2-2-5.8-4.9-6.5-7.8c-0.3-1.3-0.4-2.8-0.3-4c0.2-1.4,0.8-2.8,1.7-4c0,0,0.2-0.1,0.1,0
		c-1.5,2.4-2,5.6-0.8,8.4c1.3,3,3.5,5.5,6.9,7.5s7.3,2.8,11.3,3.6c4.2,0.8,8.4,1,12.5,1.3c0.1,0,0,0.1-0.1,0.1
		c-4.6-0.2-9.2-0.6-13.8-1.4C70.4,34.5,66.3,33.4,63.2,31.4z"/>
	<path class="st2" d="M82.8,29.6c2.3,0.3,4.5,0.6,6.9,0.7c1.9,0.1,3.7,0.1,5.6,0.2c2.4,0.1,4.8,0.2,7.2,0.2
		c-1.1-0.4-2.4-0.5-3.5-0.7c-1-0.2-1.9-0.4-2.9-0.5c1.2,0.1,2.4,0.1,3.5,0.2c1.3,0.1,2.6,0.3,4,0.4c1,0,1.9,0,2.9,0
		c-2.2-0.5-4.5-1-6.8-1.4c1.3,0.1,2.6,0.2,3.9,0.3c0.7,0.1,1.9,0.4,2.5,0c0.1-0.1,0.1-0.1,0-0.2c-1-0.5-2.5-0.7-3.6-0.9
		c-0.8-0.2-1.6-0.4-2.4-0.6c1,0.2,2,0.3,2.9,0.5c2.5,0.4,5,0.5,7.6,0.7c1.1,0.1,2.3,0.2,3.4,0.4c0.7,0.1,1.4,0.2,2.2,0.2
		c0.1,0,0.5-0.2,0.3-0.3c-0.6-0.5-1.7-0.8-2.5-1.1c-1.4-0.5-2.8-1-4.3-1.6c-2.9-1-5.9-2-8.9-3c-2.6-0.8-5.2-1.7-7.9-2.4
		c-0.3-0.1-0.5-0.1-0.8-0.2c0.2,0,0.4,0,0.5,0c2,0,4.1,0.2,6.1,0.4c1.1,0.1,2.5,0.5,3.6,0.5c0.1,0,0.4-0.1,0.3-0.3
		c-0.8-0.7-2.4-1-3.5-1.3c-1.9-0.6-3.8-1.2-5.7-1.8c-1.9-0.5-3.8-1-5.7-1.4c-1.4-0.3-2.8-0.4-4.2-0.5c1.3,0,2.6,0.1,3.7,0.2
		s2.4,0.4,3.5,0.4c0.1,0,0.5-0.2,0.3-0.3c-2.3-1-5-1.5-7.5-1.9c-1.3-0.2-2.6-0.4-3.9-0.5c-0.8-0.1-1.5,0-2.3,0
		c1.1-0.1,2.2-0.1,3.4-0.2c1.3,0,2.7,0.2,4,0.2c0.1,0,0.5-0.2,0.2-0.3c-1.3-0.5-2.8-0.9-4.3-1.2s-3-0.5-4.3-0.6
		c-2.4-0.2-5.5,0-7.7,0.6c-4.3,1.3-7.3,4.2-7.5,7.7c-0.1,1.8,0.3,3.6,1.8,5.2c1.6,1.7,4.2,2.8,6.9,3.5c5.2,1.4,10.5,1.6,15.8,2
		c1-0.1,1.9-0.2,2.9-0.2c-1.4-0.4-3-0.5-4.4-0.8c-0.6-0.1-1.2-0.3-1.8-0.4C82.5,29.6,82.6,29.6,82.8,29.6z"/>
	<path class="st3" d="M69.9,27.7c-3-0.7-5.1-2.3-6.4-4.3c-0.3-0.5-0.5-1-0.6-1.6c0,0.1,0,0.2-0.1,0.3c0,0-0.1,0.1-0.1,0
		c0-0.6-0.2-1.1-0.1-1.7c0.2-0.8,0.5-1.6,0.8-2.4c0.2-0.5,0.5-1,0.8-1.5c0.3-0.5,0.7-0.9,1.1-1.2c2.1-1.2,4.6-2.1,7.2-2.4
		c1,0,2,0.1,3.1,0.3c-1.8,0.1-3.7,0.9-5.2,1.8c1.3-0.5,2.9-0.7,4.3-0.9c0.1,0,0.3,0,0.4,0c2.2,0,4.5,0.5,6.7,1.3
		c-1.5,0-2.9,0-4.4,0.2c-1.7,0.2-4,0.6-5.5,1.3c0.5-0.1,0.9-0.2,1.4-0.2c0.9-0.1,1.7-0.2,2.6-0.2c2.1-0.1,4.2,0.2,6.3,0.7
		c0.1,0,0.2,0,0.3,0.1c3.2,1,6.4,2.1,9.3,3.5c-0.1,0-0.1,0-0.2,0c-1.4-0.2-2.6-0.5-4-0.5c-1.2,0-2.5,0-3.7-0.1c-0.3,0-0.7,0-0.9,0
		c0.7,0.1,1.4,0.2,2.1,0.3c1.4,0.2,2.9,0.5,4.3,0.8c2.6,0.6,5.1,1.5,7.5,2.4c0.6,0.2,3.8,1.1,3.9,1.8c0,0.1,0,0.2-0.1,0.2
		c-0.8,0.3-2.3,0.2-3.1,0.2c-2.3,0-4.6,0-7,0.1c-1.4,0-2.9,0-4.3-0.1c0.1,0,0.2,0,0.3,0.1c0.9,0.2,1.9,0.5,2.8,0.7
		c1,0.3,2,0.4,3,0.8c0.1,0,0.1,0.1,0.1,0.1c-0.6,0.1-1.3,0.2-1.9,0.3c-0.9,0-1.9-0.1-2.7-0.1c-2.2-0.1-4.4-0.1-6.5-0.3
		c-1.7-0.1-3.4-0.4-5.1-0.7c1.4,0.6,2.7,1.1,4.1,1.7c-0.6,0.1-1.2,0.2-1.7,0.3c-0.8,0-1.6,0-2.3,0C73.9,28.5,71.8,28.2,69.9,27.7z"
		/>
	<path class="st4" d="M64.9,24.4c-1.1-1.3-1.6-2.9-1.4-4.3c0.1-0.3,0.1-0.5,0.2-0.8c0.1-0.2,0.1-0.4,0.2-0.6
		c0.3-0.8,0.8-1.6,1.5-2.3c0.2-0.2,0.5-0.4,0.7-0.7c0.5-0.4,1-0.7,1.6-1c-1.7,1-2.9,2.6-3.2,4.1c-0.3,1.6-0.1,3.3,0.9,4.8
		c0.5,0.9,1.2,1.7,2.3,2.4l-0.1,0.1C66.7,25.7,65.8,25.2,64.9,24.4C64.9,24.5,64.9,24.4,64.9,24.4z"/>
</g>
<path class="st5" d="M55.5,24.5l0.5-2.7c0,0,4.1-1.8,9.6-0.7c0,0,0.3,1.6-0.1,3.8s-1.2,3.6-1.2,3.6C58.7,27.7,55.5,24.5,55.5,24.5z"
	/>
<g>
	
		<linearGradient id="SVGID_1_" gradientUnits="userSpaceOnUse" x1="36.5892" y1="-2222.4458" x2="38.4851" y2="-2238.2615" gradientTransform="matrix(-0.1754 0.9845 -0.9845 -0.1754 -2128.4082 -403.8008)">
		<stop  offset="0.4575" style="stop-color:#E5E0DE"/>
		<stop  offset="1" style="stop-color:#8CA79A"/>
	</linearGradient>
	<path class="st6" d="M57.8,26.2c-1.5-0.9-2.3-1.7-2.3-1.7l0.5-2.7c0,0,1.1-0.5,2.8-0.8C58.8,22.2,58.6,24,57.8,26.2z"/>
	<path class="st7" d="M64.5,21c0.1,0,0.3,0,0.5,0.1c0.1,0.6,0.1,1.9-0.1,3.5c-0.2,1.1-0.6,2.4-1.2,3.9c-0.2,0-0.3-0.1-0.4-0.1
		C64.8,24.7,64.7,21.9,64.5,21z"/>
	<path class="st7" d="M63.1,20.8c0.2,0,0.3,0,0.5,0c0.1,0.7,0.1,1.8-0.2,3.4c-0.2,1.1-0.6,2.4-1.2,3.8c-0.1,0-0.3-0.1-0.4-0.1
		C63.3,24.5,63.2,21.8,63.1,20.8z"/>
	<path class="st7" d="M59.5,27.1c-0.1-0.1-0.3-0.1-0.4-0.2c1.1-2.7,1.2-4.9,1.1-6c0.2,0,0.3,0,0.4,0c0,0.7,0,1.7-0.2,2.9
		C60.3,24.7,60,25.9,59.5,27.1z"/>
	<path class="st7" d="M61.7,20.8c0.1,0,0.3,0,0.5,0c0.1,0.7,0.1,1.8-0.2,3.2c-0.2,1.1-0.5,2.3-1.1,3.6c-0.1,0-0.3-0.1-0.4-0.2
		C61.7,24.4,61.8,21.9,61.7,20.8z"/>
	<path class="st7" d="M58.2,26.4c-0.1-0.1-0.3-0.2-0.4-0.2c0.8-2.2,1-4,1-5.2c0.1,0,0.3,0,0.4-0.1c0,0.7,0,1.5-0.2,2.5
		C58.9,24.4,58.6,25.4,58.2,26.4z"/>
</g>
<path class="st8" d="M55.5,24.5l0.5-2.7c0,0,4.1-1.8,9.6-0.7c0,0,0,0.1,0.1,0.3c-1.3-0.3-2.6-0.2-3.9-0.2c-0.9,0-2.9,0-3,1.3
	c-0.1,1.4,5.6,2.1,6.9,2.4l0,0c-0.4,2.2-1.2,3.6-1.2,3.6C58.7,27.7,55.5,24.5,55.5,24.5z"/>
<path class="st5" d="M57.1,15.3l0.5-2.7c0,0,4.1-1.8,9.6-0.7c0,0,0.3,1.6-0.1,3.8s-1.2,3.6-1.2,3.6C60.4,18.5,57.1,15.3,57.1,15.3z"
	/>
<g>
	
		<linearGradient id="SVGID_2_" gradientUnits="userSpaceOnUse" x1="27.2558" y1="-2222.4453" x2="29.1516" y2="-2238.2612" gradientTransform="matrix(-0.1754 0.9845 -0.9845 -0.1754 -2128.4082 -403.8008)">
		<stop  offset="0.4575" style="stop-color:#E5E0DE"/>
		<stop  offset="1" style="stop-color:#8CA79A"/>
	</linearGradient>
	<path class="st9" d="M59.4,17c-1.5-0.9-2.3-1.7-2.3-1.7l0.5-2.7c0,0,1.1-0.5,2.8-0.8C60.4,13,60.3,14.8,59.4,17z"/>
	<path class="st7" d="M66.2,11.8c0.1,0,0.3,0,0.5,0.1c0.1,0.6,0.1,1.9-0.1,3.5c-0.2,1.1-0.6,2.4-1.2,3.9c-0.2,0-0.3-0.1-0.4-0.1
		C66.5,15.5,66.3,12.7,66.2,11.8z"/>
	<path class="st7" d="M64.7,11.6c0.2,0,0.3,0,0.5,0c0.1,0.7,0.1,1.8-0.2,3.4c-0.2,1.1-0.6,2.4-1.2,3.8c-0.1,0-0.3-0.1-0.4-0.1
		C64.9,15.3,64.8,12.6,64.7,11.6z"/>
	<path class="st7" d="M61.1,17.9c-0.1-0.1-0.3-0.1-0.4-0.2c1.1-2.7,1.2-4.9,1.1-6c0.2,0,0.3,0,0.4,0c0,0.7,0,1.7-0.2,2.9
		C62,15.5,61.6,16.7,61.1,17.9z"/>
	<path class="st7" d="M63.3,11.6c0.1,0,0.3,0,0.5,0c0.1,0.7,0.1,1.8-0.2,3.2c-0.2,1.1-0.5,2.3-1.1,3.6c-0.1,0-0.3-0.1-0.4-0.2
		C63.4,15.2,63.4,12.7,63.3,11.6z"/>
	<path class="st7" d="M59.8,17.2c-0.1-0.1-0.3-0.2-0.4-0.2c0.8-2.2,1-4,1-5.2c0.1,0,0.3,0,0.4-0.1c0,0.7,0,1.5-0.2,2.5
		C60.5,15.2,60.3,16.2,59.8,17.2z"/>
</g>
<path class="st8" d="M57.1,15.3l0.5-2.7c0,0,4.1-1.8,9.6-0.7c0,0,0,0.1,0.1,0.3C66,11.9,64.7,12,63.4,12c-0.9,0-2.9,0-3,1.3
	c-0.1,1.4,5.6,2.1,6.9,2.4l0,0c-0.4,2.2-1.2,3.6-1.2,3.6C60.4,18.5,57.1,15.3,57.1,15.3z"/>
<path class="st10" d="M45.3,4.6c0,0,2.1-4,6.6-3.5s17,9.4,15.1,9.6c-2,0.2-11.7-1.1-11.7-1.1L45.3,4.6z"/>
<linearGradient id="SVGID_3_" gradientUnits="userSpaceOnUse" x1="45.3" y1="30.1112" x2="67.1" y2="30.1112" gradientTransform="matrix(1 0 0 -1 0 36)">
	<stop  offset="0.6933" style="stop-color:#E5E0DF"/>
	<stop  offset="1" style="stop-color:#B2B8B4"/>
</linearGradient>
<path class="st11" d="M47,3.8c-0.1,0.1,0,0.3,0.1,0.3c3.9-0.6,7.9,0.7,11.5,2c3,1.1,5.9,2.6,8.5,4.5c0,0-0.1,0-0.1,0.1
	c-2,0.2-11.7-1.1-11.7-1.1l-10-5c0,0,2.1-4,6.6-3.5c0.2,0,0.5,0.1,0.8,0.1C50.5,1.3,48.4,2.1,47,3.8z"/>
<path class="st12" d="M60,6c-1.3-0.7-2.7-1.4-3.9-2.2c-1-0.6-1.8-1.4-2.7-2.2l0,0c3.6,1.4,8.7,4.8,11.4,7C63.2,7.7,61.6,6.9,60,6z"
	/>
<path class="st10" d="M41.1,27.8c0,0,0.6,4.4,5,5.5s19.2-3,17.5-3.8c-1.7-0.8-11.3-3-11.3-3L41.1,27.8z"/>
<linearGradient id="SVGID_4_" gradientUnits="userSpaceOnUse" x1="41" y1="6.15" x2="63.7392" y2="6.15" gradientTransform="matrix(1 0 0 -1 0 36)">
	<stop  offset="0.6933" style="stop-color:#E5E0DF"/>
	<stop  offset="1" style="stop-color:#B2B8B4"/>
</linearGradient>
<path class="st13" d="M63.7,29.7c-0.1,0-0.2,0-0.4,0c-1,0-2.1-0.1-3.1-0.2c-1.8-0.1-3.6-0.3-5.5-0.3c-3.6,0-7.5-0.1-11,0.7
	c-0.1,0-0.1,0.1-0.1,0.2c0.7,1.6,1.9,2.6,3.3,3.2c-0.3,0-0.6-0.1-0.9-0.1c-4.4-1.1-5-5.5-5-5.5l11.2-1.3c0,0,9.5,2.2,11.3,3
	C63.7,29.5,63.8,29.6,63.7,29.7z"/>
<path class="st12" d="M26.4,26.2c-5.9-1.3-8.1-2.2-8.6-2.4C12.7,22.1,0.8,10.9,0.1,10c-0.5-0.7-0.5-1.4-0.4-1.7c0-0.3,0.2-1,0.9-1.4
	c1-0.6,16.1-7,21.4-6.8c0.5,0,3-0.1,8.9,0.7c6.8,1,23.7,5.6,28.8,10.2c0,0,0.3,3.1-0.7,7.9c-0.7,4.9-2.1,7.7-2.1,7.7
	C50.6,29.1,33.1,27.6,26.4,26.2z"/>
<path class="st10" d="M42.6,17.5c-0.1-0.3-0.2-0.6-0.2-0.8l0.2-1.3c0.1-0.2,0.2-0.4,0.3-0.7c0.5-0.5,2-1.4,6.1-0.5
	c4.4,1,17.1,5.6,16.4,5.9c0.5,0.5-13,0.6-17.4-0.2C44.3,19.2,43,18.2,42.6,17.5z"/>
<path class="st12" d="M51.5,16.1c-2.3-0.5-4.7-1.2-7.1-1.5c0.7-0.1,1.7-0.1,3.4,0.3c1.5,0.3,4.5,1.1,7.1,1.9
	C53.8,16.5,52.7,16.3,51.5,16.1z"/>
<g>
	<path class="st14" d="M-0.3,8.3c0-0.3,0.2-1,0.9-1.4c0.9-0.6,15.3-6.7,21-6.8c0.4,3.7,0.3,7.8-0.5,12.1s-2.1,8.2-3.7,11.5
		C12.1,21.5,0.7,10.8,0.1,10S-0.4,8.6-0.3,8.3z"/>
	<path class="st14" d="M-0.3,8.3c0-0.3,0.2-1,0.9-1.4c0.9-0.6,15.3-6.7,21-6.8c0.4,3.7,0.3,7.8-0.5,12.1s-2.1,8.2-3.7,11.5
		C12.1,21.5,0.7,10.8,0.1,10S-0.4,8.6-0.3,8.3z"/>
</g>
<g>
	<path class="st12" d="M22.6,1.8c0.3,0,0.6-0.1,0.6-0.4s-0.1-0.6-0.4-0.6s-0.6,0.1-0.6,0.4C22.1,1.5,22.3,1.7,22.6,1.8z"/>
	<path class="st12" d="M22.2,12.9c0.3,0,0.6-0.1,0.6-0.4c0-0.3-0.1-0.6-0.4-0.6s-0.6,0.1-0.6,0.4C21.7,12.5,21.9,12.8,22.2,12.9z"/>
	<path class="st12" d="M18.6,23.4c0.3,0,0.6-0.1,0.6-0.4s-0.1-0.6-0.4-0.6s-0.6,0.1-0.6,0.4C18.1,23,18.3,23.3,18.6,23.4z"/>
	<path class="st12" d="M20.9,18.2c0.3,0,0.6-0.1,0.6-0.4s-0.1-0.6-0.4-0.6s-0.6,0.1-0.6,0.4C20.4,17.9,20.6,18.1,20.9,18.2z"/>
	<path class="st12" d="M22.8,7.4c0.3,0,0.6-0.1,0.6-0.4S23.3,6.4,23,6.4s-0.6,0.1-0.6,0.4C22.3,7.1,22.5,7.3,22.8,7.4z"/>
</g>
<path class="st15" d="M30.9,19.8c2.9,0.5,5.8-1.4,6.3-4.4s-1.4-5.8-4.4-6.3s-5.8,1.4-6.3,4.4S27.9,19.3,30.9,19.8z"/>
<path class="st16" d="M31.6,19.1c2.5,0.2,4.8-1.6,5-4.1c0.2-2.5-1.6-4.8-4.1-5s-4.8,1.6-5,4.1C27.2,16.6,29.1,18.9,31.6,19.1z"/>
<path class="st10" d="M31.1,18.6c2.2,0.4,4.4-1.1,4.8-3.3s-1.1-4.4-3.3-4.8s-4.4,1.1-4.8,3.3C27.4,16,28.9,18.2,31.1,18.6z"/>
<path class="st12" d="M47.1,32.9c0,0,8.1,0.3,15-2.7C62.1,30.3,54.1,32.4,47.1,32.9z"/>
<path class="st17" d="M22.5,6.1c0-0.2,0-0.5,0-0.7c0-0.8-0.1-1.6-0.1-2.4c2.9,0,5.8,0.3,8.7,0.8c9.3,1.8,18.2,5.4,27.1,8.6
	c0,0.6-0.1,1.3-0.1,2.1c-8.4-2.3-16.7-5.1-25.2-6.9C29.4,7,26,6.4,22.5,6.1z"/>
<path class="st18" d="M21.2,5c0,0.3,0,0.7-0.1,1c-1.2-0.1-2.5-0.1-3.7-0.1c-4.1,0-8.2,0.2-12.3,0.5c3.8-1.2,7.7-2.3,11.6-2.9
	c1.4-0.2,2.9-0.3,4.3-0.4C21.1,3.7,21.2,4.4,21.2,5z"/>
</svg>
