<?xml version="1.0" encoding="utf-8"?>
<!-- Generator: Adobe Illustrator 24.0.3, SVG Export Plug-In . SVG Version: 6.00 Build 0)  -->
<svg version="1.1" id="圖層_1" xmlns="http://www.w3.org/2000/svg" xmlns:xlink="http://www.w3.org/1999/xlink" x="0px" y="0px"
	 viewBox="0 0 20 20" style="enable-background:new 0 0 20 20;" xml:space="preserve">
<style type="text/css">
	.st0{fill:none;}
	.st1{fill:#52B665;}
	.st2{fill:#ECB14E;}
	.st3{fill:#FFFFFF;}
	.st4{clip-path:url(#SVGID_2_);}
	.st5{fill:#F7F7F7;}
	.st6{fill:#4E4D4D;}
	.st7{fill:#E9EEEB;stroke:#CCCCCC;stroke-miterlimit:10;}
	.st8{fill:#666767;}
	.st9{fill:#CCCCCC;}
	.st10{fill:none;stroke:#7F8080;stroke-width:0.9333;stroke-linecap:round;stroke-miterlimit:10;}
	.st11{clip-path:url(#SVGID_4_);}
	.st12{fill:none;stroke:#7F8080;stroke-width:0.4667;stroke-linecap:round;stroke-miterlimit:10;}
	.st13{clip-path:url(#SVGID_6_);}
	.st14{clip-path:url(#SVGID_8_);}
	.st15{fill:#E9EEEB;}
	.st16{clip-path:url(#SVGID_10_);}
	.st17{clip-path:url(#SVGID_12_);}
	.st18{clip-path:url(#SVGID_14_);}
	.st19{clip-path:url(#SVGID_16_);}
	.st20{clip-path:url(#SVGID_18_);}
	.st21{clip-path:url(#SVGID_20_);}
	.st22{fill:url(#SVGID_21_);}
	.st23{fill:url(#SVGID_22_);}
	.st24{clip-path:url(#SVGID_24_);fill:#1B844D;}
	.st25{clip-path:url(#SVGID_26_);}
	.st26{clip-path:url(#SVGID_28_);}
	.st27{fill:#AD8549;}
	.st28{fill:#005A41;}
	.st29{fill:#A67E3A;}
	.st30{fill:#ACABAB;}
	.st31{fill:none;stroke:#7D7D7D;stroke-width:0.4667;stroke-linecap:round;stroke-miterlimit:10;}
	.st32{fill:#F8E6C7;}
	.st33{fill:#ECC6AD;}
	.st34{fill:#E37F7D;}
	.st35{fill:#4A1E0E;}
	.st36{opacity:0.1;fill:#040000;enable-background:new    ;}
	.st37{fill:#E0E2E0;}
	.st38{clip-path:url(#SVGID_30_);}
	.st39{fill:url(#SVGID_33_);stroke:#E6E6E5;stroke-width:0.8077;stroke-miterlimit:10;}
	.st40{fill:#E6E6E5;}
	.st41{fill:url(#SVGID_34_);stroke:#E6E6E5;stroke-width:0.8077;stroke-miterlimit:10;}
	.st42{fill:#333333;}
	.st43{fill:#23A664;}
	.st44{opacity:0.67;}
	.st45{fill:#A9A9A8;}
	.st46{clip-path:url(#SVGID_36_);}
	.st47{clip-path:url(#SVGID_38_);}
	.st48{clip-path:url(#SVGID_40_);}
	.st49{clip-path:url(#SVGID_42_);}
	.st50{clip-path:url(#SVGID_46_);}
	.st51{clip-path:url(#SVGID_48_);}
	.st52{clip-path:url(#SVGID_50_);fill:#E9EEEB;stroke:#CCCCCC;stroke-miterlimit:10;}
	.st53{clip-path:url(#SVGID_52_);fill:#666767;}
	.st54{clip-path:url(#SVGID_54_);}
	.st55{fill:none;stroke:#7F8080;stroke-width:1.1333;stroke-linecap:round;stroke-miterlimit:10;}
	.st56{clip-path:url(#SVGID_56_);}
	.st57{clip-path:url(#SVGID_58_);}
	.st58{clip-path:url(#SVGID_60_);}
	.st59{clip-path:url(#SVGID_62_);}
	.st60{clip-path:url(#SVGID_64_);}
	.st61{clip-path:url(#SVGID_66_);}
	.st62{clip-path:url(#SVGID_68_);fill:#E9EEEB;stroke:#CCCCCC;stroke-miterlimit:10;}
	.st63{clip-path:url(#SVGID_70_);fill:#666767;}
	.st64{clip-path:url(#SVGID_72_);}
	.st65{clip-path:url(#SVGID_74_);}
	.st66{clip-path:url(#SVGID_76_);}
</style>
<pattern  width="390" height="507" patternUnits="userSpaceOnUse" id="SVGID_31_" viewBox="0 -507 390 507" style="overflow:visible;">
	<g>
		<rect y="-507" class="st0" width="390" height="507"/>
		<g>
			<rect y="-507" class="st0" width="390" height="507"/>
			<g>
				<rect y="-507" class="st0" width="390" height="507"/>
				<g>
					<rect y="-507" class="st0" width="390" height="507"/>
				</g>
			</g>
		</g>
	</g>
</pattern>
<pattern  width="390" height="507" patternUnits="userSpaceOnUse" id="SVGID_32_" viewBox="0 -507 390 507" style="overflow:visible;">
	<g>
		<rect y="-507" class="st0" width="390" height="507"/>
		<g>
			<rect y="-507" class="st0" width="390" height="507"/>
			<g>
				<rect y="-507" class="st0" width="390" height="507"/>
				<g>
					<rect y="-507" class="st0" width="390" height="507"/>
				</g>
			</g>
		</g>
	</g>
</pattern>
<pattern  width="390" height="507" patternUnits="userSpaceOnUse" id="SVGID_43_" viewBox="0 -507 390 507" style="overflow:visible;">
	<g>
		<rect y="-507" class="st0" width="390" height="507"/>
		<g>
			<rect y="-507" class="st0" width="390" height="507"/>
			<g>
				<rect y="-507" class="st0" width="390" height="507"/>
				<g>
					<rect y="-507" class="st0" width="390" height="507"/>
				</g>
			</g>
		</g>
	</g>
</pattern>
<pattern  width="390" height="507" patternUnits="userSpaceOnUse" id="SVGID_44_" viewBox="0 -507 390 507" style="overflow:visible;">
	<g>
		<rect y="-507" class="st0" width="390" height="507"/>
		<g>
			<rect y="-507" class="st0" width="390" height="507"/>
			<g>
				<rect y="-507" class="st0" width="390" height="507"/>
				<g>
					<rect y="-507" class="st0" width="390" height="507"/>
				</g>
			</g>
		</g>
	</g>
</pattern>
<rect x="-168.85" y="-43.82" class="st1" width="4.58" height="4.58"/>
<g>
	<path class="st2" d="M-70.63-21.15h-29.65v-1.27c0-2.71,2.2-4.91,4.91-4.91h29.66v1.27C-65.71-23.35-67.91-21.15-70.63-21.15z"/>
	<path class="st2" d="M-73.89,90.4h-6.37v-1.03c0-2.21,1.79-4,4-4h6.37v1.03C-69.89,88.61-71.69,90.4-73.89,90.4z"/>
	<path class="st2" d="M-68.55,53.62h-13.62v-4.61h17.28v0.94C-64.89,51.98-66.53,53.62-68.55,53.62z"/>
	<rect x="-53.63" y="78.06" class="st2" width="4.58" height="4.58"/>
	<path class="st2" d="M-80.17,8.84C-87.76,0.9-97.02-7.07-107.95-7.07c-5.73,0-11.33,0.37-16.82,3.12l3.86-16.82h46.44v-23.05h-65.1
		l-12.62,66.86l12.57-7.05c5.61-6.25,19.35,0.57,26.42,0.57c5.67,0,10.27,1.97,13.8,5.91c1.82,2.03,3.16,4.59,4.04,7.66l20.7-14
		C-76.2,13.52-78.03,11.08-80.17,8.84z"/>
	<path class="st2" d="M-99.15,43.67c0.02,0.51,0.04,1.01,0.04,1.54c0,8.41-1.78,14.71-5.35,18.88c-3.56,4.18-7.92,6.27-13.06,6.27
		c-4.5,0-8.47-1.62-11.92-4.86c-0.28-0.26-0.53-0.54-0.79-0.82l-19.42,13.14c0.9,0.94,1.85,1.85,2.87,2.71
		c7.48,6.37,17.14,9.55,29,9.55c14.84,0,26.43-5.67,34.79-17c6.13-8.29,9.2-17.73,9.2-28.3c0-6.04-0.87-11.54-2.6-16.5L-99.15,43.67
		z"/>
	<path class="st1" d="M-148.32,47.31l-24.54,2.54c0.87,6.38,2.8,11.98,5.78,16.81l20.12-13.6
		C-147.6,51.31-148.06,49.39-148.32,47.31z"/>
	<path class="st1" d="M-97.85,8.84c-7.59-7.94-16.85-8.92-27.78-8.92c-5.73,0-11.33,1.37-16.82,4.12l3.86-24.82h46.44v-23.05h-65.1
		l-12.62,66.86l19.98,2.89c5.61-6.25,13.58-13.94,20.65-13.94c5.67,0,16.8,0.06,20.34,4c1.82,2.03,4.18,11.07,5.06,14.14l11.51-14
		C-93.88,13.52-95.71,11.08-97.85,8.84z"/>
	<path class="st1" d="M-116.83,43.67c0.02,0.51,0.04,1.01,0.04,1.54c0,8.41-1.78,14.71-5.35,18.88c-3.56,4.18-7.92,6.27-13.06,6.27
		c-4.5,0-8.47-1.62-11.92-4.86c-0.28-0.26-0.53-0.54-0.79-0.82l-19.42,13.14c0.9,0.94,1.85,1.85,2.87,2.71
		c7.48,6.37,17.14,9.55,29,9.55c14.84,0,26.43-5.67,34.79-17c6.13-8.29,9.2-17.73,9.2-28.3c0-6.04-0.87-11.54-2.6-16.5
		L-116.83,43.67z"/>
	<path class="st3" d="M-75.86-25.24h-27.53v-1.81c0-3.89,3.15-7.04,7.04-7.04h27.53v1.81C-68.82-28.39-71.98-25.24-75.86-25.24z"/>
	<path class="st3" d="M-78.27,76.07h-25.24v-1.03c0-2.21,1.79-4,4-4h25.24v1.03C-74.27,74.28-76.06,76.07-78.27,76.07z"/>
	<path class="st3" d="M-79.2,9.49h-18.95V3.04h24.08v1.32C-74.07,7.19-76.36,9.49-79.2,9.49z"/>
	<path class="st3" d="M-153.15,59.09h-23.49c-1.84,0-3.34-1.5-3.34-3.34v-0.86h26.83V59.09z"/>
	<path class="st1" d="M-185.62,32.7h-14.11v-1.81c0-3.89,3.15-7.04,7.04-7.04h14.11v1.81C-178.58,29.55-181.73,32.7-185.62,32.7z"/>
	<path class="st1" d="M-163.98-5.32h-12.66v-1.03c0-2.21,1.79-4,4-4h12.66v1.03C-159.98-7.11-161.77-5.32-163.98-5.32z"/>
	<path class="st1" d="M-133.25,15.99h-6.37v-1.03c0-2.21,1.79-4,4-4h6.37v1.03C-129.25,14.2-131.04,15.99-133.25,15.99z"/>
	<path class="st1" d="M-108.92,63.72h-22.41v-1.03c0-2.21,1.79-4,4-4h18.41V63.72z"/>
	<path class="st1" d="M-30.45,29.44h-30.47v-1.07c0-2.28,1.85-4.14,4.14-4.14h30.47v1.07C-26.31,27.59-28.16,29.44-30.45,29.44z"/>
	<path class="st2" d="M68.44-38.59H18.05v-1.03c0-2.21,1.79-4,4-4h50.39v1.03C72.44-40.38,70.65-38.59,68.44-38.59z"/>
	<path class="st1" d="M-15.72,74.14h-12.66v-1.03c0-2.21,1.79-4,4-4h12.66v1.03C-11.72,72.35-13.51,74.14-15.72,74.14z"/>
	<g>
		<path class="st1" d="M68.82,12.75V30.2c0,33.89-23.45,51.87-48.33,53.9c-21.4,1.76-43.84-8.31-53.22-30.24l19.42-13.14
			c0.49,1.82,1.11,3.53,1.84,5.13C-5.49,59,8.04,64.64,20.49,62.74C33.32,60.82,45,50.9,46.08,32.99h12.85c2.44,0,4.4-1.97,4.4-4.4
			v-1.13H46.18V12.75c0-4.14-0.55-7.88-1.57-11.24l19.34-13.09c0.73,1.62,1.38,3.31,1.95,5.06C67.78-0.81,68.82,5.62,68.82,12.75z"
			/>
		<path class="st1" d="M57.78-14.05L45.86-5.99c-0.24-0.48-0.49-0.94-0.75-1.4c-0.36-0.68-0.78-1.33-1.22-1.97
			c-0.29-0.45-0.6-0.89-0.93-1.32c-0.01-0.01-0.01-0.03-0.03-0.03c-0.36-0.48-0.74-0.94-1.13-1.4c-0.34-0.4-0.69-0.79-1.06-1.16
			c-0.15-0.16-0.3-0.31-0.45-0.45c-0.13-0.13-0.25-0.25-0.38-0.36c-0.3-0.3-0.62-0.59-0.93-0.86c-0.31-0.28-0.64-0.55-0.98-0.82
			c-0.34-0.28-0.69-0.54-1.04-0.79c-0.03-0.03-0.05-0.05-0.09-0.06c-0.2-0.15-0.42-0.3-0.63-0.44c-0.42-0.29-0.83-0.57-1.27-0.83
			c-0.36-0.21-0.73-0.43-1.11-0.64c-0.13-0.06-0.25-0.13-0.38-0.2c-0.43-0.23-0.86-0.44-1.28-0.64c-0.03-0.01-0.04-0.01-0.06-0.03
			c-0.5-0.24-1.02-0.47-1.53-0.67c-0.52-0.21-1.06-0.42-1.58-0.59c-0.54-0.18-1.08-0.35-1.63-0.5c-1.08-0.31-2.19-0.55-3.31-0.73
			c-0.39-0.06-0.78-0.13-1.17-0.19c-0.05,0-0.09,0-0.13-0.01c-0.38-0.05-0.75-0.09-1.12-0.11c-0.52-0.05-1.03-0.09-1.55-0.1
			c-0.41-0.01-0.83-0.03-1.24-0.03c-1.58-0.01-3.17,0.11-4.73,0.35C-2.09-24.39-20.11-14.2-20.8,8.87h-0.48
			c-1.3,0-2.48,0.49-3.37,1.3c-0.06,0.05-0.13,0.11-0.19,0.18c-0.91,0.92-1.47,2.18-1.47,3.56h5.48v13.82
			c0,3.75,2.83,11.91,3.76,15.25c0.03,0.09,0.05,0.18,0.08,0.25l-11.87,8.05l-7.54,5.09c-2.89-6.77-7.05-19.63-7.05-28.65V10.27
			c0-38.22,29.7-56.15,57.67-53.9C32.28-42.18,49.6-32.31,57.78-14.05z"/>
	</g>
	<g>
		<path class="st2" d="M81.86,31.26c-1.12,1.12-1.81,2.67-1.81,4.36h7.38C84.75,70.06,56.5,86.26,29.85,84.1
			C11.59,82.63-5.91,72.54-13.91,53.85l11.83-8.02c5.99,13.15,19.52,18.8,31.98,16.93c0,0,0,0,0.01,0C46.5,65.25,65,54.39,65,30.2
			V12.75c0-4.15-2.51-13.17-3.52-16.52l11.88-7.81l7.52-4.93c3.09,6.9,6.77,19.94,6.77,29.26v16.7h-1.41
			C84.53,29.45,82.98,30.14,81.86,31.26z"/>
		<path class="st2" d="M-2.01,27.72c0,3.85,0.48,7.36,1.33,10.53L-20.1,51.39c-0.7-1.63-1.32-3.33-1.87-5.09
			c-1.72-5.53-2.68-11.73-2.68-18.57V13.9h22.63V27.72z"/>
		<path class="st2" d="M76.58-13.71L57.16-0.62c-0.57-1.87-1.27-3.62-2.09-5.24c-6.14-12.12-19.03-17.5-31-16.01
			C10.77-20.21-1.41-10.03-1.99,8.87h-19.29c-1.3,0-2.48,0.49-3.37,1.3c0.05-34.39,24.18-52.22,49.41-53.68
			C45.59-44.72,67.17-34.75,76.58-13.71z"/>
	</g>
	<g>
		<g>
			<g>
				<path class="st3" d="M78.23,12.75V30.2c0,33.91-23.5,51.9-48.38,53.9c-3.11,0.25-6.24,0.26-9.36,0
					c-18.27-1.45-35.8-11.53-43.81-30.24l11.85-8.01l7.57-5.13c0.48,1.81,1.11,3.52,1.82,5.12c4.49,9.87,13.23,15.52,22.57,16.91
					c3.11,0.48,6.29,0.48,9.41,0.01c0,0,0,0,0.01,0c12.81-1.94,24.5-11.86,25.59-29.76h3.43c2.44,0,4.4-1.97,4.4-4.4v-1.13h-7.75
					V12.75c0-4.15-0.55-7.88-1.57-11.24L65.9-6.53l7.46-5.06c0.73,1.61,1.37,3.29,1.95,5.04C77.19-0.81,78.23,5.6,78.23,12.75z"/>
			</g>
			<path class="st3" d="M67.17-14.05l-12.1,8.19l-7.24,4.89c-0.54-1.79-1.21-3.46-1.97-5.02c-0.24-0.48-0.48-0.94-0.75-1.4
				c-0.36-0.68-0.78-1.33-1.22-1.97c-0.29-0.45-0.6-0.89-0.93-1.32c-0.01-0.01-0.01-0.03-0.03-0.03c-0.36-0.48-0.74-0.94-1.13-1.4
				c-0.34-0.4-0.69-0.79-1.06-1.16c-0.15-0.16-0.3-0.31-0.45-0.45c-0.13-0.13-0.25-0.25-0.38-0.36c-0.3-0.3-0.62-0.59-0.93-0.86
				c-0.31-0.29-0.64-0.55-0.98-0.82c-0.34-0.28-0.68-0.54-1.04-0.79c-0.03-0.03-0.05-0.05-0.09-0.06c-0.2-0.15-0.42-0.3-0.63-0.44
				c-0.42-0.29-0.83-0.57-1.27-0.83c-0.36-0.21-0.73-0.43-1.11-0.64c-0.13-0.06-0.25-0.13-0.38-0.2c-0.43-0.23-0.86-0.44-1.28-0.64
				c-0.03-0.01-0.04-0.01-0.06-0.03c-0.5-0.24-1.02-0.47-1.53-0.67c-0.52-0.21-1.06-0.42-1.58-0.59c-0.54-0.18-1.08-0.35-1.63-0.5
				c-1.08-0.3-2.19-0.54-3.31-0.73c-0.39-0.06-0.78-0.13-1.17-0.19c-0.05,0-0.09,0-0.13-0.01c-0.38-0.04-0.74-0.09-1.12-0.11
				c-0.52-0.05-1.03-0.09-1.55-0.1c-0.41-0.01-0.83-0.03-1.24-0.03c-1.58-0.01-3.17,0.11-4.73,0.35C1.05-20-10.82-9.75-11.38,8.87
				h-9.9c-1.3,0-2.48,0.49-3.37,1.3c-0.06,0.05-0.13,0.11-0.19,0.18c-0.91,0.92-1.47,2.18-1.47,3.56h14.9v13.82
				c0,3.85,0.48,7.34,1.32,10.53l-6.98,4.73l-4.9,3.32l-7.53,5.11c-0.69-1.65-1.31-3.34-1.86-5.11c-1.72-5.56-2.68-11.73-2.68-18.57
				V10.27c0-33.93,23.41-51.88,48.25-53.9c3.51-0.29,7.05-0.25,10.55,0.11C42.4-41.75,59.2-31.92,67.17-14.05z"/>
		</g>
	</g>
	<path class="st3" d="M-29.71-8.96h-16.43v-1.03c0-2.21,1.79-4,4-4h16.43v1.03C-25.71-10.75-27.51-8.96-29.71-8.96z"/>
	<path class="st2" d="M90.87,57.74H77.25v-4.61h17.28v0.94C94.54,56.1,92.9,57.74,90.87,57.74z"/>
	<path class="st3" d="M80.77,67.08H61.82v-6.45h24.08v1.32C85.89,64.78,83.6,67.08,80.77,67.08z"/>
	<path class="st1" d="M-24.71-26.46h-27.91v-0.9c0-1.93,1.57-3.5,3.5-3.5h27.91v0.9C-21.21-28.03-22.78-26.46-24.71-26.46z"/>
	<path class="st1" d="M-22.65,82.91h-23.49v-0.86c0-1.84,1.5-3.34,3.34-3.34h23.49v0.86C-19.31,81.42-20.8,82.91-22.65,82.91z"/>
	<rect x="-43.46" y="64.3" class="st3" width="4.58" height="4.58"/>
	<rect x="95.05" y="17.96" class="st2" width="4.58" height="4.58"/>
	<g>
		<g>
			<g>
				<g>
					<g>
						<g>
							<defs>
								<path id="SVGID_1_" d="M34.47,42.72c0.13,2.3,2.5,3.68,4.63,2.81c5.32-2.18,6.9-6.84,6.9-6.84c0.5-1.12-0.16-1.54-0.16-1.54
									c-0.32-1.06-1.09-0.46-1.09-0.46C44.29,36.73,44,37.48,44,37.48c-0.8,0.37-4.08,1.06-6.55,1.55
									C35.55,39.4,34.35,40.79,34.47,42.72L34.47,42.72z"/>
							</defs>
							<clipPath id="SVGID_2_">
								<use xlink:href="#SVGID_1_"  style="overflow:visible;"/>
							</clipPath>
							<g class="st4">
								<g>
									<path class="st3" d="M34.47,42.72c0.13,2.3,2.5,3.68,4.63,2.81c5.32-2.18,6.9-6.84,6.9-6.84c0.5-1.12-0.16-1.54-0.16-1.54
										c-0.32-1.06-1.09-0.46-1.09-0.46C44.29,36.73,44,37.48,44,37.48c-0.8,0.37-4.08,1.06-6.55,1.55
										C35.55,39.4,34.35,40.79,34.47,42.72L34.47,42.72z"/>
									<path class="st5" d="M37.78,45.86c-0.64,0-1.29-0.18-1.84-0.53c-0.91-0.58-1.47-1.52-1.52-2.6l0,0
										c-0.12-1.93,1.05-3.38,3.04-3.76c1.66-0.33,5.56-1.12,6.51-1.54c0.05-0.13,0.34-0.75,0.78-0.79
										c0.08-0.05,0.37-0.24,0.67-0.14c0.22,0.07,0.39,0.29,0.5,0.63c0.12,0.09,0.63,0.57,0.16,1.6
										c-0.01,0.04-1.64,4.71-6.94,6.88C38.69,45.77,38.23,45.86,37.78,45.86z M45.22,36.6c-0.22,0-0.43,0.16-0.43,0.16
										l-0.01,0.01h-0.03c-0.41,0.03-0.68,0.72-0.7,0.74l-0.01,0.03l-0.03,0.01c-0.91,0.42-4.89,1.22-6.56,1.55
										c-1.92,0.37-3.05,1.76-2.93,3.63l0,0c0.07,1.04,0.59,1.95,1.47,2.5c0.91,0.58,2.05,0.67,3.06,0.25
										c5.23-2.14,6.85-6.74,6.86-6.8c0.47-1.05-0.11-1.45-0.13-1.46l-0.03-0.01l-0.01-0.03c-0.09-0.32-0.24-0.5-0.42-0.57
										C45.32,36.6,45.26,36.6,45.22,36.6z"/>
								</g>
								<circle class="st6" cx="37.06" cy="42.7" r="2.04"/>
								<path class="st7" d="M37.06,40.99c0.95,0,1.71,0.76,1.71,1.71c0,0.95-0.76,1.71-1.71,1.71s-1.71-0.76-1.71-1.71
									C35.35,41.75,36.13,40.99,37.06,40.99 M37.06,40.33c-1.3,0-2.37,1.06-2.37,2.37c0,1.3,1.06,2.37,2.37,2.37
									c1.3,0,2.37-1.06,2.37-2.37C39.43,41.4,38.37,40.33,37.06,40.33L37.06,40.33z"/>
								<circle class="st8" cx="37.06" cy="42.7" r="0.92"/>
								<g>
									<circle class="st9" cx="37.06" cy="42.7" r="0.53"/>
									<line class="st10" x1="36.76" y1="42.39" x2="37.38" y2="43.01"/>
									<line class="st10" x1="37.34" y1="42.42" x2="36.78" y2="42.97"/>
								</g>
							</g>
						</g>
					</g>
				</g>
			</g>
			<g>
				<g>
					<g>
						<g>
							<defs>
								<path id="SVGID_3_" d="M34.47,42.72c0.13,2.3,2.5,3.68,4.63,2.81c5.32-2.18,6.9-6.84,6.9-6.84c0.5-1.12-0.16-1.54-0.16-1.54
									c-0.32-1.06-1.09-0.46-1.09-0.46C44.29,36.73,44,37.48,44,37.48c-0.8,0.37-4.08,1.06-6.55,1.55
									C35.55,39.4,34.35,40.79,34.47,42.72L34.47,42.72z"/>
							</defs>
							<clipPath id="SVGID_4_">
								<use xlink:href="#SVGID_3_"  style="overflow:visible;"/>
							</clipPath>
							<g class="st11">
								<circle class="st9" cx="44.03" cy="37.96" r="0.26"/>
								<line class="st12" x1="44.19" y1="37.82" x2="43.88" y2="38.12"/>
								<line class="st12" x1="43.9" y1="37.83" x2="44.17" y2="38.11"/>
							</g>
						</g>
					</g>
				</g>
			</g>
			<g>
				<g>
					<g>
						<g>
							<defs>
								<path id="SVGID_5_" d="M34.47,42.72c0.13,2.3,2.5,3.68,4.63,2.81c5.32-2.18,6.9-6.84,6.9-6.84c0.5-1.12-0.16-1.54-0.16-1.54
									c-0.32-1.06-1.09-0.46-1.09-0.46C44.29,36.73,44,37.48,44,37.48c-0.8,0.37-4.08,1.06-6.55,1.55
									C35.55,39.4,34.35,40.79,34.47,42.72L34.47,42.72z"/>
							</defs>
							<clipPath id="SVGID_6_">
								<use xlink:href="#SVGID_5_"  style="overflow:visible;"/>
							</clipPath>
							<g class="st13">
								<circle class="st9" cx="43.37" cy="38.23" r="0.26"/>
								<line class="st12" x1="43.53" y1="38.08" x2="43.23" y2="38.38"/>
								<line class="st12" x1="43.24" y1="38.1" x2="43.51" y2="38.37"/>
							</g>
						</g>
					</g>
				</g>
			</g>
			<g>
				<g>
					<g>
						<g>
							<defs>
								<path id="SVGID_7_" d="M34.47,42.72c0.13,2.3,2.5,3.68,4.63,2.81c5.32-2.18,6.9-6.84,6.9-6.84c0.5-1.12-0.16-1.54-0.16-1.54
									c-0.32-1.06-1.09-0.46-1.09-0.46C44.29,36.73,44,37.48,44,37.48c-0.8,0.37-4.08,1.06-6.55,1.55
									C35.55,39.4,34.35,40.79,34.47,42.72L34.47,42.72z"/>
							</defs>
							<clipPath id="SVGID_8_">
								<use xlink:href="#SVGID_7_"  style="overflow:visible;"/>
							</clipPath>
							<g class="st14">
								<g>
									<path class="st15" d="M37.59,39.16c0.57,0.16,1.09,0.39,1.49,0.84c0.37,0.42,0.6,0.93,0.84,1.42
										c0.04,0.08,0.14,0.11,0.22,0.09c0.58-0.14,1.2-0.11,1.77-0.28c0.54-0.16,1.06-0.37,1.58-0.58
										c1.04-0.42,2.05-0.91,2.94-1.56c0.2-0.14,0-0.49-0.2-0.34c-0.89,0.66-1.88,1.14-2.91,1.55c-0.51,0.21-1.04,0.42-1.58,0.57
										c-0.57,0.14-1.14,0.12-1.71,0.26c0.08,0.03,0.14,0.07,0.22,0.09c-0.26-0.54-0.53-1.09-0.93-1.54
										c-0.43-0.47-1.01-0.74-1.62-0.91C37.45,38.71,37.35,39.09,37.59,39.16L37.59,39.16z"/>
								</g>
							</g>
						</g>
					</g>
				</g>
			</g>
			<g>
				<g>
					<g>
						<g>
							<defs>
								<path id="SVGID_9_" d="M34.47,42.72c0.13,2.3,2.5,3.68,4.63,2.81c5.32-2.18,6.9-6.84,6.9-6.84c0.5-1.12-0.16-1.54-0.16-1.54
									c-0.32-1.06-1.09-0.46-1.09-0.46C44.29,36.73,44,37.48,44,37.48c-0.8,0.37-4.08,1.06-6.55,1.55
									C35.55,39.4,34.35,40.79,34.47,42.72L34.47,42.72z"/>
							</defs>
							<clipPath id="SVGID_10_">
								<use xlink:href="#SVGID_9_"  style="overflow:visible;"/>
							</clipPath>
							<g class="st16">
								<g>
									<path class="st15" d="M44.46,42.62c-0.28-0.3-0.67-0.43-1.06-0.46c-0.41-0.03-0.88,0.05-1.28,0.2
										c-0.37,0.14-0.63,0.43-0.75,0.82c-0.13,0.42-0.05,0.88,0.01,1.3c0.04,0.25,0.42,0.14,0.38-0.11
										c-0.11-0.6-0.18-1.45,0.54-1.67c0.58-0.18,1.41-0.3,1.87,0.2C44.36,43.09,44.63,42.81,44.46,42.62L44.46,42.62z"/>
								</g>
							</g>
						</g>
					</g>
				</g>
			</g>
		</g>
		<g>
			<g>
				<g>
					<g>
						<g>
							<defs>
								<path id="SVGID_11_" d="M12.31,42.72c-0.13,2.3-2.5,3.68-4.63,2.81c-5.32-2.18-6.9-6.84-6.9-6.84
									c-0.5-1.12,0.16-1.54,0.16-1.54c0.32-1.06,1.09-0.46,1.09-0.46c0.46,0.03,0.75,0.78,0.75,0.78c0.8,0.37,4.08,1.06,6.55,1.55
									C11.23,39.4,12.42,40.79,12.31,42.72L12.31,42.72z"/>
							</defs>
							<clipPath id="SVGID_12_">
								<use xlink:href="#SVGID_11_"  style="overflow:visible;"/>
							</clipPath>
							<g class="st17">
								<g>
									<path class="st3" d="M12.31,42.72c-0.13,2.3-2.5,3.68-4.63,2.81c-5.32-2.18-6.9-6.84-6.9-6.84
										c-0.5-1.12,0.16-1.54,0.16-1.54c0.32-1.06,1.09-0.46,1.09-0.46c0.46,0.03,0.75,0.78,0.75,0.78
										c0.8,0.37,4.08,1.06,6.55,1.55C11.23,39.4,12.42,40.79,12.31,42.72L12.31,42.72z"/>
									<path class="st5" d="M8.99,45.86c-0.46,0-0.91-0.09-1.34-0.26c-5.28-2.17-6.93-6.82-6.94-6.88
										c-0.46-1.04,0.05-1.51,0.16-1.6c0.11-0.34,0.28-0.55,0.5-0.63c0.3-0.09,0.6,0.09,0.67,0.14c0.43,0.04,0.72,0.66,0.78,0.79
										c0.95,0.42,4.86,1.21,6.51,1.54c2,0.38,3.16,1.83,3.04,3.76c-0.07,1.08-0.62,2.02-1.52,2.6
										C10.29,45.68,9.65,45.86,8.99,45.86z M1.55,36.6c-0.04,0-0.09,0-0.13,0.03C1.24,36.69,1.09,36.87,1,37.19l-0.01,0.03
										l-0.03,0.01c-0.03,0.01-0.6,0.41-0.13,1.46c0.01,0.05,1.63,4.65,6.86,6.8c1.01,0.41,2.17,0.32,3.06-0.25
										c0.87-0.55,1.41-1.46,1.47-2.5l0,0c0.12-1.87-1.01-3.26-2.93-3.63c-1.67-0.33-5.65-1.14-6.56-1.55l-0.03-0.01l-0.01-0.03
										c0-0.01-0.28-0.71-0.7-0.74H1.97l-0.01-0.01C1.99,36.75,1.77,36.6,1.55,36.6z"/>
								</g>
								<circle class="st6" cx="9.72" cy="42.7" r="2.04"/>
								<path class="st7" d="M9.72,40.99c0.95,0,1.71,0.76,1.71,1.71c0,0.95-0.76,1.71-1.71,1.71c-0.95,0-1.71-0.76-1.71-1.71
									C8.01,41.75,8.78,40.99,9.72,40.99 M9.72,40.33c-1.3,0-2.37,1.06-2.37,2.37c0,1.3,1.06,2.37,2.37,2.37s2.37-1.06,2.37-2.37
									C12.08,41.4,11.03,40.33,9.72,40.33L9.72,40.33z"/>
								<circle class="st8" cx="9.72" cy="42.7" r="0.92"/>
								<g>
									<circle class="st9" cx="9.72" cy="42.7" r="0.53"/>
									<line class="st10" x1="10.03" y1="42.39" x2="9.41" y2="43.01"/>
									<line class="st10" x1="9.44" y1="42.42" x2="9.99" y2="42.97"/>
								</g>
							</g>
						</g>
					</g>
				</g>
			</g>
			<g>
				<g>
					<g>
						<g>
							<defs>
								<path id="SVGID_13_" d="M12.31,42.72c-0.13,2.3-2.5,3.68-4.63,2.81c-5.32-2.18-6.9-6.84-6.9-6.84
									c-0.5-1.12,0.16-1.54,0.16-1.54c0.32-1.06,1.09-0.46,1.09-0.46c0.46,0.03,0.75,0.78,0.75,0.78c0.8,0.37,4.08,1.06,6.55,1.55
									C11.23,39.4,12.42,40.79,12.31,42.72L12.31,42.72z"/>
							</defs>
							<clipPath id="SVGID_14_">
								<use xlink:href="#SVGID_13_"  style="overflow:visible;"/>
							</clipPath>
							<g class="st18">
								<circle class="st9" cx="2.75" cy="37.96" r="0.26"/>
								<line class="st12" x1="2.6" y1="37.82" x2="2.91" y2="38.12"/>
								<line class="st12" x1="2.89" y1="37.83" x2="2.62" y2="38.11"/>
							</g>
						</g>
					</g>
				</g>
			</g>
			<g>
				<g>
					<g>
						<g>
							<defs>
								<path id="SVGID_15_" d="M12.31,42.72c-0.13,2.3-2.5,3.68-4.63,2.81c-5.32-2.18-6.9-6.84-6.9-6.84
									c-0.5-1.12,0.16-1.54,0.16-1.54c0.32-1.06,1.09-0.46,1.09-0.46c0.46,0.03,0.75,0.78,0.75,0.78c0.8,0.37,4.08,1.06,6.55,1.55
									C11.23,39.4,12.42,40.79,12.31,42.72L12.31,42.72z"/>
							</defs>
							<clipPath id="SVGID_16_">
								<use xlink:href="#SVGID_15_"  style="overflow:visible;"/>
							</clipPath>
							<g class="st19">
								<circle class="st9" cx="3.4" cy="38.23" r="0.26"/>
								<line class="st12" x1="3.26" y1="38.08" x2="3.56" y2="38.38"/>
								<line class="st12" x1="3.55" y1="38.1" x2="3.27" y2="38.37"/>
							</g>
						</g>
					</g>
				</g>
			</g>
			<g>
				<g>
					<g>
						<g>
							<defs>
								<path id="SVGID_17_" d="M12.31,42.72c-0.13,2.3-2.5,3.68-4.63,2.81c-5.32-2.18-6.9-6.84-6.9-6.84
									c-0.5-1.12,0.16-1.54,0.16-1.54c0.32-1.06,1.09-0.46,1.09-0.46c0.46,0.03,0.75,0.78,0.75,0.78c0.8,0.37,4.08,1.06,6.55,1.55
									C11.23,39.4,12.42,40.79,12.31,42.72L12.31,42.72z"/>
							</defs>
							<clipPath id="SVGID_18_">
								<use xlink:href="#SVGID_17_"  style="overflow:visible;"/>
							</clipPath>
							<g class="st20">
								<g>
									<path class="st15" d="M9.08,38.78c-0.62,0.17-1.18,0.42-1.62,0.91c-0.41,0.45-0.68,1-0.93,1.54
										c0.08-0.03,0.14-0.07,0.22-0.09c-0.57-0.14-1.16-0.11-1.71-0.26c-0.54-0.14-1.06-0.37-1.58-0.57
										c-1.03-0.41-2.02-0.89-2.91-1.55c-0.21-0.14-0.41,0.2-0.2,0.34c0.91,0.67,1.91,1.16,2.94,1.56
										c0.51,0.21,1.04,0.42,1.58,0.58c0.58,0.17,1.18,0.13,1.77,0.28c0.08,0.01,0.18-0.01,0.22-0.09
										c0.24-0.5,0.47-1.01,0.84-1.42c0.39-0.45,0.91-0.68,1.49-0.84C9.44,39.09,9.33,38.71,9.08,38.78L9.08,38.78z"/>
								</g>
							</g>
						</g>
					</g>
				</g>
			</g>
			<g>
				<g>
					<g>
						<g>
							<defs>
								<path id="SVGID_19_" d="M12.31,42.72c-0.13,2.3-2.5,3.68-4.63,2.81c-5.32-2.18-6.9-6.84-6.9-6.84
									c-0.5-1.12,0.16-1.54,0.16-1.54c0.32-1.06,1.09-0.46,1.09-0.46c0.46,0.03,0.75,0.78,0.75,0.78c0.8,0.37,4.08,1.06,6.55,1.55
									C11.23,39.4,12.42,40.79,12.31,42.72L12.31,42.72z"/>
							</defs>
							<clipPath id="SVGID_20_">
								<use xlink:href="#SVGID_19_"  style="overflow:visible;"/>
							</clipPath>
							<g class="st21">
								<g>
									<path class="st15" d="M2.59,42.91c0.46-0.5,1.29-0.38,1.87-0.2C5.18,42.95,5.1,43.79,5,44.38
										c-0.01,0.11,0.03,0.21,0.13,0.24c0.09,0.03,0.22-0.03,0.24-0.13c0.07-0.43,0.14-0.88,0.01-1.3
										c-0.12-0.38-0.37-0.67-0.75-0.82c-0.18-0.08-0.39-0.11-0.59-0.14c-0.22-0.04-0.45-0.07-0.67-0.05
										c-0.39,0.03-0.79,0.16-1.06,0.46C2.14,42.81,2.42,43.09,2.59,42.91L2.59,42.91z"/>
								</g>
							</g>
						</g>
					</g>
				</g>
			</g>
		</g>
		<g>
			<path class="st6" d="M10.5,47.03c-0.53,0.79-0.39,1.58-0.39,1.58s6.57,7.49,7.1,7.62c0.53,0.13,1.18-0.13,1.31-0.66
				c0.13-0.53-2.37-5-2.37-5L10.5,47.03z"/>
			<pattern  id="SVGID_21_" xlink:href="#SVGID_31_" patternTransform="matrix(1 0 0 1 13.3117 34280.8438)">
			</pattern>
			<path class="st22" d="M10.5,47.03c-0.53,0.79-0.39,1.58-0.39,1.58s6.57,7.49,7.1,7.62c0.53,0.13,1.18-0.13,1.31-0.66
				c0.13-0.53-2.37-5-2.37-5L10.5,47.03z"/>
		</g>
		<g>
			<path class="st6" d="M36.95,47.17c0.49,0.75,0.37,1.5,0.37,1.5s-6.05,7.15-6.53,7.27c-0.49,0.12-1.09-0.13-1.21-0.63
				c-0.12-0.5,2.18-4.76,2.18-4.76L36.95,47.17z"/>
			<pattern  id="SVGID_22_" xlink:href="#SVGID_32_" patternTransform="matrix(1 0 0 1 163.4892 34278.8438)">
			</pattern>
			<path class="st23" d="M36.95,47.17c0.49,0.75,0.37,1.5,0.37,1.5s-6.05,7.15-6.53,7.27c-0.49,0.12-1.09-0.13-1.21-0.63
				c-0.12-0.5,2.18-4.76,2.18-4.76L36.95,47.17z"/>
		</g>
		<g>
			<path class="st3" d="M9.9,48.57c-0.25-0.05-0.47,0.17-0.45,0.42c0.22,1.92,0.59,4.02,1.18,6.27c0,0,1.31,4.43,3.48,7.6
				c0,0,0.68,0.82,2.06,0.16c0,0,0.57-0.33-0.47-1c0,0,1.51-3.63,2.01-4.81c0.11-0.24,0.11-0.51-0.01-0.75
				C16.22,53.17,13.12,49.19,9.9,48.57z"/>
			<path class="st5" d="M15.16,63.34c-0.22,0-0.41-0.04-0.55-0.09c-0.35-0.13-0.54-0.34-0.54-0.34c-2.16-3.14-3.48-7.57-3.5-7.62
				c-0.54-2.05-0.93-4.17-1.18-6.28c-0.01-0.14,0.04-0.29,0.14-0.39c0.11-0.09,0.24-0.13,0.38-0.11c1.49,0.29,3.08,1.31,4.59,2.96
				c1.28,1.39,2.47,3.19,3.26,4.96c0.12,0.25,0.13,0.54,0.01,0.8c-0.46,1.09-1.8,4.31-1.99,4.76c0.41,0.28,0.62,0.53,0.6,0.76
				c0,0.21-0.18,0.32-0.18,0.32C15.8,63.27,15.45,63.34,15.16,63.34z M9.82,48.63c-0.08,0-0.14,0.03-0.2,0.08
				c-0.08,0.07-0.12,0.17-0.11,0.28c0.25,2.1,0.64,4.22,1.18,6.26c0.01,0.04,1.34,4.46,3.47,7.57c0.03,0.03,0.67,0.76,1.99,0.13
				c0,0,0.12-0.07,0.12-0.21c0-0.13-0.11-0.35-0.59-0.68l-0.05-0.03l0.03-0.05c0.01-0.04,1.51-3.64,2.01-4.81
				c0.11-0.22,0.09-0.47-0.01-0.7c-2.17-4.79-5.53-7.43-7.76-7.85l0,0C9.86,48.64,9.85,48.63,9.82,48.63z"/>
		</g>
		<g>
			<path class="st3" d="M30.42,56.99c0.5,1.17,1.84,4.3,2.43,5.06c0,0-0.99,0.12-0.51,0.72c0,0,1.05,0.66,1.99,0.08
				c0,0,2.14-3.83,2.81-8.31c0,0,0.35-1.13,0.54-5.56c0.01-0.26-0.25-0.46-0.5-0.38c-2.8,0.97-5.42,4.52-6.77,7.53
				C30.32,56.41,30.32,56.72,30.42,56.99z"/>
			<path class="st5" d="M33.47,63.15c-0.64,0-1.16-0.32-1.17-0.33l-0.01-0.01c-0.13-0.17-0.17-0.33-0.12-0.46
				c0.09-0.21,0.39-0.3,0.57-0.34c-0.63-0.91-1.93-3.96-2.38-4.98l0,0c-0.11-0.28-0.12-0.6-0.01-0.89c1.38-3.08,4.02-6.6,6.81-7.57
				c0.14-0.04,0.29-0.01,0.41,0.08c0.12,0.09,0.18,0.22,0.17,0.37c-0.18,4.39-0.53,5.53-0.54,5.57c-0.66,4.43-2.8,8.28-2.81,8.32
				l-0.01,0.01l-0.01,0.01C34.06,63.09,33.76,63.15,33.47,63.15z M32.38,62.72c0.11,0.07,1.05,0.59,1.89,0.08
				c0.14-0.26,2.16-4,2.8-8.27c0-0.03,0.35-1.2,0.54-5.55c0-0.11-0.04-0.2-0.12-0.26c-0.08-0.07-0.2-0.08-0.29-0.05
				c-2.75,0.96-5.36,4.46-6.73,7.49c-0.09,0.26-0.08,0.55,0.01,0.8c0.45,1.06,1.83,4.27,2.42,5.05l0.07,0.09l-0.12,0.01
				c-0.13,0.01-0.49,0.09-0.57,0.29C32.26,62.48,32.29,62.59,32.38,62.72z"/>
		</g>
		<g>
			<path class="st3" d="M37.15,42.17c0,1.77,0.11,4.21,0.07,5.48c-0.01,0.3-0.21,0.58-0.5,0.67c-2.81,0.95-5.44,4.52-6.81,7.56
				c-0.12,0.25-0.37,0.41-0.64,0.41c-1.83-0.03-8.57-0.08-10.4,0.08c-0.28,0.03-0.53-0.13-0.64-0.38c-1.49-3.22-4.5-7.1-7.65-7.8
				c-0.39-0.09-0.68-0.42-0.71-0.82c-0.13-1.58,0.09-3.93,0.12-5.21L37.15,42.17z"/>
			<path class="st5" d="M18.8,56.43c-0.28,0-0.53-0.16-0.64-0.42c-1.5-3.26-4.52-7.09-7.61-7.76c-0.43-0.11-0.74-0.45-0.76-0.88
				c-0.09-1.09-0.01-2.59,0.05-3.79c0.03-0.53,0.05-1.04,0.07-1.42v-0.07H37.2v0.07c0,0.76,0.01,1.66,0.04,2.52
				c0.03,1.14,0.05,2.23,0.03,2.96c-0.01,0.34-0.24,0.63-0.54,0.74c-2.75,0.92-5.39,4.44-6.77,7.52c-0.13,0.28-0.39,0.45-0.71,0.45
				c-1.62-0.03-8.53-0.08-10.4,0.08C18.85,56.43,18.83,56.43,18.8,56.43z M10.04,42.24c-0.01,0.38-0.04,0.85-0.07,1.37
				c-0.07,1.2-0.14,2.68-0.05,3.77c0.03,0.37,0.29,0.67,0.66,0.76c3.13,0.68,6.18,4.55,7.69,7.84c0.11,0.24,0.34,0.37,0.58,0.34
				c1.87-0.16,8.8-0.11,10.41-0.08c0.25,0,0.47-0.14,0.58-0.37c1.39-3.1,4.06-6.65,6.85-7.6c0.26-0.08,0.45-0.33,0.46-0.6
				c0.03-0.72,0-1.8-0.03-2.96c-0.01-0.84-0.04-1.71-0.04-2.46H10.04V42.24z"/>
		</g>
		<g>
			<g>
				<g>
					<g>
						<g>
							<defs>
								<path id="SVGID_23_" d="M37.15,42.17c0,1.77,0.11,4.21,0.07,5.48c-0.01,0.3-0.21,0.58-0.5,0.67
									c-2.81,0.95-5.44,4.52-6.81,7.56c-0.12,0.25-0.37,0.41-0.64,0.41c-1.83-0.03-8.57-0.08-10.4,0.08
									c-0.28,0.03-0.53-0.13-0.64-0.38c-1.49-3.22-4.5-7.1-7.65-7.8c-0.39-0.09-0.68-0.42-0.71-0.82
									c-0.13-1.58,0.09-3.93,0.12-5.21L37.15,42.17z"/>
							</defs>
							<clipPath id="SVGID_24_">
								<use xlink:href="#SVGID_23_"  style="overflow:visible;"/>
							</clipPath>
							<path class="st24" d="M38.3,43.93c-0.62,1.24-3.59,4.42-14.76,4.42S9.99,45.19,8.95,44.14l0.51-3.12l28.13-0.3L38.3,43.93z"
								/>
						</g>
					</g>
				</g>
			</g>
			<g>
				<g>
					<g>
						<g>
							<defs>
								<path id="SVGID_25_" d="M37.15,42.17c0,1.77,0.11,4.21,0.07,5.48c-0.01,0.3-0.21,0.58-0.5,0.67
									c-2.81,0.95-5.44,4.52-6.81,7.56c-0.12,0.25-0.37,0.41-0.64,0.41c-1.83-0.03-8.57-0.08-10.4,0.08
									c-0.28,0.03-0.53-0.13-0.64-0.38c-1.49-3.22-4.5-7.1-7.65-7.8c-0.39-0.09-0.68-0.42-0.71-0.82
									c-0.13-1.58,0.09-3.93,0.12-5.21L37.15,42.17z"/>
							</defs>
							<clipPath id="SVGID_26_">
								<use xlink:href="#SVGID_25_"  style="overflow:visible;"/>
							</clipPath>
							<g class="st25">
								<g>
									<g>
										<g>
											<g>
												<defs>
													<path id="SVGID_27_" d="M38.3,43.93c-0.62,1.24-3.59,4.42-14.76,4.42S9.99,45.19,8.95,44.14l0.51-3.12l28.13-0.3
														L38.3,43.93z"/>
												</defs>
												<clipPath id="SVGID_28_">
													<use xlink:href="#SVGID_27_"  style="overflow:visible;"/>
												</clipPath>
												<g class="st26">
													<g>
														<path class="st1" d="M10.99,48.49c-0.34-1.84-0.46-3.68-0.37-5.48l0-0.02c0.03-0.43,0.06-0.92,0.3-1.32l0.34,0.2
															c-0.2,0.32-0.22,0.74-0.25,1.14l0,0.01c-0.09,1.76,0.03,3.58,0.37,5.38L10.99,48.49z"/>
													</g>
													<g>
														<g>
															<g>
																<path class="st1" d="M12.12,41.71c-0.25,0.47-0.28,1.01-0.29,1.54c-0.01,0.58-0.01,1.16,0,1.74
																	c0.04,1.18,0.17,2.35,0.37,3.51c0.04,0.25,0.42,0.14,0.38-0.11c-0.2-1.1-0.3-2.22-0.35-3.34
																	c-0.03-0.55-0.03-1.12-0.01-1.68c0.01-0.49,0-1.03,0.24-1.47C12.57,41.68,12.24,41.49,12.12,41.71L12.12,41.71z"/>
															</g>
														</g>
														<g>
															<path class="st1" d="M12.21,48.49c-0.32-1.78-0.44-3.61-0.36-5.43c0.01-0.47,0.05-0.93,0.27-1.33l0.33,0.19
																c-0.19,0.32-0.21,0.73-0.23,1.16c-0.08,1.8,0.04,3.6,0.35,5.35L12.21,48.49z"/>
														</g>
													</g>
													<g>
														<g>
															<g>
																<path class="st1" d="M13.3,41.75c-0.24,0.47-0.25,1.01-0.26,1.54c-0.01,0.59-0.01,1.17,0.01,1.76
																	c0.04,1.16,0.16,2.31,0.34,3.46c0.04,0.25,0.42,0.14,0.38-0.11c-0.17-1.09-0.29-2.18-0.33-3.29
																	c-0.03-0.54-0.03-1.09-0.01-1.63c0.01-0.5-0.01-1.06,0.22-1.52C13.75,41.72,13.41,41.53,13.3,41.75L13.3,41.75z"/>
															</g>
														</g>
														<g>
															<path class="st1" d="M13.4,48.48c-0.29-1.8-0.41-3.62-0.34-5.4c0.01-0.45,0.05-0.92,0.26-1.31l0.31,0.17
																c-0.18,0.33-0.2,0.73-0.22,1.16c-0.06,1.76,0.05,3.55,0.34,5.33L13.4,48.48z"/>
														</g>
													</g>
													<g>
														<g>
															<g>
																<path class="st1" d="M14.49,41.79c-0.22,0.49-0.24,1-0.25,1.52c-0.01,0.58-0.01,1.16,0.01,1.74
																	c0.04,1.16,0.14,2.3,0.32,3.44c0.04,0.25,0.42,0.14,0.38-0.11c-0.16-1.09-0.26-2.18-0.3-3.27
																	c-0.03-0.54-0.03-1.08-0.01-1.6c0.01-0.5-0.01-1.05,0.2-1.52C14.92,41.76,14.59,41.57,14.49,41.79L14.49,41.79z"/>
															</g>
														</g>
														<g>
															<path class="st1" d="M14.6,48.48c-0.26-1.75-0.37-3.56-0.32-5.35c0.01-0.43,0.03-0.91,0.23-1.31l0.3,0.15
																c-0.17,0.33-0.18,0.75-0.19,1.16c-0.05,1.78,0.05,3.56,0.31,5.3L14.6,48.48z"/>
														</g>
													</g>
													<g>
														<g>
															<g>
																<path class="st1" d="M15.67,41.83c-0.21,0.49-0.22,1-0.22,1.52c-0.01,0.58,0,1.14,0.01,1.72
																	c0.04,1.14,0.14,2.29,0.29,3.43c0.01,0.11,0.14,0.16,0.24,0.13c0.12-0.03,0.16-0.13,0.13-0.24
																	c-0.14-1.08-0.24-2.17-0.28-3.26c-0.03-0.54-0.03-1.08-0.03-1.62c0-0.49-0.03-1.03,0.17-1.49
																	c0.04-0.11,0.03-0.21-0.07-0.28C15.85,41.71,15.71,41.74,15.67,41.83L15.67,41.83z"/>
															</g>
														</g>
														<g>
															<path class="st1" d="M15.79,48.46c-0.24-1.77-0.34-3.55-0.3-5.31c0.01-0.44,0.03-0.89,0.21-1.29L15.99,42
																c-0.16,0.34-0.17,0.75-0.18,1.16c-0.04,1.74,0.06,3.51,0.3,5.26L15.79,48.46z"/>
														</g>
													</g>
													<g>
														<g>
															<g>
																<path class="st1" d="M16.83,41.92c-0.18,0.49-0.18,1.01-0.18,1.52c0,0.55,0,1.12,0.03,1.67
																	c0.04,1.12,0.13,2.22,0.26,3.33c0.03,0.25,0.42,0.25,0.39,0c-0.13-1.08-0.22-2.17-0.26-3.26
																	c-0.03-0.54-0.03-1.08-0.03-1.6c0-0.53-0.01-1.06,0.17-1.55C17.3,41.79,16.92,41.68,16.83,41.92L16.83,41.92z"/>
															</g>
														</g>
														<g>
															<path class="st1" d="M16.99,48.47c-0.22-1.7-0.32-3.48-0.29-5.28c0-0.43,0.01-0.89,0.18-1.28l0.28,0.12
																C17.02,42.37,17,42.8,17,43.2c-0.03,1.79,0.07,3.55,0.29,5.24L16.99,48.47z"/>
														</g>
													</g>
													<g>
														<g>
															<g>
																<path class="st1" d="M18.01,41.96c-0.17,0.49-0.16,1.01-0.16,1.52c0,0.55,0.01,1.1,0.03,1.64
																	c0.04,1.1,0.12,2.21,0.24,3.31c0.03,0.25,0.42,0.25,0.39,0c-0.12-1.08-0.2-2.17-0.24-3.25
																	c-0.01-0.54-0.03-1.08-0.03-1.62c0-0.51-0.03-1.03,0.14-1.51C18.47,41.82,18.09,41.72,18.01,41.96L18.01,41.96z"/>
															</g>
														</g>
														<g>
															<path class="st1" d="M18.17,48.46c-0.19-1.76-0.28-3.52-0.26-5.24c0-0.42,0.01-0.87,0.17-1.26l0.26,0.1
																c-0.14,0.35-0.15,0.76-0.15,1.16c-0.01,1.71,0.08,3.46,0.26,5.2L18.17,48.46z"/>
														</g>
													</g>
													<g>
														<g>
															<g>
																<path class="st1" d="M19.19,42c-0.16,0.47-0.14,0.99-0.14,1.49c0,0.55,0.01,1.1,0.03,1.66
																	c0.04,1.1,0.11,2.21,0.21,3.3c0.03,0.25,0.42,0.25,0.39,0c-0.11-1.08-0.17-2.16-0.21-3.23
																	c-0.01-0.54-0.03-1.08-0.04-1.63c0-0.5-0.03-1,0.13-1.47C19.65,41.86,19.27,41.75,19.19,42L19.19,42z"/>
															</g>
														</g>
														<g>
															<path class="st1" d="M19.38,48.47c-0.17-1.67-0.25-3.43-0.25-5.21c0-0.42,0-0.86,0.14-1.25l0.25,0.09
																c-0.12,0.35-0.12,0.74-0.12,1.17c0,1.77,0.08,3.51,0.25,5.18L19.38,48.47z"/>
														</g>
													</g>
													<g>
														<g>
															<g>
																<path class="st1" d="M20.38,42.04c-0.14,0.49-0.12,1-0.12,1.51c0,0.55,0.01,1.1,0.04,1.64
																	c0.04,1.08,0.11,2.17,0.18,3.25c0.03,0.25,0.42,0.25,0.39,0c-0.09-1.06-0.14-2.12-0.18-3.18
																	c-0.01-0.53-0.03-1.05-0.04-1.58c0-0.51-0.04-1.04,0.11-1.54C20.82,41.89,20.44,41.79,20.38,42.04L20.38,42.04z"/>
															</g>
														</g>
														<g>
															<path class="st1" d="M20.56,48.45c-0.14-1.75-0.21-3.49-0.22-5.16c0-0.42,0-0.85,0.12-1.23l0.23,0.07
																c-0.11,0.35-0.11,0.76-0.11,1.16c0.01,1.67,0.09,3.4,0.22,5.14L20.56,48.45z"/>
														</g>
													</g>
													<g>
														<g>
															<g>
																<path class="st1" d="M21.56,42.08c-0.12,0.49-0.11,1-0.09,1.5c0.01,0.54,0.03,1.08,0.04,1.63
																	c0.04,1.08,0.09,2.16,0.17,3.23c0.01,0.25,0.41,0.25,0.39,0c-0.08-1.05-0.13-2.12-0.17-3.17
																	c-0.01-0.53-0.03-1.04-0.04-1.56c-0.01-0.51-0.04-1.04,0.08-1.52C22.01,41.93,21.63,41.83,21.56,42.08L21.56,42.08z
																	"/>
															</g>
														</g>
														<g>
															<path class="st1" d="M21.76,48.45c-0.11-1.59-0.18-3.32-0.21-5.12c-0.01-0.39-0.02-0.83,0.1-1.23l0.22,0.06
																c-0.1,0.36-0.1,0.79-0.09,1.16c0.03,1.8,0.1,3.52,0.21,5.11L21.76,48.45z"/>
														</g>
													</g>
													<g>
														<g>
															<g>
																<path class="st1" d="M22.74,42.12c-0.11,0.49-0.09,1-0.08,1.5c0.01,0.54,0.03,1.08,0.04,1.62
																	c0.04,1.08,0.08,2.14,0.14,3.21c0.01,0.25,0.41,0.25,0.39,0c-0.05-1.05-0.11-2.1-0.14-3.16
																	c-0.01-0.51-0.03-1.04-0.04-1.55c-0.01-0.5-0.05-1.03,0.05-1.52C23.18,41.97,22.8,41.87,22.74,42.12L22.74,42.12z"
																	/>
															</g>
														</g>
														<g>
															<path class="st1" d="M22.96,48.45c-0.09-1.67-0.16-3.38-0.2-5.09l0-0.13c0-0.36,0-0.74,0.08-1.08l0.2,0.05
																c-0.08,0.31-0.08,0.68-0.08,1.03l0,0.13c0.04,1.71,0.11,3.42,0.2,5.08L22.96,48.45z"/>
														</g>
													</g>
													<g>
														<g>
															<g>
																<path class="st1" d="M23.93,42.14c-0.09,0.5-0.07,1.01-0.05,1.52c0.01,0.53,0.03,1.06,0.05,1.59
																	c0.04,1.05,0.08,2.12,0.12,3.17c0.01,0.25,0.41,0.25,0.39,0c-0.04-1.04-0.08-2.06-0.12-3.1
																	c-0.01-0.51-0.04-1.04-0.05-1.55c-0.01-0.5-0.05-1.01,0.04-1.51C24.35,42.01,23.98,41.91,23.93,42.14L23.93,42.14z"
																	/>
															</g>
														</g>
														<g>
															<path class="st1" d="M24.15,48.43c-0.06-1.63-0.12-3.31-0.17-4.93l0-0.12c-0.01-0.41-0.03-0.83,0.05-1.21l0.18,0.04
																c-0.08,0.36-0.06,0.77-0.05,1.16l0,0.12c0.05,1.62,0.1,3.3,0.17,4.93L24.15,48.43z"/>
														</g>
													</g>
													<g>
														<g>
															<g>
																<path class="st1" d="M25.11,42.18c-0.08,0.5-0.05,0.99-0.03,1.49c0.01,0.54,0.04,1.06,0.05,1.6
																	c0.04,1.05,0.07,2.1,0.09,3.16c0.01,0.25,0.41,0.25,0.39,0c-0.03-1.03-0.05-2.06-0.09-3.09
																	c-0.01-0.51-0.04-1.03-0.05-1.54c-0.01-0.5-0.07-1.01,0.01-1.51C25.53,42.05,25.15,41.93,25.11,42.18L25.11,42.18z"
																	/>
															</g>
														</g>
														<g>
															<path class="st1" d="M25.35,48.42c-0.04-1.68-0.09-3.37-0.16-5.01c-0.03-0.39-0.04-0.81,0.03-1.19l0.17,0.03
																c-0.07,0.36-0.05,0.77-0.03,1.15c0.06,1.64,0.12,3.33,0.16,5.01L25.35,48.42z"/>
														</g>
													</g>
													<g>
														<g>
															<g>
																<path class="st1" d="M26.29,42.28c-0.05,0.5-0.01,1,0,1.49c0.03,0.51,0.04,1.04,0.05,1.55
																	c0.04,1.04,0.05,2.06,0.07,3.1c0,0.25,0.39,0.25,0.39,0c-0.01-1.04-0.04-2.06-0.07-3.1
																	c-0.01-0.51-0.04-1.04-0.05-1.55c-0.03-0.5-0.05-1,0-1.49C26.71,42.03,26.32,42.03,26.29,42.28L26.29,42.28z"/>
															</g>
														</g>
														<g>
															<path class="st1" d="M26.55,48.43c-0.02-1.51-0.07-3.14-0.14-4.98l-0.01-0.17c-0.01-0.34-0.03-0.69,0.02-1.02
																l0.15,0.02c-0.04,0.31-0.03,0.66-0.02,0.99l0.01,0.17c0.07,1.84,0.12,3.47,0.14,4.98L26.55,48.43z"/>
														</g>
													</g>
													<g>
														<g>
															<g>
																<path class="st1" d="M27.48,42.32c-0.04,0.5,0,0.99,0.03,1.49c0.03,0.51,0.04,1.03,0.07,1.54
																	c0.03,1.03,0.05,2.06,0.05,3.09c0,0.25,0.39,0.25,0.39,0c0-1.03-0.01-2.06-0.05-3.09
																	c-0.01-0.51-0.04-1.03-0.07-1.54c-0.03-0.5-0.07-0.99-0.03-1.49C27.88,42.07,27.49,42.07,27.48,42.32L27.48,42.32z"
																	/>
															</g>
														</g>
														<g>
															<path class="st1" d="M27.87,48.42l-0.13,0c0.01-1.45-0.03-3.02-0.12-4.94c-0.03-0.48-0.04-0.85-0.01-1.16l0.13,0.01
																c-0.02,0.31-0.02,0.68,0.01,1.15C27.84,45.4,27.88,46.97,27.87,48.42z"/>
														</g>
													</g>
													<g>
														<g>
															<g>
																<path class="st1" d="M28.66,42.35c-0.03,0.5,0.03,1,0.05,1.51s0.05,1.01,0.07,1.52c0.03,1.01,0.04,2.02,0.03,3.04
																	c0,0.25,0.39,0.25,0.39,0c0.01-1.01,0.01-2.02-0.03-3.04c-0.01-0.5-0.04-1-0.07-1.49
																	c-0.03-0.51-0.08-1.03-0.05-1.54C29.05,42.11,28.66,42.11,28.66,42.35L28.66,42.35z"/>
															</g>
														</g>
														<g>
															<path class="st1" d="M29.04,48.43l-0.11,0c0.03-1.57-0.01-3.23-0.11-4.91c-0.03-0.45-0.04-0.83-0.03-1.16l0.11,0
																c-0.01,0.33,0,0.71,0.03,1.15C29.03,45.2,29.07,46.85,29.04,48.43z"/>
														</g>
													</g>
													<g>
														<g>
															<g>
																<path class="st1" d="M29.84,42.39c0,0.49,0.04,0.99,0.07,1.47c0.03,0.51,0.05,1.03,0.07,1.52
																	c0.03,1.01,0.03,2.01,0,3.02c-0.01,0.25,0.38,0.25,0.39,0c0.03-1.01,0.03-2.01,0-3.02c-0.01-0.5-0.04-1-0.07-1.5
																	c-0.03-0.5-0.08-1-0.07-1.5C30.24,42.14,29.84,42.14,29.84,42.39L29.84,42.39z"/>
															</g>
														</g>
														<g>
															<path class="st1" d="M30.23,48.42l-0.09,0c0.05-1.53,0.02-3.17-0.09-4.87c-0.02-0.34-0.05-0.76-0.05-1.15h0.09
																c0,0.38,0.03,0.8,0.05,1.14C30.25,45.24,30.28,46.88,30.23,48.42z"/>
														</g>
													</g>
													<g>
														<g>
															<g>
																<path class="st1" d="M31.03,42.43c0.03,1,0.13,1.99,0.17,2.98c0.03,1,0.03,2-0.03,3c-0.01,0.25,0.38,0.25,0.39,0
																	c0.04-1,0.05-2,0.03-3c-0.03-1-0.14-1.99-0.17-2.98C31.41,42.18,31.01,42.18,31.03,42.43L31.03,42.43z"/>
															</g>
														</g>
														<g>
															<path class="st1" d="M31.39,48.42l-0.07,0c0.08-1.56,0.05-3.19-0.07-4.83l-0.01-0.08c-0.02-0.37-0.05-0.72-0.06-1.06
																l0.08,0c0.01,0.34,0.04,0.69,0.06,1.06l0.01,0.08C31.45,45.22,31.47,46.85,31.39,48.42z"/>
														</g>
													</g>
													<g>
														<g>
															<g>
																<path class="st1" d="M32.21,42.47c0.05,0.99,0.16,1.96,0.2,2.96c0.03,1,0.01,2-0.05,2.98
																	c-0.01,0.25,0.38,0.25,0.39,0c0.07-1,0.08-2,0.05-2.98s-0.13-1.97-0.2-2.96C32.59,42.22,32.2,42.22,32.21,42.47
																	L32.21,42.47z"/>
															</g>
														</g>
														<g>
															<path class="st1" d="M32.58,48.42l-0.06,0c0.1-1.53,0.08-3.15-0.05-4.81c-0.04-0.36-0.06-0.71-0.09-1.06l-0.01-0.07
																l0.06,0l0.01,0.07c0.02,0.34,0.05,0.7,0.09,1.06C32.66,45.26,32.68,46.88,32.58,48.42z"/>
														</g>
													</g>
													<g>
														<g>
															<g>
																<path class="st1" d="M33.39,42.51c0.09,0.97,0.18,1.95,0.22,2.93c0.03,0.99,0,1.99-0.08,2.97
																	c-0.01,0.25,0.38,0.25,0.39,0c0.08-0.99,0.11-1.97,0.08-2.97c-0.03-0.99-0.13-1.96-0.22-2.93
																	C33.76,42.26,33.37,42.26,33.39,42.51L33.39,42.51z"/>
															</g>
														</g>
														<g>
															<path class="st1" d="M33.75,48.42l-0.04,0c0.12-1.58,0.11-3.18-0.04-4.77c-0.03-0.39-0.07-0.77-0.11-1.13l0.04,0
																c0.04,0.36,0.08,0.74,0.11,1.13C33.86,45.23,33.87,46.84,33.75,48.42z"/>
														</g>
													</g>
													<g>
														<g>
															<g>
																<path class="st1" d="M34.58,42.55c0.25,1.95,0.33,3.89,0.14,5.86c-0.03,0.25,0.37,0.25,0.39,0
																	c0.18-1.96,0.11-3.9-0.14-5.86C34.93,42.3,34.54,42.3,34.58,42.55L34.58,42.55z"/>
															</g>
														</g>
														<g>
															<path class="st1" d="M34.93,48.42l-0.02,0c0.15-1.6,0.14-3.19-0.01-4.74l-0.01-0.1c-0.04-0.34-0.07-0.68-0.12-1.02
																l0.02,0c0.05,0.34,0.09,0.68,0.12,1.02l0.01,0.1C35.07,45.22,35.07,46.82,34.93,48.42z"/>
														</g>
													</g>
													<g>
														<g>
															<g>
																<path class="st1" d="M35.76,42.64c0.3,1.91,0.35,3.85,0.14,5.76c-0.03,0.25,0.37,0.25,0.39,0
																	c0.21-1.96,0.16-3.93-0.16-5.86C36.1,42.29,35.72,42.39,35.76,42.64L35.76,42.64z"/>
															</g>
														</g>
													</g>
												</g>
											</g>
										</g>
									</g>
								</g>
							</g>
						</g>
					</g>
				</g>
			</g>
		</g>
		<g>
			<path class="st3" d="M23.45,52.33c-0.79-0.5-3.97-2.48-4.61-2.83c-0.04-0.03-0.12-0.07-0.14-0.09c-0.03-0.03-0.03-0.13-0.03-0.2
				l-0.09-2.01l-0.24-0.05c-1.43-0.34-2.91-0.68-4.22-1.37c-1.41-0.74-2.59-1.8-3.94-3.17c-0.12-0.12-0.18-0.29-0.18-0.46
				c0.01-0.54,0.04-1.08,0.08-1.6c0.16-2.14,1.96-3.83,4.11-3.83c0.04,0,0.09,0,0.13,0l20.01,0.63c1.43,0.04,2.55,1.2,2.58,2.63
				c0.01,0.75,0.01,1.49,0.01,2.18c0,0.17-0.07,0.32-0.18,0.43l-0.01,0.03c-1.34,1.38-2.52,2.45-3.94,3.17
				c-1.31,0.68-2.79,1.03-4.22,1.37l-0.24,0.05l-0.09,2c0,0.07-0.01,0.16-0.03,0.2c-0.01,0.01-0.05,0.04-0.08,0.05
				c-0.04,0.03-0.07,0.04-0.11,0.07C27.86,49.65,25.27,51.23,23.45,52.33z"/>
			<path class="st1" d="M14.2,37.03c0.04,0,0.08,0,0.12,0l20.01,0.63c1.25,0.04,2.23,1.05,2.25,2.3c0.01,0.75,0.01,1.47,0.01,2.17
				c0,0.08-0.03,0.16-0.08,0.21l-0.01,0.01c-1.31,1.35-2.48,2.39-3.85,3.1c-1.28,0.66-2.73,1.01-4.14,1.34l-0.49,0.12l-0.03,0.5
				l-0.04,0.91l-0.04,0.87c0,0,0,0,0,0.01c-0.03,0.01-0.05,0.03-0.07,0.05c-0.2,0.13-2.66,1.64-4.38,2.7
				c-1-0.63-3.84-2.41-4.46-2.73V49.2l-0.04-0.87l-0.04-0.91l-0.03-0.5l-0.49-0.12c-1.41-0.33-2.87-0.68-4.14-1.34
				c-1.37-0.71-2.54-1.76-3.85-3.12c-0.05-0.05-0.09-0.14-0.08-0.22c0.01-0.54,0.04-1.08,0.08-1.59
				C10.56,38.58,12.21,37.03,14.2,37.03 M14.2,36.37c-2.33,0-4.27,1.8-4.44,4.13c-0.04,0.5-0.07,1.04-0.08,1.62
				c-0.01,0.26,0.09,0.51,0.28,0.7l0,0c1.21,1.24,2.48,2.43,4.02,3.23c1.34,0.7,2.83,1.05,4.3,1.39c0.03,0.59,0.05,1.18,0.08,1.76
				c0,0.12,0.01,0.25,0.08,0.35c0.07,0.09,0.16,0.14,0.26,0.2c0.71,0.38,4.76,2.93,4.76,2.93s4.54-2.76,4.76-2.93
				c0.09-0.07,0.2-0.11,0.26-0.2c0.07-0.11,0.08-0.24,0.08-0.35c0.03-0.59,0.05-1.18,0.08-1.76c1.47-0.35,2.96-0.71,4.3-1.39
				c1.54-0.79,2.81-2,4.02-3.23l0.01-0.03c0.17-0.18,0.28-0.42,0.28-0.67c0-0.68,0-1.42-0.01-2.18c-0.01-1.6-1.29-2.91-2.89-2.94
				l-20.01-0.63C14.29,36.39,14.24,36.37,14.2,36.37L14.2,36.37z"/>
		</g>
		<g>
			<g>
				<path class="st27" d="M22.27,49.8c0.25,0.12,0.51,0.18,0.78,0.18c0.18,0.01,0.37-0.03,0.54-0.05c0.34-0.07,0.64-0.22,0.89-0.47
					c0.03-0.03,0.03-0.05,0.05-0.09c-0.04,0-0.04,0-0.05,0c-0.35,0.28-0.75,0.37-1.2,0.3c-0.39-0.07-0.72-0.25-0.99-0.55
					c-0.32-0.37-0.43-0.79-0.38-1.26c0.04-0.41,0.18-0.78,0.45-1.09c0.22-0.28,0.51-0.46,0.85-0.57c0.39-0.13,0.8-0.14,1.21-0.07
					c0.26,0.05,0.5,0.17,0.72,0.33c0.01,0.01,0.04,0.01,0.07,0.01c0-0.01,0-0.04-0.01-0.05c-0.28-0.26-0.58-0.47-0.95-0.58
					c-0.17-0.05-0.35-0.08-0.53-0.12l-0.28-0.01c-0.01,0-0.01,0.01-0.03,0.01c-0.39,0.01-0.75,0.12-1.09,0.32
					c-0.37,0.21-0.67,0.5-0.88,0.85c-0.26,0.45-0.37,0.93-0.29,1.45c0.03,0.21,0.11,0.42,0.21,0.6c0.14,0.25,0.35,0.51,0.55,0.63
					C22.14,49.73,22.19,49.76,22.27,49.8"/>
			</g>
			<g>
				<path class="st28" d="M25.98,48.18c0.01-0.57-0.21-1.05-0.63-1.42c-0.46-0.41-1.01-0.55-1.62-0.47
					c-0.42,0.05-0.79,0.21-1.09,0.51c-0.03,0.01-0.04,0.04-0.05,0.07c0,0.01,0.01,0.01,0.01,0.03c0.03-0.01,0.04-0.01,0.07-0.03
					c0.34-0.24,0.72-0.33,1.14-0.28c0.51,0.07,0.89,0.33,1.17,0.76c0.26,0.42,0.29,0.87,0.17,1.34c-0.16,0.63-0.54,1.09-1.14,1.33
					c-0.38,0.16-0.78,0.2-1.18,0.13c-0.28-0.05-0.54-0.14-0.76-0.3c-0.03-0.01-0.11-0.09-0.13-0.08c-0.01,0-0.03,0.01-0.05,0.03
					c0.01,0.01,0.03,0.04,0.04,0.04c0.38,0.35,0.83,0.59,1.35,0.66c0.53,0.07,1.03-0.01,1.49-0.28
					C25.53,49.76,25.96,49.09,25.98,48.18"/>
			</g>
			<g>
				<path class="st29" d="M24.36,48.11c-0.26,0.25-0.51,0.47-0.78,0.71c-0.01,0.01-0.08,0-0.09-0.01c-0.17-0.18-0.34-0.37-0.51-0.54
					c-0.05-0.07-0.12-0.12-0.18-0.2c0.03-0.03,0.05-0.05,0.08-0.08c0.22-0.21,0.45-0.42,0.66-0.63c0.04-0.04,0.07-0.04,0.09,0
					c0.17,0.18,0.34,0.37,0.53,0.55C24.22,47.98,24.28,48.05,24.36,48.11"/>
			</g>
		</g>
		<g>
			<circle class="st30" cx="35.75" cy="48.35" r="0.26"/>
			<line class="st31" x1="35.9" y1="48.21" x2="35.6" y2="48.51"/>
			<line class="st31" x1="35.61" y1="48.22" x2="35.89" y2="48.49"/>
		</g>
		<g>
			<ellipse class="st30" cx="32.2" cy="51.24" rx="0.26" ry="0.26"/>
			<line class="st31" x1="32.35" y1="51.1" x2="32.05" y2="51.4"/>
			<line class="st31" x1="32.06" y1="51.11" x2="32.34" y2="51.39"/>
		</g>
		<g>
			<circle class="st30" cx="28.51" cy="55.71" r="0.26"/>
			<line class="st31" x1="28.67" y1="55.57" x2="28.37" y2="55.87"/>
			<line class="st31" x1="28.38" y1="55.58" x2="28.66" y2="55.86"/>
		</g>
		<g>
			<circle class="st30" cx="11.69" cy="47.96" r="0.26"/>
			<line class="st31" x1="11.54" y1="47.81" x2="11.84" y2="48.11"/>
			<line class="st31" x1="11.83" y1="47.82" x2="11.56" y2="48.1"/>
		</g>
		<g>
			<circle class="st30" cx="15.5" cy="51.11" r="0.26"/>
			<line class="st31" x1="15.36" y1="50.97" x2="15.66" y2="51.27"/>
			<line class="st31" x1="15.64" y1="50.98" x2="15.37" y2="51.26"/>
		</g>
		<g>
			<circle class="st30" cx="19.58" cy="55.84" r="0.26"/>
			<line class="st31" x1="19.43" y1="55.7" x2="19.73" y2="56"/>
			<line class="st31" x1="19.72" y1="55.71" x2="19.44" y2="55.99"/>
		</g>
		<circle class="st2" cx="23.97" cy="25.15" r="19.92"/>
		<g>
			<path class="st32" d="M35.77,18.14c-2.37-4.72-8.2-6.47-12.29-6.89c0,0-4.22-0.59-3.58,1.34c0,0,1.34,2.2-2.59,1.46
				c-5.01-0.95-8.53,8.3-7.49,13.79c1,5.34,7.13,9.2,17.31,7.76c1.04-0.14,5.04-1.09,6.76-2.25C41.08,28.49,37.74,22.08,35.77,18.14
				z"/>
			<g>
				<path class="st33" d="M32.35,21.66c-0.21-0.13-0.49-0.08-0.63,0.13l-0.71,1.09c-0.13,0.21-0.08,0.49,0.13,0.63
					c0.11,0.07,0.22,0.09,0.34,0.07c0.12-0.03,0.22-0.09,0.29-0.2l0.71-1.09C32.63,22.08,32.56,21.79,32.35,21.66z"/>
			</g>
			<g>
				<path class="st33" d="M33.67,22c-0.21-0.13-0.49-0.08-0.63,0.13l-0.71,1.09c-0.13,0.21-0.08,0.49,0.13,0.63
					c0.11,0.07,0.22,0.09,0.34,0.07c0.12-0.03,0.22-0.09,0.29-0.2l0.71-1.09C33.94,22.41,33.88,22.14,33.67,22z"/>
			</g>
			<g>
				<path class="st33" d="M15.67,22.48c-0.21-0.13-0.49-0.08-0.63,0.13l-0.71,1.09c-0.13,0.21-0.08,0.49,0.13,0.63
					c0.11,0.07,0.22,0.09,0.34,0.07c0.12-0.03,0.22-0.09,0.29-0.2l0.71-1.09C15.93,22.88,15.88,22.61,15.67,22.48z"/>
			</g>
			<g>
				<path class="st33" d="M16.99,22.81c-0.21-0.13-0.49-0.08-0.63,0.13l-0.71,1.09c-0.13,0.21-0.08,0.49,0.13,0.63
					c0.11,0.07,0.22,0.09,0.34,0.07c0.12-0.03,0.22-0.09,0.29-0.2l0.71-1.09C17.25,23.23,17.2,22.95,16.99,22.81z"/>
			</g>
			<path class="st34" d="M22.94,28.38c0,0,0.29,3.02,2.37,2.68c2.09-0.34,1.67-2.92,1.67-3.6s-2.06-1.63-2.06-1.63L22.94,28.38z"/>
			<g>
				<path class="st33" d="M31.25,24.66c-0.55-0.6-1.41-0.87-2.2-0.96c-1.3-0.14-2.67,0.29-3.65,1.17c-0.29,0.26-0.45,0.59-0.49,0.96
					c-0.08-0.18-0.2-0.35-0.32-0.51c-0.96-1.2-2.64-1.67-4.13-1.56c-1.12,0.08-2.43,0.32-3.31,1.09c-0.01,0.01-0.03,0.01-0.03,0.03
					c-0.72,0.66-1.04,1.83-0.42,2.67c0.43,0.58,1.25,0.88,1.92,1.06c1.56,0.45,3.54,0.63,5.02-0.16c0.49-0.25,0.91-0.63,1.17-1.1
					c0.12-0.21,0.2-0.43,0.22-0.66c0.21,0.45,0.66,0.68,1.13,0.82c1.12,0.33,2.38,0.45,3.52,0.16
					C30.95,27.34,32.42,25.93,31.25,24.66z"/>
			</g>
			<g>
				<path class="st35" d="M25.4,26.51c0.57-0.18,1.38-0.68,1.34-1.59c-0.05-1.46-2.08-1.8-3.1-1.67c-1.18,0.16-2.2,1.33-1.97,2.43
					c0.2,0.93,1.49,1.06,2.43,1.06C24.11,26.75,24.83,26.71,25.4,26.51z"/>
			</g>
			<g>
				<path class="st35" d="M19.46,23.34L19.46,23.34c-0.8-0.07-1.39-0.78-1.33-1.56l0,0c0.07-0.8,0.78-1.39,1.56-1.33l0,0
					c0.8,0.07,1.39,0.78,1.33,1.56l0,0C20.97,22.82,20.26,23.41,19.46,23.34z"/>
			</g>
			<g>
				<path class="st35" d="M28.41,23.19L28.41,23.19c-0.8-0.07-1.39-0.78-1.33-1.56l0,0c0.07-0.8,0.78-1.39,1.56-1.33l0,0
					c0.8,0.07,1.39,0.78,1.33,1.56l0,0C29.91,22.65,29.21,23.25,28.41,23.19z"/>
			</g>
			
				<ellipse transform="matrix(0.0822 -0.9966 0.9966 0.0822 6.3808 43.7001)" class="st35" cx="26.92" cy="18.39" rx="0.64" ry="0.99"/>
			
				<ellipse transform="matrix(0.0822 -0.9966 0.9966 0.0822 0.1322 37.0936)" class="st35" cx="20.21" cy="18.48" rx="0.64" ry="0.99"/>
			<g>
				<path class="st33" d="M27.15,31.22c-0.22-0.03-0.42,0.14-0.45,0.37c-0.03,0.28-0.67,0.59-1.09,0.7
					c-0.85,0.2-1.56-0.04-1.76-0.14c-0.08-0.11-0.2-0.17-0.33-0.16c-0.22,0-0.41,0.2-0.39,0.42c0,0.11,0.04,0.25,0.21,0.37
					c0.35,0.28,1.39,0.57,2.48,0.32c0.03,0,0.08-0.03,0.16-0.05c0.42-0.13,1.47-0.54,1.55-1.37C27.53,31.43,27.37,31.23,27.15,31.22
					z M23.94,32.38L23.94,32.38L23.94,32.38z"/>
			</g>
		</g>
		<path class="st36" d="M6.82,21.4c1.71-1.45,3.16-7.49,16.3-7.62c13.15-0.13,18.41,7.36,18.41,7.36l1.71-3.16l-7.62-9.47
			L18.52,9.96L7.85,14.08l-2.47,5.61L6.82,21.4z"/>
		<g>
			<path class="st37" d="M22.72,45.33c-4.18,0-8.39-2.38-11.87-4.57c-3.22-2.04-5.52-7.35-6.31-9.99l3.97-0.67
				c1.18,4.01,7.39,8.43,14.38,8.33c3.96-0.04,7.95-0.96,10.96-2.51c2.33-1.2,5.17-3.37,5.4-6.86l4.08,0.16
				c-0.26,3.77-3.37,8.66-7.18,11.88c-3.3,2.79-8.47,4.18-13.2,4.23C22.87,45.33,22.8,45.33,22.72,45.33z"/>
		</g>
		<g>
			<path class="st3" d="M6.56,20.14c0,0,1.22-7.72,17.62-7.72s16.67,7.03,16.67,7.03s-4.34,13.95,1.49,13.69
				c5.82-0.28,5.28-9.22,3.52-13.82c-1.76-4.6-5.96-16.93-21.94-16.8S2.37,14.85,1.7,20.68S1.14,34.64,5.35,34.64
				S10.08,27.18,6.56,20.14z"/>
			<path class="st5" d="M5.35,34.7c-0.85,0-1.59-0.34-2.18-1c-0.96-1.06-1.54-2.98-1.75-5.68c-0.21-2.68,0-5.48,0.22-7.35
				c0.34-2.97,1.93-7.48,5.38-11.25c4.11-4.5,9.97-6.9,16.91-6.97c15.57-0.13,19.96,11.46,21.84,16.42l0.16,0.42
				c1.18,3.1,1.96,8.85-0.03,11.91c-0.82,1.25-2.01,1.92-3.55,2c-0.93,0.04-1.67-0.28-2.18-0.95c-1-1.29-1.2-3.84-0.58-7.59
				c0.43-2.68,1.16-5.05,1.21-5.23c-0.01-0.14-0.18-1.81-2.17-3.47c-1.92-1.59-5.99-3.5-14.43-3.5c-4.67,0-11.04,0.67-14.91,3.84
				c-2.18,1.79-2.59,3.59-2.63,3.8c2.45,4.9,3.04,10.39,1.41,13.03C7.4,34.16,6.48,34.7,5.35,34.7z M24.16,2.59
				c-0.08,0-0.17,0-0.25,0c-6.9,0.05-12.71,2.45-16.8,6.93c-3.43,3.75-5.01,8.23-5.35,11.17C1.5,23.03,0.8,30.86,3.26,33.63
				c0.57,0.63,1.28,0.96,2.09,0.96c1.09,0,1.96-0.5,2.56-1.49c1.62-2.62,1.03-8.05-1.42-12.92l-0.01-0.01v-0.03
				c0-0.01,0.34-1.97,2.68-3.9c2.16-1.76,6.51-3.88,15-3.88c4.68,0,11,0.62,14.53,3.54c2.12,1.76,2.21,3.5,2.21,3.56v0.01v0.01
				c-0.03,0.09-2.98,9.7-0.66,12.71c0.49,0.63,1.18,0.93,2.08,0.89c1.49-0.07,2.66-0.72,3.44-1.93c1.18-1.81,1.97-6.68,0.01-11.79
				l-0.16-0.42C43.78,14.02,39.43,2.59,24.16,2.59z"/>
		</g>
		<g>
			<g>
				<g>
					<g>
						<g>
							<defs>
								<path id="SVGID_29_" d="M6.56,20.14c0,0,1.22-7.72,17.62-7.72s16.67,7.03,16.67,7.03s-4.34,13.95,1.49,13.69
									c5.82-0.28,5.28-9.22,3.52-13.82c-1.76-4.6-5.96-16.93-21.94-16.8S2.37,14.85,1.7,20.68S1.14,34.64,5.35,34.64
									S10.08,27.18,6.56,20.14z"/>
							</defs>
							<clipPath id="SVGID_30_">
								<use xlink:href="#SVGID_29_"  style="overflow:visible;"/>
							</clipPath>
							<g class="st38">
								<g>
									<g>
										<path class="st15" d="M10.65,3.6c-0.43,2.12,0.03,4.3,1,6.19c1.01,1.95,2.56,3.55,4.27,4.88
											c0.97,0.76,2.01,1.45,3.06,2.09c0.22,0.13,0.42-0.21,0.2-0.34c-1.81-1.12-3.58-2.34-5.05-3.88
											c-1.45-1.51-2.58-3.34-3.05-5.4c-0.26-1.13-0.3-2.31-0.07-3.44C11.08,3.45,10.7,3.35,10.65,3.6L10.65,3.6z"/>
									</g>
								</g>
								<g>
									<g>
										<path class="st15" d="M37.41,3.7c0.42,2.04-0.05,4.17-1.01,5.99c-0.99,1.88-2.5,3.42-4.17,4.71
											c-0.95,0.74-1.96,1.39-2.98,2.02c-0.21,0.13-0.01,0.47,0.2,0.34c1.87-1.14,3.69-2.42,5.21-4.02
											c1.49-1.56,2.64-3.47,3.1-5.6c0.25-1.17,0.28-2.38,0.04-3.55C37.74,3.35,37.36,3.45,37.41,3.7L37.41,3.7z"/>
									</g>
								</g>
							</g>
						</g>
					</g>
				</g>
			</g>
		</g>
		<g>
			<path class="st9" d="M48,21.19c-0.71-0.38-0.68-0.92-2.67-1c-1.34-0.05-2.52,2.43-2.66,5.56c-0.12,3.12,0.87,5.69,2.21,5.75
				c1.62,0.07,1.71-0.3,2.56-0.64C48.34,30.5,48.72,21.56,48,21.19z"/>
			
				<ellipse transform="matrix(0.0385 -0.9993 0.9993 0.0385 19.5707 72.1837)" class="st28" cx="47.29" cy="25.92" rx="4.9" ry="2.12"/>
			
				<pattern  id="SVGID_33_" xlink:href="#SVGID_43_" patternTransform="matrix(1.0761 0.0415 -0.0415 1.0761 2890.6155 37665.1836)">
			</pattern>
			<path class="st39" d="M49.42,26c-0.11,2.71-1.13,4.86-2.3,4.82c-1.17-0.04-2.02-2.27-1.92-4.98c0.11-2.71,1.13-4.86,2.3-4.82
				C48.66,21.06,49.52,23.29,49.42,26z"/>
			<g>
				<path class="st40" d="M47.46,21.02v0.85c0.11,0,0.41,0.24,0.68,0.95c0.32,0.83,0.47,1.97,0.43,3.16
					c-0.11,2.76-1.12,4.01-1.42,4.01c-0.33-0.01-1.21-1.45-1.1-4.1c0.11-2.76,1.12-4.01,1.42-4.01L47.46,21.02 M47.46,21.02
					c-1.16,0-2.16,2.14-2.26,4.82c-0.11,2.71,0.76,4.94,1.92,4.98c0.01,0,0.03,0,0.04,0c1.16,0,2.16-2.14,2.26-4.82
					c0.11-2.71-0.76-4.94-1.92-4.98C47.49,21.02,47.47,21.02,47.46,21.02L47.46,21.02z"/>
			</g>
		</g>
		<g>
			<path class="st9" d="M1.46,32.14c0.76,0.26,0.82,0.8,2.79,0.55c1.33-0.17,2.1-2.81,1.72-5.92c-0.38-3.1-1.77-5.48-3.1-5.31
				c-1.6,0.2-1.63,0.58-2.43,1.05C-0.37,23,0.7,31.89,1.46,32.14z"/>
			
				<ellipse transform="matrix(0.9925 -0.1225 0.1225 0.9925 -3.3406 0.3751)" class="st28" cx="1.38" cy="27.36" rx="2.12" ry="4.9"/>
			
				<pattern  id="SVGID_34_" xlink:href="#SVGID_44_" patternTransform="matrix(1.0688 -0.1319 0.1319 1.0688 3489.2971 36154.4297)">
			</pattern>
			<path class="st41" d="M-0.71,27.62c-0.33-2.7,0.34-4.98,1.5-5.13c1.16-0.14,2.37,1.92,2.7,4.61s-0.34,4.98-1.5,5.13
				C0.83,32.36-0.38,30.3-0.71,27.62z"/>
			<g>
				<path class="st40" d="M0.89,23.32L0.89,23.32c0.09,0,0.43,0.17,0.85,0.91C2.18,25,2.5,26.05,2.64,27.2
					c0.33,2.64-0.43,4.14-0.76,4.18c0,0,0,0-0.01,0c-0.09,0-0.43-0.17-0.85-0.91c-0.43-0.78-0.75-1.83-0.89-2.97
					C-0.2,24.87,0.57,23.36,0.89,23.32L0.89,23.32 M0.89,22.48c-0.04,0-0.08,0-0.12,0.01c-1.16,0.14-1.83,2.45-1.5,5.13
					c0.32,2.6,1.46,4.63,2.59,4.63c0.04,0,0.08,0,0.12-0.01c1.16-0.14,1.83-2.45,1.5-5.13C3.16,24.49,2.02,22.48,0.89,22.48
					L0.89,22.48z"/>
			</g>
		</g>
		<g>
			<path class="st42" d="M24.02,3.94c-0.47,0-0.85-0.38-0.85-0.85V0.19c0-0.47,0.38-0.85,0.85-0.85c0.47,0,0.85,0.38,0.85,0.85v2.89
				C24.87,3.56,24.49,3.94,24.02,3.94z"/>
		</g>
		<circle class="st43" cx="23.95" cy="-0.33" r="2.23"/>
		<g>
			<g>
				<path class="st3" d="M25.11,0.17c0,0.01,0.01,0.01,0.01,0.03c-0.01-0.03-0.03-0.07-0.04-0.09c0.01,0.04,0.03,0.08,0.04,0.13
					c0-0.04-0.01-0.07-0.01-0.11c0,0.05,0,0.09,0,0.14C25.11,0.23,25.11,0.19,25.11,0.17c0,0.04-0.01,0.08-0.03,0.12
					c0.01-0.03,0.03-0.07,0.04-0.09c-0.01,0.03-0.03,0.04-0.03,0.07c-0.03,0.04-0.04,0.09-0.05,0.14c-0.01,0.05-0.01,0.11,0.01,0.16
					c0.01,0.05,0.04,0.09,0.07,0.13s0.07,0.08,0.11,0.11c0.09,0.05,0.2,0.08,0.3,0.04c0.09-0.03,0.18-0.09,0.24-0.18
					c0.01-0.01,0.03-0.04,0.03-0.05c0.03-0.05,0.04-0.09,0.07-0.14c0-0.03,0.01-0.04,0.01-0.07c0.01-0.05,0.01-0.11,0.03-0.17
					c0-0.03,0-0.04,0-0.07c0-0.05-0.01-0.11-0.03-0.16c-0.01-0.08-0.05-0.14-0.08-0.21c-0.03-0.04-0.05-0.08-0.11-0.11
					c-0.04-0.04-0.08-0.05-0.13-0.07C25.5-0.4,25.45-0.4,25.4-0.4s-0.11,0.01-0.14,0.05c-0.08,0.05-0.16,0.13-0.18,0.24
					c0,0.04-0.01,0.07-0.01,0.11C25.06,0.04,25.07,0.12,25.11,0.17L25.11,0.17z"/>
			</g>
		</g>
		<g class="st44">
			<path class="st3" d="M35.56,25.11c-0.59-3.17-2.2-6.13-4.55-8.33l2.62-2.76c2.92,2.76,4.94,6.45,5.67,10.41L35.56,25.11z"/>
		</g>
		<g>
			<circle class="st45" cx="3.4" cy="22.19" r="0.26"/>
			<line class="st12" x1="3.63" y1="22.19" x2="3.19" y2="22.2"/>
			<line class="st12" x1="3.4" y1="22" x2="3.42" y2="22.39"/>
		</g>
		<g>
			<circle class="st45" cx="5.38" cy="26.26" r="0.26"/>
			<line class="st12" x1="5.6" y1="26.26" x2="5.17" y2="26.28"/>
			<line class="st12" x1="5.38" y1="26.08" x2="5.39" y2="26.46"/>
		</g>
		<g>
			<circle class="st45" cx="4.98" cy="31.39" r="0.26"/>
			<line class="st12" x1="5.21" y1="31.39" x2="4.77" y2="31.4"/>
			<line class="st12" x1="4.98" y1="31.21" x2="5" y2="31.59"/>
		</g>
		<g>
			<circle class="st45" cx="45.21" cy="20.74" r="0.26"/>
			<line class="st12" x1="45.43" y1="20.74" x2="45" y2="20.76"/>
			<line class="st12" x1="45.21" y1="20.56" x2="45.22" y2="20.94"/>
		</g>
		<g>
			<circle class="st45" cx="43.24" cy="25.34" r="0.26"/>
			<line class="st12" x1="43.46" y1="25.34" x2="43.03" y2="25.36"/>
			<line class="st12" x1="43.24" y1="25.16" x2="43.25" y2="25.54"/>
		</g>
		<g>
			<circle class="st45" cx="44.55" cy="30.86" r="0.26"/>
			<line class="st12" x1="44.78" y1="30.86" x2="44.34" y2="30.88"/>
			<line class="st12" x1="44.55" y1="30.68" x2="44.57" y2="31.06"/>
		</g>
		<g>
			<g>
				<g>
					<g>
						<g>
							<defs>
								<path id="SVGID_35_" d="M9.9,48.57c-0.25-0.05-0.47,0.17-0.45,0.42c0.22,1.92,0.59,4.02,1.18,6.27c0,0,1.31,4.43,3.48,7.6
									c0,0,0.68,0.82,2.06,0.16c0,0,0.57-0.33-0.47-1c0,0,1.51-3.63,2.01-4.81c0.11-0.24,0.11-0.51-0.01-0.75
									C16.22,53.17,13.12,49.19,9.9,48.57z"/>
							</defs>
							<clipPath id="SVGID_36_">
								<use xlink:href="#SVGID_35_"  style="overflow:visible;"/>
							</clipPath>
							<g class="st46">
								<circle class="st9" cx="10.37" cy="49.27" r="0.26"/>
								<line class="st12" x1="10.23" y1="49.13" x2="10.53" y2="49.43"/>
								<line class="st12" x1="10.52" y1="49.14" x2="10.24" y2="49.41"/>
							</g>
						</g>
					</g>
				</g>
			</g>
			<g>
				<g>
					<g>
						<g>
							<defs>
								<path id="SVGID_37_" d="M9.9,48.57c-0.25-0.05-0.47,0.17-0.45,0.42c0.22,1.92,0.59,4.02,1.18,6.27c0,0,1.31,4.43,3.48,7.6
									c0,0,0.68,0.82,2.06,0.16c0,0,0.57-0.33-0.47-1c0,0,1.51-3.63,2.01-4.81c0.11-0.24,0.11-0.51-0.01-0.75
									C16.22,53.17,13.12,49.19,9.9,48.57z"/>
							</defs>
							<clipPath id="SVGID_38_">
								<use xlink:href="#SVGID_37_"  style="overflow:visible;"/>
							</clipPath>
							<g class="st47">
								<circle class="st9" cx="14.32" cy="52.16" r="0.26"/>
								<line class="st12" x1="14.17" y1="52.02" x2="14.47" y2="52.32"/>
								<line class="st12" x1="14.46" y1="52.03" x2="14.19" y2="52.31"/>
							</g>
						</g>
					</g>
				</g>
			</g>
			<g>
				<g>
					<g>
						<g>
							<defs>
								<path id="SVGID_39_" d="M9.9,48.57c-0.25-0.05-0.47,0.17-0.45,0.42c0.22,1.92,0.59,4.02,1.18,6.27c0,0,1.31,4.43,3.48,7.6
									c0,0,0.68,0.82,2.06,0.16c0,0,0.57-0.33-0.47-1c0,0,1.51-3.63,2.01-4.81c0.11-0.24,0.11-0.51-0.01-0.75
									C16.22,53.17,13.12,49.19,9.9,48.57z"/>
							</defs>
							<clipPath id="SVGID_40_">
								<use xlink:href="#SVGID_39_"  style="overflow:visible;"/>
							</clipPath>
							<g class="st48">
								<circle class="st9" cx="17.21" cy="56.63" r="0.26"/>
								<line class="st12" x1="17.06" y1="56.49" x2="17.37" y2="56.79"/>
								<line class="st12" x1="17.35" y1="56.5" x2="17.08" y2="56.78"/>
							</g>
						</g>
					</g>
				</g>
			</g>
			<g>
				<g>
					<g>
						<g>
							<defs>
								<path id="SVGID_41_" d="M9.9,48.57c-0.25-0.05-0.47,0.17-0.45,0.42c0.22,1.92,0.59,4.02,1.18,6.27c0,0,1.31,4.43,3.48,7.6
									c0,0,0.68,0.82,2.06,0.16c0,0,0.57-0.33-0.47-1c0,0,1.51-3.63,2.01-4.81c0.11-0.24,0.11-0.51-0.01-0.75
									C16.22,53.17,13.12,49.19,9.9,48.57z"/>
							</defs>
							<clipPath id="SVGID_42_">
								<use xlink:href="#SVGID_41_"  style="overflow:visible;"/>
							</clipPath>
							<g class="st49">
								<g>
									<path class="st15" d="M10.85,48.42c-0.12,1.92,0.12,3.85,0.71,5.68c0.08,0.24,0.46,0.13,0.38-0.11
										c-0.58-1.8-0.82-3.69-0.7-5.57C11.25,48.17,10.86,48.17,10.85,48.42L10.85,48.42z"/>
								</g>
							</g>
						</g>
					</g>
				</g>
			</g>
			<g>
				<g>
					<g>
						<g>
							<defs>
								<path id="SVGID_45_" d="M9.9,48.57c-0.25-0.05-0.47,0.17-0.45,0.42c0.22,1.92,0.59,4.02,1.18,6.27c0,0,1.31,4.43,3.48,7.6
									c0,0,0.68,0.82,2.06,0.16c0,0,0.57-0.33-0.47-1c0,0,1.51-3.63,2.01-4.81c0.11-0.24,0.11-0.51-0.01-0.75
									C16.22,53.17,13.12,49.19,9.9,48.57z"/>
							</defs>
							<clipPath id="SVGID_46_">
								<use xlink:href="#SVGID_45_"  style="overflow:visible;"/>
							</clipPath>
							<g class="st50">
								<g>
									<path class="st15" d="M11.78,54.32c0.35-0.11,0.75,0.08,0.95,0.38c0.22,0.33,0.26,0.78,0.16,1.16
										c-0.12,0.43-0.54,0.6-0.95,0.68c-0.43,0.09-0.88,0.04-1.29-0.13c-0.09-0.04-0.21,0.04-0.24,0.13
										c-0.03,0.12,0.04,0.2,0.13,0.24c0.39,0.16,0.83,0.22,1.26,0.17c0.41-0.05,0.85-0.18,1.16-0.46
										c0.3-0.29,0.39-0.75,0.37-1.14c-0.03-0.39-0.16-0.8-0.45-1.08c-0.32-0.3-0.78-0.46-1.2-0.33
										C11.44,54,11.53,54.38,11.78,54.32L11.78,54.32z"/>
								</g>
							</g>
						</g>
					</g>
				</g>
			</g>
			<g>
				<g>
					<g>
						<g>
							<defs>
								<path id="SVGID_47_" d="M9.9,48.57c-0.25-0.05-0.47,0.17-0.45,0.42c0.22,1.92,0.59,4.02,1.18,6.27c0,0,1.31,4.43,3.48,7.6
									c0,0,0.68,0.82,2.06,0.16c0,0,0.57-0.33-0.47-1c0,0,1.51-3.63,2.01-4.81c0.11-0.24,0.11-0.51-0.01-0.75
									C16.22,53.17,13.12,49.19,9.9,48.57z"/>
							</defs>
							<clipPath id="SVGID_48_">
								<use xlink:href="#SVGID_47_"  style="overflow:visible;"/>
							</clipPath>
							<g class="st51">
								<g>
									<path class="st15" d="M12.98,56.05c1.83,0.87,3.38,2.26,4.44,4c0.13,0.21,0.47,0.01,0.34-0.2
										c-1.09-1.79-2.7-3.23-4.59-4.14C12.94,55.61,12.74,55.95,12.98,56.05L12.98,56.05z"/>
								</g>
							</g>
						</g>
					</g>
				</g>
			</g>
			<g>
				<g>
					<g>
						<g>
							<defs>
								<path id="SVGID_49_" d="M9.9,48.57c-0.25-0.05-0.47,0.17-0.45,0.42c0.22,1.92,0.59,4.02,1.18,6.27c0,0,1.31,4.43,3.48,7.6
									c0,0,0.68,0.82,2.06,0.16c0,0,0.57-0.33-0.47-1c0,0,1.51-3.63,2.01-4.81c0.11-0.24,0.11-0.51-0.01-0.75
									C16.22,53.17,13.12,49.19,9.9,48.57z"/>
							</defs>
							<clipPath id="SVGID_50_">
								<use xlink:href="#SVGID_49_"  style="overflow:visible;"/>
							</clipPath>
							<circle class="st52" cx="11.63" cy="55.5" r="1.64"/>
						</g>
					</g>
				</g>
			</g>
			<g>
				<g>
					<g>
						<g>
							<defs>
								<path id="SVGID_51_" d="M9.9,48.57c-0.25-0.05-0.47,0.17-0.45,0.42c0.22,1.92,0.59,4.02,1.18,6.27c0,0,1.31,4.43,3.48,7.6
									c0,0,0.68,0.82,2.06,0.16c0,0,0.57-0.33-0.47-1c0,0,1.51-3.63,2.01-4.81c0.11-0.24,0.11-0.51-0.01-0.75
									C16.22,53.17,13.12,49.19,9.9,48.57z"/>
							</defs>
							<clipPath id="SVGID_52_">
								<use xlink:href="#SVGID_51_"  style="overflow:visible;"/>
							</clipPath>
							<circle class="st53" cx="11.63" cy="55.5" r="1.12"/>
						</g>
					</g>
				</g>
			</g>
			<g>
				<g>
					<g>
						<g>
							<defs>
								<path id="SVGID_53_" d="M9.9,48.57c-0.25-0.05-0.47,0.17-0.45,0.42c0.22,1.92,0.59,4.02,1.18,6.27c0,0,1.31,4.43,3.48,7.6
									c0,0,0.68,0.82,2.06,0.16c0,0,0.57-0.33-0.47-1c0,0,1.51-3.63,2.01-4.81c0.11-0.24,0.11-0.51-0.01-0.75
									C16.22,53.17,13.12,49.19,9.9,48.57z"/>
							</defs>
							<clipPath id="SVGID_54_">
								<use xlink:href="#SVGID_53_"  style="overflow:visible;"/>
							</clipPath>
							<g class="st54">
								<circle class="st9" cx="11.63" cy="55.5" r="0.64"/>
								<line class="st55" x1="11.27" y1="55.13" x2="12" y2="55.88"/>
								<line class="st55" x1="11.98" y1="55.17" x2="11.31" y2="55.84"/>
							</g>
						</g>
					</g>
				</g>
			</g>
		</g>
		<g>
			<g>
				<g>
					<g>
						<g>
							<defs>
								<path id="SVGID_55_" d="M30.42,56.99c0.5,1.17,1.84,4.3,2.43,5.06c0,0-0.99,0.12-0.51,0.72c0,0,1.05,0.66,1.99,0.08
									c0,0,2.14-3.83,2.81-8.31c0,0,0.35-1.13,0.54-5.56c0.01-0.26-0.25-0.46-0.5-0.38c-2.8,0.97-5.42,4.52-6.77,7.53
									C30.32,56.41,30.32,56.72,30.42,56.99z"/>
							</defs>
							<clipPath id="SVGID_56_">
								<use xlink:href="#SVGID_55_"  style="overflow:visible;"/>
							</clipPath>
							<g class="st56">
								<circle class="st9" cx="37.27" cy="49.01" r="0.26"/>
								<line class="st12" x1="37.41" y1="48.84" x2="37.13" y2="49.16"/>
								<line class="st12" x1="37.13" y1="48.88" x2="37.41" y2="49.14"/>
							</g>
						</g>
					</g>
				</g>
			</g>
			<g>
				<g>
					<g>
						<g>
							<defs>
								<path id="SVGID_57_" d="M30.42,56.99c0.5,1.17,1.84,4.3,2.43,5.06c0,0-0.99,0.12-0.51,0.72c0,0,1.05,0.66,1.99,0.08
									c0,0,2.14-3.83,2.81-8.31c0,0,0.35-1.13,0.54-5.56c0.01-0.26-0.25-0.46-0.5-0.38c-2.8,0.97-5.42,4.52-6.77,7.53
									C30.32,56.41,30.32,56.72,30.42,56.99z"/>
							</defs>
							<clipPath id="SVGID_58_">
								<use xlink:href="#SVGID_57_"  style="overflow:visible;"/>
							</clipPath>
							<g class="st57">
								<circle class="st9" cx="33.47" cy="52.08" r="0.26"/>
								<line class="st12" x1="33.62" y1="51.91" x2="33.33" y2="52.24"/>
								<line class="st12" x1="33.33" y1="51.95" x2="33.62" y2="52.21"/>
							</g>
						</g>
					</g>
				</g>
			</g>
			<g>
				<g>
					<g>
						<g>
							<defs>
								<path id="SVGID_59_" d="M30.42,56.99c0.5,1.17,1.84,4.3,2.43,5.06c0,0-0.99,0.12-0.51,0.72c0,0,1.05,0.66,1.99,0.08
									c0,0,2.14-3.83,2.81-8.31c0,0,0.35-1.13,0.54-5.56c0.01-0.26-0.25-0.46-0.5-0.38c-2.8,0.97-5.42,4.52-6.77,7.53
									C30.32,56.41,30.32,56.72,30.42,56.99z"/>
							</defs>
							<clipPath id="SVGID_60_">
								<use xlink:href="#SVGID_59_"  style="overflow:visible;"/>
							</clipPath>
							<g class="st58">
								<circle class="st9" cx="30.79" cy="56.68" r="0.26"/>
								<line class="st12" x1="30.93" y1="56.51" x2="30.64" y2="56.84"/>
								<line class="st12" x1="30.64" y1="56.55" x2="30.93" y2="56.82"/>
							</g>
						</g>
					</g>
				</g>
			</g>
			<g>
				<g>
					<g>
						<g>
							<defs>
								<path id="SVGID_61_" d="M30.42,56.99c0.5,1.17,1.84,4.3,2.43,5.06c0,0-0.99,0.12-0.51,0.72c0,0,1.05,0.66,1.99,0.08
									c0,0,2.14-3.83,2.81-8.31c0,0,0.35-1.13,0.54-5.56c0.01-0.26-0.25-0.46-0.5-0.38c-2.8,0.97-5.42,4.52-6.77,7.53
									C30.32,56.41,30.32,56.72,30.42,56.99z"/>
							</defs>
							<clipPath id="SVGID_62_">
								<use xlink:href="#SVGID_61_"  style="overflow:visible;"/>
							</clipPath>
							<g class="st59">
								<g>
									<path class="st15" d="M36.36,48.18c0.21,1.88,0.07,3.77-0.42,5.6c-0.07,0.25,0.32,0.35,0.38,0.11
										c0.5-1.85,0.64-3.8,0.43-5.71C36.73,47.93,36.34,47.93,36.36,48.18L36.36,48.18z"/>
								</g>
							</g>
						</g>
					</g>
				</g>
			</g>
			<g>
				<g>
					<g>
						<g>
							<defs>
								<path id="SVGID_63_" d="M30.42,56.99c0.5,1.17,1.84,4.3,2.43,5.06c0,0-0.99,0.12-0.51,0.72c0,0,1.05,0.66,1.99,0.08
									c0,0,2.14-3.83,2.81-8.31c0,0,0.35-1.13,0.54-5.56c0.01-0.26-0.25-0.46-0.5-0.38c-2.8,0.97-5.42,4.52-6.77,7.53
									C30.32,56.41,30.32,56.72,30.42,56.99z"/>
							</defs>
							<clipPath id="SVGID_64_">
								<use xlink:href="#SVGID_63_"  style="overflow:visible;"/>
							</clipPath>
							<g class="st60">
								<g>
									<path class="st15" d="M36.21,53.71c-0.39-0.09-0.78,0.03-1.08,0.28c-0.32,0.26-0.47,0.67-0.51,1.06
										c-0.04,0.41,0.05,0.87,0.33,1.18c0.28,0.32,0.74,0.43,1.13,0.49c0.49,0.07,0.99-0.03,1.42-0.24
										c0.22-0.11,0.03-0.45-0.2-0.34c-0.39,0.18-0.85,0.25-1.28,0.17c-0.39-0.07-0.8-0.22-0.93-0.63
										c-0.12-0.37-0.11-0.82,0.09-1.16c0.18-0.32,0.55-0.53,0.92-0.45C36.34,54.16,36.44,53.78,36.21,53.71L36.21,53.71z"/>
								</g>
							</g>
						</g>
					</g>
				</g>
			</g>
			<g>
				<g>
					<g>
						<g>
							<defs>
								<path id="SVGID_65_" d="M30.42,56.99c0.5,1.17,1.84,4.3,2.43,5.06c0,0-0.99,0.12-0.51,0.72c0,0,1.05,0.66,1.99,0.08
									c0,0,2.14-3.83,2.81-8.31c0,0,0.35-1.13,0.54-5.56c0.01-0.26-0.25-0.46-0.5-0.38c-2.8,0.97-5.42,4.52-6.77,7.53
									C30.32,56.41,30.32,56.72,30.42,56.99z"/>
							</defs>
							<clipPath id="SVGID_66_">
								<use xlink:href="#SVGID_65_"  style="overflow:visible;"/>
							</clipPath>
							<g class="st61">
								<g>
									<path class="st15" d="M34.79,55.57c-1.84,0.99-3.38,2.51-4.39,4.35c-0.12,0.22,0.22,0.42,0.34,0.2
										c0.97-1.77,2.46-3.25,4.25-4.21C35.22,55.78,35.01,55.45,34.79,55.57L34.79,55.57z"/>
								</g>
							</g>
						</g>
					</g>
				</g>
			</g>
			<g>
				<g>
					<g>
						<g>
							<defs>
								<path id="SVGID_67_" d="M30.42,56.99c0.5,1.17,1.84,4.3,2.43,5.06c0,0-0.99,0.12-0.51,0.72c0,0,1.05,0.66,1.99,0.08
									c0,0,2.14-3.83,2.81-8.31c0,0,0.35-1.13,0.54-5.56c0.01-0.26-0.25-0.46-0.5-0.38c-2.8,0.97-5.42,4.52-6.77,7.53
									C30.32,56.41,30.32,56.72,30.42,56.99z"/>
							</defs>
							<clipPath id="SVGID_68_">
								<use xlink:href="#SVGID_67_"  style="overflow:visible;"/>
							</clipPath>
							<circle class="st62" cx="36.31" cy="55.12" r="1.64"/>
						</g>
					</g>
				</g>
			</g>
			<g>
				<g>
					<g>
						<g>
							<defs>
								<path id="SVGID_69_" d="M30.42,56.99c0.5,1.17,1.84,4.3,2.43,5.06c0,0-0.99,0.12-0.51,0.72c0,0,1.05,0.66,1.99,0.08
									c0,0,2.14-3.83,2.81-8.31c0,0,0.35-1.13,0.54-5.56c0.01-0.26-0.25-0.46-0.5-0.38c-2.8,0.97-5.42,4.52-6.77,7.53
									C30.32,56.41,30.32,56.72,30.42,56.99z"/>
							</defs>
							<clipPath id="SVGID_70_">
								<use xlink:href="#SVGID_69_"  style="overflow:visible;"/>
							</clipPath>
							<circle class="st63" cx="36.31" cy="55.12" r="1.12"/>
						</g>
					</g>
				</g>
			</g>
			<g>
				<g>
					<g>
						<g>
							<defs>
								<path id="SVGID_71_" d="M30.42,56.99c0.5,1.17,1.84,4.3,2.43,5.06c0,0-0.99,0.12-0.51,0.72c0,0,1.05,0.66,1.99,0.08
									c0,0,2.14-3.83,2.81-8.31c0,0,0.35-1.13,0.54-5.56c0.01-0.26-0.25-0.46-0.5-0.38c-2.8,0.97-5.42,4.52-6.77,7.53
									C30.32,56.41,30.32,56.72,30.42,56.99z"/>
							</defs>
							<clipPath id="SVGID_72_">
								<use xlink:href="#SVGID_71_"  style="overflow:visible;"/>
							</clipPath>
							<g class="st64">
								<circle class="st9" cx="36.31" cy="55.12" r="0.64"/>
								<line class="st55" x1="35.93" y1="54.75" x2="36.68" y2="55.5"/>
								<line class="st55" x1="36.64" y1="54.79" x2="35.97" y2="55.46"/>
							</g>
						</g>
					</g>
				</g>
			</g>
		</g>
		<g>
			<path class="st1" d="M6.63,20.54c-0.07,0-0.14-0.01-0.21-0.04c-0.27-0.11-0.39-0.42-0.28-0.69c2.18-5.1,8.17-7.84,17.31-7.94
				c14.12-0.15,17.34,6.05,17.85,7.3c0.11,0.27-0.02,0.58-0.29,0.68c-0.27,0.11-0.58-0.02-0.68-0.29c-0.21-0.51-1.09-2.31-3.77-3.9
				c-3.15-1.88-7.55-2.8-13.09-2.73c-8.69,0.1-14.34,2.62-16.35,7.31C7.02,20.43,6.83,20.54,6.63,20.54z"/>
		</g>
		<g>
			<g>
				<g>
					<g>
						<g>
							<defs>
								<path id="SVGID_73_" d="M23.52,48.35c-8.83,0-12.16-1.97-13.69-3.31c-0.03,0.83-0.04,1.67,0.01,2.35
									c0.04,0.39,0.33,0.72,0.71,0.82c3.16,0.7,6.17,4.57,7.65,7.8c0.12,0.25,0.37,0.39,0.64,0.38c1.83-0.16,8.57-0.11,10.4-0.08
									c0.28,0,0.53-0.16,0.64-0.41c1.37-3.04,4-6.61,6.81-7.56c0.29-0.09,0.49-0.37,0.5-0.67c0.01-0.62,0-1.49-0.01-2.43
									C35.53,46.63,31.75,48.35,23.52,48.35z"/>
							</defs>
							<clipPath id="SVGID_74_">
								<use xlink:href="#SVGID_73_"  style="overflow:visible;"/>
							</clipPath>
							<g class="st65">
								<g>
									<path class="st15" d="M36.8,48.86c0.07-1.08-0.05-2.16-0.34-3.18c-0.07-0.25-0.45-0.14-0.38,0.11
										c0.28,1,0.39,2.04,0.33,3.08C36.39,49.11,36.78,49.11,36.8,48.86L36.8,48.86z"/>
								</g>
							</g>
						</g>
					</g>
				</g>
			</g>
			<g>
				<g>
					<g>
						<g>
							<defs>
								<path id="SVGID_75_" d="M23.52,48.35c-8.83,0-12.16-1.97-13.69-3.31c-0.03,0.83-0.04,1.67,0.01,2.35
									c0.04,0.39,0.33,0.72,0.71,0.82c3.16,0.7,6.17,4.57,7.65,7.8c0.12,0.25,0.37,0.39,0.64,0.38c1.83-0.16,8.57-0.11,10.4-0.08
									c0.28,0,0.53-0.16,0.64-0.41c1.37-3.04,4-6.61,6.81-7.56c0.29-0.09,0.49-0.37,0.5-0.67c0.01-0.62,0-1.49-0.01-2.43
									C35.53,46.63,31.75,48.35,23.52,48.35z"/>
							</defs>
							<clipPath id="SVGID_76_">
								<use xlink:href="#SVGID_75_"  style="overflow:visible;"/>
							</clipPath>
							<g class="st66">
								<g>
									<path class="st15" d="M11.21,48.51c-0.07-1,0-2.01,0.2-3c0.05-0.25-0.33-0.35-0.38-0.11c-0.2,1.03-0.28,2.06-0.21,3.1
										C10.83,48.76,11.23,48.76,11.21,48.51L11.21,48.51z"/>
								</g>
							</g>
						</g>
					</g>
				</g>
			</g>
		</g>
	</g>
	<g>
		<g>
			<path class="st3" d="M24.2-1.32c0.1,0.01,0.22,0.06,0.33,0.1c-0.03-0.01-0.07-0.03-0.1-0.04c0.12,0.06,0.24,0.12,0.36,0.21
				c-0.03-0.03-0.06-0.04-0.09-0.07c0.12,0.09,0.21,0.19,0.3,0.3c-0.03-0.03-0.04-0.06-0.07-0.09c0.06,0.09,0.12,0.18,0.16,0.27
				c0.04,0.09,0.16,0.18,0.27,0.21c0.1,0.03,0.25,0.01,0.34-0.04c0.09-0.06,0.18-0.15,0.21-0.27s0.01-0.24-0.04-0.34
				c-0.27-0.55-0.82-0.97-1.42-1.09C24.32-2.21,24.2-2.2,24.1-2.14c-0.09,0.06-0.18,0.16-0.21,0.27c-0.03,0.12-0.01,0.24,0.04,0.34
				C23.99-1.44,24.08-1.35,24.2-1.32L24.2-1.32z"/>
		</g>
	</g>
	<path class="st1" d="M124.23,29.44H93.76v-1.07c0-2.28,1.85-4.14,4.14-4.14h30.47v1.07C128.37,27.59,126.51,29.44,124.23,29.44z"/>
	<path class="st2" d="M223.11-38.59h-50.39v-1.03c0-2.21,1.79-4,4-4h50.39v1.03C227.11-40.38,225.32-38.59,223.11-38.59z"/>
	<path class="st1" d="M138.96,74.14H126.3v-1.03c0-2.21,1.79-4,4-4h12.66v1.03C142.96,72.35,141.17,74.14,138.96,74.14z"/>
	<g>
		<path class="st1" d="M223.5,12.75V30.2c0,33.89-23.45,51.87-48.33,53.9c-21.4,1.76-43.84-8.31-53.22-30.24l19.42-13.14
			c0.49,1.82,1.11,3.53,1.84,5.13c5.99,13.15,19.52,18.8,31.97,16.9c12.83-1.92,24.51-11.85,25.59-29.75h12.85
			c2.44,0,4.4-1.97,4.4-4.4v-1.13h-17.15V12.75c0-4.14-0.55-7.88-1.57-11.24l19.34-13.09c0.73,1.62,1.38,3.31,1.95,5.06
			C222.45-0.81,223.5,5.62,223.5,12.75z"/>
		<path class="st1" d="M212.46-14.05l-11.92,8.06c-0.24-0.48-0.49-0.94-0.75-1.4c-0.36-0.68-0.78-1.33-1.22-1.97
			c-0.29-0.45-0.6-0.89-0.93-1.32c-0.01-0.01-0.01-0.03-0.02-0.03c-0.36-0.48-0.74-0.94-1.13-1.4c-0.34-0.4-0.69-0.79-1.06-1.16
			c-0.15-0.16-0.3-0.31-0.45-0.45c-0.13-0.13-0.25-0.25-0.38-0.36c-0.3-0.3-0.62-0.59-0.93-0.86c-0.31-0.28-0.64-0.55-0.98-0.82
			c-0.34-0.28-0.69-0.54-1.04-0.79c-0.03-0.03-0.05-0.05-0.09-0.06c-0.2-0.15-0.42-0.3-0.63-0.44c-0.41-0.29-0.83-0.57-1.27-0.83
			c-0.36-0.21-0.73-0.43-1.11-0.64c-0.13-0.06-0.25-0.13-0.38-0.2c-0.43-0.23-0.86-0.44-1.28-0.64c-0.03-0.01-0.04-0.01-0.06-0.03
			c-0.5-0.24-1.02-0.47-1.53-0.67c-0.52-0.21-1.06-0.42-1.58-0.59c-0.54-0.18-1.08-0.35-1.63-0.5c-1.08-0.31-2.19-0.55-3.31-0.73
			c-0.39-0.06-0.78-0.13-1.17-0.19c-0.05,0-0.09,0-0.13-0.01c-0.38-0.05-0.75-0.09-1.12-0.11c-0.52-0.05-1.03-0.09-1.55-0.1
			c-0.41-0.01-0.83-0.03-1.24-0.03c-1.58-0.01-3.17,0.11-4.73,0.35c-16.23-2.43-34.25,7.76-34.95,30.83h-0.48
			c-1.3,0-2.48,0.49-3.37,1.3c-0.06,0.05-0.13,0.11-0.19,0.18c-0.91,0.92-1.47,2.18-1.47,3.56h5.48v13.82
			c0,3.75,2.83,11.91,3.76,15.25c0.03,0.09,0.05,0.18,0.08,0.25l-11.87,8.05l-7.54,5.09c-2.89-6.77-7.05-19.63-7.05-28.65V10.27
			c0-38.22,29.7-56.15,57.67-53.9C186.95-42.18,204.28-32.31,212.46-14.05z"/>
	</g>
	<g>
		<path class="st2" d="M236.54,31.26c-1.12,1.12-1.81,2.67-1.81,4.36h7.38c-2.68,34.44-30.93,50.64-57.58,48.48
			c-18.26-1.47-35.76-11.56-43.76-30.24l11.83-8.02c5.99,13.15,19.52,18.8,31.98,16.93c0,0,0,0,0.01,0
			c16.59,2.49,35.08-8.36,35.08-32.56V12.75c0-4.15-2.51-13.17-3.52-16.52l11.88-7.81l7.52-4.93c3.09,6.9,6.77,19.94,6.77,29.26
			v16.7h-1.41C239.2,29.45,237.66,30.14,236.54,31.26z"/>
		<path class="st2" d="M152.66,27.72c0,3.85,0.48,7.36,1.33,10.53l-19.42,13.14c-0.7-1.63-1.32-3.33-1.87-5.09
			c-1.72-5.53-2.68-11.73-2.68-18.57V13.9h22.63V27.72z"/>
		<path class="st2" d="M231.26-13.71L211.84-0.62c-0.57-1.87-1.27-3.62-2.09-5.24c-6.14-12.12-19.03-17.5-31-16.01
			c-13.3,1.66-25.49,11.85-26.07,30.75H133.4c-1.3,0-2.48,0.49-3.37,1.3c0.05-34.39,24.18-52.22,49.41-53.68
			C200.27-44.72,221.85-34.75,231.26-13.71z"/>
	</g>
	<g>
		<g>
			<g>
				<path class="st3" d="M232.9,12.75V30.2c0,33.91-23.5,51.9-48.38,53.9c-3.11,0.25-6.24,0.26-9.36,0
					c-18.27-1.45-35.8-11.53-43.81-30.24l11.85-8.01l7.57-5.13c0.48,1.81,1.11,3.52,1.82,5.12c4.49,9.87,13.23,15.52,22.57,16.91
					c3.11,0.48,6.29,0.48,9.41,0.01c0,0,0,0,0.01,0c12.81-1.94,24.5-11.86,25.59-29.76h3.43c2.44,0,4.4-1.97,4.4-4.4v-1.13h-7.75
					V12.75c0-4.15-0.55-7.88-1.57-11.24l11.88-8.04l7.46-5.06c0.73,1.61,1.37,3.29,1.95,5.04C231.87-0.81,232.9,5.6,232.9,12.75z"/>
			</g>
			<path class="st3" d="M221.85-14.05l-12.1,8.19l-7.24,4.89c-0.54-1.79-1.21-3.46-1.97-5.02c-0.24-0.48-0.48-0.94-0.75-1.4
				c-0.36-0.68-0.78-1.33-1.22-1.97c-0.29-0.45-0.6-0.89-0.93-1.32c-0.01-0.01-0.01-0.03-0.02-0.03c-0.36-0.48-0.74-0.94-1.13-1.4
				c-0.34-0.4-0.69-0.79-1.06-1.16c-0.15-0.16-0.3-0.31-0.45-0.45c-0.13-0.13-0.25-0.25-0.38-0.36c-0.3-0.3-0.62-0.59-0.93-0.86
				c-0.31-0.29-0.64-0.55-0.98-0.82c-0.34-0.28-0.68-0.54-1.04-0.79c-0.03-0.03-0.05-0.05-0.09-0.06c-0.2-0.15-0.42-0.3-0.63-0.44
				c-0.41-0.29-0.83-0.57-1.27-0.83c-0.36-0.21-0.73-0.43-1.11-0.64c-0.13-0.06-0.25-0.13-0.38-0.2c-0.43-0.23-0.86-0.44-1.28-0.64
				c-0.03-0.01-0.04-0.01-0.06-0.03c-0.5-0.24-1.02-0.47-1.53-0.67c-0.52-0.21-1.06-0.42-1.58-0.59c-0.54-0.18-1.08-0.35-1.63-0.5
				c-1.08-0.3-2.19-0.54-3.31-0.73c-0.39-0.06-0.78-0.13-1.17-0.19c-0.05,0-0.09,0-0.13-0.01c-0.38-0.04-0.74-0.09-1.12-0.11
				c-0.52-0.05-1.03-0.09-1.55-0.1c-0.41-0.01-0.83-0.03-1.24-0.03c-1.58-0.01-3.17,0.11-4.73,0.35
				C155.73-20,143.86-9.75,143.29,8.87h-9.9c-1.3,0-2.48,0.49-3.37,1.3c-0.06,0.05-0.13,0.11-0.19,0.18
				c-0.91,0.92-1.47,2.18-1.47,3.56h14.9v13.82c0,3.85,0.48,7.34,1.32,10.53l-6.98,4.73l-4.9,3.32l-7.53,5.11
				c-0.69-1.65-1.31-3.34-1.86-5.11c-1.72-5.56-2.68-11.73-2.68-18.57V10.27c0-33.93,23.41-51.88,48.25-53.9
				c3.51-0.29,7.05-0.25,10.55,0.11C197.08-41.75,213.88-31.92,221.85-14.05z"/>
		</g>
	</g>
	<path class="st3" d="M124.96-8.96h-16.43v-1.03c0-2.21,1.79-4,4-4h16.43v1.03C128.96-10.75,127.17-8.96,124.96-8.96z"/>
	<path class="st2" d="M245.55,57.74h-13.62v-4.61h17.28v0.94C249.21,56.1,247.57,57.74,245.55,57.74z"/>
	<path class="st3" d="M235.44,67.08h-18.95v-6.45h24.08v1.32C240.57,64.78,238.28,67.08,235.44,67.08z"/>
	<path class="st1" d="M129.96-26.46h-27.91v-0.9c0-1.93,1.57-3.5,3.5-3.5h27.91v0.9C133.46-28.03,131.9-26.46,129.96-26.46z"/>
	<path class="st1" d="M132.03,82.91h-23.49v-0.86c0-1.84,1.5-3.34,3.34-3.34h23.49v0.86C135.37,81.42,133.87,82.91,132.03,82.91z"/>
	<rect x="111.22" y="64.3" class="st3" width="4.58" height="4.58"/>
	<rect x="249.73" y="17.96" class="st2" width="4.58" height="4.58"/>
	<g>
		<g>
			<path class="st3" d="M178.88-1.32c0.1,0.01,0.22,0.06,0.33,0.1c-0.03-0.01-0.07-0.03-0.1-0.04c0.12,0.06,0.24,0.12,0.36,0.21
				c-0.03-0.03-0.06-0.04-0.09-0.07c0.12,0.09,0.21,0.19,0.3,0.3c-0.03-0.03-0.04-0.06-0.07-0.09c0.06,0.09,0.12,0.18,0.16,0.27
				c0.04,0.09,0.16,0.18,0.27,0.21c0.1,0.03,0.25,0.01,0.34-0.04c0.09-0.06,0.18-0.15,0.21-0.27s0.01-0.24-0.04-0.34
				c-0.27-0.55-0.82-0.97-1.42-1.09c-0.12-0.03-0.24-0.01-0.34,0.04c-0.09,0.06-0.18,0.16-0.21,0.27c-0.03,0.12-0.01,0.24,0.04,0.34
				C178.67-1.44,178.76-1.35,178.88-1.32L178.88-1.32z"/>
		</g>
	</g>
	<path class="st3" d="M-139.13,47.31l-24.54,2.54c0.87,6.38,2.8,11.98,5.78,16.81l20.12-13.6
		C-138.42,51.31-138.87,49.39-139.13,47.31z"/>
	<path class="st3" d="M-88.66,8.84c-7.59-7.94-16.85-11.92-27.78-11.92c-5.73,0-11.33,1.37-16.82,4.12l3.86-21.82h46.44v-23.05
		h-65.1l-12.62,66.86l19.98,2.89c5.61-6.25,11.95-9.38,19.01-9.38c5.67,0,10.27,1.97,13.8,5.91c1.82,2.03,3.16,4.59,4.04,7.66
		l20.7-14C-84.7,13.52-86.52,11.08-88.66,8.84z"/>
	<path class="st3" d="M-107.64,43.67c0.02,0.51,0.04,1.01,0.04,1.54c0,8.41-1.78,14.71-5.35,18.88c-3.56,4.18-7.92,6.27-13.06,6.27
		c-4.5,0-8.47-1.62-11.92-4.86c-0.28-0.26-0.53-0.54-0.79-0.82l-19.42,13.14c0.9,0.94,1.85,1.85,2.87,2.71
		c7.48,6.37,17.14,9.55,29,9.55c14.84,0,26.43-5.67,34.79-17c6.13-8.29,9.2-17.73,9.2-28.3c0-6.04-0.87-11.54-2.6-16.5
		L-107.64,43.67z"/>
	<path class="st1" d="M-128.07,28.88h-6.37v-1.03c0-2.21,1.79-4,4-4h6.37v1.03C-124.07,27.09-125.86,28.88-128.07,28.88z"/>
</g>
<g>
	<path class="st1" d="M-20.25,96.96c0-1.65,0.9-2.65,2.19-2.65c1.29,0,2.19,1,2.19,2.65c0,1.65-0.9,2.67-2.19,2.67
		C-19.34,99.63-20.25,98.6-20.25,96.96z M-16.53,96.96c0-1.29-0.61-2.08-1.53-2.08c-0.92,0-1.53,0.79-1.53,2.08
		c0,1.28,0.6,2.11,1.53,2.11C-17.14,99.06-16.53,98.24-16.53,96.96z"/>
	<path class="st1" d="M-15.1,97.64c0-1.27,0.83-2,1.76-2s1.76,0.74,1.76,2c0,1.26-0.83,1.99-1.76,1.99S-15.1,98.9-15.1,97.64z
		 M-12.23,97.64c0-0.88-0.45-1.47-1.11-1.47s-1.1,0.59-1.1,1.47c0,0.88,0.44,1.46,1.1,1.46S-12.23,98.52-12.23,97.64z"/>
	<path class="st1" d="M-10.86,97.64c0-1.27,0.83-2,1.76-2s1.76,0.74,1.76,2c0,1.26-0.83,1.99-1.76,1.99S-10.86,98.9-10.86,97.64z
		 M-7.99,97.64c0-0.88-0.45-1.47-1.11-1.47s-1.1,0.59-1.1,1.47c0,0.88,0.44,1.46,1.1,1.46S-7.99,98.52-7.99,97.64z"/>
	<path class="st1" d="M-6.33,95.74h0.53l0.06,0.43h0.02c0.34-0.28,0.77-0.53,1.21-0.53c0.98,0,1.51,0.77,1.51,1.94
		c0,1.3-0.78,2.05-1.65,2.05c-0.34,0-0.71-0.16-1.05-0.44l0.01,0.67v1.29h-0.64V95.74z M-3.67,97.59c0-0.84-0.28-1.41-1-1.41
		c-0.32,0-0.65,0.18-1.02,0.53v2c0.34,0.29,0.68,0.4,0.93,0.4C-4.13,99.1-3.67,98.53-3.67,97.59z"/>
	<path class="st1" d="M-2.42,99.11l0.32-0.42c0.33,0.27,0.67,0.45,1.13,0.45c0.5,0,0.75-0.27,0.75-0.59c0-0.39-0.45-0.56-0.87-0.72
		c-0.53-0.2-1.13-0.46-1.13-1.1c0-0.6,0.48-1.08,1.31-1.08c0.47,0,0.88,0.2,1.18,0.43l-0.31,0.41c-0.27-0.2-0.53-0.34-0.88-0.34
		c-0.48,0-0.69,0.25-0.69,0.55c0,0.36,0.41,0.5,0.84,0.66c0.55,0.21,1.16,0.43,1.16,1.16c0,0.62-0.49,1.13-1.39,1.13
		C-1.53,99.63-2.05,99.41-2.42,99.11z"/>
	<path class="st1" d="M1.31,99.15c0-0.29,0.21-0.5,0.46-0.5c0.26,0,0.46,0.21,0.46,0.5s-0.2,0.48-0.46,0.48
		C1.52,99.63,1.31,99.44,1.31,99.15z M1.47,95.02L1.45,94.3H2.1l-0.02,0.73l-0.08,2.97H1.55L1.47,95.02z"/>
	<path class="st1" d="M5.17,94.41h0.65v5.13H5.17V94.41z"/>
	<path class="st1" d="M7.17,95.74h0.53l0.06,0.55h0.02c0.36-0.36,0.76-0.64,1.27-0.64c0.8,0,1.16,0.52,1.16,1.49v2.41H9.57v-2.33
		c0-0.71-0.22-1.02-0.72-1.02c-0.39,0-0.66,0.2-1.04,0.58v2.76H7.17V95.74z"/>
	<path class="st1" d="M11.56,98.36v-2.11h-0.57v-0.48l0.59-0.04l0.08-1.06h0.53v1.06h1.03v0.52h-1.03v2.12
		c0,0.47,0.15,0.74,0.59,0.74c0.13,0,0.31-0.05,0.43-0.1l0.13,0.48c-0.22,0.07-0.47,0.14-0.7,0.14
		C11.83,99.63,11.56,99.13,11.56,98.36z"/>
	<path class="st1" d="M13.69,97.64c0-1.23,0.83-2,1.72-2c0.97,0,1.51,0.7,1.51,1.79c0,0.14-0.01,0.27-0.03,0.36h-2.56
		c0.04,0.81,0.54,1.33,1.26,1.33c0.37,0,0.67-0.11,0.95-0.3l0.23,0.42c-0.34,0.22-0.74,0.39-1.26,0.39
		C14.5,99.63,13.69,98.9,13.69,97.64z M16.36,97.33c0-0.77-0.35-1.18-0.95-1.18c-0.54,0-1.02,0.43-1.09,1.18H16.36z"/>
	<path class="st1" d="M17.86,95.74h0.53l0.06,0.69h0.02c0.27-0.48,0.65-0.79,1.08-0.79c0.17,0,0.29,0.02,0.41,0.08l-0.12,0.56
		c-0.13-0.05-0.22-0.06-0.37-0.06c-0.32,0-0.71,0.22-0.96,0.88v2.44h-0.64V95.74z"/>
	<path class="st1" d="M20.57,95.74h0.53l0.06,0.55h0.02c0.36-0.36,0.76-0.64,1.27-0.64c0.8,0,1.16,0.52,1.16,1.49v2.41h-0.64v-2.33
		c0-0.71-0.22-1.02-0.72-1.02c-0.39,0-0.66,0.2-1.04,0.58v2.76h-0.64V95.74z"/>
	<path class="st1" d="M24.61,98.55c0-0.83,0.72-1.24,2.34-1.42c0-0.49-0.16-0.96-0.78-0.96c-0.44,0-0.84,0.2-1.14,0.41l-0.25-0.44
		c0.35-0.22,0.89-0.5,1.5-0.5c0.92,0,1.32,0.62,1.32,1.56v2.34h-0.53l-0.06-0.46h-0.02c-0.36,0.3-0.79,0.55-1.26,0.55
		C25.09,99.63,24.61,99.24,24.61,98.55z M26.95,98.62v-1.07c-1.28,0.15-1.72,0.47-1.72,0.96c0,0.43,0.29,0.61,0.67,0.61
		C26.28,99.12,26.58,98.95,26.95,98.62z"/>
	<path class="st1" d="M28.8,98.78v-4.82h0.64v4.86c0,0.2,0.08,0.27,0.18,0.27c0.04,0,0.06,0,0.13-0.01l0.09,0.49
		c-0.09,0.04-0.2,0.06-0.37,0.06C28.99,99.63,28.8,99.32,28.8,98.78z"/>
	<path class="st1" d="M31.93,99.11l0.32-0.42c0.33,0.27,0.67,0.45,1.13,0.45c0.5,0,0.75-0.27,0.75-0.59c0-0.39-0.45-0.56-0.87-0.72
		c-0.53-0.2-1.13-0.46-1.13-1.1c0-0.6,0.48-1.08,1.31-1.08c0.47,0,0.88,0.2,1.18,0.43l-0.31,0.41c-0.27-0.2-0.53-0.34-0.88-0.34
		c-0.48,0-0.69,0.25-0.69,0.55c0,0.36,0.41,0.5,0.84,0.66c0.55,0.21,1.16,0.43,1.16,1.16c0,0.62-0.49,1.13-1.39,1.13
		C32.81,99.63,32.3,99.41,31.93,99.11z"/>
	<path class="st1" d="M35.35,97.64c0-1.23,0.83-2,1.72-2c0.97,0,1.51,0.7,1.51,1.79c0,0.14-0.01,0.27-0.03,0.36h-2.56
		c0.04,0.81,0.54,1.33,1.26,1.33c0.37,0,0.67-0.11,0.95-0.3l0.23,0.42c-0.34,0.22-0.74,0.39-1.26,0.39
		C36.16,99.63,35.35,98.9,35.35,97.64z M38.02,97.33c0-0.77-0.35-1.18-0.95-1.18c-0.54,0-1.02,0.43-1.09,1.18H38.02z"/>
	<path class="st1" d="M39.51,95.74h0.53l0.06,0.69h0.02c0.27-0.48,0.65-0.79,1.08-0.79c0.17,0,0.29,0.02,0.41,0.08l-0.12,0.56
		c-0.13-0.05-0.22-0.06-0.37-0.06c-0.32,0-0.71,0.22-0.96,0.88v2.44h-0.64V95.74z"/>
	<path class="st1" d="M41.88,95.74h0.67l0.71,2.16c0.12,0.37,0.24,0.76,0.36,1.12h0.03c0.11-0.36,0.24-0.75,0.35-1.12l0.72-2.16
		h0.63l-1.35,3.8h-0.74L41.88,95.74z"/>
	<path class="st1" d="M45.76,97.64c0-1.23,0.83-2,1.72-2c0.97,0,1.51,0.7,1.51,1.79c0,0.14-0.01,0.27-0.03,0.36H46.4
		c0.04,0.81,0.54,1.33,1.26,1.33c0.37,0,0.67-0.11,0.95-0.3l0.23,0.42c-0.34,0.22-0.74,0.39-1.26,0.39
		C46.58,99.63,45.76,98.9,45.76,97.64z M48.43,97.33c0-0.77-0.35-1.18-0.95-1.18c-0.54,0-1.02,0.43-1.09,1.18H48.43z"/>
	<path class="st1" d="M49.93,95.74h0.53l0.06,0.69h0.02c0.27-0.48,0.65-0.79,1.08-0.79c0.17,0,0.29,0.02,0.41,0.08l-0.12,0.56
		c-0.13-0.05-0.22-0.06-0.37-0.06c-0.32,0-0.71,0.22-0.96,0.88v2.44h-0.64V95.74z"/>
	<path class="st1" d="M53.93,97.64c0-1.23,0.83-2,1.72-2c0.97,0,1.51,0.7,1.51,1.79c0,0.14-0.01,0.27-0.03,0.36h-2.56
		c0.04,0.81,0.54,1.33,1.26,1.33c0.37,0,0.67-0.11,0.95-0.3l0.23,0.42c-0.34,0.22-0.74,0.39-1.26,0.39
		C54.74,99.63,53.93,98.9,53.93,97.64z M56.59,97.33c0-0.77-0.35-1.18-0.95-1.18c-0.54,0-1.02,0.43-1.09,1.18H56.59z"/>
	<path class="st1" d="M58.09,95.74h0.53l0.06,0.69h0.02c0.27-0.48,0.65-0.79,1.08-0.79c0.17,0,0.29,0.02,0.41,0.08l-0.12,0.56
		c-0.13-0.05-0.22-0.06-0.37-0.06c-0.32,0-0.71,0.22-0.96,0.88v2.44h-0.64V95.74z"/>
	<path class="st1" d="M60.81,95.74h0.53l0.06,0.69h0.02c0.27-0.48,0.65-0.79,1.08-0.79c0.17,0,0.29,0.02,0.41,0.08l-0.12,0.56
		c-0.13-0.05-0.22-0.06-0.37-0.06c-0.32,0-0.71,0.22-0.96,0.88v2.44h-0.64V95.74z"/>
	<path class="st1" d="M63.16,97.64c0-1.27,0.83-2,1.76-2s1.76,0.74,1.76,2c0,1.26-0.83,1.99-1.76,1.99S63.16,98.9,63.16,97.64z
		 M66.03,97.64c0-0.88-0.45-1.47-1.11-1.47s-1.1,0.59-1.1,1.47c0,0.88,0.44,1.46,1.1,1.46S66.03,98.52,66.03,97.64z"/>
	<path class="st1" d="M67.69,95.74h0.53l0.06,0.69h0.02c0.27-0.48,0.65-0.79,1.08-0.79c0.17,0,0.29,0.02,0.41,0.08l-0.12,0.56
		c-0.13-0.05-0.22-0.06-0.37-0.06c-0.32,0-0.71,0.22-0.96,0.88v2.44h-0.64V95.74z"/>
</g>
<g>
	<path class="st1" d="M-15.79,111.62v1.06h-0.77v-7.28h2.83v6.22H-15.79z M-15.79,106.18v4.67h1.29v-4.67H-15.79z M-6.75,113.65
		v0.68h-6.04v-0.68h2.69v-1.23h-2v-0.66h2v-1.04c-1.34,0.11-1.6,0.16-1.78,0.22c-0.03-0.16-0.13-0.54-0.24-0.72
		c0.16-0.03,0.33-0.18,0.53-0.37c0.15-0.15,0.57-0.63,0.94-1.2h-1.6c-0.02,1.84-0.26,4.29-1.42,5.96c-0.13-0.15-0.45-0.38-0.64-0.46
		c1.19-1.68,1.3-4.08,1.3-5.83v-3.53h5.8v2.43h-5.04V108h5.45v0.66h-2.95c-0.37,0.51-0.77,1.03-1.18,1.44l2.53-0.17
		c-0.22-0.28-0.46-0.56-0.69-0.79l0.57-0.27c0.55,0.53,1.13,1.28,1.39,1.79l-0.62,0.31c-0.06-0.12-0.13-0.27-0.22-0.43
		c-0.84,0.07-1.5,0.11-2,0.16h0.63v1.05h2.15v0.66h-2.15v1.23H-6.75z M-12.25,105.48v1.08h4.26v-1.08H-12.25z"/>
	<path class="st1" d="M2.27,108.33c0,0.28,0,0.57-0.02,0.88c0.36,2.21,0.95,3.54,2.2,4.7c-0.2,0.16-0.42,0.4-0.53,0.65
		c-0.96-0.96-1.55-2-1.95-3.38c-0.28,1.14-0.82,2.35-1.84,3.38c-0.12-0.2-0.38-0.48-0.56-0.62l0.01-0.01
		c-0.22,0.02-0.57,0.03-0.91,0.03h-2.43c-1.18,0-1.6-0.42-1.6-1.66v-6.67h-0.38v-0.72h5.43v0.72h-4.3v6.71
		c0,0.67,0.21,0.91,0.81,0.91h2.51c0.31,0,0.77-0.03,1.01-0.08c0.01,0.15,0.04,0.37,0.08,0.54c1.57-1.74,1.7-3.9,1.7-5.4v-0.75h0.77
		V108.33z M-4.19,109.66h1.7v2.81h-1.7V109.66z M-0.95,108.91h-2.87v-2.51h2.87V108.91z M-3.72,111.93h0.75v-1.71h-0.75V111.93z
		 M-1.61,106.95h-1.57v1.4h1.57V106.95z M-0.38,112.48h-1.76v-2.79h1.76V112.48z M-0.89,110.24h-0.78v1.69h0.78V110.24z M1.09,106.9
		c-0.26,0.86-0.59,1.64-0.99,2.24c-0.15-0.13-0.48-0.36-0.67-0.46c0.74-1.03,1.18-2.65,1.43-4.35l0.76,0.12
		c-0.09,0.58-0.19,1.14-0.33,1.68h2.62l0.13-0.04l0.53,0.18c-0.21,1-0.5,2.16-0.79,2.89l-0.63-0.21c0.19-0.53,0.39-1.32,0.54-2.05
		H1.09z"/>
	<path class="st1" d="M6.87,112.89c0-0.53,0.4-0.87,0.9-0.87c0.49,0,0.9,0.35,0.9,0.87c0,0.55-0.4,0.88-0.9,0.88
		C7.28,113.77,6.87,113.44,6.87,112.89z M7.13,106.66l-0.03-1.32h1.34l-0.02,1.32l-0.28,4.35H7.4L7.13,106.66z"/>
	<path class="st1" d="M14.31,104.64c-0.3,0.81-0.69,1.62-1.12,2.38v7.53h-0.81v-6.26c-0.35,0.5-0.73,0.96-1.11,1.37
		c-0.08-0.2-0.31-0.63-0.46-0.82c1.09-1.08,2.12-2.74,2.73-4.45L14.31,104.64z M19.26,107.57H14.3v-0.74h4.96V107.57z M20.87,113.47
		c0,0.53-0.13,0.81-0.5,0.94c-0.37,0.15-1.01,0.16-2.05,0.16c-0.03-0.22-0.16-0.62-0.28-0.84c0.78,0.02,1.5,0.02,1.72,0.01
		c0.21-0.01,0.28-0.08,0.28-0.28v-7.75h-5.61v-0.76h6.44V113.47z M15.52,112.3v0.77h-0.77v-4.4h3.84v3.63H15.52z M15.52,109.4v2.17
		h2.3v-2.17H15.52z"/>
	<path class="st1" d="M26.23,113.58c0,0.45-0.09,0.69-0.38,0.84c-0.28,0.15-0.73,0.16-1.48,0.16c-0.02-0.21-0.13-0.58-0.25-0.79
		c0.51,0.01,0.99,0.01,1.12,0c0.16-0.01,0.21-0.06,0.21-0.21v-2.76H23.7c-0.1,1.32-0.32,2.72-0.84,3.77
		c-0.15-0.13-0.48-0.32-0.68-0.4c0.77-1.57,0.83-3.79,0.83-5.43v-4h3.23V113.58z M25.46,110.02v-1.88h-1.69v0.62
		c0,0.38-0.01,0.82-0.02,1.27H25.46z M23.77,105.53v1.84h1.69v-1.84H23.77z M32.26,108.71c-0.29,1.52-0.83,2.78-1.53,3.77
		c0.54,0.62,1.17,1.12,1.87,1.47c-0.19,0.16-0.41,0.44-0.54,0.64c-0.67-0.38-1.28-0.88-1.81-1.51c-0.5,0.59-1.08,1.08-1.69,1.43
		c-0.11-0.19-0.33-0.47-0.49-0.62c0.62-0.34,1.2-0.82,1.71-1.42c-0.63-0.91-1.12-1.98-1.49-3.14H28v5.24h-0.78v-9.79h4.73v2.15
		c0,0.43-0.1,0.64-0.44,0.76c-0.36,0.11-0.92,0.11-1.76,0.11c-0.03-0.22-0.16-0.5-0.27-0.71c0.68,0.01,1.27,0.01,1.43,0
		c0.18,0,0.22-0.04,0.22-0.18v-1.37H28v3h3.63l0.15-0.02L32.26,108.71z M29.01,109.34c0.3,0.92,0.71,1.77,1.22,2.51
		c0.48-0.72,0.86-1.56,1.12-2.51H29.01z"/>
	<path class="st1" d="M40.53,109.73c0.84,0.68,2.06,1.24,3.24,1.53c-0.19,0.16-0.41,0.46-0.53,0.66c-0.21-0.07-0.42-0.13-0.64-0.21
		v2.8h-0.81v-0.27h-1.98v0.32h-0.77v-3.43h2.32c-0.72-0.39-1.37-0.88-1.87-1.41h-2.09c-0.48,0.5-1.06,0.99-1.76,1.41H38v3.37H37.2
		v-0.27h-1.86v0.32h-0.77v-2.84c-0.25,0.11-0.49,0.22-0.76,0.33c-0.07-0.19-0.29-0.49-0.45-0.63c1.21-0.45,2.18-1.04,2.93-1.69
		h-2.73v-0.74h3.45c0.32-0.37,0.57-0.76,0.75-1.13h-3.4v-3.01h3.53v2.89l0.8,0.16c-0.19,0.37-0.42,0.74-0.67,1.1h3.12
		c-0.37-0.25-0.88-0.5-1.33-0.67l0.44-0.44c0.57,0.19,1.28,0.54,1.65,0.83l-0.27,0.28h1.94v0.74H40.53z M37.09,105.56h-1.98v1.58
		h1.98V105.56z M37.2,111.87h-1.86v1.65h1.86V111.87z M42.74,107.86h-3.65v-3.01h3.65V107.86z M41.79,113.52v-1.65h-1.98v1.65H41.79
		z M41.93,105.56h-2.07v1.58h2.07V105.56z"/>
	<path class="st1" d="M48.72,112.62l0.06,0.67c-1.37,0.33-2.83,0.66-3.89,0.9l-0.18-0.75c0.49-0.09,1.12-0.21,1.81-0.36v-3.24h-1.69
		v-0.73h1.69v-1.21h-1.08v-0.5c-0.19,0.18-0.36,0.35-0.55,0.5c-0.06-0.19-0.25-0.64-0.35-0.84c0.86-0.66,1.75-1.68,2.27-2.78
		l0.64,0.29c-0.08,0.15-0.16,0.3-0.25,0.46c0.71,0.46,1.39,1.02,1.84,1.46l-0.39,0.68c-0.44-0.46-1.14-1.04-1.8-1.52
		c-0.36,0.55-0.77,1.08-1.2,1.52h2.73v0.73h-1.19v1.21h1.52v0.73h-1.52v3.1L48.72,112.62z M45.6,110.44
		c0.19,0.65,0.38,1.5,0.44,2.05l-0.58,0.17c-0.03-0.56-0.21-1.42-0.4-2.07L45.6,110.44z M47.5,112.34c0.19-0.55,0.41-1.43,0.53-2.04
		l0.6,0.2c-0.19,0.68-0.42,1.5-0.62,2.02L47.5,112.34z M54.83,108.02v0.76h-5.8v-0.76h1.29v-1.47h-1.06v-0.74h1.06v-1.46h0.75v1.46
		h1.72v-1.46h0.75v1.46h0.97v0.74h-0.97v1.47H54.83z M49.73,109.66h4.45v4.88h-0.78v-0.47h-2.92v0.49h-0.74V109.66z M50.47,110.38
		v1.14h2.92v-1.14H50.47z M53.39,113.38v-1.18h-2.92v1.18H53.39z M51.06,108.02h1.72v-1.47h-1.72V108.02z"/>
	<path class="st1" d="M59.78,106.9h-3.96v-0.69h3.96V106.9z M59.44,113.94h-2.51v0.52h-0.72v-3.75h3.23V113.94z M56.22,107.72h3.23
		v0.66h-3.23V107.72z M56.22,109.19h3.23v0.67h-3.23V109.19z M56.93,111.39v1.87h1.79v-1.87H56.93z M57.76,106.15
		c-0.13-0.41-0.44-1.04-0.71-1.51l0.71-0.25c0.28,0.46,0.59,1.08,0.73,1.47L57.76,106.15z M63.01,111.68
		c-0.25,1.09-0.97,2.15-3.04,2.92c-0.11-0.18-0.35-0.46-0.52-0.61c1.78-0.64,2.48-1.48,2.73-2.32h-2.47v-0.76h2.62
		c0.01-0.15,0.01-0.28,0.01-0.43v-1.02h-2.09v-4.09h0.73v3.36h4.49v2.17h0.59v0.76H63.01z M65.1,107.98h-3.67v-3.29h3.67V107.98z
		 M64.32,105.39h-2.15v1.89h2.15V105.39z M63.33,112.11c0.91,0.56,2.16,1.38,2.81,1.87l-0.5,0.6c-0.63-0.52-1.87-1.36-2.81-1.95
		L63.33,112.11z M63.12,110.5c0,0.15,0,0.27-0.01,0.42h1.57v-1.45h-1.56V110.5z"/>
</g>
</svg>
