<?xml version="1.0" encoding="utf-8"?>
<!-- Generator: Adobe Illustrator 24.0.2, SVG Export Plug-In . SVG Version: 6.00 Build 0)  -->
<svg version="1.1" id="圖層_1" xmlns="http://www.w3.org/2000/svg" xmlns:xlink="http://www.w3.org/1999/xlink" x="0px" y="0px"
	 viewBox="0 0 341.95 349.05" style="enable-background:new 0 0 341.95 349.05;" xml:space="preserve">
<style type="text/css">
	.st0{fill:none;}
	.st1{opacity:0.2;fill:#52B665;}
	.st2{fill:#FFFFFF;stroke:#E0E2E0;stroke-miterlimit:10;}
	.st3{fill:#52B665;}
	.st4{fill:#FFFFFF;}
	.st5{clip-path:url(#SVGID_2_);}
	.st6{fill:#F7F7F7;}
	.st7{fill:#4E4D4D;}
	.st8{fill:#E9EEEB;stroke:#CCCCCC;stroke-miterlimit:10;}
	.st9{fill:#666767;}
	.st10{fill:#CCCCCC;}
	.st11{fill:none;stroke:#7F8080;stroke-width:0.9333;stroke-linecap:round;stroke-miterlimit:10;}
	.st12{clip-path:url(#SVGID_4_);}
	.st13{fill:none;stroke:#7F8080;stroke-width:0.4667;stroke-linecap:round;stroke-miterlimit:10;}
	.st14{clip-path:url(#SVGID_6_);}
	.st15{clip-path:url(#SVGID_8_);}
	.st16{fill:#E9EEEB;}
	.st17{clip-path:url(#SVGID_10_);}
	.st18{clip-path:url(#SVGID_12_);}
	.st19{clip-path:url(#SVGID_14_);}
	.st20{clip-path:url(#SVGID_16_);}
	.st21{clip-path:url(#SVGID_18_);}
	.st22{clip-path:url(#SVGID_20_);}
	.st23{fill:url(#SVGID_21_);}
	.st24{fill:url(#SVGID_22_);}
	.st25{clip-path:url(#SVGID_24_);fill:#1B844D;}
	.st26{clip-path:url(#SVGID_26_);}
	.st27{clip-path:url(#SVGID_28_);}
	.st28{fill:none;stroke:#52B665;stroke-width:3;stroke-miterlimit:10;}
	.st29{fill:none;stroke:#52B665;stroke-width:2.8571;stroke-miterlimit:10;}
	.st30{fill:none;stroke:#52B665;stroke-width:2.7143;stroke-miterlimit:10;}
	.st31{fill:none;stroke:#52B665;stroke-width:2.5714;stroke-miterlimit:10;}
	.st32{fill:none;stroke:#52B665;stroke-width:2.4286;stroke-miterlimit:10;}
	.st33{fill:none;stroke:#52B665;stroke-width:2.2857;stroke-miterlimit:10;}
	.st34{fill:none;stroke:#52B665;stroke-width:2.1429;stroke-miterlimit:10;}
	.st35{fill:none;stroke:#52B665;stroke-width:2;stroke-miterlimit:10;}
	.st36{fill:none;stroke:#52B665;stroke-width:1.8571;stroke-miterlimit:10;}
	.st37{fill:none;stroke:#52B665;stroke-width:1.7143;stroke-miterlimit:10;}
	.st38{fill:none;stroke:#52B665;stroke-width:1.5714;stroke-miterlimit:10;}
	.st39{fill:none;stroke:#52B665;stroke-width:1.4286;stroke-miterlimit:10;}
	.st40{fill:none;stroke:#52B665;stroke-width:1.2857;stroke-miterlimit:10;}
	.st41{fill:none;stroke:#52B665;stroke-width:1.1429;stroke-miterlimit:10;}
	.st42{fill:none;stroke:#52B665;stroke-miterlimit:10;}
	.st43{fill:none;stroke:#52B665;stroke-width:0.8571;stroke-miterlimit:10;}
	.st44{fill:none;stroke:#52B665;stroke-width:0.7143;stroke-miterlimit:10;}
	.st45{fill:none;stroke:#52B665;stroke-width:0.5714;stroke-miterlimit:10;}
	.st46{fill:none;stroke:#52B665;stroke-width:0.4286;stroke-miterlimit:10;}
	.st47{fill:none;stroke:#52B665;stroke-width:0.2857;stroke-miterlimit:10;}
	.st48{fill:none;stroke:#52B665;stroke-width:0.1429;stroke-miterlimit:10;}
	.st49{fill:#AD8549;}
	.st50{fill:#005A41;}
	.st51{fill:#A67E3A;}
	.st52{fill:#ACABAB;}
	.st53{fill:none;stroke:#7D7D7D;stroke-width:0.4667;stroke-linecap:round;stroke-miterlimit:10;}
	.st54{fill:#ECB14E;}
	.st55{fill:#F8E6C7;}
	.st56{fill:#ECC6AD;}
	.st57{fill:#E37F7D;}
	.st58{fill:#4A1E0E;}
	.st59{opacity:0.1;fill:#040000;enable-background:new    ;}
	.st60{fill:#E0E2E0;}
	.st61{clip-path:url(#SVGID_30_);}
	.st62{fill:url(#SVGID_33_);stroke:#E6E6E5;stroke-width:0.8077;stroke-miterlimit:10;}
	.st63{fill:#E6E6E5;}
	.st64{fill:url(#SVGID_34_);stroke:#E6E6E5;stroke-width:0.8077;stroke-miterlimit:10;}
	.st65{fill:#333333;}
	.st66{fill:#23A664;}
	.st67{opacity:0.67;}
	.st68{fill:#A9A9A8;}
	.st69{clip-path:url(#SVGID_36_);}
	.st70{clip-path:url(#SVGID_38_);}
	.st71{clip-path:url(#SVGID_40_);}
	.st72{clip-path:url(#SVGID_42_);}
	.st73{clip-path:url(#SVGID_46_);}
	.st74{clip-path:url(#SVGID_48_);}
	.st75{clip-path:url(#SVGID_50_);fill:#E9EEEB;stroke:#CCCCCC;stroke-miterlimit:10;}
	.st76{clip-path:url(#SVGID_52_);fill:#666767;}
	.st77{clip-path:url(#SVGID_54_);}
	.st78{fill:none;stroke:#7F8080;stroke-width:1.1333;stroke-linecap:round;stroke-miterlimit:10;}
	.st79{clip-path:url(#SVGID_56_);}
	.st80{clip-path:url(#SVGID_58_);}
	.st81{clip-path:url(#SVGID_60_);}
	.st82{clip-path:url(#SVGID_62_);}
	.st83{clip-path:url(#SVGID_64_);}
	.st84{clip-path:url(#SVGID_66_);}
	.st85{clip-path:url(#SVGID_68_);fill:#E9EEEB;stroke:#CCCCCC;stroke-miterlimit:10;}
	.st86{clip-path:url(#SVGID_70_);fill:#666767;}
	.st87{clip-path:url(#SVGID_72_);}
	.st88{clip-path:url(#SVGID_74_);}
	.st89{clip-path:url(#SVGID_76_);}
</style>
<pattern  x="-381.41" y="-3.44" width="390" height="507" patternUnits="userSpaceOnUse" id="SVGID_31_" viewBox="0 -507 390 507" style="overflow:visible;">
	<g>
		<rect y="-507" class="st0" width="390" height="507"/>
		<g>
			<rect y="-507" class="st0" width="390" height="507"/>
			<g>
				<rect y="-507" class="st0" width="390" height="507"/>
				<g>
					<rect y="-507" class="st0" width="390" height="507"/>
				</g>
			</g>
		</g>
	</g>
</pattern>
<pattern  x="-381.41" y="-3.44" width="390" height="507" patternUnits="userSpaceOnUse" id="SVGID_32_" viewBox="0 -507 390 507" style="overflow:visible;">
	<g>
		<rect y="-507" class="st0" width="390" height="507"/>
		<g>
			<rect y="-507" class="st0" width="390" height="507"/>
			<g>
				<rect y="-507" class="st0" width="390" height="507"/>
				<g>
					<rect y="-507" class="st0" width="390" height="507"/>
				</g>
			</g>
		</g>
	</g>
</pattern>
<pattern  x="-381.41" y="-3.44" width="390" height="507" patternUnits="userSpaceOnUse" id="SVGID_43_" viewBox="0 -507 390 507" style="overflow:visible;">
	<g>
		<rect y="-507" class="st0" width="390" height="507"/>
		<g>
			<rect y="-507" class="st0" width="390" height="507"/>
			<g>
				<rect y="-507" class="st0" width="390" height="507"/>
				<g>
					<rect y="-507" class="st0" width="390" height="507"/>
				</g>
			</g>
		</g>
	</g>
</pattern>
<pattern  x="-381.41" y="-3.44" width="390" height="507" patternUnits="userSpaceOnUse" id="SVGID_44_" viewBox="0 -507 390 507" style="overflow:visible;">
	<g>
		<rect y="-507" class="st0" width="390" height="507"/>
		<g>
			<rect y="-507" class="st0" width="390" height="507"/>
			<g>
				<rect y="-507" class="st0" width="390" height="507"/>
				<g>
					<rect y="-507" class="st0" width="390" height="507"/>
				</g>
			</g>
		</g>
	</g>
</pattern>
<g>
	<path class="st1" d="M338.9,272.85H10.66c-1.69,0-3.05-1.37-3.05-3.05V49.64c0-1.69,1.37-3.05,3.05-3.05H338.9
		c1.69,0,3.05,1.37,3.05,3.05V269.8C341.95,271.48,340.58,272.85,338.9,272.85z"/>
	<path class="st2" d="M331.82,267.99H3.59c-1.69,0-3.05-1.37-3.05-3.05V44.78c0-1.69,1.37-3.05,3.05-3.05h328.24
		c1.69,0,3.05,1.37,3.05,3.05v220.16C334.88,266.62,333.51,267.99,331.82,267.99z"/>
	<path class="st3" d="M326.8,38.18L8.58,38.84c-4.44,0.01-8.04,3.62-8.03,8.06l0.01,17.23l334.31-0.69l-0.01-17.23
		C334.85,41.77,331.24,38.17,326.8,38.18z"/>
	<path class="st4" d="M19.05,51.15c0,1.49-1.2,2.7-2.7,2.71c-1.49,0-2.7-1.2-2.71-2.7c0-1.49,1.2-2.7,2.7-2.71
		C17.83,48.46,19.04,49.66,19.05,51.15z"/>
	<path class="st4" d="M30.49,51.15c0,1.49-1.2,2.7-2.7,2.71c-1.49,0-2.7-1.2-2.71-2.7c0-1.49,1.2-2.7,2.7-2.71
		C29.27,48.46,30.48,49.66,30.49,51.15z"/>
	<path class="st4" d="M41.92,51.15c0,1.49-1.2,2.7-2.7,2.71c-1.49,0-2.7-1.2-2.71-2.7c0-1.49,1.2-2.7,2.7-2.71
		C40.71,48.45,41.92,49.66,41.92,51.15z"/>
</g>
<g>
	<g>
		<g>
			<g>
				<g>
					<defs>
						<path id="SVGID_1_" d="M190.8,240.11c0.7,12.19,13.23,19.5,24.51,14.9c28.2-11.56,36.56-36.21,36.56-36.21
							c2.65-5.92-0.84-8.15-0.84-8.15c-1.67-5.64-5.78-2.44-5.78-2.44c-2.44,0.14-3.97,4.11-3.97,4.11
							c-4.25,1.95-21.59,5.64-34.68,8.22C196.51,222.5,190.17,229.88,190.8,240.11L190.8,240.11z"/>
					</defs>
					<clipPath id="SVGID_2_">
						<use xlink:href="#SVGID_1_"  style="overflow:visible;"/>
					</clipPath>
					<g class="st5">
						<g>
							<path class="st4" d="M190.8,240.11c0.7,12.19,13.23,19.5,24.51,14.9c28.2-11.56,36.56-36.21,36.56-36.21
								c2.65-5.92-0.84-8.15-0.84-8.15c-1.67-5.64-5.78-2.44-5.78-2.44c-2.44,0.14-3.97,4.11-3.97,4.11
								c-4.25,1.95-21.59,5.64-34.68,8.22C196.51,222.5,190.17,229.88,190.8,240.11L190.8,240.11z"/>
							<path class="st6" d="M208.34,256.76c-3.41,0-6.82-0.97-9.75-2.79c-4.8-3.06-7.8-8.08-8.08-13.79l0,0
								c-0.63-10.24,5.57-17.89,16.08-19.91c8.77-1.74,29.45-5.92,34.47-8.15c0.28-0.7,1.81-3.97,4.11-4.18
								c0.42-0.28,1.95-1.25,3.55-0.77c1.18,0.35,2.09,1.53,2.65,3.34c0.63,0.49,3.34,2.99,0.84,8.49
								c-0.07,0.21-8.7,24.93-36.76,36.42C213.15,256.27,210.71,256.76,208.34,256.76z M247.75,207.67c-1.18,0-2.3,0.84-2.3,0.84
								l-0.07,0.07h-0.14c-2.16,0.14-3.62,3.83-3.69,3.9l-0.07,0.14l-0.14,0.07c-4.8,2.23-25.9,6.48-34.75,8.22
								c-10.17,1.95-16.15,9.33-15.53,19.22l0,0c0.35,5.5,3.13,10.31,7.8,13.23c4.8,3.06,10.86,3.55,16.22,1.32
								c27.71-11.35,36.28-35.72,36.35-36c2.51-5.57-0.56-7.66-0.7-7.73l-0.14-0.07l-0.07-0.14c-0.49-1.67-1.25-2.65-2.23-2.99
								C248.24,207.67,247.96,207.67,247.75,207.67z"/>
						</g>
						<circle class="st7" cx="204.51" cy="239.98" r="10.79"/>
						<path class="st8" d="M204.51,230.92c5.01,0,9.05,4.04,9.05,9.05c0,5.01-4.04,9.05-9.05,9.05c-5.01,0-9.05-4.04-9.05-9.05
							C195.46,234.96,199.57,230.92,204.51,230.92 M204.51,227.44c-6.89,0-12.53,5.64-12.53,12.53s5.64,12.53,12.53,12.53
							c6.89,0,12.53-5.64,12.53-12.53S211.48,227.44,204.51,227.44L204.51,227.44z"/>
						<circle class="st9" cx="204.51" cy="239.98" r="4.87"/>
						<g>
							<circle class="st10" cx="204.51" cy="239.98" r="2.79"/>
							<line class="st11" x1="202.91" y1="238.37" x2="206.19" y2="241.65"/>
							<line class="st11" x1="205.98" y1="238.51" x2="203.05" y2="241.44"/>
						</g>
					</g>
				</g>
			</g>
		</g>
	</g>
	<g>
		<g>
			<g>
				<g>
					<defs>
						<path id="SVGID_3_" d="M190.8,240.11c0.7,12.19,13.23,19.5,24.51,14.9c28.2-11.56,36.56-36.21,36.56-36.21
							c2.65-5.92-0.84-8.15-0.84-8.15c-1.67-5.64-5.78-2.44-5.78-2.44c-2.44,0.14-3.97,4.11-3.97,4.11
							c-4.25,1.95-21.59,5.64-34.68,8.22C196.51,222.5,190.17,229.88,190.8,240.11L190.8,240.11z"/>
					</defs>
					<clipPath id="SVGID_4_">
						<use xlink:href="#SVGID_3_"  style="overflow:visible;"/>
					</clipPath>
					<g class="st12">
						<circle class="st10" cx="241.42" cy="214.91" r="1.39"/>
						<line class="st13" x1="242.25" y1="214.14" x2="240.65" y2="215.74"/>
						<line class="st13" x1="240.72" y1="214.21" x2="242.18" y2="215.67"/>
					</g>
				</g>
			</g>
		</g>
	</g>
	<g>
		<g>
			<g>
				<g>
					<defs>
						<path id="SVGID_5_" d="M190.8,240.11c0.7,12.19,13.23,19.5,24.51,14.9c28.2-11.56,36.56-36.21,36.56-36.21
							c2.65-5.92-0.84-8.15-0.84-8.15c-1.67-5.64-5.78-2.44-5.78-2.44c-2.44,0.14-3.97,4.11-3.97,4.11
							c-4.25,1.95-21.59,5.64-34.68,8.22C196.51,222.5,190.17,229.88,190.8,240.11L190.8,240.11z"/>
					</defs>
					<clipPath id="SVGID_6_">
						<use xlink:href="#SVGID_5_"  style="overflow:visible;"/>
					</clipPath>
					<g class="st14">
						<circle class="st10" cx="237.94" cy="216.3" r="1.39"/>
						<line class="st13" x1="238.77" y1="215.54" x2="237.17" y2="217.14"/>
						<line class="st13" x1="237.24" y1="215.61" x2="238.7" y2="217.07"/>
					</g>
				</g>
			</g>
		</g>
	</g>
	<g>
		<g>
			<g>
				<g>
					<defs>
						<path id="SVGID_7_" d="M190.8,240.11c0.7,12.19,13.23,19.5,24.51,14.9c28.2-11.56,36.56-36.21,36.56-36.21
							c2.65-5.92-0.84-8.15-0.84-8.15c-1.67-5.64-5.78-2.44-5.78-2.44c-2.44,0.14-3.97,4.11-3.97,4.11
							c-4.25,1.95-21.59,5.64-34.68,8.22C196.51,222.5,190.17,229.88,190.8,240.11L190.8,240.11z"/>
					</defs>
					<clipPath id="SVGID_8_">
						<use xlink:href="#SVGID_7_"  style="overflow:visible;"/>
					</clipPath>
					<g class="st15">
						<g>
							<path class="st16" d="M207.3,221.25c2.99,0.84,5.78,2.09,7.87,4.46c1.95,2.23,3.2,4.94,4.46,7.52
								c0.21,0.42,0.77,0.56,1.18,0.49c3.06-0.77,6.34-0.56,9.4-1.46c2.85-0.84,5.64-1.95,8.36-3.06c5.5-2.23,10.86-4.8,15.6-8.29
								c1.04-0.77,0-2.58-1.04-1.81c-4.73,3.48-9.96,6.06-15.39,8.22c-2.72,1.11-5.5,2.23-8.36,2.99c-2.99,0.77-6.06,0.63-9.05,1.39
								c0.42,0.14,0.77,0.35,1.18,0.49c-1.39-2.85-2.79-5.78-4.94-8.15c-2.3-2.51-5.36-3.9-8.56-4.8
								C206.6,218.88,206.05,220.9,207.3,221.25L207.3,221.25z"/>
						</g>
					</g>
				</g>
			</g>
		</g>
	</g>
	<g>
		<g>
			<g>
				<g>
					<defs>
						<path id="SVGID_9_" d="M190.8,240.11c0.7,12.19,13.23,19.5,24.51,14.9c28.2-11.56,36.56-36.21,36.56-36.21
							c2.65-5.92-0.84-8.15-0.84-8.15c-1.67-5.64-5.78-2.44-5.78-2.44c-2.44,0.14-3.97,4.11-3.97,4.11
							c-4.25,1.95-21.59,5.64-34.68,8.22C196.51,222.5,190.17,229.88,190.8,240.11L190.8,240.11z"/>
					</defs>
					<clipPath id="SVGID_10_">
						<use xlink:href="#SVGID_9_"  style="overflow:visible;"/>
					</clipPath>
					<g class="st17">
						<g>
							<path class="st16" d="M243.72,239.56c-1.46-1.6-3.55-2.3-5.64-2.44c-2.16-0.14-4.67,0.28-6.75,1.04
								c-1.95,0.77-3.34,2.3-3.97,4.32c-0.7,2.23-0.28,4.67,0.07,6.89c0.21,1.32,2.23,0.77,2.02-0.56c-0.56-3.2-0.97-7.66,2.85-8.84
								c3.06-0.97,7.45-1.6,9.89,1.04C243.16,242.06,244.62,240.6,243.72,239.56L243.72,239.56z"/>
						</g>
					</g>
				</g>
			</g>
		</g>
	</g>
</g>
<g>
	<g>
		<g>
			<g>
				<g>
					<defs>
						<path id="SVGID_11_" d="M73.4,240.11c-0.7,12.19-13.23,19.5-24.51,14.9c-28.2-11.56-36.56-36.21-36.56-36.21
							c-2.65-5.92,0.84-8.15,0.84-8.15c1.67-5.64,5.78-2.44,5.78-2.44c2.44,0.14,3.97,4.11,3.97,4.11
							c4.25,1.95,21.59,5.64,34.68,8.22C67.69,222.5,74.03,229.88,73.4,240.11L73.4,240.11z"/>
					</defs>
					<clipPath id="SVGID_12_">
						<use xlink:href="#SVGID_11_"  style="overflow:visible;"/>
					</clipPath>
					<g class="st18">
						<g>
							<path class="st4" d="M73.4,240.11c-0.7,12.19-13.23,19.5-24.51,14.9c-28.2-11.56-36.56-36.21-36.56-36.21
								c-2.65-5.92,0.84-8.15,0.84-8.15c1.67-5.64,5.78-2.44,5.78-2.44c2.44,0.14,3.97,4.11,3.97,4.11
								c4.25,1.95,21.59,5.64,34.68,8.22C67.69,222.5,74.03,229.88,73.4,240.11L73.4,240.11z"/>
							<path class="st6" d="M55.85,256.76c-2.44,0-4.8-0.49-7.1-1.39c-27.99-11.49-36.69-36.14-36.76-36.42
								c-2.44-5.5,0.28-8.01,0.84-8.49c0.56-1.81,1.46-2.92,2.65-3.34c1.6-0.49,3.2,0.49,3.55,0.77c2.3,0.21,3.83,3.48,4.11,4.18
								c5.01,2.23,25.76,6.41,34.47,8.15c10.58,2.02,16.71,9.68,16.08,19.91c-0.35,5.71-3.27,10.72-8.08,13.79
								C62.75,255.78,59.34,256.76,55.85,256.76z M16.44,207.67c-0.21,0-0.49,0-0.7,0.14c-0.97,0.35-1.74,1.32-2.23,2.99l-0.07,0.14
								l-0.14,0.07c-0.14,0.07-3.2,2.16-0.7,7.73c0.07,0.28,8.63,24.65,36.35,36c5.36,2.16,11.49,1.67,16.22-1.32
								c4.6-2.92,7.45-7.73,7.8-13.23l0,0c0.63-9.89-5.36-17.27-15.53-19.22c-8.84-1.74-29.94-6.06-34.75-8.22l-0.14-0.07
								l-0.07-0.14c0-0.07-1.46-3.76-3.69-3.9h-0.14l-0.07-0.07C18.74,208.5,17.63,207.67,16.44,207.67z"/>
						</g>
						<circle class="st7" cx="59.68" cy="239.98" r="10.79"/>
						<path class="st8" d="M59.68,230.92c5.01,0,9.05,4.04,9.05,9.05c0,5.01-4.04,9.05-9.05,9.05s-9.05-4.04-9.05-9.05
							C50.63,234.96,54.74,230.92,59.68,230.92 M59.68,227.44c-6.89,0-12.53,5.64-12.53,12.53s5.64,12.53,12.53,12.53
							s12.53-5.64,12.53-12.53S66.65,227.44,59.68,227.44L59.68,227.44z"/>
						<circle class="st9" cx="59.68" cy="239.98" r="4.87"/>
						<g>
							<circle class="st10" cx="59.68" cy="239.98" r="2.79"/>
							<line class="st11" x1="61.36" y1="238.37" x2="58.08" y2="241.65"/>
							<line class="st11" x1="58.22" y1="238.51" x2="61.15" y2="241.44"/>
						</g>
					</g>
				</g>
			</g>
		</g>
	</g>
	<g>
		<g>
			<g>
				<g>
					<defs>
						<path id="SVGID_13_" d="M73.4,240.11c-0.7,12.19-13.23,19.5-24.51,14.9c-28.2-11.56-36.56-36.21-36.56-36.21
							c-2.65-5.92,0.84-8.15,0.84-8.15c1.67-5.64,5.78-2.44,5.78-2.44c2.44,0.14,3.97,4.11,3.97,4.11
							c4.25,1.95,21.59,5.64,34.68,8.22C67.69,222.5,74.03,229.88,73.4,240.11L73.4,240.11z"/>
					</defs>
					<clipPath id="SVGID_14_">
						<use xlink:href="#SVGID_13_"  style="overflow:visible;"/>
					</clipPath>
					<g class="st19">
						<circle class="st10" cx="22.78" cy="214.91" r="1.39"/>
						<line class="st13" x1="22.02" y1="214.14" x2="23.62" y2="215.74"/>
						<line class="st13" x1="23.55" y1="214.21" x2="22.08" y2="215.67"/>
					</g>
				</g>
			</g>
		</g>
	</g>
	<g>
		<g>
			<g>
				<g>
					<defs>
						<path id="SVGID_15_" d="M73.4,240.11c-0.7,12.19-13.23,19.5-24.51,14.9c-28.2-11.56-36.56-36.21-36.56-36.21
							c-2.65-5.92,0.84-8.15,0.84-8.15c1.67-5.64,5.78-2.44,5.78-2.44c2.44,0.14,3.97,4.11,3.97,4.11
							c4.25,1.95,21.59,5.64,34.68,8.22C67.69,222.5,74.03,229.88,73.4,240.11L73.4,240.11z"/>
					</defs>
					<clipPath id="SVGID_16_">
						<use xlink:href="#SVGID_15_"  style="overflow:visible;"/>
					</clipPath>
					<g class="st20">
						<circle class="st10" cx="26.26" cy="216.3" r="1.39"/>
						<line class="st13" x1="25.5" y1="215.54" x2="27.1" y2="217.14"/>
						<line class="st13" x1="27.03" y1="215.61" x2="25.57" y2="217.07"/>
					</g>
				</g>
			</g>
		</g>
	</g>
	<g>
		<g>
			<g>
				<g>
					<defs>
						<path id="SVGID_17_" d="M73.4,240.11c-0.7,12.19-13.23,19.5-24.51,14.9c-28.2-11.56-36.56-36.21-36.56-36.21
							c-2.65-5.92,0.84-8.15,0.84-8.15c1.67-5.64,5.78-2.44,5.78-2.44c2.44,0.14,3.97,4.11,3.97,4.11
							c4.25,1.95,21.59,5.64,34.68,8.22C67.69,222.5,74.03,229.88,73.4,240.11L73.4,240.11z"/>
					</defs>
					<clipPath id="SVGID_18_">
						<use xlink:href="#SVGID_17_"  style="overflow:visible;"/>
					</clipPath>
					<g class="st21">
						<g>
							<path class="st16" d="M56.34,219.23c-3.27,0.91-6.27,2.23-8.56,4.8c-2.16,2.37-3.62,5.29-4.94,8.15
								c0.42-0.14,0.77-0.35,1.18-0.49c-2.99-0.77-6.13-0.56-9.05-1.39c-2.85-0.77-5.64-1.95-8.36-2.99
								c-5.43-2.16-10.72-4.73-15.39-8.22c-1.11-0.77-2.16,1.04-1.04,1.81c4.8,3.55,10.1,6.13,15.6,8.29
								c2.72,1.11,5.5,2.23,8.36,3.06c3.06,0.91,6.27,0.7,9.4,1.46c0.42,0.07,0.97-0.07,1.18-0.49c1.25-2.65,2.51-5.36,4.46-7.52
								c2.09-2.37,4.8-3.62,7.87-4.46C58.22,220.9,57.67,218.88,56.34,219.23L56.34,219.23z"/>
						</g>
					</g>
				</g>
			</g>
		</g>
	</g>
	<g>
		<g>
			<g>
				<g>
					<defs>
						<path id="SVGID_19_" d="M73.4,240.11c-0.7,12.19-13.23,19.5-24.51,14.9c-28.2-11.56-36.56-36.21-36.56-36.21
							c-2.65-5.92,0.84-8.15,0.84-8.15c1.67-5.64,5.78-2.44,5.78-2.44c2.44,0.14,3.97,4.11,3.97,4.11
							c4.25,1.95,21.59,5.64,34.68,8.22C67.69,222.5,74.03,229.88,73.4,240.11L73.4,240.11z"/>
					</defs>
					<clipPath id="SVGID_20_">
						<use xlink:href="#SVGID_19_"  style="overflow:visible;"/>
					</clipPath>
					<g class="st22">
						<g>
							<path class="st16" d="M21.95,241.09c2.44-2.65,6.82-2.02,9.89-1.04c3.83,1.25,3.41,5.71,2.85,8.84
								c-0.07,0.56,0.14,1.11,0.7,1.25c0.49,0.14,1.18-0.14,1.25-0.7c0.35-2.3,0.77-4.67,0.07-6.89c-0.63-2.02-1.95-3.55-3.97-4.32
								c-0.97-0.42-2.09-0.56-3.13-0.77c-1.18-0.21-2.37-0.35-3.55-0.28c-2.09,0.14-4.18,0.84-5.64,2.44
								C19.58,240.6,21.04,242.06,21.95,241.09L21.95,241.09z"/>
						</g>
					</g>
				</g>
			</g>
		</g>
	</g>
</g>
<g>
	<path class="st7" d="M63.86,262.95c-2.79,4.18-2.09,8.36-2.09,8.36s34.81,39.69,37.6,40.39c2.79,0.7,6.27-0.7,6.96-3.48
		c0.7-2.79-12.53-26.46-12.53-26.46L63.86,262.95z"/>
	<pattern  id="SVGID_21_" xlink:href="#SVGID_31_" patternTransform="matrix(1 0 0 1 603.3117 35317.8438)">
	</pattern>
	<path class="st23" d="M63.86,262.95c-2.79,4.18-2.09,8.36-2.09,8.36s34.81,39.69,37.6,40.39c2.79,0.7,6.27-0.7,6.96-3.48
		c0.7-2.79-12.53-26.46-12.53-26.46L63.86,262.95z"/>
</g>
<g>
	<path class="st7" d="M203.96,263.65c2.58,3.97,1.95,7.94,1.95,7.94s-32.03,37.88-34.61,38.51c-2.58,0.63-5.78-0.7-6.41-3.34
		c-0.63-2.65,11.56-25.21,11.56-25.21L203.96,263.65z"/>
	<pattern  id="SVGID_22_" xlink:href="#SVGID_32_" patternTransform="matrix(1 0 0 1 753.4892 35315.8438)">
	</pattern>
	<path class="st24" d="M203.96,263.65c2.58,3.97,1.95,7.94,1.95,7.94s-32.03,37.88-34.61,38.51c-2.58,0.63-5.78-0.7-6.41-3.34
		c-0.63-2.65,11.56-25.21,11.56-25.21L203.96,263.65z"/>
</g>
<g>
	<path class="st4" d="M60.66,271.1c-1.32-0.28-2.51,0.91-2.37,2.23c1.18,10.17,3.13,21.31,6.27,33.21c0,0,6.96,23.47,18.45,40.25
		c0,0,3.62,4.32,10.93,0.84c0,0,2.99-1.74-2.51-5.29c0,0,8.01-19.22,10.65-25.48c0.56-1.25,0.56-2.72-0.07-3.97
		C94.15,295.47,77.72,274.37,60.66,271.1z"/>
	<path class="st6" d="M88.51,349.29c-1.18,0-2.16-0.21-2.92-0.49c-1.88-0.7-2.85-1.81-2.85-1.81
		c-11.42-16.64-18.45-40.11-18.52-40.39c-2.85-10.86-4.94-22.07-6.27-33.28c-0.07-0.77,0.21-1.53,0.77-2.09
		c0.56-0.49,1.25-0.7,2.02-0.56c7.87,1.53,16.29,6.96,24.3,15.67c6.75,7.38,13.09,16.92,17.27,26.25c0.63,1.32,0.7,2.85,0.07,4.25
		c-2.44,5.78-9.54,22.84-10.51,25.21c2.16,1.46,3.27,2.79,3.2,4.04c0,1.11-0.97,1.67-0.97,1.67
		C91.92,348.95,90.04,349.29,88.51,349.29z M60.24,271.38c-0.42,0-0.77,0.14-1.04,0.42c-0.42,0.35-0.63,0.91-0.56,1.46
		c1.32,11.14,3.41,22.35,6.27,33.14c0.07,0.21,7.1,23.6,18.38,40.11c0.14,0.14,3.55,4.04,10.51,0.7c0,0,0.63-0.35,0.63-1.11
		c0-0.7-0.56-1.88-3.13-3.62l-0.28-0.14l0.14-0.28c0.07-0.21,8.01-19.29,10.65-25.48c0.56-1.18,0.49-2.51-0.07-3.69
		c-11.49-25.35-29.31-39.34-41.08-41.57l0,0C60.45,271.45,60.38,271.38,60.24,271.38z"/>
</g>
<g>
	<path class="st4" d="M169.35,315.66c2.65,6.2,9.75,22.77,12.88,26.81c0,0-5.22,0.63-2.72,3.83c0,0,5.57,3.48,10.51,0.42
		c0,0,11.35-20.26,14.9-44.01c0,0,1.88-5.99,2.85-29.45c0.07-1.39-1.32-2.44-2.65-2.02c-14.83,5.15-28.69,23.95-35.86,39.9
		C168.79,312.6,168.79,314.27,169.35,315.66z"/>
	<path class="st6" d="M185.51,348.32c-3.41,0-6.13-1.67-6.2-1.74l-0.07-0.07c-0.7-0.91-0.91-1.74-0.63-2.44
		c0.49-1.11,2.09-1.6,2.99-1.81c-3.34-4.8-10.24-20.96-12.6-26.39l0,0c-0.56-1.46-0.63-3.2-0.07-4.73
		c7.31-16.29,21.31-34.95,36.07-40.11c0.77-0.21,1.53-0.07,2.16,0.42s0.97,1.18,0.91,1.95c-0.97,23.26-2.79,29.31-2.85,29.52
		c-3.48,23.47-14.83,43.87-14.9,44.08l-0.07,0.07l-0.07,0.07C188.64,347.97,187.04,348.32,185.51,348.32z M179.73,346.02
		c0.56,0.35,5.57,3.13,10.03,0.42c0.77-1.39,11.42-21.17,14.83-43.8c0-0.14,1.88-6.34,2.85-29.38c0-0.56-0.21-1.04-0.63-1.39
		s-1.04-0.42-1.53-0.28c-14.55,5.08-28.41,23.6-35.65,39.69c-0.49,1.39-0.42,2.92,0.07,4.25c2.37,5.64,9.68,22.63,12.81,26.74
		l0.35,0.49l-0.63,0.07c-0.7,0.07-2.58,0.49-2.99,1.53C179.1,344.77,179.24,345.32,179.73,346.02z"/>
</g>
<g>
	<path class="st4" d="M205,237.19c0,9.4,0.56,22.28,0.35,29.04c-0.07,1.6-1.11,3.06-2.65,3.55c-14.9,5.01-28.83,23.95-36.07,40.04
		c-0.63,1.32-1.95,2.16-3.41,2.16c-9.68-0.14-45.4-0.42-55.08,0.42c-1.46,0.14-2.79-0.7-3.41-2.02
		c-7.87-17.06-23.81-37.6-40.52-41.29c-2.09-0.49-3.62-2.23-3.76-4.32c-0.7-8.36,0.49-20.82,0.63-27.57L205,237.19z"/>
	<path class="st6" d="M107.8,312.74c-1.46,0-2.79-0.84-3.41-2.23c-7.94-17.27-23.95-37.53-40.32-41.08c-2.3-0.56-3.9-2.37-4.04-4.67
		c-0.49-5.78-0.07-13.72,0.28-20.05c0.14-2.79,0.28-5.5,0.35-7.52v-0.35h144.62v0.35c0,4.04,0.07,8.77,0.21,13.37
		c0.14,6.06,0.28,11.84,0.14,15.67c-0.07,1.81-1.25,3.34-2.85,3.9c-14.55,4.87-28.55,23.53-35.86,39.83
		c-0.7,1.46-2.09,2.37-3.76,2.37c-8.56-0.14-45.19-0.42-55.08,0.42C108.08,312.74,107.94,312.74,107.8,312.74z M61.43,237.54
		c-0.07,2.02-0.21,4.53-0.35,7.24c-0.35,6.34-0.77,14.2-0.28,19.98c0.14,1.95,1.53,3.55,3.48,4.04
		c16.57,3.62,32.73,24.09,40.73,41.5c0.56,1.25,1.81,1.95,3.06,1.81c9.89-0.84,46.58-0.56,55.15-0.42c1.32,0,2.51-0.77,3.06-1.95
		c7.38-16.43,21.52-35.23,36.28-40.25c1.39-0.42,2.37-1.74,2.44-3.2c0.14-3.83,0-9.54-0.14-15.67c-0.07-4.46-0.21-9.05-0.21-13.02
		H61.43V237.54z"/>
</g>
<g>
	<g>
		<g>
			<g>
				<g>
					<defs>
						<path id="SVGID_23_" d="M205,237.19c0,9.4,0.56,22.28,0.35,29.04c-0.07,1.6-1.11,3.06-2.65,3.55
							c-14.9,5.01-28.83,23.95-36.07,40.04c-0.63,1.32-1.95,2.16-3.41,2.16c-9.68-0.14-45.4-0.42-55.08,0.42
							c-1.46,0.14-2.79-0.7-3.41-2.02c-7.87-17.06-23.81-37.6-40.52-41.29c-2.09-0.49-3.62-2.23-3.76-4.32
							c-0.7-8.36,0.49-20.82,0.63-27.57L205,237.19z"/>
					</defs>
					<clipPath id="SVGID_24_">
						<use xlink:href="#SVGID_23_"  style="overflow:visible;"/>
					</clipPath>
					<path class="st25" d="M211.06,246.52c-3.27,6.55-19.01,23.4-78.19,23.4s-71.72-16.71-77.22-22.28l2.72-16.5l149.01-1.6
						L211.06,246.52z"/>
				</g>
			</g>
		</g>
	</g>
	<g>
		<g>
			<g>
				<g>
					<defs>
						<path id="SVGID_25_" d="M205,237.19c0,9.4,0.56,22.28,0.35,29.04c-0.07,1.6-1.11,3.06-2.65,3.55
							c-14.9,5.01-28.83,23.95-36.07,40.04c-0.63,1.32-1.95,2.16-3.41,2.16c-9.68-0.14-45.4-0.42-55.08,0.42
							c-1.46,0.14-2.79-0.7-3.41-2.02c-7.87-17.06-23.81-37.6-40.52-41.29c-2.09-0.49-3.62-2.23-3.76-4.32
							c-0.7-8.36,0.49-20.82,0.63-27.57L205,237.19z"/>
					</defs>
					<clipPath id="SVGID_26_">
						<use xlink:href="#SVGID_25_"  style="overflow:visible;"/>
					</clipPath>
					<g class="st26">
						<g>
							<g>
								<g>
									<g>
										<defs>
											<path id="SVGID_27_" d="M211.06,246.52c-3.27,6.55-19.01,23.4-78.19,23.4s-71.72-16.71-77.22-22.28l2.72-16.5l149.01-1.6
												L211.06,246.52z"/>
										</defs>
										<clipPath id="SVGID_28_">
											<use xlink:href="#SVGID_27_"  style="overflow:visible;"/>
										</clipPath>
										<g class="st27">
											<path class="st28" d="M67,235.1c-1.18,1.95-1.32,4.39-1.46,6.61c-0.49,9.61,0.21,19.29,1.95,28.76"/>
											<g>
												<g>
													<path class="st3" d="M72.43,234.75c-1.32,2.51-1.46,5.36-1.53,8.15c-0.07,3.06-0.07,6.13,0,9.19
														c0.21,6.27,0.91,12.46,1.95,18.59c0.21,1.32,2.23,0.77,2.02-0.56c-1.04-5.85-1.6-11.77-1.88-17.69
														c-0.14-2.92-0.14-5.92-0.07-8.91c0.07-2.58,0-5.43,1.25-7.8C74.79,234.61,73.05,233.57,72.43,234.75L72.43,234.75z"/>
												</g>
												<path class="st29" d="M73.33,235.31c-1.11,1.95-1.25,4.32-1.32,6.61c-0.42,9.54,0.21,19.15,1.88,28.55"/>
											</g>
											<g>
												<g>
													<path class="st3" d="M78.69,234.96c-1.25,2.51-1.32,5.36-1.39,8.15c-0.07,3.13-0.07,6.2,0.07,9.33
														c0.21,6.13,0.84,12.25,1.81,18.31c0.21,1.32,2.23,0.77,2.02-0.56c-0.91-5.78-1.53-11.56-1.74-17.41
														c-0.14-2.85-0.14-5.78-0.07-8.63c0.07-2.65-0.07-5.64,1.18-8.08C81.06,234.82,79.25,233.78,78.69,234.96L78.69,234.96z
														"/>
												</g>
												<path class="st30" d="M79.6,235.52c-1.04,1.95-1.18,4.32-1.25,6.55c-0.35,9.47,0.28,19.01,1.81,28.41"/>
											</g>
											<g>
												<g>
													<path class="st3" d="M84.96,235.17c-1.18,2.58-1.25,5.29-1.32,8.08c-0.07,3.06-0.07,6.13,0.07,9.19
														c0.21,6.13,0.77,12.19,1.67,18.24c0.21,1.32,2.23,0.77,2.02-0.56c-0.84-5.78-1.39-11.56-1.6-17.34
														c-0.14-2.85-0.14-5.71-0.07-8.49c0.07-2.65-0.07-5.57,1.04-8.08C87.26,235.03,85.52,233.99,84.96,235.17L84.96,235.17z
														"/>
												</g>
												<path class="st31" d="M85.87,235.73c-0.97,1.95-1.04,4.32-1.11,6.55c-0.28,9.4,0.28,18.94,1.67,28.2"/>
											</g>
											<g>
												<g>
													<path class="st3" d="M91.23,235.38c-1.11,2.58-1.18,5.29-1.18,8.08c-0.07,3.06,0,6.06,0.07,9.12
														c0.21,6.06,0.77,12.12,1.53,18.17c0.07,0.56,0.77,0.84,1.25,0.7c0.63-0.14,0.84-0.7,0.7-1.25
														c-0.77-5.71-1.25-11.49-1.46-17.27c-0.14-2.85-0.14-5.71-0.14-8.56c0-2.58-0.14-5.43,0.91-7.87
														c0.21-0.56,0.14-1.11-0.35-1.46C92.2,234.75,91.44,234.89,91.23,235.38L91.23,235.38z"/>
												</g>
												<path class="st32" d="M92.13,235.94c-0.91,1.95-0.97,4.25-1.04,6.48c-0.21,9.33,0.35,18.8,1.6,27.99"/>
											</g>
											<g>
												<g>
													<path class="st3" d="M97.35,235.87c-0.97,2.58-0.97,5.36-0.97,8.08c0,2.92,0,5.92,0.14,8.84
														c0.21,5.92,0.7,11.77,1.39,17.62c0.14,1.32,2.23,1.32,2.09,0c-0.7-5.71-1.18-11.49-1.39-17.27
														c-0.14-2.85-0.14-5.71-0.14-8.49c0-2.79-0.07-5.64,0.91-8.22C99.86,235.17,97.84,234.61,97.35,235.87L97.35,235.87z"/>
												</g>
												<path class="st33" d="M98.4,236.15c-0.84,1.95-0.91,4.25-0.91,6.48c-0.14,9.33,0.35,18.66,1.53,27.85"/>
											</g>
											<g>
												<g>
													<path class="st3" d="M103.62,236.08c-0.91,2.58-0.84,5.36-0.84,8.08c0,2.92,0.07,5.85,0.14,8.7
														c0.21,5.85,0.63,11.7,1.25,17.55c0.14,1.32,2.23,1.32,2.09,0c-0.63-5.71-1.04-11.49-1.25-17.2
														c-0.07-2.85-0.14-5.71-0.14-8.56c0-2.72-0.14-5.43,0.77-8.01C106.06,235.31,104.04,234.82,103.62,236.08L103.62,236.08
														z"/>
												</g>
												<path class="st34" d="M104.67,236.35c-0.77,1.95-0.84,4.25-0.84,6.41c-0.07,9.26,0.42,18.52,1.39,27.64"/>
											</g>
											<g>
												<g>
													<path class="st3" d="M109.89,236.29c-0.84,2.51-0.77,5.22-0.77,7.87c0,2.92,0.07,5.85,0.14,8.77
														c0.21,5.85,0.56,11.7,1.11,17.48c0.14,1.32,2.23,1.32,2.09,0c-0.56-5.71-0.91-11.42-1.11-17.13
														c-0.07-2.85-0.14-5.71-0.21-8.63c0-2.65-0.14-5.29,0.7-7.8C112.32,235.52,110.31,234.96,109.89,236.29L109.89,236.29z"
														/>
												</g>
												<path class="st35" d="M110.93,236.56c-0.7,1.95-0.7,4.18-0.7,6.41c0,9.19,0.42,18.38,1.32,27.5"/>
											</g>
											<g>
												<g>
													<path class="st3" d="M116.15,236.49c-0.77,2.58-0.63,5.29-0.63,8.01c0,2.92,0.07,5.85,0.21,8.7
														c0.21,5.71,0.56,11.49,0.97,17.2c0.14,1.32,2.23,1.32,2.09,0c-0.49-5.64-0.77-11.21-0.97-16.85
														c-0.07-2.79-0.14-5.57-0.21-8.36c0-2.72-0.21-5.5,0.56-8.15C118.52,235.73,116.5,235.17,116.15,236.49L116.15,236.49z"
														/>
												</g>
												<path class="st36" d="M117.2,236.77c-0.63,1.95-0.63,4.18-0.63,6.34c0.07,9.12,0.49,18.31,1.18,27.29"/>
											</g>
											<g>
												<g>
													<path class="st3" d="M122.42,236.7c-0.63,2.58-0.56,5.29-0.49,7.94c0.07,2.85,0.14,5.71,0.21,8.63
														c0.21,5.71,0.49,11.42,0.91,17.13c0.07,1.32,2.16,1.32,2.09,0c-0.42-5.57-0.7-11.21-0.91-16.78
														c-0.07-2.79-0.14-5.5-0.21-8.29c-0.07-2.72-0.21-5.5,0.42-8.08C124.79,235.94,122.77,235.38,122.42,236.7L122.42,236.7
														z"/>
												</g>
												<path class="st37" d="M123.47,236.98c-0.56,1.95-0.56,4.18-0.49,6.34c0.14,9.05,0.49,18.17,1.11,27.09"/>
											</g>
											<g>
												<g>
													<path class="st3" d="M128.69,236.91c-0.56,2.58-0.49,5.29-0.42,7.94c0.07,2.85,0.14,5.71,0.21,8.56
														c0.21,5.71,0.42,11.35,0.77,16.99c0.07,1.32,2.16,1.32,2.09,0c-0.28-5.57-0.56-11.14-0.77-16.71
														c-0.07-2.72-0.14-5.5-0.21-8.22c-0.07-2.65-0.28-5.43,0.28-8.08C130.99,236.15,128.97,235.59,128.69,236.91
														L128.69,236.91z"/>
												</g>
												<path class="st38" d="M129.73,237.19c-0.49,1.95-0.42,4.18-0.42,6.27c0.21,8.98,0.56,18.03,1.04,26.95"/>
											</g>
											<g>
												<g>
													<path class="st3" d="M134.95,237.05c-0.49,2.65-0.35,5.36-0.28,8.08c0.07,2.79,0.14,5.64,0.28,8.43
														c0.21,5.57,0.42,11.21,0.63,16.78c0.07,1.32,2.16,1.32,2.09,0c-0.21-5.5-0.42-10.93-0.63-16.43
														c-0.07-2.72-0.21-5.5-0.28-8.22c-0.07-2.65-0.28-5.36,0.21-8.01C137.18,236.35,135.23,235.8,134.95,237.05
														L134.95,237.05z"/>
												</g>
												<path class="st39" d="M136,237.33c-0.42,1.95-0.35,4.11-0.28,6.27c0.28,8.91,0.56,17.89,0.91,26.74"/>
											</g>
											<g>
												<g>
													<path class="st3" d="M141.22,237.26c-0.42,2.65-0.28,5.22-0.14,7.87c0.07,2.85,0.21,5.64,0.28,8.49
														c0.21,5.57,0.35,11.14,0.49,16.71c0.07,1.32,2.16,1.32,2.09,0c-0.14-5.43-0.28-10.93-0.49-16.36
														c-0.07-2.72-0.21-5.43-0.28-8.15c-0.07-2.65-0.35-5.36,0.07-8.01C143.45,236.56,141.43,235.94,141.22,237.26
														L141.22,237.26z"/>
												</g>
												<path class="st40" d="M142.27,237.54c-0.35,1.95-0.28,4.11-0.14,6.2c0.35,8.84,0.63,17.76,0.84,26.53"/>
											</g>
											<g>
												<g>
													<path class="st3" d="M147.49,237.75c-0.28,2.65-0.07,5.29,0,7.87c0.14,2.72,0.21,5.5,0.28,8.22
														c0.21,5.5,0.28,10.93,0.35,16.43c0,1.32,2.09,1.32,2.09,0c-0.07-5.5-0.21-10.93-0.35-16.43
														c-0.07-2.72-0.21-5.5-0.28-8.22c-0.14-2.65-0.28-5.29,0-7.87C149.72,236.42,147.63,236.42,147.49,237.75L147.49,237.75
														z"/>
												</g>
												<path class="st41" d="M148.53,237.75c-0.28,1.95-0.14,4.11-0.07,6.2c0.35,8.77,0.63,17.69,0.77,26.39"/>
											</g>
											<g>
												<g>
													<path class="st3" d="M153.75,237.96c-0.21,2.65,0,5.22,0.14,7.87c0.14,2.72,0.21,5.43,0.35,8.15
														c0.14,5.43,0.28,10.93,0.28,16.36c0,1.32,2.09,1.32,2.09,0c0-5.43-0.07-10.93-0.28-16.36
														c-0.07-2.72-0.21-5.43-0.35-8.15c-0.14-2.65-0.35-5.22-0.14-7.87C155.91,236.63,153.82,236.63,153.75,237.96
														L153.75,237.96z"/>
												</g>
												<path class="st42" d="M154.8,237.96c-0.14,1.95-0.07,4.04,0.07,6.13c0.42,8.7,0.7,17.55,0.63,26.18"/>
											</g>
											<g>
												<g>
													<path class="st3" d="M160.02,238.17c-0.14,2.65,0.14,5.29,0.28,8.01c0.14,2.72,0.28,5.36,0.35,8.08
														c0.14,5.36,0.21,10.72,0.14,16.08c0,1.32,2.09,1.32,2.09,0c0.07-5.36,0.07-10.72-0.14-16.08
														c-0.07-2.65-0.21-5.29-0.35-7.87c-0.14-2.72-0.42-5.43-0.28-8.15C162.11,236.84,160.02,236.84,160.02,238.17
														L160.02,238.17z"/>
												</g>
												<path class="st43" d="M161.07,238.17c-0.07,1.95,0,4.04,0.14,6.13c0.49,8.63,0.7,17.41,0.56,26.04"/>
											</g>
											<g>
												<g>
													<path class="st3" d="M166.29,238.37c0,2.58,0.21,5.22,0.35,7.8c0.14,2.72,0.28,5.43,0.35,8.08
														c0.14,5.36,0.14,10.65,0,16.01c-0.07,1.32,2.02,1.32,2.09,0c0.14-5.36,0.14-10.65,0-16.01
														c-0.07-2.65-0.21-5.29-0.35-7.94c-0.14-2.65-0.42-5.29-0.35-7.94C168.38,237.05,166.29,237.05,166.29,238.37
														L166.29,238.37z"/>
												</g>
												<path class="st44" d="M167.33,238.37c0,1.95,0.14,4.04,0.28,6.06c0.56,8.56,0.77,17.27,0.49,25.83"/>
											</g>
											<g>
												<g>
													<path class="st3" d="M172.55,238.58c0.14,5.29,0.7,10.51,0.91,15.81c0.14,5.29,0.14,10.58-0.14,15.88
														c-0.07,1.32,2.02,1.32,2.09,0c0.21-5.29,0.28-10.58,0.14-15.88c-0.14-5.29-0.77-10.51-0.91-15.81
														C174.57,237.26,172.48,237.26,172.55,238.58L172.55,238.58z"/>
												</g>
												<path class="st45" d="M173.6,238.58c0.07,1.95,0.21,3.97,0.35,6.06c0.63,8.56,0.77,17.13,0.35,25.62"/>
											</g>
											<g>
												<g>
													<path class="st3" d="M178.82,238.79c0.28,5.22,0.84,10.37,1.04,15.67c0.14,5.29,0.07,10.58-0.28,15.81
														c-0.07,1.32,2.02,1.32,2.09,0c0.35-5.29,0.42-10.58,0.28-15.81c-0.14-5.22-0.7-10.44-1.04-15.67
														C180.84,237.47,178.75,237.47,178.82,238.79L178.82,238.79z"/>
												</g>
												<path class="st46" d="M179.87,238.79c0.14,1.95,0.28,3.97,0.49,5.99c0.7,8.49,0.84,17.06,0.28,25.48"/>
											</g>
											<g>
												<g>
													<path class="st3" d="M185.09,239c0.49,5.15,0.97,10.31,1.18,15.53c0.14,5.22,0,10.51-0.42,15.74
														c-0.07,1.32,2.02,1.32,2.09,0c0.42-5.22,0.56-10.44,0.42-15.74c-0.14-5.22-0.7-10.37-1.18-15.53
														C187.04,237.68,184.95,237.68,185.09,239L185.09,239z"/>
												</g>
												<path class="st47" d="M186.13,239c0.21,1.95,0.42,3.97,0.56,5.99c0.77,8.43,0.84,16.92,0.21,25.28"/>
											</g>
											<g>
												<g>
													<path class="st3" d="M191.35,239.21c1.32,10.31,1.74,20.61,0.77,31.05c-0.14,1.32,1.95,1.32,2.09,0
														c0.97-10.37,0.56-20.68-0.77-31.05C193.23,237.89,191.15,237.89,191.35,239.21L191.35,239.21z"/>
												</g>
												<path class="st48" d="M192.4,239.21c0.28,1.95,0.49,3.97,0.7,5.92c0.84,8.36,0.84,16.78,0.07,25.14"/>
											</g>
											<g>
												<g>
													<path class="st3" d="M197.62,239.7c1.6,10.1,1.88,20.4,0.77,30.5c-0.14,1.32,1.95,1.32,2.09,0
														c1.11-10.37,0.84-20.82-0.84-31.05C199.43,237.82,197.41,238.37,197.62,239.7L197.62,239.7z"/>
												</g>
											</g>
										</g>
									</g>
								</g>
							</g>
						</g>
					</g>
				</g>
			</g>
		</g>
	</g>
</g>
<g>
	<path class="st4" d="M132.45,291.01c-4.18-2.65-21.03-13.16-24.44-14.97c-0.21-0.14-0.63-0.35-0.77-0.49
		c-0.14-0.14-0.14-0.7-0.14-1.04l-0.49-10.65l-1.25-0.28c-7.59-1.81-15.39-3.62-22.35-7.24c-7.45-3.9-13.72-9.54-20.89-16.78
		c-0.63-0.63-0.97-1.53-0.97-2.44c0.07-2.85,0.21-5.71,0.42-8.49c0.84-11.35,10.37-20.26,21.79-20.26c0.21,0,0.49,0,0.7,0
		l105.98,3.34c7.59,0.21,13.51,6.34,13.65,13.93c0.07,3.97,0.07,7.87,0.07,11.56c0,0.91-0.35,1.67-0.97,2.3l-0.07,0.14
		c-7.1,7.31-13.37,12.95-20.89,16.78c-6.96,3.62-14.76,5.43-22.35,7.24l-1.25,0.28l-0.49,10.58c0,0.35-0.07,0.84-0.14,1.04
		c-0.07,0.07-0.28,0.21-0.42,0.28c-0.21,0.14-0.35,0.21-0.56,0.35C155.77,276.81,142.06,285.17,132.45,291.01z"/>
	<path class="st3" d="M83.43,209.97c0.21,0,0.42,0,0.63,0l105.98,3.34c6.61,0.21,11.84,5.57,11.91,12.19
		c0.07,3.97,0.07,7.8,0.07,11.49c0,0.42-0.14,0.84-0.42,1.11l-0.07,0.07c-6.96,7.17-13.16,12.67-20.4,16.43
		c-6.75,3.48-14.48,5.36-21.93,7.1l-2.58,0.63l-0.14,2.65l-0.21,4.8l-0.21,4.6c0,0,0,0,0,0.07c-0.14,0.07-0.28,0.14-0.35,0.28
		c-1.04,0.7-14.07,8.7-23.19,14.27c-5.29-3.34-20.33-12.74-23.6-14.48v-0.07l-0.21-4.6l-0.21-4.8l-0.14-2.65l-2.58-0.63
		c-7.45-1.74-15.18-3.62-21.93-7.1c-7.24-3.76-13.44-9.33-20.4-16.5c-0.28-0.28-0.49-0.77-0.42-1.18c0.07-2.85,0.21-5.71,0.42-8.43
		C64.14,218.18,72.91,209.97,83.43,209.97 M83.43,206.48c-12.32,0-22.63,9.54-23.53,21.86c-0.21,2.65-0.35,5.5-0.42,8.56
		c-0.07,1.39,0.49,2.72,1.46,3.69l0,0c6.41,6.55,13.16,12.88,21.31,17.13c7.1,3.69,14.97,5.57,22.77,7.38
		c0.14,3.13,0.28,6.27,0.42,9.33c0,0.63,0.07,1.32,0.42,1.88c0.35,0.49,0.84,0.77,1.39,1.04c3.76,2.02,25.21,15.53,25.21,15.53
		s24.02-14.62,25.21-15.53c0.49-0.35,1.04-0.56,1.39-1.04c0.35-0.56,0.42-1.25,0.42-1.88c0.14-3.13,0.28-6.27,0.42-9.33
		c7.8-1.88,15.67-3.76,22.77-7.38c8.15-4.18,14.9-10.58,21.31-17.13l0.07-0.14c0.91-0.97,1.46-2.23,1.46-3.55
		c0-3.62,0-7.52-0.07-11.56c-0.07-8.49-6.82-15.39-15.32-15.6l-105.98-3.34C83.92,206.55,83.64,206.48,83.43,206.48L83.43,206.48z"
		/>
</g>
<g>
	<g>
		<path class="st49" d="M126.18,277.58c1.32,0.63,2.72,0.97,4.11,0.97c0.97,0.07,1.95-0.14,2.85-0.28c1.81-0.35,3.41-1.18,4.73-2.51
			c0.14-0.14,0.14-0.28,0.28-0.49c-0.21,0-0.21,0-0.28,0c-1.88,1.46-3.97,1.95-6.34,1.6c-2.09-0.35-3.83-1.32-5.22-2.92
			c-1.67-1.95-2.3-4.18-2.02-6.68c0.21-2.16,0.97-4.11,2.37-5.78c1.18-1.46,2.72-2.44,4.53-2.99c2.09-0.7,4.25-0.77,6.41-0.35
			c1.39,0.28,2.65,0.91,3.83,1.74c0.07,0.07,0.21,0.07,0.35,0.07c0-0.07,0-0.21-0.07-0.28c-1.46-1.39-3.06-2.51-5.01-3.06
			c-0.91-0.28-1.88-0.42-2.79-0.63l-1.46-0.07c-0.07,0-0.07,0.07-0.14,0.07c-2.09,0.07-3.97,0.63-5.78,1.67
			c-1.95,1.11-3.55,2.65-4.67,4.53c-1.39,2.37-1.95,4.94-1.53,7.66c0.14,1.11,0.56,2.23,1.11,3.2c0.77,1.32,1.88,2.72,2.92,3.34
			C125.48,277.23,125.76,277.37,126.18,277.58"/>
	</g>
	<g>
		<path class="st50" d="M145.82,269.01c0.07-2.99-1.11-5.57-3.34-7.52c-2.44-2.16-5.36-2.92-8.56-2.51
			c-2.23,0.28-4.18,1.11-5.78,2.72c-0.14,0.07-0.21,0.21-0.28,0.35c0,0.07,0.07,0.07,0.07,0.14c0.14-0.07,0.21-0.07,0.35-0.14
			c1.81-1.25,3.83-1.74,6.06-1.46c2.72,0.35,4.73,1.74,6.2,4.04c1.39,2.23,1.53,4.6,0.91,7.1c-0.84,3.34-2.85,5.78-6.06,7.03
			c-2.02,0.84-4.11,1.04-6.27,0.7c-1.46-0.28-2.85-0.77-4.04-1.6c-0.14-0.07-0.56-0.49-0.7-0.42c-0.07,0-0.14,0.07-0.28,0.14
			c0.07,0.07,0.14,0.21,0.21,0.21c2.02,1.88,4.39,3.13,7.17,3.48c2.79,0.35,5.43-0.07,7.87-1.46
			C143.45,277.37,145.75,273.82,145.82,269.01"/>
	</g>
	<g>
		<path class="st51" d="M137.25,268.66c-1.39,1.32-2.72,2.51-4.11,3.76c-0.07,0.07-0.42,0-0.49-0.07c-0.91-0.97-1.81-1.95-2.72-2.85
			c-0.28-0.35-0.63-0.63-0.97-1.04c0.14-0.14,0.28-0.28,0.42-0.42c1.18-1.11,2.37-2.23,3.48-3.34c0.21-0.21,0.35-0.21,0.49,0
			c0.91,0.97,1.81,1.95,2.79,2.92C136.49,267.97,136.83,268.31,137.25,268.66"/>
	</g>
</g>
<g>
	<circle class="st52" cx="197.55" cy="269.92" r="1.39"/>
	<line class="st53" x1="198.39" y1="269.15" x2="196.79" y2="270.75"/>
	<line class="st53" x1="196.85" y1="269.22" x2="198.32" y2="270.68"/>
</g>
<g>
	<ellipse transform="matrix(0.6 -0.8 0.8 0.6 -156.6842 257.1107)" class="st52" cx="178.76" cy="285.24" rx="1.39" ry="1.39"/>
	<line class="st53" x1="179.59" y1="284.47" x2="177.99" y2="286.07"/>
	<line class="st53" x1="178.05" y1="284.54" x2="179.52" y2="286"/>
</g>
<g>
	<circle class="st52" cx="159.25" cy="308.91" r="1.39"/>
	<line class="st53" x1="160.09" y1="308.14" x2="158.49" y2="309.74"/>
	<line class="st53" x1="158.56" y1="308.21" x2="160.02" y2="309.67"/>
</g>
<g>
	<circle class="st52" cx="70.13" cy="267.83" r="1.39"/>
	<line class="st53" x1="69.36" y1="267.06" x2="70.96" y2="268.66"/>
	<line class="st53" x1="70.89" y1="267.13" x2="69.43" y2="268.59"/>
</g>
<g>
	<circle class="st52" cx="90.32" cy="284.54" r="1.39"/>
	<line class="st53" x1="89.56" y1="283.77" x2="91.16" y2="285.37"/>
	<line class="st53" x1="91.09" y1="283.84" x2="89.63" y2="285.3"/>
</g>
<g>
	<circle class="st52" cx="111.91" cy="309.61" r="1.39"/>
	<line class="st53" x1="111.14" y1="308.84" x2="112.74" y2="310.44"/>
	<line class="st53" x1="112.67" y1="308.91" x2="111.21" y2="310.37"/>
</g>
<circle class="st54" cx="135.16" cy="147.02" r="105.49"/>
<g>
	<path class="st55" d="M197.69,109.91c-12.53-25-43.45-34.26-65.1-36.49c0,0-22.35-3.13-18.94,7.1c0,0,7.1,11.63-13.72,7.73
		c-26.53-5.01-45.19,43.94-39.69,73.04c5.29,28.27,37.74,48.74,91.7,41.08c5.5-0.77,26.67-5.78,35.79-11.91
		C225.82,164.71,208.13,130.8,197.69,109.91z"/>
	<g>
		<path class="st56" d="M179.59,128.57c-1.11-0.7-2.58-0.42-3.34,0.7l-3.76,5.78c-0.7,1.11-0.42,2.58,0.7,3.34
			c0.56,0.35,1.18,0.49,1.81,0.35c0.63-0.14,1.18-0.49,1.53-1.04l3.76-5.78C181.05,130.8,180.7,129.26,179.59,128.57z"/>
	</g>
	<g>
		<path class="st56" d="M186.55,130.38c-1.11-0.7-2.58-0.42-3.34,0.7l-3.76,5.78c-0.7,1.11-0.42,2.58,0.7,3.34
			c0.56,0.35,1.18,0.49,1.81,0.35c0.63-0.14,1.18-0.49,1.53-1.04l3.76-5.78C188.01,132.54,187.66,131.08,186.55,130.38z"/>
	</g>
	<g>
		<path class="st56" d="M91.23,132.89c-1.11-0.7-2.58-0.42-3.34,0.7l-3.76,5.78c-0.7,1.11-0.42,2.58,0.7,3.34
			c0.56,0.35,1.18,0.49,1.81,0.35c0.63-0.14,1.18-0.49,1.53-1.04l3.76-5.78C92.62,135.04,92.34,133.58,91.23,132.89z"/>
	</g>
	<g>
		<path class="st56" d="M98.19,134.63c-1.11-0.7-2.58-0.42-3.34,0.7l-3.76,5.78c-0.7,1.11-0.42,2.58,0.7,3.34
			c0.56,0.35,1.18,0.49,1.81,0.35c0.63-0.14,1.18-0.49,1.53-1.04l3.76-5.78C99.58,136.85,99.3,135.39,98.19,134.63z"/>
	</g>
	<path class="st57" d="M129.73,164.15c0,0,1.53,16.01,12.53,14.2c11.07-1.81,8.84-15.46,8.84-19.08c0-3.62-10.93-8.63-10.93-8.63
		L129.73,164.15z"/>
	<g>
		<path class="st56" d="M173.74,144.44c-2.92-3.2-7.45-4.6-11.63-5.08c-6.89-0.77-14.13,1.53-19.36,6.2
			c-1.53,1.39-2.37,3.13-2.58,5.08c-0.42-0.97-1.04-1.88-1.67-2.72c-5.08-6.34-14-8.84-21.86-8.29c-5.92,0.42-12.88,1.67-17.55,5.78
			c-0.07,0.07-0.14,0.07-0.14,0.14c-3.83,3.48-5.5,9.68-2.23,14.13c2.3,3.06,6.61,4.67,10.17,5.64c8.29,2.37,18.73,3.34,26.6-0.84
			c2.58-1.32,4.8-3.34,6.2-5.85c0.63-1.11,1.04-2.3,1.18-3.48c1.11,2.37,3.48,3.62,5.99,4.32c5.92,1.74,12.6,2.37,18.66,0.84
			C172.14,158.65,179.93,151.2,173.74,144.44z"/>
	</g>
	<g>
		<path class="st58" d="M142.75,154.26c2.99-0.97,7.31-3.62,7.1-8.43c-0.28-7.73-11-9.54-16.43-8.84
			c-6.27,0.84-11.63,7.03-10.44,12.88c1.04,4.94,7.87,5.64,12.88,5.64C135.93,155.51,139.76,155.31,142.75,154.26z"/>
	</g>
	<g>
		<path class="st58" d="M111.28,137.48L111.28,137.48c-4.25-0.35-7.38-4.11-7.03-8.29l0,0c0.35-4.25,4.11-7.38,8.29-7.03l0,0
			c4.25,0.35,7.38,4.11,7.03,8.29l0,0C119.29,134.7,115.53,137.83,111.28,137.48z"/>
	</g>
	<g>
		<path class="st58" d="M158.7,136.65L158.7,136.65c-4.25-0.35-7.38-4.11-7.03-8.29l0,0c0.35-4.25,4.11-7.38,8.29-7.03l0,0
			c4.25,0.35,7.38,4.11,7.03,8.29l0,0C166.64,133.79,162.95,136.99,158.7,136.65z"/>
	</g>
	
		<ellipse transform="matrix(0.0822 -0.9966 0.9966 0.0822 27.5583 252.3542)" class="st58" cx="150.79" cy="111.21" rx="3.41" ry="5.22"/>
	
		<ellipse transform="matrix(0.0822 -0.9966 0.9966 0.0822 -5.5369 217.3633)" class="st58" cx="115.25" cy="111.69" rx="3.41" ry="5.22"/>
	<g>
		<path class="st56" d="M152.01,179.19c-1.18-0.14-2.23,0.77-2.37,1.95c-0.14,1.46-3.55,3.13-5.78,3.69
			c-4.53,1.04-8.29-0.21-9.33-0.77c-0.42-0.56-1.04-0.91-1.74-0.84c-1.18,0-2.16,1.04-2.09,2.23c0,0.56,0.21,1.32,1.11,1.95
			c1.88,1.46,7.38,2.99,13.16,1.67c0.14,0,0.42-0.14,0.84-0.28c2.23-0.7,7.8-2.85,8.22-7.24
			C154.03,180.3,153.2,179.26,152.01,179.19z M135.02,185.32L135.02,185.32L135.02,185.32z"/>
	</g>
</g>
<path class="st59" d="M44.37,127.18c9.05-7.66,16.71-39.69,86.34-40.39s97.48,38.99,97.48,38.99l9.05-16.71l-40.39-50.13
	l-90.52,7.66L49.8,88.39l-13.09,29.73L44.37,127.18z"/>
<g>
	<path class="st60" d="M128.55,253.9c-22.14,0-44.42-12.6-62.88-24.23c-17.06-10.79-29.24-38.92-33.42-52.92l21.03-3.55
		c6.27,21.24,39.13,44.63,76.17,44.15c20.96-0.21,42.13-5.08,58.07-13.3c12.32-6.34,27.36-17.83,28.62-36.35l21.59,0.84
		c-1.39,19.98-17.83,45.89-38.02,62.95c-17.48,14.76-44.84,22.14-69.91,22.42C129.38,253.9,128.97,253.9,128.55,253.9z"/>
</g>
<g>
	<path class="st4" d="M42.97,120.49c0,0,6.48-40.87,93.3-40.87s88.29,37.25,88.29,37.25s-22.98,73.88,7.87,72.48
		c30.85-1.46,27.99-48.81,18.66-73.18s-31.54-89.68-116.21-88.99S20.76,92.5,17.21,123.35s-2.92,73.95,19.36,73.95
		S61.63,157.81,42.97,120.49z"/>
	<path class="st6" d="M36.57,197.64c-4.53,0-8.43-1.81-11.56-5.29c-5.08-5.64-8.15-15.81-9.26-30.08c-1.11-14.2,0-29.04,1.18-38.92
		c1.81-15.74,10.24-39.62,28.48-59.6c21.79-23.81,52.78-36.56,89.54-36.9c82.44-0.7,105.7,60.72,115.65,86.97l0.84,2.23
		c6.27,16.43,10.37,46.86-0.14,63.08c-4.32,6.61-10.65,10.17-18.8,10.58c-4.94,0.21-8.84-1.46-11.56-5.01
		c-5.29-6.82-6.34-20.33-3.06-40.18c2.3-14.2,6.13-26.74,6.41-27.71c-0.07-0.77-0.97-9.61-11.49-18.38
		c-10.17-8.43-31.75-18.52-76.45-18.52c-24.72,0-58.49,3.55-78.96,20.33c-11.56,9.47-13.72,19.01-13.93,20.12
		c12.95,25.97,16.08,55.01,7.45,69C47.43,194.79,42.56,197.64,36.57,197.64z M136.21,27.54c-0.42,0-0.91,0-1.32,0
		C98.33,27.81,67.55,40.49,45.9,64.23c-18.17,19.84-26.53,43.59-28.34,59.19c-1.39,12.39-5.08,53.89,7.94,68.52
		c2.99,3.34,6.75,5.08,11.07,5.08c5.78,0,10.37-2.65,13.58-7.87c8.56-13.86,5.43-42.61-7.52-68.45l-0.07-0.07v-0.14
		c0-0.07,1.81-10.44,14.2-20.68c11.42-9.33,34.47-20.54,79.45-20.54c24.79,0,58.28,3.27,76.94,18.73
		c11.21,9.33,11.7,18.52,11.7,18.87v0.07v0.07c-0.14,0.49-15.81,51.39-3.48,67.33c2.58,3.34,6.27,4.94,11,4.73
		c7.87-0.35,14.07-3.83,18.24-10.24c6.27-9.61,10.44-35.37,0.07-62.46l-0.84-2.23C240.09,88.11,217.05,27.54,136.21,27.54z"/>
</g>
<g>
	<g>
		<g>
			<g>
				<g>
					<defs>
						<path id="SVGID_29_" d="M42.97,120.49c0,0,6.48-40.87,93.3-40.87s88.29,37.25,88.29,37.25s-22.98,73.88,7.87,72.48
							c30.85-1.46,27.99-48.81,18.66-73.18s-31.54-89.68-116.21-88.99S20.76,92.5,17.21,123.35s-2.92,73.95,19.36,73.95
							S61.63,157.81,42.97,120.49z"/>
					</defs>
					<clipPath id="SVGID_30_">
						<use xlink:href="#SVGID_29_"  style="overflow:visible;"/>
					</clipPath>
					<g class="st61">
						<g>
							<g>
								<path class="st16" d="M64.63,32.9c-2.3,11.21,0.14,22.77,5.29,32.8C75.28,76,83.5,84.49,92.55,91.53
									c5.15,4.04,10.65,7.66,16.22,11.07c1.18,0.7,2.23-1.11,1.04-1.81c-9.61-5.92-18.94-12.39-26.74-20.54
									c-7.66-8.01-13.65-17.69-16.15-28.62c-1.39-5.99-1.6-12.25-0.35-18.24C66.93,32.13,64.91,31.57,64.63,32.9L64.63,32.9z"/>
							</g>
						</g>
						<g>
							<g>
								<path class="st16" d="M206.39,33.45c2.23,10.79-0.28,22.07-5.36,31.75c-5.22,9.96-13.23,18.1-22.07,24.93
									c-5.01,3.9-10.37,7.38-15.81,10.72c-1.11,0.7-0.07,2.51,1.04,1.81c9.89-6.06,19.57-12.81,27.57-21.31
									c7.87-8.29,14-18.38,16.43-29.66c1.32-6.2,1.46-12.6,0.21-18.8C208.13,31.57,206.12,32.13,206.39,33.45L206.39,33.45z"/>
							</g>
						</g>
					</g>
				</g>
			</g>
		</g>
	</g>
</g>
<g>
	<path class="st10" d="M262.45,126.06c-3.76-2.02-3.62-4.87-14.13-5.29c-7.1-0.28-13.37,12.88-14.07,29.45
		c-0.63,16.5,4.6,30.15,11.7,30.43c8.56,0.35,9.05-1.6,13.58-3.41C264.26,175.36,266.28,128.01,262.45,126.06z"/>
	
		<ellipse transform="matrix(0.0385 -0.9993 0.9993 0.0385 97.7406 403.8419)" class="st50" cx="258.72" cy="151.13" rx="25.97" ry="11.21"/>
	<pattern  id="SVGID_33_" xlink:href="#SVGID_43_" patternTransform="matrix(1.0761 0.0415 -0.0415 1.0761 3486.314 38622.4453)">
	</pattern>
	<path class="st62" d="M269.97,151.55c-0.56,14.34-5.99,25.76-12.19,25.55c-6.2-0.21-10.72-12.05-10.17-26.39
		c0.56-14.34,5.99-25.76,12.19-25.55C265.93,125.37,270.52,137.2,269.97,151.55z"/>
	<g>
		<path class="st63" d="M259.59,125.16v4.53c0.56,0,2.16,1.25,3.62,5.01c1.67,4.39,2.51,10.44,2.3,16.71
			c-0.56,14.62-5.92,21.24-7.52,21.24c-1.74-0.07-6.41-7.66-5.85-21.72c0.56-14.62,5.92-21.24,7.52-21.24L259.59,125.16
			 M259.59,125.16c-6.13,0-11.42,11.35-11.98,25.55c-0.56,14.34,4.04,26.18,10.17,26.39c0.07,0,0.14,0,0.21,0
			c6.13,0,11.42-11.35,11.98-25.55c0.56-14.34-4.04-26.18-10.17-26.39C259.73,125.16,259.66,125.16,259.59,125.16L259.59,125.16z"/>
	</g>
</g>
<g>
	<path class="st10" d="M15.96,184.06c4.04,1.39,4.32,4.25,14.76,2.92c7.03-0.91,11.14-14.9,9.12-31.33s-9.4-29.04-16.43-28.13
		c-8.49,1.04-8.63,3.06-12.88,5.57C6.28,135.67,11.92,182.74,15.96,184.06z"/>
	
		<ellipse transform="matrix(0.9925 -0.1225 0.1225 0.9925 -19.3259 3.0989)" class="st50" cx="15.54" cy="158.72" rx="11.21" ry="25.97"/>
	<pattern  id="SVGID_34_" xlink:href="#SVGID_44_" patternTransform="matrix(1.0688 -0.1319 0.1319 1.0688 3942.2578 37184.1094)">
	</pattern>
	<path class="st64" d="M4.47,160.11c-1.74-14.27,1.81-26.39,7.94-27.16s12.53,10.17,14.27,24.44c1.74,14.27-1.81,26.39-7.94,27.16
		C12.62,185.25,6.21,174.31,4.47,160.11z"/>
	<g>
		<path class="st63" d="M12.96,137.34L12.96,137.34c0.49,0,2.3,0.91,4.53,4.8c2.3,4.11,3.97,9.68,4.73,15.74
			c1.74,14-2.3,21.93-4.04,22.14c0,0,0,0-0.07,0c-0.49,0-2.3-0.91-4.53-4.8c-2.3-4.11-3.97-9.68-4.73-15.74
			C7.18,145.56,11.22,137.55,12.96,137.34L12.96,137.34 M12.96,132.89c-0.21,0-0.42,0-0.63,0.07c-6.13,0.77-9.68,12.95-7.94,27.16
			c1.67,13.79,7.73,24.51,13.72,24.51c0.21,0,0.42,0,0.63-0.07c6.13-0.77,9.68-12.95,7.94-27.16
			C24.94,143.54,18.95,132.89,12.96,132.89L12.96,132.89z"/>
	</g>
</g>
<g>
	<g>
		<path class="st65" d="M135.44,36.68c-3.59,0-6.5-2.91-6.5-6.5V14.86c0-3.59,2.91-6.5,6.5-6.5s6.5,2.91,6.5,6.5v15.32
			C141.94,33.77,139.03,36.68,135.44,36.68z"/>
	</g>
	<g>
		<circle class="st66" cx="135.09" cy="12.08" r="11.84"/>
	</g>
	<g>
		<g>
			<g>
				<path class="st4" d="M136.49,5.81c0.49,0.07,1.04,0.28,1.53,0.49c-0.14-0.07-0.35-0.14-0.49-0.21c0.56,0.28,1.11,0.56,1.67,0.97
					c-0.14-0.14-0.28-0.21-0.42-0.35c0.56,0.42,0.97,0.91,1.39,1.39c-0.14-0.14-0.21-0.28-0.35-0.42c0.28,0.42,0.56,0.84,0.77,1.25
					c0.21,0.42,0.77,0.84,1.25,0.97c0.49,0.14,1.18,0.07,1.6-0.21c0.42-0.28,0.84-0.7,0.97-1.25c0.14-0.56,0.07-1.11-0.21-1.6
					c-1.25-2.58-3.83-4.53-6.61-5.08c-0.56-0.14-1.11-0.07-1.6,0.21c-0.42,0.28-0.84,0.77-0.97,1.25c-0.14,0.56-0.07,1.11,0.21,1.6
					C135.51,5.25,135.93,5.67,136.49,5.81L136.49,5.81z"/>
			</g>
		</g>
	</g>
	<g>
		<g>
			<g>
				<path class="st4" d="M141.22,14.72c0,0.07,0.07,0.07,0.07,0.14c-0.07-0.14-0.14-0.35-0.21-0.49c0.07,0.21,0.14,0.42,0.21,0.7
					c0-0.21-0.07-0.35-0.07-0.56c0,0.28,0,0.49,0,0.77C141.22,15.07,141.22,14.86,141.22,14.72c0,0.21-0.07,0.42-0.14,0.63
					c0.07-0.14,0.14-0.35,0.21-0.49c-0.07,0.14-0.14,0.21-0.14,0.35c-0.14,0.21-0.21,0.49-0.28,0.77s-0.07,0.56,0.07,0.84
					c0.07,0.28,0.21,0.49,0.35,0.7c0.14,0.21,0.35,0.42,0.56,0.56c0.49,0.28,1.04,0.42,1.6,0.21c0.49-0.14,0.97-0.49,1.25-0.97
					c0.07-0.07,0.14-0.21,0.14-0.28c0.14-0.28,0.21-0.49,0.35-0.77c0-0.14,0.07-0.21,0.07-0.35c0.07-0.28,0.07-0.56,0.14-0.91
					c0-0.14,0-0.21,0-0.35c0-0.28-0.07-0.56-0.14-0.84c-0.07-0.42-0.28-0.77-0.42-1.11c-0.14-0.21-0.28-0.42-0.56-0.56
					c-0.21-0.21-0.42-0.28-0.7-0.35s-0.56-0.07-0.84-0.07c-0.28,0-0.56,0.07-0.77,0.28c-0.42,0.28-0.84,0.7-0.97,1.25
					c0,0.21-0.07,0.35-0.07,0.56C140.94,14.03,141.01,14.45,141.22,14.72L141.22,14.72z"/>
			</g>
		</g>
	</g>
</g>
<g class="st67">
	<path class="st4" d="M196.58,146.81c-3.13-16.78-11.63-32.45-24.09-44.15l13.86-14.62c15.46,14.62,26.18,34.19,30.01,55.15
		L196.58,146.81z"/>
</g>
<g>
	<circle class="st68" cx="26.26" cy="131.35" r="1.39"/>
	<line class="st13" x1="27.45" y1="131.35" x2="25.15" y2="131.42"/>
	<line class="st13" x1="26.26" y1="130.38" x2="26.33" y2="132.4"/>
</g>
<g>
	<circle class="st68" cx="36.71" cy="152.94" r="1.39"/>
	<line class="st13" x1="37.89" y1="152.94" x2="35.59" y2="153.01"/>
	<line class="st13" x1="36.71" y1="151.96" x2="36.78" y2="153.98"/>
</g>
<g>
	<circle class="st68" cx="34.62" cy="180.09" r="1.39"/>
	<line class="st13" x1="35.8" y1="180.09" x2="33.5" y2="180.16"/>
	<line class="st13" x1="34.62" y1="179.12" x2="34.69" y2="181.14"/>
</g>
<g>
	<circle class="st68" cx="247.68" cy="123.69" r="1.39"/>
	<line class="st13" x1="248.87" y1="123.69" x2="246.57" y2="123.76"/>
	<line class="st13" x1="247.68" y1="122.72" x2="247.75" y2="124.74"/>
</g>
<g>
	<circle class="st68" cx="237.24" cy="148.06" r="1.39"/>
	<line class="st13" x1="238.42" y1="148.06" x2="236.13" y2="148.13"/>
	<line class="st13" x1="237.24" y1="147.09" x2="237.31" y2="149.11"/>
</g>
<g>
	<circle class="st68" cx="244.2" cy="177.31" r="1.39"/>
	<line class="st13" x1="245.39" y1="177.31" x2="243.09" y2="177.38"/>
	<line class="st13" x1="244.2" y1="176.33" x2="244.27" y2="178.35"/>
</g>
<g>
	<g>
		<g>
			<g>
				<g>
					<defs>
						<path id="SVGID_35_" d="M60.66,271.1c-1.32-0.28-2.51,0.91-2.37,2.23c1.18,10.17,3.13,21.31,6.27,33.21
							c0,0,6.96,23.47,18.45,40.25c0,0,3.62,4.32,10.93,0.84c0,0,2.99-1.74-2.51-5.29c0,0,8.01-19.22,10.65-25.48
							c0.56-1.25,0.56-2.72-0.07-3.97C94.15,295.47,77.72,274.37,60.66,271.1z"/>
					</defs>
					<clipPath id="SVGID_36_">
						<use xlink:href="#SVGID_35_"  style="overflow:visible;"/>
					</clipPath>
					<g class="st69">
						<circle class="st10" cx="63.17" cy="274.79" r="1.39"/>
						<line class="st13" x1="62.4" y1="274.02" x2="64" y2="275.63"/>
						<line class="st13" x1="63.93" y1="274.09" x2="62.47" y2="275.56"/>
					</g>
				</g>
			</g>
		</g>
	</g>
	<g>
		<g>
			<g>
				<g>
					<defs>
						<path id="SVGID_37_" d="M60.66,271.1c-1.32-0.28-2.51,0.91-2.37,2.23c1.18,10.17,3.13,21.31,6.27,33.21
							c0,0,6.96,23.47,18.45,40.25c0,0,3.62,4.32,10.93,0.84c0,0,2.99-1.74-2.51-5.29c0,0,8.01-19.22,10.65-25.48
							c0.56-1.25,0.56-2.72-0.07-3.97C94.15,295.47,77.72,274.37,60.66,271.1z"/>
					</defs>
					<clipPath id="SVGID_38_">
						<use xlink:href="#SVGID_37_"  style="overflow:visible;"/>
					</clipPath>
					<g class="st70">
						<circle class="st10" cx="84.05" cy="290.11" r="1.39"/>
						<line class="st13" x1="83.29" y1="289.34" x2="84.89" y2="290.94"/>
						<line class="st13" x1="84.82" y1="289.41" x2="83.36" y2="290.87"/>
					</g>
				</g>
			</g>
		</g>
	</g>
	<g>
		<g>
			<g>
				<g>
					<defs>
						<path id="SVGID_39_" d="M60.66,271.1c-1.32-0.28-2.51,0.91-2.37,2.23c1.18,10.17,3.13,21.31,6.27,33.21
							c0,0,6.96,23.47,18.45,40.25c0,0,3.62,4.32,10.93,0.84c0,0,2.99-1.74-2.51-5.29c0,0,8.01-19.22,10.65-25.48
							c0.56-1.25,0.56-2.72-0.07-3.97C94.15,295.47,77.72,274.37,60.66,271.1z"/>
					</defs>
					<clipPath id="SVGID_40_">
						<use xlink:href="#SVGID_39_"  style="overflow:visible;"/>
					</clipPath>
					<g class="st71">
						<circle class="st10" cx="99.37" cy="313.78" r="1.39"/>
						<line class="st13" x1="98.61" y1="313.02" x2="100.21" y2="314.62"/>
						<line class="st13" x1="100.14" y1="313.09" x2="98.68" y2="314.55"/>
					</g>
				</g>
			</g>
		</g>
	</g>
	<g>
		<g>
			<g>
				<g>
					<defs>
						<path id="SVGID_41_" d="M60.66,271.1c-1.32-0.28-2.51,0.91-2.37,2.23c1.18,10.17,3.13,21.31,6.27,33.21
							c0,0,6.96,23.47,18.45,40.25c0,0,3.62,4.32,10.93,0.84c0,0,2.99-1.74-2.51-5.29c0,0,8.01-19.22,10.65-25.48
							c0.56-1.25,0.56-2.72-0.07-3.97C94.15,295.47,77.72,274.37,60.66,271.1z"/>
					</defs>
					<clipPath id="SVGID_42_">
						<use xlink:href="#SVGID_41_"  style="overflow:visible;"/>
					</clipPath>
					<g class="st72">
						<g>
							<path class="st16" d="M65.67,270.26c-0.63,10.17,0.63,20.4,3.76,30.08c0.42,1.25,2.44,0.7,2.02-0.56
								c-3.06-9.54-4.32-19.57-3.69-29.52C67.83,268.94,65.74,268.94,65.67,270.26L65.67,270.26z"/>
						</g>
					</g>
				</g>
			</g>
		</g>
	</g>
	<g>
		<g>
			<g>
				<g>
					<defs>
						<path id="SVGID_45_" d="M60.66,271.1c-1.32-0.28-2.51,0.91-2.37,2.23c1.18,10.17,3.13,21.31,6.27,33.21
							c0,0,6.96,23.47,18.45,40.25c0,0,3.62,4.32,10.93,0.84c0,0,2.99-1.74-2.51-5.29c0,0,8.01-19.22,10.65-25.48
							c0.56-1.25,0.56-2.72-0.07-3.97C94.15,295.47,77.72,274.37,60.66,271.1z"/>
					</defs>
					<clipPath id="SVGID_46_">
						<use xlink:href="#SVGID_45_"  style="overflow:visible;"/>
					</clipPath>
					<g class="st73">
						<g>
							<path class="st16" d="M70.62,301.53c1.88-0.56,3.97,0.42,5.01,2.02c1.18,1.74,1.39,4.11,0.84,6.13
								c-0.63,2.3-2.85,3.2-5.01,3.62c-2.3,0.49-4.67,0.21-6.82-0.7c-0.49-0.21-1.11,0.21-1.25,0.7c-0.14,0.63,0.21,1.04,0.7,1.25
								c2.09,0.84,4.39,1.18,6.68,0.91c2.16-0.28,4.53-0.97,6.13-2.44c1.6-1.53,2.09-3.97,1.95-6.06c-0.14-2.09-0.84-4.25-2.37-5.71
								c-1.67-1.6-4.11-2.44-6.34-1.74C68.81,299.86,69.29,301.88,70.62,301.53L70.62,301.53z"/>
						</g>
					</g>
				</g>
			</g>
		</g>
	</g>
	<g>
		<g>
			<g>
				<g>
					<defs>
						<path id="SVGID_47_" d="M60.66,271.1c-1.32-0.28-2.51,0.91-2.37,2.23c1.18,10.17,3.13,21.31,6.27,33.21
							c0,0,6.96,23.47,18.45,40.25c0,0,3.62,4.32,10.93,0.84c0,0,2.99-1.74-2.51-5.29c0,0,8.01-19.22,10.65-25.48
							c0.56-1.25,0.56-2.72-0.07-3.97C94.15,295.47,77.72,274.37,60.66,271.1z"/>
					</defs>
					<clipPath id="SVGID_48_">
						<use xlink:href="#SVGID_47_"  style="overflow:visible;"/>
					</clipPath>
					<g class="st74">
						<g>
							<path class="st16" d="M76.95,310.72c9.68,4.6,17.89,11.98,23.53,21.17c0.7,1.11,2.51,0.07,1.81-1.04
								c-5.78-9.47-14.27-17.13-24.3-21.93C76.74,308.35,75.7,310.16,76.95,310.72L76.95,310.72z"/>
						</g>
					</g>
				</g>
			</g>
		</g>
	</g>
	<g>
		<g>
			<g>
				<g>
					<defs>
						<path id="SVGID_49_" d="M60.66,271.1c-1.32-0.28-2.51,0.91-2.37,2.23c1.18,10.17,3.13,21.31,6.27,33.21
							c0,0,6.96,23.47,18.45,40.25c0,0,3.62,4.32,10.93,0.84c0,0,2.99-1.74-2.51-5.29c0,0,8.01-19.22,10.65-25.48
							c0.56-1.25,0.56-2.72-0.07-3.97C94.15,295.47,77.72,274.37,60.66,271.1z"/>
					</defs>
					<clipPath id="SVGID_50_">
						<use xlink:href="#SVGID_49_"  style="overflow:visible;"/>
					</clipPath>
					<circle class="st75" cx="69.85" cy="307.79" r="8.7"/>
				</g>
			</g>
		</g>
	</g>
	<g>
		<g>
			<g>
				<g>
					<defs>
						<path id="SVGID_51_" d="M60.66,271.1c-1.32-0.28-2.51,0.91-2.37,2.23c1.18,10.17,3.13,21.31,6.27,33.21
							c0,0,6.96,23.47,18.45,40.25c0,0,3.62,4.32,10.93,0.84c0,0,2.99-1.74-2.51-5.29c0,0,8.01-19.22,10.65-25.48
							c0.56-1.25,0.56-2.72-0.07-3.97C94.15,295.47,77.72,274.37,60.66,271.1z"/>
					</defs>
					<clipPath id="SVGID_52_">
						<use xlink:href="#SVGID_51_"  style="overflow:visible;"/>
					</clipPath>
					<circle class="st76" cx="69.85" cy="307.79" r="5.92"/>
				</g>
			</g>
		</g>
	</g>
	<g>
		<g>
			<g>
				<g>
					<defs>
						<path id="SVGID_53_" d="M60.66,271.1c-1.32-0.28-2.51,0.91-2.37,2.23c1.18,10.17,3.13,21.31,6.27,33.21
							c0,0,6.96,23.47,18.45,40.25c0,0,3.62,4.32,10.93,0.84c0,0,2.99-1.74-2.51-5.29c0,0,8.01-19.22,10.65-25.48
							c0.56-1.25,0.56-2.72-0.07-3.97C94.15,295.47,77.72,274.37,60.66,271.1z"/>
					</defs>
					<clipPath id="SVGID_54_">
						<use xlink:href="#SVGID_53_"  style="overflow:visible;"/>
					</clipPath>
					<g class="st77">
						<circle class="st10" cx="69.85" cy="307.79" r="3.41"/>
						<line class="st78" x1="67.9" y1="305.85" x2="71.8" y2="309.81"/>
						<line class="st78" x1="71.66" y1="306.05" x2="68.11" y2="309.61"/>
					</g>
				</g>
			</g>
		</g>
	</g>
</g>
<g>
	<g>
		<g>
			<g>
				<g>
					<defs>
						<path id="SVGID_55_" d="M169.35,315.66c2.65,6.2,9.75,22.77,12.88,26.81c0,0-5.22,0.63-2.72,3.83c0,0,5.57,3.48,10.51,0.42
							c0,0,11.35-20.26,14.9-44.01c0,0,1.88-5.99,2.85-29.45c0.07-1.39-1.32-2.44-2.65-2.02c-14.83,5.15-28.69,23.95-35.86,39.9
							C168.79,312.6,168.79,314.27,169.35,315.66z"/>
					</defs>
					<clipPath id="SVGID_56_">
						<use xlink:href="#SVGID_55_"  style="overflow:visible;"/>
					</clipPath>
					<g class="st79">
						<circle class="st10" cx="205.63" cy="273.4" r="1.39"/>
						<line class="st13" x1="206.39" y1="272.49" x2="204.86" y2="274.23"/>
						<line class="st13" x1="204.86" y1="272.7" x2="206.39" y2="274.09"/>
					</g>
				</g>
			</g>
		</g>
	</g>
	<g>
		<g>
			<g>
				<g>
					<defs>
						<path id="SVGID_57_" d="M169.35,315.66c2.65,6.2,9.75,22.77,12.88,26.81c0,0-5.22,0.63-2.72,3.83c0,0,5.57,3.48,10.51,0.42
							c0,0,11.35-20.26,14.9-44.01c0,0,1.88-5.99,2.85-29.45c0.07-1.39-1.32-2.44-2.65-2.02c-14.83,5.15-28.69,23.95-35.86,39.9
							C168.79,312.6,168.79,314.27,169.35,315.66z"/>
					</defs>
					<clipPath id="SVGID_58_">
						<use xlink:href="#SVGID_57_"  style="overflow:visible;"/>
					</clipPath>
					<g class="st80">
						<circle class="st10" cx="185.51" cy="289.69" r="1.39"/>
						<line class="st13" x1="186.27" y1="288.79" x2="184.74" y2="290.53"/>
						<line class="st13" x1="184.74" y1="288.99" x2="186.27" y2="290.39"/>
					</g>
				</g>
			</g>
		</g>
	</g>
	<g>
		<g>
			<g>
				<g>
					<defs>
						<path id="SVGID_59_" d="M169.35,315.66c2.65,6.2,9.75,22.77,12.88,26.81c0,0-5.22,0.63-2.72,3.83c0,0,5.57,3.48,10.51,0.42
							c0,0,11.35-20.26,14.9-44.01c0,0,1.88-5.99,2.85-29.45c0.07-1.39-1.32-2.44-2.65-2.02c-14.83,5.15-28.69,23.95-35.86,39.9
							C168.79,312.6,168.79,314.27,169.35,315.66z"/>
					</defs>
					<clipPath id="SVGID_60_">
						<use xlink:href="#SVGID_59_"  style="overflow:visible;"/>
					</clipPath>
					<g class="st81">
						<circle class="st10" cx="171.3" cy="314.06" r="1.39"/>
						<line class="st13" x1="172.07" y1="313.16" x2="170.53" y2="314.9"/>
						<line class="st13" x1="170.53" y1="313.37" x2="172.07" y2="314.76"/>
					</g>
				</g>
			</g>
		</g>
	</g>
	<g>
		<g>
			<g>
				<g>
					<defs>
						<path id="SVGID_61_" d="M169.35,315.66c2.65,6.2,9.75,22.77,12.88,26.81c0,0-5.22,0.63-2.72,3.83c0,0,5.57,3.48,10.51,0.42
							c0,0,11.35-20.26,14.9-44.01c0,0,1.88-5.99,2.85-29.45c0.07-1.39-1.32-2.44-2.65-2.02c-14.83,5.15-28.69,23.95-35.86,39.9
							C168.79,312.6,168.79,314.27,169.35,315.66z"/>
					</defs>
					<clipPath id="SVGID_62_">
						<use xlink:href="#SVGID_61_"  style="overflow:visible;"/>
					</clipPath>
					<g class="st82">
						<g>
							<path class="st16" d="M200.82,269.01c1.11,9.96,0.35,19.98-2.23,29.66c-0.35,1.32,1.67,1.88,2.02,0.56
								c2.65-9.82,3.41-20.12,2.3-30.22C202.77,267.69,200.68,267.69,200.82,269.01L200.82,269.01z"/>
						</g>
					</g>
				</g>
			</g>
		</g>
	</g>
	<g>
		<g>
			<g>
				<g>
					<defs>
						<path id="SVGID_63_" d="M169.35,315.66c2.65,6.2,9.75,22.77,12.88,26.81c0,0-5.22,0.63-2.72,3.83c0,0,5.57,3.48,10.51,0.42
							c0,0,11.35-20.26,14.9-44.01c0,0,1.88-5.99,2.85-29.45c0.07-1.39-1.32-2.44-2.65-2.02c-14.83,5.15-28.69,23.95-35.86,39.9
							C168.79,312.6,168.79,314.27,169.35,315.66z"/>
					</defs>
					<clipPath id="SVGID_64_">
						<use xlink:href="#SVGID_63_"  style="overflow:visible;"/>
					</clipPath>
					<g class="st83">
						<g>
							<path class="st16" d="M199.99,298.33c-2.09-0.49-4.11,0.14-5.71,1.46c-1.67,1.39-2.51,3.55-2.72,5.64
								c-0.21,2.16,0.28,4.6,1.74,6.27s3.9,2.3,5.99,2.58c2.58,0.35,5.22-0.14,7.52-1.25c1.18-0.56,0.14-2.37-1.04-1.81
								c-2.09,0.97-4.53,1.32-6.75,0.91c-2.09-0.35-4.25-1.18-4.94-3.34c-0.63-1.95-0.56-4.32,0.49-6.13
								c0.97-1.67,2.92-2.79,4.87-2.37C200.68,300.69,201.24,298.67,199.99,298.33L199.99,298.33z"/>
						</g>
					</g>
				</g>
			</g>
		</g>
	</g>
	<g>
		<g>
			<g>
				<g>
					<defs>
						<path id="SVGID_65_" d="M169.35,315.66c2.65,6.2,9.75,22.77,12.88,26.81c0,0-5.22,0.63-2.72,3.83c0,0,5.57,3.48,10.51,0.42
							c0,0,11.35-20.26,14.9-44.01c0,0,1.88-5.99,2.85-29.45c0.07-1.39-1.32-2.44-2.65-2.02c-14.83,5.15-28.69,23.95-35.86,39.9
							C168.79,312.6,168.79,314.27,169.35,315.66z"/>
					</defs>
					<clipPath id="SVGID_66_">
						<use xlink:href="#SVGID_65_"  style="overflow:visible;"/>
					</clipPath>
					<g class="st84">
						<g>
							<path class="st16" d="M192.47,308.14c-9.75,5.22-17.89,13.3-23.26,23.05c-0.63,1.18,1.18,2.23,1.81,1.04
								c5.15-9.4,13.02-17.2,22.49-22.28C194.77,309.26,193.65,307.52,192.47,308.14L192.47,308.14z"/>
						</g>
					</g>
				</g>
			</g>
		</g>
	</g>
	<g>
		<g>
			<g>
				<g>
					<defs>
						<path id="SVGID_67_" d="M169.35,315.66c2.65,6.2,9.75,22.77,12.88,26.81c0,0-5.22,0.63-2.72,3.83c0,0,5.57,3.48,10.51,0.42
							c0,0,11.35-20.26,14.9-44.01c0,0,1.88-5.99,2.85-29.45c0.07-1.39-1.32-2.44-2.65-2.02c-14.83,5.15-28.69,23.95-35.86,39.9
							C168.79,312.6,168.79,314.27,169.35,315.66z"/>
					</defs>
					<clipPath id="SVGID_68_">
						<use xlink:href="#SVGID_67_"  style="overflow:visible;"/>
					</clipPath>
					<circle class="st85" cx="200.55" cy="305.78" r="8.7"/>
				</g>
			</g>
		</g>
	</g>
	<g>
		<g>
			<g>
				<g>
					<defs>
						<path id="SVGID_69_" d="M169.35,315.66c2.65,6.2,9.75,22.77,12.88,26.81c0,0-5.22,0.63-2.72,3.83c0,0,5.57,3.48,10.51,0.42
							c0,0,11.35-20.26,14.9-44.01c0,0,1.88-5.99,2.85-29.45c0.07-1.39-1.32-2.44-2.65-2.02c-14.83,5.15-28.69,23.95-35.86,39.9
							C168.79,312.6,168.79,314.27,169.35,315.66z"/>
					</defs>
					<clipPath id="SVGID_70_">
						<use xlink:href="#SVGID_69_"  style="overflow:visible;"/>
					</clipPath>
					<circle class="st86" cx="200.55" cy="305.78" r="5.92"/>
				</g>
			</g>
		</g>
	</g>
	<g>
		<g>
			<g>
				<g>
					<defs>
						<path id="SVGID_71_" d="M169.35,315.66c2.65,6.2,9.75,22.77,12.88,26.81c0,0-5.22,0.63-2.72,3.83c0,0,5.57,3.48,10.51,0.42
							c0,0,11.35-20.26,14.9-44.01c0,0,1.88-5.99,2.85-29.45c0.07-1.39-1.32-2.44-2.65-2.02c-14.83,5.15-28.69,23.95-35.86,39.9
							C168.79,312.6,168.79,314.27,169.35,315.66z"/>
					</defs>
					<clipPath id="SVGID_72_">
						<use xlink:href="#SVGID_71_"  style="overflow:visible;"/>
					</clipPath>
					<g class="st87">
						<circle class="st10" cx="200.55" cy="305.78" r="3.41"/>
						<line class="st78" x1="198.53" y1="303.83" x2="202.49" y2="307.79"/>
						<line class="st78" x1="202.29" y1="304.03" x2="198.73" y2="307.59"/>
					</g>
				</g>
			</g>
		</g>
	</g>
</g>
<g>
	<path class="st3" d="M43.32,123.87c-0.53,0-1.06-0.1-1.57-0.32c-2.03-0.87-2.97-3.22-2.1-5.25c11.77-27.47,43.85-42.27,92.76-42.81
		c0.92-0.01,1.84-0.02,2.74-0.02c73.22,0,90.23,32.77,92.92,39.42c0.83,2.05-0.16,4.38-2.21,5.21c-2.05,0.83-4.38-0.16-5.21-2.21
		c-1.06-2.63-5.61-11.84-19.46-20.09c-16.49-9.82-39.59-14.64-68.7-14.31c-45.5,0.5-75.06,13.63-85.49,37.96
		C46.35,122.96,44.87,123.87,43.32,123.87z"/>
</g>
<g>
	<g>
		<g>
			<g>
				<g>
					<defs>
						<path id="SVGID_73_" d="M132.8,269.92c-46.79,0-64.41-10.44-72.48-17.55c-0.14,4.39-0.21,8.84,0.07,12.46
							c0.21,2.09,1.74,3.83,3.76,4.32c16.71,3.69,32.66,24.23,40.52,41.29c0.63,1.32,1.95,2.09,3.41,2.02
							c9.68-0.84,45.4-0.56,55.08-0.42c1.46,0,2.79-0.84,3.41-2.16c7.24-16.08,21.17-35.02,36.07-40.04
							c1.53-0.49,2.58-1.95,2.65-3.55c0.07-3.27,0-7.87-0.07-12.88C196.44,260.79,176.38,269.92,132.8,269.92z"/>
					</defs>
					<clipPath id="SVGID_74_">
						<use xlink:href="#SVGID_73_"  style="overflow:visible;"/>
					</clipPath>
					<g class="st88">
						<g>
							<path class="st16" d="M203.12,272.63c0.35-5.71-0.28-11.42-1.81-16.85c-0.35-1.32-2.37-0.77-2.02,0.56
								c1.46,5.29,2.09,10.79,1.74,16.29C200.96,273.95,203.05,273.95,203.12,272.63L203.12,272.63z"/>
						</g>
					</g>
				</g>
			</g>
		</g>
	</g>
	<g>
		<g>
			<g>
				<g>
					<defs>
						<path id="SVGID_75_" d="M132.8,269.92c-46.79,0-64.41-10.44-72.48-17.55c-0.14,4.39-0.21,8.84,0.07,12.46
							c0.21,2.09,1.74,3.83,3.76,4.32c16.71,3.69,32.66,24.23,40.52,41.29c0.63,1.32,1.95,2.09,3.41,2.02
							c9.68-0.84,45.4-0.56,55.08-0.42c1.46,0,2.79-0.84,3.41-2.16c7.24-16.08,21.17-35.02,36.07-40.04
							c1.53-0.49,2.58-1.95,2.65-3.55c0.07-3.27,0-7.87-0.07-12.88C196.44,260.79,176.38,269.92,132.8,269.92z"/>
					</defs>
					<clipPath id="SVGID_76_">
						<use xlink:href="#SVGID_75_"  style="overflow:visible;"/>
					</clipPath>
					<g class="st89">
						<g>
							<path class="st16" d="M67.62,270.75c-0.35-5.29,0-10.65,1.04-15.88c0.28-1.32-1.74-1.88-2.02-0.56
								c-1.04,5.43-1.46,10.93-1.11,16.43C65.6,272.07,67.69,272.07,67.62,270.75L67.62,270.75z"/>
						</g>
					</g>
				</g>
			</g>
		</g>
	</g>
</g>
</svg>
