<?xml version="1.0" encoding="utf-8"?>
<!-- Generator: Adobe Illustrator 23.0.4, SVG Export Plug-In . SVG Version: 6.00 Build 0)  -->
<svg version="1.1" id="Layer_1" xmlns="http://www.w3.org/2000/svg" xmlns:xlink="http://www.w3.org/1999/xlink" x="0px" y="0px"
	 viewBox="0 0 24 25" style="enable-background:new 0 0 24 25;" xml:space="preserve">
<style type="text/css">
	.st0{fill:#1F2532;}
</style>
<title>Maps-Navigation / Earth / earth-3</title>
<desc>Created with Sketch.</desc>
<path class="st0" d="M24,12c0-0.1,0-0.1,0-0.1c-0.1-2.2-0.8-4.3-2-6.1c0-0.1-0.1-0.1-0.1-0.1C21.5,5,21,4.5,20.5,4
	c-2.1-2.1-4.9-3.3-7.9-3.5c0,0-0.1,0-0.1,0c-0.1,0-0.3,0-0.4,0c-0.2,0-0.4,0-0.6,0c0,0,0,0,0,0c0,0,0,0,0,0C7.6,0.6,4.2,2.6,2.1,5.6
	C2,5.7,1.9,5.8,1.9,5.9c-1.1,1.8-1.8,3.8-1.9,6c0,0,0,0,0,0.1c0,0,0,0,0,0c0,0.1,0,0.1,0,0.2C0,18.7,5,24,11.3,24.5
	c0.1,0,0.1,0,0.2,0c0,0,0,0,0.1,0c0.1,0,0.3,0,0.4,0c0.2,0,0.3,0,0.5,0c0,0,0,0,0,0c0,0,0.1,0,0.1,0c3-0.2,5.8-1.4,7.9-3.5
	c2.3-2.3,3.5-5.3,3.5-8.5C24,12.3,24,12.2,24,12C24,12.1,24,12,24,12z M21.8,17.5h-5.3c0.6-1.7,0.9-3.4,0.9-5H23
	C23,14.3,22.6,16,21.8,17.5z M12,23.5c-0.1,0-0.1,0-0.2,0c-1.2-1.7-2.2-3.3-2.9-5h6.2c-0.7,1.7-1.6,3.3-2.9,5
	C12.2,23.5,12.1,23.5,12,23.5z M8.5,17.5c-0.6-1.7-0.9-3.4-1-5h9c-0.1,1.6-0.4,3.3-1,5H8.5z M1,12.5h5.5c0.1,1.6,0.4,3.3,0.9,5H2.3
	C1.5,16,1,14.3,1,12.5z M2.7,6.5h4.8c-0.6,1.6-0.9,3.3-1,5H1C1.2,9.7,1.8,8,2.7,6.5z M11.7,1.5c0.1,0,0.2,0,0.3,0c0.1,0,0.1,0,0.2,0
	c1.1,1.3,2,2.6,2.7,4H9C9.7,4.1,10.6,2.8,11.7,1.5z M15.5,6.5c0.7,1.6,1,3.3,1,5h-9c0.1-1.7,0.4-3.4,1-5H15.5z M17.5,11.5
	c0-1.7-0.4-3.4-1-5h4.7c1,1.5,1.6,3.2,1.7,5H17.5z M20.5,5.5h-4.4c-0.6-1.3-1.4-2.6-2.4-3.9C16,2,18.1,3,19.8,4.7
	C20,4.9,20.3,5.2,20.5,5.5z M10.3,1.6c-1,1.2-1.8,2.5-2.4,3.9H3.4C5.1,3.4,7.6,2,10.3,1.6z M2.9,18.5h5c0.6,1.6,1.5,3.3,2.6,4.9
	C7.3,22.9,4.6,21,2.9,18.5z M19.8,20.3c-1.7,1.7-3.9,2.8-6.2,3.1c1.1-1.6,2-3.2,2.6-4.9h5C20.8,19.1,20.3,19.7,19.8,20.3z"/>
</svg>
