<?xml version="1.0" encoding="UTF-8"?>
<svg width="26px" height="25px" viewBox="0 0 26 25" version="1.1" xmlns="http://www.w3.org/2000/svg" xmlns:xlink="http://www.w3.org/1999/xlink">
    <!-- Generator: Sketch 61.2 (89653) - https://sketch.com -->
    <title>形狀</title>
    <desc>Created with Sketch.</desc>
    <g id="新建投組" stroke="none" stroke-width="1" fill="none" fill-rule="evenodd">
        <g id="LandingPage-新建投組-PC" transform="translate(-1685.000000, -4060.000000)" fill="#FFFFFF" fill-rule="nonzero">
            <g id="Group-8" transform="translate(0.000000, 4022.000000)">
                <g id="Group-19" transform="translate(1647.000000, 38.000000)">
                    <path d="M51.2931034,0 C58.1966628,0 63.7931034,5.59644063 63.7931034,12.5 C63.7931034,19.4035594 58.1966628,25 51.2931034,25 C44.3895441,25 38.7931034,19.4035594 38.7931034,12.5 C38.7931034,5.59644063 44.3895441,0 51.2931034,0 Z M54.7384134,4.85979892 L52.2352048,4.84932618 C49.5321166,4.84932618 48.86146,6.81931864 48.8271828,8.14986442 L48.8257695,8.2592071 L48.8257695,10.1175621 L47.2185375,10.1175621 L47.2185375,12.9893223 L48.8257695,12.9893223 L48.8257695,21.1607366 L52.2051235,21.1607366 L52.2051235,12.9893223 L54.4355952,12.9893223 L54.7308374,10.120236 L52.2053463,10.120236 L52.2053463,8.43011337 C52.2053463,7.83844047 52.5702633,7.66933363 52.8611357,7.64941571 L52.9221722,7.64733146 L54.7384134,7.64733146 L54.7384134,4.85979892 L52.2352048,4.84932618 L54.7384134,4.85979892 Z" id="形狀"></path>
                </g>
            </g>
        </g>
    </g>
</svg>