<?xml version="1.0" encoding="UTF-8"?>
<svg width="22px" height="23px" viewBox="0 0 22 23" version="1.1" xmlns="http://www.w3.org/2000/svg" xmlns:xlink="http://www.w3.org/1999/xlink">
    <!-- Generator: Sketch 61 (89581) - https://sketch.com -->
    <title>路徑</title>
    <desc>Created with Sketch.</desc>
    <g id="landing-page" stroke="none" stroke-width="1" fill="none" fill-rule="evenodd" opacity="0.99593099">
        <g id="LandingPage-1-PC" transform="translate(-1852.000000, -979.000000)" fill="#FFFFFF" fill-rule="nonzero">
            <g id="Group" transform="translate(1850.000000, 898.000000)">
                <path d="M3.2299375,87.2112578 C5.06066406,83.5211504 8.74867188,81 13,81 C15.6690039,81 18.1162031,81.9939414 20.0212656,83.6475156 L16.4577383,86.6975312 C15.4550625,86.0423008 14.2698125,85.6637891 13,85.6637891 C10.1327383,85.6637891 7.69641016,87.593498 6.81400391,90.2783438 C6.58549609,90.9746777 6.46097266,91.7221777 6.46097266,92.5 C6.46105859,93.3441719 6.60732422,94.1529902 6.87566406,94.8991875 L6.87562109,94.8992773 L6.90397005,94.9767643 C7.85247864,97.5278518 10.2242411,99.3362109 13,99.3362109 C14.2051445,99.3362109 15.3341914,98.9956133 16.3030078,98.4010273 L16.3030508,98.4011172 L16.3030937,98.4010273 C17.5892344,97.6124688 18.5943594,96.3784199 19.1238203,94.9011191 L13.2418281,94.9011191 L13.2418281,90.3516563 L23.8078008,90.3516563 C23.9341289,91.0473164 24,91.765752 24,92.5 C24,93.3233281 23.9171992,94.1264414 23.7594609,94.9011191 C23.2239844,97.5372695 21.824793,99.8391563 19.8865156,101.468113 C18.0013906,103.052193 15.6067422,104 13,104 C8.85282426,104 5.24175556,101.600874 3.36720537,98.0575979 L3.31093359,97.9497871 L3.28594813,97.9011022 C2.46501916,96.2907109 2,94.4523496 2,92.5 C2,90.5930215 2.44360938,88.794709 3.2299375,87.2112578 Z" id="路徑"></path>
            </g>
        </g>
    </g>
</svg>