<?xml version="1.0" encoding="utf-8"?>
<!-- Generator: Adobe Illustrator 24.0.3, SVG Export Plug-In . SVG Version: 6.00 Build 0)  -->
<svg version="1.1" id="圖層_1" xmlns="http://www.w3.org/2000/svg" xmlns:xlink="http://www.w3.org/1999/xlink" x="0px" y="0px"
	 viewBox="0 0 60.69 60.69" style="enable-background:new 0 0 60.69 60.69;" xml:space="preserve">
<style type="text/css">
	.st0{fill:url(#SVGID_1_);}
	.st1{fill:url(#SVGID_2_);}
	.st2{fill:url(#SVGID_3_);}
</style>
<radialGradient id="SVGID_1_" cx="30.3483" cy="30.3387" r="5.5468" gradientUnits="userSpaceOnUse">
	<stop  offset="0" style="stop-color:#39393A"/>
	<stop  offset="0.7821" style="stop-color:#FFF"/>
</radialGradient>
<path class="st0" d="M30.34,24.79c-3.05,0-5.54,2.49-5.54,5.55c0,3.06,2.49,5.54,5.54,5.54c3.06,0,5.55-2.48,5.55-5.54
	C35.9,27.28,33.41,24.79,30.34,24.79z"/>
<radialGradient id="SVGID_2_" cx="30.3435" cy="30.3435" r="13.6394" gradientUnits="userSpaceOnUse">
	<stop  offset="0" style="stop-color:#39393A"/>
	<stop  offset="0.7821" style="stop-color:#FFF"/>
</radialGradient>
<path class="st1" d="M43.32,20.53c-0.3-0.78-0.67-1.33-1.24-1.92c-0.59-0.58-1.14-0.94-1.92-1.24c-0.58-0.23-1.46-0.5-3.08-0.57
	c-1.75-0.08-2.28-0.1-6.73-0.1c-4.44,0-4.96,0.02-6.72,0.1c-1.63,0.07-2.51,0.34-3.09,0.57c-0.77,0.3-1.33,0.67-1.91,1.24
	c-0.59,0.59-0.94,1.14-1.24,1.92c-0.23,0.59-0.5,1.47-0.58,3.08c-0.08,1.75-0.1,2.28-0.1,6.73c0,4.45,0.02,4.96,0.1,6.72
	c0.08,1.63,0.35,2.51,0.58,3.09c0.3,0.77,0.66,1.33,1.24,1.91c0.58,0.59,1.14,0.95,1.91,1.24c0.59,0.24,1.47,0.5,3.09,0.58
	c1.75,0.08,2.28,0.1,6.72,0.1c4.45,0,4.97-0.02,6.73-0.1c1.63-0.08,2.51-0.34,3.08-0.58c0.78-0.29,1.33-0.66,1.92-1.24
	c0.58-0.58,0.94-1.14,1.24-1.91c0.23-0.59,0.5-1.47,0.57-3.09c0.09-1.75,0.1-2.27,0.1-6.72c0-4.45-0.01-4.97-0.1-6.73
	C43.82,22,43.54,21.12,43.32,20.53z M30.34,38.88c-4.72,0-8.54-3.82-8.54-8.54c0-4.72,3.82-8.55,8.54-8.55s8.55,3.83,8.55,8.55
	C38.89,35.06,35.06,38.88,30.34,38.88z M39.22,23.46c-1.1,0-2-0.9-2-2c0-1.11,0.9-2,2-2c1.11,0,2,0.89,2,2
	C41.22,22.56,40.33,23.46,39.22,23.46z"/>
<radialGradient id="SVGID_3_" cx="30.3435" cy="30.3435" r="30.3435" gradientUnits="userSpaceOnUse">
	<stop  offset="0" style="stop-color:#39393A"/>
	<stop  offset="0.7821" style="stop-color:#FFF"/>
</radialGradient>
<path class="st2" d="M51.8,8.89C46.31,3.4,38.72,0,30.34,0C21.97,0,14.38,3.4,8.89,8.89C3.4,14.37,0,21.96,0,30.34
	C0,47.1,13.59,60.69,30.34,60.69c8.38,0,15.97-3.4,21.45-8.89c5.49-5.49,8.89-13.08,8.89-21.45C60.69,21.96,57.29,14.37,51.8,8.89z
	 M46.88,37.2c-0.08,1.77-0.36,2.99-0.77,4.04c-0.42,1.1-0.99,2.02-1.92,2.95c-0.92,0.92-1.85,1.49-2.95,1.92
	c-1.06,0.41-2.26,0.7-4.03,0.77c-1.77,0.08-2.34,0.1-6.86,0.1c-4.51,0-5.08-0.02-6.85-0.1c-1.77-0.08-2.99-0.36-4.04-0.77
	c-1.09-0.43-2.02-1-2.95-1.92c-0.92-0.93-1.49-1.85-1.92-2.95c-0.41-1.06-0.69-2.27-0.77-4.04c-0.08-1.77-0.1-2.34-0.1-6.85
	c0-4.52,0.02-5.08,0.1-6.86c0.09-1.77,0.36-2.98,0.77-4.03c0.43-1.1,1-2.03,1.92-2.95c0.93-0.93,1.86-1.5,2.95-1.92
	c1.06-0.41,2.27-0.7,4.04-0.77c1.77-0.08,2.34-0.1,6.85-0.1c4.52,0,5.09,0.02,6.86,0.1c1.77,0.08,2.98,0.36,4.03,0.77
	c1.1,0.42,2.03,0.99,2.95,1.92c0.93,0.92,1.5,1.85,1.92,2.95c0.41,1.06,0.7,2.26,0.77,4.03c0.09,1.78,0.1,2.34,0.1,6.86
	C46.98,34.86,46.97,35.43,46.88,37.2z"/>
</svg>
