<?xml version="1.0" encoding="UTF-8"?>
<svg width="22px" height="22px" viewBox="0 0 22 22" version="1.1" xmlns="http://www.w3.org/2000/svg" xmlns:xlink="http://www.w3.org/1999/xlink">
    <!-- Generator: Sketch 61.2 (89653) - https://sketch.com -->
    <title>Lamps-Lights-Fire / Light-Bubbles / light-bulb-shine</title>
    <desc>Created with Sketch.</desc>
    <g id="WFE" stroke="none" stroke-width="1" fill="none" fill-rule="evenodd">
        <g id="立即體驗第二步-1-Android-Copy-2" transform="translate(-6.000000, -291.000000)">
            <g id="Lamps-Lights-Fire-/-Light-Bubbles-/-light-bulb-shine" transform="translate(6.000000, 291.000000)">
                <circle id="橢圓形" fill="#FFFFFF" cx="12" cy="12" r="10"></circle>
                <g id="Interface-Essential-/-Alerts-/-alert-circle" fill="#555" fill-rule="nonzero">
                    <g id="Group">
                        <g id="alert-circle">
                            <path d="M11.42504,0.88 C8.60341044,0.92619321 5.91330181,2.08094842 3.93624,4.09464 C1.93746527,6.0846196 0.834164236,8.80205037 0.88,11.62216 C0.876721804,14.3766058 1.96989165,17.0190896 3.91815816,18.9662003 C5.86642466,20.9133111 8.50955659,22.0049127 11.264,22.0000165 L11.45232,22.0000165 C17.3291642,21.9395357 22.0478679,17.1330403 22,11.25608 L22,11.25608 C22.0065599,8.46749193 20.8880257,5.79414552 18.8975626,3.84111638 C16.9070994,1.88808724 14.213001,0.820504137 11.42504,0.88 Z M9.67987044,15.984847 C9.66171797,15.4911091 9.84290319,15.0108171 10.1826397,14.6520892 C10.5223762,14.2933612 10.9921128,14.0863444 11.4861076,14.0776401 L11.5197642,14.0776401 C12.5419534,14.0796054 13.3800908,14.8885758 13.4182454,15.9100546 C13.4367431,16.4038859 13.2556734,16.8843746 12.9158639,17.2431797 C12.5760544,17.6019847 12.1061151,17.8088969 11.6120082,17.8172615 L11.5783516,17.8172615 C10.5566826,17.8140131 9.71928894,17.0057605 9.67987044,15.984847 Z M9.67862679,11.4376401 L9.67862679,6.15764005 C9.67862679,5.67162947 10.3188596,5.27764005 11.1086268,5.27764005 C11.898394,5.27764005 12.5386268,5.67162947 12.5386268,6.15764005 L12.5386268,11.4376401 C12.5386268,11.9236506 11.898394,12.3176401 11.1086268,12.3176401 C10.3188596,12.3176401 9.67862679,11.9236506 9.67862679,11.4376401 Z" id="Shape"></path>
                        </g>
                    </g>
                </g>
            </g>
        </g>
    </g>
</svg>