<svg xmlns="http://www.w3.org/2000/svg" width="24" height="24" viewBox="0 0 24 24">
    <path fill="#FFF" d="M11.997 0c6.342 0 11.535 3.996 11.967 9.056l.016.231c.009.15.032.63.012.952-.01.156-.03.347-.065.569l-.03.172c-.148.943-.462 1.844-.917 2.683-.215.396-1.267 1.9-1.59 2.297-1.773 2.181-4.743 4.698-9.71 7.145-.436.215-.93-.11-.94-.583l.005-.09.25-2.3c.04-.367-.22-.698-.579-.736C4.538 18.767 0 14.684 0 9.74 0 4.36 5.371 0 11.997 0zm-7.21 6.984c-.34 0-.614.28-.614.626v4.73c0 .345.274.625.613.625h2.455c.31 0 .567-.235.608-.54l.006-.086c0-.346-.275-.626-.614-.626H5.4V7.61c0-.317-.23-.579-.53-.62l-.084-.006zm4.398 0h-.268c-.238 0-.436.177-.473.41l-.007.08v5.002c0 .243.174.445.402.483l.078.006h.268c.239 0 .436-.177.473-.41l.007-.079V7.473c0-.243-.174-.445-.402-.483l-.078-.006zm5.573 0c-.339 0-.614.28-.614.626v2.89l-2.488-3.307c-.117-.134-.29-.216-.481-.209-.334.013-.59.31-.59.652v4.703c0 .317.231.58.53.62l.084.006c.339 0 .614-.28.614-.626V9.468l2.524 3.326c.109.105.254.17.415.171.341.004.62-.304.62-.652V7.61c0-.317-.231-.579-.53-.62l-.084-.006zm4.602 0h-2.454c-.34 0-.614.28-.614.626v4.73c0 .345.275.625.614.625h2.454c.31 0 .568-.235.608-.54l.006-.086c0-.346-.275-.626-.614-.626h-1.84V10.6h1.84c.31 0 .568-.236.608-.541l.006-.085c0-.346-.275-.627-.614-.627h-1.84V8.236h1.84c.31 0 .568-.235.608-.54l.006-.086c0-.346-.275-.626-.614-.626z"/>
</svg>
