<?xml version="1.0" encoding="UTF-8"?>
<svg width="24px" height="25px" viewBox="0 0 24 25" version="1.1" xmlns="http://www.w3.org/2000/svg" xmlns:xlink="http://www.w3.org/1999/xlink">
    <!-- Generator: Sketch 61 (89581) - https://sketch.com -->
    <title>形狀</title>
    <desc>Created with Sketch.</desc>
    <g id="landing-page" stroke="none" stroke-width="1" fill="none" fill-rule="evenodd" opacity="0.99593099">
        <g id="LandingPage-1-PC" transform="translate(-1851.000000, -898.000000)" fill="#d7d7da" fill-rule="nonzero">
            <g id="Group" transform="translate(1850.000000, 898.000000)">
                <path d="M12.9965723,0 C19.3391904,0 24.532163,4.31134751 24.9640732,9.77069262 L24.9804139,10.0196243 C24.9888291,10.1814394 25.0124205,10.6982496 24.9917061,11.046354 C24.9816942,11.2150916 24.9622457,11.4209349 24.9266584,11.6601532 L24.8968372,11.8457664 C24.7491753,12.863546 24.4352231,13.8357037 23.9797945,14.7410128 C23.7652425,15.1674505 22.712909,16.7910664 22.390182,17.2191675 C20.6166574,19.5717828 17.6467338,22.2873138 12.6800308,24.9268876 C12.2438781,25.1587242 11.7498112,24.8094214 11.7405666,24.2980271 L11.7446472,24.2003434 L11.9949459,21.7194958 C12.0347923,21.324027 11.7756469,20.9667349 11.4162381,20.9253109 C5.53759902,20.247636 1,15.8419572 1,10.5078417 C1,4.70451787 6.37099301,0 12.9965723,0 Z M5.66667969,8 C5.29848997,8 5,8.28130293 5,8.6282923 L5,13.3717077 C5,13.7186971 5.29848997,14 5.66667969,14 L8.33332031,14 C8.67082755,14 8.94976765,13.7636274 8.99391386,13.4569618 L9,13.3717077 C9,13.0247183 8.70151003,12.7434154 8.33332031,12.7434154 L6.33335938,12.7434154 L6.33335938,8.6282923 C6.33335938,8.31021871 6.08254489,8.04733998 5.75714264,8.0057357 L5.66667969,8 Z M10.6092944,8 L10.3907056,8 C10.1965073,8 10.0353944,8.17804929 10.0051138,8.4113207 L10,8.49095461 L10,13.5090454 C10,13.753072 10.141693,13.9555239 10.3273323,13.9935741 L10.3907056,14 L10.6092944,14 C10.8034927,14 10.9646056,13.8219507 10.9948862,13.5886793 L11,13.5090454 L11,8.49095461 C11,8.24692801 10.858307,8.04447605 10.6726677,8.00642593 L10.6092944,8 Z M15.3589493,8 C15.0049138,8.00009445 14.7178986,8.28132397 14.7178986,8.62831362 L14.7178986,11.5261043 L12.1187582,8.21033542 L12.1187582,8.21033542 C11.9964386,8.07579593 11.8161901,7.99302505 11.6161059,8.00046265 C11.267405,8.01342321 11,8.31210531 11,8.65408747 L11,13.3716592 C11,13.6897331 11.2411725,13.9526323 11.5540654,13.99424 L11.6410507,14 C11.9950862,14 12.2821014,13.7186489 12.2821014,13.3716592 L12.2821014,10.4914684 L14.9192601,13.8282246 L14.9192601,13.8282246 C15.0326386,13.9333819 15.184937,13.9984793 15.3530137,14 C15.7090027,14.0031186 16,13.6944951 16,13.3455908 L16,8.62831362 C16,8.31023977 15.7588275,8.04734334 15.4459346,8.00573611 L15.3589493,8 Z M20.3333203,8 L17.6666797,8 C17.29849,8 17,8.28130293 17,8.6282923 L17,13.3717077 C17,13.7186971 17.29849,14 17.6666797,14 L20.3333203,14 C20.6708276,14 20.9497676,13.7636274 20.9939139,13.4569618 L21,13.3717077 C21,13.0247183 20.70151,12.7434154 20.3333203,12.7434154 L18.3333594,12.7434154 L18.3333594,11.6282187 L20.3333203,11.6282187 C20.6708276,11.6282187 20.9497676,11.3918461 20.9939139,11.0851805 L21,10.9999264 C21,10.652937 20.70151,10.3716341 20.3333203,10.3716341 L18.3333594,10.3716341 L18.3333594,9.25643732 L20.3333203,9.25643732 C20.6708276,9.25657233 20.9497676,9.02021098 20.9939139,8.71354631 L21,8.6282923 C21,8.28130293 20.70151,8 20.3333203,8 Z" id="形狀"></path>
            </g>
        </g>
    </g>
</svg>