<?xml version="1.0" encoding="utf-8"?>
<!-- Generator: Adobe Illustrator 24.0.1, SVG Export Plug-In . SVG Version: 6.00 Build 0)  -->
<svg version="1.1" id="圖層_1" xmlns="http://www.w3.org/2000/svg" xmlns:xlink="http://www.w3.org/1999/xlink" x="0px" y="0px"
	 viewBox="0 0 23 23" style="enable-background:new 0 0 23 23;" xml:space="preserve">
<style type="text/css">

</style>
<title>Interface-Essential / Search / search</title>
<desc>Created with Sketch.</desc>
<path fill="#c1cd00" class="st0" d="M21.9,20.8l-5.7-5.7c2.1-2.5,2.7-6,1.4-9.1c-1.9-4.5-7.1-6.6-11.5-4.7C3.8,2.2,2.1,3.9,1.2,6.1
	c-0.9,2.2-0.9,4.6,0.1,6.7c0.9,2.2,2.6,3.8,4.8,4.7c1.1,0.4,2.2,0.6,3.3,0.6c1.2,0,2.3-0.2,3.4-0.7c0.8-0.4,1.6-0.8,2.2-1.4l5.7,5.7
	c0.1,0.1,0.3,0.2,0.5,0.2s0.4-0.1,0.5-0.2C22.2,21.6,22.2,21.1,21.9,20.8z M12.2,16.1c-1.8,0.8-3.8,0.8-5.6,0.1
	c-1.8-0.7-3.2-2.1-4-3.9c-0.8-1.8-0.8-3.8-0.1-5.6c0.7-1.8,2.1-3.2,3.9-4c0.9-0.4,1.9-0.6,2.8-0.6c2.8,0,5.6,1.7,6.7,4.4
	C17.7,10.2,16,14.5,12.2,16.1z"/>
</svg>
