<?xml version="1.0" encoding="utf-8"?>
<!-- Generator: Adobe Illustrator 24.0.2, SVG Export Plug-In . SVG Version: 6.00 Build 0)  -->
<svg version="1.1"  xmlns="http://www.w3.org/2000/svg" xmlns:xlink="http://www.w3.org/1999/xlink" x="0px" y="0px"
	 viewBox="0 0 95 212" style="enable-background:new 0 0 95 212;" xml:space="preserve">
<style type="text/css">
	.st0{fill:none;}
	.st1{opacity:0.2;enable-background:new    ;}
	.st2{filter:url(#Adobe_OpacityMaskFilter);}
	.st3{mask:url(#SVGID_1_);}
	.st4{fill:url(#SVGID_2_);}
	.st5{fill:#FFFFFF;}
	.st6{opacity:0.85;fill:#FFFFFF;}
	.st7{opacity:0.5;fill:#FFFFFF;}
	.st8{clip-path:url(#SVGID_4_);}
	.st9{fill:#F7F7F7;}
	.st10{fill:#4D4D4D;}
	.st11{fill:#EAEFEC;stroke:#CCCCCC;stroke-miterlimit:10;}
	.st12{fill:#666666;}
	.st13{fill:#CCCCCC;}
	.st14{fill:none;stroke:#808080;stroke-width:0.9333;stroke-linecap:round;stroke-miterlimit:10;}
	.st15{clip-path:url(#SVGID_6_);}
	.st16{fill:none;stroke:#808080;stroke-width:0.4667;stroke-linecap:round;stroke-miterlimit:10;}
	.st17{clip-path:url(#SVGID_8_);}
	.st18{clip-path:url(#SVGID_10_);}
	.st19{fill:#EAEFEC;}
	.st20{clip-path:url(#SVGID_12_);}
	.st21{clip-path:url(#SVGID_14_);}
	.st22{clip-path:url(#SVGID_16_);}
	.st23{clip-path:url(#SVGID_18_);}
	.st24{clip-path:url(#SVGID_20_);}
	.st25{clip-path:url(#SVGID_24_);}
	.st26{fill:url(#SVGID_25_);}
	.st27{fill:url(#SVGID_26_);}
	.st28{clip-path:url(#SVGID_28_);fill:#10894F;}
	.st29{clip-path:url(#SVGID_30_);}
	.st30{clip-path:url(#SVGID_32_);}
	.st31{fill:none;stroke:#43C867;stroke-width:3;stroke-miterlimit:10;}
	.st32{fill:#43C867;}
	.st33{fill:none;stroke:#43C867;stroke-width:2.8571;stroke-miterlimit:10;}
	.st34{fill:none;stroke:#43C867;stroke-width:2.7143;stroke-miterlimit:10;}
	.st35{fill:none;stroke:#43C867;stroke-width:2.5714;stroke-miterlimit:10;}
	.st36{fill:none;stroke:#43C867;stroke-width:2.4286;stroke-miterlimit:10;}
	.st37{fill:none;stroke:#43C867;stroke-width:2.2857;stroke-miterlimit:10;}
	.st38{fill:none;stroke:#43C867;stroke-width:2.1429;stroke-miterlimit:10;}
	.st39{fill:none;stroke:#43C867;stroke-width:2;stroke-miterlimit:10;}
	.st40{fill:none;stroke:#43C867;stroke-width:1.8571;stroke-miterlimit:10;}
	.st41{fill:none;stroke:#43C867;stroke-width:1.7143;stroke-miterlimit:10;}
	.st42{fill:none;stroke:#43C867;stroke-width:1.5714;stroke-miterlimit:10;}
	.st43{fill:none;stroke:#43C867;stroke-width:1.4286;stroke-miterlimit:10;}
	.st44{fill:none;stroke:#43C867;stroke-width:1.2857;stroke-miterlimit:10;}
	.st45{fill:none;stroke:#43C867;stroke-width:1.1429;stroke-miterlimit:10;}
	.st46{fill:none;stroke:#43C867;stroke-miterlimit:10;}
	.st47{fill:none;stroke:#43C867;stroke-width:0.8571;stroke-miterlimit:10;}
	.st48{fill:none;stroke:#43C867;stroke-width:0.7143;stroke-miterlimit:10;}
	.st49{fill:none;stroke:#43C867;stroke-width:0.5714;stroke-miterlimit:10;}
	.st50{fill:none;stroke:#43C867;stroke-width:0.4286;stroke-miterlimit:10;}
	.st51{fill:none;stroke:#43C867;stroke-width:0.2857;stroke-miterlimit:10;}
	.st52{fill:none;stroke:#43C867;stroke-width:0.1429;stroke-miterlimit:10;}
	.st53{fill:#B18749;}
	.st54{fill:#005B42;}
	.st55{fill:#AA803A;}
	.st56{fill:#808080;}
	.st57{fill:none;stroke:#7D7D7D;stroke-width:0.4667;stroke-linecap:round;stroke-miterlimit:10;}
	.st58{fill:#F5B64C;}
	.st59{fill:#FBE9C9;}
	.st60{fill:#F0C9AE;}
	.st61{fill:#EE8381;}
	.st62{fill:#4B1E0E;}
	.st63{opacity:0.1;enable-background:new    ;}
	.st64{fill:#E0E2E1;}
	.st65{clip-path:url(#SVGID_36_);}
	.st66{fill:url(#SVGID_37_);stroke:#E6E6E6;stroke-width:0.8077;stroke-miterlimit:10;}
	.st67{fill:#E6E6E6;}
	.st68{fill:url(#SVGID_38_);stroke:#E6E6E6;stroke-width:0.8077;stroke-miterlimit:10;}
	.st69{fill:#333333;}
	.st70{fill:#13AE67;}
	.st71{opacity:0.67;}
	.st72{fill:#A8A8A8;}
	.st73{clip-path:url(#SVGID_40_);}
	.st74{clip-path:url(#SVGID_42_);}
	.st75{clip-path:url(#SVGID_44_);}
	.st76{clip-path:url(#SVGID_46_);}
	.st77{clip-path:url(#SVGID_48_);}
	.st78{clip-path:url(#SVGID_50_);}
	.st79{clip-path:url(#SVGID_52_);fill:#EAEFEC;stroke:#CCCCCC;stroke-miterlimit:10;}
	.st80{clip-path:url(#SVGID_54_);fill:#666666;}
	.st81{clip-path:url(#SVGID_56_);}
	.st82{fill:none;stroke:#808080;stroke-width:1.1333;stroke-linecap:round;stroke-miterlimit:10;}
	.st83{clip-path:url(#SVGID_58_);}
	.st84{clip-path:url(#SVGID_60_);}
	.st85{clip-path:url(#SVGID_62_);}
	.st86{clip-path:url(#SVGID_64_);}
	.st87{clip-path:url(#SVGID_66_);}
	.st88{clip-path:url(#SVGID_68_);}
	.st89{clip-path:url(#SVGID_70_);fill:#EAEFEC;stroke:#CCCCCC;stroke-miterlimit:10;}
	.st90{clip-path:url(#SVGID_72_);fill:#666666;}
	.st91{clip-path:url(#SVGID_74_);}
	.st92{clip-path:url(#SVGID_76_);}
	.st93{clip-path:url(#SVGID_78_);}
</style>
<pattern  y="212" width="390" height="507" patternUnits="userSpaceOnUse" id="SVGID_22_" viewBox="0 -507 390 507" style="overflow:visible;">
	<g>
		<rect y="-507" class="st0" width="390" height="507"/>
		<g>
			<rect y="-507" class="st0" width="390" height="507"/>
			<g>
				<rect y="-507" class="st0" width="390" height="507"/>
				<g>
					<rect y="-507" class="st0" width="390" height="507"/>
					<g>
						<rect y="-507" class="st0" width="390" height="507"/>
					</g>
				</g>
			</g>
		</g>
	</g>
</pattern>
<pattern  y="212" width="390" height="507" patternUnits="userSpaceOnUse" id="SVGID_23_" viewBox="0 -507 390 507" style="overflow:visible;">
	<g>
		<rect y="-507" class="st0" width="390" height="507"/>
		<g>
			<rect y="-507" class="st0" width="390" height="507"/>
			<g>
				<rect y="-507" class="st0" width="390" height="507"/>
				<g>
					<rect y="-507" class="st0" width="390" height="507"/>
					<g>
						<rect y="-507" class="st0" width="390" height="507"/>
					</g>
				</g>
			</g>
		</g>
	</g>
</pattern>
<pattern  y="212" width="390" height="507" patternUnits="userSpaceOnUse" id="SVGID_34_" viewBox="0 -507 390 507" style="overflow:visible;">
	<g>
		<rect y="-507" class="st0" width="390" height="507"/>
		<g>
			<rect y="-507" class="st0" width="390" height="507"/>
			<g>
				<rect y="-507" class="st0" width="390" height="507"/>
				<g>
					<rect y="-507" class="st0" width="390" height="507"/>
					<g>
						<rect y="-507" class="st0" width="390" height="507"/>
					</g>
				</g>
			</g>
		</g>
	</g>
</pattern>
<pattern  y="212" width="390" height="507" patternUnits="userSpaceOnUse" id="SVGID_35_" viewBox="0 -507 390 507" style="overflow:visible;">
	<g>
		<rect y="-507" class="st0" width="390" height="507"/>
		<g>
			<rect y="-507" class="st0" width="390" height="507"/>
			<g>
				<rect y="-507" class="st0" width="390" height="507"/>
				<g>
					<rect y="-507" class="st0" width="390" height="507"/>
					<g>
						<rect y="-507" class="st0" width="390" height="507"/>
					</g>
				</g>
			</g>
		</g>
	</g>
</pattern>
<title>Group 4</title>
<desc>Created with Sketch.</desc>
<g id="Oval" class="st1">
	<defs>
		<filter id="Adobe_OpacityMaskFilter" filterUnits="userSpaceOnUse" x="-21" y="187" width="196" height="10">
			<feFlood  style="flood-color:white;flood-opacity:1" result="back"/>
			<feBlend  in="SourceGraphic" in2="back" mode="normal"/>
		</filter>
	</defs>
	<mask maskUnits="userSpaceOnUse" x="-21" y="187" width="196" height="10" id="SVGID_1_">
		<g class="st2">
			
				<image style="overflow:visible;" width="200" height="14" xlink:href="7D261866642A6581.jpg"  transform="matrix(1 0 0 1 -23 185)">
			</image>
		</g>
	</mask>
	<g class="st3">
		<g>
			
				<radialGradient id="SVGID_2_" cx="-463.9034" cy="58.3" r="7.015" gradientTransform="matrix(9.9999 0 0 10 4715.9873 -391)" gradientUnits="userSpaceOnUse">
				<stop  offset="0" style="stop-color:#363636"/>
				<stop  offset="1" style="stop-color:#333333;stop-opacity:0"/>
			</radialGradient>
			<ellipse class="st4" cx="77" cy="192" rx="98" ry="5"/>
		</g>
	</g>
</g>
<path class="st5" d="M38.1,18.4c-0.4,0-0.8-0.1-1.1-0.1c-5.7,0-10.6,4.3-11.2,10c0,0.4,0.1,0.8,0.3,1c0.2,0.3,0.6,0.5,1,0.5
	c0.8,0.1,1.5-0.5,1.6-1.3c0.5-4.5,4.6-7.9,9.2-7.4c0.8,0.1,1.5-0.5,1.6-1.3c0-0.4-0.1-0.8-0.3-1S38.5,18.4,38.1,18.4z"/>
<path class="st6" d="M39,9.9c-0.7-0.1-1.3-0.1-2-0.1c-10,0-18.6,7.6-19.7,17.7c-0.1,0.6,0.1,1.1,0.5,1.4s1,0.4,1.5,0.1
	c0.5-0.2,0.8-0.7,0.8-1.3c0.5-4.4,2.7-8.6,6.2-11.4s7.9-4.2,12.3-3.7c0.7,0,1.4-0.5,1.5-1.3C40.2,10.7,39.7,10,39,9.9z"/>
<path class="st7" d="M39.7,4.3c0.5,0.1,1-0.2,1.3-0.6s0.4-1,0.2-1.4C41,1.8,40.5,1.5,40,1.5c-1-0.1-1.9-0.1-2.9-0.1
	c-14.3,0-26.7,10.9-28.3,25.4c-0.1,0.5,0.2,1,0.6,1.3c0.4,0.3,1,0.4,1.4,0.1c0.5-0.2,0.8-0.7,0.8-1.2C13.2,13,25.7,2.9,39.7,4.3
	L39.7,4.3z"/>
<g>
	<g>
		<g>
			<g>
				<g>
					<g>
						<g>
							<defs>
								<path id="SVGID_3_" d="M113.7,120.7c2.8,5.2,9.8,5.8,13.8,1.5c10-10.8,8.6-23.3,8.6-23.3c0-3.1-2-3.4-2-3.4
									c-1.9-2.1-3,0.1-3,0.1c-1,0.6-0.9,2.6-0.9,2.6c-1.5,1.7-8.3,6.9-13.5,10.7C112.6,111.8,111.3,116.3,113.7,120.7L113.7,120.7
									z"/>
							</defs>
							<clipPath id="SVGID_4_">
								<use xlink:href="#SVGID_3_"  style="overflow:visible;"/>
							</clipPath>
							<g class="st8">
								<g>
									<path class="st5" d="M113.7,120.7c2.8,5.2,9.8,5.8,13.8,1.5c10-10.8,8.6-23.3,8.6-23.3c0-3.1-2-3.4-2-3.4
										c-1.9-2.1-3,0.1-3,0.1c-1,0.6-0.9,2.6-0.9,2.6c-1.5,1.7-8.3,6.9-13.5,10.7C112.6,111.8,111.3,116.3,113.7,120.7
										L113.7,120.7z"/>
									<path class="st9" d="M124.8,124.4c-1.5,0.7-3.2,1-4.8,0.8c-2.7-0.4-5.1-1.9-6.3-4.4l0,0c-2.4-4.4-1.2-9,3-12
										c3.5-2.6,11.7-8.6,13.4-10.6c0-0.4,0-2.1,0.9-2.7c0.1-0.2,0.6-0.9,1.4-1.1c0.6-0.1,1.2,0.2,1.8,0.9
										c0.4,0.1,2.1,0.6,2.1,3.5c0,0.1,1.3,12.7-8.7,23.4C126.8,123.2,125.8,123.9,124.8,124.4z M132,94.8
										c-0.5,0.2-0.8,0.8-0.8,0.8l0,0h-0.1c-0.9,0.5-0.8,2.4-0.8,2.5v0.1v0.1c-1.6,2-10,8.1-13.5,10.7c-4.1,2.9-5.2,7.4-2.9,11.6
										l0,0c1.3,2.3,3.5,3.9,6.1,4.2c2.7,0.4,5.5-0.7,7.4-2.7c9.8-10.6,8.6-23,8.6-23.2c0-2.9-1.8-3.2-1.9-3.2H134h-0.1
										c-0.6-0.6-1.1-0.9-1.6-0.9C132.2,94.7,132.1,94.8,132,94.8z"/>
								</g>
								<circle class="st10" cx="119.7" cy="117.8" r="5.2"/>
								<path class="st11" d="M117.8,113.8c2.2-1,4.8-0.1,5.8,2.1s0.1,4.8-2.1,5.8s-4.8,0.1-5.8-2.1
									C114.7,117.4,115.7,114.8,117.8,113.8 M117.1,112.3c-3,1.4-4.3,5-2.9,8s5,4.3,8,2.9s4.3-5,2.9-8
									C123.8,112.2,120.2,110.9,117.1,112.3L117.1,112.3z"/>
								<circle class="st12" cx="119.7" cy="117.8" r="2.4"/>
								<g>
									<circle class="st13" cx="119.7" cy="117.8" r="1.3"/>
									<line class="st14" x1="118.7" y1="117.4" x2="120.8" y2="118.2"/>
									<line class="st14" x1="120" y1="116.9" x2="119.3" y2="118.7"/>
								</g>
							</g>
						</g>
					</g>
				</g>
			</g>
		</g>
		<g>
			<g>
				<g>
					<g>
						<g>
							<defs>
								<path id="SVGID_5_" d="M113.7,120.7c2.8,5.2,9.8,5.8,13.8,1.5c10-10.8,8.6-23.3,8.6-23.3c0-3.1-2-3.4-2-3.4
									c-1.9-2.1-3,0.1-3,0.1c-1,0.6-0.9,2.6-0.9,2.6c-1.5,1.7-8.3,6.9-13.5,10.7C112.6,111.8,111.3,116.3,113.7,120.7L113.7,120.7
									z"/>
							</defs>
							<clipPath id="SVGID_6_">
								<use xlink:href="#SVGID_5_"  style="overflow:visible;"/>
							</clipPath>
							<g class="st15">
								<circle class="st13" cx="130.7" cy="99.3" r="0.7"/>
								<line class="st16" x1="130.9" y1="98.8" x2="130.5" y2="99.8"/>
								<line class="st16" x1="130.3" y1="99.1" x2="131.2" y2="99.5"/>
							</g>
						</g>
					</g>
				</g>
			</g>
		</g>
		<g>
			<g>
				<g>
					<g>
						<g>
							<defs>
								<path id="SVGID_7_" d="M113.7,120.7c2.8,5.2,9.8,5.8,13.8,1.5c10-10.8,8.6-23.3,8.6-23.3c0-3.1-2-3.4-2-3.4
									c-1.9-2.1-3,0.1-3,0.1c-1,0.6-0.9,2.6-0.9,2.6c-1.5,1.7-8.3,6.9-13.5,10.7C112.6,111.8,111.3,116.3,113.7,120.7L113.7,120.7
									z"/>
							</defs>
							<clipPath id="SVGID_8_">
								<use xlink:href="#SVGID_7_"  style="overflow:visible;"/>
							</clipPath>
							<g class="st17">
								<circle class="st13" cx="129.5" cy="100.6" r="0.7"/>
								<line class="st16" x1="129.7" y1="100.1" x2="129.3" y2="101.1"/>
								<line class="st16" x1="129" y1="100.5" x2="130" y2="100.8"/>
							</g>
						</g>
					</g>
				</g>
			</g>
		</g>
		<g>
			<g>
				<g>
					<g>
						<g>
							<defs>
								<path id="SVGID_9_" d="M113.7,120.7c2.8,5.2,9.8,5.8,13.8,1.5c10-10.8,8.6-23.3,8.6-23.3c0-3.1-2-3.4-2-3.4
									c-1.9-2.1-3,0.1-3,0.1c-1,0.6-0.9,2.6-0.9,2.6c-1.5,1.7-8.3,6.9-13.5,10.7C112.6,111.8,111.3,116.3,113.7,120.7L113.7,120.7
									z"/>
							</defs>
							<clipPath id="SVGID_10_">
								<use xlink:href="#SVGID_9_"  style="overflow:visible;"/>
							</clipPath>
							<g class="st18">
								<g>
									<path class="st19" d="M117.1,109c1.5-0.2,3-0.3,4.4,0.3c1.3,0.6,2.4,1.5,3.5,2.4c0.2,0.1,0.4,0.1,0.6,0
										c1.2-1,2.7-1.5,3.8-2.6c1.1-0.9,2.1-2,3-3c2-2.1,3.8-4.3,5.1-6.8c0.3-0.5-0.5-1.1-0.8-0.6c-1.4,2.5-3.1,4.7-5.1,6.7
										c-1,1-2,2.1-3,3c-1.2,0.9-2.5,1.5-3.7,2.5c0.2,0,0.4,0,0.6,0c-1.2-1-2.4-2-3.8-2.6c-1.5-0.6-3.1-0.6-4.7-0.4
										C116.3,108.1,116.5,109.1,117.1,109L117.1,109z"/>
								</g>
							</g>
						</g>
					</g>
				</g>
			</g>
		</g>
		<g>
			<g>
				<g>
					<g>
						<g>
							<defs>
								<path id="SVGID_11_" d="M113.7,120.7c2.8,5.2,9.8,5.8,13.8,1.5c10-10.8,8.6-23.3,8.6-23.3c0-3.1-2-3.4-2-3.4
									c-1.9-2.1-3,0.1-3,0.1c-1,0.6-0.9,2.6-0.9,2.6c-1.5,1.7-8.3,6.9-13.5,10.7C112.6,111.8,111.3,116.3,113.7,120.7L113.7,120.7
									z"/>
							</defs>
							<clipPath id="SVGID_12_">
								<use xlink:href="#SVGID_11_"  style="overflow:visible;"/>
							</clipPath>
							<g class="st20">
								<g>
									<path class="st19" d="M136.7,109.6c-1-0.4-2-0.3-3,0.1s-2,1.1-2.7,1.8c-0.7,0.7-1,1.7-0.9,2.7c0.1,1.1,0.8,2.1,1.4,3
										c0.4,0.5,1.1-0.1,0.8-0.7c-0.9-1.3-2-3.2-0.6-4.5c1.1-1.1,2.9-2.2,4.5-1.6C137,110.8,137.4,109.9,136.7,109.6L136.7,109.6z
										"/>
								</g>
							</g>
						</g>
					</g>
				</g>
			</g>
		</g>
	</g>
	<g>
		<g>
			<g>
				<g>
					<g>
						<g>
							<defs>
								<path id="SVGID_13_" d="M62.3,144.6c2.2,5.5-1.8,11.2-7.7,11.5c-14.7,0.7-23.4-8.4-23.4-8.4c-2.4-2-1.3-3.7-1.3-3.7
									c-0.4-2.8,2-2.2,2-2.2c1.1-0.4,2.6,1,2.6,1c2.3,0,10.6-1.9,16.8-3.5C56.3,138.1,60.5,140,62.3,144.6L62.3,144.6z"/>
							</defs>
							<clipPath id="SVGID_14_">
								<use xlink:href="#SVGID_13_"  style="overflow:visible;"/>
							</clipPath>
							<g class="st21">
								<g>
									<path class="st5" d="M62.3,144.6c2.2,5.5-1.8,11.2-7.7,11.5c-14.7,0.7-23.4-8.4-23.4-8.4c-2.4-2-1.3-3.7-1.3-3.7
										c-0.4-2.8,2-2.2,2-2.2c1.1-0.4,2.6,1,2.6,1c2.3,0,10.6-1.9,16.8-3.5C56.3,138.1,60.5,140,62.3,144.6L62.3,144.6z"/>
									<path class="st9" d="M58.1,155.5c-1.1,0.5-2.2,0.8-3.4,0.8c-14.6,0.7-23.4-8.3-23.5-8.4c-2.2-1.9-1.5-3.6-1.4-3.9
										c-0.1-0.9,0-1.6,0.5-2c0.6-0.5,1.5-0.4,1.7-0.4c1-0.4,2.4,0.7,2.6,1c2.6,0,12.6-2.5,16.7-3.5c5-1.3,9.3,0.8,11.1,5.4
										c1,2.6,0.8,5.4-0.7,7.7C60.9,153.6,59.6,154.8,58.1,155.5z M30.8,142c-0.1,0-0.2,0.1-0.3,0.2c-0.4,0.4-0.5,0.9-0.4,1.8v0.1
										v0.1c0,0.1-1,1.6,1.3,3.5c0.1,0.1,8.8,9,23.2,8.3c2.8-0.1,5.4-1.6,6.8-3.9c1.4-2.2,1.7-4.9,0.7-7.4l0,0
										c-1.7-4.5-5.9-6.5-10.7-5.2c-4.2,1-14.3,3.5-16.9,3.5h-0.1h-0.1c0,0-1.4-1.3-2.4-1h-0.1l0,0C32,141.9,31.3,141.8,30.8,142z
										"/>
								</g>
								<circle class="st10" cx="56.3" cy="147.3" r="5.2"/>
								<path class="st11" d="M54.5,143.4c2.2-1,4.8-0.1,5.8,2.1s0.1,4.8-2.1,5.8s-4.8,0.1-5.8-2.1S52.3,144.4,54.5,143.4
									 M53.8,141.9c-3,1.4-4.3,5-2.9,8c1.4,3,5,4.3,8,2.9c3-1.4,4.3-5,2.9-8C60.4,141.8,56.8,140.4,53.8,141.9L53.8,141.9z"/>
								<circle class="st12" cx="56.3" cy="147.3" r="2.4"/>
								<g>
									<circle class="st13" cx="56.3" cy="147.3" r="1.3"/>
									<line class="st14" x1="56.7" y1="146.3" x2="56" y2="148.4"/>
									<line class="st14" x1="55.4" y1="147" x2="57.3" y2="147.7"/>
								</g>
							</g>
						</g>
					</g>
				</g>
			</g>
		</g>
		<g>
			<g>
				<g>
					<g>
						<g>
							<defs>
								<path id="SVGID_15_" d="M62.3,144.6c2.2,5.5-1.8,11.2-7.7,11.5c-14.7,0.7-23.4-8.4-23.4-8.4c-2.4-2-1.3-3.7-1.3-3.7
									c-0.4-2.8,2-2.2,2-2.2c1.1-0.4,2.6,1,2.6,1c2.3,0,10.6-1.9,16.8-3.5C56.3,138.1,60.5,140,62.3,144.6L62.3,144.6z"/>
							</defs>
							<clipPath id="SVGID_16_">
								<use xlink:href="#SVGID_15_"  style="overflow:visible;"/>
							</clipPath>
							<g class="st22">
								<circle class="st13" cx="35.1" cy="143.9" r="0.7"/>
								<line class="st16" x1="34.6" y1="143.7" x2="35.6" y2="144.1"/>
								<line class="st16" x1="35.2" y1="143.4" x2="34.9" y2="144.4"/>
							</g>
						</g>
					</g>
				</g>
			</g>
		</g>
		<g>
			<g>
				<g>
					<g>
						<g>
							<defs>
								<path id="SVGID_17_" d="M62.3,144.6c2.2,5.5-1.8,11.2-7.7,11.5c-14.7,0.7-23.4-8.4-23.4-8.4c-2.4-2-1.3-3.7-1.3-3.7
									c-0.4-2.8,2-2.2,2-2.2c1.1-0.4,2.6,1,2.6,1c2.3,0,10.6-1.9,16.8-3.5C56.3,138.1,60.5,140,62.3,144.6L62.3,144.6z"/>
							</defs>
							<clipPath id="SVGID_18_">
								<use xlink:href="#SVGID_17_"  style="overflow:visible;"/>
							</clipPath>
							<g class="st23">
								<circle class="st13" cx="36.9" cy="143.8" r="0.7"/>
								<line class="st16" x1="36.4" y1="143.6" x2="37.4" y2="144"/>
								<line class="st16" x1="37.1" y1="143.3" x2="36.7" y2="144.3"/>
							</g>
						</g>
					</g>
				</g>
			</g>
		</g>
		<g>
			<g>
				<g>
					<g>
						<g>
							<defs>
								<path id="SVGID_19_" d="M62.3,144.6c2.2,5.5-1.8,11.2-7.7,11.5c-14.7,0.7-23.4-8.4-23.4-8.4c-2.4-2-1.3-3.7-1.3-3.7
									c-0.4-2.8,2-2.2,2-2.2c1.1-0.4,2.6,1,2.6,1c2.3,0,10.6-1.9,16.8-3.5C56.3,138.1,60.5,140,62.3,144.6L62.3,144.6z"/>
							</defs>
							<clipPath id="SVGID_20_">
								<use xlink:href="#SVGID_19_"  style="overflow:visible;"/>
							</clipPath>
							<g class="st24">
								<g>
									<path class="st19" d="M50.6,138.9c-1.2,1.1-2.3,2.3-2.8,3.8s-0.5,3.1-0.5,4.6c0.2-0.1,0.3-0.3,0.4-0.5
										c-1.5,0.3-2.8,1-4.2,1.2s-2.9,0.3-4.3,0.4c-2.8,0.2-5.7,0.1-8.4-0.5c-0.6-0.1-0.7,0.9-0.1,1c2.8,0.6,5.7,0.6,8.5,0.4
										c1.4-0.1,2.9-0.1,4.3-0.4c1.5-0.2,2.9-1,4.4-1.3c0.2-0.1,0.4-0.2,0.4-0.5c0-1.4,0-2.9,0.4-4.2c0.4-1.5,1.4-2.6,2.5-3.6
										C51.8,139.3,51.1,138.5,50.6,138.9L50.6,138.9z"/>
								</g>
							</g>
						</g>
					</g>
				</g>
			</g>
		</g>
		<g>
			<g>
				<g>
					<g>
						<g>
							<defs>
								<path id="SVGID_21_" d="M62.3,144.6c2.2,5.5-1.8,11.2-7.7,11.5c-14.7,0.7-23.4-8.4-23.4-8.4c-2.4-2-1.3-3.7-1.3-3.7
									c-0.4-2.8,2-2.2,2-2.2c1.1-0.4,2.6,1,2.6,1c2.3,0,10.6-1.9,16.8-3.5C56.3,138.1,60.5,140,62.3,144.6L62.3,144.6z"/>
							</defs>
							<clipPath id="SVGID_24_">
								<use xlink:href="#SVGID_21_"  style="overflow:visible;"/>
							</clipPath>
							<g class="st25">
								<g>
									<path class="st19" d="M40,155.5c0.5-1.7,2.6-2.3,4.1-2.5c1.9-0.2,2.7,1.8,3.1,3.3c0.1,0.3,0.3,0.5,0.6,0.4
										c0.2,0,0.5-0.3,0.4-0.6c-0.3-1.1-0.6-2.2-1.4-3c-0.7-0.8-1.6-1.2-2.6-1.1c-0.5,0-1,0.2-1.5,0.3c-0.6,0.2-1.1,0.3-1.6,0.6
										c-0.9,0.5-1.7,1.2-2,2.2C38.9,155.8,39.8,156.1,40,155.5L40,155.5z"/>
								</g>
							</g>
						</g>
					</g>
				</g>
			</g>
		</g>
	</g>
	<g>
		<path class="st10" d="M62.8,156.5c-0.4,2.4,0.8,4.1,0.8,4.1s23.3,10.3,24.7,10c1.4-0.3,2.6-1.6,2.3-2.9c-0.3-1.4-10.9-9-10.9-9
			L62.8,156.5z"/>
		<pattern  id="SVGID_25_" xlink:href="#SVGID_22_" patternTransform="matrix(1 0 0 -1 602.3117 -52568.8438)">
		</pattern>
		<path class="st26" d="M62.8,156.5c-0.4,2.4,0.8,4.1,0.8,4.1s23.3,10.3,24.7,10c1.4-0.3,2.6-1.6,2.3-2.9c-0.3-1.4-10.9-9-10.9-9
			L62.8,156.5z"/>
	</g>
	<g>
		<path class="st10" d="M124.3,128.3c1.9,1.2,2.5,3.1,2.5,3.1s-6.3,23.1-7.3,23.9s-2.7,0.9-3.5-0.2c-0.8-1-0.1-13.4-0.1-13.4
			L124.3,128.3z"/>
		<pattern  id="SVGID_26_" xlink:href="#SVGID_23_" patternTransform="matrix(1 0 0 -1 752.4892 -52566.8438)">
		</pattern>
		<path class="st27" d="M124.3,128.3c1.9,1.2,2.5,3.1,2.5,3.1s-6.3,23.1-7.3,23.9s-2.7,0.9-3.5-0.2c-0.8-1-0.1-13.4-0.1-13.4
			L124.3,128.3z"/>
	</g>
	<g>
		<path class="st5" d="M63.1,160.8c-0.6,0.1-0.9,0.9-0.6,1.5c2.6,4.2,5.7,8.7,9.5,13.3c0,0,7.8,8.8,16.3,13.8c0,0,2.5,1.2,5-1.9
			c0,0,1-1.4-2.2-1.8c0,0-0.4-10-0.5-13.3c0-0.7-0.3-1.3-0.8-1.7C82.7,164.6,71.2,158.7,63.1,160.8z"/>
		<path class="st9" d="M91.2,189.3c-0.5,0.2-1,0.3-1.4,0.4c-1,0.1-1.6-0.2-1.6-0.2c-8.4-5-16.3-13.8-16.3-13.9
			c-3.5-4.2-6.7-8.6-9.5-13.3c-0.2-0.3-0.2-0.7-0.1-1.1c0.1-0.3,0.4-0.6,0.8-0.7c3.8-0.9,8.5-0.3,13.8,1.9c4.5,1.9,9.2,4.7,12.9,8
			c0.5,0.5,0.9,1.1,0.9,1.8c0.1,3,0.5,11.9,0.5,13.2c1.2,0.2,2,0.6,2.2,1.1s-0.1,0.9-0.1,0.9C92.7,188.4,91.9,189,91.2,189.3z
			 M63,161c-0.2,0.1-0.3,0.2-0.4,0.4c-0.1,0.2-0.1,0.5,0.1,0.8c2.9,4.6,6.1,9.1,9.5,13.2c0.1,0.1,7.9,8.9,16.2,13.8
			c0.1,0,2.4,1,4.7-1.8c0,0,0.2-0.3,0-0.6c-0.1-0.3-0.6-0.7-2.1-0.9h-0.2v-0.2c0-0.1-0.4-10.1-0.5-13.3c0-0.6-0.3-1.2-0.8-1.6
			C79.3,162.1,68.6,159.6,63,161L63,161C63.1,161,63,160.9,63,161z"/>
	</g>
	<g>
		<path class="st5" d="M119.7,158.1c2.4,2.2,8.9,8,11.1,9.1c0,0-2.2,1.3-0.4,2.2c0,0,3.1,0.4,4.7-2c0,0,0.8-11.2-2.5-22.3
			c0,0-0.4-3-4.8-13.5c-0.3-0.6-1.1-0.8-1.6-0.3c-5.4,5.3-7.7,16.3-7.5,24.8C118.9,156.9,119.2,157.6,119.7,158.1z"/>
		<path class="st9" d="M133.5,169.1c-1.5,0.7-3,0.5-3.1,0.5l0,0c-0.5-0.3-0.8-0.6-0.8-0.9c0-0.6,0.6-1.1,0.9-1.4
			c-2.4-1.4-8.8-7.1-10.9-9l0,0c-0.5-0.5-0.9-1.3-1-2.1c-0.1-8.6,2.2-19.6,7.6-24.9c0.3-0.2,0.7-0.3,1-0.3s0.7,0.3,0.8,0.7
			c4.3,10.4,4.8,13.4,4.8,13.5c3.3,11,2.5,22.2,2.5,22.3l0,0l0,0C134.8,168.3,134.1,168.8,133.5,169.1z M130.5,169.3
			c0.3,0,3.1,0.2,4.5-1.9c0.1-0.8,0.7-11.6-2.4-22.2c0-0.1-0.5-3.2-4.7-13.4c-0.1-0.2-0.3-0.4-0.6-0.5c-0.3-0.1-0.5,0-0.7,0.2
			c-5.3,5.2-7.6,16.1-7.5,24.6c0.1,0.7,0.4,1.4,0.9,1.8c2.2,2,8.9,7.9,11.1,9.1l0.3,0.1l-0.3,0.2c-0.3,0.2-1,0.7-1,1.3
			C129.9,168.8,130.1,169,130.5,169.3z"/>
	</g>
	<g>
		<path class="st5" d="M119.3,116.5c1.9,4.1,4.8,9.6,6.1,12.6c0.3,0.7,0.1,1.6-0.4,2.1c-5.5,5.2-7.7,16.4-7.6,24.9
			c0,0.7-0.4,1.3-1.1,1.6c-4.3,1.9-19.9,9.1-24,11.4c-0.6,0.4-1.4,0.3-1.9-0.2c-6.9-5.9-18.1-11.6-26.2-9.8c-1,0.2-2-0.2-2.5-1.1
			c-2-3.5-4-9.2-5.4-12.2L119.3,116.5z"/>
		<path class="st9" d="M92.2,169.4c-0.6,0.3-1.4,0.2-1.9-0.3c-7-5.9-18.1-11.5-26-9.7c-1.1,0.2-2.2-0.2-2.7-1.2
			c-1.4-2.4-2.8-6-4-8.8c-0.5-1.2-1-2.5-1.4-3.4l-0.1-0.2l63.3-29.5l0.1,0.2c0.8,1.8,1.8,3.8,2.8,5.8c1.3,2.6,2.5,5.1,3.3,6.8
			c0.3,0.8,0.1,1.7-0.5,2.3c-5.4,5.1-7.7,16.1-7.6,24.7c0,0.8-0.4,1.5-1.2,1.8c-3.8,1.7-19.9,9-24,11.4
			C92.3,169.3,92.3,169.3,92.2,169.4z M56.6,145.9c0.4,0.9,0.8,2,1.3,3.2c1.1,2.8,2.6,6.4,4,8.8c0.5,0.8,1.4,1.2,2.3,1.1
			c8-1.8,19.2,3.9,26.3,9.8c0.5,0.4,1.2,0.5,1.7,0.2c4.2-2.4,20.3-9.7,24-11.4c0.6-0.3,0.9-0.8,0.9-1.5c-0.1-8.7,2.2-19.8,7.7-25
			c0.5-0.5,0.7-1.2,0.4-1.9c-0.7-1.7-1.9-4.2-3.3-6.8c-0.9-1.9-1.9-3.9-2.7-5.7L56.6,145.9L56.6,145.9z"/>
	</g>
	<g>
		<g>
			<g>
				<g>
					<g>
						<g>
							<defs>
								<path id="SVGID_27_" d="M119.3,116.5c1.9,4.1,4.8,9.6,6.1,12.6c0.3,0.7,0.1,1.6-0.4,2.1c-5.5,5.2-7.7,16.4-7.6,24.9
									c0,0.7-0.4,1.3-1.1,1.6c-4.3,1.9-19.9,9.1-24,11.4c-0.6,0.4-1.4,0.3-1.9-0.2c-6.9-5.9-18.1-11.6-26.2-9.8
									c-1,0.2-2-0.2-2.5-1.1c-2-3.5-4-9.2-5.4-12.2L119.3,116.5z"/>
							</defs>
							<clipPath id="SVGID_28_">
								<use xlink:href="#SVGID_27_"  style="overflow:visible;"/>
							</clipPath>
							<path class="st28" d="M123.9,119.3c-0.1,3.5-3.5,14.1-29.4,26.2s-34.8,7.3-38.3,6l-2.2-7.8l64.9-31.1L123.9,119.3z"/>
						</g>
					</g>
				</g>
			</g>
		</g>
		<g>
			<g>
				<g>
					<g>
						<g>
							<defs>
								<path id="SVGID_29_" d="M119.3,116.5c1.9,4.1,4.8,9.6,6.1,12.6c0.3,0.7,0.1,1.6-0.4,2.1c-5.5,5.2-7.7,16.4-7.6,24.9
									c0,0.7-0.4,1.3-1.1,1.6c-4.3,1.9-19.9,9.1-24,11.4c-0.6,0.4-1.4,0.3-1.9-0.2c-6.9-5.9-18.1-11.6-26.2-9.8
									c-1,0.2-2-0.2-2.5-1.1c-2-3.5-4-9.2-5.4-12.2L119.3,116.5z"/>
							</defs>
							<clipPath id="SVGID_30_">
								<use xlink:href="#SVGID_29_"  style="overflow:visible;"/>
							</clipPath>
							<g class="st29">
								<g>
									<g>
										<g>
											<g>
												<g>
													<defs>
														<path id="SVGID_31_" d="M123.9,119.3c-0.1,3.5-3.5,14.1-29.4,26.2s-34.8,7.3-38.3,6l-2.2-7.8l64.9-31.1L123.9,119.3z"
															/>
													</defs>
													<clipPath id="SVGID_32_">
														<use xlink:href="#SVGID_31_"  style="overflow:visible;"/>
													</clipPath>
													<g class="st30">
														<path class="st31" d="M58.5,143.7c-0.1,1.1,0.3,2.2,0.7,3.2c1.7,4.3,4,8.4,6.7,12.2"/>
														<g>
															<g>
																<path class="st32" d="M60.8,142.5c-0.1,1.4,0.5,2.6,1,3.9c0.6,1.4,1.2,2.7,1.9,4c1.4,2.7,2.9,5.3,4.6,7.7
																	c0.4,0.5,1.1-0.1,0.8-0.7c-1.7-2.3-3.1-4.8-4.4-7.4c-0.7-1.3-1.3-2.6-1.8-3.9c-0.5-1.1-1.1-2.4-1-3.7
																	C61.8,141.9,60.9,141.8,60.8,142.5L60.8,142.5z"/>
															</g>
															<path class="st33" d="M61.3,142.5c-0.1,1.1,0.3,2.1,0.8,3.2c1.8,4.3,4,8.3,6.6,12.1"/>
														</g>
														<g>
															<g>
																<path class="st32" d="M63.6,141.3c0,1.4,0.5,2.6,1.1,3.8c0.6,1.4,1.2,2.7,1.9,4.1c1.3,2.6,2.9,5.2,4.5,7.6
																	c0.4,0.5,1.1-0.1,0.8-0.7c-1.6-2.3-3-4.7-4.3-7.3c-0.6-1.2-1.2-2.5-1.8-3.8c-0.5-1.2-1.2-2.5-1.1-3.8
																	C64.6,140.7,63.6,140.6,63.6,141.3L63.6,141.3z"/>
															</g>
															<path class="st34" d="M64.1,141.3c-0.1,1.1,0.4,2.1,0.8,3.1c1.8,4.2,4,8.3,6.6,12.1"/>
														</g>
														<g>
															<g>
																<path class="st32" d="M66.4,140.1c0,1.4,0.5,2.6,1.1,3.8c0.6,1.4,1.2,2.7,1.9,4c1.3,2.6,2.8,5.2,4.5,7.6
																	c0.4,0.5,1.1-0.1,0.8-0.7c-1.5-2.4-3-4.8-4.2-7.3c-0.6-1.2-1.2-2.5-1.8-3.7c-0.5-1.2-1.2-2.4-1.2-3.7
																	C67.4,139.6,66.4,139.5,66.4,140.1L66.4,140.1z"/>
															</g>
															<path class="st35" d="M66.9,140.1c0,1.1,0.4,2.1,0.8,3.1c1.8,4.2,4,8.2,6.5,12"/>
														</g>
														<g>
															<g>
																<path class="st32" d="M69.2,138.9c0,1.4,0.6,2.6,1.1,3.8c0.6,1.4,1.2,2.7,1.9,4c1.3,2.6,2.8,5.1,4.4,7.6
																	c0.1,0.2,0.5,0.2,0.7,0s0.2-0.5,0-0.7c-1.5-2.3-2.9-4.8-4.2-7.3c-0.6-1.2-1.2-2.5-1.8-3.7c-0.5-1.1-1.2-2.3-1.2-3.6
																	c0-0.3-0.2-0.5-0.5-0.6C69.5,138.4,69.2,138.6,69.2,138.9L69.2,138.9z"/>
															</g>
															<path class="st36" d="M69.7,139c0,1,0.4,2.1,0.9,3c1.8,4.1,4,8.2,6.4,11.9"/>
														</g>
														<g>
															<g>
																<path class="st32" d="M72,137.9c0.1,1.3,0.7,2.5,1.2,3.7c0.6,1.3,1.2,2.6,1.9,3.8c1.3,2.5,2.7,5,4.2,7.4
																	c0.3,0.6,1.2,0.1,0.9-0.4c-1.5-2.4-2.9-4.8-4.1-7.3c-0.6-1.2-1.2-2.5-1.8-3.7c-0.6-1.2-1.2-2.5-1.3-3.8
																	C72.9,137,71.9,137.2,72,137.9L72,137.9z"/>
															</g>
															<path class="st37" d="M72.5,137.8c0,1,0.5,2,0.9,3c1.8,4.1,4,8.1,6.4,11.9"/>
														</g>
														<g>
															<g>
																<path class="st32" d="M74.7,136.7c0.1,1.3,0.7,2.5,1.3,3.7c0.6,1.3,1.2,2.5,1.8,3.8c1.3,2.5,2.7,5,4.1,7.4
																	c0.3,0.6,1.2,0.1,0.9-0.4c-1.4-2.4-2.8-4.8-4.1-7.3c-0.6-1.2-1.2-2.5-1.8-3.7c-0.6-1.2-1.2-2.3-1.3-3.7
																	C75.7,135.8,74.7,136,74.7,136.7L74.7,136.7z"/>
															</g>
															<path class="st38" d="M75.3,136.6c0.1,1,0.5,2,0.9,3c1.9,4.1,4,8,6.2,11.8"/>
														</g>
														<g>
															<g>
																<path class="st32" d="M77.5,135.5c0.1,1.3,0.7,2.4,1.3,3.6c0.6,1.3,1.2,2.5,1.9,3.8c1.3,2.5,2.6,5,4.1,7.4
																	c0.3,0.6,1.2,0.1,0.9-0.4c-1.4-2.4-2.7-4.8-4-7.3c-0.6-1.2-1.2-2.5-1.9-3.7c-0.5-1.2-1.1-2.3-1.3-3.6
																	C78.4,134.7,77.4,134.8,77.5,135.5L77.5,135.5z"/>
															</g>
															<path class="st39" d="M78,135.4c0.1,1,0.5,2,1,2.9c1.9,4,3.9,8,6.2,11.8"/>
														</g>
														<g>
															<g>
																<path class="st32" d="M80.3,134.3c0.2,1.3,0.8,2.4,1.4,3.6c0.6,1.3,1.2,2.5,1.9,3.8c1.3,2.5,2.6,4.9,3.9,7.3
																	c0.3,0.6,1.2,0.1,0.9-0.4c-1.4-2.4-2.6-4.7-3.9-7.2c-0.6-1.2-1.2-2.4-1.8-3.6c-0.6-1.2-1.2-2.4-1.4-3.7
																	C81.2,133.5,80.2,133.7,80.3,134.3L80.3,134.3z"/>
															</g>
															<path class="st40" d="M80.8,134.2c0.1,1,0.6,2,1,2.9c1.9,4,3.9,7.9,6.1,11.7"/>
														</g>
														<g>
															<g>
																<path class="st32" d="M83.1,133.1c0.3,1.3,0.8,2.4,1.4,3.6c0.6,1.2,1.2,2.5,1.9,3.7c1.3,2.5,2.5,4.9,3.9,7.3
																	c0.3,0.6,1.2,0.1,0.9-0.4c-1.3-2.4-2.6-4.8-3.8-7.2c-0.6-1.2-1.2-2.4-1.8-3.6c-0.6-1.2-1.2-2.4-1.5-3.6
																	C84,132.3,83,132.5,83.1,133.1L83.1,133.1z"/>
															</g>
															<path class="st41" d="M83.6,133c0.2,1,0.6,1.9,1.1,2.9c1.9,3.9,3.9,7.9,6,11.6"/>
														</g>
														<g>
															<g>
																<path class="st32" d="M85.9,131.9c0.3,1.2,0.9,2.4,1.4,3.6c0.6,1.2,1.2,2.5,1.8,3.7c1.3,2.5,2.5,4.9,3.8,7.3
																	c0.3,0.6,1.2,0.1,0.9-0.4c-1.3-2.4-2.5-4.8-3.7-7.2c-0.6-1.2-1.2-2.4-1.8-3.6c-0.6-1.1-1.2-2.3-1.5-3.6
																	C86.7,131.1,85.7,131.3,85.9,131.9L85.9,131.9z"/>
															</g>
															<path class="st42" d="M86.4,131.8c0.2,1,0.7,1.9,1.1,2.8c1.9,3.9,3.9,7.8,6,11.6"/>
														</g>
														<g>
															<g>
																<path class="st32" d="M88.6,130.7c0.3,1.3,0.9,2.4,1.5,3.6c0.6,1.2,1.2,2.4,1.8,3.6c1.2,2.4,2.5,4.8,3.7,7.2
																	c0.3,0.6,1.2,0.1,0.9-0.4c-1.2-2.4-2.4-4.7-3.6-7.1c-0.6-1.2-1.2-2.4-1.8-3.5c-0.6-1.1-1.2-2.3-1.5-3.5
																	C89.5,129.9,88.5,130.1,88.6,130.7L88.6,130.7z"/>
															</g>
															<path class="st43" d="M89.2,130.6c0.2,0.9,0.7,1.9,1.2,2.8c1.9,3.8,3.9,7.7,5.9,11.5"/>
														</g>
														<g>
															<g>
																<path class="st32" d="M91.4,129.5c0.4,1.2,0.9,2.3,1.5,3.5s1.2,2.4,1.9,3.7c1.2,2.4,2.4,4.8,3.6,7.2
																	c0.3,0.6,1.2,0.1,0.9-0.4c-1.2-2.3-2.4-4.7-3.6-7.1c-0.6-1.2-1.2-2.3-1.8-3.5c-0.6-1.1-1.2-2.3-1.6-3.5
																	C92.3,128.8,91.3,128.9,91.4,129.5L91.4,129.5z"/>
															</g>
															<path class="st44" d="M91.9,129.4c0.2,0.9,0.7,1.9,1.2,2.7c2,3.8,3.9,7.6,5.8,11.4"/>
														</g>
														<g>
															<g>
																<path class="st32" d="M94.3,128.5c0.4,1.2,1,2.3,1.6,3.4c0.6,1.2,1.2,2.4,1.8,3.5c1.2,2.4,2.4,4.7,3.5,7.1
																	c0.3,0.6,1.2,0.2,0.9-0.4c-1.2-2.4-2.3-4.7-3.5-7.1c-0.6-1.2-1.2-2.4-1.8-3.5c-0.6-1.1-1.2-2.3-1.6-3.4
																	C95,127.4,94.1,127.8,94.3,128.5L94.3,128.5z"/>
															</g>
															<path class="st45" d="M94.7,128.2c0.3,0.9,0.8,1.8,1.2,2.7c1.9,3.8,3.9,7.6,5.7,11.4"/>
														</g>
														<g>
															<g>
																<path class="st32" d="M97.1,127.3c0.4,1.2,1.1,2.3,1.7,3.4c0.6,1.2,1.2,2.3,1.8,3.5c1.2,2.3,2.4,4.7,3.5,7.1
																	c0.3,0.6,1.2,0.2,0.9-0.4c-1.1-2.4-2.3-4.8-3.5-7.1c-0.6-1.2-1.2-2.3-1.8-3.5c-0.6-1.1-1.2-2.2-1.7-3.4
																	C97.7,126.2,96.8,126.7,97.1,127.3L97.1,127.3z"/>
															</g>
															<path class="st46" d="M97.5,127.1c0.3,0.9,0.8,1.8,1.3,2.7c2,3.7,3.9,7.5,5.6,11.3"/>
														</g>
														<g>
															<g>
																<path class="st32" d="M99.8,126.1c0.5,1.2,1.1,2.3,1.8,3.4c0.6,1.2,1.2,2.3,1.8,3.5c1.2,2.3,2.3,4.6,3.3,7
																	c0.3,0.6,1.2,0.2,0.9-0.4c-1.1-2.4-2.2-4.7-3.3-7c-0.6-1.1-1.2-2.3-1.8-3.4c-0.6-1.2-1.3-2.3-1.8-3.5
																	C100.5,125.1,99.6,125.5,99.8,126.1L99.8,126.1z"/>
															</g>
															<path class="st47" d="M100.3,125.9c0.4,0.9,0.8,1.8,1.3,2.7c2,3.7,3.9,7.5,5.6,11.3"/>
														</g>
														<g>
															<g>
																<path class="st32" d="M102.6,124.9c0.5,1.1,1.2,2.2,1.7,3.3c0.6,1.2,1.2,2.3,1.8,3.5c1.2,2.3,2.2,4.6,3.3,7
																	c0.2,0.6,1.2,0.2,0.9-0.4c-1-2.4-2.1-4.7-3.3-7c-0.6-1.1-1.2-2.3-1.8-3.4c-0.6-1.1-1.3-2.2-1.8-3.4
																	C103.3,123.9,102.4,124.3,102.6,124.9L102.6,124.9z"/>
															</g>
															<path class="st48" d="M103.1,124.7c0.4,0.9,0.9,1.7,1.4,2.6c2,3.6,3.9,7.4,5.5,11.2"/>
														</g>
														<g>
															<g>
																<path class="st32" d="M105.4,123.7c1.1,2.3,2.4,4.5,3.6,6.7c1.1,2.3,2.2,4.6,3.2,7c0.2,0.6,1.2,0.2,0.9-0.4
																	c-1-2.4-2-4.7-3.2-7c-1.1-2.3-2.5-4.4-3.6-6.7C106,122.7,105.1,123.1,105.4,123.7L105.4,123.7z"/>
															</g>
															<path class="st49" d="M105.9,123.5c0.4,0.8,0.9,1.7,1.4,2.6c2,3.6,3.8,7.3,5.4,11.1"/>
														</g>
														<g>
															<g>
																<path class="st32" d="M108.2,122.5c1.2,2.2,2.5,4.4,3.7,6.6c1.1,2.3,2.2,4.6,3.1,7c0.2,0.6,1.2,0.2,0.9-0.4
																	c-0.9-2.4-2-4.7-3.1-7s-2.4-4.4-3.7-6.6C108.8,121.5,107.9,122,108.2,122.5L108.2,122.5z"/>
															</g>
															<path class="st50" d="M108.7,122.3c0.5,0.8,0.9,1.7,1.4,2.5c2,3.6,3.8,7.3,5.3,11.1"/>
														</g>
														<g>
															<g>
																<path class="st32" d="M111,121.3c1.3,2.2,2.5,4.3,3.7,6.6c1.1,2.3,2.1,4.6,3,7c0.2,0.6,1.2,0.2,0.9-0.4
																	c-0.9-2.4-1.9-4.7-3-7s-2.4-4.4-3.7-6.6C111.6,120.4,110.7,120.8,111,121.3L111,121.3z"/>
															</g>
															<path class="st51" d="M111.4,121.1c0.5,0.8,1,1.7,1.5,2.5c2.1,3.5,3.8,7.2,5.2,11"/>
														</g>
														<g>
															<g>
																<path class="st32" d="M113.8,120.1c2.7,4.2,5,8.7,6.7,13.4c0.2,0.6,1.1,0.2,0.9-0.4c-1.7-4.7-4-9.2-6.7-13.4
																	C114.3,119.2,113.4,119.6,113.8,120.1L113.8,120.1z"/>
															</g>
															<path class="st52" d="M114.2,119.9c0.5,0.8,1,1.6,1.5,2.4c2.1,3.5,3.8,7.2,5.2,11"/>
														</g>
														<g>
															<g>
																<path class="st32" d="M116.6,119.1c2.8,4.1,5,8.5,6.6,13.2c0.2,0.6,1.1,0.2,0.9-0.4c-1.6-4.8-3.9-9.3-6.7-13.4
																	C117,117.9,116.2,118.5,116.6,119.1L116.6,119.1z"/>
															</g>
														</g>
													</g>
												</g>
											</g>
										</g>
									</g>
								</g>
							</g>
						</g>
					</g>
				</g>
			</g>
		</g>
	</g>
	<g>
		<path class="st5" d="M98.6,154.8c-2.4-0.3-11.9-1.5-13.7-1.6c-0.1,0-0.3,0-0.4-0.1c-0.1,0-0.2-0.3-0.3-0.4l-2.4-4.6l-0.6,0.1
			c-3.7,0.8-7.5,1.6-11.3,1.4c-4.1-0.2-7.9-1.4-12.6-3.1c-0.4-0.1-0.7-0.5-0.9-0.9c-0.6-1.3-1.1-2.5-1.6-3.8
			c-1.9-5.1,0.4-11,5.4-13.3c0.1,0,0.2-0.1,0.3-0.1l47-20.2c3.4-1.5,7.2,0,8.8,3.3c0.8,1.7,1.6,3.4,2.4,5c0.2,0.4,0.2,0.8,0,1.2v0.1
			c-1.6,4.6-3.2,8.4-5.7,11.6c-2.3,3-5.4,5.4-8.3,7.7l-0.5,0.4l1.9,4.7c0.1,0.2,0.1,0.4,0.2,0.5c0,0-0.1,0.1-0.1,0.2
			c-0.1,0.1-0.1,0.2-0.2,0.3C105.9,143.9,101.6,150.3,98.6,154.8z"/>
		<path class="st32" d="M60.6,129.4c0.1,0,0.2-0.1,0.3-0.1l47-20.2c2.9-1.3,6.3,0,7.7,2.9c0.8,1.7,1.6,3.4,2.4,5
			c0.1,0.2,0.1,0.4,0,0.6l0,0c-1.6,4.6-3.2,8.2-5.6,11.4c-2.2,2.9-5.2,5.3-8.1,7.6l-1,0.8l0.5,1.2l0.9,2.1l0.8,2.1l0,0
			c0,0.1-0.1,0.1-0.1,0.2c-0.3,0.5-4.4,6.7-7.2,11c-3-0.4-11.5-1.4-13.3-1.5l0,0l-1-2l-1.1-2.1l-0.6-1.1l-1.3,0.3
			c-3.6,0.8-7.4,1.5-11,1.4c-3.9-0.2-7.8-1.3-12.3-3.1c-0.2-0.1-0.4-0.2-0.4-0.4c-0.6-1.3-1.1-2.5-1.5-3.8
			C53.8,136.9,56,131.5,60.6,129.4 M59.9,127.8c-5.4,2.5-8,8.8-5.8,14.4c0.4,1.2,1,2.5,1.6,3.8c0.3,0.6,0.8,1.1,1.4,1.3l0,0
			c4.1,1.6,8.4,3,12.8,3.1c3.9,0.2,7.7-0.6,11.5-1.4c0.7,1.3,1.4,2.7,2.1,4c0.1,0.3,0.3,0.6,0.6,0.7c0.3,0.1,0.5,0.2,0.8,0.2
			c2.1,0.1,14.2,1.7,14.2,1.7s7.5-11.3,7.9-11.9c0.1-0.3,0.3-0.5,0.4-0.7c0-0.3-0.1-0.6-0.2-0.9c-0.6-1.4-1.2-2.8-1.7-4.2
			c3-2.4,6.1-4.8,8.5-7.9c2.7-3.5,4.4-7.7,5.8-11.8v-0.1c0.2-0.6,0.2-1.3-0.1-1.9c-0.7-1.6-1.5-3.3-2.4-5c-1.8-3.7-6.1-5.3-9.9-3.7
			l-47,20.2C60.1,127.8,60,127.8,59.9,127.8L59.9,127.8z"/>
	</g>
	<g>
		<g>
			<path class="st53" d="M93.1,150.2c0.7,0,1.4-0.1,2-0.4c0.4-0.2,0.8-0.5,1.2-0.7c0.7-0.5,1.3-1.2,1.6-2.1c0-0.1,0-0.2,0-0.3
				c-0.1,0-0.1,0-0.1,0.1c-0.5,1-1.3,1.7-2.4,2c-1,0.3-1.9,0.2-2.9-0.2c-1.1-0.5-1.9-1.4-2.2-2.5c-0.3-1-0.4-2-0.1-3
				c0.2-0.9,0.7-1.6,1.4-2.2c0.8-0.7,1.7-1.2,2.7-1.5c0.7-0.2,1.3-0.1,2,0c0,0,0.1,0,0.2,0c0,0,0-0.1-0.1-0.1
				c-0.9-0.3-1.9-0.5-2.8-0.3c-0.5,0.1-0.9,0.2-1.3,0.3l-0.7,0.3c0,0,0,0,0,0.1c-0.9,0.5-1.6,1.1-2.2,1.9c-0.6,0.9-1,1.9-1.1,2.9
				c-0.1,1.3,0.2,2.6,0.9,3.7c0.3,0.5,0.7,0.9,1.1,1.2c0.6,0.4,1.4,0.8,2,0.9C92.7,150.2,92.9,150.2,93.1,150.2"/>
		</g>
		<g>
			<path class="st54" d="M99.9,142.5c-0.6-1.3-1.6-2.2-3-2.6c-1.5-0.4-2.9-0.2-4.3,0.7c-0.9,0.6-1.6,1.3-2,2.4c0,0.1,0,0.1-0.1,0.2
				c0,0,0,0,0.1,0c0-0.1,0.1-0.1,0.1-0.1c0.5-0.9,1.3-1.5,2.4-1.9c1.3-0.4,2.4-0.2,3.5,0.5s1.6,1.7,1.8,2.9c0.3,1.6-0.1,3.1-1.2,4.3
				c-0.7,0.8-1.6,1.3-2.6,1.6c-0.7,0.2-1.4,0.2-2.1,0.1c-0.1,0-0.3-0.1-0.4,0c0,0,0,0.1-0.1,0.1c0,0,0.1,0.1,0.1,0
				c1.3,0.4,2.6,0.5,3.8,0.1c1.3-0.4,2.4-1.1,3.1-2.2C100.6,146.6,100.9,144.6,99.9,142.5"/>
		</g>
		<g>
			<path class="st55" d="M96.1,144.1c-0.3,0.9-0.7,1.7-1,2.5l-0.2,0.1c-0.6-0.2-1.2-0.5-1.8-0.7c-0.2-0.1-0.4-0.1-0.6-0.3
				c0-0.1,0.1-0.2,0.1-0.3c0.3-0.7,0.6-1.5,0.8-2.2c0-0.1,0.1-0.2,0.2-0.1c0.6,0.2,1.2,0.5,1.8,0.7C95.6,143.9,95.9,144,96.1,144.1"
				/>
		</g>
	</g>
	<g>
		<circle class="st56" cx="122.7" cy="132.3" r="0.7"/>
		<line class="st57" x1="123" y1="131.8" x2="122.6" y2="132.8"/>
		<line class="st57" x1="122.3" y1="132.2" x2="123.2" y2="132.5"/>
	</g>
	<g>
		<ellipse class="st56" cx="117.6" cy="142.9" rx="0.7" ry="0.7"/>
		<line class="st57" x1="117.9" y1="142.3" x2="117.5" y2="143.4"/>
		<line class="st57" x1="117.2" y1="142.7" x2="118.1" y2="143"/>
	</g>
	<g>
		<circle class="st56" cx="113.9" cy="157.2" r="0.7"/>
		<line class="st57" x1="114.2" y1="156.7" x2="113.8" y2="157.7"/>
		<line class="st57" x1="113.5" y1="157" x2="114.4" y2="157.4"/>
	</g>
	<g>
		<circle class="st56" cx="66.6" cy="157.4" r="0.7"/>
		<line class="st57" x1="66.1" y1="157.2" x2="67.1" y2="157.6"/>
		<line class="st57" x1="66.8" y1="156.9" x2="66.4" y2="157.9"/>
	</g>
	<g>
		<circle class="st56" cx="78.8" cy="160.6" r="0.7"/>
		<line class="st57" x1="78.3" y1="160.4" x2="79.3" y2="160.8"/>
		<line class="st57" x1="79" y1="160.1" x2="78.7" y2="161.1"/>
	</g>
	<g>
		<circle class="st56" cx="93.4" cy="167.2" r="0.7"/>
		<line class="st57" x1="92.9" y1="167" x2="93.9" y2="167.3"/>
		<line class="st57" x1="93.6" y1="166.7" x2="93.2" y2="167.6"/>
	</g>
	<circle class="st58" cx="70.4" cy="91.3" r="50.9"/>
	<g>
		<path class="st59" d="M90.2,62.3c-10.6-8.4-26-6.1-35.9-2.7c0,0-10.4,3.2-6.8,7c0,0,5.5,3.6-4.4,6.2c-12.6,3.2-10.8,28.4-2.5,40.1
			c8.1,11.3,26.5,13.6,48.5-0.7c2.3-1.5,10.5-8,13.2-12.5C113.6,80.5,99,69.3,90.2,62.3z"/>
		<g>
			<path class="st60" d="M86,74.1c-0.6-0.1-1.2,0.3-1.3,1l-0.5,3.3c-0.1,0.6,0.3,1.2,1,1.3c0.3,0,0.6,0,0.9-0.2
				c0.2-0.2,0.4-0.5,0.5-0.8l0.5-3.3C87.1,74.8,86.7,74.2,86,74.1z"/>
		</g>
		<g>
			<path class="st60" d="M89.5,73.5c-0.6-0.1-1.2,0.3-1.3,1l-0.5,3.3c-0.1,0.6,0.3,1.2,1,1.3c0.3,0,0.6,0,0.9-0.2
				c0.2-0.2,0.4-0.5,0.5-0.8l0.5-3.3C90.5,74.2,90.1,73.6,89.5,73.5z"/>
		</g>
		<g>
			<path class="st60" d="M48.3,94.1c-0.6-0.1-1.2,0.3-1.3,1l-0.5,3.3c-0.1,0.6,0.3,1.2,1,1.3c0.3,0,0.6,0,0.9-0.2
				c0.2-0.2,0.4-0.5,0.5-0.8l0.5-3.3C49.3,94.7,48.9,94.1,48.3,94.1z"/>
		</g>
		<g>
			<path class="st60" d="M51.7,93.4c-0.6-0.1-1.2,0.3-1.3,1l-0.5,3.3c-0.1,0.6,0.3,1.2,1,1.3c0.3,0,0.6,0,0.9-0.2
				c0.2-0.2,0.4-0.5,0.5-0.8l0.5-3.3C52.7,94.1,52.3,93.5,51.7,93.4z"/>
		</g>
		<path class="st61" d="M71.5,99.9c0,0,3.9,6.7,8.4,3.7c4.5-3.1,0.7-8.6,0-10.2s-6.5-1.5-6.5-1.5L71.5,99.9z"/>
		<g>
			<path class="st60" d="M86.7,82.3c-1.9-0.8-4.2-0.5-6.1,0.1c-3.2,1.1-5.9,3.6-7.2,6.7C73,90,73,90.9,73.3,91.8
				c-0.4-0.3-0.8-0.6-1.3-0.8c-3.5-1.7-7.9-1-11.3,0.8c-2.5,1.4-5.3,3.4-6.5,6.1V98c-1,2.3-0.4,5.4,1.9,6.6c1.6,0.9,3.8,0.7,5.6,0.4
				c4.1-0.7,8.9-2.4,11.5-5.8c0.9-1.1,1.4-2.4,1.5-3.8c0-0.6,0-1.2-0.2-1.8c1,0.8,2.3,0.9,3.5,0.7c2.9-0.4,6-1.5,8.3-3.4
				C88.9,88.8,90.8,84,86.7,82.3z"/>
		</g>
		<g>
			<path class="st62" d="M75.2,92.9c1.1-1,2.5-3.1,1.4-5.1c-1.7-3.3-6.8-1.9-9-0.5c-2.6,1.6-3.7,5.4-1.9,7.8
				c1.5,1.9,4.6,0.9,6.8-0.2C72.4,94.8,74.1,94,75.2,92.9z"/>
		</g>
		<g>
			<path class="st62" d="M58,92L58,92c-1.9,0.7-4.1-0.3-4.8-2.2l0,0c-0.7-1.9,0.3-4.1,2.2-4.8l0,0c1.9-0.7,4.1,0.3,4.8,2.2l0,0
				C60.9,89.1,59.9,91.3,58,92z"/>
		</g>
		<g>
			<path class="st62" d="M78.6,81.9L78.6,81.9c-1.9,0.7-4.1-0.3-4.8-2.2l0,0c-0.7-1.9,0.3-4.1,2.2-4.8l0,0c1.9-0.7,4.1,0.3,4.8,2.2
				l0,0C81.4,79.1,80.5,81.2,78.6,81.9z"/>
		</g>
		<ellipse transform="matrix(0.938 -0.3467 0.3467 0.938 -20.767 28.7227)" class="st62" cx="69.9" cy="72.4" rx="2.5" ry="1.6"/>
		<ellipse transform="matrix(0.938 -0.3467 0.3467 0.938 -24.3142 23.8511)" class="st62" cx="54.5" cy="79.9" rx="2.5" ry="1.6"/>
		<g>
			<path class="st60" d="M84.3,101.9c-0.5,0.2-0.8,0.8-0.6,1.3c0.2,0.7-0.9,2.1-1.8,2.8c-1.8,1.4-3.7,1.6-4.2,1.6
				c-0.3-0.2-0.6-0.2-0.9,0c-0.5,0.2-0.7,0.9-0.5,1.4c0.1,0.2,0.4,0.5,0.9,0.6c1.1,0.3,3.8-0.2,6.1-2c0.1,0,0.2-0.1,0.3-0.3
				c0.8-0.8,2.8-2.8,2.1-4.8C85.4,102,84.8,101.7,84.3,101.9z M78.1,108.1L78.1,108.1L78.1,108.1z"/>
		</g>
	</g>
	<path class="st63" d="M26.6,101.1c2.4-5.2-0.8-20.8,29.5-35.3s50.6-2.8,50.6-2.8l0.6-9.2L79.4,40.2L41.4,62L21.1,83l0.3,15.7
		L26.6,101.1z"/>
	<g>
		<path class="st64" d="M89.3,139.4c-9.7,4.5-22,3.5-32.5,2.2c-9.7-1.2-20.7-11.1-25.4-16.3l8.5-5.8c7.1,8,26.2,11.5,42.3,3.8
			c9.1-4.4,17.4-10.8,22.7-17.7c4.1-5.3,8.3-13.4,5.1-21.7l9.6-4c3.5,9,1.6,23.7-3.8,35.3c-4.6,10-15.1,18.8-26,24.1
			C89.7,139.2,89.5,139.3,89.3,139.4z"/>
	</g>
	<g>
		<path class="st5" d="M24.6,98.5c0,0-5.5-19.2,32.5-36.9s46.2-1.7,46.2-1.7s5,37,18.2,30.1c13.2-6.9,2.3-27.1-6.8-35.8
			S82.6,21.4,45.7,39S9.2,90.8,13.9,105s13.8,32.9,23.6,28.4S40.4,111,24.6,98.5z"/>
		<path class="st9" d="M37.6,133.5c-2,0.9-4.1,0.9-6.1,0c-3.4-1.4-6.8-5.3-10.2-11.3s-5.9-12.7-7.4-17.3c-2.4-7.3-3.6-19.4,0.3-31.9
			c4.7-14.9,15.6-26.8,31.6-34.4c35.9-17.1,58.6,5,68.3,14.5l0.8,0.8c6.1,5.9,14.1,18.4,12.8,27.6c-0.5,3.8-2.6,6.6-6.1,8.5
			c-2.1,1.1-4.2,1.2-6.1,0.2c-3.7-1.9-6.9-7.6-9.5-17c-1.9-6.7-2.8-12.9-2.9-13.4c-0.2-0.3-2.4-4-8.8-5.7
			c-6.2-1.6-17.7-1.6-37.2,7.5c-10.8,5-24.9,13.5-30.4,25c-3.1,6.5-2.1,11.1-2,11.6c11,8.7,18.3,20.8,17.3,28.7
			C41.7,130.1,40.2,132.3,37.6,133.5z M46.5,38.8c-0.2,0.1-0.4,0.2-0.6,0.3C30,46.7,19.1,58.5,14.5,73.3
			c-3.9,12.4-2.7,24.5-0.3,31.7c1.9,5.7,8.8,24.6,17.5,28.4c2,0.9,4,0.8,5.9,0c2.5-1.2,4-3.3,4.3-6.2c0.9-7.8-6.3-19.8-17.3-28.4
			l0,0v-0.1c0,0-1.3-4.9,2-11.9c3.1-6.4,10.9-16,30.6-25.2c10.8-5.1,26.2-10.5,37.5-7.5c6.8,1.8,8.9,5.7,9,5.9l0,0l0,0
			c0,0.2,3.6,25.7,12.2,30.2c1.8,0.9,3.8,0.9,5.8-0.2c3.4-1.8,5.4-4.5,5.9-8.2c0.8-5.5-2.6-17.6-12.7-27.3l-0.8-0.8
			C104.3,44.1,81.8,22.3,46.5,38.8z"/>
	</g>
	<g>
		<g>
			<g>
				<g>
					<g>
						<g>
							<defs>
								<path id="SVGID_33_" d="M24.6,98.5c0,0-5.5-19.2,32.5-36.9s46.2-1.7,46.2-1.7s5,37,18.2,30.1c13.2-6.9,2.3-27.1-6.8-35.8
									S82.6,21.4,45.7,39S9.2,90.8,13.9,105s13.8,32.9,23.6,28.4S40.4,111,24.6,98.5z"/>
							</defs>
							<clipPath id="SVGID_36_">
								<use xlink:href="#SVGID_33_"  style="overflow:visible;"/>
							</clipPath>
							<g class="st65">
								<g>
									<g>
										<path class="st19" d="M16.2,55.7c1.3,5.4,4.7,9.9,9,13.3c4.4,3.4,9.8,5.5,15.2,6.7c3.1,0.7,6.2,1.2,9.4,1.5
											c0.7,0.1,0.7-0.9,0.1-1C44.4,75.6,39,74.7,34,72.7c-5-1.9-9.6-5-12.9-9.2c-1.8-2.3-3.2-5-3.9-7.9
											C17.1,54.9,16.1,55.1,16.2,55.7L16.2,55.7z"/>
									</g>
								</g>
								<g>
									<g>
										<path class="st19" d="M78.4,27.1c3.2,4.3,4.4,9.7,4.1,15c-0.3,5.4-2.1,10.6-4.6,15.4c-1.4,2.7-3,5.3-4.7,7.9
											c-0.3,0.5,0.5,1.1,0.8,0.6c3.1-4.7,5.9-9.6,7.7-14.9c1.8-5.2,2.4-10.9,1.1-16.3c-0.7-3-1.9-5.8-3.7-8.3
											C78.7,25.9,78,26.5,78.4,27.1L78.4,27.1z"/>
									</g>
								</g>
							</g>
						</g>
					</g>
				</g>
			</g>
		</g>
	</g>
	<g>
		<path class="st13" d="M121.8,56.1c-2.1-0.1-2.6-1.4-7.3,0.6c-3.2,1.3-3.2,8.4-0.1,15.8c3.1,7.3,8.2,12.3,11.3,10.9
			c3.8-1.6,3.6-2.5,5.2-4.3C132.6,77.3,123.9,56.2,121.8,56.1z"/>
		
			<ellipse transform="matrix(0.9219 -0.3874 0.3874 0.9219 -16.5149 53.8465)" class="st54" cx="125.3" cy="67.9" rx="5.4" ry="12.5"/>
		
			<pattern  id="SVGID_37_" xlink:href="#SVGID_34_" patternTransform="matrix(1.0761 4.145353e-02 4.145353e-02 -1.0761 4463.4258 -56287.0508)">
		</pattern>
		<path class="st66" d="M130.3,65.8c2.7,6.4,2.6,12.5-0.1,13.7c-2.8,1.2-7.1-3.1-9.8-9.5c-2.7-6.4-2.6-12.5,0.1-13.7
			C123.2,55.1,127.6,59.4,130.3,65.8z"/>
		<g>
			<path class="st67" d="M120.4,56.3l0.9,2c0.2-0.1,1.2,0.1,2.6,1.5c1.6,1.6,3.2,4.1,4.4,6.8c2.7,6.5,1.7,10.5,1,10.8
				c-0.8,0.3-4.4-2-7-8.3c-2.7-6.5-1.7-10.5-1-10.8L120.4,56.3 M120.4,56.3c-2.7,1.3-2.7,7.3,0,13.6c2.7,6.4,7.1,10.6,9.8,9.5h0.1
				c2.7-1.3,2.7-7.3,0-13.6C127.6,59.4,123.2,55.1,120.4,56.3L120.4,56.3L120.4,56.3z"/>
		</g>
	</g>
	<g>
		<path class="st13" d="M25.8,131.8c2.1-0.2,2.8,1,7.1-1.7c2.9-1.8,1.8-8.8-2.4-15.6c-4.2-6.8-10-10.8-12.9-9
			c-3.5,2.2-3.2,3.1-4.5,5.1C11.7,112.6,23.7,132,25.8,131.8z"/>
		
			<ellipse transform="matrix(0.8477 -0.5305 0.5305 0.8477 -60.9803 29.2271)" class="st54" cx="20.4" cy="120.8" rx="5.4" ry="12.5"/>
		
			<pattern  id="SVGID_38_" xlink:href="#SVGID_35_" patternTransform="matrix(1.0688 -0.1319 -0.1319 -1.0688 3479.9255 -56123.8477)">
		</pattern>
		<path class="st68" d="M15.9,123.7c-3.7-5.9-4.6-11.9-2.1-13.5s7.6,1.9,11.2,7.8s4.6,11.9,2.1,13.5C24.6,133,19.5,129.5,15.9,123.7
			z"/>
		<g>
			<path class="st67" d="M14.9,112L14.9,112c0.2-0.1,1.2-0.1,3,1.2c1.8,1.3,3.7,3.4,5.3,5.9c3.6,5.8,3.5,10.1,2.8,10.5l0,0
				c-0.2,0.1-1.2,0.1-3-1.2s-3.7-3.4-5.3-5.9C14.1,116.7,14.2,112.4,14.9,112L14.9,112 M14,110c-0.1,0-0.2,0.1-0.3,0.2
				c-2.5,1.6-1.6,7.6,2.1,13.5c3.5,5.7,8.4,9.1,11,7.9c0.1,0,0.2-0.1,0.3-0.2c2.5-1.6,1.6-7.6-2.1-13.5
				C21.4,112.2,16.6,108.8,14,110L14,110z"/>
		</g>
	</g>
	<g>
		<g>
			<path class="st69" d="M47.6,42.1c-1.1,0.5-2.4,0-2.9-1.1l-3.1-6.7c-0.5-1.1,0-2.4,1.1-2.9s2.4,0,2.9,1.1l3.1,6.7
				C49.1,40.3,48.7,41.6,47.6,42.1z"/>
		</g>
		<g>
			<circle class="st70" cx="42.8" cy="32.2" r="5.7"/>
		</g>
		<g>
			<g>
				<g>
					<path class="st5" d="M42.1,29.2c0.2-0.1,0.5-0.1,0.8-0.1c-0.1,0-0.2,0-0.3,0c0.3,0,0.6,0,0.9,0.1c-0.1,0-0.2,0-0.3-0.1
						c0.3,0.1,0.6,0.2,0.9,0.3c-0.1,0-0.1-0.1-0.2-0.1c0.2,0.1,0.4,0.3,0.6,0.4c0.2,0.1,0.5,0.2,0.7,0.2s0.5-0.2,0.7-0.4
						s0.2-0.5,0.2-0.7s-0.2-0.5-0.4-0.7c-1.1-0.9-2.6-1.2-3.9-0.9c-0.3,0.1-0.5,0.2-0.7,0.4c-0.1,0.2-0.2,0.5-0.2,0.7
						c0.1,0.3,0.2,0.5,0.4,0.7C41.6,29.2,41.9,29.3,42.1,29.2L42.1,29.2z"/>
				</g>
			</g>
		</g>
		<g>
			<g>
				<g>
					<path class="st5" d="M46,32.2C46,32.2,46.1,32.2,46,32.2L46,32.2c0,0,0,0.1,0.1,0.2C46.1,32.2,46,32.2,46,32.2s0.1,0.1,0.1,0.2
						C46.1,32.3,46.1,32.2,46,32.2c0,0.1,0.1,0.2,0.1,0.3C46.1,32.4,46.1,32.3,46,32.2c0.1,0.1,0,0.2,0.1,0.2c0,0.1,0,0.3,0,0.4
						c0,0.1,0.1,0.3,0.2,0.4c0.1,0.1,0.2,0.2,0.3,0.2c0.1,0.1,0.2,0.1,0.4,0.1c0.3,0,0.5,0,0.7-0.2s0.3-0.4,0.3-0.7c0,0,0-0.1,0-0.2
						c0-0.2,0-0.3,0-0.4c0-0.1,0-0.1,0-0.2s-0.1-0.3-0.1-0.4s0-0.1-0.1-0.2s-0.1-0.2-0.2-0.3c-0.1-0.2-0.3-0.3-0.4-0.4
						c-0.1-0.1-0.2-0.1-0.4-0.1c-0.1,0-0.2,0-0.4,0c-0.1,0-0.3,0.1-0.4,0.1c-0.1,0.1-0.2,0.1-0.3,0.3c-0.1,0.2-0.2,0.5-0.2,0.7
						c0,0.1,0,0.2,0.1,0.3C45.8,31.9,45.9,32.1,46,32.2L46,32.2z"/>
				</g>
			</g>
		</g>
	</g>
	<g class="st71">
		<path class="st5" d="M97.2,78.7C92.4,72,85.5,66.8,77.7,64.3l3.1-9.2c9.7,3.2,18.4,9.6,24.4,18L97.2,78.7z"/>
	</g>
	<g>
		<circle class="st72" cx="19.5" cy="106.6" r="0.7"/>
		<line class="st16" x1="20" y1="106.4" x2="19.1" y2="106.9"/>
		<line class="st16" x1="19.3" y1="106.2" x2="19.8" y2="107.1"/>
	</g>
	<g>
		<circle class="st72" cx="28.5" cy="114" r="0.7"/>
		<line class="st16" x1="29" y1="113.7" x2="28" y2="114.2"/>
		<line class="st16" x1="28.3" y1="113.5" x2="28.7" y2="114.4"/>
	</g>
	<g>
		<circle class="st72" cx="33.1" cy="126.3" r="0.7"/>
		<line class="st16" x1="33.6" y1="126" x2="32.7" y2="126.5"/>
		<line class="st16" x1="32.9" y1="125.8" x2="33.4" y2="126.7"/>
	</g>
	<g>
		<circle class="st72" cx="114.8" cy="58.1" r="0.7"/>
		<line class="st16" x1="115.4" y1="57.9" x2="114.4" y2="58.4"/>
		<line class="st16" x1="114.6" y1="57.7" x2="115.1" y2="58.6"/>
	</g>
	<g>
		<circle class="st72" cx="115.2" cy="70.9" r="0.7"/>
		<line class="st16" x1="115.8" y1="70.7" x2="114.8" y2="71.2"/>
		<line class="st16" x1="115" y1="70.5" x2="115.5" y2="71.3"/>
	</g>
	<g>
		<circle class="st72" cx="124.3" cy="82.3" r="0.7"/>
		<line class="st16" x1="124.8" y1="82" x2="123.8" y2="82.5"/>
		<line class="st16" x1="124.1" y1="81.9" x2="124.5" y2="82.7"/>
	</g>
	<g>
		<g>
			<g>
				<g>
					<g>
						<g>
							<defs>
								<path id="SVGID_39_" d="M63.1,160.8c-0.6,0.1-0.9,0.9-0.6,1.5c2.6,4.2,5.7,8.7,9.5,13.3c0,0,7.8,8.8,16.3,13.8
									c0,0,2.5,1.2,5-1.9c0,0,1-1.4-2.2-1.8c0,0-0.4-10-0.5-13.3c0-0.7-0.3-1.3-0.8-1.7C82.7,164.6,71.2,158.7,63.1,160.8z"/>
							</defs>
							<clipPath id="SVGID_40_">
								<use xlink:href="#SVGID_39_"  style="overflow:visible;"/>
							</clipPath>
							<g class="st73">
								<circle class="st13" cx="64.9" cy="161.9" r="0.7"/>
								<line class="st16" x1="64.4" y1="161.7" x2="65.5" y2="162.1"/>
								<line class="st16" x1="65.1" y1="161.4" x2="64.8" y2="162.3"/>
							</g>
						</g>
					</g>
				</g>
			</g>
		</g>
		<g>
			<g>
				<g>
					<g>
						<g>
							<defs>
								<path id="SVGID_41_" d="M63.1,160.8c-0.6,0.1-0.9,0.9-0.6,1.5c2.6,4.2,5.7,8.7,9.5,13.3c0,0,7.8,8.8,16.3,13.8
									c0,0,2.5,1.2,5-1.9c0,0,1-1.4-2.2-1.8c0,0-0.4-10-0.5-13.3c0-0.7-0.3-1.3-0.8-1.7C82.7,164.6,71.2,158.7,63.1,160.8z"/>
							</defs>
							<clipPath id="SVGID_42_">
								<use xlink:href="#SVGID_41_"  style="overflow:visible;"/>
							</clipPath>
							<g class="st74">
								<circle class="st13" cx="77.2" cy="164.3" r="0.7"/>
								<line class="st16" x1="76.7" y1="164.1" x2="77.7" y2="164.5"/>
								<line class="st16" x1="77.4" y1="163.8" x2="77.1" y2="164.8"/>
							</g>
						</g>
					</g>
				</g>
			</g>
		</g>
		<g>
			<g>
				<g>
					<g>
						<g>
							<defs>
								<path id="SVGID_43_" d="M63.1,160.8c-0.6,0.1-0.9,0.9-0.6,1.5c2.6,4.2,5.7,8.7,9.5,13.3c0,0,7.8,8.8,16.3,13.8
									c0,0,2.5,1.2,5-1.9c0,0,1-1.4-2.2-1.8c0,0-0.4-10-0.5-13.3c0-0.7-0.3-1.3-0.8-1.7C82.7,164.6,71.2,158.7,63.1,160.8z"/>
							</defs>
							<clipPath id="SVGID_44_">
								<use xlink:href="#SVGID_43_"  style="overflow:visible;"/>
							</clipPath>
							<g class="st75">
								<circle class="st13" cx="88.7" cy="171.5" r="0.7"/>
								<line class="st16" x1="88.2" y1="171.4" x2="89.3" y2="171.7"/>
								<line class="st16" x1="88.9" y1="171.1" x2="88.6" y2="172"/>
							</g>
						</g>
					</g>
				</g>
			</g>
		</g>
		<g>
			<g>
				<g>
					<g>
						<g>
							<defs>
								<path id="SVGID_45_" d="M63.1,160.8c-0.6,0.1-0.9,0.9-0.6,1.5c2.6,4.2,5.7,8.7,9.5,13.3c0,0,7.8,8.8,16.3,13.8
									c0,0,2.5,1.2,5-1.9c0,0,1-1.4-2.2-1.8c0,0-0.4-10-0.5-13.3c0-0.7-0.3-1.3-0.8-1.7C82.7,164.6,71.2,158.7,63.1,160.8z"/>
							</defs>
							<clipPath id="SVGID_46_">
								<use xlink:href="#SVGID_45_"  style="overflow:visible;"/>
							</clipPath>
							<g class="st76">
								<g>
									<path class="st19" d="M65.1,159.4c1.8,4.6,4.4,8.8,7.8,12.4c0.4,0.5,1.2-0.2,0.8-0.7c-3.3-3.5-5.9-7.7-7.6-12.2
										C65.8,158.4,64.9,158.8,65.1,159.4L65.1,159.4z"/>
								</g>
							</g>
						</g>
					</g>
				</g>
			</g>
		</g>
		<g>
			<g>
				<g>
					<g>
						<g>
							<defs>
								<path id="SVGID_47_" d="M63.1,160.8c-0.6,0.1-0.9,0.9-0.6,1.5c2.6,4.2,5.7,8.7,9.5,13.3c0,0,7.8,8.8,16.3,13.8
									c0,0,2.5,1.2,5-1.9c0,0,1-1.4-2.2-1.8c0,0-0.4-10-0.5-13.3c0-0.7-0.3-1.3-0.8-1.7C82.7,164.6,71.2,158.7,63.1,160.8z"/>
							</defs>
							<clipPath id="SVGID_48_">
								<use xlink:href="#SVGID_47_"  style="overflow:visible;"/>
							</clipPath>
							<g class="st77">
								<g>
									<path class="st19" d="M73.7,172c0.7-0.6,1.8-0.6,2.6-0.1c0.9,0.5,1.4,1.5,1.6,2.5c0.2,1.1-0.6,2-1.5,2.6
										c-0.9,0.7-2,1-3.1,1.1c-0.3,0-0.4,0.3-0.4,0.6c0.1,0.3,0.3,0.4,0.6,0.4c1.1-0.1,2.2-0.4,3.1-1s1.8-1.3,2.2-2.3
										c0.4-1,0.1-2.2-0.4-3c-0.5-0.9-1.2-1.7-2.2-2c-1.1-0.4-2.3-0.2-3.1,0.5C72.5,171.7,73.1,172.5,73.7,172L73.7,172z"/>
								</g>
							</g>
						</g>
					</g>
				</g>
			</g>
		</g>
		<g>
			<g>
				<g>
					<g>
						<g>
							<defs>
								<path id="SVGID_49_" d="M63.1,160.8c-0.6,0.1-0.9,0.9-0.6,1.5c2.6,4.2,5.7,8.7,9.5,13.3c0,0,7.8,8.8,16.3,13.8
									c0,0,2.5,1.2,5-1.9c0,0,1-1.4-2.2-1.8c0,0-0.4-10-0.5-13.3c0-0.7-0.3-1.3-0.8-1.7C82.7,164.6,71.2,158.7,63.1,160.8z"/>
							</defs>
							<clipPath id="SVGID_50_">
								<use xlink:href="#SVGID_49_"  style="overflow:visible;"/>
							</clipPath>
							<g class="st78">
								<g>
									<path class="st19" d="M78.3,174.8c5.2,0,10.3,1.6,14.6,4.5c0.5,0.3,1.1-0.5,0.6-0.8c-4.5-3-9.7-4.6-15.1-4.6
										C77.7,173.8,77.6,174.8,78.3,174.8L78.3,174.8z"/>
								</g>
							</g>
						</g>
					</g>
				</g>
			</g>
		</g>
		<g>
			<g>
				<g>
					<g>
						<g>
							<defs>
								<path id="SVGID_51_" d="M63.1,160.8c-0.6,0.1-0.9,0.9-0.6,1.5c2.6,4.2,5.7,8.7,9.5,13.3c0,0,7.8,8.8,16.3,13.8
									c0,0,2.5,1.2,5-1.9c0,0,1-1.4-2.2-1.8c0,0-0.4-10-0.5-13.3c0-0.7-0.3-1.3-0.8-1.7C82.7,164.6,71.2,158.7,63.1,160.8z"/>
							</defs>
							<clipPath id="SVGID_52_">
								<use xlink:href="#SVGID_51_"  style="overflow:visible;"/>
							</clipPath>
							<circle class="st79" cx="74.6" cy="174.9" r="4.2"/>
						</g>
					</g>
				</g>
			</g>
		</g>
		<g>
			<g>
				<g>
					<g>
						<g>
							<defs>
								<path id="SVGID_53_" d="M63.1,160.8c-0.6,0.1-0.9,0.9-0.6,1.5c2.6,4.2,5.7,8.7,9.5,13.3c0,0,7.8,8.8,16.3,13.8
									c0,0,2.5,1.2,5-1.9c0,0,1-1.4-2.2-1.8c0,0-0.4-10-0.5-13.3c0-0.7-0.3-1.3-0.8-1.7C82.7,164.6,71.2,158.7,63.1,160.8z"/>
							</defs>
							<clipPath id="SVGID_54_">
								<use xlink:href="#SVGID_53_"  style="overflow:visible;"/>
							</clipPath>
							<circle class="st80" cx="74.6" cy="174.9" r="2.9"/>
						</g>
					</g>
				</g>
			</g>
		</g>
		<g>
			<g>
				<g>
					<g>
						<g>
							<defs>
								<path id="SVGID_55_" d="M63.1,160.8c-0.6,0.1-0.9,0.9-0.6,1.5c2.6,4.2,5.7,8.7,9.5,13.3c0,0,7.8,8.8,16.3,13.8
									c0,0,2.5,1.2,5-1.9c0,0,1-1.4-2.2-1.8c0,0-0.4-10-0.5-13.3c0-0.7-0.3-1.3-0.8-1.7C82.7,164.6,71.2,158.7,63.1,160.8z"/>
							</defs>
							<clipPath id="SVGID_56_">
								<use xlink:href="#SVGID_55_"  style="overflow:visible;"/>
							</clipPath>
							<g class="st81">
								<circle class="st13" cx="74.6" cy="174.9" r="1.6"/>
								<line class="st82" x1="73.3" y1="174.5" x2="75.9" y2="175.4"/>
								<line class="st82" x1="75" y1="173.8" x2="74.2" y2="176.1"/>
							</g>
						</g>
					</g>
				</g>
			</g>
		</g>
	</g>
	<g>
		<g>
			<g>
				<g>
					<g>
						<g>
							<defs>
								<path id="SVGID_57_" d="M119.7,158.1c2.4,2.2,8.9,8,11.1,9.1c0,0-2.2,1.3-0.4,2.2c0,0,3.1,0.4,4.7-2c0,0,0.8-11.2-2.5-22.3
									c0,0-0.4-3-4.8-13.5c-0.3-0.6-1.1-0.8-1.6-0.3c-5.4,5.3-7.7,16.3-7.5,24.8C118.9,156.9,119.2,157.6,119.7,158.1z"/>
							</defs>
							<clipPath id="SVGID_58_">
								<use xlink:href="#SVGID_57_"  style="overflow:visible;"/>
							</clipPath>
							<g class="st83">
								<circle class="st13" cx="127" cy="132.2" r="0.7"/>
								<line class="st16" x1="127.1" y1="131.6" x2="126.8" y2="132.7"/>
								<line class="st16" x1="126.5" y1="132" x2="127.5" y2="132.3"/>
							</g>
						</g>
					</g>
				</g>
			</g>
		</g>
		<g>
			<g>
				<g>
					<g>
						<g>
							<defs>
								<path id="SVGID_59_" d="M119.7,158.1c2.4,2.2,8.9,8,11.1,9.1c0,0-2.2,1.3-0.4,2.2c0,0,3.1,0.4,4.7-2c0,0,0.8-11.2-2.5-22.3
									c0,0-0.4-3-4.8-13.5c-0.3-0.6-1.1-0.8-1.6-0.3c-5.4,5.3-7.7,16.3-7.5,24.8C118.9,156.9,119.2,157.6,119.7,158.1z"/>
							</defs>
							<clipPath id="SVGID_60_">
								<use xlink:href="#SVGID_59_"  style="overflow:visible;"/>
							</clipPath>
							<g class="st84">
								<circle class="st13" cx="121.5" cy="143.4" r="0.7"/>
								<line class="st16" x1="121.7" y1="142.9" x2="121.3" y2="143.9"/>
								<line class="st16" x1="121" y1="143.3" x2="122" y2="143.6"/>
							</g>
						</g>
					</g>
				</g>
			</g>
		</g>
		<g>
			<g>
				<g>
					<g>
						<g>
							<defs>
								<path id="SVGID_61_" d="M119.7,158.1c2.4,2.2,8.9,8,11.1,9.1c0,0-2.2,1.3-0.4,2.2c0,0,3.1,0.4,4.7-2c0,0,0.8-11.2-2.5-22.3
									c0,0-0.4-3-4.8-13.5c-0.3-0.6-1.1-0.8-1.6-0.3c-5.4,5.3-7.7,16.3-7.5,24.8C118.9,156.9,119.2,157.6,119.7,158.1z"/>
							</defs>
							<clipPath id="SVGID_62_">
								<use xlink:href="#SVGID_61_"  style="overflow:visible;"/>
							</clipPath>
							<g class="st85">
								<circle class="st13" cx="120.3" cy="157" r="0.7"/>
								<line class="st16" x1="120.4" y1="156.4" x2="120.1" y2="157.5"/>
								<line class="st16" x1="119.8" y1="156.8" x2="120.7" y2="157.1"/>
							</g>
						</g>
					</g>
				</g>
			</g>
		</g>
		<g>
			<g>
				<g>
					<g>
						<g>
							<defs>
								<path id="SVGID_63_" d="M119.7,158.1c2.4,2.2,8.9,8,11.1,9.1c0,0-2.2,1.3-0.4,2.2c0,0,3.1,0.4,4.7-2c0,0,0.8-11.2-2.5-22.3
									c0,0-0.4-3-4.8-13.5c-0.3-0.6-1.1-0.8-1.6-0.3c-5.4,5.3-7.7,16.3-7.5,24.8C118.9,156.9,119.2,157.6,119.7,158.1z"/>
							</defs>
							<clipPath id="SVGID_64_">
								<use xlink:href="#SVGID_63_"  style="overflow:visible;"/>
							</clipPath>
							<g class="st86">
								<g>
									<path class="st19" d="M124,131.3c2.5,4.1,4.2,8.7,5.1,13.4c0.1,0.6,1.1,0.5,1-0.2c-0.8-4.8-2.6-9.5-5.2-13.7
										C124.6,130.3,123.7,130.7,124,131.3L124,131.3z"/>
								</g>
							</g>
						</g>
					</g>
				</g>
			</g>
		</g>
		<g>
			<g>
				<g>
					<g>
						<g>
							<defs>
								<path id="SVGID_65_" d="M119.7,158.1c2.4,2.2,8.9,8,11.1,9.1c0,0-2.2,1.3-0.4,2.2c0,0,3.1,0.4,4.7-2c0,0,0.8-11.2-2.5-22.3
									c0,0-0.4-3-4.8-13.5c-0.3-0.6-1.1-0.8-1.6-0.3c-5.4,5.3-7.7,16.3-7.5,24.8C118.9,156.9,119.2,157.6,119.7,158.1z"/>
							</defs>
							<clipPath id="SVGID_66_">
								<use xlink:href="#SVGID_65_"  style="overflow:visible;"/>
							</clipPath>
							<g class="st87">
								<g>
									<path class="st19" d="M129.6,144.2c-1,0.2-1.8,0.9-2.2,1.8c-0.4,1-0.4,2.1,0,3c0.3,1,1.1,2,2,2.4c1,0.4,2.2,0.2,3.1-0.1
										c1.2-0.4,2.3-1.1,3-2.1c0.4-0.5-0.4-1.1-0.8-0.6c-0.7,0.9-1.7,1.5-2.8,1.8c-1,0.3-2.1,0.3-2.8-0.5c-0.7-0.7-1.1-1.8-1-2.8
										c0.1-0.9,0.7-1.8,1.6-2C130.4,145.1,130.2,144.1,129.6,144.2L129.6,144.2z"/>
								</g>
							</g>
						</g>
					</g>
				</g>
			</g>
		</g>
		<g>
			<g>
				<g>
					<g>
						<g>
							<defs>
								<path id="SVGID_67_" d="M119.7,158.1c2.4,2.2,8.9,8,11.1,9.1c0,0-2.2,1.3-0.4,2.2c0,0,3.1,0.4,4.7-2c0,0,0.8-11.2-2.5-22.3
									c0,0-0.4-3-4.8-13.5c-0.3-0.6-1.1-0.8-1.6-0.3c-5.4,5.3-7.7,16.3-7.5,24.8C118.9,156.9,119.2,157.6,119.7,158.1z"/>
							</defs>
							<clipPath id="SVGID_68_">
								<use xlink:href="#SVGID_67_"  style="overflow:visible;"/>
							</clipPath>
							<g class="st88">
								<g>
									<path class="st19" d="M128.3,150.1c-3.2,4.3-5.1,9.5-5.5,14.8c0,0.6,1,0.7,1,0.1c0.3-5.2,2.2-10.2,5.3-14.3
										C129.5,150.1,128.7,149.6,128.3,150.1L128.3,150.1z"/>
								</g>
							</g>
						</g>
					</g>
				</g>
			</g>
		</g>
		<g>
			<g>
				<g>
					<g>
						<g>
							<defs>
								<path id="SVGID_69_" d="M119.7,158.1c2.4,2.2,8.9,8,11.1,9.1c0,0-2.2,1.3-0.4,2.2c0,0,3.1,0.4,4.7-2c0,0,0.8-11.2-2.5-22.3
									c0,0-0.4-3-4.8-13.5c-0.3-0.6-1.1-0.8-1.6-0.3c-5.4,5.3-7.7,16.3-7.5,24.8C118.9,156.9,119.2,157.6,119.7,158.1z"/>
							</defs>
							<clipPath id="SVGID_70_">
								<use xlink:href="#SVGID_69_"  style="overflow:visible;"/>
							</clipPath>
							<circle class="st89" cx="131.4" cy="147.4" r="4.2"/>
						</g>
					</g>
				</g>
			</g>
		</g>
		<g>
			<g>
				<g>
					<g>
						<g>
							<defs>
								<path id="SVGID_71_" d="M119.7,158.1c2.4,2.2,8.9,8,11.1,9.1c0,0-2.2,1.3-0.4,2.2c0,0,3.1,0.4,4.7-2c0,0,0.8-11.2-2.5-22.3
									c0,0-0.4-3-4.8-13.5c-0.3-0.6-1.1-0.8-1.6-0.3c-5.4,5.3-7.7,16.3-7.5,24.8C118.9,156.9,119.2,157.6,119.7,158.1z"/>
							</defs>
							<clipPath id="SVGID_72_">
								<use xlink:href="#SVGID_71_"  style="overflow:visible;"/>
							</clipPath>
							<circle class="st90" cx="131.4" cy="147.4" r="2.9"/>
						</g>
					</g>
				</g>
			</g>
		</g>
		<g>
			<g>
				<g>
					<g>
						<g>
							<defs>
								<path id="SVGID_73_" d="M119.7,158.1c2.4,2.2,8.9,8,11.1,9.1c0,0-2.2,1.3-0.4,2.2c0,0,3.1,0.4,4.7-2c0,0,0.8-11.2-2.5-22.3
									c0,0-0.4-3-4.8-13.5c-0.3-0.6-1.1-0.8-1.6-0.3c-5.4,5.3-7.7,16.3-7.5,24.8C118.9,156.9,119.2,157.6,119.7,158.1z"/>
							</defs>
							<clipPath id="SVGID_74_">
								<use xlink:href="#SVGID_73_"  style="overflow:visible;"/>
							</clipPath>
							<g class="st91">
								<circle class="st13" cx="131.4" cy="147.4" r="1.6"/>
								<line class="st82" x1="130.1" y1="147" x2="132.6" y2="147.9"/>
								<line class="st82" x1="131.8" y1="146.3" x2="130.9" y2="148.6"/>
							</g>
						</g>
					</g>
				</g>
			</g>
		</g>
	</g>
	<g>
		<path class="st32" d="M25.2,99.4c-0.2,0.1-0.3,0.1-0.5,0.1c-0.7,0-1.4-0.6-1.4-1.3c-0.4-14.2,10.5-27,31.5-37.1
			c32.5-15.6,46.7-4.7,49.2-2.4c0.5,0.5,0.6,1.4,0.1,1.9s-1.4,0.6-1.9,0.1c-1-1-5-4.2-13-5c-9.2-1-20.4,1.7-33.2,7.8
			c-20,9.6-30.4,21.6-30,34.6C26,98.6,25.7,99.1,25.2,99.4z"/>
	</g>
	<g>
		<g>
			<g>
				<g>
					<g>
						<g>
							<defs>
								<path id="SVGID_75_" d="M94.4,145.5c-20.5,9.5-30.3,8.6-35.3,7.1c0.8,1.9,1.7,3.9,2.6,5.4c0.5,0.9,1.5,1.3,2.5,1.1
									c8.1-1.8,19.2,3.9,26.2,9.8c0.5,0.5,1.3,0.5,1.9,0.2c4.1-2.3,19.7-9.5,24-11.4c0.6-0.3,1-0.9,1.1-1.6
									c-0.1-8.5,2.1-19.6,7.6-24.9c0.6-0.5,0.7-1.4,0.4-2.1c-0.6-1.4-1.6-3.4-2.7-5.6C120.4,128.6,113.5,136.6,94.4,145.5z"/>
							</defs>
							<clipPath id="SVGID_76_">
								<use xlink:href="#SVGID_75_"  style="overflow:visible;"/>
							</clipPath>
							<g class="st92">
								<g>
									<path class="st19" d="M125.7,132.4c-1-2.6-2.5-4.9-4.2-7c-0.4-0.5-1.2,0.1-0.8,0.7c1.7,2,3.1,4.3,4.1,6.8
										C125.1,133.4,126,133,125.7,132.4L125.7,132.4z"/>
								</g>
							</g>
						</g>
					</g>
				</g>
			</g>
		</g>
		<g>
			<g>
				<g>
					<g>
						<g>
							<defs>
								<path id="SVGID_77_" d="M94.4,145.5c-20.5,9.5-30.3,8.6-35.3,7.1c0.8,1.9,1.7,3.9,2.6,5.4c0.5,0.9,1.5,1.3,2.5,1.1
									c8.1-1.8,19.2,3.9,26.2,9.8c0.5,0.5,1.3,0.5,1.9,0.2c4.1-2.3,19.7-9.5,24-11.4c0.6-0.3,1-0.9,1.1-1.6
									c-0.1-8.5,2.1-19.6,7.6-24.9c0.6-0.5,0.7-1.4,0.4-2.1c-0.6-1.4-1.6-3.4-2.7-5.6C120.4,128.6,113.5,136.6,94.4,145.5z"/>
							</defs>
							<clipPath id="SVGID_78_">
								<use xlink:href="#SVGID_77_"  style="overflow:visible;"/>
							</clipPath>
							<g class="st93">
								<g>
									<path class="st19" d="M66.1,159.2c-1.2-2.2-2.2-4.7-2.8-7.2c-0.1-0.6-1.1-0.5-1,0.2c0.7,2.6,1.6,5.1,2.9,7.4
										C65.5,160.2,66.4,159.8,66.1,159.2L66.1,159.2z"/>
								</g>
							</g>
						</g>
					</g>
				</g>
			</g>
		</g>
	</g>
</g>
</svg>
