<?xml version="1.0" encoding="UTF-8"?>
<svg width="22px" height="22px" viewBox="0 0 22 22" version="1.1" xmlns="http://www.w3.org/2000/svg" xmlns:xlink="http://www.w3.org/1999/xlink">
    <!-- Generator: Sketch 61.2 (89653) - https://sketch.com -->
    <title>Shopping-E-Commerce / E-Commerce / e-commerce-shopping-bag-browser</title>
    <desc>Created with Sketch.</desc>
    <g id="新建投組" stroke="none" stroke-width="1" fill="none" fill-rule="evenodd" stroke-linecap="round" stroke-linejoin="round">
        <g id="選單-登入後-360Android" transform="translate(-80.000000, -516.000000)" stroke="#FFFFFF" stroke-width="2">
            <g id="Shopping-E-Commerce-/-E-Commerce-/-e-commerce-shopping-bag-browser" transform="translate(81.000000, 517.000000)">
                <g id="Group">
                    <g id="e-commerce-shopping-bag-browser">
                        <path d="M17.9416667,11.2558333 L12.065,11.2558333 C11.7436735,11.2686916 11.4848697,11.5238858 11.4675,11.845 L10.6341667,18.6483333 C10.609149,18.8255568 10.6596838,19.0051425 10.7734519,19.1433121 C10.8872201,19.2814818 11.0537695,19.3655416 11.2325,19.375 L18.7725,19.375 C18.9512305,19.3655416 19.1177799,19.2814818 19.2315481,19.1433121 C19.3453162,19.0051425 19.395851,18.8255568 19.3708333,18.6483333 L18.5375,11.845 C18.520199,11.524497 18.262344,11.2695271 17.9416667,11.2558333 Z" id="Shape"></path>
                        <path d="M16.5366667,13.7316667 C16.3942021,14.4678434 15.7498348,14.999691 15,15 L15,15 C14.2540544,14.9984078 13.6127972,14.4708265 13.4675,13.7391667" id="Shape"></path>
                        <path d="M19.3750042,8.75 L19.3750042,1.97083333 C19.3758852,1.61477986 19.2352918,1.27295791 18.9841491,1.02056496 C18.7330064,0.768172012 18.3918868,0.625882958 18.0358333,0.625 L1.96416667,0.625 C1.60811319,0.625882958 1.26699361,0.768172012 1.01585091,1.02056496 C0.764708204,1.27295791 0.624114847,1.61477986 0.624993512,1.97083333 L0.624993512,15.5283333 C0.623893384,15.884531 0.764388879,16.2265671 1.01555555,16.4791405 C1.26672222,16.7317138 1.6079684,16.8741173 1.96416667,16.875 L7.5,16.875" id="Shape"></path>
                        <line x1="0.625" y1="4.375" x2="19.375" y2="4.375" id="Shape"></line>
                        <path d="M7.1875,8.125 L5.49333333,8.125 C4.95781511,8.12537403 4.49772232,8.50532755 4.39610113,9.03111557 C4.29447995,9.5569036 4.57985554,10.0809368 5.07666667,10.2808333 L6.79666667,10.9683333 C7.29463151,11.1675364 7.58106326,11.6922127 7.47932579,12.2188059 C7.37758832,12.745399 6.91633056,13.1256221 6.38,13.125 L4.6875,13.125" id="Shape"></path>
                        <line x1="5.9375" y1="8.125" x2="5.9375" y2="7.5" id="Shape"></line>
                        <line x1="5.9375" y1="13.75" x2="5.9375" y2="13.125" id="Shape"></line>
                    </g>
                </g>
            </g>
        </g>
    </g>
</svg>