<?xml version="1.0" encoding="UTF-8"?>
<svg width="22px" height="22px" viewBox="0 0 22 22" version="1.1" xmlns="http://www.w3.org/2000/svg" xmlns:xlink="http://www.w3.org/1999/xlink">
    <!-- Generator: Sketch 61.2 (89653) - https://sketch.com -->
    <title>Money-Payments-Finance / Finance/Savings / saving-piggy-dollars</title>
    <desc>Created with Sketch.</desc>
    <g id="新建投組" stroke="none" stroke-width="1" fill="none" fill-rule="evenodd" stroke-linecap="round" stroke-linejoin="round">
        <g id="選單-登入前-360Android" transform="translate(-79.000000, -466.000000)" stroke="#FFFFFF" stroke-width="1.8">
            <g id="Money-Payments-Finance-/-Finance/Savings-/-saving-piggy-dollars" transform="translate(80.000000, 467.000000)">
                <g id="Group">
                    <g id="saving-piggy-dollars">
                        <path d="M14.375,16.3641667 C15.3854704,15.5464366 16.142675,14.4583163 16.5583333,13.2266667" id="Shape"></path>
                        <path d="M6.25,8.4375 C6.42258898,8.4375 6.5625,8.57741102 6.5625,8.75 C6.5625,8.92258898 6.42258898,9.0625 6.25,9.0625 C6.07741102,9.0625 5.9375,8.92258898 5.9375,8.75 C5.9375,8.57741102 6.07741102,8.4375 6.25,8.4375" id="Shape"></path>
                        <path d="M15.625,3.125 L13.9308333,3.125 C13.3953151,3.12537403 12.9352223,3.50532755 12.8336011,4.03111557 C12.7319799,4.5569036 13.0173555,5.08093682 13.5141667,5.28083333 L15.2341667,5.96916667 C15.7309778,6.16906318 16.0163534,6.6930964 15.9147322,7.21888443 C15.813111,7.74467245 15.3530182,8.12462597 14.8175,8.125 L13.125,8.125" id="Shape"></path>
                        <line x1="14.375" y1="3.125" x2="14.375" y2="2.5" id="Shape"></line>
                        <line x1="14.375" y1="8.75" x2="14.375" y2="8.125" id="Shape"></line>
                        <circle id="Oval" cx="14.375" cy="5.625" r="5"></circle>
                        <path d="M7.53083333,4.60916667 L5.87833333,3.23166667 C5.70267467,3.0854967 5.46124535,3.04684842 5.24873577,3.13087999 C5.03622619,3.21491156 4.88652009,3.40822449 4.85833333,3.635 L4.56166667,6.005 C3.4352991,6.85485289 2.59885771,8.031808 2.16666667,9.375 L0.625,9.375 L0.625,14.375 L2.7,14.375 C4.08613435,16.7370705 6.63661967,18.1699274 9.375,18.125 C12.6429452,18.2110718 15.5827918,16.1498973 16.6158333,13.0483333" id="Shape"></path>
                        <line x1="5.00916667" y1="16.8366667" x2="4.375" y2="19.375" id="Shape"></line>
                        <line x1="13.7416667" y1="16.8408333" x2="14.375" y2="19.375" id="Shape"></line>
                    </g>
                </g>
            </g>
        </g>
    </g>
</svg>