<?xml version="1.0" encoding="UTF-8"?>
<svg width="20px" height="22px" viewBox="0 0 20 22" version="1.1" xmlns="http://www.w3.org/2000/svg" xmlns:xlink="http://www.w3.org/1999/xlink">
    <!-- Generator: Sketch 61.2 (89653) - https://sketch.com -->
    <title>Technology / 3D-Printing / user-3d-box</title>
    <desc>Created with Sketch.</desc>
    <g id="新建投組" stroke="none" stroke-width="1" fill="none" fill-rule="evenodd" stroke-linecap="round" stroke-linejoin="round">
        <g id="選單-登入後-360Android" transform="translate(-81.000000, -381.000000)" stroke="#FFFFFF" stroke-width="1.8">
            <g id="Technology-/-3D-Printing-/-user-3d-box" transform="translate(81.000000, 382.000000)">
                <g id="Group">
                    <g id="user-3d-box">
                        <polygon id="Shape" points="8.75 12.5 5 10.625 5 6.25 8.75 8.125"></polygon>
                        <polygon id="Shape" points="8.75 12.5 12.5 10.625 12.5 6.25 8.75 8.125"></polygon>
                        <polyline id="Shape" points="12.5 6.25 8.75 4.375 5 6.25"></polyline>
                        <path d="M3.75,19.375 L3.75,14.1541667 C1.3934328,11.971016 0.61536797,8.5668688 1.78950766,5.57672639 C2.96364734,2.58658399 5.85009553,0.621381639 9.0625,0.624995012 C15.3125,0.624995012 16.415,6.04166667 18.75,11.875 L16.25,11.875 L16.25,14.375 C16.25,15.7557119 15.1307119,16.875 13.75,16.875 L12.5,16.875 L12.5,19.375" id="Shape"></path>
                    </g>
                </g>
            </g>
        </g>
    </g>
</svg>