<?xml version="1.0" encoding="UTF-8"?>
<svg width="22px" height="22px" viewBox="0 0 22 22" version="1.1" xmlns="http://www.w3.org/2000/svg" xmlns:xlink="http://www.w3.org/1999/xlink">
    <!-- Generator: Sketch 61.2 (89653) - https://sketch.com -->
    <title>Interface-Essential / Iris-Scan / iris-scan-lock</title>
    <desc>Created with Sketch.</desc>
    <g id="新建投組" stroke="none" stroke-width="1" fill="none" fill-rule="evenodd" stroke-linecap="round" stroke-linejoin="round">
        <g id="選單-登入前-360Android" transform="translate(-243.000000, -401.000000)" stroke="#FFFFFF" stroke-width="1.5">
            <g id="Interface-Essential-/-Iris-Scan-/-iris-scan-lock" transform="translate(244.000000, 402.000000)">
                <g id="Group">
                    <g id="iris-scan-lock">
                        <path d="M19.0191667,7.17583333 C19.4943986,6.64881214 19.4943986,5.84785453 19.0191667,5.32083333 C16.8333333,2.91666667 13.3591667,0.57 10,0.625833333 C6.64083333,0.57 3.16666667,2.91666667 0.9825,5.32083333 C0.507652764,5.84800229 0.507652764,6.64866438 0.9825,7.17583333 C3.11833333,9.52916667 6.58333333,11.9308333 10,11.8741667" id="Shape"></path>
                        <path d="M13.125,6.25 C13.125,7.97588984 11.7258898,9.375 10,9.375 C8.27411016,9.375 6.875,7.97588984 6.875,6.25 C6.875,4.52411016 8.27411016,3.125 10,3.125 C11.7258898,3.125 13.125,4.52411016 13.125,6.25 Z" id="Shape"></path>
                        <rect id="Rectangle-path" x="11.875" y="13.125" width="7.5" height="6.25" rx="1.5"></rect>
                        <path d="M15.625,9.375 L15.625,9.375 C14.2442881,9.375 13.125,10.4942881 13.125,11.875 L13.125,13.125 L18.125,13.125 L18.125,11.875 C18.125,10.4942881 17.0057119,9.375 15.625,9.375 Z" id="Shape"></path>
                        <path d="M15.625,15.9616667 C15.797589,15.9616667 15.9375,16.1015777 15.9375,16.2741667 C15.9375,16.4467557 15.797589,16.5866667 15.625,16.5866667 C15.452411,16.5866667 15.3125,16.4467557 15.3125,16.2741667 C15.3125,16.1015777 15.452411,15.9616667 15.625,15.9616667" id="Shape"></path>
                    </g>
                </g>
            </g>
        </g>
    </g>
</svg>