<?xml version="1.0" encoding="UTF-8"?>
<svg width="22px" height="22px" viewBox="0 0 22 22" version="1.1" xmlns="http://www.w3.org/2000/svg" xmlns:xlink="http://www.w3.org/1999/xlink">
    <!-- Generator: Sketch 61.2 (89653) - https://sketch.com -->
    <title>Interface-Essential / Login/Logout / user-logout</title>
    <desc>Created with Sketch.</desc>
    <g id="新建投組" stroke="none" stroke-width="1" fill="none" fill-rule="evenodd" stroke-linecap="round" stroke-linejoin="round">
        <g id="選單-登入後-360Android" transform="translate(-79.000000, -584.000000)" stroke="#FFFFFF" stroke-width="1.8">
            <g id="Interface-Essential-/-Login/Logout-/-user-logout" transform="translate(80.000000, 585.000000)">
                <g id="Group">
                    <g id="user-logout">
                        <polyline id="Shape" points="17.4991667 1.87833333 19.3741667 4.37833333 13.1241667 4.37833333"></polyline>
                        <line x1="17.5" y1="6.87833333" x2="19.375" y2="4.37833333" id="Shape"></line>
                        <circle id="Oval" cx="5.625" cy="3.12833333" r="2.5"></circle>
                        <path d="M5.625,6.25 C2.86357625,6.25 0.625,8.48857625 0.625,11.25 L0.625,13.125 C0.625,13.8153559 1.18464406,14.375 1.875,14.375 L3.125,14.375 L3.125,18.125 C3.125,18.8153559 3.68464406,19.375 4.375,19.375 L6.875,19.375 C7.56535594,19.375 8.125,18.8153559 8.125,18.125 L8.125,14.375 L9.375,14.375 C10.0653559,14.375 10.625,13.8153559 10.625,13.125 L10.625,11.25 C10.625,8.48857625 8.38642375,6.25 5.625,6.25 Z" id="Shape"></path>
                    </g>
                </g>
            </g>
        </g>
    </g>
</svg>