<?xml version="1.0" encoding="UTF-8"?>
<svg width="22px" height="22px" viewBox="0 0 22 22" version="1.1" xmlns="http://www.w3.org/2000/svg" xmlns:xlink="http://www.w3.org/1999/xlink">
    <!-- Generator: Sketch 61.2 (89653) - https://sketch.com -->
    <title>Content / Notes / notes-star</title>
    <desc>Created with Sketch.</desc>
    <g id="新建投組" stroke="none" stroke-width="1" fill="none" fill-rule="evenodd" stroke-linecap="round" stroke-linejoin="round">
        <g id="選單-登入後-360Android" transform="translate(-80.000000, -471.000000)" stroke="#FFFFFF" stroke-width="2">
            <g id="Content-/-Notes-/-notes-star" transform="translate(81.000000, 472.000000)">
                <g id="Group">
                    <g id="notes-star">
                        <path d="M14.9558333,9.73333333 L16.24,13.125 L18.74,13.125 C18.9983177,13.1148649 19.2351861,13.2680057 19.3319693,13.5077217 C19.4287526,13.7474377 19.3646097,14.0221092 19.1716667,14.1941667 L17.005,15.7075 L18.2066667,18.4683333 C18.3142849,18.7275926 18.244737,19.026604 18.0337515,19.2117583 C17.822766,19.3969127 17.517255,19.4270415 17.2741667,19.2866667 L14.3666667,17.6525 L11.4608333,19.2866667 C11.217745,19.4270415 10.912234,19.3969127 10.7012485,19.2117583 C10.490263,19.026604 10.4207151,18.7275926 10.5283333,18.4683333 L11.7308333,15.7075 L9.56416667,14.1941667 C9.37061821,14.0227998 9.30569965,13.7482586 9.40199806,13.508354 C9.49829647,13.2684494 9.73501699,13.114987 9.99333333,13.125 L12.4933333,13.125 L13.78,9.73333333 C13.8959685,9.51642277 14.1219515,9.38098885 14.3679167,9.38098885 C14.6138819,9.38098885 14.8398649,9.51642277 14.9558333,9.73333333 L14.9558333,9.73333333 Z" id="Shape"></path>
                        <path d="M6.875,16.875 L1.875,16.875 C1.54099846,16.8833193 1.21819946,16.7542966 0.981951455,16.5180485 C0.745703448,16.2818005 0.616680708,15.9590015 0.625,15.625 L0.625,3.21416667 C0.601112549,2.49946355 1.16034681,1.90033724 1.875,1.875 L14.375,1.875 C15.0896532,1.90033724 15.6488875,2.49946355 15.625,3.21416667 L15.625,6.875" id="Shape"></path>
                        <line x1="4.375" y1="0.625" x2="4.375" y2="4.375" id="Shape"></line>
                        <line x1="8.125" y1="0.625" x2="8.125" y2="4.375" id="Shape"></line>
                        <line x1="11.875" y1="0.625" x2="11.875" y2="4.375" id="Shape"></line>
                    </g>
                </g>
            </g>
        </g>
    </g>
</svg>